<?xml version="1.0" encoding="UTF-8"?>
<svg width="11px" height="20px" viewBox="0 0 11 20" version="1.1" xmlns="http://www.w3.org/2000/svg" xmlns:xlink="http://www.w3.org/1999/xlink">
    <!-- Generator: Sketch 51.3 (57544) - http://www.bohemiancoding.com/sketch -->
    <title>Shape Copy</title>
    <desc>Created with Sketch.</desc>
    <defs></defs>
    <g id="Page-1" stroke="none" stroke-width="1" fill="none" fill-rule="evenodd">
        <g id="Profile-Copy" transform="translate(-1327.000000, -2481.000000)" fill="#A9B1B9" fill-rule="nonzero" stroke="#A9B1B9" stroke-width="0.833333333">
            <g id="Group-16" transform="translate(927.000000, 1106.000000)">
                <g id="you-may-also-like" transform="translate(0.000000, 730.000000)">
                    <g id="info" transform="translate(0.000000, 461.000000)">
                        <g id="website-bttn" transform="translate(35.000000, 161.000000)">
                            <path d="M374.769974,42 C374.648011,42 374.525674,41.9504 374.43154,41.8516 L366.454234,33.4424018 C366.317702,33.3484018 366.232346,33.1856018 366.232346,33.0078019 C366.232346,32.8428019 366.305748,32.6858019 366.425097,32.5876019 L374.367476,24.1498037 C374.557052,23.9490037 374.862428,23.9502037 375.049949,24.1526037 C375.23803,24.3554036 375.236536,24.6826036 375.047147,24.8836035 L367.408836,32.9986019 L375.108783,41.1150002 C375.298732,41.3152001 375.30116,41.6424001 375.114199,41.8458 C375.019691,41.9484 374.894926,42 374.769974,42 Z" id="Shape-Copy" transform="translate(370.742597, 33.000000) scale(-1, 1) translate(-370.742597, -33.000000) "></path>
                        </g>
                    </g>
                </g>
            </g>
        </g>
    </g>
</svg>