<?xml version="1.0" encoding="UTF-8"?>
<svg width="131px" height="156px" viewBox="0 0 131 156" version="1.1" xmlns="http://www.w3.org/2000/svg" xmlns:xlink="http://www.w3.org/1999/xlink">
    <!-- Generator: Sketch 51.3 (57544) - http://www.bohemiancoding.com/sketch -->
    <title>logo</title>
    <desc>Created with Sketch.</desc>
    <defs>
        <polygon id="path-1" points="7.81312127e-05 0.0388503146 130.849728 0.0388503146 130.849728 110.699675 7.81312127e-05 110.699675"></polygon>
    </defs>
    <g id="Page-1" stroke="none" stroke-width="1" fill="none" fill-rule="evenodd">
        <g id="Profile-Copy-2" transform="translate(-64.000000, -258.000000)">
            <g id="header" transform="translate(0.000000, 116.000000)">
                <g id="logo" transform="translate(64.000000, 142.000000)">
                    <g id="Group-8" transform="translate(0.000000, 45.000000)">
                        <path d="M73.2796811,56.7299727 L82.4616612,47.4375257 L82.4616612,76.4529648 C82.4616612,77.8788821 83.5474247,78.8240465 84.8048163,78.8240465 C86.062208,78.8240465 86.9766036,77.7249568 86.9766036,76.6256036 L86.9766036,41.7507252 C86.9766036,40.806088 86.5002636,39.8609236 85.5668561,39.5525459 C84.7858044,39.2439047 83.6997805,39.5525459 83.0713451,40.1888055 L69.9838461,53.4332309 C69.0504386,54.2242065 69.0504386,55.8045761 69.9838461,56.7494769 C70.7841702,57.6748735 72.3462736,57.6748735 73.2796811,56.7299727" id="Fill-1" fill="#0942AA"></path>
                        <path d="M73.1273252,69.666574 C74.0604724,68.875862 74.0604724,67.2952288 73.1273252,66.350328 L47.2578203,40.1888318 C46.628864,39.3983834 45.6957169,39.243931 44.7620489,39.5525723 C43.9809972,40.034643 43.3523014,40.8061143 43.3523014,41.7507515 L43.3523014,76.433487 C43.3523014,77.8599314 44.4383252,78.8045686 45.6957169,78.8045686 C46.9528481,78.8045686 48.0386115,77.7057425 48.0386115,76.6066529 L48.0386115,47.437552 L69.8317507,69.666574 C70.6315539,70.610684 72.1939177,70.610684 73.1273252,69.666574" id="Fill-3" fill="#0942AA"></path>
                        <g id="Group-7">
                            <mask id="mask-2" fill="white">
                                <use xlink:href="#path-1"></use>
                            </mask>
                            <g id="Clip-6"></g>
                            <path d="M109.863241,6.08542472 C118.624094,16.4658914 123.940923,29.908522 123.940923,44.4884599 C123.940923,76.9050149 97.6656567,103.469511 65.6597262,103.469511 C33.6285334,103.469511 7.38009205,77.1171892 7.38009205,44.4884599 C7.38009205,29.9704611 12.584933,16.6501273 21.1788455,6.33318114 C19.6222113,4.33900556 18.1968376,2.23571173 16.9105374,0.0388503146 C6.39902445,11.7838223 7.81312127e-05,27.3711273 7.81312127e-05,44.4884599 C7.81312127e-05,81.0897262 29.2581338,110.699781 65.4245513,110.699781 C101.59149,110.699781 130.849806,80.8514583 130.849806,44.4884599 C130.849806,27.3711273 124.450859,11.7838223 113.939086,0.0388503146 C112.706436,2.14504342 111.34539,4.16478536 109.863241,6.08542472" id="Fill-5" fill="#0942AA" mask="url(#mask-2)"></path>
                        </g>
                    </g>
                    <g id="Group-13" transform="translate(41.000000, 0.000000)">
                        <path d="M1.58423594,76.9618159 C1.58423594,79.3880508 3.93970469,81.3732 6.81861094,81.3732 L40.282232,81.3732 C43.1611383,81.3732 45.516607,79.3880508 45.516607,76.9618159 C45.516607,74.5358444 43.1611383,72.5506952 40.282232,72.5506952 L6.81861094,72.5506952 C3.93970469,72.5506952 1.58423594,74.5358444 1.58423594,76.9618159 Z M44.1970211,4.13498095 C42.4817164,1.80729206 39.4902711,1.08874921 37.5496266,2.53821905 C35.608982,3.98768889 35.424732,7.0781873 37.1400367,9.40587619 L57.0796031,36.4630857 C58.7949078,38.7907746 61.7860914,39.5093175 63.7267359,38.0598476 C65.6673805,36.6103778 65.8518922,33.5198794 64.1363258,31.1921905 L44.1970211,4.13498095 Z M22.0140016,17.4919206 C20.4803297,19.3508571 21.0367438,22.3883937 23.2500992,24.2417968 L49.0042711,45.8049333 C51.2176266,47.6583365 54.2834,47.6535937 55.8170719,45.7946571 C57.350482,43.9354571 56.7943297,40.8979206 54.5809742,39.044781 L28.8268023,17.4811175 C26.6134469,15.6279778 23.5474117,15.6327206 22.0140016,17.4919206 Z M10.006607,36.5128857 C9.00500938,38.7501968 10.3209313,41.581946 12.9307906,42.8056032 L43.2755094,57.0336476 C45.8853688,58.2573048 48.8401734,57.453654 49.8415094,55.2479619 C50.843107,53.0420063 49.5295406,50.231073 46.9225602,49.0013556 L16.5673727,34.6813524 C13.9606539,33.4516349 11.0082047,34.2758381 10.006607,36.5128857 Z M3.405275,56.8518381 C2.90434531,59.246454 4.80023594,61.6908698 7.61842344,62.2839905 L40.3929391,69.1806317 C43.2111266,69.7734889 45.9264586,68.2992508 46.4273883,65.9043714 C46.9280563,63.5094921 45.0321656,61.0648127 42.2142398,60.4719556 L9.4394625,53.5758413 C6.62153672,52.9829841 3.90594297,54.4569587 3.405275,56.8518381 Z" id="Fill-9" fill="#0942AA"></path>
                        <path d="M39.874291,3.37006349 C39.3416934,3.37006349 38.8742637,3.51735556 38.4850879,3.8079873 C37.9260566,4.22588571 37.5905332,4.91096508 37.5413301,5.73753968 C37.4866309,6.65449206 37.8001699,7.64812063 38.4013379,8.46389206 L58.3406426,35.5211016 C59.1166387,36.5740159 60.2896621,37.2282667 61.4022285,37.2282667 L61.4024902,37.2282667 C61.9350879,37.2282667 62.4022559,37.0807111 62.7911699,36.7900794 C63.3507246,36.3724444 63.6859863,35.6871016 63.7349277,34.860527 C63.789627,33.9435746 63.4763496,32.949946 62.8751816,32.1341746 L42.935877,5.07722857 C42.1598809,4.02405079 40.9868574,3.37006349 39.874291,3.37006349 Z M61.4022285,40.3901714 C59.2833535,40.3899079 57.1958848,39.274019 55.818459,37.4050698 L35.8791543,10.3478603 C34.8299238,8.9242127 34.306748,7.21941905 34.4064629,5.54808889 C34.5121973,3.77267937 35.2963066,2.25285714 36.6137988,1.26845079 C37.5429004,0.574939683 38.670123,0.20815873 39.874291,0.20815873 C41.9934277,0.20815873 44.0806348,1.32404762 45.4580605,3.19299683 L65.3973652,30.2502063 C66.4468574,31.673854 66.9697715,33.3786476 66.8700566,35.0499778 C66.7643223,36.8253873 65.9804746,38.3452095 64.662459,39.3296159 C63.7338809,40.0233905 62.6063965,40.3901714 61.4022285,40.3901714 Z M25.1732871,17.6753111 C24.3546309,17.6753111 23.6615996,17.9688413 23.2219121,18.5018857 C22.2540762,19.6752159 22.7267402,21.7473175 24.2541309,23.0263079 L50.0083027,44.5894444 C50.7835137,45.2386889 51.7492559,45.6110032 52.6579434,45.6110032 C53.4763379,45.6110032 54.1693691,45.317473 54.6090566,44.7844286 C55.5768926,43.6110984 55.1042285,41.5389968 53.5768379,40.2602698 L27.822666,18.6966063 C27.0474551,18.0476254 26.0817129,17.6753111 25.1732871,17.6753111 Z M52.6579434,48.7729079 C51.0036191,48.7729079 49.3495566,48.1505397 48.0001348,47.0206857 L22.2459629,25.4572857 C19.3618223,23.0421175 18.7156387,19.0156952 20.8059863,16.4819556 C21.8376816,15.2308952 23.4297168,14.5134063 25.1732871,14.5134063 C26.8270879,14.5134063 28.4814121,15.1355111 29.830834,16.2656286 L55.5850059,37.8290286 C58.4694082,40.2441968 59.1153301,44.270619 57.0249824,46.8046222 C55.9930254,48.055419 54.401252,48.7729079 52.6579434,48.7729079 Z M14.0740566,35.691581 C12.8544473,35.691581 11.8444746,36.2551905 11.4382871,37.1626571 C10.7965527,38.5957905 11.7837559,40.5237619 13.5938027,41.3724698 L43.9385215,55.6005143 C44.5310527,55.8782349 45.1717402,56.025 45.7909668,56.025 C47.0066504,56.025 48.0116504,55.475619 48.4133887,54.5905492 C49.0498887,53.1887714 48.0621621,51.2847778 46.2563027,50.4329079 L15.9011152,36.1129048 C15.3166973,35.8372921 14.6849082,35.691581 14.0740566,35.691581 Z M45.7909668,59.1869048 C44.7166113,59.1869048 43.6176543,58.9379048 42.6126543,58.466781 L12.2679355,44.2387365 C8.87632227,42.6485619 7.21964258,38.8914286 8.57508398,35.8633778 C9.49554883,33.8070857 11.6029082,32.5296762 14.0740566,32.5296762 C15.1423926,32.5296762 16.2350684,32.7784127 17.2337871,33.2495365 L47.5889746,47.5698032 C50.9792793,49.1689365 52.6304629,52.9081524 51.2697871,55.9051111 C50.3506309,57.9292571 48.251123,59.1869048 45.7909668,59.1869048 Z M8.18852539,55.0255746 C6.56796289,55.0255746 5.20257617,55.9306698 4.9419043,57.1772508 C4.77885352,57.9569238 5.07014648,58.6222413 5.34338086,59.0433016 C5.89089648,59.8872667 6.83727148,60.5043651 7.93963086,60.7365016 L40.7141465,67.6331429 C41.0224512,67.6979619 41.3352051,67.7308984 41.6440332,67.7308984 C43.2645957,67.7308984 44.6297207,66.8258032 44.8906543,65.5786952 C45.0537051,64.7990222 44.7621504,64.1334413 44.488916,63.712381 C43.9414004,62.8684159 42.9950254,62.2513175 41.8929277,62.0194444 L9.11815039,55.1233302 C8.81010742,55.0585111 8.49735352,55.0255746 8.18852539,55.0255746 Z M41.6442949,70.8928032 L41.6440332,70.8928032 C41.1195488,70.8928032 40.5906152,70.8372063 40.071627,70.7281206 L7.29711133,63.8314794 C5.3844707,63.429127 3.71391992,62.3140286 2.71389258,60.7723365 C1.86854102,59.4693683 1.56834961,57.9614032 1.86880273,56.5258984 C2.15512305,55.1554762 2.97770508,53.9341905 4.18501367,53.087327 C5.71449805,52.0141238 7.79934961,51.6151968 9.76066992,52.0283524 L42.5354473,58.9244667 C44.4475645,59.326819 46.1178535,60.441654 47.1184043,61.9830825 C47.9637559,63.2860508 48.264209,64.7942794 47.9640176,66.2300476 C47.6771738,67.6007333 46.8545918,68.822019 45.6475449,69.6688825 C44.5226777,70.4580413 43.1010215,70.8928032 41.6442949,70.8928032 Z M6.81868945,74.1316476 C4.83250586,74.1316476 3.15462695,75.4277651 3.15462695,76.9618159 C3.15462695,78.4961302 4.83250586,79.7922476 6.81868945,79.7922476 L40.2823105,79.7922476 C42.2684941,79.7922476 43.946373,78.4961302 43.946373,76.9618159 C43.946373,75.4277651 42.2684941,74.1316476 40.2823105,74.1316476 L6.81868945,74.1316476 Z M40.2823105,82.9541524 L6.81868945,82.9541524 C3.06642773,82.9541524 0.0140019531,80.2660063 0.0140019531,76.9618159 C0.0140019531,73.6578889 3.06642773,70.9697429 6.81868945,70.9697429 L40.2823105,70.9697429 C44.0345723,70.9697429 47.086998,73.6578889 47.086998,76.9618159 C47.086998,80.2660063 44.0345723,82.9541524 40.2823105,82.9541524 Z" id="Fill-11" fill="#FFFFFF"></path>
                    </g>
                </g>
            </g>
        </g>
    </g>
</svg>