<?xml version="1.0" encoding="UTF-8"?>
<svg width="16px" height="16px" viewBox="0 0 16 16" version="1.1" xmlns="http://www.w3.org/2000/svg" xmlns:xlink="http://www.w3.org/1999/xlink">
    <!-- Generator: Sketch 51.3 (57544) - http://www.bohemiancoding.com/sketch -->
    <title>facebook</title>
    <desc>Created with Sketch.</desc>
    <defs></defs>
    <g id="Page-1" stroke="none" stroke-width="1" fill="none" fill-rule="evenodd">
        <g id="Forum-Copy" transform="translate(-999.000000, -2560.000000)" fill="#323232" fill-rule="nonzero">
            <g id="Group-16" transform="translate(927.000000, 1106.000000)">
                <g id="you-may-also-like" transform="translate(0.000000, 730.000000)">
                    <g id="info" transform="translate(0.000000, 461.000000)">
                        <g id="social" transform="translate(38.000000, 263.000000)">
                            <g id="facebook" transform="translate(34.375000, 0.640000)">
                                <path d="M14.1725,0 L0.8275,0 C0.370625,0 0,0.37952 0,0.84736 L0,14.51264 C0,14.98112 0.370625,15.36 0.8275,15.36 L8.01125,15.36 L8.01125,9.41184 L6.055625,9.41184 L6.055625,7.0944 L8.01125,7.0944 L8.01125,5.3824 C8.01125,3.39904 9.195,2.32 10.923125,2.32 C11.75125,2.32 12.463125,2.38208 12.670625,2.41024 L12.670625,4.48384 L11.47,4.48384 C10.5325,4.48384 10.35,4.94528 10.35,5.61728 L10.35,7.09632 L12.59,7.09632 L12.299375,9.41952 L10.35,9.41952 L10.35,15.36 L14.171875,15.36 C14.63,15.36 15,14.98112 15,14.51264 L15,0.84736 C15,0.37952 14.63,0 14.1725,0" id="Shape"></path>
                            </g>
                        </g>
                    </g>
                </g>
            </g>
        </g>
    </g>
</svg>