<?xml version="1.0" encoding="UTF-8"?>
<svg width="16px" height="16px" viewBox="0 0 16 16" version="1.1" xmlns="http://www.w3.org/2000/svg" xmlns:xlink="http://www.w3.org/1999/xlink">
    <!-- Generator: Sketch 51.3 (57544) - http://www.bohemiancoding.com/sketch -->
    <title>github</title>
    <desc>Created with Sketch.</desc>
    <defs></defs>
    <g id="Page-1" stroke="none" stroke-width="1" fill="none" fill-rule="evenodd">
        <g id="Forum-Copy" transform="translate(-1032.000000, -2560.000000)" fill="#323232" fill-rule="nonzero">
            <g id="Group-16" transform="translate(927.000000, 1106.000000)">
                <g id="you-may-also-like" transform="translate(0.000000, 730.000000)">
                    <g id="info" transform="translate(0.000000, 461.000000)">
                        <g id="social" transform="translate(38.000000, 263.000000)">
                            <g id="github" transform="translate(67.500000, 0.640000)">
                                <path d="M7.5,0.19008 C3.35625,0.19008 0,3.6288 0,7.87008 C0,11.264 2.14875,14.14208 5.128125,15.15648 C5.503125,15.2288 5.640625,14.99136 5.640625,14.7872 C5.640625,14.6048 5.634375,14.1216 5.63125,13.4816 C3.545,13.94496 3.105,12.4512 3.105,12.4512 C2.76375,11.5648 2.270625,11.328 2.270625,11.328 C1.59125,10.85184 2.323125,10.86144 2.323125,10.86144 C3.07625,10.9152 3.471875,11.65248 3.471875,11.65248 C4.140625,12.82688 5.2275,12.48768 5.65625,12.2912 C5.72375,11.79456 5.916875,11.456 6.13125,11.264 C4.465625,11.072 2.715,10.41152 2.715,7.4688 C2.715,6.6304 3.005625,5.9456 3.486875,5.408 C3.4025,5.21408 3.149375,4.43328 3.5525,3.37536 C3.5525,3.37536 4.180625,3.16928 5.615,4.16256 C6.215,3.99168 6.8525,3.9072 7.49,3.90336 C8.1275,3.9072 8.765,3.99168 9.365,4.16256 C10.79,3.16928 11.418125,3.37536 11.418125,3.37536 C11.82125,4.43328 11.568125,5.21408 11.493125,5.408 C11.97125,5.9456 12.261875,6.6304 12.261875,7.4688 C12.261875,10.4192 10.50875,11.0688 8.84,11.2576 C9.1025,11.488 9.34625,11.95904 9.34625,12.6784 C9.34625,13.70624 9.336875,14.53184 9.336875,14.78144 C9.336875,14.98304 9.468125,15.22304 9.8525,15.14624 C12.853125,14.13888 15,11.25888 15,7.87008 C15,3.6288 11.641875,0.19008 7.5,0.19008" id="Shape"></path>
                            </g>
                        </g>
                    </g>
                </g>
            </g>
        </g>
    </g>
</svg>