<?xml version="1.0" encoding="UTF-8"?>
<svg width="85px" height="108px" viewBox="0 0 85 108" version="1.1" xmlns="http://www.w3.org/2000/svg" xmlns:xlink="http://www.w3.org/1999/xlink">
    <!-- Generator: Sketch 51.3 (57544) - http://www.bohemiancoding.com/sketch -->
    <title>Group 2</title>
    <desc>Created with Sketch.</desc>
    <defs>
        <linearGradient x1="0%" y1="50%" x2="100%" y2="50%" id="linearGradient-1">
            <stop stop-color="#0F1563" offset="0%"></stop>
            <stop stop-color="#9A9DBE" stop-opacity="0.42" offset="60%"></stop>
            <stop stop-color="#FFFFFF" stop-opacity="0" offset="100%"></stop>
        </linearGradient>
    </defs>
    <g id="Page-1" stroke="none" stroke-width="1" fill="none" fill-rule="evenodd">
        <g id="Profile-Copy-2" transform="translate(-665.000000, -235.000000)" fill-rule="nonzero">
            <g id="TOP-EXPLAINER" transform="translate(565.000000, 152.000000)">
                <g id="Group-2" transform="translate(100.000000, 83.000000)">
                    <g id="TownHall_comment_svg" transform="translate(0.000000, 47.000000)">
                        <g id="Group" opacity="0.1" transform="translate(0.000000, 11.918002)" fill="url(#linearGradient-1)">
                            <polygon id="Shape" points="84.8801282 20.7156536 75.2740385 26.2629416 75.3121795 32.4061297 64.6490385 32.4007124 36.0814103 48.9071446 0 28.1969083 48.7987179 0"></polygon>
                        </g>
                        <g id="Group">
                            <polygon id="Shape" fill="#262836" points="84.8801282 20.7156536 84.8692308 25.4340988 75.263141 30.9813868 75.2740385 26.2629416"></polygon>
                            <polygon id="Shape" fill="#4A4D69" points="75.3121795 32.4007124 75.2958333 37.1245749 64.638141 37.1191576 64.6490385 32.4007124"></polygon>
                            <polygon id="Shape" fill="#262836" points="64.5400641 32.5036406 64.5291667 37.2220858 35.9615385 53.728518 35.9724359 49.0100728"></polygon>
                            <polygon id="Shape" fill="#4A4D69" points="36.0977564 49.4272029 36.086859 54.145648 0 33.4354117 0.0163461538 28.7115492"></polygon>
                            <polygon id="Shape" fill="#676D94" points="84.8801282 20.7156536 75.2740385 26.2629416 75.3121795 32.4007124 64.6490385 32.4007124 36.0814103 48.9071446 0 28.191491 48.7987179 0"></polygon>
                        </g>
                    </g>
                    <g id="coins" transform="translate(29.000000, 59.000000)">
                        <polygon id="Shape" fill="#A86523" points="28 8.8 27.9948621 10.9175201 24.1568627 19.25 24.1620006 17.1299317"></polygon>
                        <polygon id="Shape" fill="#E88C31" points="23.6078431 17.6 23.6029777 19.7433255 9.88235294 22 9.88721841 19.8592506"></polygon>
                        <polygon id="Shape" fill="#995C20" points="10.4313725 19.874186 10.426343 22 0 15.8783721 0.00502959139 13.75"></polygon>
                        <polygon id="Shape" fill="#B86F27" points="28 9.33990826 24.2914894 17.5873853 10.2914894 19.8 0 13.7600917 3.70851064 5.51009174 17.7085106 3.3"></polygon>
                        <polygon id="Shape" fill="#A86523" points="28 5.5 27.9948621 7.62006828 24.1568627 15.95 24.1620006 13.8299317"></polygon>
                        <polygon id="Shape" fill="#E88C31" points="23.6078431 14.3 23.6029777 16.4433255 9.88235294 18.7 9.88721841 16.5592506"></polygon>
                        <polygon id="Shape" fill="#995C20" points="10.4313725 16.574186 10.426343 18.7 0 12.5783721 0.00502959139 10.45"></polygon>
                        <polygon id="Shape" fill="#E89C51" points="28 6.03990826 24.2914894 14.2873853 10.2914894 16.5 0 10.4600917 3.70851064 2.21009174 17.7085106 0"></polygon>
                        <path d="M13.7242389,13.75 C8.57895581,13.75 4.39215686,11.1587653 4.39215686,7.9762422 C4.39215686,4.79371908 8.57895581,2.2 13.7242389,2.2 C18.869522,2.2 23.0588235,4.79123467 23.0588235,7.9762422 C23.0588235,11.1612497 18.8720246,13.75 13.7242389,13.75 Z M13.7242389,2.44844052 C8.71909971,2.44844052 4.64241382,4.93284577 4.64241382,7.9762422 C4.64241382,11.0196386 8.71659714,13.5015595 13.7242389,13.5015595 C18.7318807,13.5015595 22.8085666,11.0171542 22.8085666,7.9762422 C22.8085666,4.93533018 18.7343833,2.44844052 13.7242389,2.44844052 Z" id="Shape" fill="#995C20"></path>
                        <path d="M17.5151528,8.05458082 C17.5350736,8.06180923 17.5514798,8.07738934 17.5606913,8.09782656 C17.5699029,8.11826377 17.5711489,8.14184745 17.5641498,8.16328782 C17.5551861,8.18745806 17.5374858,8.20661451 17.5151528,8.21631562 C17.4327021,8.26122813 17.3354697,8.26122813 17.253019,8.21631562 L13.5659965,5.91225757 L13.6590908,7.47922916 C13.6590908,7.54551391 13.5855953,7.59589032 13.4802518,7.59589032 C13.4332834,7.59780973 13.3867142,7.58589694 13.3455102,7.56142225 C13.3156843,7.54809317 13.2943634,7.51899876 13.2891636,7.48453194 L13.1764706,5.62855882 C13.1764706,5.5808338 13.218118,5.53576017 13.2891636,5.51985183 C13.353893,5.49338272 13.4253219,5.49338272 13.4900512,5.51985183 L17.5151528,8.05458082 Z" id="Shape" fill="#FFFFFF"></path>
                        <path d="M17.9922416,5.44689352 C20.350989,6.84275154 20.350989,9.1063051 18.0193536,10.5021631 C15.6877182,11.8980211 11.8378086,11.9005362 9.46427277,10.5021631 C7.09073694,9.10379004 7.10552532,6.84275154 9.43716073,5.44689352 C11.7687961,4.05103549 15.6236352,4.05103549 17.9922416,5.44689352 Z M13.7455103,11.3321328 C15.1409047,11.3658338 16.5214957,11.0342029 17.7556274,10.368865 C18.8598269,9.71243444 19.4119266,8.85982927 19.4069971,7.9946488 C19.4020677,7.12946833 18.8450385,6.2743481 17.7309801,5.62043262 C15.2111553,4.31270179 12.2305706,4.31270179 9.71074586,5.62043262 C8.60654643,6.2743481 8.05444671,7.12946833 8.05691144,7.9946488 C8.05937617,8.85982927 8.61887008,9.7149495 9.73292844,10.368865 C10.9710344,11.0330369 12.3544969,11.3645425 13.7529045,11.3321328 L13.7455103,11.3321328 Z" id="Shape" fill="#FFFFFF"></path>
                        <path d="M15.3159937,8.42851362 C15.3484159,8.44415646 15.3701761,8.47786158 15.372549,8.51611418 C15.372549,8.58247824 15.2815687,8.6276058 15.1782938,8.6276058 L9.99979476,8.49487768 L13.6881844,10.8016924 C13.7301792,10.8179437 13.7521462,10.8677446 13.7373629,10.9131841 C13.7277014,10.9369011 13.7101535,10.9558451 13.6881844,10.9662753 C13.6054282,11.0112416 13.5078355,11.0112416 13.4250793,10.9662753 L9.389981,8.44975012 C9.33342569,8.4152408 9.31867213,8.36214955 9.34817925,8.32233112 C9.39561028,8.27156367 9.46106497,8.24542827 9.52768088,8.25065793 L15.1832117,8.39931343 C15.2290343,8.39695597 15.2746766,8.40699319 15.3159937,8.42851362 Z" id="Shape" fill="#FFFFFF"></path>
                    </g>
                    <polygon id="Shape" fill="#D5D9FE" points="9 64 5.11354839 61.5509443 5 19 8.88645161 21.4490557"></polygon>
                    <polygon id="Shape" fill="#E7E9FE" points="9.01222379 21 5 18.5052889 34.9877762 0 39 2.49471115"></polygon>
                    <polygon id="Shape" fill="#98A2FE" points="39.879292 2 40 43.3472695 29.7069027 49.2260797 24.340885 58.4354913 18.9419469 55.3819873 9.12070796 61 9 19.6527305"></polygon>
                    <path d="M30.9037193,31 C33.9448694,31.3502552 35.9889211,33.9421441 36,38.1990925 L15,50 C15,45.7376631 17.0052757,40.8718094 20.0408863,37.1052184 C20.2329445,37.4028446 20.4576881,37.6792835 20.711158,37.9296653 C22.0184648,39.1690301 23.7079926,39.3091322 25.4639937,38.3230289 C27.2199947,37.3369257 28.9095226,35.3000567 30.200211,32.6003971 C30.4716434,32.0777085 30.6821419,31.5388542 30.9037193,31 Z" id="Shape" fill="#FFFFFF"></path>
                    <path d="M24.9839744,23.730801 C27.7457055,22.0325433 29.9892781,23.3968103 29.9999617,26.7593607 C30.0106454,30.1219111 27.7830983,35.8054138 25.0213673,37.5036716 C22.2596363,39.2019293 20.0107219,36.2639434 20.0000382,32.901393 C19.9893545,29.5388426 22.2222434,25.4177371 24.9839744,23.730801 Z" id="Shape" fill="#FFFFFF"></path>
                </g>
            </g>
        </g>
    </g>
</svg>