<?xml version="1.0" encoding="UTF-8"?>
<svg width="101px" height="133px" viewBox="0 0 101 133" version="1.1" xmlns="http://www.w3.org/2000/svg" xmlns:xlink="http://www.w3.org/1999/xlink">
    <!-- Generator: Sketch 51.3 (57544) - http://www.bohemiancoding.com/sketch -->
    <title>Group 6</title>
    <desc>Created with Sketch.</desc>
    <defs>
        <linearGradient x1="0%" y1="50%" x2="99.9703352%" y2="50%" id="linearGradient-1">
            <stop stop-color="#B8B8B8" offset="0%"></stop>
            <stop stop-color="#FFFFFF" stop-opacity="0" offset="100%"></stop>
        </linearGradient>
        <linearGradient x1="0%" y1="49.9963053%" x2="100%" y2="49.9963053%" id="linearGradient-2">
            <stop stop-color="#BEADF6" stop-opacity="0" offset="0%"></stop>
            <stop stop-color="#B8B8B8" offset="100%"></stop>
        </linearGradient>
        <linearGradient x1="0%" y1="50%" x2="100%" y2="50%" id="linearGradient-3">
            <stop stop-color="#B8B8B8" offset="0%"></stop>
            <stop stop-color="#FFFFFF" stop-opacity="0" offset="100%"></stop>
        </linearGradient>
    </defs>
    <g id="Page-1" stroke="none" stroke-width="1" fill="none" fill-rule="evenodd">
        <g id="Profile-Copy-2" transform="translate(-928.000000, -496.000000)" fill-rule="nonzero">
            <g id="TOP-EXPLAINER" transform="translate(565.000000, 152.000000)">
                <g id="Group-6" transform="translate(363.000000, 344.000000)">
                    <g id="coinstack" transform="translate(57.000000, 62.000000)">
                        <polygon id="Shape" fill="#A86523" points="44 28.097561 43.9882432 31.3001588 38.1333333 43.902439 38.1411712 40.6959873"></polygon>
                        <polygon id="Shape" fill="#E88C31" points="38.4266667 40.6829268 38.418868 43.8195008 16.4266667 47.1219512 16.4383646 43.9853773"></polygon>
                        <polygon id="Shape" fill="#995C20" points="16.4266667 44.8286784 16.4147891 48 0 38.874827 0.0118775609 35.7073171"></polygon>
                        <polygon id="Shape" fill="#B86F27" points="43.4133333 28.8250385 37.6595272 41.4084797 15.9567092 44.7804878 0 35.5690547 5.74610875 22.9817642 27.4566241 19.6097561"></polygon>
                        <polygon id="Shape" fill="#A86523" points="44 24.5853659 43.9882432 27.7879637 38.1333333 40.3902439 38.1411712 37.1837922"></polygon>
                        <polygon id="Shape" fill="#E88C31" points="38.4266667 37.1707317 38.418868 40.3073056 16.4266667 43.6097561 16.4383646 40.4769521"></polygon>
                        <polygon id="Shape" fill="#995C20" points="16.4266667 39.8568803 16.4147891 43.0243902 0 33.8992172 0.0118775609 30.7317073"></polygon>
                        <polygon id="Shape" fill="#B86F27" points="43.4133333 24.1407026 37.6595272 36.7222197 15.9567092 40.097561 0 30.8836876 5.74610875 18.2983218 27.4566241 14.9268293"></polygon>
                        <polygon id="Shape" fill="#A86523" points="44 19.6097561 43.9882432 22.8123539 38.1333333 35.4146341 38.1411712 32.2081824"></polygon>
                        <polygon id="Shape" fill="#E88C31" points="38.4266667 31.902439 38.418868 35.039013 16.4266667 38.3414634 16.4383646 35.2086594"></polygon>
                        <polygon id="Shape" fill="#995C20" points="16.4266667 34.8812706 16.4147891 38.0487805 0 28.9274192 0.0118775609 25.7560976"></polygon>
                        <polygon id="Shape" fill="#B86F27" points="43.4133333 19.1650929 37.6595272 31.74661 15.9567092 35.1219512 0 25.9080779 5.74610875 13.322712 27.4566241 9.95121951"></polygon>
                        <polygon id="Shape" fill="#A86523" points="43.9882432 18.133281 38.1333333 30.7317073 38.1411712 27.5252556 44 14.9268293"></polygon>
                        <polygon id="Shape" fill="#E88C31" points="38.4266667 27.2195122 38.418868 30.3560861 16.4266667 33.6585366 16.4383646 30.5257326"></polygon>
                        <polygon id="Shape" fill="#995C20" points="16.4266667 30.4910267 16.4147891 33.6585366 0 24.5371753 0.0118775609 21.3658537"></polygon>
                        <polygon id="Shape" fill="#B86F27" points="43.4133333 14.1894831 37.6595272 26.7710002 15.9567092 30.1463415 0 20.9324681 5.74610875 8.34710226 27.4566241 4.97560976"></polygon>
                        <polygon id="Shape" fill="#A86523" points="43.7066667 9.07317073 43.6949098 12.2796225 37.84 24.8780488 37.8478379 21.6715971"></polygon>
                        <polygon id="Shape" fill="#E88C31" points="38.4266667 22.2439024 38.418868 25.3786411 16.4266667 28.6829268 16.4383646 25.5481882"></polygon>
                        <polygon id="Shape" fill="#995C20" points="16.4266667 25.2199053 16.4147891 28.3902439 0 19.2678995 0.0118775609 16.097561"></polygon>
                        <polygon id="Shape" fill="#E89C51" points="43.4133333 9.21387335 37.6595272 21.7953905 15.9567092 25.1707317 0 15.9568584 5.74610875 3.3714925 27.4566241 0"></polygon>
                        <path d="M21.7085936,21.9512195 C13.7810037,21.9512195 7.33333333,17.8792242 7.33333333,12.8780488 C7.33333333,7.87687335 13.7810037,3.80487805 21.7085936,3.80487805 C29.6361836,3.80487805 36.08,7.85735276 36.08,12.8780488 C36.08,17.8987448 29.6323296,21.9512195 21.7085936,21.9512195 Z M21.7085936,4.19528987 C14.0006793,4.19528987 7.71872905,8.09940809 7.71872905,12.8780488 C7.71872905,17.6566895 13.9929714,21.5608077 21.7085936,21.5608077 C29.4242159,21.5608077 35.6946043,17.6566895 35.6946043,12.8780488 C35.6946043,8.09940809 29.420362,4.19528987 21.7085936,4.19528987 Z" id="Shape" fill="#995C20"></path>
                        <path d="M28.0814305,12.6076641 C28.1106999,12.6176654 28.1348052,12.6392223 28.1483396,12.6674995 C28.161874,12.6957767 28.1637047,12.7284074 28.1534211,12.7580726 C28.1414456,12.7923018 28.1150161,12.8192377 28.0814305,12.8314426 C27.9602869,12.8935842 27.8174247,12.8935842 27.696281,12.8314426 L22.2789916,9.64351565 L22.4157737,11.8115995 C22.4157737,11.903312 22.3077878,11.9730135 22.1566076,11.9730135 C22.0864228,11.9759692 22.0167636,11.9594884 21.9550341,11.925323 C21.9112114,11.9068807 21.879885,11.8666252 21.8722449,11.8189365 L21.7066667,9.25098609 C21.7066667,9.18495308 21.7714582,9.12258857 21.8722449,9.10057757 C21.9686045,9.06403512 22.0746462,9.06403512 22.1710058,9.10057757 L28.0814305,12.6076641 Z" id="Shape" fill="#FFFFFF"></path>
                        <path d="M28.838993,8.90212272 C32.6197282,11.0155221 32.6197282,14.4426563 28.8824497,16.5598636 C25.1451712,18.6770709 18.9743161,18.673263 15.1698772,16.5598636 C11.3654383,14.4464642 11.389142,11.0155221 15.1264205,8.90212272 C18.863699,6.78872332 25.0424553,6.78872332 28.838993,8.90212272 Z M22.0320894,17.8126716 C24.2689832,17.866258 26.4825359,17.3640018 28.4597343,16.3542356 C30.2296082,15.3641746 31.1145452,14.0694795 31.106644,12.7595526 C31.0987427,11.4496258 30.2098552,10.1511227 28.4162775,9.16486967 C24.3759792,7.18484585 19.5973355,7.18484585 15.5570371,9.16486967 C13.7871632,10.1587386 12.9022262,11.4496258 12.9101274,12.7595526 C12.9180287,14.0694795 13.8108669,15.3641746 15.5925926,16.3542356 C17.578521,17.3598234 19.7972848,17.8617197 22.0399906,17.8126716 L22.0320894,17.8126716 Z" id="Shape" fill="#FFFFFF"></path>
                        <path d="M24.8426668,13.1250388 C24.8946444,13.1466821 24.9295292,13.1933162 24.9333333,13.2462422 C24.9333333,13.338063 24.7914206,13.4005012 24.6219137,13.4005012 L16.3200172,13.2168596 L22.2330489,16.4122229 C22.2651032,16.4222361 22.2915021,16.4438184 22.3063243,16.472129 C22.3211465,16.5004396 22.3231514,16.5331088 22.3118893,16.562809 C22.2974659,16.5962908 22.2689846,16.6228272 22.2330489,16.6362656 C22.1003785,16.6984806 21.943923,16.6984806 21.8112526,16.6362656 L15.342396,13.1544214 C15.2517295,13.1066746 15.2320194,13.0368908 15.2753816,12.9781255 C15.3514206,12.9078841 15.4563541,12.8717234 15.5631492,12.8789591 L24.6297977,13.0846376 C24.7032581,13.0813759 24.7764295,13.0952633 24.8426668,13.1250388 Z" id="Shape" fill="#FFFFFF"></path>
                    </g>
                    <g id="coinstack-copy" transform="translate(57.000000, 39.000000)">
                        <polygon id="Shape" fill="#A86523" points="44 28.097561 43.9882432 31.3001588 38.1333333 43.902439 38.1411712 40.6959873"></polygon>
                        <polygon id="Shape" fill="#E88C31" points="38.4266667 40.6829268 38.418868 43.8195008 16.4266667 47.1219512 16.4383646 43.9853773"></polygon>
                        <polygon id="Shape" fill="#995C20" points="16.4266667 44.8286784 16.4147891 48 0 38.874827 0.0118775609 35.7073171"></polygon>
                        <polygon id="Shape" fill="#B86F27" points="43.4133333 28.8250385 37.6595272 41.4084797 15.9567092 44.7804878 0 35.5690547 5.74610875 22.9817642 27.4566241 19.6097561"></polygon>
                        <polygon id="Shape" fill="#A86523" points="44 24.5853659 43.9882432 27.7879637 38.1333333 40.3902439 38.1411712 37.1837922"></polygon>
                        <polygon id="Shape" fill="#E88C31" points="38.4266667 37.1707317 38.418868 40.3073056 16.4266667 43.6097561 16.4383646 40.4769521"></polygon>
                        <polygon id="Shape" fill="#995C20" points="16.4266667 39.8568803 16.4147891 43.0243902 0 33.8992172 0.0118775609 30.7317073"></polygon>
                        <polygon id="Shape" fill="#B86F27" points="43.4133333 24.1407026 37.6595272 36.7222197 15.9567092 40.097561 0 30.8836876 5.74610875 18.2983218 27.4566241 14.9268293"></polygon>
                        <polygon id="Shape" fill="#A86523" points="44 19.6097561 43.9882432 22.8123539 38.1333333 35.4146341 38.1411712 32.2081824"></polygon>
                        <polygon id="Shape" fill="#E88C31" points="38.4266667 31.902439 38.418868 35.039013 16.4266667 38.3414634 16.4383646 35.2086594"></polygon>
                        <polygon id="Shape" fill="#995C20" points="16.4266667 34.8812706 16.4147891 38.0487805 0 28.9274192 0.0118775609 25.7560976"></polygon>
                        <polygon id="Shape" fill="#B86F27" points="43.4133333 19.1650929 37.6595272 31.74661 15.9567092 35.1219512 0 25.9080779 5.74610875 13.322712 27.4566241 9.95121951"></polygon>
                        <polygon id="Shape" fill="#A86523" points="43.9882432 18.133281 38.1333333 30.7317073 38.1411712 27.5252556 44 14.9268293"></polygon>
                        <polygon id="Shape" fill="#E88C31" points="38.4266667 27.2195122 38.418868 30.3560861 16.4266667 33.6585366 16.4383646 30.5257326"></polygon>
                        <polygon id="Shape" fill="#995C20" points="16.4266667 30.4910267 16.4147891 33.6585366 0 24.5371753 0.0118775609 21.3658537"></polygon>
                        <polygon id="Shape" fill="#B86F27" points="43.4133333 14.1894831 37.6595272 26.7710002 15.9567092 30.1463415 0 20.9324681 5.74610875 8.34710226 27.4566241 4.97560976"></polygon>
                        <polygon id="Shape" fill="#A86523" points="43.7066667 9.07317073 43.6949098 12.2796225 37.84 24.8780488 37.8478379 21.6715971"></polygon>
                        <polygon id="Shape" fill="#E88C31" points="38.4266667 22.2439024 38.418868 25.3786411 16.4266667 28.6829268 16.4383646 25.5481882"></polygon>
                        <polygon id="Shape" fill="#995C20" points="16.4266667 25.2199053 16.4147891 28.3902439 0 19.2678995 0.0118775609 16.097561"></polygon>
                        <polygon id="Shape" fill="#E89C51" points="43.4133333 9.21387335 37.6595272 21.7953905 15.9567092 25.1707317 0 15.9568584 5.74610875 3.3714925 27.4566241 0"></polygon>
                        <path d="M21.7085936,21.9512195 C13.7810037,21.9512195 7.33333333,17.8792242 7.33333333,12.8780488 C7.33333333,7.87687335 13.7810037,3.80487805 21.7085936,3.80487805 C29.6361836,3.80487805 36.08,7.85735276 36.08,12.8780488 C36.08,17.8987448 29.6323296,21.9512195 21.7085936,21.9512195 Z M21.7085936,4.19528987 C14.0006793,4.19528987 7.71872905,8.09940809 7.71872905,12.8780488 C7.71872905,17.6566895 13.9929714,21.5608077 21.7085936,21.5608077 C29.4242159,21.5608077 35.6946043,17.6566895 35.6946043,12.8780488 C35.6946043,8.09940809 29.420362,4.19528987 21.7085936,4.19528987 Z" id="Shape" fill="#995C20"></path>
                        <path d="M28.0814305,12.6076641 C28.1106999,12.6176654 28.1348052,12.6392223 28.1483396,12.6674995 C28.161874,12.6957767 28.1637047,12.7284074 28.1534211,12.7580726 C28.1414456,12.7923018 28.1150161,12.8192377 28.0814305,12.8314426 C27.9602869,12.8935842 27.8174247,12.8935842 27.696281,12.8314426 L22.2789916,9.64351565 L22.4157737,11.8115995 C22.4157737,11.903312 22.3077878,11.9730135 22.1566076,11.9730135 C22.0864228,11.9759692 22.0167636,11.9594884 21.9550341,11.925323 C21.9112114,11.9068807 21.879885,11.8666252 21.8722449,11.8189365 L21.7066667,9.25098609 C21.7066667,9.18495308 21.7714582,9.12258857 21.8722449,9.10057757 C21.9686045,9.06403512 22.0746462,9.06403512 22.1710058,9.10057757 L28.0814305,12.6076641 Z" id="Shape" fill="#FFFFFF"></path>
                        <path d="M28.838993,8.90212272 C32.6197282,11.0155221 32.6197282,14.4426563 28.8824497,16.5598636 C25.1451712,18.6770709 18.9743161,18.673263 15.1698772,16.5598636 C11.3654383,14.4464642 11.389142,11.0155221 15.1264205,8.90212272 C18.863699,6.78872332 25.0424553,6.78872332 28.838993,8.90212272 Z M22.0320894,17.8126716 C24.2689832,17.866258 26.4825359,17.3640018 28.4597343,16.3542356 C30.2296082,15.3641746 31.1145452,14.0694795 31.106644,12.7595526 C31.0987427,11.4496258 30.2098552,10.1511227 28.4162775,9.16486967 C24.3759792,7.18484585 19.5973355,7.18484585 15.5570371,9.16486967 C13.7871632,10.1587386 12.9022262,11.4496258 12.9101274,12.7595526 C12.9180287,14.0694795 13.8108669,15.3641746 15.5925926,16.3542356 C17.578521,17.3598234 19.7972848,17.8617197 22.0399906,17.8126716 L22.0320894,17.8126716 Z" id="Shape" fill="#FFFFFF"></path>
                        <path d="M24.8426668,13.1250388 C24.8946444,13.1466821 24.9295292,13.1933162 24.9333333,13.2462422 C24.9333333,13.338063 24.7914206,13.4005012 24.6219137,13.4005012 L16.3200172,13.2168596 L22.2330489,16.4122229 C22.2651032,16.4222361 22.2915021,16.4438184 22.3063243,16.472129 C22.3211465,16.5004396 22.3231514,16.5331088 22.3118893,16.562809 C22.2974659,16.5962908 22.2689846,16.6228272 22.2330489,16.6362656 C22.1003785,16.6984806 21.943923,16.6984806 21.8112526,16.6362656 L15.342396,13.1544214 C15.2517295,13.1066746 15.2320194,13.0368908 15.2753816,12.9781255 C15.3514206,12.9078841 15.4563541,12.8717234 15.5631492,12.8789591 L24.6297977,13.0846376 C24.7032581,13.0813759 24.7764295,13.0952633 24.8426668,13.1250388 Z" id="Shape" fill="#FFFFFF"></path>
                    </g>
                    <g id="task_4_Review_showcase_item_4" transform="translate(0.000000, 52.000000)">
                        <polygon id="Shape" fill="url(#linearGradient-1)" points="11.2357443 56.9368592 9.93629343 59.7937906 5.03791589 60.5570036 1.4360822 58.4662094 2.73262605 55.609278 7.63391063 54.8431408"></polygon>
                        <g id="Group" transform="translate(25.582031, 53.805054)">
                            <polygon id="Shape" fill="#A86523" points="10.9159689 2.49433213 10.9130619 3.28386282 9.50314313 6.38642599 9.50605018 5.59689531"></polygon>
                            <polygon id="Shape" fill="#E88C31" points="9.50605018 5.59689531 9.50314313 6.38642599 4.18324349 7.21689531 4.18324349 6.42736462"></polygon>
                            <polygon id="Shape" fill="#995C20" points="4.18324349 6.42736462 4.18324349 7.21689531 0.270355556 4.94480144 0.273262605 4.15527076"></polygon>
                            <polygon id="Shape" fill="#E89C51" points="10.9159689 2.49433213 9.50605018 5.59689531 4.18324349 6.42736462 0.273262605 4.15527076 1.68318136 1.05270758 7.003081 0.222238267"></polygon>
                        </g>
                        <g id="Group" opacity="0.2" transform="translate(27.326260, 54.682310)" fill="#995C20">
                            <path d="M3.75300024,4.813213 C1.75876464,4.813213 0.136631302,3.78097473 0.136631302,2.50895307 C0.136631302,1.23693141 1.75876464,0.204693141 3.75300024,0.204693141 C5.74723584,0.204693141 7.36936918,1.2398556 7.36936918,2.50895307 C7.36936918,3.77805054 5.74723584,4.813213 3.75300024,4.813213 Z M3.75300024,0.497111913 C1.91865233,0.497111913 0.427336201,1.40068592 0.427336201,2.50895307 C0.427336201,3.61722022 1.91865233,4.52079422 3.75300024,4.52079422 C5.58734815,4.52079422 7.07866428,3.6201444 7.07866428,2.50895307 C7.07866428,1.39776173 5.58734815,0.497111913 3.75300024,0.497111913 Z" id="Shape"></path>
                        </g>
                        <path d="M32.6606953,57.1561733 C32.6688229,57.1588422 32.6755494,57.1646739 32.679373,57.1723661 C32.6831965,57.1800582 32.6837986,57.1889702 32.6810447,57.1971119 C32.6771429,57.2056754 32.6697053,57.2120881 32.6606953,57.214657 C32.6290621,57.232357 32.5905819,57.232357 32.5589486,57.214657 L31.1403087,56.3900361 L31.1781004,56.9514801 C31.1781004,56.9748736 31.1490299,56.9924188 31.1083312,56.9924188 C31.0913643,56.998212 31.0729712,56.998212 31.0560043,56.9924188 C31.044706,56.9876191 31.0361619,56.9779503 31.0327479,56.9661011 L30.9920492,56.2993863 C30.9920492,56.2818412 30.9920492,56.2672202 31.0327479,56.2613718 C31.0576304,56.2497255 31.0863557,56.2497255 31.1112382,56.2613718 L32.6606953,57.1561733 Z" id="Shape" fill="#FFFFFF"></path>
                        <path d="M32.7101152,56.2292058 C33.6142074,56.7584838 33.6142074,57.6123466 32.7101152,58.1387004 C31.6806632,58.6648384 30.4633229,58.6648384 29.433871,58.1387004 C28.5268717,57.6123466 28.5326858,56.7584838 29.433871,56.2292058 C30.4629827,55.7016405 31.6810035,55.7016405 32.7101152,56.2292058 Z M31.0850748,58.4515884 C31.6193155,58.4632512 32.1476612,58.3374319 32.6199967,58.086065 C32.9985894,57.9535362 33.2523105,57.5944898 33.2523105,57.1912635 C33.2523105,56.7880373 32.9985894,56.4289909 32.6199967,56.2964621 C31.6556974,55.8022197 30.5144522,55.8022197 29.5501529,56.2964621 C29.192874,56.4566298 28.9501996,56.7992729 28.9164162,57.1912635 C28.9542562,57.584332 29.199822,57.9263507 29.5588741,58.086065 C30.0322566,58.3374293 30.5615371,58.4632329 31.096703,58.4515884 L31.0850748,58.4515884 Z" id="Shape" fill="#FFFFFF"></path>
                        <path d="M31.7595102,57.2058845 C31.7719975,57.2116413 31.7799638,57.2242336 31.7798595,57.2380505 C31.7798595,57.261444 31.7449749,57.276065 31.7071833,57.276065 L29.7187618,57.229278 L31.1374017,58.0538989 C31.153187,58.0606342 31.1608817,58.0786944 31.154844,58.0948375 C31.1523074,58.1032489 31.1457637,58.1098312 31.1374017,58.1123827 C31.1057684,58.1300826 31.0672882,58.1300826 31.035655,58.1123827 L29.4891049,57.214657 C29.4658485,57.214657 29.4600344,57.182491 29.4716626,57.16787 C29.4906152,57.1502778 29.5156527,57.1408333 29.5414318,57.1415523 L31.7071833,57.1941877 C31.7253043,57.1938233 31.7432481,57.1978343 31.7595102,57.2058845 Z" id="Shape" fill="#FFFFFF"></path>
                        <g id="Group" transform="translate(69.478471, 66.963899)">
                            <polygon id="Shape" fill="#A86523" points="8.77347384 1.88902527 8.77347384 2.53234657 7.61937539 5.06761733 7.62228244 4.42429603"></polygon>
                            <polygon id="Shape" fill="#E88C31" points="7.62228244 4.42429603 7.61937539 5.06761733 3.27333716 5.74895307 3.27333716 5.10270758"></polygon>
                            <polygon id="Shape" fill="#995C20" points="3.27333716 5.10270758 3.27333716 5.74895307 0.0755832736 3.89209386 0.0784903226 3.24584838"></polygon>
                            <polygon id="Shape" fill="#E89C51" points="8.77347384 1.88902527 7.62228244 4.42429603 3.27333716 5.10270758 0.0784903226 3.24584838 1.22968172 0.710577617 5.578627 0.032166065"></polygon>
                        </g>
                        <g id="Group" opacity="0.2" transform="translate(70.641290, 67.548736)" fill="#995C20">
                            <path d="M3.19775388,3.94472924 C1.55236416,3.94472924 0.215121625,3.08794224 0.215121625,2.03231047 C0.215121625,0.9766787 1.55236416,0.122815884 3.19775388,0.122815884 C4.84314361,0.122815884 6.17747909,0.979602888 6.17747909,2.03231047 C6.17747909,3.08501805 4.82860836,3.94472924 3.19775388,3.94472924 Z M3.19775388,0.415234657 C1.71225185,0.415234657 0.505826523,1.14043321 0.505826523,2.03231047 C0.505826523,2.92418773 1.71225185,3.65231047 3.19775388,3.65231047 C4.68325591,3.65231047 5.88677419,2.92418773 5.88677419,2.03231047 C5.88677419,1.14043321 4.66872067,0.415234657 3.19775388,0.415234657 Z" id="Shape"></path>
                        </g>
                        <path d="M75.1181458,69.5547292 C75.1246064,69.556656 75.1299185,69.5613067 75.132707,69.5674775 C75.1354954,69.5736482 75.1354859,69.5807321 75.132681,69.5868953 C75.132681,69.5868953 75.132681,69.5868953 75.1181458,69.6015162 C75.0929613,69.6161422 75.0619328,69.6161422 75.0367484,69.6015162 L73.8739288,68.9260289 L73.9029993,69.3851264 C73.9029993,69.4055957 73.8797429,69.4202166 73.8477654,69.4202166 C73.8336034,69.424903 73.8183215,69.424903 73.8041596,69.4202166 C73.7950489,69.4171345 73.7883519,69.4092753 73.7867173,69.3997473 L73.7518327,68.8529242 C73.7518327,68.8529242 73.7518327,68.8266065 73.7867173,68.8236823 C73.8071428,68.814905 73.8302469,68.814905 73.8506724,68.8236823 L75.1181458,69.5547292 Z" id="Shape" fill="#FFFFFF"></path>
                        <path d="M75.1588444,68.7973646 C75.8972349,69.2272202 75.8972349,69.9261011 75.1588444,70.3559567 C74.3175185,70.7857409 73.3227783,70.7857409 72.4814523,70.3559567 C71.7401548,69.9261011 71.7459689,69.2272202 72.4814523,68.7973646 C73.3220945,68.3647164 74.3182023,68.3647164 75.1588444,68.7973646 Z M73.8303231,70.610361 C74.2669157,70.6225763 74.6993207,70.5218925 75.0861682,70.3179422 C75.3946288,70.2088581 75.6010299,69.9157912 75.6010299,69.5868953 C75.6010299,69.2579994 75.3946288,68.9649326 75.0861682,68.8558484 C74.298046,68.4522012 73.3655071,68.4522012 72.5773849,68.8558484 C72.2846656,68.9856282 72.0860734,69.2661942 72.0599302,69.5868953 C72.0915625,69.9079823 72.2910072,70.1877365 72.583199,70.3208664 C72.9710935,70.5248118 73.4044324,70.6254801 73.8419513,70.6132852 L73.8303231,70.610361 Z" id="Shape" fill="#FFFFFF"></path>
                        <path d="M74.3797553,69.5956679 C74.3901914,69.6002475 74.3970089,69.610534 74.3971976,69.6219856 C74.3971976,69.6424549 74.3710342,69.6541516 74.3390566,69.6541516 L72.7140162,69.6161372 L73.8768358,70.2887004 C73.883737,70.2993671 73.883737,70.3131238 73.8768358,70.3237906 C73.8778564,70.3286102 73.8778564,70.333592 73.8768358,70.3384116 C73.8499051,70.3499507 73.8194622,70.3499507 73.7925314,70.3384116 L72.5250581,69.5956679 C72.5076158,69.5956679 72.5047087,69.5722744 72.5250581,69.5605776 C72.5393326,69.5455309 72.5597246,69.5379737 72.580292,69.5401083 L74.3506848,69.5810469 C74.3611529,69.5841668 74.3709932,69.589116 74.3797553,69.5956679 Z" id="Shape" fill="#FFFFFF"></path>
                        <g id="Group" transform="translate(3.488459, 49.711191)">
                            <polygon id="Shape" fill="#A86523" points="10.9305042 2.56158845 10.9275971 3.37158845 9.48279379 6.55018051 9.48570084 5.74018051"></polygon>
                            <polygon id="Shape" fill="#E88C31" points="9.48570084 5.74018051 9.48279379 6.55018051 4.03207694 7.40111913 4.03498399 6.59404332"></polygon>
                            <polygon id="Shape" fill="#995C20" points="4.03498399 6.59404332 4.03207694 7.40111913 0.0261634409 5.0734657 0.0261634409 4.26638989"></polygon>
                            <polygon id="Shape" fill="#E89C51" points="10.9305042 2.56158845 9.48570084 5.74018051 4.03498399 6.59404332 0.0261634409 4.26638989 1.47096679 1.08779783 6.92168363 0.233935018"></polygon>
                        </g>
                        <g id="Group" opacity="0.2" transform="translate(4.941983, 50.588448)" fill="#995C20">
                            <path d="M3.92742318,4.97111913 C1.89248889,4.97111913 0.223842772,3.91256318 0.223842772,2.61422383 C0.223842772,1.31588448 1.88376774,0.254404332 3.92742318,0.254404332 C5.97107861,0.254404332 7.62809654,1.31296029 7.62809654,2.61422383 C7.62809654,3.91548736 5.96817157,4.97111913 3.92742318,4.97111913 Z M3.92742318,0.546823105 C2.04656249,0.546823105 0.51454767,1.47379061 0.51454767,2.61422383 C0.51454767,3.75465704 2.03493429,4.67870036 3.92742318,4.67870036 C5.81991207,4.67870036 7.33739164,3.75173285 7.33739164,2.61422383 C7.33739164,1.4767148 5.81409797,0.535126354 3.92742318,0.535126354 L3.92742318,0.546823105 Z" id="Shape"></path>
                        </g>
                        <path d="M10.4886327,53.1529603 C10.4967603,53.1556292 10.5034868,53.1614609 10.5073104,53.1691531 C10.5111339,53.1768452 10.5117359,53.1857572 10.5089821,53.1938989 C10.5050803,53.2024625 10.4976427,53.2088751 10.4886327,53.211444 C10.4559611,53.2291202 10.4166506,53.2291202 10.383979,53.211444 L8.93045448,52.3663538 L8.96824612,52.9511913 C8.96824612,52.9745848 8.93917563,52.9950542 8.89847694,52.9950542 C8.88031961,52.9994045 8.86140034,52.9994045 8.84324301,52.9950542 C8.83166549,52.9914116 8.82355362,52.9809205 8.82289367,52.9687365 L8.77638088,52.2844765 C8.77638088,52.2669314 8.79382318,52.2523105 8.82289367,52.2464621 C8.84834399,52.2377723 8.87593367,52.2377723 8.90138399,52.2464621 L10.4886327,53.1529603 Z" id="Shape" fill="#FFFFFF"></path>
                        <path d="M10.5380526,52.2025993 C11.4654012,52.743574 11.4654012,53.6179061 10.5380526,54.1588809 C9.48380264,54.6970566 8.23756797,54.6970566 7.18331804,54.1588809 C6.25306237,53.6179061 6.25887646,52.743574 7.18331804,52.2025993 C8.23756797,51.6644236 9.48380264,51.6644236 10.5380526,52.2025993 Z M8.8723135,54.4776173 C9.42037434,54.4894917 9.96216693,54.3585337 10.445027,54.0974729 C10.8348917,53.9627971 11.0966909,53.5939219 11.0966909,53.179278 C11.0966909,52.7646341 10.8348917,52.3957589 10.445027,52.261083 C9.45683036,51.7553222 8.28779664,51.7553222 7.2996,52.261083 C6.93431108,52.4266713 6.68640751,52.7777953 6.65132808,53.179278 C6.68935053,53.579665 6.93630915,53.9294505 7.2996,54.0974729 C7.78532873,54.3555966 8.32897432,54.4834972 8.8781276,54.4688448 L8.8723135,54.4776173 Z" id="Shape" fill="#FFFFFF"></path>
                        <path d="M9.56419116,53.2026715 C9.5766785,53.2084283 9.58464482,53.2210206 9.5845405,53.2348375 C9.5845405,53.258231 9.54965591,53.2757762 9.50895723,53.2757762 L7.47402294,53.2289892 L8.92754743,54.0740794 C8.93493356,54.0767117 8.94095049,54.0822318 8.94423422,54.0893885 C8.94751795,54.0965452 8.94779037,54.1047323 8.94498973,54.1120939 C8.94243586,54.1211569 8.93606078,54.1286384 8.92754743,54.1325632 C8.89487581,54.1502393 8.85556529,54.1502393 8.82289367,54.1325632 L7.23855197,53.2202166 C7.21529558,53.2055957 7.20948148,53.1880505 7.22110968,53.1734296 C7.23928229,53.1546019 7.26487984,53.1449462 7.29087885,53.1471119 L9.51186428,53.1997473 C9.52935148,53.1979727 9.54700699,53.1989593 9.56419116,53.2026715 Z" id="Shape" fill="#FFFFFF"></path>
                        <polygon id="Shape" fill="#A86523" opacity="0.4" points="7.01761625 56.8228159 7.52344277 56.3052347 10.0525754 54.0799278 8.18334289 50.2931047 6.81993692 50.5065704 6.35480908 56.4368231"></polygon>
                        <g id="Group" transform="translate(74.129749, 73.104693)">
                            <polygon id="Shape" fill="#A86523" points="3.42741075 0.868483755 3.4245037 1.1199639 2.97681816 2.10833935 2.97681816 1.85685921"></polygon>
                            <polygon id="Shape" fill="#E88C31" points="2.97681816 1.85685921 2.97681816 2.10833935 1.27910155 2.37444043 1.27910155 2.12296029"></polygon>
                            <polygon id="Shape" fill="#995C20" points="1.27910155 2.12296029 1.27910155 2.37444043 0.0319775388 1.64924188 0.0319775388 1.39776173"></polygon>
                            <polygon id="Shape" fill="#E89C51" points="3.42741075 0.868483755 2.97681816 1.85685921 1.27910155 2.12296029 0.0319775388 1.39776173 0.479663082 0.409386282 2.17737969 0.143285199"></polygon>
                        </g>
                        <g id="Group" opacity="0.2" transform="translate(74.420454, 73.397112)" fill="#995C20">
                            <path d="M1.40701171,1.69602888 C0.706412903,1.69602888 0.154073596,1.32758123 0.154073596,0.859711191 C0.154073596,0.391841155 0.706412903,0.0263176895 1.40701171,0.0263176895 C2.10761051,0.0263176895 2.65994982,0.391841155 2.65994982,0.859711191 C2.65994982,1.32758123 2.11051756,1.69602888 1.40701171,1.69602888 Z M1.40701171,0.318736462 C0.88664994,0.318736462 0.444778495,0.567292419 0.444778495,0.859711191 C0.444778495,1.15212996 0.88664994,1.40361011 1.40701171,1.40361011 C1.92737348,1.40361011 2.36924492,1.15505415 2.36924492,0.859711191 C2.36924492,0.564368231 1.92737348,0.318736462 1.40701171,0.318736462 Z" id="Shape"></path>
                        </g>
                        <path d="M76.3332922,74.2451264 L76.3013147,74.2451264 L75.8478151,73.9819495 L75.8478151,74.1603249 C75.8478151,74.1603249 75.8478151,74.1603249 75.8245587,74.1603249 L75.8100234,74.1603249 L75.7954882,73.9468592 C75.7954882,73.9468592 75.7954882,73.9468592 75.8100234,73.9468592 L75.8361869,73.9468592 L76.3332922,74.2451264 Z" id="Shape" fill="#FFFFFF"></path>
                        <path d="M76.3478275,73.9497834 C76.4768424,73.9944972 76.5634347,74.1166363 76.5634347,74.2538989 C76.5634347,74.3911615 76.4768424,74.5133006 76.3478275,74.5580144 C76.0203924,74.7276649 75.631632,74.7276649 75.3041969,74.5580144 C75.175182,74.5133006 75.0885896,74.3911615 75.0885896,74.2538989 C75.0885896,74.1166363 75.175182,73.9944972 75.3041969,73.9497834 C75.6325379,73.7839349 76.0194864,73.7839349 76.3478275,73.9497834 Z M75.8303728,74.6574368 C76.0002061,74.6622773 76.1684124,74.6229992 76.318757,74.5433935 C76.4349061,74.4910036 76.5130693,74.3786837 76.5222504,74.2509747 C76.5101116,74.1234905 76.4314985,74.012115 76.3158499,73.958556 C76.0074659,73.8035693 75.6445585,73.8035693 75.3361744,73.958556 C75.2215736,74.0122646 75.1448315,74.1241409 75.1355881,74.2509747 C75.1441373,74.3789086 75.2225059,74.4915239 75.3390815,74.5433935 C75.4903826,74.6232407 75.6595876,74.6625182 75.8303728,74.6574368 Z" id="Shape" fill="#FFFFFF"></path>
                        <path d="M76.0454944,74.2743682 C76.0454944,74.2743682 76.0454944,74.2743682 76.0454944,74.2743682 C76.0454944,74.2743682 76.0454944,74.2743682 76.022238,74.2743682 L75.3885013,74.2597473 L75.8390939,74.5229242 C75.8286443,74.5259307 75.817566,74.5259307 75.8071164,74.5229242 L75.3158251,74.2305054 C75.3158251,74.2305054 75.3158251,74.2305054 75.3158251,74.2305054 C75.3223303,74.2277433 75.3296692,74.2277433 75.3361744,74.2305054 L76.0280521,74.2480505 C76.0341102,74.248661 76.0395783,74.2519679 76.0429555,74.2570636 C76.0463327,74.2621593 76.0472642,74.2685084 76.0454944,74.2743682 Z" id="Shape" fill="#FFFFFF"></path>
                        <polygon id="Shape" fill="url(#linearGradient-2)" points="5.05245114 44.067509 10.0351331 41.2193502 73.5483393 77.9559206 68.5394939 80.7923827"></polygon>
                        <polygon id="Shape" fill="#1B1E39" points="5.05245114 2.84815884 68.5394939 39.5701083 68.5394939 76.5406137 5.05245114 39.8186643"></polygon>
                        <polygon id="Shape" fill="#4F5370" points="5.05245114 2.84815884 10.0351331 0 73.5483393 36.7365704 68.5394939 39.5701083"></polygon>
                        <polygon id="Shape" fill="#30334A" points="68.5394939 76.5406137 73.5483393 73.5462455 73.5483393 36.7365704 68.5394939 39.5701083"></polygon>
                        <polygon id="Shape" fill="#8276F0" points="5.05245114 2.84815884 22.9889434 13.2641155 22.9889434 50.2346209 5.05245114 39.8186643"></polygon>
                        <path d="M18.869655,37.1693502 L15.549805,35.2423105 L14.3201233,32.5023466 L13.0817204,33.8065343 L9.82582557,31.9145848 C8.56125926,31.1806137 7.53507097,31.7712996 7.52925687,33.2333935 C7.52344277,34.6954874 8.54672401,36.4733935 9.81129032,37.2073646 L18.8580268,42.4709025 C20.1225931,43.2048736 21.1516884,42.6141877 21.1545955,41.1550181 C21.1575025,39.6958484 20.1313142,37.9033213 18.869655,37.1693502 Z" id="Shape" fill="#7568E8"></path>
                        <path d="M13.4218452,16.7994585 L14.9683952,25.016426 L13.9334858,24.4140433 L13.5991751,22.6595307 L11.1717892,21.247148 L10.8258504,22.6185921 L9.80256918,22.0337545 L11.3810968,15.6151625 L13.4218452,16.7994585 Z M11.3869109,20.3084838 L13.4218452,21.4781588 L12.6572913,17.3258123 L12.1950705,17.0597112 L11.4014461,20.3055596 L11.3869109,20.3084838 Z" id="Shape" fill="#7568E8"></path>
                        <polygon id="Shape" fill="#7568E8" points="18.1835914 21.7647292 18.1777773 23.6742238 19.8377023 24.6392058 19.8347952 25.6831408 18.1748703 24.721083 18.1690562 26.6510469 17.2649639 26.1246931 17.270778 24.1947292 15.6282953 23.241444 15.6312024 22.197509 17.2736851 23.1507942 17.2794992 21.2412996"></polygon>
                        <path d="M18.5527866,37.4851625 L15.2358437,35.5610469 L14.003255,32.8181588 L12.761945,34.1223466 L9.50605018,32.2303971 C8.24148387,31.496426 7.21238853,32.0900361 7.20948148,33.5492058 C7.20657443,35.0083755 8.22694863,36.7892058 9.48860789,37.5231769 L18.5382514,42.7867148 C19.8028177,43.5206859 20.829006,42.9329242 20.8348201,41.4708303 C20.7518351,39.8515484 19.9035494,38.3699815 18.5527866,37.4851625 Z" id="Shape" fill="#66FFBA"></path>
                        <path d="M13.1078839,17.1181949 L14.6544339,25.3322383 L13.6195245,24.7474007 L13.2823068,22.9928881 L10.857828,21.5834296 L10.5089821,22.9519495 L9.48860789,22.3671119 L11.0671355,15.9689892 L13.1078839,17.1181949 Z M11.0729496,20.6272202 L13.1078839,21.7968953 L12.3200736,17.6533213 L11.8578528,17.384296 L11.0613214,20.6301444 L11.0729496,20.6272202 Z" id="Shape" fill="#FFFFFF"></path>
                        <polygon id="Shape" fill="#FFFFFF" points="17.8667231 22.0834657 17.863816 23.9929603 19.523741 24.9579422 19.5208339 26.0018773 17.860909 25.0368953 17.8550949 26.9668592 16.9510026 26.4434296 16.9568167 24.5134657 15.3143341 23.5572563 15.3172411 22.5133213 16.9597238 23.4666065 16.9655379 21.5571119"></polygon>
                        <path d="M10.8491068,34.2714801 L10.8491068,35.8622383 C10.8491068,36.4295307 10.5816583,36.5055596 10.0932741,36.2219134 C9.6272264,35.995167 9.33697545,35.5142881 9.35197658,34.9937545 L9.35197658,33.4029964 L9.68628722,33.5959928 L9.68628722,35.1955235 C9.67508197,35.4883769 9.83545735,35.7606773 10.0961811,35.8914801 C10.3694437,36.0493863 10.5147962,35.9909025 10.5147962,35.6780144 L10.5147962,34.0784838 L10.8491068,34.2714801 Z" id="Shape" fill="#8276F0"></path>
                        <path d="M11.9508784,35.5084116 C12.3375159,35.733574 12.5148459,36.0932491 12.5148459,36.7161011 C12.5148459,37.4237545 12.3055384,37.508556 11.8491317,37.2424549 C11.7482609,37.1843864 11.6511633,37.1199242 11.5584268,37.0494585 L11.5584268,37.7775812 L11.2357443,37.5904332 L11.2357443,35.1399639 L11.5584268,35.3241877 L11.5584268,35.4323827 C11.6938611,35.4176262 11.8305803,35.4441125 11.9508784,35.5084116 Z M11.8287823,36.9090975 C12.1020449,37.0670036 12.1834423,36.9471119 12.1863493,36.5260289 C12.1892564,36.1049458 12.0758815,35.9148736 11.8956444,35.8096029 C11.7969997,35.7534717 11.6862458,35.7223581 11.572962,35.7189531 L11.572962,36.7277978 C11.6562311,36.7937945 11.7436219,36.854352 11.8345964,36.9090975 L11.8287823,36.9090975 Z" id="Shape" fill="#8276F0"></path>
                        <polygon id="Shape" fill="#8276F0" points="14.0236043 36.7511913 13.6340597 38.2425271 13.058464 37.9091697 12.6805477 35.9704332 13.0177654 36.169278 13.2997491 37.72787 13.3927747 37.7834296 13.6951078 36.5611191"></polygon>
                        <path d="M14.8433921,37.1898195 C15.2941238,37.4437549 15.553029,37.9416725 15.5032922,38.458917 C15.5032922,39.0291336 15.3492186,39.2747653 14.837578,38.9794224 C14.3812439,38.72105 14.122592,38.2133599 14.1805849,37.6898556 C14.1805849,37.1371841 14.3462867,36.9003249 14.8433921,37.1898195 Z M14.8433921,38.6519134 C15.134097,38.8127437 15.1777027,38.6519134 15.1806098,38.257148 C15.1835168,37.8623827 15.1079336,37.6459928 14.8462992,37.493935 C14.5846648,37.3418773 14.5090815,37.4705415 14.5090815,37.868231 C14.5090815,38.2659206 14.5672225,38.4940072 14.8433921,38.6519134 Z" id="Shape" fill="#8276F0"></path>
                        <path d="M16.2155192,37.5261011 L16.2155192,38.0144404 L16.6254131,38.2512996 L16.6254131,38.5729603 L16.2155192,38.3361011 L16.2155192,39.0876173 C16.2155192,39.3449458 16.2155192,39.4385199 16.3754069,39.5291697 C16.4597114,39.5788809 16.6108779,39.6549097 16.619599,39.6607581 L16.6341343,39.9677978 C16.5345241,39.9302598 16.4374214,39.8863059 16.3434294,39.8362094 C16.0062117,39.6402888 15.904465,39.4385199 15.904465,38.9589531 L15.904465,38.163574 L15.7155068,38.0524549 L15.7155068,37.7220217 L15.907372,37.8331408 L15.907372,37.3331047 L16.2155192,37.5261011 Z" id="Shape" fill="#8276F0"></path>
                        <path d="M18.0818447,39.8566787 L18.0585883,40.1140072 L17.151589,39.5788809 C17.132688,39.8312758 17.2654007,40.0706464 17.4888067,40.1871119 C17.7213706,40.3216245 18.0178896,40.4649097 18.0353319,40.4795307 L18.0353319,40.7719495 C17.8288447,40.6986258 17.6285772,40.6086586 17.4364798,40.5029242 C16.9887943,40.2426715 16.8172784,39.8683755 16.8201854,39.2659928 C16.8230925,38.6636101 17.0556564,38.4881588 17.4655503,38.7279422 C17.8688673,38.9544764 18.1081815,39.3927776 18.0818447,39.8566787 Z M17.151589,39.2893863 L17.7795116,39.6519856 C17.8207766,39.4005664 17.705628,39.149221 17.4888067,39.0174368 C17.267871,38.8887726 17.1719384,38.9618773 17.1661243,39.2893863 L17.151589,39.2893863 Z" id="Shape" fill="#8276F0"></path>
                        <path d="M29.4542203,44.0470397 C29.621944,44.2107878 29.7136919,44.4377971 29.7071336,44.6728159 C29.7071336,45.0938989 29.4861978,45.126065 29.1257238,44.9272202 L28.4309391,44.5207581 L28.4309391,42.4738267 L29.1053744,42.8656679 C29.4354116,43.017137 29.6468728,43.3487783 29.6460855,43.7136823 C29.6664349,43.9593141 29.5995728,44.0411913 29.4542203,44.0470397 Z M29.1257238,44.6318773 C29.3059608,44.737148 29.4164287,44.7312996 29.4164287,44.4856679 C29.4133107,44.2882799 29.3012432,44.1090421 29.1257238,44.020722 L28.7390863,43.7955596 L28.7390863,44.4037906 L29.1315379,44.6318773 L29.1257238,44.6318773 Z M28.7449004,42.9270758 L28.7449004,43.5119134 L29.1257238,43.7341516 C29.3030538,43.8364982 29.3815441,43.7780144 29.3815441,43.5762455 C29.3861007,43.3913498 29.28261,43.2208988 29.1170026,43.1405415 L28.7478074,42.9241516 L28.7449004,42.9270758 Z" id="Shape" fill="#66FFBA"></path>
                        <polygon id="Shape" fill="#66FFBA" points="30.3030786 43.4738989 30.2972645 45.5968592 30.0152808 45.4331047 30.0210949 43.3101444"></polygon>
                        <path d="M31.1751933,44.5733935 C31.5714823,44.7930218 31.80001,45.2286349 31.7566031,45.6816606 C31.7566031,46.1816968 31.6228789,46.3980866 31.1751933,46.1378339 C30.773204,45.9150532 30.5438532,45.4709499 30.5937835,45.0120217 C30.5966906,44.5266065 30.742043,44.3219134 31.1751933,44.5733935 Z M31.1751933,45.8629603 C31.4164784,46.0033213 31.4658982,45.8629603 31.4658982,45.5179061 C31.4658982,45.172852 31.4048502,44.9827798 31.1751933,44.8482671 C30.9455364,44.7137545 30.8844884,44.8277978 30.8844884,45.1757762 C30.8844884,45.5237545 30.9339082,45.7225993 31.1751933,45.8629603 Z" id="Shape" fill="#66FFBA"></path>
                        <path d="M32.521157,45.3541516 C32.6553367,45.4443237 32.784416,45.541948 32.9077945,45.6465704 L32.9077945,45.8980505 C32.9077945,45.8980505 32.7043011,45.7576895 32.6170896,45.6992058 C32.3467341,45.5442238 32.285686,45.6319495 32.282779,45.9770036 C32.2798719,46.3220578 32.3351059,46.5209025 32.6170896,46.684657 C32.7159293,46.7431408 32.9077945,46.8308664 32.9077945,46.8367148 L32.9077945,47.1028159 C32.7722261,47.0533662 32.6401384,46.9947486 32.5124358,46.9273646 C32.1141701,46.6963538 31.9775388,46.3863899 31.9775388,45.8132491 C31.9775388,45.2401083 32.1345195,45.1289892 32.521157,45.3541516 Z" id="Shape" fill="#66FFBA"></path>
                        <polygon id="Shape" fill="#66FFBA" points="33.4601338 46.5384477 33.6229286 46.6144765 33.9310757 46.2050903 34.2479441 46.3893141 33.8729348 46.8747292 34.2624793 47.9011191 33.945611 47.7168953 33.6287427 46.9010469 33.4601338 46.8220939 33.4572268 47.4332491 33.175243 47.2694946 33.1810571 45.1465343 33.4630409 45.3102888"></polygon>
                        <path d="M34.9311006,46.7548375 C35.0665967,46.8444567 35.1966745,46.942102 35.3206452,47.0472563 L35.3206452,47.3016606 C35.3206452,47.3016606 35.1171517,47.1583755 35.0299403,47.0998917 C34.7595847,46.9449097 34.6956296,47.0326354 34.6956296,47.3776895 C34.6956296,47.7227437 34.7479565,47.9215884 35.0299403,48.085343 C35.1287799,48.1438267 35.3206452,48.2315523 35.3206452,48.2374007 L35.3206452,48.5035018 C35.186319,48.4533066 35.0552458,48.3947085 34.9281935,48.3280505 C34.5270208,48.0970397 34.3903895,47.7870758 34.3932965,47.213935 C34.3962036,46.6407942 34.5444631,46.5296751 34.9311006,46.7548375 Z" id="Shape" fill="#66FFBA"></path>
                        <path d="M35.8758915,46.7109747 L35.8758915,47.4127798 C35.9999245,47.417025 36.1213035,47.4500506 36.2305515,47.509278 C36.5910256,47.7198195 36.678237,48.0063899 36.678237,48.4976534 L36.678237,49.3018051 L36.3875321,49.1380505 L36.3875321,48.3426715 C36.3875321,48.0502527 36.3584616,47.8777256 36.1578753,47.7578339 C36.0679746,47.7056196 35.9695283,47.66997 35.8671704,47.6525632 L35.8671704,48.8222383 L35.5764655,48.6584838 L35.5764655,46.5355235 L35.8758915,46.7109747 Z" id="Shape" fill="#66FFBA"></path>
                        <path d="M37.9660597,49.7111913 C37.9669776,49.7943257 38.00964,49.8713506 38.0794346,49.9158845 L38.0794346,50.1615162 C37.9394171,50.0886968 37.8203088,49.980968 37.7334958,49.8486282 C37.5867651,49.8372203 37.4445711,49.7922101 37.3177878,49.7170397 C37.0661851,49.5766331 36.9161323,49.3042647 36.9311503,49.0152347 C36.9311503,48.6994224 37.0823168,48.6760289 37.3613935,48.8134657 L37.6957042,48.974296 L37.6957042,48.8661011 C37.707317,48.7278542 37.631839,48.597033 37.506746,48.5385921 C37.3352301,48.4391697 37.0358041,48.2929603 37.0183618,48.2841877 L37.0183618,48.0502527 C37.2004054,48.1059437 37.3758662,48.1814445 37.5416306,48.2754152 C37.827992,48.4116668 38.0038268,48.7087645 37.9864091,49.0269314 L37.9660597,49.7111913 Z M37.6753548,49.6029964 L37.6753548,49.2023827 L37.3846499,49.0620217 C37.2654609,49.0064621 37.20732,49.035704 37.2044129,49.1702166 C37.1948982,49.2964739 37.2566946,49.4174046 37.3643006,49.4831047 C37.465173,49.5393452 37.573986,49.5797744 37.686983,49.6029964 L37.6753548,49.6029964 Z" id="Shape" fill="#66FFBA"></path>
                        <polygon id="Shape" fill="#66FFBA" points="38.3265338 48.1584477 38.6085176 48.3222022 38.6085176 48.6672563 38.3236268 48.5035018"></polygon>
                        <polygon id="Shape" fill="#66FFBA" points="38.3207197 50.2580144 38.3236268 48.7579061 38.6056105 48.9216606 38.6027035 50.421769"></polygon>
                        <path d="M39.5881931,49.4597112 C39.9486671,49.6673285 40.0358786,49.9538989 40.0329716,50.4480866 L40.0329716,51.2493141 L39.7422667,51.0884838 L39.7422667,50.2960289 C39.7422667,50.0036101 39.7102891,49.831083 39.5126098,49.7111913 C39.4239228,49.658438 39.3245625,49.6264553 39.2219049,49.6176173 L39.2219049,50.7872924 L38.9312,50.6235379 L38.9312,49.1263538 L39.2219049,49.2901083 L39.2219049,49.3836823 C39.3488244,49.3713826 39.4764808,49.3978797 39.5881931,49.4597112 Z" id="Shape" fill="#66FFBA"></path>
                        <path d="M41.5853357,50.0971841 C42.1667455,50.4276173 42.2975627,50.8633213 42.2946557,51.5037184 C42.2917486,52.1441155 42.1667455,52.4891697 41.5795216,52.1499639 L40.9632272,51.793213 L40.9632272,49.7462816 L41.5853357,50.0971841 Z M41.5853357,51.8516968 C41.9429027,52.0593141 41.9981367,51.7727437 42.0010437,51.3224188 C42.0039508,50.8720939 41.9487168,50.5884477 41.5911498,50.3808303 L41.2626533,50.1907581 L41.2626533,51.652852 L41.5882428,51.8429242 L41.5853357,51.8516968 Z" id="Shape" fill="#66FFBA"></path>
                        <path d="M43.6406194,52.5008664 L43.6231771,52.7231047 L42.8179245,52.2552347 C42.8005792,52.4750903 42.9148409,52.6842726 43.1086294,52.7874368 C43.3121228,52.9073285 43.5708502,53.0330686 43.5853854,53.038917 L43.5853854,53.2845487 C43.4051388,53.220481 43.2301771,53.1422618 43.0621166,53.0506137 C42.672572,52.8254513 42.5243125,52.4979422 42.5243125,51.9686643 C42.5243125,51.4393863 42.730713,51.2902527 43.0911871,51.49787 C43.4538278,51.69509 43.6685905,52.0871424 43.6406194,52.5008664 Z M42.8179245,52.0037545 L43.3644497,52.322491 C43.400284,52.0991518 43.293404,51.8771199 43.0970012,51.7668953 C42.905136,51.6557762 42.8208315,51.7171841 42.8062963,52.0037545 L42.8179245,52.0037545 Z" id="Shape" fill="#66FFBA"></path>
                        <polygon id="Shape" fill="#66FFBA" points="44.9516984 52.6061372 44.6086667 53.9103249 44.1057472 53.6179061 43.7772507 51.9248014 44.0708626 52.0973285 44.3150547 53.46 44.3993591 53.506787 44.6639006 52.4394585"></polygon>
                        <polygon id="Shape" fill="#FFFFFF" points="27.5181257 26.1597834 27.3262605 27.1861733 26.8495044 26.9083755 27.1721869 25.9609386"></polygon>
                        <polygon id="Shape" fill="#FFFFFF" points="26.1343704 26.4931408 26.4570528 25.545704 26.8029916 25.7445487 26.6111264 26.7709386"></polygon>
                        <polygon id="Shape" fill="#FFFFFF" points="30.7478571 28.0663538 30.7478571 28.5459206 29.9426045 28.0780505 29.9338834 30.9057401 29.4687556 30.6337906 29.4745697 27.8061011 28.6605959 27.3323827 28.6605959 26.8528159"></polygon>
                        <path d="M31.5356674,28.4143321 L31.5356674,29.534296 C31.739171,29.5372307 31.9388354,29.5904537 32.1170772,29.689278 C32.698487,30.0255596 32.8380253,30.4905054 32.8351183,31.2829603 L32.8351183,32.5754513 L32.3816186,32.3122744 L32.3816186,31.0314801 C32.3816186,30.5489892 32.3321988,30.2858123 32.0095164,30.0986643 C31.8661903,30.0143565 31.7084234,29.9578207 31.5443885,29.9319856 L31.5443885,31.823935 L31.0879818,31.5578339 L31.0879818,28.1423827 L31.5356674,28.4143321 Z" id="Shape" fill="#FFFFFF"></path>
                        <polygon id="Shape" fill="#FFFFFF" points="33.3612941 29.5109025 33.8177008 29.7740794 33.8147938 30.3296751 33.3583871 30.0664982"></polygon>
                        <polygon id="Shape" fill="#FFFFFF" points="33.352573 32.8912635 33.3583871 30.4758845 33.8147938 30.7390614 33.8060726 33.1544404"></polygon>
                        <path d="M35.0386614,31.402852 C35.3104434,31.5738166 35.5715946,31.7613135 35.8206576,31.964296 L35.8206576,32.4 C35.7974012,32.3824549 35.3293663,32.0374007 35.076453,31.8911913 C34.8235398,31.7449819 34.7130719,31.7479061 34.7130719,31.9438267 C34.7130719,32.1397473 34.8002834,32.198231 35.2101773,32.5286643 C35.7101897,32.9234296 35.8904268,33.1719856 35.8875197,33.6544765 C35.8875197,34.2188448 35.5764655,34.2393141 35.0590108,33.9468953 C34.791757,33.775447 34.5336429,33.5899928 34.2857357,33.3912996 L34.303178,32.961444 C34.3293415,32.9789892 34.8060975,33.3298917 35.0183121,33.4527076 C35.309017,33.6281588 35.4369271,33.6252347 35.4369271,33.411769 C35.4369271,33.2421661 35.3671579,33.1485921 34.954357,32.8269314 C34.4950432,32.4760289 34.2624793,32.2245487 34.2624793,31.7128159 C34.2624793,31.201083 34.6229534,31.1601444 35.0386614,31.402852 Z" id="Shape" fill="#FFFFFF"></path>
                        <polygon id="Shape" fill="#FFFFFF" points="37.2451116 31.7654513 37.7015183 32.0315523 37.6986112 32.587148 37.2422045 32.3210469"></polygon>
                        <polygon id="Shape" fill="#FFFFFF" points="37.2334834 35.1458123 37.2422045 32.7304332 37.6986112 32.9965343 37.6898901 35.4089892"></polygon>
                        <path d="M38.9224789,33.6574007 C39.1947935,33.8300216 39.4568724,34.018464 39.7073821,34.221769 L39.7073821,34.6545487 C39.6841257,34.6370036 39.2160908,34.2919495 38.9631775,34.1457401 C38.7102643,33.9995307 38.6027035,34.0024549 38.5997964,34.2012996 C38.5968894,34.4001444 38.6870079,34.4527798 39.0969018,34.7861372 C39.5969142,35.1779783 39.7771513,35.4265343 39.7742442,35.9119495 C39.7742442,36.4733935 39.466097,36.496787 38.9457352,36.2043682 C38.6787355,36.03359 38.4206369,35.8491229 38.1724602,35.6516968 L38.1928096,35.2218412 C38.218973,35.2393863 38.692822,35.5902888 38.9050366,35.7131047 C39.1957415,35.888556 39.3236516,35.8827076 39.3236516,35.6721661 C39.3236516,35.4616245 39.2538824,35.406065 38.8410815,35.0873285 C38.3817677,34.7335018 38.1492038,34.4820217 38.1492038,33.9702888 C38.1492038,33.458556 38.5067708,33.4176173 38.9224789,33.6574007 Z" id="Shape" fill="#FFFFFF"></path>
                        <path d="M42.6667579,37.7220217 C42.666847,37.8566244 42.7361216,37.9816114 42.849902,38.0524549 L42.8353668,38.444296 C42.611699,38.3268407 42.4208161,38.1549381 42.2801204,37.9442599 C42.0432681,37.9242915 41.81384,37.8513609 41.6085921,37.7307942 C41.2085874,37.5049566 40.9690987,37.071788 40.9893907,36.6108303 C40.9893907,36.0990975 41.2335828,36.0640072 41.6812683,36.2774729 L42.2190724,36.5377256 L42.2190724,36.3651986 C42.236748,36.1475475 42.1218888,35.9407374 41.9283675,35.841769 C41.6376626,35.6780144 41.1696277,35.4470036 41.1434643,35.4353069 L41.126022,35.0522383 C41.4178681,35.142063 41.6994738,35.2626225 41.9661591,35.4119134 C42.4282741,35.6337709 42.7117704,36.1140532 42.6842002,36.6283755 L42.6667579,37.7220217 Z M42.2132583,37.5465704 L42.2132583,36.9061733 L41.7277811,36.6780866 C41.5359159,36.5845126 41.4370762,36.6342238 41.4370762,36.8506137 C41.4217089,37.0525574 41.5191645,37.2463642 41.6899895,37.353574 C41.8523439,37.442616 42.0266259,37.5076184 42.2074442,37.5465704 L42.2132583,37.5465704 Z" id="Shape" fill="#FFFFFF"></path>
                        <path d="M44.271449,36.7599639 C44.8528588,37.0962455 44.9923971,37.5611913 44.9894901,38.3536462 L44.9894901,39.6461372 L44.5388975,39.3858845 L44.5388975,38.1050903 C44.5388975,37.6225993 44.4865706,37.3564982 44.1697023,37.1722744 C44.0262111,37.0867966 43.8650532,37.0357626 43.6987603,37.0231408 L43.6987603,38.8946209 L43.2423536,38.631444 L43.2423536,36.216065 L43.6929462,36.4792419 L43.6929462,36.6312996 C43.89415,36.6162162 44.095323,36.6609589 44.271449,36.7599639 Z" id="Shape" fill="#FFFFFF"></path>
                        <polygon id="Shape" fill="#FFFFFF" points="46.4459216 37.1079422 46.8994213 37.3740433 46.8994213 37.929639 46.4430146 37.6635379"></polygon>
                        <polygon id="Shape" fill="#FFFFFF" points="46.4342934 40.4883032 46.4430146 38.0729242 46.8965142 38.3390253 46.8907001 40.7544043"></polygon>
                        <path d="M48.4779489,39.2016606 C49.0593587,39.5379422 49.198897,40.0028881 49.19599,40.795343 L49.19599,42.0907581 L48.7453974,41.8275812 L48.7453974,40.5497112 C48.7453974,40.064296 48.6930705,39.7981949 48.3762022,39.6139711 C48.2325416,39.5288757 48.0714742,39.4778704 47.9052602,39.4648375 L47.9052602,41.3392419 L47.4488535,41.0731408 L47.4488535,38.6577617 L47.9023532,38.9209386 L47.9023532,39.0729964 C48.1025875,39.0584927 48.3026669,39.1032169 48.4779489,39.2016606 Z" id="Shape" fill="#FFFFFF"></path>
                        <path d="M50.5128832,40.3830325 C50.7309118,40.5116968 51.1175493,40.8245848 51.1378987,40.8392058 L51.1175493,41.2427437 C51.1030141,41.2427437 50.7890528,41.0175812 50.6320722,40.9240072 C50.1960148,40.6725271 50.0942681,40.8158123 50.0942681,41.3684838 C50.0942681,41.9884116 50.1785725,42.2457401 50.6320722,42.508917 C50.7890528,42.5995668 51.1030141,42.7457762 51.1204564,42.7545487 L51.1204564,43.1814801 C50.9024193,43.0973802 50.6897941,42.9997187 50.4838127,42.8890614 C49.8413548,42.5147653 49.611698,42.0118051 49.611698,41.0936101 C49.6378614,40.2397473 49.8878676,40.0204332 50.5128832,40.3830325 Z" id="Shape" fill="#FFFFFF"></path>
                        <path d="M52.7367756,41.6755235 L52.7367756,42.2048014 C52.5089727,42.1225792 52.2715135,42.0704823 52.0303627,42.0498195 L52.0303627,43.7341516 L51.573956,43.4709747 L51.573956,41.0555957 L52.0245486,41.3187726 L52.0245486,41.6111913 C52.2636524,41.5749149 52.5079219,41.5969786 52.7367756,41.6755235 Z" id="Shape" fill="#FFFFFF"></path>
                        <path d="M54.7484535,43.9534657 L54.716476,44.3102166 L53.4228392,43.5703971 C53.3925842,43.9264115 53.580013,44.2653097 53.8966882,44.4271841 C54.2251847,44.6172563 54.6408927,44.8190253 54.6641491,44.830722 L54.6641491,45.2254874 C54.3724495,45.1218919 54.0895457,44.9947636 53.8181978,44.845343 C53.1931823,44.4798195 52.9460832,43.9680866 52.9460832,43.1054513 C52.9460832,42.2428159 53.2803938,42.0118051 53.8559895,42.3480866 C54.4379798,42.6636618 54.7858804,43.2894712 54.7484535,43.9534657 Z M53.4199321,43.1522383 L54.2920468,43.6639711 C54.2920468,43.1814801 54.1670437,42.9475451 53.8618036,42.7867148 C53.5565634,42.6258845 53.414118,42.7048375 53.411211,43.1668592 L53.4199321,43.1522383 Z" id="Shape" fill="#FFFFFF"></path>
                        <path d="M56.440356,42.8744404 L56.8938557,43.1405415 L56.8938557,46.5559928 L56.4432631,46.2957401 L56.4432631,46.17 C56.2470614,46.1662536 56.0546321,46.1151046 55.8822026,46.0208664 C55.3502127,45.7109025 55.0943924,45.2401083 55.0972994,44.3102166 C55.0972994,43.4329603 55.3734691,43.2019495 55.9694141,43.5499278 C56.1380229,43.646426 56.4200067,43.8686643 56.4461701,43.8862094 L56.440356,42.8744404 Z M56.440356,45.7547653 L56.440356,44.3277617 C56.2988888,44.2171849 56.1513666,44.1146773 55.9984846,44.020722 C55.6903374,43.8423466 55.5537061,44.020722 55.5537061,44.5763177 C55.5537061,45.1962455 55.6990585,45.453574 55.9548789,45.5968592 C56.1030715,45.6826718 56.2674274,45.7364522 56.437449,45.7547653 L56.440356,45.7547653 Z" id="Shape" fill="#FFFFFF"></path>
                        <polygon id="Shape" fill="#FFFFFF" points="57.446195 43.4972924 57.9026017 43.7633935 57.8996946 44.3189892 57.4432879 44.0528881"></polygon>
                        <polygon id="Shape" fill="#FFFFFF" points="57.4345668 46.8776534 57.4432879 44.4622744 57.8996946 44.7283755 57.8938805 47.1437545"></polygon>
                        <path d="M59.4229883,45.5588448 C60.0043981,45.889278 60.234055,46.3542238 60.2311479,47.2548736 C60.2311479,48.25787 59.9549783,48.3923827 59.2078667,47.9566787 C58.9869309,47.8280144 58.4723833,47.4771119 58.4433128,47.4595668 L58.4433128,44.0470397 L58.8939054,44.3072924 L58.8939054,45.4038628 C59.0791274,45.4175868 59.2594,45.4703933 59.4229883,45.5588448 Z M59.2078667,47.4888087 C59.6729945,47.7607581 59.763113,47.5765343 59.7660201,46.9858484 C59.7660201,46.4419495 59.6468311,46.1612274 59.3677544,45.9974729 C59.2214709,45.915496 59.0636605,45.856338 58.8997195,45.8220217 L58.8997195,47.2841155 C58.8997195,47.2841155 59.1293763,47.4361733 59.2107737,47.4829603 L59.2078667,47.4888087 Z" id="Shape" fill="#FFFFFF"></path>
                        <polygon id="Shape" fill="#FFFFFF" points="61.1730318 45.6261011 61.1643106 49.0415523 60.7049969 48.7754513 60.7166251 45.36"></polygon>
                        <polygon id="Shape" fill="#FFFFFF" points="63.4492511 47.9508303 62.6469056 50.9422744 62.1992201 50.6820217 62.4521333 49.7901444 62.0916593 49.5825271 61.5538552 46.8484116 62.0015407 47.1086643 62.4375981 49.3310469 62.5480659 49.3983032 62.9986585 47.6905776"></polygon>
                        <polygon id="Shape" fill="#FFFFFF" points="29.0356053 32.8006137 29.4891049 33.0637906 29.4861978 33.6193863 29.0326982 33.3562094"></polygon>
                        <polygon id="Shape" fill="#FFFFFF" points="29.0239771 36.1780505 29.0326982 33.7655957 29.4861978 34.0316968 29.4803838 36.4441516"></polygon>
                        <path d="M31.0647254,34.8943321 C31.6461352,35.2306137 31.7885806,35.6955596 31.7856736,36.4880144 L31.7856736,37.7805054 L31.332174,37.5173285 L31.332174,36.2365343 C31.332174,35.7569675 31.2798471,35.4879422 30.9629787,35.3037184 C30.8194876,35.2182406 30.6583297,35.1672066 30.4920368,35.1545848 L30.4920368,37.0289892 L30.0356301,36.7628881 L30.0356301,34.3504332 L30.4862227,34.6136101 L30.4862227,34.7627437 C30.6876636,34.7492359 30.8886615,34.7949557 31.0647254,34.8943321 Z" id="Shape" fill="#FFFFFF"></path>
                        <path d="M33.3438519,36.2189892 C33.9252616,36.5552708 34.067707,37.0202166 34.0648,37.8126715 L34.0648,39.1051625 L33.6113004,38.8419856 L33.6113004,37.5611913 C33.6113004,37.0816245 33.5589735,36.8125993 33.2421051,36.6283755 C33.0974931,36.5430465 32.9354288,36.4920403 32.7682562,36.4792419 L32.7682562,38.350722 L32.3147565,38.0875451 L32.3147565,35.6750903 L32.7653491,35.9382671 L32.7653491,36.0874007 C32.96679,36.0738929 33.1677879,36.1196127 33.3438519,36.2189892 Z" id="Shape" fill="#FFFFFF"></path>
                        <path d="M35.428206,37.4296029 C36.1288048,37.8331408 36.3613687,38.4325993 36.3584616,39.2133574 C36.3555546,39.9941155 36.140433,40.3654874 35.4223919,39.9473285 C34.7043508,39.5291697 34.4921362,38.9326354 34.4950432,38.1314079 C34.4979503,37.3301805 34.7334213,37.0231408 35.428206,37.4296029 Z M35.428206,39.502852 C35.8177505,39.7280144 35.902055,39.502852 35.904962,38.9472563 C35.9078691,38.3916606 35.8032153,38.0875451 35.4340201,37.8740794 C35.0648249,37.6606137 34.9630781,37.8389892 34.9601711,38.4004332 C34.957264,38.9618773 35.0415685,39.2776895 35.428206,39.502852 Z" id="Shape" fill="#FFFFFF"></path>
                        <polygon id="Shape" fill="#FFFFFF" points="38.4747933 39.2513718 37.9253611 41.3480144 37.1142944 40.8772202 36.5823044 38.1518773 37.0590605 38.4296751 37.4544191 40.6257401 37.5881434 40.701769 38.0125725 38.9823466"></polygon>
                        <path d="M40.3411188,42.1814079 C40.3432865,42.3146776 40.4121639,42.4378481 40.5242628,42.508917 L40.5097276,42.9036823 C40.2846934,42.7868966 40.093441,42.6136539 39.9544812,42.400722 C39.7176688,42.38264 39.4880408,42.3106457 39.2829529,42.1901805 C38.8769234,41.9642514 38.6352087,41.5245549 38.6608444,41.0585199 C38.6608444,40.546787 38.9050366,40.5146209 39.3527221,40.733935 L39.8934332,40.9912635 L39.8934332,40.8187365 C39.913162,40.5998873 39.7978774,40.3911515 39.6027283,40.2923827 C39.3120234,40.1315523 38.8439885,39.8976173 38.8178251,39.8829964 L38.8178251,39.5057762 C39.1098478,39.5963696 39.3914744,39.7179183 39.6579622,39.8683755 C40.1191335,40.0878268 40.4019738,40.5666327 40.3730963,41.0789892 L40.3411188,42.1814079 Z M39.8905262,42.0059567 L39.8905262,41.3655596 L39.405049,41.1345487 C39.2131838,41.0438989 39.1143441,41.0936101 39.1143441,41.31 C39.100089,41.5109292 39.1974029,41.7033289 39.3672573,41.8100361 C39.5298534,41.9014591 39.7053069,41.9675188 39.8876191,42.0059567 L39.8905262,42.0059567 Z" id="Shape" fill="#FFFFFF"></path>
                        <path d="M41.4661467,40.2865343 L41.4661467,40.9883394 L42.0475565,41.3216968 L42.0475565,41.7690975 L41.4661467,41.4328159 L41.4661467,42.4972202 C41.4661467,42.8598195 41.4661467,42.9914079 41.6958036,43.1200722 C41.8120855,43.1873285 42.0243001,43.2955235 42.0359283,43.3013718 L42.0562777,43.7341516 C41.9107075,43.6827646 41.7688856,43.6212067 41.6318485,43.5499278 C41.1579995,43.2750542 41.0126471,42.9884838 41.0155541,42.2925271 L41.0155541,41.1725632 L40.7481056,41.0175812 L40.7481056,40.5701805 L41.0184612,40.7251625 L41.0184612,40.0262816 L41.4661467,40.2865343 Z" id="Shape" fill="#FFFFFF"></path>
                        <polygon id="Shape" fill="#FFFFFF" points="42.4167517 40.5701805 42.8702514 40.8333574 42.8702514 41.3889531 42.4138447 41.1257762"></polygon>
                        <polygon id="Shape" fill="#FFFFFF" points="42.4051235 43.9505415 42.4138447 41.5380866 42.8673443 41.8012635 42.8615302 44.2137184"></polygon>
                        <polygon id="Shape" fill="#FFFFFF" points="45.1144932 43.1083755 44.5650609 45.2050181 43.7539943 44.7342238 43.2220043 42.0088809 43.6987603 42.2837545 44.094119 44.4798195 44.2278432 44.5587726 44.6493654 42.8393502"></polygon>
                        <path d="M47.1174499,45.3249097 L47.0854724,45.6845848 L45.7918356,44.9330686 C45.7615806,45.2890829 45.9490095,45.6279812 46.2656846,45.7898556 C46.5941811,45.9799278 47.0127962,46.1816968 47.0331455,46.1904693 L47.0331455,46.5881588 C46.7422584,46.4848739 46.4602959,46.3577317 46.1901013,46.2080144 C45.5621787,45.8454152 45.3179866,45.3307581 45.3179866,44.4710469 C45.3179866,43.6113357 45.6522973,43.3774007 46.227893,43.7107581 C46.8128053,44.0274263 47.1603911,44.6581404 47.1174499,45.3249097 Z M45.7889286,44.5236823 L46.6610432,45.0354152 C46.6610432,44.5558484 46.5360401,44.3219134 46.233707,44.1435379 C45.931374,43.9651625 45.7860215,44.0645848 45.7802074,44.5236823 L45.7889286,44.5236823 Z" id="Shape" fill="#FFFFFF"></path>
                        <path d="M49.4663455,45.5822383 C50.0099637,45.8980505 50.2628769,46.4010108 50.2599699,47.2782671 C50.2599699,48.272491 49.969265,48.3953069 49.3239001,48.0210108 C49.185454,47.9380222 49.0524271,47.8462102 48.9256344,47.7461372 L48.9256344,48.7725271 L48.4692277,48.5093502 L48.4692277,45.0588087 L48.9198203,45.3219856 L48.9198203,45.4711191 C49.1090318,45.4505024 49.2999482,45.4893194 49.4663455,45.5822383 Z M49.2948296,47.5502166 C49.6814671,47.7753791 49.7948421,47.602852 49.7977491,47.0092419 C49.8006562,46.4156318 49.6436755,46.1524549 49.3878552,46.0033213 C49.2483384,45.9234516 49.0918434,45.8783319 48.9314485,45.8717329 L48.9314485,47.2958123 C49.049782,47.3873606 49.1730333,47.4722904 49.3006437,47.5502166 L49.2948296,47.5502166 Z" id="Shape" fill="#FFFFFF"></path>
                        <path d="M51.8821032,46.9829242 L51.8821032,47.509278 C51.6539613,47.4282489 51.4166554,47.3761857 51.1756903,47.354296 L51.1756903,49.0386282 L50.7192836,48.7754513 L50.7192836,46.3629964 L51.1727833,46.6261733 L51.1727833,46.9185921 C51.4109761,46.8841277 51.6538806,46.906158 51.8821032,46.9829242 Z" id="Shape" fill="#FFFFFF"></path>
                        <g id="Group" transform="translate(52.036177, 47.371841)" fill="#FFFFFF">
                            <path d="M1.00583895,0.292418773 C1.7035307,0.695956679 1.93609462,1.29541516 1.93318757,2.07617329 C1.93028053,2.85693141 1.7151589,3.22830325 0.997117802,2.8101444 C0.279076703,2.39198556 0.0697691756,1.79545126 0.0726762246,0.994223827 C0.0755832736,0.19299639 0.308147192,-0.119891697 1.00583895,0.292418773 Z M1.00583895,2.36566787 C1.39538351,2.59375451 1.47968793,2.36566787 1.47968793,1.8100722 C1.47968793,1.25447653 1.37794122,0.950361011 1.008746,0.733971119 C0.639550777,0.517581227 0.537804062,0.701805054 0.537804062,1.2632491 C0.537804062,1.82469314 0.619201434,2.14050542 1.00583895,2.36566787 Z" id="Shape"></path>
                            <path d="M2.38378017,3.46516245 L2.38378017,1.1433574 L2.83437276,1.4065343 L2.83437276,3.74588448 C2.83437276,4.3833574 2.68029916,4.50617329 2.11051756,4.50617329 L1.93028053,4.01198556 C2.32563919,3.94472924 2.38378017,3.89794224 2.38378017,3.46516245 Z" id="Shape"></path>
                        </g>
                        <polygon id="Shape" fill="#FFFFFF" points="54.4315852 47.5472924 54.8821778 47.8104693 54.8821778 48.366065 54.4286781 48.1028881"></polygon>
                        <path d="M57.1147914,51.1294224 L57.0857209,51.4890975 L55.7891771,50.7375812 C55.7594445,51.0942688 55.9481273,51.4333541 56.2659331,51.5943682 C56.5944296,51.7844404 57.0101376,51.9832852 57.033394,51.9949819 L57.033394,52.3926715 C56.7416944,52.289076 56.4587907,52.1619478 56.1874428,52.0125271 C55.5624272,51.6499278 55.3153281,51.1352708 55.3153281,50.2580144 C55.3153281,49.3807581 55.6496387,49.1672924 56.2252344,49.5006498 C56.8162796,49.8184362 57.1651391,50.4571956 57.1147914,51.1294224 Z M55.78627,50.3281949 L56.6583847,50.8399278 C56.6583847,50.3574368 56.5333816,50.126426 56.2281415,49.9480505 C55.9229013,49.7696751 55.7804559,49.8690975 55.7746418,50.3281949 L55.78627,50.3281949 Z" id="Shape" fill="#FFFFFF"></path>
                        <path d="M58.338659,50.734657 C58.5553433,50.8737406 58.7640165,51.0250663 58.9636746,51.1879061 L58.9462323,51.591444 C58.92879,51.591444 58.6177357,51.3633574 58.457848,51.2697834 C58.0217907,51.0183032 57.922951,51.1615884 57.920044,51.7171841 C57.920044,52.3341877 58.0072554,52.5944404 58.457848,52.8576173 C58.6177357,52.9511913 58.92879,53.0944765 58.9462323,53.1032491 L58.9462323,53.5301805 C58.7288957,53.4466597 58.5172015,53.3489798 58.3124956,53.2377617 C57.6671307,52.8663899 57.4403809,52.3605054 57.4403809,51.4423105 C57.4636373,50.5884477 57.7165505,50.3720578 58.338659,50.734657 Z" id="Shape" fill="#FFFFFF"></path>
                        <path d="M59.9520712,51.0241516 L59.9520712,51.7230325 L60.533481,52.0563899 L60.533481,52.5037906 L59.9520712,52.1704332 L59.9520712,53.2202166 C59.9520712,53.5828159 59.9520712,53.7173285 60.178821,53.8430686 C60.29801,53.9103249 60.5102246,54.0185199 60.5218528,54.0243682 L60.5422022,54.4600722 C60.3954208,54.4082286 60.2525961,54.3456798 60.1148659,54.2729242 C59.643924,54.0009747 59.4985716,53.7114801 59.5014786,53.0184477 L59.5014786,51.8955596 L59.2340301,51.7405776 L59.2340301,51.2931769 L59.5014786,51.4481588 L59.5014786,50.749278 L59.9520712,51.0241516 Z" id="Shape" fill="#FFFFFF"></path>
                        <polygon id="Shape" fill="#FFFFFF" points="60.9259326 54.705704 60.9288397 54.0272924 61.4143168 54.3109386 61.4114098 54.9893502"></polygon>
                        <polygon id="Shape" fill="#FFFFFF" points="61.3765252 53.80213 60.9724454 53.5681949 60.9404679 51.4013718 61.423038 51.6820939"></polygon>
                        <polygon id="Shape" fill="#FFFFFF" points="63.7603054 53.0009025 64.2370614 53.2787004 63.917286 54.2290614 63.5713472 54.0272924"></polygon>
                        <polygon id="Shape" fill="#FFFFFF" points="62.847492 53.6091336 63.0393572 52.5827437 63.5161133 52.8576173 63.1934308 53.8079783"></polygon>
                        <path d="M47.1174499,50.0240794 C47.0917514,50.0245864 47.0664739,50.017467 47.0447737,50.0036101 L28.3727981,39.2045848 C28.304118,39.163937 28.2807781,39.0752441 28.3204712,39.0057401 C28.3388264,38.9714456 28.3702698,38.946145 28.407562,38.9356637 C28.4448542,38.9251824 28.4847813,38.9304236 28.5181505,38.9501805 L47.1901262,49.75213 C47.2461952,49.7855878 47.2732597,49.852505 47.2563356,49.9158338 C47.2394115,49.9791625 47.1826392,50.0234101 47.1174499,50.0240794 Z" id="Shape" fill="#4F5370"></path>
                        <polygon id="Shape" fill="#978EF0" points="5.05245114 2.84815884 10.0351331 0 27.8756927 10.3194585 22.9889434 13.2641155"></polygon>
                        <polygon id="Shape" fill="url(#linearGradient-3)" points="65.2051087 76.6166426 63.79519 79.7192058 58.4752903 80.5525993 54.5624024 78.2805054 55.9723211 75.1779422 61.2922208 74.3474729"></polygon>
                        <g id="Group" transform="translate(52.908292, 69.010830)">
                            <polygon id="Shape" fill="#A86523" points="7.80251947 0.125740072 8.33741649 0.701805054 9.42465281 3.93303249 8.88684875 3.35696751"></polygon>
                            <polygon id="Shape" fill="#E88C31" points="8.88684875 3.35696751 9.42465281 3.93303249 6.11352401 8.20527076 5.578627 7.62920578"></polygon>
                            <polygon id="Shape" fill="#995C20" points="5.578627 7.62920578 6.11352401 8.20527076 1.71806595 9.24628159 1.18316894 8.67021661"></polygon>
                            <polygon id="Shape" fill="#E89C51" points="7.80251947 0.125740072 8.88684875 3.35696751 5.578627 7.62920578 1.18316894 8.67021661 0.0959326165 5.43898917 3.40415436 1.1667509"></polygon>
                        </g>
                        <g id="Group" opacity="0.2" transform="translate(54.071111, 70.472924)" fill="#995C20">
                            <path d="M1.98842151,6.0501444 C1.49899178,6.07932258 1.01995305,5.89995069 0.668621266,5.55595668 C0.238378017,5.09685921 0.119189008,4.40382671 0.334310633,3.60552347 C0.885054504,1.88253417 2.27719953,0.565010062 4.02044875,0.116967509 C4.82570131,-0.0497111913 5.50595078,0.116967509 5.93619403,0.570216606 C6.80830872,1.49425993 6.32283154,3.36574007 4.8722141,4.7401083 C3.96230777,5.58519856 2.88088554,6.0501444 1.98842151,6.0501444 Z M4.60476559,0.330433213 C4.42507202,0.330987289 4.24588306,0.349599585 4.06986858,0.38599278 C2.43657473,0.81625923 1.13178251,2.05056743 0.604666189,3.66400722 C0.418615054,4.36288809 0.51454767,4.95942238 0.869207646,5.33956679 C1.62504038,6.1466426 3.32857109,5.77527076 4.64837133,4.51202166 C5.96817157,3.24877256 6.45655579,1.56444043 5.70072306,0.754440433 C5.41185797,0.468474215 5.01849364,0.315067537 4.61348674,0.330433213 L4.60476559,0.330433213 Z" id="Shape"></path>
                        </g>
                        <path d="M58.5014538,72.4058123 C58.5132692,72.3960076 58.530337,72.3960076 58.5421524,72.4058123 C58.5462987,72.4140891 58.5462987,72.4238531 58.5421524,72.43213 C58.5305593,72.4659203 58.5035135,72.4920373 58.4694762,72.5023105 L56.8735063,72.8795307 L57.2834002,73.2625993 C57.2979355,73.2801444 57.2834002,73.3152347 57.2601438,73.3415523 C57.2475276,73.3547061 57.2313578,73.3638552 57.2136311,73.36787 C57.2030268,73.3748119 57.1893507,73.3748119 57.1787465,73.36787 L56.6874552,72.9233935 C56.6874552,72.9233935 56.6874552,72.8883032 56.6874552,72.8649097 C56.6990888,72.8402727 56.7200176,72.8213257 56.7455962,72.8122744 L58.5014538,72.4058123 Z" id="Shape" fill="#FFFFFF"></path>
                        <path d="M57.9055087,71.6952347 C58.9229759,71.4583755 59.5043857,72.0783032 59.2136808,73.0783755 C58.8212078,74.1704462 57.934733,75.0089276 56.8269935,75.3358484 C55.8066194,75.578556 55.2281166,74.9527798 55.5188215,73.9527076 C55.9104856,72.8601022 56.7972885,72.0213104 57.9055087,71.6952347 Z M58.2340053,74.4322744 C58.6335642,74.0750737 58.9340738,73.6196365 59.10612,73.1105415 C59.2562271,72.7476962 59.199511,72.3315636 58.9578605,72.0227437 C58.6620828,71.7627224 58.2503432,71.6823449 57.8793453,71.8122022 C56.8402034,72.1172232 56.0090915,72.9043136 55.6438246,73.9293141 C55.4943502,74.2922417 55.5510209,74.7080414 55.7920841,75.0171119 C56.0878617,75.2771332 56.4996014,75.3575107 56.8705993,75.2276534 C57.386988,75.0843643 57.8583417,74.8105552 58.2398194,74.4322744 L58.2340053,74.4322744 Z" id="Shape" fill="#FFFFFF"></path>
                        <path d="M57.8764382,73.0637545 C57.888131,73.0569639 57.9025371,73.0569639 57.9142299,73.0637545 C57.9287651,73.0812996 57.9142299,73.1163899 57.8851594,73.1456318 L56.3967503,74.4849097 L57.9898131,74.1076895 C58.0058035,74.1030179 58.022847,74.1103653 58.0305118,74.1252347 C58.0333915,74.1337681 58.0333915,74.1430189 58.0305118,74.1515523 C58.0171658,74.1852404 57.9893781,74.2110418 57.9549286,74.2217329 L56.2106992,74.6340433 C56.1845357,74.6340433 56.1700005,74.6340433 56.1670934,74.6106498 C56.1668594,74.5852836 56.1787565,74.5613491 56.199071,74.5463177 L57.8153902,73.0842238 C57.8312096,73.0678047 57.853989,73.0601669 57.8764382,73.0637545 Z" id="Shape" fill="#FFFFFF"></path>
                        <g id="Group" transform="translate(0.000000, 50.003610)">
                            <polygon id="Shape" fill="#A86523" points="7.09610657 0.0438628159 7.58739785 0.573140794 8.59032975 3.5499639 8.09613142 3.01776173"></polygon>
                            <polygon id="Shape" fill="#E88C31" points="8.09613142 3.01776173 8.59032975 3.5499639 5.54374241 7.48299639 5.04954409 6.95371841"></polygon>
                            <polygon id="Shape" fill="#995C20" points="5.04954409 6.95371841 5.54374241 7.48299639 1.49422318 8.44212996 1.00002485 7.91285199"></polygon>
                            <polygon id="Shape" fill="#E89C51" points="7.09610657 0.0438628159 8.09613142 3.01776173 5.04954409 6.95371841 1.00002485 7.91285199 0 4.93602888 3.04658734 1.00299639"></polygon>
                        </g>
                        <g id="Group" opacity="0.2" transform="translate(1.162820, 51.173285)" fill="#995C20">
                            <path d="M1.65120382,5.68754513 C1.19514915,5.70993894 0.750830242,5.53795788 0.427336201,5.21382671 C0.0290704898,4.78981949 -0.0813973716,4.14649819 0.116281959,3.4066787 C0.352721953,2.61865237 0.799095003,1.91076212 1.40701171,1.35974729 C2.75006834,0.0906498195 4.49139068,-0.245631769 5.2937362,0.611155235 C6.09608172,1.46794224 5.65421027,3.19613718 4.31406069,4.46815884 C3.48845878,5.26353791 2.47680573,5.68754513 1.65120382,5.68754513 Z M4.06405448,0.42400722 C3.31694289,0.42400722 2.39250131,0.830469314 1.60469104,1.57613718 C1.03725444,2.09148949 0.620169214,2.75265069 0.398265711,3.48855596 C0.226749821,4.12602888 0.311054241,4.65823105 0.636643728,5.01790614 C1.32852139,5.75772563 2.88960669,5.41559567 4.12510251,4.25761733 C5.36059833,3.09963899 5.78502748,1.55274368 5.09314982,0.812924188 C4.8223605,0.54253819 4.4509563,0.39925646 4.06986858,0.418158845 L4.06405448,0.42400722 Z" id="Shape"></path>
                        </g>
                        <path d="M5.06117228,53.0564621 C5.07562752,53.0502592 5.09236649,53.0567352 5.09896392,53.071083 C5.10188279,53.0786045 5.10188279,53.0869551 5.09896392,53.0944765 C5.0876419,53.1261582 5.06155449,53.1502126 5.02919474,53.1588087 L3.56113501,53.5126354 L3.93614432,53.8664621 C3.95067957,53.8840072 3.93614432,53.9132491 3.91579498,53.9395668 C3.90470003,53.9510779 3.89058824,53.9591893 3.8750963,53.9629603 C3.86488357,53.9673489 3.85333149,53.9673489 3.84311876,53.9629603 L3.39543321,53.5418773 C3.39543321,53.5418773 3.39543321,53.5097112 3.39543321,53.4892419 C3.40494749,53.4658666 3.42401653,53.4477508 3.4477601,53.4395307 L5.06117228,53.0564621 Z" id="Shape" fill="#FFFFFF"></path>
                        <path d="M4.51174002,52.4043682 C5.4478098,52.1850542 5.98561386,52.7581949 5.71816535,53.6763899 C5.35700004,54.6822287 4.5406364,55.4545257 3.52043632,55.7554874 C2.5814595,55.9777256 2.04946953,55.4016606 2.31691804,54.4834657 C2.67587349,53.4772382 3.49168295,52.7044433 4.51174002,52.4043682 Z M4.80244492,54.9250181 C5.16824097,54.5934658 5.44432141,54.1738851 5.60479044,53.7056318 C5.74275171,53.3719963 5.69047959,52.9893907 5.46815914,52.7055596 C5.1963838,52.4665262 4.81833662,52.3918092 4.47685544,52.509639 C3.51978348,52.7917191 2.754034,53.5163539 2.41575771,54.4600722 C2.27732527,54.7940619 2.3308105,55.1773909 2.55529606,55.4601444 C2.82566668,55.7020415 3.20534171,55.7770802 3.54659976,55.656065 C4.02090326,55.5218614 4.4538592,55.2694073 4.80535197,54.9220939 L4.80244492,54.9250181 Z" id="Shape" fill="#FFFFFF"></path>
                        <path d="M4.48557658,53.661769 C4.49650923,53.6560475 4.50952853,53.6560475 4.52046117,53.661769 C4.52046117,53.6763899 4.52046117,53.708556 4.49720478,53.7348736 L3.13379881,54.9747292 L4.60185854,54.6296751 C4.61631378,54.6234722 4.63305275,54.6299482 4.63965018,54.644296 C4.64256905,54.6518175 4.64256905,54.6601681 4.63965018,54.6676895 C4.62832816,54.6993712 4.60224075,54.7234256 4.569881,54.7320217 L2.96809701,55.1121661 C2.94484062,55.1121661 2.93030538,55.1121661 2.93030538,55.0916968 C2.93068529,55.0679557 2.94129224,55.0455498 2.95937587,55.0302888 L4.4448779,53.6910108 C4.45629281,53.678543 4.47014972,53.6685869 4.48557658,53.661769 Z" id="Shape" fill="#FFFFFF"></path>
                        <path d="M20.477253,36.2131408 C21.5906716,36.9408128 22.2908636,38.1603299 22.3610208,39.4940794 C22.3610208,40.6988448 21.5092554,41.1842599 20.4656249,40.5789531 C19.3534097,39.8518987 18.6542421,38.6333707 18.5847642,37.3009386 C18.5876712,36.0961733 19.4336225,35.6078339 20.477253,36.2131408 Z" id="Shape" fill="#8276F0"></path>
                        <path d="M20.477253,36.7073285 C21.3370726,37.2712126 21.877232,38.2144577 21.9307775,39.2455235 C21.9307775,40.1783394 21.2708774,40.5526354 20.477253,40.0847653 C19.6164661,39.5231657 19.0758463,38.5802043 19.0237286,37.5494946 C19.0121004,36.6166787 19.6690934,36.2394585 20.477253,36.7073285 Z" id="Shape" fill="#66FFBA"></path>
                        <path d="M19.939449,37.3594224 C20.265921,37.5833046 20.4426503,37.9703508 20.3987627,38.365343 C20.3987627,38.926787 20.2039904,38.9940433 19.8929362,38.8127437 C19.7677659,38.7346269 19.6482756,38.6476567 19.5353692,38.552491 L19.5557185,38.3741155 C19.6633285,38.4570839 19.7759506,38.5332591 19.8929362,38.6022022 C20.0877085,38.7162455 20.1836411,38.6226715 20.1836411,38.3565704 C20.0893034,38.3387848 19.9975177,38.3093188 19.9103785,38.2688448 C19.6523636,38.1373217 19.4911378,37.869674 19.4946705,37.5787365 C19.4975775,37.2833935 19.6661864,37.2015162 19.939449,37.3594224 Z M19.939449,38.0670758 C20.0197601,38.1116961 20.1073997,38.1414117 20.1981763,38.1548014 C20.2257753,37.9294245 20.1315422,37.7063923 19.9510772,37.5699639 C19.8086318,37.4880866 19.7243274,37.540722 19.7243274,37.7044765 C19.7210545,37.8568173 19.8046048,37.9976457 19.939449,38.0670758 Z" id="Shape" fill="#8276F0"></path>
                        <path d="M20.9888937,37.9705776 C21.3148886,38.1935082 21.4916359,38.5794685 21.4482074,38.973574 C21.4482074,39.5350181 21.2534351,39.6022744 20.9423809,39.4209747 C20.8172106,39.3428579 20.6977203,39.2558877 20.5848139,39.160722 L20.6051632,38.9852708 C20.6051632,38.9852708 20.7854002,39.1197834 20.9423809,39.2133574 C21.0993615,39.3069314 21.2330858,39.2338267 21.2330858,38.9648014 C21.1380045,38.950086 21.0458003,38.9204856 20.9598232,38.8770758 C20.702269,38.7465495 20.5410039,38.4799709 20.5441152,38.1898917 C20.5470222,37.8916245 20.7156311,37.8126715 20.9888937,37.9705776 Z M20.9888937,38.6753069 C21.069047,38.7202865 21.1567537,38.7500249 21.247621,38.7630325 C21.2728098,38.5380028 21.1790656,38.3161278 21.0005219,38.1781949 C20.8580765,38.0963177 20.770865,38.1489531 20.770865,38.3127076 C20.7674246,38.465894 20.8524185,38.6072457 20.9888937,38.6753069 Z" id="Shape" fill="#8276F0"></path>
                    </g>
                    <g id="winner" transform="translate(78.500000, 28.000000) scale(-1, 1) translate(-78.500000, -28.000000) translate(63.000000, 0.000000)">
                        <polygon id="Shape" fill="#A6CDF0" points="0.104954128 53.5590888 0 16.1649485 3.59229358 18.3171999 3.69724771 55.7113402"></polygon>
                        <polygon id="Shape" fill="#A6CDF0" points="0 16.0251986 27.341796 0 31 2.16036842 3.65820404 18.185567"></polygon>
                        <polygon id="Shape" fill="#619DC5" points="30.7155963 40.022166 21.6501161 45.3431929 16.9240822 53.6788127 12.1690542 50.9150261 3.51915564 56 3.41284404 18.5757721 30.6092847 2.59793814"></polygon>
                        <path d="M21.9633003,28 C24.6404159,28.3192777 26.4397886,30.6819327 26.4495413,34.5623849 L7.96330275,45.3195876 C7.96330275,41.4342235 9.72854104,36.9987194 12.4007802,33.565256 C12.5698485,33.8365594 12.7676896,34.0885493 12.9908184,34.3167866 C14.1416368,35.4465385 15.6289232,35.5742496 17.1747258,34.6753601 C18.7205283,33.7764705 20.2078147,31.9197479 21.344004,29.4588535 C21.5829451,28.9823929 21.7682464,28.4911965 21.9633003,28 Z" id="Shape" fill="#FFFFFF"></path>
                        <path d="M17.3340391,21.127704 C19.8474677,19.6570478 21.8893246,20.8384749 21.8990477,23.7503742 C21.9087709,26.6622735 19.8814987,31.5840697 17.3680701,33.0547259 C14.8546415,34.5253821 12.807923,31.9811469 12.7981999,29.0692476 C12.7884768,26.1573482 14.8206105,22.5885558 17.3340391,21.127704 Z" id="Shape" fill="#FFFFFF"></path>
                    </g>
                </g>
            </g>
        </g>
    </g>
</svg>