<?xml version="1.0" encoding="UTF-8"?>
<svg width="144px" height="123px" viewBox="0 0 144 123" version="1.1" xmlns="http://www.w3.org/2000/svg" xmlns:xlink="http://www.w3.org/1999/xlink">
    <!-- Generator: Sketch 51.3 (57544) - http://www.bohemiancoding.com/sketch -->
    <title>Group 11</title>
    <desc>Created with Sketch.</desc>
    <defs>
        <linearGradient x1="14.9472464%" y1="28.161673%" x2="85.053111%" y2="71.8731297%" id="linearGradient-1">
            <stop stop-color="#9DCFF2" stop-opacity="0" offset="0%"></stop>
            <stop stop-color="#9DCFF2" offset="50%"></stop>
            <stop stop-color="#9DCFF2" stop-opacity="0" offset="100%"></stop>
        </linearGradient>
        <linearGradient x1="43.1700378%" y1="63.9402254%" x2="56.8243839%" y2="36.0690283%" id="linearGradient-2">
            <stop stop-color="#9DCFF2" stop-opacity="0" offset="9%"></stop>
            <stop stop-color="#9DCFF2" offset="50%"></stop>
            <stop stop-color="#9DCFF2" stop-opacity="0" offset="100%"></stop>
        </linearGradient>
        <linearGradient x1="-3.34175606%" y1="16.7135314%" x2="103.349284%" y2="83.2612669%" id="linearGradient-3">
            <stop stop-color="#9DCFF2" stop-opacity="0" offset="0%"></stop>
            <stop stop-color="#9DCFF2" offset="50%"></stop>
            <stop stop-color="#9DCFF2" stop-opacity="0" offset="100%"></stop>
        </linearGradient>
        <linearGradient x1="0.006114674%" y1="50.008631%" x2="100.006378%" y2="50.008631%" id="linearGradient-4">
            <stop stop-color="#9DCFF2" stop-opacity="0" offset="0%"></stop>
            <stop stop-color="#9DCFF2" offset="50%"></stop>
            <stop stop-color="#9DCFF2" stop-opacity="0" offset="89%"></stop>
        </linearGradient>
        <linearGradient x1="0%" y1="50%" x2="99.9926025%" y2="50%" id="linearGradient-5">
            <stop stop-color="#9DCFF2" stop-opacity="0" offset="9%"></stop>
            <stop stop-color="#9DCFF2" offset="50%"></stop>
            <stop stop-color="#9DCFF2" stop-opacity="0" offset="100%"></stop>
        </linearGradient>
        <linearGradient x1="0%" y1="50.1557632%" x2="100%" y2="50.1557632%" id="linearGradient-6">
            <stop stop-color="#9DCFF2" stop-opacity="0" offset="9%"></stop>
            <stop stop-color="#9DCFF2" offset="50%"></stop>
            <stop stop-color="#9DCFF2" stop-opacity="0" offset="100%"></stop>
        </linearGradient>
    </defs>
    <g id="Page-1" stroke="none" stroke-width="1" fill="none" fill-rule="evenodd">
        <g id="Profile-Copy-2" transform="translate(-1198.000000, -506.000000)" fill-rule="nonzero">
            <g id="TOP-EXPLAINER" transform="translate(565.000000, 152.000000)">
                <g id="Group-11" transform="translate(633.000000, 354.000000)">
                    <g id="Group-27" transform="translate(57.000000, 0.000000)">
                        <polygon id="Shape" fill="#E89C51" points="0.0896713898 43.2674234 0 13.1648936 3.06920711 14.8974702 3.1588785 45"></polygon>
                        <polygon id="Shape" fill="#E89C51" points="0 12.8665192 22.9318289 0 26 1.7345446 3.06817113 14.6010638"></polygon>
                        <polygon id="Shape" fill="#E18830" points="25.7570093 32.108987 18.1729485 36.4020236 14.219211 43.127252 10.2412174 40.8974123 3.00482673 45 2.91588785 14.8059067 25.6680705 1.91489362"></polygon>
                        <path d="M18.1541132,22.5 C20.3710263,22.7559256 21.8610827,24.6497749 21.8691589,27.7602551 L6.56074766,36.3829787 C6.56074766,33.2685612 8.02253739,29.7131642 10.2354125,26.9609798 C10.3754175,27.1784503 10.5392493,27.3804395 10.7240217,27.5633893 C11.6770117,28.4689721 12.9086301,28.5713424 14.1887057,27.8508134 C15.4687812,27.1302845 16.7003996,25.6419787 17.6412753,23.6693831 C17.8391419,23.2874633 17.9925894,22.8937317 18.1541132,22.5 Z" id="Shape" fill="#FFFFFF"></path>
                        <path d="M14.4458723,17.2684348 C16.5262043,16.076041 18.2162225,17.0339307 18.2242702,19.3948703 C18.2323179,21.7558099 16.5543713,25.7463544 14.4740393,26.9387481 C12.3937073,28.1311419 10.6996653,26.0683007 10.6916175,23.707361 C10.6835698,21.3464214 12.3655404,18.4528792 14.4458723,17.2684348 Z" id="Shape" fill="#FFFFFF"></path>
                    </g>
                    <g id="block" transform="translate(3.000000, 29.000000)">
                        <g id="task_3_who-makes-up-guilds">
                            <path d="M9.92533821,41.608 C9.76134524,41.6081842 9.61771763,41.4971057 9.5752867,41.3372778 C9.53285578,41.1774498 9.60222358,41.0088078 9.74435101,40.9262609 L57.7952468,12.9262609 C57.9685047,12.8254089 58.1899887,12.8853638 58.2899451,13.0601739 C58.3899016,13.234984 58.3304791,13.4584523 58.1572212,13.5593043 L10.1063254,41.5593043 C10.0513646,41.5914934 9.98888673,41.6083035 9.92533821,41.608 Z" id="Shape" fill="url(#linearGradient-1)"></path>
                            <path d="M57.976234,83.797913 C57.9126855,83.7982165 57.8502076,83.7814065 57.7952468,83.7492174 L9.74435101,55.7565217 C9.57109313,55.6556697 9.51167059,55.4322014 9.61162706,55.2573913 C9.71158353,55.0825812 9.93306753,55.0226263 10.1063254,55.1234783 L58.1572212,83.1186087 C58.3008734,83.1997402 58.3715664,83.3689427 58.3288291,83.5293495 C58.2860919,83.6897563 58.1408422,83.8003896 57.976234,83.797913 Z" id="Shape" fill="url(#linearGradient-2)"></path>
                            <path d="M131.584936,41.608 C131.521357,41.6085425 131.458818,41.5917159 131.403949,41.5593043 L83.3506399,13.5593043 C83.1854201,13.4581741 83.1271805,13.2444963 83.2179159,13.0723478 C83.3173529,12.9045891 83.5300754,12.8455663 83.7005484,12.9384348 L131.758684,40.9262609 C131.900811,41.0088078 131.970179,41.1774498 131.927748,41.3372778 C131.885317,41.4971057 131.741689,41.6081842 131.577697,41.608 L131.584936,41.608 Z" id="Shape" fill="url(#linearGradient-3)"></path>
                            <path d="M83.5316271,83.797913 C83.3670188,83.8003896 83.2217691,83.6897563 83.1790319,83.5293495 C83.1362947,83.3689427 83.2069877,83.1997402 83.3506399,83.1186087 L131.403949,55.1186087 C131.516889,55.0546737 131.655056,55.0563881 131.766404,55.1231061 C131.877752,55.189824 131.945364,55.3114096 131.943772,55.4420626 C131.942179,55.5727156 131.871624,55.6925867 131.758684,55.7565217 L83.7126143,83.7565217 C83.6571629,83.7867343 83.5945703,83.801049 83.5316271,83.797913 Z" id="Shape" fill="url(#linearGradient-4)"></path>
                            <ellipse id="Oval" fill="#9ED0F2" cx="37.1361609" cy="71.2904348" rx="1.69162706" ry="1.18573913"></ellipse>
                            <path d="M98.4425594,51.2010435 C98.2426465,51.2010435 98.080585,51.0375301 98.080585,50.8358261 C98.080585,50.6341221 98.2426465,50.4706087 98.4425594,50.4706087 L130.339744,50.3196522 C130.539657,50.3196522 130.701718,50.4831656 130.701718,50.6848696 C130.701718,50.8865736 130.539657,51.050087 130.339744,51.050087 L98.4570384,51.2010435 L98.4425594,51.2010435 Z" id="Shape" fill="url(#linearGradient-5)"></path>
                            <path d="M40.3553199,51.1304348 L9.37755027,51.0793043 C9.17763733,51.0793043 9.01557587,50.915791 9.01557587,50.714087 C9.01557587,50.512383 9.17763733,50.3488696 9.37755027,50.3488696 L40.3553199,50.4 C40.5552329,50.4 40.7172943,50.5635134 40.7172943,50.7652174 C40.7172943,50.9669214 40.5552329,51.1304348 40.3553199,51.1304348 Z" id="Shape" fill="url(#linearGradient-6)"></path>
                            <g id="Group" opacity="0.1" transform="translate(40.299817, 38.469565)" fill="#5D6285">
                                <polygon id="Shape" points="0.0555027422 16.9728696 29.0375868 33.8556522 58.0196709 16.9728696 29.0375868 0.0900869565"></polygon>
                            </g>
                            <polygon id="Shape" fill="#9694FF" points="40.3553199 16.9996522 40.3553199 50.7652174 69.337404 67.648 69.337404 33.8824348"></polygon>
                            <polygon id="Shape" fill="#6B67F5" points="98.3194881 16.9996522 69.337404 33.8824348 69.337404 67.648 98.4425594 50.8358261"></polygon>
                            <polygon id="Shape" fill="#B9B8FF" points="40.3553199 16.9996522 69.337404 33.8824348 98.3194881 16.9996522 69.337404 0.116869565"></polygon>
                            <path d="M77.8582815,17.7130435 C77.9010554,17.7279264 77.9361238,17.7595007 77.9556293,17.800692 C77.9751349,17.8418833 77.9774469,17.8892481 77.9620475,17.9321739 C77.9433555,17.9795377 77.9056515,18.0166948 77.8582815,18.0344348 C77.6840608,18.1245873 77.4774749,18.1245873 77.3032541,18.0344348 L69.4990859,13.4789565 L69.6969653,16.5808696 C69.6969653,16.709913 69.5376965,16.8097391 69.3205119,16.8097391 C69.219399,16.8133936 69.1192323,16.7889698 69.0309324,16.7391304 C68.9688607,16.7133869 68.9242186,16.6573141 68.9126874,16.5906087 L68.6713711,12.9067826 C68.6713711,12.8166957 68.7606581,12.7266087 68.9126874,12.6973913 C69.0501326,12.6439216 69.202372,12.6439216 69.3398172,12.6973913 L77.8582815,17.7130435 Z" id="Shape" fill="#9694FF"></path>
                            <path d="M78.1285558,12.5975652 C83.0996709,15.5071304 83.0996709,20.2208696 78.1864717,23.1304348 C73.2732724,26.04 65.1553931,26.04 60.1601463,23.1304348 C55.1648995,20.2208696 55.1866179,15.5071304 60.0998172,12.5975652 C65.0130165,9.688 73.1357221,9.688 78.1285558,12.5975652 Z M69.1781353,24.8566957 C72.1171342,24.9269441 75.0249554,24.2362266 77.6242048,22.8504348 C79.9504936,21.4845217 81.113638,19.6852174 81.1039854,17.9029565 C81.0943327,16.1206957 79.9191225,14.3213913 77.5735283,12.957913 C72.2623348,10.2332973 65.9805171,10.2332973 60.6693236,12.957913 C58.3430347,14.3213913 57.1798903,16.1085217 57.189543,17.9029565 C57.1991956,19.6973913 58.3719927,21.4845217 60.72,22.8504348 C63.3283577,24.235077 66.2436432,24.9255946 69.1902011,24.8566957 L69.1781353,24.8566957 Z" id="Shape" fill="#9694FF"></path>
                            <path d="M72.8775137,17.9833043 C72.9470073,18.0113439 72.9934331,18.0782607 72.9957587,18.1537391 C72.9957587,18.2852174 72.807532,18.3753043 72.5903473,18.3753043 L61.6514808,18.1147826 L69.4580622,22.6702609 C69.5449616,22.7022998 69.5901475,22.7989086 69.559415,22.8869565 C69.5426605,22.9352744 69.5055435,22.9736155 69.4580622,22.9916522 C69.2829974,23.0818346 69.0756863,23.0818346 68.9006216,22.9916522 L60.3869835,18.0173913 C60.2687386,17.9467826 60.2397806,17.8469565 60.2976965,17.773913 C60.3974532,17.6732243 60.5358862,17.6216253 60.6765631,17.6326957 L72.6096527,17.9248696 C72.7023862,17.9213467 72.7945058,17.9414429 72.8775137,17.9833043 Z" id="Shape" fill="#9694FF"></path>
                            <path d="M77.8582815,16.9071304 C77.9008816,16.921484 77.9359282,16.9525923 77.9554667,16.9933946 C77.9750051,17.034197 77.9773783,17.0812327 77.9620475,17.1238261 C77.9441977,17.1722912 77.9063163,17.2105119 77.8582815,17.2285217 C77.6840608,17.3186743 77.4774749,17.3186743 77.3032541,17.2285217 L69.4990859,12.6730435 L69.6969653,15.7725217 C69.6969653,15.904 69.5376965,16.0038261 69.3205119,16.0038261 C69.2195223,16.0062836 69.1196644,15.9819351 69.0309324,15.9332174 C68.9685006,15.9066441 68.9238862,15.8496875 68.9126874,15.7822609 L68.6713711,12.1008696 C68.6713711,12.0107826 68.7606581,11.9206957 68.9126874,11.8914783 C69.0501326,11.8380085 69.202372,11.8380085 69.3398172,11.8914783 L77.8582815,16.9071304 Z" id="Shape" fill="#FFFFFF"></path>
                            <path d="M78.1285558,11.7892174 C83.0996709,14.7109565 83.0996709,19.4149565 78.1864717,22.3245217 C73.2732724,25.234087 65.1553931,25.234087 60.1601463,22.3245217 C55.1648995,19.4149565 55.1866179,14.6987826 60.0998172,11.7892174 C65.0130165,8.87965217 73.1357221,8.87965217 78.1285558,11.7892174 Z M69.1781353,24.0507826 C72.1170109,24.1198373 75.024538,23.4291896 77.6242048,22.0445217 C79.9504936,20.6786087 81.113638,18.8793043 81.1039854,17.0970435 C81.0943327,15.3147826 79.9191225,13.5154783 77.5735283,12.152 C72.2628992,9.42500898 65.9799527,9.42500898 60.6693236,12.152 C58.3430347,13.5154783 57.1798903,15.3026087 57.189543,17.0970435 C57.1991956,18.8914783 58.3719927,20.6786087 60.72,22.0445217 C63.3287699,23.4280501 66.2437653,24.118499 69.1902011,24.0507826 L69.1781353,24.0507826 Z" id="Shape" fill="#FFFFFF"></path>
                            <path d="M72.8775137,17.1773913 C72.9470073,17.2054309 72.9934331,17.2723477 72.9957587,17.3478261 C72.9957587,17.4793043 72.807532,17.5693913 72.5903473,17.5693913 L61.6514808,17.3088696 L69.4580622,21.861913 C69.5452844,21.894996 69.5903105,21.9923451 69.559415,22.0810435 C69.5423495,22.1286194 69.5052157,22.1660859 69.4580622,22.1833043 C69.2835922,22.2759481 69.0750916,22.2759481 68.9006216,22.1833043 L60.3773309,17.2187826 C60.2590859,17.1481739 60.230128,17.0483478 60.2880439,16.9753043 C60.3878006,16.8746156 60.5262335,16.8230166 60.6669104,16.834087 L72.6,17.1238261 C72.6955355,17.117228 72.7911378,17.135681 72.8775137,17.1773913 Z" id="Shape" fill="#FFFFFF"></path>
                            <g id="Group" transform="translate(0.000000, 18.747826)" fill="#CB8CFF">
                                <path d="M0.176160878,0.0876521739 L0.207186519,0.0730434783 L0.207186519,0.389565217 C0.207672202,0.288316219 0.197285901,0.187246271 0.176160878,0.0876521739 Z" id="Shape"></path>
                                <polygon id="Shape" points="0.181863779 0.0965217391 0.1423766 0.116521739 0.21288942 0.0365217391 0.21288942 0.079378882"></polygon>
                            </g>
                            <path d="M75.9760146,35.9276522 C77.1005484,35.2702609 77.7303839,35.6233043 77.7376234,37.7488696 C77.7376234,39.7989565 77.1029616,40.8507826 75.9904936,41.4984348 C74.8780256,42.146087 74.2264717,41.853913 74.2216453,39.794087 C74.2144059,37.6806957 74.853894,36.5801739 75.9760146,35.9276522 Z M75.9953199,40.7022609 C76.6299817,40.3321739 76.9292139,39.6991304 76.9268007,38.2212174 C76.9268007,36.6361739 76.6323949,36.3391304 75.9760146,36.7213913 C75.3196344,37.1036522 75.0276417,37.7318261 75.0300548,39.3241739 C75.0300548,40.8045217 75.3534186,41.0747826 75.9953199,40.7022609 Z" id="Shape" fill="#FFFFFF"></path>
                            <polygon id="Shape" fill="#FFFFFF" points="81.8279342 32.402087 80.4065814 36.0786087 81.8448263 37.9972174 80.9712614 38.506087 79.9311883 37.0013913 78.8790494 39.725913 78.0537477 40.2055652 79.4847532 36.6653913 78.0392687 34.6104348 78.9200731 34.0966957 79.9601463 35.6987826 81.0050457 32.8817391"></polygon>
                            <path d="M84.9650457,33.3833043 C85.3945887,33.4514783 85.6576234,33.5926957 85.6600366,34.3109565 C85.6600366,35.469913 84.8685192,36.3269565 83.8960146,36.8942609 C82.9235101,37.4615652 82.1464717,37.5784348 82.1440585,36.4486957 C82.1440585,35.6646957 82.4022669,35.2118261 82.8173309,34.6347826 C82.3781353,34.5544348 82.2140402,34.3450435 82.2140402,33.7241739 C82.2140402,32.794087 82.8655941,31.9126957 83.8791225,31.3234783 C84.8926508,30.7342609 85.5683364,30.8365217 85.5828154,31.7714783 C85.5828154,32.4410435 85.4259598,32.781913 84.9650457,33.3833043 Z M83.8936015,36.0761739 C84.465521,35.7450435 84.8226691,35.2994783 84.8202559,34.6786087 C84.8202559,34.2525217 84.5789397,34.1673043 84.2266179,34.2476522 L83.5509324,34.6396522 C83.2101682,34.9160523 83.002891,35.3263454 82.981426,35.7669565 C82.981426,36.3707826 83.3361609,36.4024348 83.8936015,36.0761739 Z M83.8936015,32.1342609 C83.3651188,32.4434783 83.056234,32.8646957 83.056234,33.376 C83.056234,33.7436522 83.2275686,33.8629565 83.5533455,33.8629565 L84.2290311,33.4709565 C84.5596344,33.0984348 84.7502742,32.7575652 84.7478611,32.389913 C84.7478611,31.8834783 84.4365631,31.8201739 83.8936015,32.1464348 L83.8936015,32.1342609 Z" id="Shape" fill="#FFFFFF"></path>
                            <path d="M87.6919196,29.1029565 C88.8623035,28.4212174 89.2628885,28.6525217 89.2677148,29.6313043 C89.2422511,30.2100327 89.0275675,30.7639644 88.6571846,31.2066087 C89.0794881,31.1895652 89.3642413,31.2358261 89.3666545,32.0222609 C89.3666545,33.1398261 88.9178062,33.970087 87.8198172,34.608 C87.3384408,34.8781799 86.8274017,35.0906372 86.2971115,35.2410435 L86.3453748,34.5106087 C86.8152266,34.333185 87.2717072,34.1216157 87.7112249,33.8775652 C88.2831444,33.5366957 88.558245,33.1057391 88.5558318,32.5189565 C88.5558318,31.9711304 88.2155759,31.9151304 87.757075,32.1732174 L86.8207678,32.7186087 L86.8207678,31.9589565 L87.757075,31.4135652 C88.1657512,31.124164 88.4236437,30.6645616 88.4593053,30.162087 C88.4593053,29.6751304 88.217989,29.5923478 87.6460695,29.9186087 C87.2116067,30.1834685 86.7955751,30.4779505 86.4008775,30.8 L86.333309,30.149913 C86.7471907,29.7522279 87.2027434,29.4011752 87.6919196,29.1029565 Z" id="Shape" fill="#FFFFFF"></path>
                            <polygon id="Shape" fill="#FFFFFF" points="92.6654479 26.2932174 92.6799269 31.6862609 91.8980622 32.1415652 91.8859963 27.7784348 90.79766 29.232 90.4356856 28.7645217 91.9463254 26.712"></polygon>
                            <path d="M75.9977331,43.938087 C77.1246801,43.2806957 77.7545155,43.6337391 77.7593419,45.7593043 C77.7593419,47.8069565 77.1246801,48.8612174 76.0122121,49.5088696 C74.8997441,50.1565217 74.2481901,49.8643478 74.2433638,47.8045217 C74.2385375,45.6911304 74.8756124,44.5906087 75.9977331,43.938087 Z M76.0170384,48.7126957 C76.6517002,48.3426087 76.9533455,47.7095652 76.9485192,46.2316522 C76.9485192,44.6466087 76.6541133,44.3471304 76.0001463,44.7293913 C75.3461792,45.1116522 75.0493601,45.7422609 75.0541865,47.3346087 C75.0541865,48.8125217 75.3751371,49.0876522 76.0194516,48.7126957 L76.0170384,48.7126957 Z" id="Shape" fill="#FFFFFF"></path>
                            <polygon id="Shape" fill="#FFFFFF" points="81.8520658 40.4125217 80.4282998 44.0890435 81.8665448 46.0076522 80.9929799 46.5189565 79.9529068 45.0118261 78.9007678 47.7363478 78.0778793 48.216 79.5064717 44.6758261 78.0609872 42.6208696 78.9417916 42.1071304 79.9818647 43.7116522 81.0267642 40.8921739"></polygon>
                            <polygon id="Shape" fill="#FFFFFF" points="85.3897623 38.5572174 85.3921755 39.6358261 83.693309 45.0337391 82.9597075 45.2187826 84.6030713 40.0789565 84.6006581 39.8330435 82.4601828 41.082087 82.4577697 40.264"></polygon>
                            <path d="M87.7643144,37.0841739 C88.7923218,36.4852174 89.2653016,36.6994783 89.2677148,37.7123478 C89.2677148,38.528 88.9757221,39.1732174 88.2590128,40.3711304 L87.2696161,42.0754783 L89.3690676,40.858087 L89.3690676,41.6347826 L86.3743327,43.3805217 L86.3743327,42.6086957 L87.520585,40.565913 C88.1166362,39.5067826 88.4593053,38.8615652 88.4568921,38.3015652 C88.4568921,37.688 88.1817916,37.653913 87.5809141,38.002087 C87.1844908,38.2475574 86.8040424,38.5183716 86.4419013,38.8128696 L86.3888117,38.1238261 C86.8134814,37.7339059 87.2740713,37.3857763 87.7643144,37.0841739 Z" id="Shape" fill="#FFFFFF"></path>
                            <polygon id="Shape" fill="#FFFFFF" points="92.2093601 34.5836522 90.9231444 38.9735652 92.2190128 38.2187826 92.2141865 36.6337391 93.0032907 36.176 93.008117 37.7586087 93.5172943 37.464 93.5197075 38.2553043 93.0105302 38.549913 93.0129433 39.5165217 92.2238391 39.9742609 92.221426 39.010087 90.1292139 40.229913 90.1268007 39.536 91.3430347 35.0876522"></polygon>
                            <path d="M76.0146252,51.9485217 C77.1415722,51.2911304 77.7714077,51.6441739 77.7786472,53.7673043 C77.7786472,55.8198261 77.1415722,56.8716522 76.0315174,57.5193043 C74.9214625,58.1669565 74.2674954,57.8747826 74.2602559,55.8149565 C74.2602559,53.7015652 74.8997441,52.5913043 76.0146252,51.9485217 Z M76.0387569,56.7304348 C76.6734186,56.3603478 76.975064,55.7273043 76.9702377,54.2469565 C76.9702377,52.6643478 76.6758318,52.3673043 76.0218647,52.7471304 C75.3678976,53.1269565 75.0710786,53.7575652 75.0759049,55.3523478 C75.0759049,56.8302609 75.3992687,57.1029565 76.04117,56.7304348 L76.0387569,56.7304348 Z" id="Shape" fill="#FFFFFF"></path>
                            <polygon id="Shape" fill="#FFFFFF" points="81.8737843 48.4229565 80.4524314 52.0994783 81.8906764 54.0205217 81.0171115 54.5293913 79.9746252 53.0222609 78.9248995 55.7467826 78.0995978 56.2288696 79.5281901 52.6838261 78.0827057 50.6313043 78.9635101 50.1175652 80.0059963 51.722087 81.0484826 48.9050435"></polygon>
                            <path d="M85.0108958,49.4017391 C85.4404388,49.4723478 85.7034735,49.6135652 85.7058867,50.3318261 C85.7058867,51.4932174 84.9119561,52.3478261 83.9394516,52.9151304 C82.966947,53.4824348 82.1923218,53.5968696 82.1899086,52.4695652 C82.1899086,51.6855652 82.4457038,51.2302609 82.8607678,50.6532174 C82.4239854,50.5728696 82.2598903,50.365913 82.2574771,49.7450435 C82.2574771,48.8149565 82.9114442,47.9335652 83.9249726,47.341913 C84.9385009,46.7502609 85.6141865,46.8549565 85.6262523,47.7923478 C85.6286654,48.4521739 85.4669835,48.8027826 85.0108958,49.4017391 Z M83.9370384,52.1043478 C84.508958,51.7707826 84.866106,51.3252174 84.866106,50.7043478 C84.866106,50.2806957 84.6247898,50.1954783 84.2700548,50.2733913 L83.5967824,50.6678261 C83.2548952,50.9422433 83.047255,51.3523672 83.0272761,51.7926957 C83.0272761,52.3965217 83.382011,52.4281739 83.9370384,52.1043478 Z M83.9370384,48.1624348 C83.4085558,48.4716522 83.0972578,48.8928696 83.0996709,49.4041739 C83.0996709,49.7718261 83.2710055,49.8911304 83.5967824,49.8911304 L84.2700548,49.4991304 C84.6030713,49.1241739 84.7937112,48.7857391 84.791298,48.418087 C84.791298,47.9116522 84.4775868,47.845913 83.9370384,48.1624348 Z" id="Shape" fill="#FFFFFF"></path>
                            <path d="M88.0321755,47.0132174 C89.0674223,46.4118261 89.6103839,46.6333913 89.6152102,47.8093913 C89.6200366,48.9853913 88.9926143,49.9714783 87.950128,50.5777391 C86.7435466,51.2813913 86.2126508,50.533913 86.2078245,48.8027826 C86.2078245,46.794087 86.9317733,45.5913043 88.0900914,44.9071304 C88.5195024,44.6689382 88.9703777,44.4724606 89.4366362,44.3203478 L89.3666545,45.0726957 C88.9296205,45.2556339 88.5041066,45.4654182 88.0925046,45.7008696 C87.3685558,46.1147826 87.0210603,46.9036522 87.016234,47.8483478 C87.3289484,47.5393139 87.6690109,47.2597736 88.0321755,47.0132174 Z M87.9477148,49.7864348 C88.4897595,49.4860433 88.8202815,48.9055007 88.8043876,48.2817391 C88.8043876,47.6681739 88.4930896,47.5513043 87.9646069,47.8556522 C87.6183614,48.0794085 87.2999634,48.3442563 87.016234,48.6445217 C87.016234,49.5892174 87.2575503,50.1833043 87.950128,49.7864348 L87.9477148,49.7864348 Z" id="Shape" fill="#FFFFFF"></path>
                            <path d="M91.9776965,44.7147826 C93.0129433,44.1133913 93.5559049,44.3349565 93.5607313,45.5109565 C93.5655576,46.6869565 92.9381353,47.6730435 91.895649,48.2793043 C90.6890676,48.9829565 90.1581718,48.2354783 90.1533455,46.5043478 C90.1533455,44.4956522 90.8772943,43.2928696 92.0356124,42.6086957 C92.4652452,42.3709609 92.9160767,42.1745024 93.3821572,42.021913 L93.3121755,42.7742609 C92.8751415,42.9571991 92.4496276,43.1669835 92.0380256,43.4024348 C91.3261426,43.8163478 90.9665814,44.6052174 90.961755,45.549913 C91.2744694,45.2408791 91.6145319,44.9613389 91.9776965,44.7147826 Z M91.8932358,47.4782609 C92.4348812,47.1774589 92.7652499,46.5971856 92.7499086,45.9735652 C92.7499086,45.36 92.4361974,45.2431304 91.9077148,45.5474783 C91.5614693,45.7712346 91.2430713,46.0360824 90.9593419,46.3363478 C90.9593419,47.2810435 91.2006581,47.8751304 91.8932358,47.4782609 Z" id="Shape" fill="#FFFFFF"></path>
                            <path d="M71.1352102,60.5116522 C71.2582815,60.4410435 71.3596344,60.5116522 71.3596344,60.6406957 C71.3522185,60.7984249 71.2694604,60.9427339 71.1376234,61.0278261 L70.7056673,61.285913 C70.582596,61.3565217 70.4836563,61.3005217 70.4812431,61.1593043 C70.4886591,61.0015751 70.5714171,60.8572661 70.7032541,60.7721739 L71.1352102,60.5116522 Z" id="Shape" fill="#6B67F5"></path>
                        </g>
                    </g>
                    <g id="Group-28" transform="translate(0.000000, 29.000000)">
                        <polygon id="Shape" fill="#D5D9FE" points="3.390625 47.7810526 0.09625 45.9368421 0 13.8947368 3.294375 15.7389474"></polygon>
                        <polygon id="Shape" fill="#E7E9FE" points="3.294375 15.5242105 0 13.68 24.6225 0 27.916875 1.84421053"></polygon>
                        <polygon id="Shape" fill="#98A2FE" points="27.78125 34.1473684 19.57375 38.7031579 15.295 45.84 10.99 43.4736842 3.15875 47.8273684 3.0625 15.7852632 27.685 2.10526316"></polygon>
                        <path d="M19.560625,24 C21.9625,24.2736842 23.576875,26.2989474 23.585625,29.6252632 L7,38.8463158 C7,35.5157895 8.58375,31.7136842 10.98125,28.7705263 C11.132936,29.003087 11.3104366,29.2190922 11.510625,29.4147368 C12.543125,30.3831579 13.8775,30.4926316 15.264375,29.7221053 C16.65125,28.9515789 17.985625,27.36 19.005,25.2505263 C19.219375,24.8421053 19.385625,24.4210526 19.560625,24 Z" id="Shape" fill="#FFFFFF"></path>
                        <path d="M15.4569063,18.2277776 C17.7187813,16.9646198 19.5562813,17.9793566 19.5650313,20.4804092 C19.5737813,22.9814619 17.7494063,27.2088303 15.4875313,28.4719882 C13.2256563,29.7351461 11.3837813,27.5498829 11.3750313,25.0488303 C11.3662813,22.5477776 13.1950313,19.4825145 15.4569063,18.2277776 Z" id="Shape" fill="#FFFFFF"></path>
                    </g>
                    <g id="winner" transform="translate(118.000000, 41.000000)">
                        <polygon id="Shape" fill="#A6CDF0" points="0.0833298647 43.411201 0 12.9636364 2.85215401 14.7160718 2.93548387 45.1636364"></polygon>
                        <polygon id="Shape" fill="#A6CDF0" points="0 13.2661292 22.9318289 0 26 1.7884163 3.06817113 15.0545455"></polygon>
                        <polygon id="Shape" fill="#619DC5" points="26 32.8624518 18.3417642 37.2375909 14.3493577 44.0914365 10.3324579 41.818952 3.02529261 46 2.93548387 15.2284573 25.9101913 2.09090909"></polygon>
                        <path d="M18.142766,23.4181818 C20.3290306,23.6802867 21.7984871,25.6198628 21.8064516,28.8054453 L6.70967742,37.6363636 C6.70967742,34.4467488 8.15125807,30.8055071 10.3335404,27.9868716 C10.4716099,28.2095928 10.6331767,28.4164591 10.8153947,28.6038261 C11.7552097,29.5312742 12.9698011,29.6361161 14.2321798,28.8981901 C15.4945584,28.160264 16.7091499,26.6360233 17.6370181,24.6157995 C17.8321491,24.2246584 17.9834753,23.8214201 18.142766,23.4181818 Z" id="Shape" fill="#FFFFFF"></path>
                        <path d="M14.6653226,17.2569927 C16.7499841,16.0260132 18.4435196,17.0149001 18.451584,19.4522397 C18.4596485,21.8895792 16.7782097,26.0092575 14.6935482,27.2402371 C12.6088867,28.4712167 10.9113191,26.341622 10.9032546,23.9042824 C10.8951902,21.4669429 12.5806612,18.4797658 14.6653226,17.2569927 Z" id="Shape" fill="#FFFFFF"></path>
                    </g>
                    <g id="Group-29" transform="translate(58.000000, 75.000000)">
                        <polygon id="Shape" fill="#D8ADFF" points="3.73052319 47.7810526 0.48683088 45.9368421 0.392061649 13.8947368 3.63575396 15.7389474"></polygon>
                        <polygon id="Shape" fill="#D8ADFF" points="3.63575396 15.5242105 0.392061649 13.68 24.635754 0 27.8794463 1.84421053"></polygon>
                        <polygon id="Shape" fill="#A852D9" points="27.6511386 2.10526316 27.7459078 34.1473684 19.664677 38.7031579 15.451754 45.84 11.2129847 43.4736842 3.5022155 47.8273684 3.40744626 15.7852632"></polygon>
                        <path d="M19.651754,24 C22.016677,24.2736842 23.6062155,26.2989474 23.6148309,29.6252632 L7.28436934,38.8463158 C7.28436934,35.5157895 8.84375396,31.7136842 11.2043693,28.7705263 C11.3537217,29.003087 11.5284915,29.2190922 11.7256001,29.4147368 C12.7422155,30.3831579 14.0560616,30.4926316 15.4216001,29.7221053 C16.7871386,28.9515789 18.1009847,27.36 19.104677,25.2505263 C19.315754,24.8421053 19.4794463,24.4210526 19.651754,24 Z" id="Shape" fill="#FFFFFF"></path>
                        <path d="M15.6111694,18.2277776 C17.8382463,16.9646198 19.6474771,17.9793566 19.6560924,20.4804092 C19.6647078,22.9814619 17.8684001,27.2088303 15.6413232,28.4719882 C13.4142463,29.7351461 11.6007078,27.5498829 11.5920924,25.0488303 C11.5834771,22.5477776 13.3840924,19.4825145 15.6111694,18.2277776 Z" id="Shape" fill="#FFFFFF"></path>
                    </g>
                </g>
            </g>
        </g>
    </g>
</svg>