<?xml version="1.0" encoding="UTF-8"?>
<svg width="89px" height="114px" viewBox="0 0 89 114" version="1.1" xmlns="http://www.w3.org/2000/svg" xmlns:xlink="http://www.w3.org/1999/xlink">
    <!-- Generator: Sketch 51.3 (57544) - http://www.bohemiancoding.com/sketch -->
    <title>Group 3</title>
    <desc>Created with Sketch.</desc>
    <defs>
        <linearGradient x1="0%" y1="50%" x2="100%" y2="50%" id="linearGradient-1">
            <stop stop-color="#0F1563" offset="0%"></stop>
            <stop stop-color="#9A9DBE" stop-opacity="0.42" offset="60%"></stop>
            <stop stop-color="#FFFFFF" stop-opacity="0" offset="100%"></stop>
        </linearGradient>
    </defs>
    <g id="Page-1" stroke="none" stroke-width="1" fill="none" fill-rule="evenodd">
        <g id="Profile-Copy-2" transform="translate(-946.000000, -236.000000)" fill-rule="nonzero">
            <g id="TOP-EXPLAINER" transform="translate(565.000000, 152.000000)">
                <g id="Group-3" transform="translate(381.000000, 84.000000)">
                    <polygon id="Shape" fill="#D8ADFF" points="13 65 9.11354839 62.4965209 9 19 12.8864516 21.5034791"></polygon>
                    <polygon id="Shape" fill="#D8ADFF" points="13.248237 21 9 18.5052889 40.751763 0 45 2.49471115"></polygon>
                    <polygon id="Shape" fill="#A852D9" points="44.8715044 3 45 46.4496731 34.0428319 52.6274058 28.3306195 62.3050925 22.5833628 59.0963256 12.1284956 65 12 21.5503269"></polygon>
                    <path d="M33.6610393,33 C36.8470061,33.3686897 38.9883936,36.0969938 39,40.5779921 L17,53 C17,48.5133296 19.100765,43.3913783 22.2809285,39.4265457 C22.4821323,39.7398365 22.717578,40.0308248 22.9831179,40.2943846 C24.3526774,41.598979 26.1226589,41.7464549 27.9622791,40.7084515 C29.8018992,39.6704481 31.5718808,37.5263755 32.9240306,34.6846285 C33.2083883,34.1344299 33.4289106,33.567215 33.6610393,33 Z" id="Shape" fill="#FFFFFF"></path>
                    <path d="M28.4823719,24.730801 C31.520276,23.0325433 33.9882059,24.3968103 33.9999579,27.7593607 C34.0117099,31.1219111 31.5614082,36.8054138 28.523504,38.5036716 C25.4855999,40.2019293 23.011794,37.2639434 23.000042,33.901393 C22.98829,30.5388426 25.4444678,26.4177371 28.4823719,24.730801 Z" id="Shape" fill="#FFFFFF"></path>
                    <g id="TownHall_comment_svg" transform="translate(0.000000, 49.000000)">
                        <g id="Group" opacity="0.1" transform="translate(0.000000, 12.686905)" fill="url(#linearGradient-1)">
                            <polygon id="Shape" points="88.8744872 22.0521474 78.8163462 27.957325 78.8562821 34.4968478 67.6913462 34.491081 37.779359 52.0624443 0 30.0160636 51.0951282 0"></polygon>
                        </g>
                        <g id="Group">
                            <polygon id="Shape" fill="#262836" points="88.8744872 22.0521474 88.8630769 27.0750084 78.8049359 32.980186 78.8163462 27.957325"></polygon>
                            <polygon id="Shape" fill="#4A4D69" points="78.8562821 34.491081 78.8391667 39.5197087 67.6799359 39.513942 67.6913462 34.491081"></polygon>
                            <polygon id="Shape" fill="#262836" points="67.5772436 34.6006497 67.5658333 39.6235107 37.6538462 57.194874 37.6652564 52.172013"></polygon>
                            <polygon id="Shape" fill="#4A4D69" points="37.7964744 52.6160547 37.7850641 57.6389156 0 35.592535 0.0171153846 30.5639072"></polygon>
                            <polygon id="Shape" fill="#676D94" points="88.8744872 22.0521474 78.8163462 27.957325 78.8562821 34.491081 67.6913462 34.491081 37.779359 52.0624443 0 30.0102969 51.0951282 0"></polygon>
                        </g>
                    </g>
                    <g id="coins" transform="translate(31.000000, 60.000000)">
                        <g id="Group" transform="translate(0.000000, 6.290323)">
                            <polygon id="Shape" fill="#A86523" points="28.9846018 6.14690323 28.979469 8.23780645 25.1427434 16.4655484 25.1504425 14.372129"></polygon>
                            <polygon id="Shape" fill="#E88C31" points="25.1504425 14.372129 25.1427434 16.4655484 10.6709735 18.6696774 10.6761062 16.5787742"></polygon>
                            <polygon id="Shape" fill="#995C20" points="10.6761062 16.5787742 10.6709735 18.6696774 0.0307964602 12.6485806 0.0359292035 10.5551613"></polygon>
                            <polygon id="Shape" fill="#B86F27" points="28.9846018 6.14690323 25.1504425 14.372129 10.6761062 16.5787742 0.0359292035 10.5551613 3.8700885 2.32741935 18.3444248 0.123290323"></polygon>
                        </g>
                        <g id="Group" transform="translate(0.000000, 3.431085)">
                            <polygon id="Shape" fill="#A86523" points="28.9846018 6.16703226 28.979469 8.26045161 25.1427434 16.4856774 25.1504425 14.3922581"></polygon>
                            <polygon id="Shape" fill="#E88C31" points="25.1504425 14.3922581 25.1427434 16.4856774 10.6709735 18.6898065 10.6761062 16.5989032"></polygon>
                            <polygon id="Shape" fill="#995C20" points="10.6761062 16.5989032 10.6709735 18.6898065 0.0307964602 12.6687097 0.0359292035 10.5752903"></polygon>
                            <polygon id="Shape" fill="#B86F27" points="28.9846018 6.16703226 25.1504425 14.3922581 10.6761062 16.5989032 0.0359292035 10.5752903 3.8700885 2.34754839 18.3444248 0.143419355"></polygon>
                        </g>
                        <g id="Group">
                            <polygon id="Shape" fill="#A86523" points="28.9846018 6.18716129 28.979469 8.28058065 25.1427434 16.5058065 25.1504425 14.4123871"></polygon>
                            <polygon id="Shape" fill="#E88C31" points="25.1504425 14.4123871 25.1427434 16.5058065 10.6709735 18.7099355 10.6761062 16.6190323"></polygon>
                            <polygon id="Shape" fill="#995C20" points="10.6761062 16.6190323 10.6709735 18.7099355 0.0307964602 12.6888387 0.0359292035 10.5954194"></polygon>
                            <polygon id="Shape" fill="#E89C51" points="28.9846018 6.18716129 25.1504425 14.4123871 10.6761062 16.6190323 0.0359292035 10.5954194 3.8700885 2.36767742 18.3444248 0.163548387"></polygon>
                        </g>
                        <g id="Group" opacity="0.2" transform="translate(4.640000, 2.287390)" fill="#995C20">
                            <path d="M9.575104,11.8211602 C4.3384,11.8211602 0.058696,9.21174853 0.058696,6.00439883 C0.058696,2.79704912 4.3384,0.192641129 9.575104,0.192641129 C14.811808,0.192641129 19.094064,2.79955095 19.094064,6.00690066 C19.094064,9.21425037 14.822016,11.8211602 9.575104,11.8211602 Z M9.575104,0.442824413 C4.471104,0.442824413 0.313896,2.94465726 0.313896,6.00690066 C0.313896,9.06914406 4.468552,11.5709769 9.575104,11.5709769 C14.681656,11.5709769 18.838864,9.06914406 18.838864,6.00690066 C18.838864,2.94465726 14.681656,0.442824413 9.575104,0.442824413 Z" id="Shape"></path>
                        </g>
                        <path d="M18.4532091,8.40144584 C18.4849959,8.41418586 18.5057305,8.44426213 18.5057305,8.4776299 C18.5057305,8.51099766 18.4849959,8.54107393 18.4532091,8.55381395 C18.3665621,8.59612539 18.2643811,8.59612539 18.1777341,8.55381395 L14.3030629,6.38319289 L14.4008951,7.85941504 C14.4008951,7.92186098 14.3210846,7.9693199 14.2129542,7.9693199 C14.1635954,7.97112815 14.1146561,7.95990527 14.071355,7.93684801 C14.0400112,7.92429087 14.0176052,7.89688142 14.0121407,7.86441071 L13.8937122,6.11592424 C13.8937122,6.07096316 13.9374793,6.02849992 14.0121407,6.01351289 C14.0801645,5.98857672 14.1552286,5.98857672 14.2232524,6.01351289 L18.4532091,8.40144584 Z" id="Shape" fill="#FFFFFF"></path>
                        <path d="M18.4776717,6.03540062 C20.9440737,7.42170061 20.9440737,9.66975465 18.5085661,11.0585525 C16.0730584,12.4473503 12.0516389,12.4448525 9.57236419,11.0585525 C7.09308952,9.67225248 7.10853671,7.42170061 9.54146981,6.03540062 C11.9744029,4.64910064 16.0035461,4.64910064 18.4776717,6.03540062 Z M14.0417524,11.8803411 C15.5001536,11.914017 16.943133,11.5846573 18.2330911,10.9236692 C19.3864816,10.2742314 19.9631769,9.42496654 19.9580278,8.56571033 C19.9528787,7.70645412 19.3710344,6.8596871 18.2073458,6.20775143 C15.5743663,4.90894015 12.4602224,4.90894015 9.8272429,6.20775143 C8.6738524,6.8596871 8.09715714,7.70645412 8.10230621,8.56571033 C8.10745527,9.42496654 8.68929959,10.2742314 9.85298822,10.9236692 C11.1462506,11.5832933 12.5913451,11.912529 14.0520505,11.8803411 L14.0417524,11.8803411 Z" id="Shape" fill="#FFFFFF"></path>
                        <path d="M16.1213594,8.74567011 C16.1565538,8.75888748 16.1799734,8.79148863 16.1805737,8.82809876 C16.1805737,8.89054471 16.0878905,8.93300795 15.9797602,8.93300795 L10.557795,8.80811606 L14.4195935,10.9787371 C14.4635627,10.9940289 14.4865625,11.0408895 14.4710842,11.0836463 C14.4609684,11.1059631 14.4425955,11.1237886 14.4195935,11.1336031 C14.3329466,11.1759145 14.2307655,11.1759145 14.1441186,11.1336031 L9.91931095,8.76565282 C9.8600967,8.73318092 9.84464951,8.68322417 9.8755439,8.6457566 C9.92422216,8.5980996 9.99193655,8.57346315 10.0609102,8.57831498 L15.9823347,8.7181939 C16.0303455,8.71553442 16.0782466,8.72500136 16.1213594,8.74567011 Z" id="Shape" fill="#FFFFFF"></path>
                    </g>
                </g>
            </g>
        </g>
    </g>
</svg>