<?xml version="1.0" encoding="UTF-8"?>
<svg width="91px" height="116px" viewBox="0 0 91 116" version="1.1" xmlns="http://www.w3.org/2000/svg" xmlns:xlink="http://www.w3.org/1999/xlink">
    <!-- Generator: Sketch 51.3 (57544) - http://www.bohemiancoding.com/sketch -->
    <title>Group 4</title>
    <desc>Created with Sketch.</desc>
    <defs>
        <linearGradient x1="0%" y1="50%" x2="100%" y2="50%" id="linearGradient-1">
            <stop stop-color="#0F1563" offset="0%"></stop>
            <stop stop-color="#9A9DBE" stop-opacity="0.42" offset="60%"></stop>
            <stop stop-color="#FFFFFF" stop-opacity="0" offset="100%"></stop>
        </linearGradient>
    </defs>
    <g id="Page-1" stroke="none" stroke-width="1" fill="none" fill-rule="evenodd">
        <g id="Profile-Copy-2" transform="translate(-1227.000000, -236.000000)" fill-rule="nonzero">
            <g id="TOP-EXPLAINER" transform="translate(565.000000, 152.000000)">
                <g id="Group-4" transform="translate(707.500000, 142.500000) rotate(-360.000000) translate(-707.500000, -142.500000) translate(662.000000, 84.000000)">
                    <polygon id="Shape" fill="#A6CDF0" points="14 67 9.14193548 64.387674 9 19 13.8580645 21.612326"></polygon>
                    <polygon id="Shape" fill="#A6CDF0" points="13.3662435 22 9 19.3864931 41.6337565 0 46 2.61350692"></polygon>
                    <polygon id="Shape" fill="#619DC5" points="43.8753982 4 44 48.8512754 33.3748673 55.2282899 27.8357522 65.2181601 22.2626549 61.9058845 12.1246018 68 12 23.1487246"></polygon>
                    <path d="M34.4183593,32 C37.7491427,32.3871242 39.987866,35.2518434 40,39.9568917 L17,53 C17,48.288996 19.1962543,42.9109472 22.5209707,38.7478729 C22.7313202,39.0768283 22.9774679,39.382366 23.2550778,39.6591038 C24.68689,41.028928 26.5373252,41.1837777 28.4605645,40.0938741 C30.3838037,39.0039705 32.234239,36.7526943 33.6478502,33.7688599 C33.9451332,33.1911514 34.1756792,32.5955757 34.4183593,32 Z" id="Shape" fill="#FFFFFF"></path>
                    <path d="M27.9839744,25.730801 C30.7457055,24.0325433 32.9892781,25.3968103 32.9999617,28.7593607 C33.0106454,32.1219111 30.7830983,37.8054138 28.0213673,39.5036716 C25.2596363,41.2019293 23.0107219,38.2639434 23.0000382,34.901393 C22.9893545,31.5388426 25.2222434,27.4177371 27.9839744,25.730801 Z" id="Shape" fill="#FFFFFF"></path>
                    <g id="TownHall_comment_svg" transform="translate(0.000000, 49.000000)">
                        <g id="Group" opacity="0.1" transform="translate(0.000000, 13.059159)" fill="url(#linearGradient-1)">
                            <polygon id="Shape" points="90.8716667 22.699192 80.5875 28.7776367 80.6283333 35.5090393 69.2125 35.5031034 38.6283333 53.590038 0 30.896782 52.2433333 0"></polygon>
                        </g>
                        <g id="Group">
                            <polygon id="Shape" fill="#262836" points="90.8716667 22.699192 90.86 27.8694316 80.5758333 33.9478763 80.5875 28.7776367"></polygon>
                            <polygon id="Shape" fill="#4A4D69" points="80.6283333 35.5031034 80.6108333 40.6792789 69.2008333 40.6733429 69.2125 35.5031034"></polygon>
                            <polygon id="Shape" fill="#262836" points="69.0958333 35.615887 69.0841667 40.7861266 38.5 58.8730612 38.5116667 53.7028216"></polygon>
                            <polygon id="Shape" fill="#4A4D69" points="38.6458333 54.1598922 38.6341667 59.3301317 0 36.6368758 0.0175 31.4607002"></polygon>
                            <polygon id="Shape" fill="#676D94" points="90.8716667 22.699192 80.5875 28.7776367 80.6283333 35.5031034 69.2125 35.5031034 38.6283333 53.590038 0 30.890846 52.2433333 0"></polygon>
                        </g>
                    </g>
                    <g id="Group-24" transform="translate(16.000000, 34.000000)">
                        <polygon id="Shape" fill="#A86523" points="54 34.4653465 53.9858848 38.3715587 46.9565217 53.7425743 46.9659319 49.8316614"></polygon>
                        <polygon id="Shape" fill="#E88C31" points="46.9565217 50.2376238 46.9469507 54.2213926 19.9565217 58.4158416 19.9708784 54.4320727"></polygon>
                        <polygon id="Shape" fill="#995C20" points="19.9565217 55.0817008 19.9420919 59 0 47.7254709 0.0144298783 43.8118812"></polygon>
                        <polygon id="Shape" fill="#B86F27" points="53.4130435 35.2854374 46.3339211 50.7632681 19.6321346 54.9108911 0 43.5806835 7.06965194 28.0981181 33.7809089 23.950495"></polygon>
                        <polygon id="Shape" fill="#A86523" points="54 30.3762376 53.9858848 34.2824498 46.9565217 49.6534653 46.9659319 45.7425525"></polygon>
                        <polygon id="Shape" fill="#E88C31" points="46.9565217 45.5643564 46.9469507 49.5481253 19.9565217 53.7425743 19.9708784 49.7635936"></polygon>
                        <polygon id="Shape" fill="#995C20" points="19.9565217 49.2448262 19.9420919 53.1584158 0 41.8838867 0.0144298783 37.970297"></polygon>
                        <polygon id="Shape" fill="#B86F27" points="53.4130435 30.0262785 46.3339211 45.5017425 19.6321346 49.6534653 0 38.3202562 7.06965194 22.8400581 33.7809089 18.6930693"></polygon>
                        <polygon id="Shape" fill="#A86523" points="54 23.950495 53.9858848 27.8567073 46.9565217 43.2277228 46.9659319 39.31681"></polygon>
                        <polygon id="Shape" fill="#E88C31" points="46.9565217 39.1386139 46.9469507 43.1223827 19.9565217 47.3168317 19.9708784 43.337851"></polygon>
                        <polygon id="Shape" fill="#995C20" points="19.9565217 42.8190836 19.9420919 46.7326733 0 35.4628536 0.0144298783 31.5445545"></polygon>
                        <polygon id="Shape" fill="#B86F27" points="53.4130435 23.6005359 46.3339211 39.0759999 19.6321346 43.2277228 0 31.8945136 7.06965194 16.4143156 33.7809089 12.2673267"></polygon>
                        <polygon id="Shape" fill="#A86523" points="53.9858848 22.0198237 46.9565217 37.3861386 46.9659319 33.4752258 54 18.1089109"></polygon>
                        <polygon id="Shape" fill="#E88C31" points="46.9565217 33.2970297 46.9469507 37.2807986 19.9565217 41.4752475 19.9708784 37.4962668"></polygon>
                        <polygon id="Shape" fill="#995C20" points="19.9565217 37.5616578 19.9420919 41.4752475 0 30.2054279 0.0144298783 26.2871287"></polygon>
                        <polygon id="Shape" fill="#B86F27" points="53.4130435 17.7589518 46.3339211 33.2344158 19.6321346 37.3861386 0 26.0529294 7.06965194 10.5727314 33.7809089 6.42574257"></polygon>
                        <polygon id="Shape" fill="#A86523" points="53.4130435 11.0990099 53.3989283 15.0099227 46.3695652 30.3762376 46.3789753 26.4653248"></polygon>
                        <polygon id="Shape" fill="#E88C31" points="46.9565217 27.4554455 46.9469507 31.4368834 19.9565217 35.6336634 19.9708784 31.6522256"></polygon>
                        <polygon id="Shape" fill="#995C20" points="19.9565217 31.1324204 19.9420919 35.049505 0 23.7784707 0.0144298783 19.8613861"></polygon>
                        <polygon id="Shape" fill="#E89C51" points="53.4130435 11.3332092 46.3339211 26.8086732 19.6321346 30.960396 0 19.6271868 7.06965194 4.14698883 33.7809089 0"></polygon>
                        <path d="M26.4154042,26.8712871 C16.7033552,26.8712871 8.80434783,21.890105 8.80434783,15.7722772 C8.80434783,9.65444948 16.7033552,4.67326733 26.4154042,4.67326733 C36.1274533,4.67326733 44.0217391,9.63057037 44.0217391,15.7722772 C44.0217391,21.9139841 36.1227318,26.8712871 26.4154042,26.8712871 Z M26.4154042,5.15084951 C16.9724785,5.15084951 9.27649411,9.92667132 9.27649411,15.7722772 C9.27649411,21.6178831 16.9630356,26.3937049 26.4154042,26.3937049 C35.8677728,26.3937049 43.5495928,21.6178831 43.5495928,15.7722772 C43.5495928,9.92667132 35.8630513,5.15084951 26.4154042,5.15084951 Z" id="Shape" fill="#995C20"></path>
                        <path d="M34.5303878,15.4401825 C34.5676582,15.4524664 34.5983528,15.4789432 34.6155869,15.5136741 C34.6328211,15.5484051 34.6351522,15.5884831 34.6220574,15.6249188 C34.6068084,15.6669601 34.5731543,15.7000436 34.5303878,15.7150341 C34.3761289,15.7913583 34.1942144,15.7913583 34.0399554,15.7150341 L27.1418169,11.7995249 L27.3159892,14.4624316 C27.3159892,14.5750757 27.1784848,14.6606853 26.9859786,14.6606853 C26.8966083,14.6643155 26.8079072,14.6440734 26.7293036,14.6021103 C26.6735018,14.5794589 26.633612,14.530016 26.6238836,14.4714432 L26.4130435,11.3174082 C26.4130435,11.2363044 26.4955461,11.1597064 26.6238836,11.1326718 C26.7465837,11.0877893 26.8816124,11.0877893 27.0043125,11.1326718 L34.5303878,15.4401825 Z" id="Shape" fill="#FFFFFF"></path>
                        <path d="M35.2937841,10.7289136 C39.8787576,13.3509634 39.8787576,17.6029361 35.346485,20.2297104 C30.8142123,22.8564846 23.3306923,22.8517602 18.7169729,20.2297104 C14.1032535,17.6076605 14.1319994,13.3509634 18.6642721,10.7289136 C23.1965447,8.10686378 30.6896467,8.10686378 35.2937841,10.7289136 Z M27.0389154,21.7840426 C29.7516414,21.8505262 32.4360613,21.2273875 34.8338495,19.974592 C36.9802112,18.7462443 38.053392,17.1399436 38.04381,15.5147451 C38.0342281,13.8895466 36.9562562,12.2785214 34.7811486,11.0548982 C29.8813976,8.59832461 24.0862405,8.59832461 19.1864895,11.0548982 C17.0401278,12.2879703 15.966947,13.8895466 15.976529,15.5147451 C15.9861109,17.1399436 17.0688738,18.7462443 19.2296084,19.974592 C21.6379836,21.2222035 24.328723,21.8448956 27.0484974,21.7840426 L27.0389154,21.7840426 Z" id="Shape" fill="#FFFFFF"></path>
                        <path d="M30.4117861,16.0756379 C30.4748203,16.1022209 30.5171258,16.1594983 30.5217391,16.2245037 C30.5217391,16.3372808 30.3496387,16.4139692 30.1440742,16.4139692 L20.0761977,16.188415 L27.2470499,20.1130577 C27.2859229,20.1253562 27.3179373,20.1518642 27.3359125,20.1866362 C27.3538877,20.2214081 27.3563191,20.2615335 27.3426613,20.2980122 C27.3251698,20.3391355 27.2906299,20.3717283 27.2470499,20.3882338 C27.0861579,20.4646481 26.8964212,20.4646481 26.7355291,20.3882338 L18.8906168,16.1117266 C18.7806637,16.0530825 18.7567609,15.9673719 18.8093471,15.8951946 C18.901561,15.8089219 19.028816,15.7645082 19.1583286,15.7733953 L30.1536354,16.026016 C30.2427223,16.0220098 30.3314587,16.0390667 30.4117861,16.0756379 Z" id="Shape" fill="#FFFFFF"></path>
                    </g>
                </g>
            </g>
        </g>
    </g>
</svg>