<?xml version="1.0" encoding="UTF-8"?>
<svg width="160px" height="120px" viewBox="0 0 160 120" version="1.1" xmlns="http://www.w3.org/2000/svg" xmlns:xlink="http://www.w3.org/1999/xlink">
    <!-- Generator: Sketch 51.3 (57544) - http://www.bohemiancoding.com/sketch -->
    <title>Group 5</title>
    <desc>Created with Sketch.</desc>
    <defs>
        <linearGradient x1="-57.4793048%" y1="57.579705%" x2="115.392759%" y2="42.7072962%" id="linearGradient-1">
            <stop stop-color="#0F1563" offset="0%"></stop>
            <stop stop-color="#9A9DBE" stop-opacity="0.42" offset="60%"></stop>
            <stop stop-color="#FFFFFF" stop-opacity="0" offset="100%"></stop>
        </linearGradient>
        <linearGradient x1="12.2441682%" y1="51.6251649%" x2="389.581022%" y2="42.1730683%" id="linearGradient-2">
            <stop stop-color="#0F1563" offset="0%"></stop>
            <stop stop-color="#9A9DBE" stop-opacity="0.42" offset="60%"></stop>
            <stop stop-color="#FFFFFF" stop-opacity="0" offset="100%"></stop>
        </linearGradient>
        <linearGradient x1="-171.658615%" y1="63.0555556%" x2="2585.50725%" y2="-68.8888889%" id="linearGradient-3">
            <stop stop-color="#0F1563" offset="0%"></stop>
            <stop stop-color="#9A9DBE" stop-opacity="0.42" offset="60%"></stop>
            <stop stop-color="#FFFFFF" stop-opacity="0" offset="100%"></stop>
        </linearGradient>
        <linearGradient x1="-150.082434%" y1="60.7727841%" x2="2337.95443%" y2="-49.481225%" id="linearGradient-4">
            <stop stop-color="#0F1563" offset="0%"></stop>
            <stop stop-color="#9A9DBE" stop-opacity="0.42" offset="60%"></stop>
            <stop stop-color="#FFFFFF" stop-opacity="0" offset="100%"></stop>
        </linearGradient>
        <linearGradient x1="-443.870968%" y1="76.0445682%" x2="2317.74194%" y2="-56.2674095%" id="linearGradient-5">
            <stop stop-color="#0F1563" offset="0%"></stop>
            <stop stop-color="#9A9DBE" stop-opacity="0.42" offset="60%"></stop>
            <stop stop-color="#FFFFFF" stop-opacity="0" offset="100%"></stop>
        </linearGradient>
        <linearGradient x1="-394.933626%" y1="71.4500145%" x2="2093.10324%" y2="-38.8039947%" id="linearGradient-6">
            <stop stop-color="#0F1563" offset="0%"></stop>
            <stop stop-color="#9A9DBE" stop-opacity="0.42" offset="60%"></stop>
            <stop stop-color="#FFFFFF" stop-opacity="0" offset="100%"></stop>
        </linearGradient>
        <linearGradient x1="-987.258065%" y1="101.949861%" x2="1774.35484%" y2="-30.362117%" id="linearGradient-7">
            <stop stop-color="#0F1563" offset="0%"></stop>
            <stop stop-color="#9A9DBE" stop-opacity="0.42" offset="60%"></stop>
            <stop stop-color="#FFFFFF" stop-opacity="0" offset="100%"></stop>
        </linearGradient>
        <linearGradient x1="-884.490698%" y1="93.0365889%" x2="1603.54616%" y2="-17.2174202%" id="linearGradient-8">
            <stop stop-color="#0F1563" offset="0%"></stop>
            <stop stop-color="#9A9DBE" stop-opacity="0.42" offset="60%"></stop>
            <stop stop-color="#FFFFFF" stop-opacity="0" offset="100%"></stop>
        </linearGradient>
        <linearGradient x1="-1258.87097%" y1="115%" x2="1502.58065%" y2="-16.9444444%" id="linearGradient-9">
            <stop stop-color="#0F1563" offset="0%"></stop>
            <stop stop-color="#9A9DBE" stop-opacity="0.42" offset="60%"></stop>
            <stop stop-color="#FFFFFF" stop-opacity="0" offset="100%"></stop>
        </linearGradient>
        <linearGradient x1="-1128.61533%" y1="104.41016%" x2="1359.27622%" y2="-5.84384878%" id="linearGradient-10">
            <stop stop-color="#0F1563" offset="0%"></stop>
            <stop stop-color="#9A9DBE" stop-opacity="0.42" offset="60%"></stop>
            <stop stop-color="#FFFFFF" stop-opacity="0" offset="100%"></stop>
        </linearGradient>
        <linearGradient x1="-93.7643813%" y1="56.6106646%" x2="416.7046%" y2="33.1773387%" id="linearGradient-11">
            <stop stop-color="#0F1563" offset="0%"></stop>
            <stop stop-color="#9A9DBE" stop-opacity="0.42" offset="60%"></stop>
            <stop stop-color="#FFFFFF" stop-opacity="0" offset="100%"></stop>
        </linearGradient>
        <linearGradient x1="22.0149502%" y1="-43.5816071%" x2="139.369191%" y2="425.192177%" id="linearGradient-12">
            <stop stop-color="#0F1563" offset="0%"></stop>
            <stop stop-color="#9A9DBE" stop-opacity="0.42" offset="60%"></stop>
            <stop stop-color="#FFFFFF" stop-opacity="0" offset="100%"></stop>
        </linearGradient>
        <linearGradient x1="-103.484045%" y1="-174.26816%" x2="96.7239099%" y2="95.777262%" id="linearGradient-13">
            <stop stop-color="#0F1563" offset="0%"></stop>
            <stop stop-color="#9A9DBE" stop-opacity="0.42" offset="60%"></stop>
            <stop stop-color="#FFFFFF" stop-opacity="0" offset="100%"></stop>
        </linearGradient>
        <linearGradient x1="-234.354839%" y1="-578.611111%" x2="1021.93548%" y2="2198.33333%" id="linearGradient-14">
            <stop stop-color="#0F1563" offset="0%"></stop>
            <stop stop-color="#9A9DBE" stop-opacity="0.42" offset="60%"></stop>
            <stop stop-color="#FFFFFF" stop-opacity="0" offset="100%"></stop>
        </linearGradient>
        <linearGradient x1="-206.318287%" y1="-475.409871%" x2="925.519064%" y2="1845.03082%" id="linearGradient-15">
            <stop stop-color="#0F1563" offset="0%"></stop>
            <stop stop-color="#9A9DBE" stop-opacity="0.42" offset="60%"></stop>
            <stop stop-color="#FFFFFF" stop-opacity="0" offset="100%"></stop>
        </linearGradient>
        <linearGradient x1="-414.653784%" y1="-978.611111%" x2="839.613527%" y2="1798.61111%" id="linearGradient-16">
            <stop stop-color="#0F1563" offset="0%"></stop>
            <stop stop-color="#9A9DBE" stop-opacity="0.42" offset="60%"></stop>
            <stop stop-color="#FFFFFF" stop-opacity="0" offset="100%"></stop>
        </linearGradient>
        <linearGradient x1="-369.358665%" y1="-811.769947%" x2="762.478685%" y2="1514.30199%" id="linearGradient-17">
            <stop stop-color="#0F1563" offset="0%"></stop>
            <stop stop-color="#9A9DBE" stop-opacity="0.42" offset="60%"></stop>
            <stop stop-color="#FFFFFF" stop-opacity="0" offset="100%"></stop>
        </linearGradient>
        <linearGradient x1="-777.419355%" y1="-1778.61111%" x2="478.870968%" y2="998.611111%" id="linearGradient-18">
            <stop stop-color="#0F1563" offset="0%"></stop>
            <stop stop-color="#9A9DBE" stop-opacity="0.42" offset="60%"></stop>
            <stop stop-color="#FFFFFF" stop-opacity="0" offset="100%"></stop>
        </linearGradient>
        <linearGradient x1="-695.439422%" y1="-1479.30164%" x2="436.397929%" y2="841.371169%" id="linearGradient-19">
            <stop stop-color="#0F1563" offset="0%"></stop>
            <stop stop-color="#9A9DBE" stop-opacity="0.42" offset="60%"></stop>
            <stop stop-color="#FFFFFF" stop-opacity="0" offset="100%"></stop>
        </linearGradient>
        <linearGradient x1="-958.387097%" y1="-2184.67967%" x2="297.903226%" y2="600%" id="linearGradient-20">
            <stop stop-color="#0F1563" offset="0%"></stop>
            <stop stop-color="#9A9DBE" stop-opacity="0.42" offset="60%"></stop>
            <stop stop-color="#FFFFFF" stop-opacity="0" offset="100%"></stop>
        </linearGradient>
        <linearGradient x1="-858.4798%" y1="-1812.3848%" x2="273.35755%" y2="508.055891%" id="linearGradient-21">
            <stop stop-color="#0F1563" offset="0%"></stop>
            <stop stop-color="#9A9DBE" stop-opacity="0.42" offset="60%"></stop>
            <stop stop-color="#FFFFFF" stop-opacity="0" offset="100%"></stop>
        </linearGradient>
        <linearGradient x1="-70.5008594%" y1="-205.941252%" x2="161.706264%" y2="287.293258%" id="linearGradient-22">
            <stop stop-color="#0F1563" offset="0%"></stop>
            <stop stop-color="#9A9DBE" stop-opacity="0.42" offset="60%"></stop>
            <stop stop-color="#FFFFFF" stop-opacity="0" offset="100%"></stop>
        </linearGradient>
        <linearGradient x1="0%" y1="50%" x2="100%" y2="50%" id="linearGradient-23">
            <stop stop-color="#0F1563" offset="0%"></stop>
            <stop stop-color="#9A9DBE" stop-opacity="0.42" offset="60%"></stop>
            <stop stop-color="#FFFFFF" stop-opacity="0" offset="100%"></stop>
        </linearGradient>
        <linearGradient x1="0%" y1="50.007148%" x2="100%" y2="50.007148%" id="linearGradient-24">
            <stop stop-color="#0F1563" offset="0%"></stop>
            <stop stop-color="#9A9DBE" stop-opacity="0.42" offset="60%"></stop>
            <stop stop-color="#FFFFFF" stop-opacity="0" offset="100%"></stop>
        </linearGradient>
        <linearGradient x1="61.1875782%" y1="67.716781%" x2="38.8124218%" y2="32.283219%" id="linearGradient-25">
            <stop stop-color="#D99E53" offset="0%"></stop>
            <stop stop-color="#E3B881" stop-opacity="0.73" offset="28%"></stop>
            <stop stop-color="#FDF9F4" stop-opacity="0.07" offset="94%"></stop>
            <stop stop-color="#FFFFFF" stop-opacity="0" offset="100%"></stop>
        </linearGradient>
        <linearGradient x1="20.1958384%" y1="76.4171625%" x2="80.1407589%" y2="23.2853116%" id="linearGradient-26">
            <stop stop-color="#D99E53" offset="0%"></stop>
            <stop stop-color="#E3B881" stop-opacity="0.73" offset="28%"></stop>
            <stop stop-color="#FDF9F4" stop-opacity="0.07" offset="94%"></stop>
            <stop stop-color="#FFFFFF" stop-opacity="0" offset="100%"></stop>
        </linearGradient>
    </defs>
    <g id="Page-1" stroke="none" stroke-width="1" fill="none" fill-rule="evenodd">
        <g id="Profile-Copy-2" transform="translate(-628.000000, -515.000000)" fill-rule="nonzero">
            <g id="TOP-EXPLAINER" transform="translate(565.000000, 152.000000)">
                <g id="Group-5" transform="translate(63.000000, 363.000000)">
                    <g id="TownHall_vote_svg" transform="translate(0.000000, 26.000000)">
                        <g id="Group" opacity="0.1" transform="translate(0.000000, 36.993548)">
                            <path d="M99.1330798,46.5815484 C99.0722667,46.478157 98.939211,46.4429675 98.834981,46.5027097 L85.9437262,53.8589677 C80.4034856,57.020355 73.5980353,57.020355 68.0577947,53.8589677 L39.2760456,37.3028387 L38.9171103,37.5939355 L67.8387833,54.2289032 C73.5076028,57.4753688 80.4770497,57.4869057 86.156654,54.2592258 L99.0479087,46.9029677 C99.1057815,46.8753034 99.1485682,46.8237253 99.1649599,46.7618664 C99.1813516,46.7000074 99.1696982,46.6340941 99.1330798,46.5815484 Z" id="Shape" fill="url(#linearGradient-1)"></path>
                            <path d="M27.6076046,30.5590968 L2.62205323,16.1861935 C1.26999776,15.4053532 0.437601468,13.9656536 0.437601468,12.408 C0.437601468,10.8503464 1.26999776,9.41064682 2.62205323,8.62980645 L16.2798479,0.745935484 C16.3720393,0.680558228 16.399103,0.555941485 16.3422918,0.458407777 C16.2854807,0.36087407 16.1634958,0.32252949 16.0608365,0.369935484 L2.40304183,8.25380645 C0.917272087,9.11154393 0.00249323688,10.6934301 0.00249323688,12.4049677 C0.00249323688,14.1165054 0.917272087,15.6983916 2.40304183,16.556129 L27.2060837,30.8259355 L27.6076046,30.5590968 Z" id="Shape" fill="url(#linearGradient-2)"></path>
                            <polygon id="Shape" fill="url(#linearGradient-3)" points="10.0441065 23.2028387 13.8220532 23.2028387 13.8098859 21.0196129"></polygon>
                            <path d="M13.8220532,23.4150968 L10.0501901,23.4150968 C9.95566755,23.4103022 9.87492826,23.3455235 9.85002555,23.2545008 C9.82512284,23.163478 9.86169141,23.0668068 9.94068441,23.0148387 L13.7003802,20.8376774 C13.7679763,20.7987723 13.8512348,20.7986696 13.9189272,20.8374079 C13.9866197,20.8761461 14.0285143,20.94787 14.0288973,21.0256774 L14.0288973,23.2028387 C14.0288973,23.3234149 13.9308426,23.4211613 13.8098859,23.4211613 L13.8220532,23.4150968 Z M10.8532319,22.9845161 L13.6030418,22.9845161 L13.6030418,21.3956129 L10.8532319,22.9845161 Z" id="Shape" fill="url(#linearGradient-4)"></path>
                            <polygon id="Shape" fill="url(#linearGradient-5)" points="20.4714829 29.14 24.243346 29.14 24.2311787 26.9628387"></polygon>
                            <path d="M24.243346,29.3583226 L20.4714829,29.3583226 C20.3769603,29.353528 20.296221,29.2887493 20.2713183,29.1977266 C20.2464156,29.1067038 20.2829842,29.0100326 20.3619772,28.9580645 L24.121673,26.7809032 C24.1892691,26.7419981 24.2725276,26.7418954 24.34022,26.7806337 C24.4079124,26.8193719 24.4498071,26.8910958 24.4501901,26.9689032 L24.4501901,29.1460645 C24.4501901,29.2666407 24.3521354,29.3643871 24.2311787,29.3643871 L24.243346,29.3583226 Z M21.2927757,28.9216774 L24.0425856,28.9216774 L24.0425856,27.3327742 L21.2927757,28.9216774 Z" id="Shape" fill="url(#linearGradient-6)"></path>
                            <polygon id="Shape" fill="url(#linearGradient-7)" points="41.3140684 41.0203871 45.0859316 41.0203871 45.0737643 38.8432258"></polygon>
                            <path d="M45.0859316,41.2387097 L41.3140684,41.2387097 C41.2195459,41.2339151 41.1388066,41.1691364 41.1139039,41.0781137 C41.0890012,40.9870909 41.1255697,40.8904197 41.2045627,40.8384516 L44.9642586,38.6612903 C45.0318546,38.6223852 45.1151131,38.6222825 45.1828056,38.6610208 C45.250498,38.699759 45.2923926,38.7714829 45.2927757,38.8492903 L45.2927757,41.0264516 C45.2927757,41.0843544 45.2697013,41.1398856 45.2286287,41.180829 C45.1875561,41.2217724 45.1318497,41.2447742 45.0737643,41.2447742 L45.0859316,41.2387097 Z M42.1171103,40.808129 L44.8669202,40.808129 L44.8669202,39.2192258 L42.1171103,40.808129 Z" id="Shape" fill="url(#linearGradient-8)"></path>
                            <polygon id="Shape" fill="url(#linearGradient-9)" points="51.7353612 46.9575484 55.5072243 46.9636129 55.495057 44.7803871"></polygon>
                            <path d="M55.5072243,47.175871 L51.7110266,47.175871 C51.6165041,47.1710764 51.5357648,47.1062977 51.5108621,47.0152749 C51.4859593,46.9242522 51.5225279,46.827581 51.6015209,46.7756129 L55.3612167,44.5923871 C55.4288128,44.553482 55.5120713,44.5533793 55.5797637,44.5921175 C55.6474562,44.6308558 55.6893508,44.7025797 55.6897338,44.7803871 L55.6897338,46.9575484 C55.6897338,47.0154511 55.6666595,47.0709823 55.6255869,47.1119258 C55.5845143,47.1528692 55.5288079,47.175871 55.4707224,47.175871 L55.5072243,47.175871 Z M52.538403,46.7452903 L55.2882129,46.7452903 L55.2882129,45.1563871 L52.538403,46.7452903 Z" id="Shape" fill="url(#linearGradient-10)"></path>
                            <path d="M42.6220532,35.2287742 L35.1756654,39.5406452 C33.7966242,40.3372301 32.095391,40.3372301 30.7163498,39.5406452 L23.860076,35.5987097 C23.3511198,35.3048253 23.0377706,34.7629062 23.0377706,34.1765806 C23.0377706,33.5902551 23.3511198,33.048336 23.860076,32.7544516 L31.3064639,28.4425806 C32.6855051,27.6459957 34.3867383,27.6459957 35.7657795,28.4425806 L42.6281369,32.3905806 C43.1335129,32.6863148 43.4434272,33.2272449 43.442175,33.8114178 C43.4409229,34.3955907 43.1286924,34.9351957 42.6220532,35.2287742 Z" id="Shape" fill="url(#linearGradient-11)"></path>
                        </g>
                        <g id="Group" opacity="0.1" transform="translate(82.737643, 8.490323)">
                            <path d="M40.8273764,13.0569032 L23.1178707,2.85032258 C17.5110825,-0.356781442 10.630072,-0.407387112 4.97642586,2.71690323 L0.590114068,5.14270968 C0.50967047,5.17329914 0.454668817,5.24803503 0.44954802,5.33370993 C0.444427222,5.41938483 0.490137402,5.50010247 0.566368132,5.53999756 C0.642598862,5.57989264 0.735206177,5.57156298 0.803041825,5.51870968 L5.18935361,3.09290323 C10.7095392,0.0401400211 17.4294984,0.0884488471 22.904943,3.22025806 L40.4197719,13.3419355 C40.5536122,13.2327742 40.6935361,13.1418065 40.8273764,13.0569032 Z" id="Shape" fill="url(#linearGradient-12)"></path>
                            <path d="M73.2958175,31.7416774 L52.4836502,19.7642581 C52.3440745,19.8631208 52.1928876,19.9445864 52.0334601,20.0068387 L73.0768061,32.135871 C74.431826,32.9159231 75.2665167,34.3572798 75.2665167,35.9170968 C75.2665167,37.4769138 74.431826,38.9182704 73.0768061,39.6983226 L69.3901141,41.8209032 C69.2979227,41.8862805 69.270859,42.0108972 69.3276701,42.1084309 C69.3844813,42.2059646 69.5064662,42.2443092 69.6091255,42.1969032 L73.2958175,40.0743226 C74.7845523,39.2173739 75.7016262,37.6338305 75.7016262,35.920129 C75.7016262,34.2064275 74.7845523,32.6228841 73.2958175,31.7659355 L73.2958175,31.7416774 Z" id="Shape" fill="url(#linearGradient-13)"></path>
                            <polygon id="Shape" fill="url(#linearGradient-14)" points="23.3247148 5.58541935 27.0965779 5.59148387 27.0904943 3.40825806"></polygon>
                            <path d="M27.1026616,5.80374194 L23.3307985,5.80374194 C23.2362759,5.7989474 23.1555366,5.73416866 23.1306339,5.64314591 C23.1057312,5.55212317 23.1422998,5.45545199 23.2212928,5.40348387 L26.9809886,3.22632258 C27.0485846,3.18741748 27.1318432,3.18731479 27.1995356,3.22605303 C27.267228,3.26479127 27.3091227,3.33651518 27.3095057,3.41432258 L27.3095057,5.59148387 C27.3095057,5.7120601 27.211451,5.80980645 27.0904943,5.80980645 L27.1026616,5.80374194 Z M24.1338403,5.37316129 L26.8836502,5.37316129 L26.8836502,3.78425806 L24.1338403,5.37316129 Z" id="Shape" fill="url(#linearGradient-15)"></path>
                            <polygon id="Shape" fill="url(#linearGradient-16)" points="33.7460076 11.5286452 37.5239544 11.5286452 37.5117871 9.34541935"></polygon>
                            <path d="M37.5239544,11.7469677 L33.7520913,11.7469677 C33.6575687,11.7421732 33.5768294,11.6773945 33.5519267,11.5863717 C33.527024,11.495349 33.5635926,11.3986778 33.6425856,11.3467097 L37.4022814,9.16954839 C37.4698774,9.13064328 37.553136,9.13054059 37.6208284,9.16927884 C37.6885208,9.20801708 37.7304154,9.27974099 37.7307985,9.35754839 L37.7186312,11.5225806 C37.7186312,11.5804834 37.6955568,11.6360146 37.6544842,11.676958 C37.6134116,11.7179014 37.5577052,11.7409032 37.4996198,11.7409032 L37.5239544,11.7469677 Z M34.5551331,11.3163871 L37.304943,11.3163871 L37.304943,9.70322581 L34.5551331,11.3163871 Z" id="Shape" fill="url(#linearGradient-17)"></path>
                            <polygon id="Shape" fill="url(#linearGradient-18)" points="54.5946768 23.4090323 58.3665399 23.4090323 58.3543726 21.2258065"></polygon>
                            <path d="M58.3665399,23.6516129 L54.5946768,23.6516129 C54.5001542,23.6468184 54.4194149,23.5820396 54.3945122,23.4910169 C54.3696095,23.3999941 54.4061781,23.303323 54.4851711,23.2513548 L58.2448669,21.0741935 C58.312463,21.0352884 58.3957215,21.0351858 58.4634139,21.073924 C58.5311063,21.1126622 58.573001,21.1843862 58.573384,21.2621935 L58.573384,23.4393548 C58.573384,23.4972576 58.5503097,23.5527888 58.5092371,23.5937322 C58.4681645,23.6346756 58.4124581,23.6576774 58.3543726,23.6576774 L58.3665399,23.6516129 Z M55.3977186,23.2210323 L58.1475285,23.2210323 L58.1475285,21.6018065 L55.3977186,23.2210323 Z" id="Shape" fill="url(#linearGradient-19)"></path>
                            <polygon id="Shape" fill="url(#linearGradient-20)" points="65.0159696 29.3461935 68.7878327 29.3461935 68.7756654 27.1690323"></polygon>
                            <path d="M68.7878327,29.5645161 L65.0159696,29.5645161 C64.921447,29.5597216 64.8407077,29.4949429 64.815805,29.4039201 C64.7909023,29.3128974 64.8274709,29.2162262 64.9064639,29.1642581 L68.6661597,26.9870968 C68.7337557,26.9481917 68.8170143,26.948089 68.8847067,26.9868272 C68.9523991,27.0255655 68.9942938,27.0972894 68.9946768,27.1750968 L68.9946768,29.3522581 C68.9946768,29.4728343 68.8966221,29.5705806 68.7756654,29.5705806 L68.7878327,29.5645161 Z M65.8190114,29.1096774 L68.5688213,29.1096774 L68.5688213,27.5450323 L65.8190114,29.1096774 Z" id="Shape" fill="url(#linearGradient-21)"></path>
                            <path d="M55.7262357,17.8236129 L48.2798479,22.1354839 C46.9008067,22.9320689 45.1995735,22.9320689 43.8205323,22.1354839 L36.9642586,18.1935484 C36.4553023,17.899664 36.1419531,17.3577449 36.1419531,16.7714194 C36.1419531,16.1850938 36.4553023,15.6431747 36.9642586,15.3492903 L44.4106464,11.0374194 C45.7896876,10.2408344 47.4909208,10.2408344 48.869962,11.0374194 L55.7262357,14.9793548 C56.235192,15.2732392 56.5485412,15.8151584 56.5485412,16.4014839 C56.5485412,16.9878094 56.235192,17.5297285 55.7262357,17.8236129 Z" id="Shape" fill="url(#linearGradient-22)"></path>
                        </g>
                        <path d="M152.237262,42.0513548 C152.138874,42.0505351 152.05311,41.984409 152.027581,41.8896851 C152.002053,41.7949612 152.043027,41.6948934 152.127757,41.6450323 L155.814449,39.5224516 C157.169469,38.7423994 158.004159,37.3010428 158.004159,35.7412258 C158.004159,34.1814088 157.169469,32.7400522 155.814449,31.96 L105.618251,3.07470968 C100.142806,-0.05709954 93.4228472,-0.105408366 87.9026616,2.94735484 L83.5163498,5.37316129 C83.4151064,5.41166008 83.3008406,5.37056728 83.2475717,5.2765021 C83.1943029,5.18243692 83.2180466,5.06368054 83.3034221,4.99716129 L87.6897338,2.57135484 C93.34338,-0.552935499 100.22439,-0.502329829 105.831179,2.70477419 L156.027376,31.596129 C157.516111,32.4530777 158.433185,34.0366211 158.433185,35.7503226 C158.433185,37.4640241 157.516111,39.0475675 156.027376,39.9045161 L152.340684,42.0270968 C152.30882,42.0437645 152.273239,42.0521103 152.237262,42.0513548 Z" id="Shape" fill="#6B67F5"></path>
                        <g id="Group" opacity="0.1" transform="translate(7.908745, 3.032258)" fill="url(#linearGradient-23)">
                            <polygon id="Shape" points="95.0874525 23.4150968 84.3619772 29.6251613 84.4045627 36.5023226 72.4988593 36.4962581 40.608365 54.9748387 0.31634981 31.7901935 54.8015209 0.224387097"></polygon>
                        </g>
                        <g id="Group" opacity="0.1" transform="translate(85.779468, 46.696774)" fill="url(#linearGradient-24)">
                            <polygon id="Shape" points="73.965019 11.5286452 20.4836502 42.5061935 0.602281369 31.0685161 54.0836502 0.0849032258"></polygon>
                        </g>
                        <g id="Group" transform="translate(85.779468, 33.354839)">
                            <polygon id="Shape" fill="#D99E53" points="73.965019 11.9107097 73.9467681 17.1929032 20.4714829 48.1704516 20.4836502 42.8882581"></polygon>
                            <polygon id="Shape" fill="#E6BE7E" points="20.4836502 42.8882581 20.4714829 48.1704516 0.590114068 36.7267097 0.602281369 31.4445161"></polygon>
                            <polygon id="Shape" fill="#F2D79D" points="73.965019 11.9107097 20.4836502 42.8882581 0.602281369 31.4445161 54.0836502 0.466967742"></polygon>
                        </g>
                        <path d="M112.730038,63.2225806 C114.597719,64.296 115.126996,65.2602581 113.204563,66.3700645 C111.282129,67.479871 109.615209,67.1766452 107.729278,66.1032258 C105.843346,65.0298065 105.453992,64.0716129 107.315589,62.992129 C109.177186,61.9126452 110.911027,62.1734194 112.730038,63.2225806 Z M108.976426,65.3936774 C110.278327,66.1456774 111.136122,66.376129 112.170342,65.7757419 C113.204563,65.1753548 112.778707,64.684129 111.495057,63.9563871 C110.211407,63.2286452 109.353612,63.0467097 108.368061,63.6167742 C107.38251,64.1868387 107.668441,64.672 108.976426,65.436129 L108.976426,65.3936774 Z" id="Shape" fill="#676D94"></path>
                        <polygon id="Shape" fill="#676D94" points="118.692015 56.5637419 123.126996 60.4814194 121.198479 61.5972903 116.471483 59.8870968 119.452471 62.6100645 117.523954 63.7259355 110.722433 61.1788387 111.914829 60.4874839 117.371863 62.604 117.590875 62.4766452 114.196198 59.2988387 115.443346 58.5710968 120.9673 60.523871 121.186312 60.3965161 117.487452 57.2611613"></polygon>
                        <polygon id="Shape" fill="#676D94" points="104.279848 63.7987097 102.126236 65.048 108.708745 68.8322581 107.455513 69.56 100.873004 65.7696774 98.695057 67.0310968 97.581749 66.3943226 103.16654 63.155871"></polygon>
                        <path d="M143.701901,48.704129 C143.13211,49.0657676 142.478318,49.2746573 141.803802,49.3105806 C141.44628,49.8355738 140.974145,50.2730502 140.422814,50.5901935 C139.354399,51.225791 138.016265,51.1999124 136.973384,50.5234839 C135.756654,49.8381935 136.024335,49.2317419 137.119392,48.4797419 L138.43346,47.576129 L138.031939,47.3456774 C137.543074,47.009282 136.896469,47.009282 136.407605,47.3456774 C135.659316,47.7762581 134.485171,48.5585806 134.424335,48.6252903 L133.511787,48.1522581 C134.107744,47.5968961 134.760199,47.1050293 135.458555,46.6846452 C136.5929,45.9086742 138.084899,45.8919091 139.236502,46.6421935 L141.797719,48.115871 C142.112363,48.2873809 142.49296,48.2873809 142.807605,48.115871 L143.701901,48.704129 Z M138.153612,49.8139355 C138.599933,50.1193422 139.180259,50.1497896 139.656274,49.8927742 C140.080611,49.6356231 140.464053,49.3167526 140.793916,48.9467097 L139.315589,48.0916129 L138.098859,48.9163871 C137.630418,49.2378065 137.618251,49.5228387 138.098859,49.82 L138.153612,49.8139355 Z" id="Shape" fill="#676D94"></path>
                        <polygon id="Shape" fill="#676D94" points="145.934601 47.2729032 144.711787 47.9763871 136.754373 43.3976774 137.977186 42.688129"></polygon>
                        <polygon id="Shape" fill="#676D94" points="137.380989 52.2215484 136.13384 52.9492903 132.806084 51.0329032 129.502662 52.9492903 132.830418 54.8596129 131.589354 55.5812903 123.893536 51.148129 125.134601 50.4325161 128.413688 52.3185806 131.71711 50.4082581 128.438023 48.5221935 129.685171 47.7944516"></polygon>
                        <path d="M130.025856,56.4849032 L128.809125,57.1823226 L125.834221,55.4660645 C124.708745,54.8171613 124.009125,54.5867097 123.169582,55.0779355 C122.780112,55.2984024 122.446992,55.6055694 122.196198,55.9754839 L126.558175,58.4861935 L125.341445,59.1896774 L119.720152,55.9572903 L120.936882,55.259871 L121.289734,55.46 C121.527231,54.9775377 121.898911,54.5733437 122.360456,54.2956129 C123.911787,53.3980645 125.177186,53.6891613 127.020532,54.7504516 L130.025856,56.4849032 Z" id="Shape" fill="#676D94"></path>
                        <polygon id="Shape" fill="#676D94" points="148.751331 45.6354839 147.540684 46.3389677 139.58327 41.7602581 140.8 41.0567742"></polygon>
                        <g id="Group" opacity="0.8" transform="translate(105.855513, 17.587097)" fill="url(#linearGradient-25)">
                            <polygon id="Shape" points="0.407604563 58.656 0.407604563 31.220129 53.8889734 0.327483871 53.8889734 27.6784516"></polygon>
                        </g>
                        <g id="Group" opacity="0.4" transform="translate(85.779468, 36.993548)" fill="url(#linearGradient-26)">
                            <polygon id="Shape" points="20.4836502 39.2495484 0.602281369 27.8058065 0.602281369 0.521548387 20.4836502 11.8136774"></polygon>
                        </g>
                        <path d="M77.0311787,85.0002581 C73.8086519,85.0087496 70.6405675,84.1721614 67.8448669,82.5744516 L2.43346008,44.9138065 C0.947690338,44.056069 0.0329114878,42.4741828 0.0329114878,40.7626452 C0.0329114878,39.0511075 0.947690338,37.4692214 2.43346008,36.6114839 L16.0912548,28.7276129 C16.158951,28.6796063 16.2480672,28.6739154 16.3213549,28.7129188 C16.3946427,28.7519221 16.4394829,28.8289039 16.4371333,28.9116876 C16.4347837,28.9944713 16.3856489,29.0688027 16.3102662,29.1036129 L2.61596958,36.9935484 C1.26391411,37.7743888 0.431517818,39.2140883 0.431517818,40.7717419 C0.431517818,42.3293955 1.26391411,43.7690951 2.61596958,44.5499355 L68.051711,82.1923871 C73.591623,85.3550059 80.3977306,85.3550059 85.9376426,82.1923871 L98.8288973,74.836129 C98.9331274,74.7763869 99.0661831,74.8115764 99.1269962,74.9149677 C99.1869268,75.0188699 99.1516263,75.1515072 99.0479087,75.212129 L86.156654,82.5683871 C83.3793191,84.1577054 80.2335946,84.9960175 77.0311787,85.0002581 Z" id="Shape" fill="#6B67F5"></path>
                        <polygon id="Shape" fill="#FFFFFF" points="10.0441065 51.5544516 13.8220532 51.5544516 13.8098859 49.3772903"></polygon>
                        <path d="M13.8220532,51.7727742 L10.0501901,51.7727742 C9.95566755,51.7679797 9.87492826,51.7032009 9.85002555,51.6121782 C9.82512284,51.5211554 9.86169141,51.4244843 9.94068441,51.3725161 L13.7003802,49.1953548 C13.7679763,49.1564497 13.8512348,49.156347 13.9189272,49.1950853 C13.9866197,49.2338235 14.0285143,49.3055474 14.0288973,49.3833548 L14.0288973,51.5605161 C14.0288973,51.6810924 13.9308426,51.7788387 13.8098859,51.7788387 L13.8220532,51.7727742 Z M10.8532319,51.3421935 L13.6030418,51.3421935 L13.6030418,49.7290323 L10.8532319,51.3421935 Z" id="Shape" fill="#6B67F5"></path>
                        <polygon id="Shape" fill="#FFFFFF" points="20.4714829 57.4916129 24.243346 57.4916129 24.2311787 55.3144516"></polygon>
                        <path d="M24.243346,57.7099355 L20.4714829,57.7099355 C20.3769603,57.705141 20.296221,57.6403622 20.2713183,57.5493395 C20.2464156,57.4583167 20.2829842,57.3616455 20.3619772,57.3096774 L24.121673,55.1325161 C24.1892691,55.093611 24.2725276,55.0935083 24.34022,55.1322466 C24.4079124,55.1709848 24.4498071,55.2427087 24.4501901,55.3205161 L24.4501901,57.4976774 C24.4501901,57.6182537 24.3521354,57.716 24.2311787,57.716 L24.243346,57.7099355 Z M21.2927757,57.2793548 L24.0425856,57.2793548 L24.0425856,55.6904516 L21.2927757,57.2793548 Z" id="Shape" fill="#6B67F5"></path>
                        <polygon id="Shape" fill="#FFFFFF" points="41.3140684 69.372 45.0859316 69.372 45.0737643 67.1948387"></polygon>
                        <path d="M45.0859316,69.5903226 L41.3140684,69.5903226 C41.2195459,69.585528 41.1388066,69.5207493 41.1139039,69.4297266 C41.0890012,69.3387038 41.1255697,69.2420326 41.2045627,69.1900645 L44.9642586,67.0129032 C45.0318546,66.9739981 45.1151131,66.9738954 45.1828056,67.0126337 C45.250498,67.0513719 45.2923926,67.1230958 45.2927757,67.2009032 L45.2927757,69.3780645 C45.2927757,69.4986407 45.1947209,69.5963871 45.0737643,69.5963871 L45.0859316,69.5903226 Z M42.1171103,69.1354839 L44.8669202,69.1354839 L44.8669202,67.5465806 L42.1171103,69.1354839 Z" id="Shape" fill="#6B67F5"></path>
                        <polygon id="Shape" fill="#FFFFFF" points="51.7353612 75.3152258 55.5072243 75.3152258 55.495057 73.132"></polygon>
                        <path d="M55.5072243,75.5274839 L51.7110266,75.5274839 C51.6165041,75.5226893 51.5357648,75.4579106 51.5108621,75.3668878 C51.4859593,75.2758651 51.5225279,75.1791939 51.6015209,75.1272258 L55.3612167,72.9500645 C55.4288128,72.9111594 55.5120713,72.9110567 55.5797637,72.949795 C55.6474562,72.9885332 55.6893508,73.0602571 55.6897338,73.1380645 L55.6897338,75.3152258 C55.6897338,75.3731286 55.6666595,75.4286598 55.6255869,75.4696032 C55.5845143,75.5105466 55.5288079,75.5335484 55.4707224,75.5335484 L55.5072243,75.5274839 Z M52.538403,75.0969032 L55.2882129,75.0969032 L55.2882129,73.508 L52.538403,75.0969032 Z" id="Shape" fill="#6B67F5"></path>
                        <polygon id="Shape" fill="#FFFFFF" points="106.062357 5.43380645 109.834221 5.43987097 109.828137 3.25664516"></polygon>
                        <path d="M109.840304,5.65212903 L106.068441,5.65212903 C105.973919,5.6473345 105.893179,5.58255575 105.868276,5.49153301 C105.843374,5.40051027 105.879942,5.30383909 105.958935,5.25187097 L109.718631,3.07470968 C109.786227,3.03580457 109.869486,3.03570188 109.937178,3.07444013 C110.004871,3.11317837 110.046765,3.18490228 110.047148,3.26270968 L110.047148,5.43987097 C110.047148,5.5604472 109.949094,5.65819355 109.828137,5.65819355 L109.840304,5.65212903 Z M106.871483,5.22154839 L109.621293,5.22154839 L109.621293,3.63870968 L106.871483,5.22154839 Z" id="Shape" fill="#6B67F5"></path>
                        <polygon id="Shape" fill="#FFFFFF" points="116.48365 11.3770323 120.261597 11.3770323 120.24943 9.19987097"></polygon>
                        <path d="M120.261597,11.5953548 L116.489734,11.5953548 C116.395211,11.5905603 116.314472,11.5257816 116.289569,11.4347588 C116.264667,11.3437361 116.301235,11.2470649 116.380228,11.1950968 L120.139924,9.01793548 C120.20752,8.97903038 120.290779,8.97892769 120.358471,9.01766593 C120.426163,9.05640418 120.468058,9.12812809 120.468441,9.20593548 L120.468441,11.3830968 C120.468441,11.503673 120.370386,11.6014194 120.24943,11.6014194 L120.261597,11.5953548 Z M117.292776,11.1647742 L120.042586,11.1647742 L120.042586,9.56980645 L117.292776,11.1647742 Z" id="Shape" fill="#6B67F5"></path>
                        <polygon id="Shape" fill="#FFFFFF" points="137.332319 23.2574194 141.104183 23.2574194 141.092015 21.0802581"></polygon>
                        <path d="M141.104183,23.4757419 L137.332319,23.4757419 C137.237797,23.4709474 137.157058,23.4061687 137.132155,23.3151459 C137.107252,23.2241232 137.143821,23.127452 137.222814,23.0754839 L140.98251,20.8983226 C141.050106,20.8594175 141.133364,20.8593148 141.201057,20.898053 C141.268749,20.9367913 141.310644,21.0085152 141.311027,21.0863226 L141.311027,23.2634839 C141.311027,23.3213866 141.287952,23.3769178 141.24688,23.4178612 C141.205807,23.4588047 141.150101,23.4818065 141.092015,23.4818065 L141.104183,23.4757419 Z M138.135361,23.0451613 L140.885171,23.0451613 L140.885171,21.4501935 L138.135361,23.0451613 Z" id="Shape" fill="#6B67F5"></path>
                        <polygon id="Shape" fill="#FFFFFF" points="147.753612 29.1945806 151.525475 29.1945806 151.513308 27.0174194"></polygon>
                        <path d="M151.525475,29.4129032 L147.753612,29.4129032 C147.65909,29.4081087 147.57835,29.3433299 147.553448,29.2523072 C147.528545,29.1612845 147.565113,29.0646133 147.644106,29.0126452 L151.403802,26.8354839 C151.471398,26.7965788 151.554657,26.7964761 151.622349,26.8352143 C151.690042,26.8739526 151.731936,26.9456765 151.732319,27.0234839 L151.732319,29.2006452 C151.732319,29.3212214 151.634265,29.4189677 151.513308,29.4189677 L151.525475,29.4129032 Z M148.556654,28.9823226 L151.306464,28.9823226 L151.306464,27.3934194 L148.556654,28.9823226 Z" id="Shape" fill="#6B67F5"></path>
                        <path d="M42.6220532,63.5803871 L35.1756654,67.9225806 C33.7966242,68.7191656 32.095391,68.7191656 30.7163498,67.9225806 L23.8539924,63.9745806 C23.3450362,63.6806963 23.0316869,63.1387771 23.0316869,62.5524516 C23.0316869,61.9661261 23.3450362,61.424207 23.8539924,61.1303226 L31.3003802,56.8184516 C32.6794214,56.0218666 34.3806546,56.0218666 35.7596958,56.8184516 L42.6220532,60.7664516 C43.1164581,61.06399 43.4186421,61.5977197 43.4186421,62.1734194 C43.4186421,62.749119 43.1164581,63.2828488 42.6220532,63.5803871 Z" id="Shape" fill="#6B67F5"></path>
                        <path d="M138.463878,17.672 L131.01749,21.983871 C129.638449,22.7804559 127.937216,22.7804559 126.558175,21.983871 L119.695817,18.035871 C119.186861,17.7419866 118.873512,17.2000675 118.873512,16.6137419 C118.873512,16.0274164 119.186861,15.4854973 119.695817,15.1916129 L127.148289,10.916129 C128.52733,10.1195441 130.228563,10.1195441 131.607605,10.916129 L138.469962,14.864129 C138.960871,15.1633932 139.259737,15.6961523 139.258494,16.2697688 C139.257251,16.8433853 138.95608,17.3748525 138.463878,17.672 Z" id="Shape" fill="#F5C484"></path>
                        <path d="M34.0258555,65.2420645 C34.0772662,65.262025 34.1111218,65.3113882 34.1111218,65.3663871 C34.1111218,65.421386 34.0772662,65.4707492 34.0258555,65.4907097 L33.1619772,65.988 C33.0263429,66.0571094 32.8656723,66.0571094 32.730038,65.988 L28.8243346,63.744129 C28.7729239,63.7241685 28.7390683,63.6748054 28.7390683,63.6198065 C28.7390683,63.5648075 28.7729239,63.5154444 28.8243346,63.4954839 L29.6882129,62.9981935 C29.8240822,62.9300642 29.9842828,62.9300642 30.1201521,62.9981935 L34.0258555,65.2420645 Z" id="Shape" fill="#FFFFFF"></path>
                        <path d="M36.660076,59.4322581 C36.9095057,59.5778065 37.0494297,59.784 36.9642586,60.0387097 C37.1330759,60.0638706 37.2959148,60.1193493 37.4448669,60.2024516 C37.7064639,60.3540645 37.8403042,60.5784516 37.7551331,60.8089032 C37.9239505,60.8340641 38.0867893,60.8895429 38.2357414,60.9726452 C38.4973384,61.1242581 38.6311787,61.3486452 38.5460076,61.5790968 C38.7124298,61.6026878 38.8731953,61.6561077 39.0205323,61.7367742 C39.4342205,61.9732903 39.4889734,62.3917419 39.0205323,62.6525161 L34.6768061,65.1086452 L30.4669202,62.6828387 C30.4669202,62.616129 30.5764259,61.288 30.5825095,60.8270968 C30.5653429,60.5302103 30.4158097,60.2565575 30.1749049,60.0811613 C30.0714829,59.9962581 29.9315589,59.9234839 29.8828897,59.8203871 C29.8405644,59.7248144 29.8680285,59.6128148 29.9498099,59.5474839 C30.1504122,59.3887893 30.3897959,59.2862199 30.643346,59.2503226 C31.2108376,59.1696915 31.7890746,59.2807054 32.2859316,59.5656774 C32.4450047,59.6530924 32.5871561,59.7680988 32.7057034,59.9052903 L33.1863118,60.5117419 C33.2836502,60.4571613 35.1513308,59.3655484 35.2,59.3473548 C35.6762205,59.16456 36.2084063,59.1955066 36.660076,59.4322581 Z" id="Shape" fill="#FFFFFF"></path>
                        <path d="M128.060837,18.1086452 C128.112247,18.1286057 128.146103,18.1779688 128.146103,18.2329677 C128.146103,18.2879667 128.112247,18.3373298 128.060837,18.3572903 L127.196958,18.8545806 C127.061089,18.92271 126.900888,18.92271 126.765019,18.8545806 L122.889734,16.6167742 C122.768061,16.5500645 122.768061,16.4348387 122.889734,16.368129 L123.753612,15.8708387 C123.889481,15.8027094 124.049682,15.8027094 124.185551,15.8708387 L128.060837,18.1086452 Z" id="Shape" fill="#FFFFFF"></path>
                        <path d="M134.235741,14.3243871 C134.60076,14.5366452 134.728517,14.8823226 134.381749,15.1612903 C134.345247,15.1612903 132.465399,16.2710968 132.368061,16.3256774 L133.402281,16.6046452 C133.61491,16.658419 133.819472,16.7399863 134.010646,16.8472258 C134.448669,17.095871 134.734601,17.4536774 134.564259,17.7932903 C134.444574,17.9832717 134.261438,18.1250237 134.047148,18.1935484 C133.895912,18.2415592 133.735579,18.2540134 133.578707,18.2299355 C133.420435,18.1942842 133.267184,18.1392875 133.122433,18.0661935 C132.709023,17.9076565 132.269556,17.8274439 131.826616,17.8296774 C131.023574,17.8296774 128.730038,17.9024516 128.608365,17.9024516 L124.398479,15.4766452 L128.760456,12.9538065 C129.258167,12.7049966 129.844495,12.7049966 130.342205,12.9538065 C130.458661,13.0156019 130.553979,13.1106203 130.61597,13.2267097 C130.970675,13.1762362 131.332332,13.2377366 131.65019,13.4025806 C131.769106,13.4659212 131.866498,13.5630066 131.930038,13.6815484 C132.284737,13.631485 132.646269,13.6929641 132.964259,13.8574194 C133.083174,13.9207599 133.180566,14.0178453 133.244106,14.1363871 C133.586266,14.0933287 133.933326,14.1591263 134.235741,14.3243871 Z" id="Shape" fill="#FFFFFF"></path>
                    </g>
                    <g id="Group-25" transform="translate(113.000000, 45.000000)">
                        <polygon id="Shape" fill="#D8ADFF" points="3.04878049 43.3972603 0.0865460268 41.724298 0 12.6575342 2.96223446 14.3304965"></polygon>
                        <polygon id="Shape" fill="#D8ADFF" points="2.95016455 13.8630137 0 12.2161463 22.0498354 0 25 1.64686737"></polygon>
                        <polygon id="Shape" fill="#A852D9" points="24.3047701 1.80821918 24.3902439 31.3762689 17.101662 35.5802939 13.3019642 42.1660815 9.47895532 39.9824752 2.52449817 44 2.43902439 14.4319503"></polygon>
                        <path d="M17.1802922,21.6986301 C19.2995606,21.9541877 20.7239868,23.8453135 20.7317073,26.9513205 L6.09756098,35.5616438 C6.09756098,32.4517051 7.49496561,28.9014211 9.61037373,26.1531947 C9.7442122,26.3703524 9.90082794,26.5720511 10.077462,26.7547378 C10.9884772,27.6590183 12.1658485,27.7612413 13.3895426,27.0417486 C14.6132367,26.3222558 15.7906081,24.8360904 16.6900425,22.8663315 C16.879194,22.484961 17.0258829,22.0917956 17.1802922,21.6986301 Z" id="Shape" fill="#FFFFFF"></path>
                        <path d="M14.0126642,16.7731865 C16.033443,15.613098 17.6750815,16.5450357 17.6828988,18.8420108 C17.6907162,21.1389859 16.0608037,25.0214151 14.0400249,26.1815035 C12.0192461,27.3415919 10.3736989,25.334639 10.3658816,23.0376639 C10.3580643,20.7406888 11.9918854,17.925541 14.0126642,16.7731865 Z" id="Shape" fill="#FFFFFF"></path>
                    </g>
                    <g id="Group" transform="translate(7.000000, 15.000000)">
                        <polygon id="Shape" fill="#262836" points="94.8660256 23.3264 94.8538462 28.6395 84.1176282 34.8859 84.1298077 29.5728"></polygon>
                        <polygon id="Shape" fill="#4A4D69" points="84.1724359 36.4841 84.1541667 41.8033 72.2426282 41.7972 72.2548077 36.4841"></polygon>
                        <polygon id="Shape" fill="#262836" points="72.1330128 36.6 72.1208333 41.9131 40.1923077 60.4998 40.2044872 55.1867"></polygon>
                        <polygon id="Shape" fill="#4A4D69" points="40.3445513 55.6564 40.3323718 60.9695 0 37.6492 0.0182692308 32.33"></polygon>
                        <polygon id="Shape" fill="#676D94" points="94.8660256 23.3264 84.1298077 29.5728 84.1724359 36.4841 72.2548077 36.4841 40.3262821 55.0708 0 31.7444 54.5397436 0"></polygon>
                    </g>
                    <g id="coins" transform="translate(24.000000, 0.000000)">
                        <polygon id="Shape" fill="#A86523" points="56 35.6336634 55.985362 39.6722895 48.6956522 55.5643564 48.7054108 51.5208703"></polygon>
                        <polygon id="Shape" fill="#E88C31" points="48.6956522 51.9405941 48.6857266 56.0594059 20.6956522 60.3960396 20.7105405 56.2772277"></polygon>
                        <polygon id="Shape" fill="#995C20" points="20.6956522 56.9488771 20.6806879 61 0 49.3432834 0.0149643183 45.2970297"></polygon>
                        <polygon id="Shape" fill="#B86F27" points="55.3913043 36.4815539 48.0499923 52.4840568 20.3592507 56.7722772 0 45.0579948 7.3314909 29.0505966 35.0320537 24.7623762"></polygon>
                        <polygon id="Shape" fill="#A86523" points="56 31.4059406 55.985362 35.4445668 48.6956522 51.3366337 48.7054108 47.2931475"></polygon>
                        <polygon id="Shape" fill="#E88C31" points="48.6956522 47.1089109 48.6857266 51.2277228 20.6956522 55.5643564 20.7105405 51.450495"></polygon>
                        <polygon id="Shape" fill="#995C20" points="20.6956522 50.9141423 20.6806879 54.960396 0 43.3036795 0.0149643183 39.2574257"></polygon>
                        <polygon id="Shape" fill="#B86F27" points="55.3913043 31.0441184 48.0499923 47.0441745 20.3592507 51.3366337 0 39.6192479 7.3314909 23.6142974 35.0320537 19.3267327"></polygon>
                        <polygon id="Shape" fill="#A86523" points="56 24.7623762 55.985362 28.8010024 48.6956522 44.6930693 48.7054108 40.6495832"></polygon>
                        <polygon id="Shape" fill="#E88C31" points="48.6956522 40.4653465 48.6857266 44.5841584 20.6956522 48.9207921 20.7105405 44.8069307"></polygon>
                        <polygon id="Shape" fill="#995C20" points="20.6956522 44.2705779 20.6806879 48.3168317 0 36.6649843 0.0149643183 32.6138614"></polygon>
                        <polygon id="Shape" fill="#B86F27" points="55.3913043 24.4005541 48.0499923 40.4006101 20.3592507 44.6930693 0 32.9756835 7.3314909 16.970733 35.0320537 12.6831683"></polygon>
                        <polygon id="Shape" fill="#A86523" points="55.985362 22.7662584 48.6956522 38.6534653 48.7054108 34.6099792 56 18.7227723"></polygon>
                        <polygon id="Shape" fill="#E88C31" points="48.6956522 34.4257426 48.6857266 38.5445545 20.6956522 42.8811881 20.7105405 38.7673267"></polygon>
                        <polygon id="Shape" fill="#995C20" points="20.6956522 38.8349344 20.6806879 42.8811881 0 31.2293407 0.0149643183 27.1782178"></polygon>
                        <polygon id="Shape" fill="#B86F27" points="55.3913043 18.3609501 48.0499923 34.3610061 20.3592507 38.6534653 0 26.9360796 7.3314909 10.9311291 35.0320537 6.64356436"></polygon>
                        <polygon id="Shape" fill="#A86523" points="55.3913043 11.4752475 55.3766664 15.5187337 48.0869565 31.4059406 48.0967152 27.3624545"></polygon>
                        <polygon id="Shape" fill="#E88C31" points="48.6956522 28.3861386 48.6857266 32.5025404 20.6956522 36.8415842 20.7105405 32.7251823"></polygon>
                        <polygon id="Shape" fill="#995C20" points="20.6956522 32.1877567 20.6806879 36.2376238 0 24.5845206 0.0149643183 20.5346535"></polygon>
                        <polygon id="Shape" fill="#E89C51" points="55.3913043 11.7173858 48.0499923 27.7174418 20.3592507 32.009901 0 20.2925152 7.3314909 4.28756472 35.0320537 0"></polygon>
                        <path d="M27.3937525,27.7821782 C17.3219979,27.7821782 9.13043478,22.6321424 9.13043478,16.3069307 C9.13043478,9.98171896 17.3219979,4.83168317 27.3937525,4.83168317 C37.4655071,4.83168317 45.6521739,9.95703038 45.6521739,16.3069307 C45.6521739,22.656831 37.4606108,27.7821782 27.3937525,27.7821782 Z M27.3937525,5.32545458 C17.6010889,5.32545458 9.62006797,10.2631687 9.62006797,16.3069307 C9.62006797,22.3506927 17.5912962,27.2884068 27.3937525,27.2884068 C37.1962088,27.2884068 45.1625407,22.3506927 45.1625407,16.3069307 C45.1625407,10.2631687 37.1913125,5.32545458 27.3937525,5.32545458 Z" id="Shape" fill="#995C20"></path>
                        <path d="M35.8092911,15.9635785 C35.8479418,15.9762788 35.8797733,16.0036531 35.8976457,16.0395614 C35.9155181,16.0754697 35.9179356,16.1169063 35.9043559,16.1545771 C35.8885421,16.1980435 35.8536415,16.2322485 35.8092911,16.2477471 C35.6493188,16.3266586 35.4606668,16.3266586 35.3006945,16.2477471 L28.1470694,12.1995088 L28.3276925,14.9526835 C28.3276925,15.0691461 28.1850953,15.1576576 27.9854593,15.1576576 C27.8927789,15.161411 27.8007927,15.1404826 27.7192779,15.0970971 C27.6614093,15.0736779 27.6200421,15.0225589 27.6099534,14.9620006 L27.3913043,11.7010491 C27.3913043,11.6171961 27.4768627,11.5380015 27.6099534,11.5100505 C27.7371979,11.4636465 27.8772277,11.4636465 28.0044722,11.5100505 L35.8092911,15.9635785 Z" id="Shape" fill="#FFFFFF"></path>
                        <path d="M36.6009613,11.0926056 C41.3557487,13.8035385 41.3557487,18.1996458 36.6556141,20.9154633 C31.9554794,23.6312807 24.194792,23.6263961 19.4101941,20.9154633 C14.6255962,18.2045304 14.6554068,13.8035385 19.3555414,11.0926056 C24.055676,8.38167272 31.8263003,8.38167272 36.6009613,11.0926056 Z M28.0403567,22.5224847 C30.8535541,22.5912221 33.6373969,21.94696 36.1239921,20.6516968 C38.3498486,19.3817103 39.4627769,17.7209586 39.45284,16.0406687 C39.4429032,14.3603787 38.3250065,12.6947425 36.0693393,11.4296405 C30.9881161,8.88979324 24.9783235,8.88979324 19.8971002,11.4296405 C17.6712437,12.7045116 16.5583154,14.3603787 16.5682523,16.0406687 C16.5781891,17.7209586 17.7010543,19.3817103 19.9418161,20.6516968 C22.4393904,21.9416002 25.2297868,22.5854005 28.0502936,22.5224847 L28.0403567,22.5224847 Z" id="Shape" fill="#FFFFFF"></path>
                        <path d="M31.5381485,16.6205748 C31.6035174,16.6480589 31.6473897,16.7072779 31.6521739,16.7744868 C31.6521739,16.8910869 31.4736994,16.9703749 31.2605214,16.9703749 L20.8197606,16.7371748 L28.2561999,20.7948563 C28.2965126,20.8075717 28.3297128,20.8349783 28.3483537,20.8709289 C28.3669947,20.9068796 28.3695161,20.9483651 28.3553525,20.9860804 C28.3372131,21.0285977 28.301394,21.0622954 28.2561999,21.0793604 C28.0893489,21.158365 27.8925849,21.158365 27.7257339,21.0793604 L19.5902693,16.6578868 C19.4762438,16.5972548 19.4514557,16.5086387 19.5059896,16.4340147 C19.6016189,16.3448175 19.733587,16.2988983 19.8678963,16.3080867 L31.2704367,16.5692708 C31.3628232,16.5651288 31.454846,16.5827639 31.5381485,16.6205748 Z" id="Shape" fill="#FFFFFF"></path>
                    </g>
                </g>
            </g>
        </g>
    </g>
</svg>