<?xml version="1.0" encoding="UTF-8"?>
<svg width="30px" height="30px" viewBox="0 0 30 30" version="1.1" xmlns="http://www.w3.org/2000/svg" xmlns:xlink="http://www.w3.org/1999/xlink">
    <!-- Generator: Sketch 51.3 (57544) - http://www.bohemiancoding.com/sketch -->
    <title>Shape</title>
    <desc>Created with Sketch.</desc>
    <defs></defs>
    <g id="Page-1" stroke="none" stroke-width="1" fill="none" fill-rule="evenodd">
        <g id="ForumPage-Copy" transform="translate(-982.000000, -2475.000000)" fill="#3347BE" fill-rule="nonzero">
            <g id="Group-16" transform="translate(927.000000, 1106.000000)">
                <g id="you-may-also-like" transform="translate(0.000000, 730.000000)">
                    <g id="info" transform="translate(0.000000, 461.000000)">
                        <g id="website-bttn" transform="translate(35.000000, 161.000000)">
                            <path d="M35.0000001,17.5000166 C27.0038672,17.5000166 20.5000001,24.0038871 20.5000001,32.0000334 C20.5000001,39.9961764 27.0038672,46.5000334 35.0000001,46.5000334 C42.9961297,46.5000334 49.5000001,39.9961764 49.5000001,32.0000334 C49.5000001,24.0038871 42.9961297,17.5000166 35.0000001,17.5000166 Z M33.9883722,19.6918771 L33.9883722,24.2336648 L30.4792879,24.2336648 C31.3010097,21.9180216 32.4994279,20.2221454 33.9883722,19.6918771 Z M36.011628,19.6918771 C37.5005723,20.2221454 38.6989906,21.9180216 39.5207123,24.2336648 L36.011628,24.2336648 L36.011628,19.6918771 Z M30.3317589,20.4295224 C29.5905324,21.4777105 28.9565957,22.7640055 28.4560321,24.2336648 L25.2314682,24.2336648 C26.5630065,22.5590126 28.3151022,21.2416742 30.3317589,20.4295224 Z M39.6682414,20.4295224 C41.684898,21.2416742 43.4369971,22.5590126 44.7685321,24.2336648 L41.5439681,24.2336648 C41.0434045,22.7640055 40.4094679,21.4777105 39.6682414,20.4295224 Z M23.9247821,26.2569207 L27.8764536,26.2569207 C27.5373593,27.7204596 27.3280502,29.3141243 27.2652618,30.9778509 L22.5654071,30.9778509 C22.7022366,29.2859605 23.1826553,27.6891497 23.9247821,26.2569207 Z M29.8891717,26.2569207 L33.9883722,26.2569207 L33.9883722,30.9778509 L29.2885176,30.9778509 C29.3492861,29.3214653 29.5529065,27.7136817 29.8891717,26.2569207 Z M36.011628,26.2569207 L40.1108286,26.2569207 C40.4470937,27.7136817 40.6507142,29.3214653 40.7114827,30.9778509 L36.011628,30.9778509 L36.011628,26.2569207 Z M42.1235466,26.2569207 L46.0752181,26.2569207 C46.817345,27.6891497 47.2977637,29.2859605 47.4345931,30.9778509 L42.7347385,30.9778509 C42.6719501,29.3141243 42.4626409,27.7204596 42.1235466,26.2569207 Z M22.5654071,33.0011067 L27.2652618,33.0011067 C27.3262495,34.6684718 27.5379124,36.2559183 27.8764536,37.7220369 L23.9142443,37.7220369 C23.1752873,36.2892683 22.6993534,34.6925823 22.5654071,33.0011067 Z M29.2885176,33.0011067 L33.9883722,33.0011067 L33.9883722,37.7220369 L29.8891717,37.7220369 C29.5534191,36.2643485 29.3485779,34.6580857 29.2885176,33.0011067 Z M36.011628,33.0011067 L40.7114827,33.0011067 C40.6514223,34.6580857 40.4465812,36.2643485 40.1108286,37.7220369 L36.011628,37.7220369 L36.011628,33.0011067 Z M42.7347385,33.0011067 L47.4345931,33.0011067 C47.3006468,34.6925823 46.824713,36.2892683 46.0857559,37.7220369 L42.1235466,37.7220369 C42.4620879,36.2559183 42.6737508,34.6684718 42.7347385,33.0011067 Z M25.2209304,39.7452927 L28.4454943,39.7452927 C28.9471808,41.2226741 29.5868163,42.5186369 30.3317589,43.5705276 C28.3094203,42.756066 26.5538311,41.426652 25.2209304,39.7452927 Z M30.4687501,39.7452927 L33.9883722,39.7452927 L33.9883722,44.2976183 C32.4968078,43.7664125 31.2905562,42.0672148 30.4687501,39.7452927 Z M36.011628,39.7452927 L39.5312501,39.7452927 C38.7094441,42.0672148 37.5031925,43.7664125 36.011628,44.2976183 L36.011628,39.7452927 Z M41.5545059,39.7452927 L44.7790699,39.7452927 C43.4461692,41.426652 41.6905766,42.756066 39.6682414,43.5705276 C40.413184,42.5186369 41.0528194,41.2226741 41.5545059,39.7452927 Z" id="Shape"></path>
                        </g>
                    </g>
                </g>
            </g>
        </g>
    </g>
</svg>