<?xml version="1.0" encoding="UTF-8"?>
<svg width="37px" height="31px" viewBox="0 0 37 31" version="1.1" xmlns="http://www.w3.org/2000/svg" xmlns:xlink="http://www.w3.org/1999/xlink">
    <!-- Generator: Sketch 51.3 (57544) - http://www.bohemiancoding.com/sketch -->
    <title>Shape</title>
    <desc>Created with Sketch.</desc>
    <defs></defs>
    <g id="Page-1" stroke="none" stroke-width="1" fill="none" fill-rule="evenodd">
        <g id="ForumPage-Copy" transform="translate(-979.000000, -2395.000000)" fill="#3347BE" fill-rule="nonzero">
            <g id="Group-16" transform="translate(927.000000, 1106.000000)">
                <g id="you-may-also-like" transform="translate(0.000000, 730.000000)">
                    <g id="info" transform="translate(0.000000, 461.000000)">
                        <g id="whitepaper-bttn" transform="translate(35.000000, 81.000000)">
                            <path d="M35.9266285,17 C35.9266285,17 29.1282017,17.7116391 26.5345459,27.9554579 C24.2468562,36.9912994 17,38.4779497 17,38.4779497 L34.1982279,48.0064138 C34.1982279,48.0064138 41.4451709,46.5197604 43.732859,37.4840894 C46.3264311,27.2401012 53.1249432,26.5284617 53.1249432,26.5284617 L35.9266285,17 Z M41.7197024,36.974399 C40.164101,43.1185628 36.0624172,45.1809817 34.4441169,45.7685761 L21.6008127,38.6528601 C24.1453749,36.9928194 27.1607576,33.9431317 28.5476172,28.4651482 C30.3242653,21.448294 34.1535303,19.6381852 35.6056221,19.1960941 L48.4372656,26.3053882 C46.0096486,27.9627251 43.2093122,31.0911661 41.7197024,36.974399 Z" id="Shape"></path>
                        </g>
                    </g>
                </g>
            </g>
        </g>
    </g>
</svg>