<?xml version="1.0" encoding="UTF-8"?>
<svg width="153px" height="25px" viewBox="0 0 153 25" version="1.1" xmlns="http://www.w3.org/2000/svg" xmlns:xlink="http://www.w3.org/1999/xlink">
    <!-- Generator: Sketch 51.3 (57544) - http://www.bohemiancoding.com/sketch -->
    <title>Group 18</title>
    <desc>Created with Sketch.</desc>
    <defs></defs>
    <g id="Page-1" stroke="none" stroke-width="1" fill="none" fill-rule="evenodd">
        <g id="Profile-Copy" transform="translate(-28.000000, -22.000000)" fill="#FFFFFF" fill-rule="nonzero">
            <g id="Group-18" transform="translate(28.000000, 22.000000)">
                <polygon id="Shape" points="21 3 21 25 16.6121324 25 16.6121324 13.442874 11.2205882 20.2838634 9.79227941 20.2838634 4.40073529 13.442874 4.40073529 25 0 25 0 3 1.42830882 3 10.5 14.7255595 19.5716912 3"></polygon>
                <path d="M39.7037037,17.9816514 L28.3800322,17.9816514 C28.6634461,19.0084098 29.2045089,19.8012232 29.9903382,20.3600917 C30.7890499,20.9189602 31.7681159,21.191896 32.9404187,21.191896 C34.5249597,21.191896 36.0193237,20.6460245 37.4363929,19.5542813 L39.2657005,22.5695719 C37.3590982,24.1941896 35.2077295,25 32.8244767,25 C30.2866345,25 28.1867955,24.1811927 26.5120773,22.5565749 C24.8373591,20.9189602 24,18.9044343 24,16.5 C24,14.1085627 24.8115942,12.0940367 26.4219002,10.456422 C28.0322061,8.81880734 30.041868,8 32.4251208,8 C34.6537842,8 36.4830918,8.72782875 37.8872786,10.1704893 C39.2914654,11.6131498 40,13.4067278 40,15.5512232 C39.9871176,16.3310398 39.8969404,17.1498471 39.7037037,17.9816514 Z M29.8099839,12.4579511 C29.1143317,13.0428135 28.6376812,13.8486239 28.3800322,14.8493884 L35.7359098,14.8493884 C35.7101449,13.8486239 35.3623188,13.0428135 34.6924316,12.4579511 C34.0225443,11.8600917 33.2109501,11.5611621 32.257649,11.5611621 C31.3172303,11.574159 30.4927536,11.8730887 29.8099839,12.4579511 Z" id="Shape"></path>
                <path d="M56.3565217,9.82256824 C57.4521739,11.0330383 58,12.6558662 58,14.6777502 L58,25 L53.5782609,25 L53.5782609,15.2896361 C53.5782609,14.3319016 53.2913043,13.5470914 52.7304348,12.9485073 C52.1695652,12.3499232 51.4391304,12.0572821 50.5391304,12.0572821 C49.6391304,12.0572821 48.8956522,12.3499232 48.3217391,12.9485073 C47.7347826,13.5470914 47.4478261,14.3185997 47.4478261,15.2896361 L47.4478261,25 L43,25 L43,8.37266459 L47.0956522,8.37266459 L47.0956522,9.87577571 C48.3217391,8.62540009 49.9130435,8.00021228 51.8695652,8.00021228 C53.7608696,7.98691041 55.2478261,8.59879635 56.3565217,9.82256824 Z" id="Shape"></path>
                <polygon id="Shape" points="66 25 62 25 62 0 66 0"></polygon>
                <path d="M84.3557047,10.4471669 C86.114094,12.0872894 87,14.0918836 87,16.4869832 C87,18.8820827 86.114094,20.8996937 84.3557047,22.5398162 C82.5973154,24.1799387 80.4630872,25 77.9530201,25 C75.442953,25 73.3221477,24.1799387 71.590604,22.5528331 C69.8590604,20.9257274 69,18.8950995 69,16.4869832 C69,14.1049005 69.8724832,12.0872894 71.6174497,10.4471669 C73.3624161,8.82006126 75.4832215,8 77.9932886,8 C80.4630872,8 82.5973154,8.82006126 84.3557047,10.4471669 Z M74.8657718,13.3108729 C74.0469799,14.1569678 73.6442953,15.2243492 73.6442953,16.5260337 C73.6442953,17.8147014 74.0469799,18.8690658 74.8657718,19.6891271 C75.6711409,20.5091884 76.7181208,20.9257274 77.9798658,20.9257274 C79.2281879,20.9257274 80.261745,20.5091884 81.0805369,19.6761103 C81.9127517,18.8430322 82.3154362,17.7886677 82.3154362,16.5260337 C82.3154362,15.2503828 81.9127517,14.1830015 81.0805369,13.3238897 C80.2483221,12.4777948 79.2147651,12.0352221 77.9798658,12.0352221 C76.7181208,12.0352221 75.6711409,12.4647779 74.8657718,13.3108729 Z" id="Shape"></path>
                <path d="M115.781744,6.16482236 C117.931539,8.27897496 119,10.8928363 119,13.9935935 C119,17.0815376 117.931539,19.6825859 115.781744,21.8095515 C113.631949,23.9365172 111.031597,25 107.98069,25 C104.904037,25 102.303686,23.9365172 100.179637,21.8095515 C98.0555881,19.6825859 97,17.0815376 97,13.9935935 C97,10.8928363 98.0555881,8.27897496 100.179637,6.16482236 C102.303686,4.05066977 104.904037,3 107.98069,3 C111.031597,3 113.631949,4.05066977 115.781744,6.16482236 Z M101.402575,7.25393128 C99.6518432,9.04775772 98.7636044,11.2900408 98.7636044,13.9679674 C98.7636044,16.645894 99.6389702,18.8881771 101.402575,20.6948165 C103.153306,22.5142691 105.354593,23.4111823 108.006437,23.4111823 C110.632534,23.4111823 112.820948,22.501456 114.571679,20.6948165 C116.322411,18.875364 117.21065,16.633081 117.21065,13.9679674 C117.21065,11.3156669 116.322411,9.07338381 114.558806,7.26674432 C112.795202,5.44729179 110.606788,4.55037857 108.006437,4.55037857 C105.367466,4.55037857 103.166179,5.44729179 101.402575,7.25393128 Z" id="Shape"></path>
                <path d="M133.38349,9.68218299 C134.456635,10.812199 135,12.2760835 135,14.0995185 L135,24 L133.288401,24 L133.288401,14.2022472 C133.288401,12.8154093 132.867294,11.6982343 132.038662,10.8378812 C131.196447,9.964687 130.068966,9.54093098 128.656217,9.54093098 C127.216301,9.54093098 126.034483,9.97752809 125.097179,10.8635634 C124.173459,11.7495987 123.711599,12.8667737 123.711599,14.2022472 L123.711599,24 L122,24 L122,8.32102729 L123.643678,8.32102729 L123.643678,10.4269663 C124.852665,8.80898876 126.6186,8 128.9279,8 C130.829676,8 132.310345,8.55216693 133.38349,9.68218299 Z" id="Shape"></path>
                <path d="M152.858003,16.3587726 L139.716867,16.3587726 C139.807229,18.15893 140.452668,19.631786 141.653184,20.7773407 C142.853701,21.9228954 144.364028,22.501967 146.171256,22.501967 C148.262478,22.501967 150.005164,21.6963021 151.425129,20.0849725 L152.47074,21.1424076 C150.792599,23.043273 148.688468,24 146.145439,24 C143.860585,24 141.937177,23.2321007 140.362306,21.6963021 C138.787435,20.1605035 138,18.2596381 138,16.0188828 C138,13.8033045 138.774527,11.902439 140.310671,10.3414634 C141.846816,8.7804878 143.731497,8 145.951807,8 C147.92685,8 149.604991,8.62942565 150.960413,9.88827695 C152.315835,11.1471282 153,12.7962234 153,14.8355625 C152.987091,15.5153423 152.948365,16.0188828 152.858003,16.3587726 Z M141.795181,10.9960661 C140.659208,12.0283242 139.987952,13.3375295 139.768503,14.9236821 L151.283133,14.9236821 C151.347676,13.2619984 150.844234,11.9402046 149.785714,10.945712 C148.714286,9.95121951 147.410499,9.44767899 145.874355,9.44767899 C144.286575,9.46026751 142.931153,9.96380803 141.795181,10.9960661 Z" id="Shape"></path>
            </g>
        </g>
    </g>
</svg>