<?xml version="1.0" encoding="UTF-8"?>
<svg width="144px" height="145px" viewBox="0 0 144 145" version="1.1" xmlns="http://www.w3.org/2000/svg" xmlns:xlink="http://www.w3.org/1999/xlink">
    <!-- Generator: Sketch 51.3 (57544) - http://www.bohemiancoding.com/sketch -->
    <title>M1 Logo</title>
    <desc>Created with Sketch.</desc>
    <defs></defs>
    <g id="Page-1" stroke="none" stroke-width="1" fill="none" fill-rule="evenodd">
        <g id="Questions" transform="translate(-67.000000, -246.000000)" fill="#0942AA">
            <g id="header" transform="translate(3.000000, 116.000000)">
                <g id="header-block" transform="translate(64.000000, 127.000000)">
                    <g id="M1-Logo" transform="translate(0.000000, 3.000000)">
                        <g id="Shape">
                            <path d="M84.5108312,69.3478584 L98.4265763,55.1939909 L98.4265763,99.3881209 C98.4265763,101.561121 100.072214,103 101.97769,103 C103.883165,103 105.268966,101.326202 105.268966,99.6524048 L105.268966,46.5313541 C105.268966,45.0924754 104.547195,43.6535968 103.132523,43.1837588 C101.948819,42.7139209 100.303181,43.1837588 99.3504432,44.1527996 L79.5161758,64.3264656 C78.1015046,65.5304253 78.1015046,67.9383446 79.5161758,69.3772233 C80.7287511,70.7867371 83.09616,70.7867371 84.5108312,69.3478584 Z" fill-rule="nonzero"></path>
                            <path d="M83.3643533,89.0840258 C84.7636064,87.8803234 84.7636064,85.4729185 83.3643533,84.0343474 L44.5850526,44.1947334 C43.6426985,42.991031 42.2434454,42.7561622 40.8441922,43.2258998 C39.6733886,43.9598647 38.7310345,45.1342085 38.7310345,46.5727796 L38.7310345,99.3888928 C38.7310345,101.561429 40.3587371,103 42.2434454,103 C44.1281536,103 45.7558562,101.32656 45.7558562,99.6531201 L45.7558562,55.2335653 L78.4241331,89.0840258 C79.6234929,90.522597 81.9651002,90.522597 83.3643533,89.0840258 Z" fill-rule="nonzero"></path>
                            <path d="M144,72.5 C144,32.422 111.8016,0 72,0 C32.1984,0 0,32.422 0,72.5 C0,112.578 32.4576,145 72,145 C111.8016,145 144,112.578 144,72.5 Z M7.8624,72.761 C7.8624,37.265 36.5184,8.178 72,8.178 C107.4816,8.178 136.3968,37.294 136.3968,72.761 C136.3968,108.228 107.2512,137.344 72,137.344 C36.7488,137.344 7.8624,108.228 7.8624,72.761 Z" fill-rule="nonzero"></path>
                        </g>
                    </g>
                </g>
            </g>
        </g>
    </g>
</svg>