<?xml version="1.0" encoding="UTF-8"?>
<svg width="16px" height="16px" viewBox="0 0 16 16" version="1.1" xmlns="http://www.w3.org/2000/svg" xmlns:xlink="http://www.w3.org/1999/xlink">
    <!-- Generator: Sketch 51.3 (57544) - http://www.bohemiancoding.com/sketch -->
    <title>slack</title>
    <desc>Created with Sketch.</desc>
    <defs></defs>
    <g id="Page-1" stroke="none" stroke-width="1" fill="none" fill-rule="evenodd">
        <g id="Forum-Copy" transform="translate(-1066.000000, -2560.000000)" fill-rule="nonzero">
            <g id="Group-16" transform="translate(927.000000, 1106.000000)">
                <g id="you-may-also-like" transform="translate(0.000000, 730.000000)">
                    <g id="info" transform="translate(0.000000, 461.000000)">
                        <g id="social" transform="translate(38.000000, 263.000000)">
                            <g id="slack" transform="translate(101.250000, 0.000000)">
                                <polygon id="Shape" fill="#000000" points="6.174375 7.0368 6.82125 9.0112 8.824375 8.32384 8.1775 6.35648 6.174375 7.04768"></polygon>
                                <path d="M11.765,8.9952 L10.793125,9.32864 L11.130625,10.35904 C11.266875,10.77504 11.04625,11.22624 10.639375,11.3664 C10.545625,11.3952 10.46125,11.40928 10.3675,11.40672 C10.048125,11.39712 9.7575,11.1904 9.645625,10.86336 L9.308125,9.83488 L7.301875,10.5216 L7.63875,11.55072 C7.770625,11.968 7.554375,12.41984 7.1425,12.55872 C7.04875,12.58944 6.964375,12.6016 6.870625,12.59968 C6.551875,12.59008 6.260625,12.38208 6.148125,12.05568 L5.81125,11.01952 L4.835625,11.35488 C4.741875,11.38368 4.6575,11.39392 4.56375,11.39392 C4.244375,11.38368 3.95375,11.17312 3.841875,10.84672 C3.70125,10.42432 3.92625,9.97376 4.329375,9.83872 L5.304375,9.50272 L4.6875,7.5264 L3.718125,7.8624 C3.63,7.89312 3.54,7.90464 3.450625,7.90336 C3.14125,7.89312 2.84125,7.68704 2.7375,7.36064 C2.606875,6.94464 2.821875,6.49408 3.235,6.35328 L4.21,6.02048 L3.8725,4.99328 C3.74125,4.57472 3.9575,4.12352 4.37,3.98528 C4.781875,3.84448 5.221875,4.07232 5.35375,4.4864 L5.690625,5.51552 L7.6875,4.82816 L7.35,3.80096 C7.219375,3.38816 7.434375,2.93696 7.843125,2.7936 C8.250625,2.65856 8.6925,2.88 8.8275,3.29984 L9.165,4.33728 L10.136875,4.01088 C10.54375,3.87072 10.984375,4.09728 11.12125,4.50944 C11.2575,4.928 11.036875,5.3792 10.63125,5.51744 L9.658125,5.8528 L10.305,7.82784 L11.274375,7.4976 C11.681875,7.36256 12.123125,7.584 12.25875,8.0064 C12.39625,8.4288 12.174375,8.88 11.771875,9.01376 L11.765,8.9952 Z M14.371875,5.56736 C12.825,0.29184 10.59125,-0.94144 5.436875,0.6432 C0.285,2.22656 -0.919375,4.51264 0.628125,9.79264 C2.175,15.06944 4.406875,16.30144 9.563125,14.7168 C14.71625,13.1328 15.919375,10.84736 14.371875,5.56736 Z" id="Shape" fill="#323232"></path>
                            </g>
                        </g>
                    </g>
                </g>
            </g>
        </g>
    </g>
</svg>