<?xml version="1.0" encoding="UTF-8"?>
<svg width="15px" height="14px" viewBox="0 0 15 14" version="1.1" xmlns="http://www.w3.org/2000/svg" xmlns:xlink="http://www.w3.org/1999/xlink">
    <!-- Generator: Sketch 51.3 (57544) - http://www.bohemiancoding.com/sketch -->
    <title>telegram</title>
    <desc>Created with Sketch.</desc>
    <defs></defs>
    <g id="Page-1" stroke="none" stroke-width="1" fill="none" fill-rule="evenodd">
        <g id="Profile-Copy" transform="translate(-1100.000000, -2561.000000)" fill-rule="nonzero">
            <g id="Group-16" transform="translate(927.000000, 1106.000000)">
                <g id="you-may-also-like" transform="translate(0.000000, 730.000000)">
                    <g id="info" transform="translate(0.000000, 461.000000)">
                        <g id="social" transform="translate(38.000000, 263.000000)">
                            <g id="telegram" transform="translate(135.000000, 1.280000)">
                                <path d="M5.6425,12.69568 C5.19625,12.69568 5.271875,12.52224 5.118125,12.08832 L3.80375,7.65952 L13.914375,1.5168" id="Shape" fill="#323232"></path>
                                <path d="M5.6425,12.69568 C5.9875,12.69568 6.139375,12.5344 6.333125,12.34176 L8.17125,10.51328 L5.876875,9.09632" id="Shape" fill="#000000"></path>
                                <path d="M5.876875,9.09632 L11.433125,13.29984 C12.0675,13.65824 12.525625,13.47328 12.683125,12.69696 L14.945625,1.78304 C15.178125,0.83136 14.593125,0.40128 13.986875,0.68224 L0.703125,5.92832 C-0.203125,6.3008 -0.19875,6.8192 0.538125,7.05024 L3.9475,8.13824 L11.8375,3.04192 C12.209375,2.81152 12.551875,2.93504 12.27125,3.1904" id="Shape" fill="#323232"></path>
                            </g>
                        </g>
                    </g>
                </g>
            </g>
        </g>
    </g>
</svg>