<?xml version="1.0" encoding="UTF-8"?>
<svg width="180px" height="153px" viewBox="0 0 180 153" version="1.1" xmlns="http://www.w3.org/2000/svg" xmlns:xlink="http://www.w3.org/1999/xlink">
    <!-- Generator: Sketch 51.3 (57544) - http://www.bohemiancoding.com/sketch -->
    <title>Townhall_valued_comment_svg</title>
    <desc>Created with Sketch.</desc>
    <defs>
        <linearGradient x1="32.3226866%" y1="102.938506%" x2="67.6810724%" y2="-2.85656994%" id="linearGradient-1">
            <stop stop-color="#0F1563" offset="0%"></stop>
            <stop stop-color="#9A9DBE" stop-opacity="0.42" offset="60%"></stop>
            <stop stop-color="#FFFFFF" stop-opacity="0" offset="100%"></stop>
        </linearGradient>
        <linearGradient x1="32.3122705%" y1="102.866365%" x2="67.6740075%" y2="-2.85747989%" id="linearGradient-2">
            <stop stop-color="#0F1563" offset="0%"></stop>
            <stop stop-color="#9A9DBE" stop-opacity="0.42" offset="60%"></stop>
            <stop stop-color="#FFFFFF" stop-opacity="0" offset="100%"></stop>
        </linearGradient>
        <linearGradient x1="32.4139078%" y1="102.830443%" x2="67.7289941%" y2="-2.83941578%" id="linearGradient-3">
            <stop stop-color="#0F1563" offset="0%"></stop>
            <stop stop-color="#9A9DBE" stop-opacity="0.42" offset="60%"></stop>
            <stop stop-color="#FFFFFF" stop-opacity="0" offset="100%"></stop>
        </linearGradient>
        <linearGradient x1="32.3220034%" y1="102.942443%" x2="67.6904651%" y2="-2.9639934%" id="linearGradient-4">
            <stop stop-color="#0F1563" offset="0%"></stop>
            <stop stop-color="#9A9DBE" stop-opacity="0.42" offset="60%"></stop>
            <stop stop-color="#FFFFFF" stop-opacity="0" offset="100%"></stop>
        </linearGradient>
    </defs>
    <g id="Page-1" stroke="none" stroke-width="1" fill="none" fill-rule="evenodd">
        <g id="Forum-Copy" transform="translate(-88.000000, -1478.000000)" fill-rule="nonzero">
            <g id="build-rep" transform="translate(51.000000, 1344.000000)">
                <g id="Townhall_valued_comment_svg" transform="translate(37.000000, 134.000000)">
                    <path d="M127.815927,93.859785 C141.337066,101.676271 141.399058,114.349604 127.974351,122.145394 C114.549644,129.941184 92.7078052,129.96188 79.1866666,122.145394 C65.6655281,114.328907 65.5966481,101.655575 79.0282427,93.859785 C92.4598373,86.0639952 114.301676,86.0295005 127.815927,93.859785 Z" id="Shape" fill="url(#linearGradient-1)" opacity="0.1"></path>
                    <path d="M127.815927,83.8531542 C141.337066,91.6711589 141.399058,104.346953 127.974351,112.144257 C114.549644,119.941561 92.7078052,119.962261 79.1866666,112.144257 C65.6655281,104.326252 65.5966481,91.6504581 79.0282427,83.8531542 C92.4598373,76.0558504 114.301676,76.0420498 127.815927,83.8531542 Z" id="Shape" fill="#4A4D69"></path>
                    <polygon id="Shape" fill="#4A4D69" points="69.1531532 101 68 96 70 97.1713521"></polygon>
                    <polygon id="Shape" fill="#4A4D69" points="140 95 138.439024 101 138 97.030445"></polygon>
                    <path d="M129.227283,77.1528555 C143.527999,85.3532052 143.597622,98.6493879 129.39438,106.849738 C115.191137,115.050087 92.0760553,115.050087 77.7753392,106.849738 C63.4746232,98.6493879 63.398037,85.3601195 77.6082422,77.1528555 C91.8184475,68.9455914 114.926567,68.9525057 129.227283,77.1528555 Z" id="Shape" fill="#676D94"></path>
                    <path d="M116.836358,91.4293406 C116.934993,91.4671523 117,91.5610379 117,91.6656799 C117,91.7703219 116.934993,91.8642074 116.836358,91.9020192 C116.575095,92.0326603 116.266609,92.0326603 116.005346,91.9020192 L104.232669,85.174912 L104.537373,89.750989 C104.537373,89.9359502 104.294994,90.0935097 103.969515,90.1003601 C103.81805,90.1073747 103.667439,90.0742664 103.533233,90.0044543 C103.441052,89.9623411 103.376134,89.877573 103.360105,89.7783906 L103,84.3460118 C103,84.2090035 103.131577,84.0788457 103.35318,84.0308928 C103.571223,83.9727874 103.803335,83.9972138 104.00414,84.0993969 L116.836358,91.4293406 Z" id="Shape" fill="#E7E9FE"></path>
                    <path d="M116.390539,84.2222053 C123.83772,88.515055 123.871976,95.4780983 116.479604,99.7777947 C109.087231,104.077491 97.0566423,104.070644 89.609461,99.7777947 C82.1622797,95.484945 82.1280241,88.5219017 89.5203963,84.2222053 C96.9127685,79.9225089 108.950209,79.9293556 116.390539,84.2222053 Z M103.058235,102.324749 C107.621089,102.324749 112.177092,101.318291 115.657468,99.3053758 C119.137843,97.2924607 120.850626,94.6496537 120.836924,92.0068467 C120.823222,89.3640396 119.069332,86.7212326 115.568403,84.7083175 C112.067474,82.6954023 107.50462,81.682098 102.941765,81.682098 C98.378911,81.682098 93.8160565,82.6885556 90.3493834,84.7083175 C86.8827102,86.7280793 85.1493736,89.3640396 85.1630759,92.0068467 C85.1767781,94.6496537 86.9306681,97.2924607 90.4247458,99.3053758 C93.9188235,101.318291 98.4885291,102.324749 103.058235,102.324749 Z" id="Shape" fill="#E7E9FE"></path>
                    <path d="M108.828712,92.5304595 C108.929721,92.5750451 108.996276,92.6734369 109,92.7836818 C109,92.9684656 108.719088,93.1121864 108.397068,93.1053425 L92.0493884,92.7152433 L103.696939,99.4290557 C103.794526,99.4668312 103.858842,99.5606267 103.858842,99.6651683 C103.858842,99.76971 103.794526,99.8635055 103.696939,99.901281 C103.438718,100.032906 103.132979,100.032906 102.874759,99.901281 L90.1720773,92.5783664 C90.0007898,92.4825526 89.9528293,92.331988 90.0487503,92.2019549 C90.1943383,92.0556271 90.3982395,91.982707 90.6037219,92.0034834 L108.417622,92.4278018 C108.561205,92.426183 108.702784,92.4615383 108.828712,92.5304595 Z" id="Shape" fill="#E7E9FE"></path>
                    <path d="M43.4715016,91.2481126 C53.4650002,96.9088274 53.5139879,106.093749 43.5904718,111.754464 C33.6669558,117.415179 17.5219969,117.415179 7.52849839,111.754464 C-2.46500018,106.093749 -2.51398791,96.9156972 7.40952816,91.2481126 C17.3330442,85.5805281 33.4780031,85.5873979 43.4715016,91.2481126 Z" id="Shape" fill="url(#linearGradient-2)" opacity="0.1"></path>
                    <path d="M41.9166698,87.1013367 C51.3184369,92.566269 51.3666864,101.433764 42.0269544,106.898696 C32.6872224,112.363629 17.4955107,112.370573 8.09374357,106.898696 C-1.30802357,101.42682 -1.37695148,92.538493 7.96278054,87.1013367 C17.3025126,81.6641804 32.4942243,81.6016844 41.9166698,87.1013367 Z" id="Shape" fill="#6B67F5"></path>
                    <polygon id="Shape" fill="#98A2FE" points="1.15151515 99 0 95 2 95.9343629"></polygon>
                    <polygon id="Shape" fill="#98A2FE" points="50 94 49.225 98 49 95.3490725"></polygon>
                    <path d="M43.4718907,82.2481206 C53.4648728,87.9088335 53.513858,97.0937524 43.5908547,102.754465 C33.6678515,108.415178 17.5237269,108.415178 7.5307448,102.754465 C-2.46223734,97.0937524 -2.51822044,87.8950939 7.41178072,82.2481206 C17.3417819,76.6011473 33.4789085,76.5667983 43.4718907,82.2481206 Z" id="Shape" fill="#98A2FE"></path>
                    <path d="M33.8722498,92.5722034 C33.9479536,92.5951932 34,92.6674469 34,92.7495534 C34,92.8316599 33.9479536,92.9039136 33.8722498,92.9269034 C33.6870489,93.0243655 33.4683804,93.0243655 33.2831796,92.9269034 L24.8800568,87.8872076 L25.0929737,91.3159742 C25.0929737,91.4563763 24.9226402,91.5746097 24.6884315,91.5746097 C24.5798773,91.5793558 24.4720738,91.5538458 24.3761533,91.5007138 C24.3117385,91.467916 24.2667151,91.4044928 24.2555004,91.3307534 L24,87.259093 C24,87.1556388 24.092264,87.0595742 24.2484031,87.0226263 C24.4030216,86.979776 24.5674125,86.9982088 24.7097232,87.0743534 L33.8722498,92.5722034 Z" id="Shape" fill="#FFFFFF"></path>
                    <path d="M35.0157371,86.1944466 C40.3034766,89.1237337 40.3314911,93.8737475 35.0787697,96.8030347 C29.8260483,99.7323218 21.2816215,99.7323218 15.9868783,96.8030347 C10.6921352,93.8737475 10.6711243,89.1237337 15.9238457,86.1944466 C21.1765671,83.2651595 29.7420048,83.271878 35.0157371,86.1944466 Z M25.5538349,98.5431387 C28.6722862,98.6023204 31.7543101,97.8920955 34.5044722,96.4805443 C36.9697494,95.1368346 38.1953844,93.3026709 38.1813772,91.5020999 C38.1673699,89.7015289 36.9277277,87.9009579 34.4414395,86.5236555 C31.6830253,85.1138267 28.5947171,84.4038204 25.4697914,84.4610611 C22.3513401,84.4018795 19.2693162,85.1121043 16.5191541,86.5236555 C14.0538769,87.8673652 12.8282419,89.7015289 12.8352455,91.5020999 C12.8422491,93.3026709 14.088895,95.1099604 16.5751831,96.4805443 C19.3339296,97.8895322 22.4220067,98.5994854 25.5468313,98.5431387 L25.5538349,98.5431387 Z" id="Shape" fill="#FFFFFF"></path>
                    <path d="M28.8853382,92.3939422 C28.9542841,92.4282553 28.9989502,92.5030739 29,92.5860085 C29,92.7263646 28.8044005,92.837172 28.5885666,92.8297848 L17.4056729,92.5342983 L25.3712926,97.5723435 C25.4432373,97.5953258 25.4926992,97.6675559 25.4926992,97.7496355 C25.4926992,97.831715 25.4432373,97.9039451 25.3712926,97.9269274 C25.1952882,98.0243575 24.9874779,98.0243575 24.8114735,97.9269274 L16.1174143,92.430878 C16.0027526,92.3570064 15.9690285,92.246199 16.0297318,92.1501658 C16.1319123,92.0415741 16.2724561,91.987564 16.4141859,92.0024226 L28.6155459,92.3200706 C28.7096493,92.3200706 28.8023058,92.3454408 28.8853382,92.3939422 Z" id="Shape" fill="#FFFFFF"></path>
                    <path d="M174.136377,71.7862362 C180.594795,75.4943856 180.622249,81.5107385 174.211874,85.2188879 C167.8015,88.9270374 157.362335,88.9270374 150.876464,85.2188879 C144.390592,81.5107385 144.383729,75.4943856 150.800967,71.7862362 C157.218205,68.0780868 167.684823,68.0644287 174.136377,71.7862362 Z" id="Shape" fill="url(#linearGradient-3)" opacity="0.1"></path>
                    <path d="M174.279745,67.6343327 C180.560565,71.1501627 180.560565,76.8472976 174.356511,80.3631275 C168.152457,83.8789575 157.991487,83.8789575 151.717646,80.3631275 C145.443805,76.8472976 145.436827,71.1501627 151.64088,67.6343327 C157.844934,64.1185028 168.005905,64.125277 174.279745,67.6343327 Z" id="Shape" fill="#D99E53"></path>
                    <polygon id="Shape" fill="#D99E53" points="147.578947 75 147 73 148 73.4678363"></polygon>
                    <polygon id="Shape" fill="#D99E53" points="180 73 179.227273 76 179 74.0127877"></polygon>
                    <path d="M174.136377,64.7906117 C180.594795,68.4977604 180.622249,74.5124897 174.211874,78.2196385 C167.8015,81.9267872 157.362335,81.9267872 150.876464,78.2196385 C144.390592,74.5124897 144.383729,68.4977604 150.800967,64.7906117 C157.218205,61.083463 167.684823,61.0561543 174.136377,64.7906117 Z" id="Shape" fill="#F2CD80"></path>
                    <path d="M168.927091,71.71206 C168.970828,71.7301667 169,71.777983 169,71.8315667 C169,71.8851503 168.970828,71.9329666 168.927091,71.9510733 C168.815071,72.0163089 168.682837,72.0163089 168.570818,71.9510733 L163.531171,68.6048859 L163.660725,70.8904514 C163.660725,70.9800815 163.557082,71.0622423 163.42105,71.0622423 C163.355484,71.0647207 163.290563,71.0466515 163.233197,71.0099581 C163.19241,70.9903435 163.163108,70.948109 163.155465,70.8979206 L163,68.1866125 C163,68.11939 163.058299,68.0521675 163.148987,68.02976 C163.238645,67.99008 163.33787,67.99008 163.427528,68.02976 L168.927091,71.71206 Z" id="Shape" fill="#FFFFFF"></path>
                    <path d="M169.342941,68.4659651 C172.878583,70.4171844 172.878583,73.5853662 169.385369,75.5365855 C165.892155,77.4878048 160.1927,77.4878048 156.657059,75.5365855 C153.121417,73.5853662 153.121417,70.4171844 156.614631,68.4659651 C160.107845,66.5147458 165.828513,66.5079471 169.342941,68.4659651 Z M163.042428,76.6991587 C165.115401,76.7430372 167.165421,76.274869 168.996448,75.339424 C170.636986,74.4216031 171.450184,73.2182379 171.443112,72.0216713 C171.436041,70.8251048 170.608701,69.6217396 168.954021,68.7039187 C165.208702,66.870562 160.777155,66.870562 157.031837,68.7039187 C155.391299,69.6217396 154.578101,70.8183061 154.585173,72.0216713 C154.592244,73.2250365 155.419584,74.4284017 157.074264,75.339424 C158.910948,76.2734278 160.965122,76.7414332 163.042428,76.6991587 Z" id="Shape" fill="#FFFFFF"></path>
                    <path d="M165.922199,71.2931612 C165.969108,71.3161802 165.999362,71.365618 166,71.4202939 C166,71.5100346 165.865617,71.5848185 165.717088,71.5848185 L157.98653,71.3903803 L163.475014,74.7107868 C163.52277,74.7289159 163.554622,74.7767913 163.554622,74.8304411 C163.554622,74.8840909 163.52277,74.9319663 163.475014,74.9500954 C163.352982,75.0166349 163.208043,75.0166349 163.086011,74.9500954 L157.081213,71.2856828 C157.003412,71.2333341 156.975121,71.1585501 157.024631,71.098723 C157.094297,71.0275461 157.189862,70.9920435 157.286324,71.0015039 L165.717088,71.2183773 C165.790709,71.2226336 165.861745,71.2485333 165.922199,71.2931612 Z" id="Shape" fill="#FFFFFF"></path>
                    <path d="M98.9008683,142.747557 C103.017916,145.098233 103.031825,148.933547 98.9495496,151.249857 C94.867274,153.566166 88.218798,153.600533 84.1017501,151.249857 C79.9847022,148.899181 79.9638388,145.063867 84.0530688,142.747557 C88.1422988,140.431248 94.7838204,140.403755 98.9008683,142.747557 Z" id="Shape" fill="url(#linearGradient-4)" opacity="0.1"></path>
                    <path d="M99.0469508,139.756886 C102.965777,142.099401 102.986585,145.900599 99.0955026,148.243114 C95.2044205,150.585629 88.8718752,150.585629 84.9530492,148.243114 C81.0342232,145.900599 81.0134153,142.099401 84.9044974,139.756886 C88.7955795,137.414371 95.1419968,137.414371 99.0469508,139.756886 Z" id="Shape" fill="#4A4D69"></path>
                    <polygon id="Shape" fill="#6B67F5" points="82.55 144 82 143 82.96 143.232558"></polygon>
                    <polygon id="Shape" fill="#6B67F5" points="102.83 143 102.18 145 102 143.674797"></polygon>
                    <path d="M98.9008683,137.745349 C103.017916,140.096531 103.031825,143.932671 98.9495496,146.24948 C94.867274,148.566288 88.218798,148.600662 84.1017501,146.24948 C79.9847022,143.898297 79.9638388,140.062157 84.0530688,137.745349 C88.1422988,135.428541 94.7838204,135.407916 98.9008683,137.745349 Z" id="Shape" fill="#676D94"></path>
                    <path d="M95.9559256,141.854127 C95.9827813,141.864898 96,141.888379 96,141.914233 C96,141.940086 95.9827813,141.963568 95.9559256,141.974338 C95.8805689,142.008554 95.7909048,142.008554 95.7155482,141.974338 L92.3502642,140.273353 L92.4395473,141.427378 C92.4395473,141.475463 92.370868,141.511526 92.2747171,141.517537 C92.2342142,141.526969 92.1915973,141.526969 92.1510944,141.517537 C92.1264067,141.506945 92.1086719,141.48699 92.1030189,141.463442 L92,140.093037 C92,140.056973 92.0412076,140.026921 92.1030189,140.014899 C92.1627462,139.995034 92.2287256,139.995034 92.2884529,140.014899 L95.9559256,141.854127 Z" id="Shape" fill="#E7E9FE"></path>
                    <path d="M95.3831364,139.878029 C97.5355149,141.052356 97.5423915,142.95334 95.3831364,144.121179 C92.9442436,145.29294 90.0583382,145.29294 87.6194454,144.121179 C85.4670669,142.946852 85.4533137,141.052356 87.6194454,139.878029 C90.0586067,138.707324 92.9439751,138.707324 95.3831364,139.878029 Z M91.5322356,144.815395 C92.7995338,144.838683 94.051993,144.554991 95.1699615,143.991419 C96.016162,143.633828 96.5901153,142.871231 96.6690622,141.999604 C96.5791168,141.126081 95.9987785,140.365468 95.1493317,140.007789 C92.8594867,138.907671 90.1499717,138.907671 87.8601267,140.007789 C87.0139263,140.36538 86.439973,141.127977 86.3610261,141.999604 C86.4509715,142.873127 87.0313098,143.63374 87.8807565,143.991419 C89.0036862,144.554974 90.2605654,144.838595 91.5322356,144.815395 Z" id="Shape" fill="#E7E9FE"></path>
                    <path d="M93.9474342,142.125479 C93.9796895,142.137184 94.0002668,142.162788 93.9999974,142.190882 C93.9999974,142.238448 93.9098891,142.274123 93.8122719,142.274123 L88.6535751,142.178991 L92.3254859,143.855699 C92.3548485,143.866354 92.3736745,143.889582 92.3736745,143.915157 C92.3736745,143.940732 92.3548485,143.96396 92.3254859,143.974615 C92.243095,144.008462 92.1450611,144.008462 92.0626702,143.974615 L88.0528535,142.143316 C88.0002904,142.143316 87.9852723,142.083858 88.0153084,142.048184 C88.0617964,142.013708 88.1245431,141.996427 88.1880159,142.000617 L93.8122719,142.107641 C93.8585253,142.104019 93.9051647,142.110174 93.9474342,142.125479 Z" id="Shape" fill="#E7E9FE"></path>
                    <g id="Group" transform="translate(80.000000, 0.000000)">
                        <polygon id="Shape" fill="#D5D9FE" points="5.96769231 77.979292 0.754615385 74.9559292 0.602307692 22.4267257 5.81538462 25.4500885"></polygon>
                        <polygon id="Shape" fill="#E7E9FE" points="5.81538462 25.4500885 0.602307692 22.4267257 39.5653846 0 44.7784615 3.02336283"></polygon>
                        <polygon id="Shape" fill="#98A2FE" points="44.7784615 3.02336283 44.9307692 55.5525664 31.9430769 63.0212389 25.1723077 74.7212389 18.36 70.8419469 5.96769231 77.979292 5.81538462 25.4500885"></polygon>
                    </g>
                    <path d="M111.690319,39 C115.455553,39.4424277 117.986283,42.7163925 118,48.0935905 L92,63 C92,57.6159955 94.4827222,51.469654 98.2410973,46.7118548 C98.4788837,47.0878038 98.7571376,47.4369897 99.0709575,47.7532615 C100.689528,49.3187748 102.781324,49.4957459 104.955421,48.2501418 C107.129517,47.0045377 109.221314,44.4316506 110.819309,41.0215542 C111.155368,40.3613159 111.415985,39.680658 111.690319,39 Z" id="Shape" fill="#FFFFFF"></path>
                    <path d="M105.479167,29.8769612 C109.069417,27.8390519 111.986061,29.4761724 111.99995,33.5112329 C112.013839,37.5462933 109.118028,44.3664966 105.527778,46.4044059 C101.937527,48.4423152 99.0139384,44.9167321 99.0000496,40.8816716 C98.9861609,36.8466111 101.888916,31.9012845 105.479167,29.8769612 Z" id="Shape" fill="#FFFFFF"></path>
                    <path d="M64.9716816,12.0654896 C69.3893574,9.58845943 72.9857986,11.5769642 72.9999578,16.5103827 C73.0141171,21.4438012 69.4601535,27.4574802 65.0283184,29.9345104 C60.5964834,32.4115406 57.0142014,30.4230358 57.0000422,25.4896173 C56.9858829,20.5561988 60.5398465,14.5494005 64.9716816,12.0654896 Z" id="Shape" fill="#98A2FE"></path>
                    <path d="M87.9935065,3.3247332 C89.0974026,2.56900812 89.9935065,3.18114544 90,4.65480935 C89.9272024,6.28922298 89.1859787,7.78410564 88.0064935,8.6752668 C86.9025974,9.43099188 86.0064935,8.81885456 86,7.34519065 C86.0738419,5.71113677 86.8148114,4.21676665 87.9935065,3.3247332 Z" id="Shape" fill="#98A2FE"></path>
                    <path d="M132.993506,36.3247332 C134.097403,35.5690081 134.993506,36.1811454 135,37.6548094 C134.927202,39.289223 134.185979,40.7841056 133.006494,41.6752668 C131.902597,42.4309919 131.006494,41.8188546 131,40.3451906 C131.073842,38.7111368 131.814811,37.2167666 132.993506,36.3247332 Z" id="Shape" fill="#98A2FE"></path>
                    <path d="M139.5,7.48022976 C141.425,6.36287033 143,7.26237981 143,9.48304383 C142.863705,11.9418484 141.562371,14.1862979 139.5,15.5195957 C137.575,16.6369551 136,15.7374457 136,13.5238091 C136.1341,11.0624749 137.435698,8.81495824 139.5,7.48022976 Z" id="Shape" fill="#98A2FE"></path>
                </g>
            </g>
        </g>
    </g>
</svg>