<?xml version="1.0" encoding="UTF-8"?>
<svg width="15px" height="13px" viewBox="0 0 15 13" version="1.1" xmlns="http://www.w3.org/2000/svg" xmlns:xlink="http://www.w3.org/1999/xlink">
    <!-- Generator: Sketch 51.3 (57544) - http://www.bohemiancoding.com/sketch -->
    <title>twitter</title>
    <desc>Created with Sketch.</desc>
    <defs></defs>
    <g id="Page-1" stroke="none" stroke-width="1" fill="none" fill-rule="evenodd">
        <g id="Profile-Copy" transform="translate(-965.000000, -2562.000000)" fill="#323232" fill-rule="nonzero">
            <g id="Group-16" transform="translate(927.000000, 1106.000000)">
                <g id="you-may-also-like" transform="translate(0.000000, 730.000000)">
                    <g id="info" transform="translate(0.000000, 461.000000)">
                        <g id="social" transform="translate(38.000000, 263.000000)">
                            <g id="twitter" transform="translate(0.000000, 1.920000)">
                                <path d="M14.97125,1.64416 C14.418125,1.89312 13.8275,2.06272 13.205625,2.14016 C13.839375,1.74912 14.326875,1.1328 14.5575,0.39744 C13.963125,0.75264 13.304375,1.0112 12.603125,1.1552 C12.043125,0.54144 11.245,0.15744 10.35875,0.15744 C8.660625,0.15744 7.28375,1.56736 7.28375,3.30432 C7.28375,3.55392 7.311875,3.79392 7.363125,4.02368 C4.806875,3.90016 2.54125,2.6432 1.025,0.74304 C0.758125,1.20512 0.60875,1.74208 0.60875,2.32704 C0.60875,3.42144 1.1525,4.38336 1.97625,4.94848 C1.471875,4.93184 0.9975,4.78976 0.58375,4.55424 L0.58375,4.59328 C0.58375,6.11968 1.641875,7.39264 3.05,7.68256 C2.791875,7.7536 2.519375,7.792 2.24,7.792 C2.04375,7.792 1.855625,7.7728 1.6675,7.73696 C2.061875,8.98688 3.195625,9.89824 4.545,9.92384 C3.495,10.768 2.164375,11.27104 0.73125,11.27104 C0.4875,11.27104 0.244375,11.25632 0,11.22816 C1.368125,12.12032 2.98,12.64192 4.723125,12.64192 C10.381875,12.64192 13.4725,7.84448 13.4725,3.69088 C13.4725,3.55712 13.4725,3.42208 13.463125,3.28768 C14.06375,2.84672 14.588125,2.28928 15.000625,1.65696 L14.97125,1.64416 Z" id="Shape"></path>
                            </g>
                        </g>
                    </g>
                </g>
            </g>
        </g>
    </g>
</svg>