<?xml version="1.0" encoding="UTF-8" standalone="no"?>
<svg xmlns="http://www.w3.org/2000/svg" version="1.1" height="118.2" width="419.58">
 <path fill-rule="nonzero" fill="#131b28" d="m119.88,46.171,0.001-0.005s-3.352,11.88-3.352,11.88,3.3508-11.875,3.3508-11.875z"/>
 <path fill-rule="nonzero" fill="#131b28" d="m137.12,71.962s-3.6938-0.022-3.6938-0.022,3.6938,0.022,3.6938,0.022z"/>
 <path fill-rule="nonzero" fill="#131b28" d="m136.17,89.703h0.004s-22.131,0.0806-22.131,0.0806,22.128-0.0806,22.128-0.0806z"/>
 <path fill-rule="nonzero" fill="#131b28" d="m140.81,71.984s-3.6951-0.022-3.6951-0.022,3.6951,0.022,3.6951,0.022z"/>
 <path fill-rule="nonzero" fill="#131b28" d="m138.11,88.195s3.855-14.702,3.855-14.702-3.855,14.705-3.855,14.705v-0.002z"/>
 <path fill-rule="nonzero" fill="#131b28" d="m219.59,20.49s-7.1814,33.76-7.1814,33.76,7.1814-33.76,7.1814-33.76z"/>
 <path fill-rule="nonzero" fill="#131b28" d="m201.13,20.49s-5.4517,25.22-5.4517,25.22,5.4517-25.222,5.4517-25.222v0.002z"/>
 <path fill-rule="nonzero" fill="#131b28" d="m218.36,18.971h-15.356c-0.85205,0-1.698,0.68359-1.8799,1.5161,0,0-5.4516,25.222-5.4516,25.222s-5.4517,25.222-5.4517,25.222c-0.18066,0.83251-1.0254,1.5137-1.8774,1.5137h-10.869c-10.753,0-9.5093-7.4365-7.3071-17.627,0.022-0.1025,0.044-0.20263,0.0659-0.30761,0,0,0.24169-1.2842,0.24169-1.2842,0.0146-0.083,0.0317-0.16603,0.0451-0.2417,0,0,0.49072-2.6148,0.49072-2.6148s0.52612-2.8027,0.52612-2.8027c0.15992-0.84473,0.40283-2.0801,0.56153-2.8564,0,0,2.478-12.109,2.478-12.109s2.4805-12.109,2.4805-12.109c0.1709-0.83496-0.38819-1.521-1.2402-1.521h-15.762c-0.85206,0-1.6956,0.68604-1.8701,1.5186,0,0-3.3887,16.079-3.3887,16.079s-3.3887,16.077-3.3887,16.077c-0.003,0.007-0.004,0.0171-0.005,0.0244,0,0-0.31494,1.4942-0.31494,1.4942-3.9038,17.822-2.8686,34.817,18.347,35.349,0.3467,0.01,0.61525,0.0125,0.61525,0.0125h33.302c0.85206,0,1.6956-0.6836,1.8738-1.5186,0,0,7.1814-33.757,7.1814-33.757s7.1814-33.76,7.1814-33.76c0.17701-0.83497-0.37598-1.5186-1.228-1.5186z"/>
 <path fill-rule="nonzero" fill="#131b28" d="m279.62,72.621c0.85327,0,1.4111,0.6836,1.2402,1.5186,0,0-1.4917,7.2876-1.4917,7.2876"/>
 <path fill-rule="nonzero" fill="#131b28" d="m277.88,88.719s1.4905-7.2925,1.4905-7.2925-1.4917,7.2949-1.4917,7.2949c0-0.002,0.00099-0.002,0.00099-0.002z"/>
 <path fill-rule="nonzero" fill="#131b28" d="m276.01,90.253c0.002,0,0.005-0.002,0.007-0.002-4.519,0.0366-18.099,0.13916-28.306,0.13916,12.422,0,28.298-0.13672,28.298-0.13672z"/>
 <path fill-rule="nonzero" fill="#131b28" d="m238.55,63.234c-0.0125-0.79835,0.896-2.1729,1.7493-2.1729,0,0-1.9177-0.0317-1.9177-0.0317-0.86426,8.6914,0.16845,2.2046,0.16845,2.2046z"/>
 <path fill-rule="nonzero" fill="#131b28" d="m249.11,90.387c-0.0976,0-0.19775,0-0.29542,0.002,0.0976-0.002,0.19777-0.002,0.29542-0.002z"/>
 <path fill-rule="nonzero" fill="#131b28" d="m279.62,72.621c0.85327,0,1.4111,0.6836,1.2402,1.5186,0,0-1.4917,7.2876-1.4917,7.2876s-0.24293,1.189-0.24293,1.189"/>
 <path fill-rule="nonzero" fill="#131b28" d="m256.38,90.37h-0.0623,0.0623z"/>
 <path fill-rule="nonzero" fill="#131b28" d="m252.61,90.382h-0.21852,0.21852z"/>
 <path fill-rule="nonzero" fill="#131b28" d="m251.46,90.385c-0.12201,0-0.2417,0-0.36134,0.002,0.11963-0.002,0.23927-0.002,0.36134-0.002z"/>
 <path fill-rule="nonzero" fill="#131b28" d="m250.29,90.387h-0.31737,0.31737z"/>
 <path fill-rule="nonzero" fill="#131b28" d="m252.39,90.382c-0.31127,0-0.62255,0.002-0.93016,0.002,0.30761,0,0.61889-0.002,0.93016-0.002z"/>
 <path fill-rule="nonzero" fill="#131b28" d="m256.32,90.37c-1.2427,0.005-2.4829,0.01-3.7048,0.0125,1.2219-0.002,2.4634-0.007,3.7048-0.0125z"/>
 <path fill-rule="nonzero" fill="#131b28" d="m276.02,90.25h0.001c-3.3118,0.0269-11.49,0.0879-19.646,0.11963,8.1518-0.0292,16.332-0.0927,19.645-0.11963z"/>
 <path fill-rule="nonzero" fill="#131b28" d="m277.88,88.722s1.2488-6.106,1.2488-6.106-1.25,6.1108-1.25,6.1108c0-0.002,0.001-0.002,0.001-0.005z"/>
 <path fill-rule="nonzero" fill="#131b28" d="m251.1,90.387h-0.81054,0.81054z"/>
 <path fill-rule="nonzero" fill="#131b28" d="m248.81,90.389h-1.0962,1.0962z"/>
 <path fill-rule="nonzero" fill="#131b28" d="m249.97,90.387h-0.86426,0.86426z"/>
 <path fill-rule="nonzero" fill="#131b28" d="m25.344,63.417s2.3852-10.574,2.3852-10.574-2.727,12.087-2.727,12.087-2.6172,12.312-2.6172,12.312,2.2937-10.793,2.2937-10.793c0.177-0.83497,0.4773-2.1997,0.66529-3.0322z"/>
 <path fill-rule="nonzero" fill="#131b28" d="m53.894,18.793h-16.864c-0.85326,0-1.7041,0.68115-1.8945,1.5112,0,0-1.5991,7.0581-1.5991,7.0581s-1.5991,7.0606-1.5991,7.0606c-0.18799,0.83008,0.35523,1.5112,1.2085,1.5112h16.995c0.85205,0,1.6992-0.68115,1.8823-1.5137,0,0,1.5454-7.0581,1.5454-7.0581s1.5454-7.0532,1.5454-7.0532v-0.002c0.18189-0.83253-0.36621-1.5137-1.2195-1.5137z"/>
 <path fill-rule="nonzero" fill="#131b28" d="M50.224,42.272v-0.002s-4.9463,22.883-4.9463,22.883,4.9463-22.881,4.9463-22.881z"/>
 <path fill-rule="nonzero" fill="#131b28" d="m1.2338,118.09s8.501,0.10988,13.905,0.10988c-4.1052,0-10.885-0.0756-13.912-0.11225,0.003,0,0.005,0.002,0.008,0.002z"/>
 <path fill-rule="nonzero" fill="#131b28" d="m30.114,42.269s-2.3877,10.574-2.3877,10.574,2.3877-10.574,2.3877-10.574z"/>
 <path fill-rule="nonzero" fill="#131b28" d="m49.004,40.756h-16.997c-0.85205,0-1.7041,0.68117-1.8921,1.5137,0,0-2.3877,10.574-2.3877,10.574s-2.3852,10.574-2.3852,10.574c-0.18799,0.83253-0.48829,2.1973-0.66529,3.0322,0,0-2.2937,10.793-2.2937,10.793s-2.2925,10.793-2.2925,10.793c-0.17822,0.83252-0.54443,2.1777-0.81787,2.9858,0,0-3.175,9.4482-8.5132,9.3408-0.22705-0.005-0.448-0.007-0.6665-0.0125-2.5867-0.0489-4.6191-0.0855-4.6191-0.0855h-0.004c-0.85083-0.0125-1.7066,0.65185-1.9055,1.4795,0,0-1.7627,7.4097-1.7627,7.4097s-1.7603,7.4072-1.7603,7.4072c-0.19775,0.82762,0.33692,1.5112,1.1841,1.5259,3.0274,0.0366,9.8071,0.11225,13.912,0.11225,13.334,0,20.363-7.3877,24.869-28.647,0,0,5.2734-24.399,5.2734-24.399s4.9463-22.883,4.9463-22.883c0.17945-0.83251-0.3711-1.5137-1.2232-1.5137z"/>
 <path fill-rule="nonzero" fill="#131b28" d="m290.45,89.525c-0.85205,0-1.405-0.6836-1.2256-1.5186,0,0,12.786-59.89,12.786-59.89"/>
 <path fill-rule="nonzero" fill="#131b28" d="m308.22,88.004s5.1709-25.562,5.1709-25.562-5.1709,25.562-5.1709,25.562z"/>
 <path fill-rule="nonzero" fill="#131b28" d="m289.41,88.766c-0.10375-0.41749-0.0428-1.4404,0.13793-2.2754,0,0,6.0681-28.428,6.0681-28.428s-6.3928,29.944-6.3928,29.944c-0.17944,0.83495,0.37354,1.5186,1.2256,1.5186h1.5528c-0.85328,0-2.489-0.3418-2.5916-0.75927z"/>
 <path fill-rule="nonzero" fill="#131b28" d="m307.21,89.183c-0.46388,0.18799-1.543,0.3418-2.3962,0.3418h1.5527c0.85205,0,1.6894-0.6836,1.8579-1.521,0,0,0.30761-1.5186,0.30761-1.5186-0.16967,0.83496-0.85692,2.5098-1.322,2.6978z"/>
 <path fill-rule="nonzero" fill="#131b28" d="m310.81,75.223s2.2827-11.282,2.2827-11.282c-0.001,0.007-0.002,0.0171-0.004,0.022,0,0-2.279,11.26-2.279,11.26z"/>
 <path fill-rule="nonzero" fill="#131b28" d="m361.26,32.128s0.70434,2.9102,0.70434,2.9102c0.1941,0.83251-0.34424,1.5088-1.1951,1.5112"/>
 <path fill-rule="nonzero" fill="#131b28" d="m308.53,86.486s2.2766-11.262,2.2766-11.262-2.2766,11.262-2.2766,11.262z"/>
 <path fill-rule="nonzero" fill="#131b28" d="m360.56,29.147s0.69703,2.981,0.69703,2.981-0.69703-2.981-0.69703-2.981z"/>
 <path fill-rule="nonzero" fill="#131b28" d="m313.09,63.942c0.16969-0.83496,0.45045-2.1875,0.62746-3.0151,0,0,2.4377-11.421,2.4377-11.421s-2.7612,12.937-2.7612,12.937-0.30397,1.499-0.30397,1.499z"/>
 <path fill-rule="nonzero" fill="#131b28" d="m302.22,27.135c-0.16967,0.80567-0.38696,1.8237-0.53101,2.4976,0,0-6.0681,28.43-6.0681,28.43s6.3928-29.946,6.3928-29.946,0.2063-0.98145,0.2063-0.98145z"/>
 <path fill-rule="nonzero" fill="#131b28" d="m361.96,35.038s-0.70434-2.9102-0.70434-2.9102-0.69703-2.981-0.69703-2.981-0.35278-1.5088-0.35278-1.5088c-1.3806-5.3638-5.4334-8.4595-14.233-8.4595,0,0-13.7-0.0146-13.7-0.0146s-12.617-0.0146-12.617-0.0146h-14.197c-0.85205,0-1.6956,0.68115-1.8713,1.5161h-0.001s-0.62743,2.9663-0.62743,2.9663-0.74096,3.5034-0.74096,3.5034-0.2063,0.98145-0.2063,0.98145-6.3928,29.946-6.3928,29.946-6.0681,28.428-6.0681,28.428c-0.18065,0.83496-0.24169,1.8579-0.13792,2.2754,0.1025,0.41747,1.7383,0.75927,2.5915,0.75927h12.808c0.85327,0,1.9324-0.15381,2.3962-0.3418,0.46508-0.18799,1.1523-1.8628,1.322-2.6978,0,0,2.2766-11.262,2.2766-11.262s2.279-11.26,2.279-11.26c0.001-0.005,0.002-0.0146,0.004-0.022,0,0,0.30396-1.499,0.30396-1.499s2.7612-12.937,2.7612-12.937,2.439-11.426,2.439-11.426c0.18068-0.83007,1.0205-1.5088,1.8713-1.5112,0,0,40.3-0.0195,40.3-0.0195,0.85083-0.002,1.3892-0.67872,1.1951-1.5112z"/>
 <path fill-rule="nonzero" fill="#131b28" d="m413.84,8.7244c-0.85326,0.006-2.2485,0.0113-3.1018,0.0113h-12.899c-0.85328,0-1.9458,0.57618-2.4268,1.2805,0,0-28.523,41.787-28.523,41.787-0.48218,0.70557-1.0315,0.60059-1.2207-0.22949,0,0-2.0984-9.2065-2.0984-9.2065-0.18921-0.83252-1.0437-1.5112-1.8958-1.5112h-18.337c-0.85327,0-1.3586,0.66895-1.1255,1.4893,0,0,8.2166,28.784,8.2166,28.784,0.23437,0.82032,0.25147,2.168,0.0403,2.9932,0,0-3.5815,13.931-3.5815,13.931-0.2124,0.82764,0.3125,1.5039,1.1658,1.5039h18.123c0.85205,0,1.7236-0.67627,1.9348-1.5039,0,0,3.5828-13.931,3.5828-13.931,0.21119-0.82519,0.80445-2.0605,1.3184-2.7417,0,0,46.306-61.459,46.306-61.459,0.51393-0.68115,0.2356-1.2354-0.61645-1.2292,0,0-4.8608,0.0317-4.8608,0.0317z"/>
 <path fill-rule="nonzero" fill="#131b28" d="m268.16,44.774s-0.001-0.0171-0.001-0.0171c-0.10737,0.92528-0.96069,1.604-1.8128,1.604h-23.248c-0.80323,0-1.2122-0.54688-1.0938-1.2207,0.007-0.0195,0.01-0.0366,0.022-0.0537,0,0-0.008,0.002-0.0146,0.007,0.005-0.0269,0.005-0.0512,0.0125-0.0781,0,0,0.044-0.16358,0.10625-0.39552,2.2204-5.9033,6.7432-9.7778,15.243-9.7778,9.5691,0,11.437,4.6753,10.787,9.9316zm-6.82-26.834c-29.841,0-36.912,18.113-40.879,36.394-3.9673,18.633-3.6255,36.055,27.253,36.055h1.0962c0.0976-0.002,0.19777-0.002,0.29542-0.002h1.9922c0.11963-0.002,0.23927-0.002,0.36133-0.002,0.30762,0,0.6189-0.002,0.93017-0.002h0.21852c1.2219-0.002,2.4622-0.008,3.7048-0.0125h0.0623c8.1555-0.0317,16.334-0.0927,19.647-0.11962,0.84717-0.0125,1.676-0.6958,1.8506-1.5234,0,0,1.25-6.1108,1.25-6.1108s0.24293-1.189,0.24293-1.189,1.4917-7.2876,1.4917-7.2876c0.1709-0.83496-0.38696-1.5186-1.2402-1.5186h-27.761c-11.041,0-14.32-2.9346-13.112-11.56h44.377s-0.004,0.005-0.004,0.005c0.0113,0,0.0208-0.005,0.0305-0.005,0.70556-0.0125,1.3574-0.49804,1.6162-1.145,0.0489-0.1245,0.0904-0.25391,0.10737-0.38818,0,0-0.005,0.005-0.005,0.005,6.5894-24.854,4.6997-41.592-23.528-41.592z"/>
 <path fill-rule="nonzero" fill="#131b28" d="m120.3,44.679s-0.41993,1.4868-0.41993,1.4868c0,0.005-0.001,0.005-0.001,0.005s-3.3508,11.875-3.3508,11.875-3.3496,11.873-3.3496,11.873c-0.23193,0.82031-1.1182,1.4917-1.9727,1.4917h-17.736c-13.453,0-16.729-10.522-13.453-26.042,3.2752-15.874,9.6973-25.742,22.938-26.741,18.094-1.3648,21.714,11.362,17.345,26.052zm12.163,25.818s8.3618-20.303,10.261-32.031c2.6-15.699-5.26-38.466-35.62-38.466-30.189,0-43.297,21.737-48.299,45.367-5.0012,23.801,1.5515,44.675,31.567,44.504,0,0,23.679-0.0879,23.679-0.0879s22.131-0.0806,22.131-0.0806c0.85205-0.007,1.7236-0.6836,1.9409-1.5064,0,0,3.855-14.705,3.855-14.705,0.21485-0.8252-0.30639-1.5039-1.1584-1.5088,0,0-3.6951-0.022-3.6951-0.022s-3.6938-0.022-3.6938-0.022c-0.7251-0.005-1.1401-0.47364-1.0522-1.0962,0.0159-0.11225,0.0415-0.22705,0.0904-0.34668z"/>
 <path fill-rule="nonzero" fill="#131b28" d="m281.9,56.908c0,0.56153-0.45532,1.0181-1.0181,1.0181-0.56152,0-1.0181-0.45654-1.0181-1.0181,0-0.56152,0.45655-1.0156,1.0181-1.0156,0.56274,0,1.0181,0.4541,1.0181,1.0156z"/>
</svg>
