<svg width="100" height="35" viewBox="0 0 100 35" xmlns="http://www.w3.org/2000/svg"><title>A60C4A4B-D6A9-4CED-AC6F-F16D2B6C4F0F</title><g fill-rule="nonzero" fill="none"><g fill="#2E374D"><path d="M6.983 20.08C3.036 20.08.02 17.598.02 13.144S3.177 6.12 7.153 6.12c3.977 0 6.936 2.538 6.936 6.936s-3.187 7.025-7.106 7.025zM7.04 9.422c-1.805 0-2.707 1.438-2.707 3.694 0 2.256.93 3.637 2.735 3.637 1.805 0 2.706-1.405 2.706-3.665 0-2.23-.93-3.665-2.736-3.665l.002-.001zM32.134 11.932c0-1.579-.677-2.114-1.777-2.114-.874 0-1.58.395-2.114.846v8.993H23.9v-7.725c0-1.579-.705-2.114-1.805-2.114-.776 0-1.527.278-2.114.784v9.05h-4.343V6.387l4.343-.008v1.688c1.156-1.213 2.452-1.946 4.173-1.946 1.66 0 3.045.79 3.694 2.34 1.212-1.438 2.735-2.34 4.54-2.34 2.566 0 4.087 1.72 4.087 4.54v8.994h-4.343l.002-7.723zM40.845 4.685c-1.579 0-2.565-.817-2.565-2.312 0-1.55.986-2.34 2.565-2.34 1.607 0 2.566.79 2.566 2.34 0 1.495-.959 2.312-2.566 2.312zm-2.171 1.706l4.343-.008v13.274h-4.343V6.391zM50.03 20.08c-1.805 0-4.174-.394-5.554-1.156l.845-3.13c1.55.79 3.243 1.241 4.793 1.241 1.184 0 1.777-.367 1.777-1.072 0-.766-.734-1.015-2.228-1.352-3.045-.621-4.99-1.72-4.99-4.286 0-2.453 2.141-4.201 5.78-4.201 1.747 0 4.03.51 5.329 1.128l-.874 3.095c-1.495-.767-3.272-1.184-4.512-1.184-1.072 0-1.607.338-1.607.987 0 .705.818.987 2.256 1.297 3.073.677 4.935 1.69 4.935 4.313-.002 2.379-2.088 4.32-5.95 4.32zM64.493 16.895c1.439 0 2.961-.511 4.286-1.269l.423 3.356c-1.325.677-3.186 1.071-5.11 1.071-4.426 0-7.33-2.452-7.33-6.851 0-4.286 2.937-7.077 7.104-7.077 3.722 0 5.748 2.228 5.748 5.493 0 .705-.084 1.747-.282 2.312l-8.318.14v.056c.153 1.781 1.337 2.769 3.48 2.769zm1.1-5.27c0-1.58-.649-2.51-2.002-2.51-1.494 0-2.396 1.296-2.538 2.79l4.54-.025v-.256z"/></g><g fill="#1A53F0"><path d="M77.718 21.02a6.983 6.983 0 1 0 0 13.967 6.983 6.983 0 0 0 0-13.967zm0 11.854a4.87 4.87 0 1 1 0-9.743 4.87 4.87 0 0 1 0 9.745v-.002zM92.634 6.124a6.983 6.983 0 1 0 0 13.967 6.983 6.983 0 0 0 0-13.967zm0 11.854a4.87 4.87 0 1 1 4.87-4.87 4.877 4.877 0 0 1-4.87 4.87z"/><path d="M77.718 6.124a6.987 6.987 0 1 0 5.002 2.111h1.981V6.124h-6.983zm4.872 6.983a4.87 4.87 0 1 1-4.87-4.872 4.877 4.877 0 0 1 4.87 4.872z"/></g></g></svg>