<?xml version="1.0" encoding="UTF-8" standalone="no"?>
<!-- Created with Inkscape (http://www.inkscape.org/) -->
<svg
   xmlns:svg="http://www.w3.org/2000/svg"
   xmlns="http://www.w3.org/2000/svg"
   version="1.0"
   width="612.56689"
   height="269.1496"
   id="svg1878">
  <defs
     id="defs1880" />
  <g
     transform="translate(-640.7304,-821.3293)"
     id="layer1">
    <g
       transform="matrix(2.567007,0,0,2.567007,638.9732,819.7931)"
       id="Ebene_x0020_1">
      <g
         id="_138485768">
        <path
           d="M 226.14,28.1466 C 216.55797,28.1466 205.8702,43.6254 202.5534,48.7849 C 202.5534,49.521979 202.1848,49.153495 202.5534,48.7849 C 204.02756,42.51967 205.8702,36.9915 205.8702,32.9376 C 205.8702,30.35777 204.76464,27.77793 201.81632,27.77793 C 194.81401,27.77793 185.23192,41.41403 185.23192,44.73083 C 185.23192,45.467909 185.23192,45.8365 185.969,45.8365 C 186.70608,45.8365 187.81175,43.62526 189.6544,41.04543 C 191.86564,38.4656 194.81407,34.7802 196.65671,34.7802 C 196.65671,34.7802 197.0253,34.7802 197.0253,35.88587 C 197.0253,40.30834 188.54883,63.89507 184.8633,75.68837 C 184.49482,76.79404 185.2319,77.16264 189.28589,77.16264 C 191.86561,77.16264 193.33977,77.531124 193.70836,75.68837 C 195.9196,67.5805 199.97359,58.73547 204.39606,50.99607 C 208.45005,43.99376 217.29516,33.67467 222.08606,33.67467 C 223.56033,33.67467 223.92881,34.411749 223.92881,36.25439 C 223.92881,41.04546 211.39831,65.00069 211.39831,74.21429 C 211.76691,76.79412 212.87247,78.63688 216.18938,78.63688 C 223.56028,78.63688 230.19398,67.94908 233.51088,62.42098 C 233.87937,61.31531 234.61644,60.57823 233.87937,59.47255 C 233.51088,59.104066 233.51088,58.735471 232.77381,58.735471 C 232.40521,58.735471 232.03673,59.104066 232.03673,59.47255 C 229.82538,63.15806 225.40291,71.26595 222.086,71.26595 C 221.71751,71.26595 221.34892,70.897466 221.34892,70.16039 C 221.34892,66.47488 232.40522,43.25669 232.40522,35.51729 C 232.40522,29.98914 229.4569,28.1465 226.13999,28.1465 M 134.37289,45.8365 C 134.37289,46.204984 135.11008,46.573579 135.47856,46.573579 C 136.95272,46.573579 137.6898,43.993749 140.63811,39.939869 C 142.48086,36.991439 144.6921,35.148799 146.16626,35.148799 C 146.90334,35.148799 147.27193,35.885878 147.27193,36.254359 C 147.27193,39.202679 135.84713,63.526459 135.84713,72.740059 C 135.84713,75.688379 136.95269,78.636799 140.63809,78.636799 C 149.11456,78.636799 158.69669,67.211899 165.69899,57.261299 C 166.06759,56.892815 166.06759,56.892815 166.06759,57.629894 C 164.59343,61.683884 162.38208,69.423294 162.38208,74.214194 C 162.38208,76.425544 163.11915,78.636784 166.43607,78.636784 C 173.80697,78.636784 184.12607,63.526484 184.12607,59.841084 C 184.12607,59.104005 184.12607,58.735414 183.38899,58.735414 C 181.91483,58.735414 181.54635,60.578164 180.44067,62.789404 C 177.86084,66.474804 173.80696,71.634464 171.9642,71.634464 C 171.22712,71.634464 171.22712,70.897385 171.22712,70.160304 C 171.22712,65.000634 183.75762,31.831904 183.75762,30.726204 C 183.75762,29.989125 183.38902,29.620644 182.28346,29.620644 C 181.54638,29.620644 180.44071,29.252049 178.59795,29.252049 C 175.28115,29.252049 174.91255,29.989128 174.54407,30.357719 C 173.06991,33.674629 170.49008,43.625219 166.0676,52.101719 C 159.43378,63.526519 150.5888,72.371519 146.9033,72.371519 C 145.42914,72.371519 144.69206,71.265849 144.69206,69.791689 C 144.69206,65.000619 156.85396,38.834189 156.85396,32.568889 C 156.85396,31.094729 156.11688,28.146419 152.43149,28.146419 C 142.84946,28.146419 134.37289,43.993719 134.37289,45.836419 L 134.37289,45.8365 z M 104.52099,27.0408 C 104.15239,42.5196 121.10539,49.5219 121.10539,63.158 C 121.10539,66.8434 118.15696,76.4255 108.20629,76.0569 C 103.41522,76.0569 98.62426,72.73999 98.99275,64.2635 L 98.99275,58.36687 C 98.624266,57.629791 98.624266,57.2612 98.255671,56.52412 C 97.887076,56.52412 97.518592,56.155636 97.150001,56.52412 C 96.044441,56.892715 95.675841,57.99828 95.675841,58.73536 C 94.938762,61.31519 94.201681,63.89503 93.833201,66.47475 C 93.833201,66.843345 94.201685,66.843345 93.833201,66.843345 C 93.464606,68.685985 93.096122,70.528745 93.096122,72.739975 C 93.096122,73.845645 93.833201,74.582725 94.938762,75.319805 C 98.255672,77.531045 103.04674,78.636715 108.20626,79.005205 C 121.10536,79.005205 131.42446,67.948905 131.79306,57.261205 C 131.79306,48.416255 127.00199,43.625205 121.47386,36.991405 C 118.89403,33.674605 113.36599,28.883535 113.73447,22.618305 C 113.73447,17.827235 117.78846,11.930605 125.15927,12.299105 C 135.11,12.299105 133.63574,22.986805 133.63574,27.777905 C 133.63574,28.514984 133.63574,28.883575 134.37282,29.252065 C 134.74142,29.62066 135.11001,29.62066 135.84709,29.62066 C 135.84709,29.252065 136.21557,28.883581 136.58417,28.51499 L 138.79541,19.30145 C 139.16389,17.45881 139.90097,15.98454 139.90097,13.7733 C 139.90097,13.404816 139.90097,13.036221 139.16389,12.29914 C 133.63574,9.71931 130.68742,9.35082 125.89639,8.98223 C 113.36609,8.98223 104.52099,17.82729 104.52099,27.04083 L 104.52099,27.0408 z "
           style="fill:#5583a3"
           id="_225034736" />
        <path
           d="M 14.5969,49.8906 C 12.01707,52.83892 7.59459,52.83892 4.2777,49.8906 C 1.32938,46.94228 1.32938,42.5197 4.2777,39.5714 L 21.5992,22.6185 L 26.02167,27.04097 L 8.70017,44.36247 L 10.17444,45.46803 L 27.49584,28.14663 L 31.91831,32.9377 L 14.59691,49.8906 L 14.5969,49.8906 z M 28.2329,39.2028 C 31.18122,36.62308 35.6038,36.62308 38.5521,39.2028 C 41.50042,42.15123 41.50042,46.9423 38.5521,49.8906 L 21.5992,66.8435 L 16.80813,62.42103 L 34.12963,45.09953 L 32.65547,43.62537 L 15.70247,60.94677 L 10.91151,56.5243 L 28.23291,39.2028 L 28.2329,39.2028 z M 50.3455,74.9514 C 53.29382,77.53123 53.29382,82.3223 50.3455,85.2706 C 47.39718,88.21892 42.9746,88.21892 40.0263,85.2706 L 22.7048,68.3177 L 27.49587,63.52663 L 44.44877,80.84813 L 45.92293,79.37397 L 28.60153,62.42107 L 33.3926,57.63 L 50.3455,74.9514 L 50.3455,74.9514 z M 39.6578,61.3154 C 36.70937,58.73557 36.70937,53.9445 39.6578,50.9962 C 42.60612,48.04788 47.39719,48.04788 50.3455,50.9962 L 67.2984,68.3177 L 62.87593,72.74017 L 45.55443,55.41877 L 44.08027,56.89293 L 61.40167,73.84583 L 56.9792,78.6369 L 39.6578,61.3154 L 39.6578,61.3154 z M 61.7703,49.8906 C 58.82198,52.83892 54.39951,52.83892 51.4511,49.8906 C 48.50278,46.94228 48.50278,42.5197 51.4511,39.5714 L 68.404,22.6185 L 72.82659,27.04097 L 55.87369,44.36247 L 56.97925,45.46803 L 74.30075,28.14663 L 79.09182,32.9377 L 61.77032,49.8906 L 61.7703,49.8906 z M 75.0378,39.2028 C 77.98612,36.62308 82.77719,36.62308 85.7255,39.2028 C 88.30533,42.15123 88.30533,46.9423 85.7255,49.8906 L 68.404,66.8435 L 63.98153,62.42103 L 80.93443,45.09953 L 79.82887,43.62537 L 62.87597,60.94677 L 58.0849,56.5243 L 75.0378,39.2028 L 75.0378,39.2028 z M 50.3455,27.778 C 53.29382,30.72632 53.29382,35.51739 50.3455,38.0972 C 47.39718,41.04552 42.9746,41.04552 40.0263,38.0972 L 22.7048,21.1443 L 27.49587,16.72171 L 44.44877,33.67471 L 45.92293,32.56904 L 28.60153,15.24754 L 33.3926,10.82507 L 50.3455,27.77797 L 50.3455,27.778 z M 39.6578,14.5105 C 36.70937,11.56218 36.70937,6.77111 39.6578,4.1914 C 42.60612,1.24297 47.39719,1.24297 50.3455,4.1914 L 67.2984,21.1443 L 62.87593,25.56677 L 45.55443,8.61387 L 44.08027,9.71943 L 61.40167,27.04093 L 56.9792,31.4634 L 39.6578,14.5105 L 39.6578,14.5105 z "
           style="fill:#5583a3"
           id="_226601952" />
        <path
           d="M 110.418,98.5382 L 110.418,91.90449 C 110.418,90.43022 110.04952,89.69314 108.57536,89.69314 C 107.1012,89.69314 105.62693,91.16741 105.62693,93.74713 L 105.62693,98.5382 L 103.78429,98.5382 L 103.78429,91.90449 C 103.78429,90.79882 103.78429,89.69314 101.94154,89.69314 C 100.46738,89.69314 98.99322,91.16741 98.99322,93.74713 L 98.99322,98.5382 L 97.15047,98.5382 L 97.15047,88.219 L 98.99322,88.219 C 98.99322,88.956079 98.99322,89.69316 98.99322,90.43024 L 98.99322,90.43024 C 99.730299,88.95608 100.83597,88.219 102.67862,88.219 C 104.88986,88.219 105.62694,89.69316 105.62694,90.43024 C 105.99554,89.32468 107.10121,88.219 108.94385,88.219 C 111.15509,88.219 112.26076,88.956079 112.26076,91.53591 L 112.26076,98.53822 L 110.41801,98.53822 L 110.418,98.5382 z M 127.0024,98.906795 C 124.42257,98.906795 122.57993,97.432525 122.57993,93.747125 C 122.57993,90.430215 124.05409,88.218975 127.73948,88.218975 C 128.47656,88.218975 129.21364,88.218975 129.95072,88.58757 L 129.95072,90.06173 C 129.21364,89.693135 128.47656,89.693135 127.73948,89.693135 C 125.15965,89.693135 124.42257,91.167405 124.42257,93.378645 C 124.42257,95.589885 125.15965,97.064045 127.37089,97.064045 C 128.47656,97.064045 129.21364,97.064045 129.95072,96.69545 L 129.95072,98.16961 C 129.21364,98.538205 128.10808,98.906801 127.0024,98.906801 L 127.0024,98.906795 z M 138.4272,90.061735 C 135.84748,89.69314 135.1104,91.167405 135.1104,94.484205 L 135.1104,98.538195 L 133.26765,98.538195 L 133.26765,88.218995 L 134.74181,88.218995 C 134.74181,88.956074 134.74181,89.693155 134.37322,90.798825 L 134.74181,90.798825 C 135.11041,89.324665 136.21597,87.850505 138.42721,88.218995 L 138.42721,90.061745 L 138.4272,90.061735 z M 145.06102,89.69314 C 143.58686,89.69314 142.11259,90.79881 142.11259,93.37865 C 142.11259,95.95837 143.21826,97.06405 145.06102,97.06405 C 146.53518,97.06405 148.00934,95.95838 148.00934,93.37865 C 148.00934,91.16741 147.27226,89.69314 145.06102,89.69314 M 144.69242,98.9068 C 141.7441,98.9068 139.90136,97.06405 139.90136,93.37865 C 139.90136,90.43022 141.7441,88.21898 145.06103,88.21898 C 148.00935,88.21898 149.85209,89.69314 149.85209,93.37865 C 149.85209,96.32697 148.00935,98.9068 144.69242,98.9068 z M 155.01162,98.9068 C 154.27455,98.9068 153.16887,98.9068 152.80038,98.538205 L 152.80038,97.064045 C 153.53746,97.064045 154.27454,97.432529 155.3801,97.432529 C 156.48577,97.432529 157.59146,96.69545 157.59146,95.589889 C 157.59146,93.378649 152.43178,94.85281 152.43178,91.167419 C 152.43178,89.324669 153.90595,88.218989 156.85425,88.218989 C 157.59145,88.218989 158.32852,88.218989 159.06561,88.218989 L 158.69701,89.693149 C 158.32853,89.693149 157.22285,89.324665 156.48577,89.324665 C 155.3801,89.324665 154.64302,90.061744 154.64302,91.167415 C 154.64302,93.378655 159.43409,91.904494 159.43409,95.589885 C 159.43409,97.432525 157.95993,98.906795 155.01162,98.906795 L 155.01162,98.9068 z M 166.43642,99.643879 C 165.33086,102.96068 164.22518,104.06635 162.01395,104.06635 C 161.64536,104.06635 160.90828,103.69775 160.53979,103.69775 L 160.53979,102.22359 C 161.27687,102.22359 161.64535,102.22359 162.01395,102.22359 C 163.11951,102.22359 163.85659,101.85511 164.59378,99.643874 L 165.33086,98.538204 L 161.27687,88.219004 L 163.11951,88.219004 L 165.33086,93.747154 C 165.69935,94.484233 166.06794,95.221314 166.06794,96.326984 L 166.06794,96.326984 C 166.43643,95.589905 166.80502,94.115744 167.1735,93.010074 L 169.01625,88.219004 L 170.85889,88.219004 L 166.43642,99.643904 L 166.43642,99.643879 z M 174.91289,98.9068 C 174.17582,98.9068 173.07026,98.9068 172.70165,98.538205 L 172.70165,97.064045 C 173.43873,97.064045 174.17582,97.432529 175.28148,97.432529 C 176.75564,97.432529 177.49272,96.69545 177.49272,95.589889 C 177.49272,93.378649 172.70165,94.85281 172.70165,91.167419 C 172.70165,89.324669 173.80732,88.218989 176.75564,88.218989 C 177.49272,88.218989 178.22981,88.218989 178.59828,88.218989 L 178.59828,89.693149 C 178.2298,89.693149 177.12412,89.324665 176.75564,89.324665 C 175.28148,89.324665 174.5444,90.061744 174.5444,91.167415 C 174.5444,93.378655 179.33547,91.904494 179.33547,95.589885 C 179.33547,97.432525 177.8612,98.906795 174.91288,98.906795 L 174.91289,98.9068 z M 185.96919,98.9068 C 183.75795,98.9068 183.02087,97.80113 183.02087,95.58989 L 183.02087,89.69315 L 180.80963,89.69315 L 180.80963,88.21899 L 183.02087,88.21899 L 183.02087,84.90219 L 185.23211,84.533595 L 185.23211,88.218995 L 187.81194,88.218995 L 187.81194,89.693155 L 185.23211,89.693155 L 185.23211,94.852825 C 185.23211,96.695465 185.23211,97.064065 186.70628,97.064065 C 187.07487,97.064065 187.44335,97.064065 187.81195,97.064065 L 187.81195,98.538225 C 187.44335,98.538225 186.70628,98.90682 185.9692,98.90682 L 185.96919,98.9068 z M 194.81425,89.32466 C 193.33998,89.32466 192.6029,90.43022 192.23442,91.90449 L 197.39397,91.90449 C 197.39397,90.43022 196.28841,89.32466 194.81425,89.32466 M 199.23672,93.37865 L 192.23441,93.37865 C 191.86582,95.95837 193.33997,97.43253 195.55132,97.43253 C 196.65688,97.43253 197.76257,97.064046 198.49964,96.695451 L 198.86813,98.169611 C 197.76257,98.538206 196.65689,98.906802 195.18273,98.906802 C 191.86582,98.906802 190.02318,97.064052 190.02318,93.378652 C 190.02318,90.430222 191.86582,88.218982 194.81425,88.218982 C 198.13105,88.218982 199.23672,90.061732 199.23672,92.272972 C 199.23672,92.641567 199.23672,93.010051 199.23672,93.378642 L 199.23672,93.37865 z M 215.45262,98.5382 L 215.45262,91.90449 C 215.45262,90.43022 215.08403,89.69314 213.60987,89.69314 C 212.13571,89.69314 210.66155,91.16741 210.66155,93.74713 L 210.66155,98.5382 L 208.81892,98.5382 L 208.81892,91.90449 C 208.81892,90.79882 208.45032,89.69314 206.97617,89.69314 C 205.50201,89.69314 204.02785,91.16741 204.02785,93.74713 L 204.02785,98.5382 L 202.1851,98.5382 L 202.1851,88.219 L 204.02785,88.219 C 204.02785,88.956079 204.02785,89.69316 203.65925,90.43024 L 203.65925,90.43024 C 204.39633,88.95608 205.87049,88.219 207.34465,88.219 C 209.92448,88.219 210.29308,89.69316 210.66156,90.43024 C 210.66156,89.32468 212.13572,88.219 213.97847,88.219 C 216.18971,88.219 217.29538,88.956079 217.29538,91.53591 L 217.29538,98.53822 L 215.45263,98.53822 L 215.45262,98.5382 z M 222.82341,98.906795 C 221.71785,98.906795 220.98077,98.906795 220.24369,98.5382 L 220.24369,97.06404 C 220.98077,97.06404 222.08633,97.432524 222.82341,97.432524 C 223.92908,97.432524 225.03476,96.695445 225.03476,95.589884 C 225.03476,93.378644 220.2437,94.852805 220.2437,91.167414 C 220.2437,89.324664 221.71786,88.218984 224.29769,88.218984 C 225.03476,88.218984 225.77185,88.218984 226.50893,88.218984 L 226.50893,89.693144 C 225.77185,89.693144 225.03476,89.32466 224.29769,89.32466 C 222.82342,89.32466 222.08633,90.061739 222.08633,91.16741 C 222.08633,93.37865 227.24601,91.904489 227.24601,95.58988 C 227.24601,97.43252 225.40326,98.90679 222.82341,98.90679 L 222.82341,98.906795 z M 117.78941,86.376295 C 118.52649,86.376295 119.26357,86.0077 119.26357,85.270625 C 119.26357,84.533546 118.5265,84.165065 117.78941,84.165065 C 117.05234,84.165065 116.31525,84.533549 116.31525,85.270625 C 116.31525,86.007704 117.05233,86.376295 117.78941,86.376295 z M 115.20958,88.218935 L 115.20958,89.693095 L 117.05233,89.693095 L 117.05233,98.538155 L 118.89497,98.538155 L 118.89497,88.218955 L 115.20957,88.218955 L 115.20958,88.218935 z "
           style="fill:#5583a3"
           id="_229457024" />
        <path
           d="M 234.248,73.4773 C 234.61648,73.4773 235.35356,73.4773 235.35356,72.740221 C 235.35356,72.371737 234.61648,72.003142 234.248,72.003142 L 233.51092,72.003142 L 233.51092,73.477302 L 234.248,73.477302 M 233.51092,75.688542 L 232.77384,75.688542 L 232.77384,71.634662 L 234.61648,71.634662 C 235.35356,71.634662 235.72215,72.003146 235.72215,72.740222 C 235.72215,73.477301 235.35356,73.845892 234.61648,73.845892 L 236.09064,75.688532 L 235.35356,75.688532 L 234.248,73.845892 L 233.51092,73.845892 L 233.51092,75.688532 L 233.51092,75.688542 z M 231.29968,73.845902 C 231.29968,75.320062 232.40524,76.794222 234.248,76.794222 C 236.09064,76.794222 237.19632,75.320062 237.19632,73.845902 C 237.19632,72.003152 236.09065,70.528992 234.248,70.528992 C 232.40525,70.528992 231.29968,72.003152 231.29968,73.845902 L 231.29968,73.845902 z M 237.93339,73.845902 C 237.93339,75.688542 236.09064,77.531302 234.24799,77.531302 C 232.03675,77.531302 230.56248,75.688552 230.56248,73.845902 C 230.56248,71.634662 232.03675,70.160502 234.24799,70.160502 C 236.09063,70.160502 237.93339,71.634662 237.93339,73.845902 z "
           style="fill:#5583a3"
           id="_226324168" />
      </g>
    </g>
  </g>
</svg>
