<?xml version="1.0" encoding="UTF-8"?>
<svg width="167px" height="167px" viewBox="0 0 167 167" version="1.1" xmlns="http://www.w3.org/2000/svg" xmlns:xlink="http://www.w3.org/1999/xlink">
    <!-- Generator: Sketch 50.2 (55047) - http://www.bohemiancoding.com/sketch -->
    <title>caution</title>
    <desc>Created with Sketch.</desc>
    <defs></defs>
    <g id="v2" stroke="none" stroke-width="1" fill="none" fill-rule="evenodd">
        <g id="organize" transform="translate(-637.000000, -9706.000000)" fill="#F2CD80" fill-rule="nonzero">
            <g id="met" transform="translate(129.000000, 8869.000000)">
                <g id="use-cases" transform="translate(10.000000, 803.000000)">
                    <g id="caution" transform="translate(498.000000, 34.000000)">
                        <path d="M167,83.5 C167,37.4235751 129.576425,0 83.5,0 C37.4235751,0 0,37.4235751 0,83.5 C0,129.576425 37.4235751,167 83.5,167 C129.576425,167 167,129.576425 167,83.5 Z M74.4145078,45.8601036 C74.4145078,40.884715 78.5246114,36.7746114 83.5,36.7746114 C88.4753886,36.7746114 92.5854922,40.884715 92.5854922,45.8601036 L92.5854922,81.9857513 C92.5854922,86.9611399 88.4753886,91.0712435 83.5,91.0712435 C78.5246114,91.0712435 74.4145078,86.9611399 74.4145078,81.9857513 L74.4145078,45.8601036 Z M75.0634715,114.433938 C75.0634715,109.891192 78.7409326,105.997409 83.5,105.997409 C88.0427461,105.997409 91.9365285,109.67487 91.9365285,114.433938 C91.9365285,118.976684 88.2590674,122.870466 83.5,122.870466 C78.9572539,122.870466 75.0634715,119.193005 75.0634715,114.433938 Z" id="Shape"></path>
                    </g>
                </g>
            </g>
        </g>
    </g>
</svg>