<?xml version="1.0" encoding="UTF-8"?>
<svg width="165px" height="150px" viewBox="0 0 165 150" version="1.1" xmlns="http://www.w3.org/2000/svg" xmlns:xlink="http://www.w3.org/1999/xlink">
    <!-- Generator: Sketch 50.2 (55047) - http://www.bohemiancoding.com/sketch -->
    <title>blockchain</title>
    <desc>Created with Sketch.</desc>
    <defs>
        <linearGradient x1="50%" y1="100%" x2="50%" y2="2.01183165%" id="linearGradient-1">
            <stop stop-color="#E0BC86" offset="0%"></stop>
            <stop stop-color="#BC7BB4" offset="100%"></stop>
        </linearGradient>
    </defs>
    <g id="v2" stroke="none" stroke-width="1" fill="none" fill-rule="evenodd">
        <g id="organize" transform="translate(-165.000000, -3284.000000)" fill="url(#linearGradient-1)" fill-rule="nonzero">
            <g id="blockchain" transform="translate(165.000000, 3284.000000)">
                <path d="M156.153499,123.419988 C153.297729,123.419988 150.911569,125.425161 150.327695,128.103375 L105.206557,128.103375 L105.206557,89.5948016 L117.264249,89.5948016 L117.264249,115.664851 C117.264249,116.36299 117.835419,116.934082 118.53348,116.934082 L136.328043,116.934082 C136.911917,119.612295 139.298077,121.617469 142.153846,121.617469 C145.428483,121.617469 148.106542,118.952271 148.106542,115.664851 C148.106542,112.377742 145.428483,109.712233 142.153846,109.712233 C139.298077,109.712233 136.911917,111.717717 136.328043,114.39562 L119.802711,114.39562 L119.802711,89.5948016 L133.484978,89.5948016 C150.860751,89.5948016 165,75.4557072 165,58.0800123 C165,40.6916127 150.860751,26.5522084 133.484978,26.5522084 C131.822289,26.5522084 130.1596,26.6919601 128.52232,26.9457444 C126.288462,11.4993051 113.11384,0 97.3373107,0 C85.7999689,0 75.3669292,6.16828803 69.7949876,16.1953971 C65.7334336,13.6442308 61.0753784,12.2987718 56.252317,12.2987718 C43.763052,12.2987718 33.1395967,21.3358436 31.0580397,33.5329778 C30.2457909,33.4567496 29.4969106,33.4189453 28.7607351,33.4189453 C12.9080552,33.4189453 0,46.3269231 0,62.1796029 C0,77.8035983 12.3622953,89.5948016 28.7607351,89.5948016 L45.197289,89.5948016 L45.197289,114.39562 L28.6719572,114.39562 C28.0880831,111.717717 25.7019231,109.712233 22.8461538,109.712233 C19.5715168,109.712233 16.8934585,112.377742 16.8934585,115.664851 C16.8934585,118.952271 19.5715169,121.617469 22.8461538,121.617469 C25.7019231,121.617469 28.0880831,119.612295 28.6719572,116.934082 L46.4665199,116.934082 C47.1645814,116.934082 47.7357507,116.36299 47.7357507,115.664851 L47.7357507,89.5948016 L59.793443,89.5948016 L59.793443,128.103375 L14.6723046,128.103375 C14.0884306,125.425161 11.7022705,123.419988 8.84650127,123.419988 C5.57194161,123.419988 2.89388334,126.085186 2.89388334,129.372605 C2.89388334,132.64732 5.57194173,135.325223 8.84650127,135.325223 C11.6896433,135.325223 14.0884306,133.32005 14.6723046,130.641836 L61.0626738,130.641836 C61.7607352,130.641836 62.3319045,130.070744 62.3319045,129.372605 L62.3319045,89.5948016 L74.3895969,89.5948016 L74.3895969,141.811129 L38.800394,141.811129 C38.2292247,139.132916 35.8303599,137.127742 32.9872954,137.127742 C29.7000311,137.127742 27.0346,139.79294 27.0346,143.08036 C27.0346,146.355074 29.7000311,149.032978 32.9872954,149.032978 C35.8303599,149.032978 38.2165199,147.027494 38.800394,144.349591 L75.6588276,144.349591 C76.3568891,144.349591 76.9280584,143.778499 76.9280584,143.08036 L76.9280584,89.5948016 L88.0719417,89.5948016 L88.0719417,143.08036 C88.0719417,143.778499 88.6431111,144.349591 89.3411725,144.349591 L126.199606,144.349591 C126.78348,147.027494 129.16964,149.032978 132.012705,149.032978 C135.299969,149.032978 137.9654,146.355074 137.9654,143.08036 C137.9654,139.79294 135.299969,137.127742 132.012705,137.127742 C129.16964,137.127742 126.770775,139.132916 126.199606,141.811129 L90.6104033,141.811129 L90.6104033,89.5948016 L102.668096,89.5948016 L102.668096,129.372605 C102.668096,130.070744 103.239265,130.641836 103.937326,130.641836 L150.327695,130.641836 C150.91157,133.32005 153.310357,135.325223 156.153499,135.325223 C159.428059,135.325223 162.106117,132.64732 162.106117,129.372605 C162.106117,126.085186 159.428058,123.419988 156.153499,123.419988 Z M40.1203661,63.8550744 C35.259268,63.8550744 31.3119015,59.9076304 31.3119015,55.0463774 C31.3119015,50.197829 35.2592681,46.2379902 40.1203661,46.2379902 C44.9815416,46.2379902 48.9288307,50.197829 48.9288307,55.0463774 C48.9288307,59.9076302 44.9815415,63.8550744 40.1203661,63.8550744 Z M124.879634,46.2379901 C129.740732,46.2379901 133.688099,50.1978289 133.688099,55.0463773 C133.688099,59.9076302 129.740732,63.8550743 124.879634,63.8550743 C120.018458,63.8550743 116.058465,59.9076302 116.058465,55.0463773 C116.058465,50.197829 120.018458,46.2379901 124.879634,46.2379901 Z M68.3734553,63.8550744 C63.5122798,63.8550744 59.5649907,59.9076304 59.5649907,55.0463774 C59.5649907,50.197829 63.5122799,46.2379902 68.3734553,46.2379902 C73.2346307,46.2379902 77.1819199,50.197829 77.1819199,55.0463774 C77.18192,59.9076302 73.2346309,63.8550744 68.3734553,63.8550744 Z M87.81808,55.0463773 C87.81808,50.1978289 91.7653691,46.2379901 96.6265446,46.2379901 C101.48772,46.2379901 105.435009,50.1978289 105.435009,55.0463773 C105.435009,59.9076302 101.48772,63.8550743 96.6265446,63.8550743 C91.7653691,63.8550743 87.81808,59.9076302 87.81808,55.0463773 Z" id="Shape"></path>
            </g>
        </g>
    </g>
</svg>