<?xml version="1.0" encoding="UTF-8"?>
<svg width="162px" height="162px" viewBox="0 0 162 162" version="1.1" xmlns="http://www.w3.org/2000/svg" xmlns:xlink="http://www.w3.org/1999/xlink">
    <!-- Generator: Sketch 50.2 (55047) - http://www.bohemiancoding.com/sketch -->
    <title>reviews</title>
    <desc>Created with Sketch.</desc>
    <defs></defs>
    <g id="v2" stroke="none" stroke-width="1" fill="none" fill-rule="evenodd">
        <g id="organize" transform="translate(-1062.000000, -9715.000000)" fill="#F2CD80">
            <g id="met" transform="translate(129.000000, 8869.000000)">
                <g id="use-cases" transform="translate(10.000000, 803.000000)">
                    <g id="reviews" transform="translate(923.000000, 43.000000)">
                        <g id="Group-35">
                            <path d="M121.841077,91.3846154 C127.451077,91.3846154 132,86.8407692 132,81.2307692 L132,10.1538462 C132,4.54384615 127.451077,0 121.841077,0 L10.1487692,0 C4.53876923,0 0,4.54384615 0,10.1538462 L0,132 L40.6103077,91.3846154 L121.841077,91.3846154 Z" id="Shape" fill-rule="nonzero"></path>
                            <path d="M151.841468,20 L141.693089,20 L141.693089,101.142857 L50.3069113,101.142857 L30,121.428571 L129.503865,121.428571 L162,162 L162,30.1428571 C162,24.5389286 162,20 151.841468,20 Z" id="Shape" fill-rule="nonzero"></path>
                        </g>
                    </g>
                </g>
            </g>
        </g>
    </g>
</svg>