<?xml version="1.0" encoding="UTF-8"?>
<svg width="193px" height="193px" viewBox="0 0 193 193" version="1.1" xmlns="http://www.w3.org/2000/svg" xmlns:xlink="http://www.w3.org/1999/xlink">
    <!-- Generator: Sketch 49.3 (51167) - http://www.bohemiancoding.com/sketch -->
    <title>M1mark-outline</title>
    <desc>Created with Sketch.</desc>
    <defs></defs>
    <g id="v2" stroke="none" stroke-width="1" fill="none" fill-rule="evenodd" opacity="0.169363839">
        <g id="menlo-landing-v3" transform="translate(-1055.000000, -14737.000000)" fill="#FFFFFF" fill-rule="nonzero">
            <g id="Group-29" transform="translate(-1449.000000, 0.000000)">
                <g id="Group-13" transform="translate(703.000000, 10337.000000)">
                    <g id="jobs" transform="translate(746.000000, 4321.000000)">
                        <g id="Group-12" transform="translate(139.000000, 79.000000)">
                            <g id="M1mark-outline" transform="translate(916.000000, 0.000000)">
                                <g id="Group" transform="translate(54.000000, 54.000000)">
                                    <path d="M57.5305332,34.681051 L75.1032309,16.2710658 L75.1032309,73.7545258 C75.1032309,76.5809551 77.18133,78.4525096 79.58755,78.4525096 C81.99377,78.4525096 83.7437482,76.2753952 83.7437482,74.0982807 L83.7437482,5.0035437 C83.7437482,3.13198919 82.8323012,1.26043467 81.0458652,0.649314831 C79.5510921,0.0381949901 77.472993,0.649314831 76.269883,1.9097495 L51.2233201,28.1497077 C49.436884,29.7157023 49.436884,32.8476915 51.2233201,34.719246 C52.754551,36.5526055 55.7440971,36.5526055 57.5305332,34.681051 Z" id="Shape"></path>
                                    <path d="M57.2388701,60.3098893 C59.0253062,58.7438947 59.0253062,55.6119055 57.2388701,53.740351 L7.72907036,1.9097495 C6.52596035,0.343754911 4.73952428,0.0381949901 2.9530882,0.649314831 C1.45831516,1.60418958 0.255205153,3.13198919 0.255205153,5.0035437 L0.255205153,73.7163308 C0.255205153,76.5427601 2.33330426,78.4143146 4.73952428,78.4143146 C7.1457443,78.4143146 9.2238434,76.2372002 9.2238434,74.0600857 L9.2238434,16.2710658 L50.9316571,60.3098893 C52.462888,62.1814438 55.4524341,62.1814438 57.2388701,60.3098893 Z" id="Shape"></path>
                                </g>
                                <path d="M193,96.5 C193,43.1548 149.8452,0 96.5,0 C43.1548,0 0,43.1548 0,96.5 C0,149.8452 43.5022,193 96.5,193 C149.8452,193 193,149.8452 193,96.5 Z M10.5378,96.8474 C10.5378,49.601 48.9448,10.8852 96.5,10.8852 C144.0552,10.8852 182.8096,49.6396 182.8096,96.8474 C182.8096,144.0552 143.7464,182.8096 96.5,182.8096 C49.2536,182.8096 10.5378,144.0552 10.5378,96.8474 Z" id="Shape"></path>
                            </g>
                        </g>
                    </g>
                </g>
            </g>
        </g>
    </g>
</svg>