<?xml version="1.0" encoding="utf-8"?>
<!-- Generator: Adobe Illustrator 22.1.0, SVG Export Plug-In . SVG Version: 6.00 Build 0)  -->
<svg version="1.1" id="Layer_1" xmlns="http://www.w3.org/2000/svg" xmlns:xlink="http://www.w3.org/1999/xlink" x="0px" y="0px"
	 viewBox="0 0 185 180" style="enable-background:new 0 0 185 180;" xml:space="preserve">
<style type="text/css">
	.st0{fill:url(#Shape_1_);}
</style>
<title>decentralized</title>
<desc>Created with Sketch.</desc>
<g id="v2">
	<g id="organize" transform="translate(-1110.000000, -3298.000000)">
		<g id="decentralized" transform="translate(1110.000000, 3298.000000)">
			
				<linearGradient id="Shape_1_" gradientUnits="userSpaceOnUse" x1="-211.3447" y1="442.1331" x2="-211.3447" y2="443.113" gradientTransform="matrix(184.375 0 0 -99.8222 39058.875 44275.5156)">
				<stop  offset="0" style="stop-color:#E0BC86"/>
				<stop  offset="1" style="stop-color:#BC7BB4"/>
			</linearGradient>
			<path id="Shape" class="st0" d="M157.6,97.9l26-26c1-1,1-2.9,0-3.9l-26-26.2c-1-1-2.9-1-3.9,0l-26,26.2c-1,1-1,2.9,0,3.9l7.1,7.1
				c1.7,1.7,1.7,4.4,0,6l-6.4,6.4c-1.7,1.7-4.4,1.7-6,0l-7.1-7.1c-1-1-2.9-1-3.9,0l-7.1,7.1c-1.7,1.7-4.4,1.7-6,0L92,84.8
				c-1.7-1.7-1.7-4.4,0-6l7.1-7.1c1-1,1-2.9,0-3.9l-26-26c-1-1-2.9-1-3.9,0L43,68c-1,1-1,2.9,0,3.9L50,79c1.7,1.7,1.7,4.4,0,6
				l-6.4,6.4c-1.7,1.7-4.4,1.7-6,0l-7.1-7.1c-1-1-2.9-1-3.9,0L0.8,110.1c-1,1-1,2.9,0,3.9l26,26c1,1,2.9,1,3.9,0l26-26
				c1-1,1-2.9,0-3.9l-7.1-7.1c-1.7-1.7-1.7-4.4,0-6l6.4-6.4c1.7-1.7,4.4-1.7,6,0l7.1,7.1c1,1,2.9,1,3.9,0l7.1-7.1
				c1.7-1.7,4.4-1.7,6,0l6.4,6.4c1.7,1.7,1.7,4.4,0,6l-7.1,7.1c-1,1-1,2.9,0,3.9l26,26c1,1,2.9,1,3.9,0l26-26c1-1,1-2.9,0-3.9
				l-7.1-7.1c-1.7-1.7-1.7-4.4,0-6l6.4-6.4c1.7-1.7,4.4-1.7,6,0l7.1,7.1C154.9,98.9,156.6,98.9,157.6,97.9z M37.8,121.3
				c-5,5-13.1,5-18.3,0c-5-5-5-13.1,0-18.3c5-5,13.1-5,18.3,0C42.7,108.1,42.7,116.4,37.8,121.3z M61.9,60.7c5-5,13.1-5,18.3,0
				c5,5,5,13.1,0,18.3c-5,5-13.1,5-18.3,0C56.9,74,56.9,65.7,61.9,60.7z M122.5,121.3c-5,5-13.1,5-18.3,0c-5-5-5-13.1,0-18.3
				c5-5,13.1-5,18.3,0C127.5,108.1,127.5,116.4,122.5,121.3z M164.9,60.7c5,5,5,13.1,0,18.3c-5,5-13.1,5-18.3,0c-5-5-5-13.1,0-18.3
				C151.6,55.7,159.7,55.7,164.9,60.7z"/>
		</g>
	</g>
</g>
</svg>
