<?xml version="1.0" encoding="UTF-8"?>
<svg width="1263px" height="479px" viewBox="0 0 1263 479" version="1.1" xmlns="http://www.w3.org/2000/svg" xmlns:xlink="http://www.w3.org/1999/xlink">
    <!-- Generator: Sketch 50.2 (55047) - http://www.bohemiancoding.com/sketch -->
    <title>Group 4</title>
    <desc>Created with Sketch.</desc>
    <defs>
        <linearGradient x1="32.3122705%" y1="102.866365%" x2="67.6740075%" y2="-2.85747989%" id="linearGradient-1">
            <stop stop-color="#0F1563" offset="0%"></stop>
            <stop stop-color="#9A9DBE" stop-opacity="0.42" offset="60%"></stop>
            <stop stop-color="#FFFFFF" stop-opacity="0" offset="100%"></stop>
        </linearGradient>
        <linearGradient x1="32.3226866%" y1="102.938506%" x2="67.6810724%" y2="-2.85656994%" id="linearGradient-2">
            <stop stop-color="#0F1563" offset="0%"></stop>
            <stop stop-color="#9A9DBE" stop-opacity="0.42" offset="60%"></stop>
            <stop stop-color="#FFFFFF" stop-opacity="0" offset="100%"></stop>
        </linearGradient>
        <linearGradient x1="32.4139078%" y1="102.830443%" x2="67.7289941%" y2="-2.83941578%" id="linearGradient-3">
            <stop stop-color="#0F1563" offset="0%"></stop>
            <stop stop-color="#9A9DBE" stop-opacity="0.42" offset="60%"></stop>
            <stop stop-color="#FFFFFF" stop-opacity="0" offset="100%"></stop>
        </linearGradient>
    </defs>
    <g id="v2" stroke="none" stroke-width="1" fill="none" fill-rule="evenodd">
        <g id="organize" transform="translate(-132.000000, -6079.000000)">
            <g id="Group-4" transform="translate(132.000000, 6079.000000)">
                <g id="4" transform="translate(0.000000, 385.000000)">
                    <g id="Group-9-Copy">
                        <path d="M102.284274,34.2746821 C125.798018,47.8607928 125.913282,69.9052468 102.5642,83.4913576 C79.2151182,97.0774683 41.2275785,97.0774683 17.7138347,83.4913576 C-5.79990902,69.9052468 -5.91517247,47.8772808 17.4339092,34.2746821 C40.7829909,20.6720833 78.7705307,20.6885713 102.284274,34.2746821 Z" id="Shape" fill="url(#linearGradient-1)" fill-rule="nonzero" opacity="0.1"></path>
                        <path d="M98.8923884,22.761456 C121.114397,35.4970707 121.22844,56.1621024 99.1530571,68.8977171 C77.0776748,81.6333318 41.1705584,81.6495143 18.9485499,68.8977171 C-3.27345867,56.1459199 -3.43637662,35.4323408 18.6390057,22.761456 C40.7143881,10.0905713 76.6215045,9.94492893 98.8923884,22.761456 Z" id="Shape" fill="#6B67F5" fill-rule="nonzero"></path>
                        <polygon id="Shape" fill="#98A2FE" fill-rule="nonzero" points="2.51235711 42.7678754 0 34.0676222 4.3635676 36.0999207"></polygon>
                        <polygon id="Shape" fill="#98A2FE" fill-rule="nonzero" points="117.816325 31.8925589 116.125443 40.5928121 115.634542 34.826877"></polygon>
                        <path d="M102.28519,10.349005 C125.797718,23.9351113 125.912976,45.9795582 102.565101,59.5656646 C79.2172257,73.1517709 41.231649,73.1517709 17.7191203,59.5656646 C-5.79340834,45.9795582 -5.92513119,23.9021354 17.4392093,10.349005 C40.8035497,-3.2041254 78.7726611,-3.28656537 102.28519,10.349005 Z" id="Shape" fill="#98A2FE" fill-rule="nonzero"></path>
                        <g id="Group-14" transform="translate(20.134228, 10.444444)" fill="#FFFFFF" fill-rule="nonzero">
                            <path d="M68.4732377,23.3299658 C68.7018734,23.3930732 68.8590604,23.5914106 68.8590604,23.8167941 C68.8590604,24.0421776 68.7018734,24.240515 68.4732377,24.3036224 C67.9139062,24.5711572 67.253498,24.5711572 66.6941665,24.3036224 L41.3156077,10.4695854 L41.9586455,19.8815988 C41.9586455,20.2670045 41.4442153,20.5915567 40.7368737,20.5915567 C40.4090253,20.604585 40.0834444,20.5345596 39.7937516,20.3887116 C39.5992101,20.2986811 39.4632334,20.1245836 39.4293635,19.9221678 L38.6577181,8.7454019 C38.6577181,8.46141874 38.9363678,8.19772009 39.4079289,8.09629753 C39.8748976,7.97867276 40.3713801,8.0292713 40.8011775,8.23828911 L68.4732377,23.3299658 Z" id="Shape"></path>
                            <path d="M68.3091973,6.87593273 C84.0028613,16.0543657 84.0860065,30.9377422 68.4962741,40.1161752 C52.9065417,49.2946083 27.5472436,49.2946083 11.8327933,40.1161752 C-3.88165705,30.9377422 -3.94401598,16.0543657 11.6457165,6.87593273 C27.2354489,-2.30250028 52.6571059,-2.28144883 68.3091973,6.87593273 Z M40.2268926,45.5685013 C49.4822512,45.7539371 58.6294962,43.5285658 66.7917967,39.1057055 C74.1085778,34.8954152 77.746182,29.1483688 77.7046094,23.5065797 C77.6630368,17.8647906 73.9838599,12.2230015 66.6047199,7.90745388 C58.4179274,3.48999033 49.2520314,1.26530381 39.9774569,1.44465815 C30.7220982,1.25922228 21.5748533,3.48459359 13.4125528,7.90745388 C6.09577172,12.1177442 2.45816748,17.8647906 2.47895379,23.5065797 C2.4997401,29.1483688 6.19970327,34.8112094 13.5788433,39.1057055 C21.7666219,43.5205343 30.931832,45.7450544 40.2061063,45.5685013 L40.2268926,45.5685013 Z" id="Shape"></path>
                            <path d="M51.9831649,23.1753941 C52.2031368,23.2695839 52.3456438,23.4749622 52.3489933,23.7026187 C52.3489933,24.0878981 51.724933,24.3920662 51.0363148,24.3717883 L15.3572837,23.5606736 L40.7715996,37.3901795 C41.001139,37.4532662 41.1589473,37.6515387 41.1589473,37.8768483 C41.1589473,38.102158 41.001139,38.3004304 40.7715996,38.3635171 C40.2100572,38.6309644 39.5470385,38.6309644 38.9854961,38.3635171 L11.2470937,23.2767834 C10.8812653,23.0740048 10.7736687,22.7698367 10.9673426,22.5062244 C11.2933495,22.2081385 11.7417545,22.0598801 12.1939438,22.1006671 L51.1223921,22.9726154 C51.422629,22.9726154 51.7182499,23.042257 51.9831649,23.1753941 Z" id="Shape"></path>
                        </g>
                    </g>
                </g>
                <g id="1" transform="translate(1127.000000, 400.000000)">
                    <g id="Group-9-Copy-2">
                        <path d="M85.2368953,28.8053179 C104.831682,40.2234323 104.927735,58.7501542 85.4701666,70.1682686 C66.0125985,81.5863829 34.3563154,81.5863829 14.7615289,70.1682686 C-4.83325752,58.7501542 -4.92931039,40.2372892 14.5282577,28.8053179 C33.9858257,17.3733466 65.6421089,17.3872035 85.2368953,28.8053179 Z" id="Shape" fill="url(#linearGradient-1)" fill-rule="nonzero" opacity="0.1"></path>
                        <path d="M82.4103237,19.1293088 C100.928664,29.8326445 101.0237,47.2000648 82.6275476,57.9034006 C64.2313956,68.6067363 34.3087986,68.6203365 15.7904582,57.9034006 C-2.72788222,47.1864646 -2.86364718,29.7782439 15.5325048,19.1293088 C33.9286568,8.48037374 63.8512538,8.35797218 82.4103237,19.1293088 Z" id="Shape" fill="#6B67F5" fill-rule="nonzero"></path>
                        <polygon id="Shape" fill="#98A2FE" fill-rule="nonzero" points="2.09363092 35.9432144 0 28.6312995 3.63630634 30.3392951"></polygon>
                        <polygon id="Shape" fill="#98A2FE" fill-rule="nonzero" points="98.1802711 26.8033208 96.7712024 34.1152357 96.3621179 29.2693966"></polygon>
                        <path d="M85.2376581,8.69756801 C104.831432,20.1156787 104.92748,38.6423947 85.4709174,50.0605053 C66.0143548,61.478616 34.3597075,61.478616 14.7659336,50.0605053 C-4.82784029,38.6423947 -4.93760933,20.0879648 14.5326744,8.69756801 C34.0029581,-2.69282879 65.6438843,-2.76211345 85.2376581,8.69756801 Z" id="Shape" fill="#98A2FE" fill-rule="nonzero"></path>
                        <g id="Group-14" transform="translate(16.778523, 8.777778)" fill="#FFFFFF" fill-rule="nonzero">
                            <path d="M57.0610314,19.6070989 C57.2515612,19.660136 57.3825503,19.8268238 57.3825503,20.0162418 C57.3825503,20.2056599 57.2515612,20.3723477 57.0610314,20.4253848 C56.5949218,20.6502279 56.0445816,20.6502279 55.578472,20.4253848 L34.4296731,8.79890688 L34.9655379,16.7090033 C34.9655379,17.0329081 34.5368461,17.30567 33.9473947,17.30567 C33.6741878,17.3166193 33.4028704,17.2577682 33.1614596,17.1351938 C32.9993418,17.0595299 32.8860279,16.9132138 32.8578029,16.7430985 L32.2147651,7.34985905 C32.2147651,7.11119235 32.4469732,6.88957327 32.8399407,6.80433516 C33.2290813,6.7054803 33.6428168,6.7480046 34.0009812,6.92366851 L57.0610314,19.6070989 Z" id="Shape"></path>
                            <path d="M56.9243311,5.77870942 C70.0023844,13.4924989 70.0716721,26.0008685 57.0802284,33.7146579 C44.0887847,41.4284474 22.9560363,41.4284474 9.86066104,33.7146579 C-3.23471421,26.0008685 -3.28667998,13.4924989 9.70476372,5.77870942 C22.6962074,-1.93508002 43.8809216,-1.91738785 56.9243311,5.77870942 Z M33.5224105,38.2969319 C41.2352094,38.452777 48.8579135,36.5825181 55.6598306,32.8654334 C61.7571481,29.3269979 64.788485,24.4970334 64.7538412,19.7555298 C64.7191973,15.0140262 61.6532166,10.2725225 55.5039332,6.64562613 C48.6816062,2.93307698 41.0433595,1.06339362 33.3145474,1.21412759 C25.6017485,1.05828255 17.9790444,2.92854142 11.1771273,6.64562613 C5.07980976,10.1840617 2.0484729,15.0140262 2.06579482,19.7555298 C2.08311675,24.4970334 5.16641939,29.2562291 11.3157027,32.8654334 C18.1388516,36.5757682 25.7765267,38.4453116 33.5050886,38.2969319 L33.5224105,38.2969319 Z" id="Shape"></path>
                            <path d="M43.3193041,19.4771929 C43.502614,19.5563525 43.6213698,19.7289576 43.6241611,19.9202859 C43.6241611,20.2440846 43.1041109,20.4997152 42.5302624,20.4826731 L12.7977364,19.8009916 L33.976333,31.4236615 C34.1676158,31.4766812 34.2991228,31.6433144 34.2991228,31.8326704 C34.2991228,32.0220264 34.1676158,32.1886596 33.976333,32.2416793 C33.508381,32.4664488 32.9558654,32.4664488 32.4879134,32.2416793 L9.3725781,19.5624031 C9.06772108,19.3919827 8.97805725,19.1363521 9.13945214,18.9148057 C9.41112461,18.6642866 9.78479546,18.5396865 10.1616198,18.5739649 L42.6019934,19.3067725 C42.8521908,19.3067725 43.0985416,19.3653011 43.3193041,19.4771929 Z" id="Shape"></path>
                        </g>
                    </g>
                </g>
                <g id="2" transform="translate(1142.000000, 257.000000)">
                    <g id="Group-10">
                        <g id="Group-11" fill-rule="nonzero">
                            <path d="M100.609153,38.8358405 C122.874379,51.9012703 122.976461,73.0850254 100.870029,86.11586 C78.7635964,99.1466947 42.7966917,99.1812898 20.531465,86.11586 C-1.73376173,73.0504303 -1.84718622,51.8666752 20.2705887,38.8358405 C42.3883636,25.8050059 78.3552683,25.7473473 100.609153,38.8358405 Z" id="Shape" fill="url(#linearGradient-2)" opacity="0.1"></path>
                            <path d="M100.609153,22.1095364 C122.874379,35.1775038 122.976461,56.3653732 100.870029,69.3987387 C78.7635964,82.4321042 42.7966917,82.466706 20.531465,69.3987387 C-1.73376173,56.3307713 -1.84718622,35.1429019 20.2705887,22.1095364 C42.3883636,9.07617091 78.3552683,9.05310301 100.609153,22.1095364 Z" id="Shape" fill="#4A4D69"></path>
                            <path d="M102.747519,10.4094472 C126.193245,24.0571749 126.307392,46.1858262 103.021471,59.8335539 C79.7355491,73.4812816 41.8388533,73.4812816 18.3931264,59.8335539 C-5.05260042,46.1858262 -5.17816176,24.0686823 18.1191744,10.4094472 C41.4165106,-3.24978782 79.3017917,-3.23828046 102.747519,10.4094472 Z" id="Shape" fill="#30334A"></path>
                            <path d="M82.2695002,35.6633595 C82.4296026,35.7279992 82.5351196,35.8884975 82.5351196,36.0673842 C82.5351196,36.2462709 82.4296026,36.4067692 82.2695002,36.4714089 C81.8454248,36.6947413 81.3446983,36.6947413 80.9206229,36.4714089 L61.8115271,24.9713438 L62.3061155,32.7941987 C62.3061155,33.1103919 61.9126929,33.3797417 61.3843826,33.3914526 C61.1385298,33.403444 60.8940609,33.346845 60.676222,33.2275005 C60.5265964,33.1555075 60.4212226,33.0105955 60.3952059,32.8410421 L59.8106924,23.5543297 C59.8106924,23.3201125 60.0242646,23.0976061 60.3839652,23.0156301 C60.7378868,22.9162983 61.1146444,22.9580555 61.4405858,23.1327387 L82.2695002,35.6633595 Z" id="Shape" fill="#E7E9FE"></path>
                            <path d="M83.7471942,22.2260314 C96.216989,29.3423221 96.2743477,40.8850136 83.8963269,48.012654 C71.5183061,55.1402944 51.373909,55.1289446 38.9041142,48.012654 C26.4343194,40.8963633 26.3769607,29.3536718 38.7549814,22.2260314 C51.1330022,15.0983911 71.2888711,15.1097408 83.7471942,22.2260314 Z M61.4231641,52.2347594 C69.0633511,52.2347594 76.6920665,50.5663468 82.5197166,47.2295215 C88.3473668,43.8926962 91.2153049,39.5116943 91.1923614,35.1306925 C91.1694179,30.7496906 88.2326493,26.3686887 82.3705839,23.0318634 C76.5085184,19.6950381 68.8683314,18.0152757 61.2281443,18.0152757 C53.5879572,18.0152757 45.9477702,19.6836884 40.1430635,23.0318634 C34.3383568,26.3800384 31.4360034,30.7496906 31.458947,35.1306925 C31.4818905,39.5116943 34.4186591,43.8926962 40.2692528,47.2295215 C46.1198465,50.5663468 53.7715053,52.2347594 61.4231641,52.2347594 Z" id="Shape" fill="#E7E9FE"></path>
                            <path d="M70.1286159,36.0261692 C70.2977473,36.1023887 70.4091897,36.2705907 70.4154251,36.4590555 C70.4154251,36.7749455 69.945058,37.0206378 69.4058567,37.0089382 L42.0327875,36.3420592 L61.5358125,47.8193967 C61.6992153,47.8839744 61.8069075,48.0443188 61.8069075,48.2230339 C61.8069075,48.401749 61.6992153,48.5620935 61.5358125,48.6266712 C61.1034401,48.8516861 60.5915008,48.8516861 60.1591284,48.6266712 L38.8893587,36.1080666 C38.6025495,35.9442718 38.5222429,35.6868799 38.6828561,35.4645869 C38.9266332,35.2144378 39.2680517,35.0897801 39.6121179,35.1252977 L69.4402738,35.8506747 C69.6806933,35.8479073 69.917758,35.9083476 70.1286159,36.0261692 Z" id="Shape" fill="#E7E9FE"></path>
                        </g>
                    </g>
                </g>
                <g id="2" transform="translate(874.000000, 0.000000)">
                    <g id="Group-13-Copy">
                        <g id="Group-5" fill-rule="nonzero">
                            <path d="M189.281083,66.9828036 C232.728622,92.6015622 232.913308,134.167172 189.788971,159.785931 C146.664634,185.40469 76.4375272,185.40469 32.8053013,159.785931 C-10.8269245,134.167172 -10.8730962,92.6015622 32.297413,66.9828036 C75.4679222,41.364045 145.879715,41.2696849 189.281083,66.9828036 Z" id="Shape" fill="url(#linearGradient-3)" opacity="0.1"></path>
                            <path d="M182.49419,41.9134721 C224.51119,65.9990776 224.51119,105.027968 183.007731,129.113574 C141.504272,153.199179 73.5301027,153.199179 31.5597882,129.113574 C-10.4105264,105.027968 -10.457212,65.9990776 31.046247,41.9134721 C72.5497061,17.8278666 140.523875,17.8742743 182.49419,41.9134721 Z" id="Shape" fill="#D99E53"></path>
                            <path d="M189.281083,19.2796996 C232.728622,44.8915447 232.913308,86.4459378 189.788971,112.057783 C146.664634,137.669628 76.4375272,137.669628 32.8053013,112.057783 C-10.8269245,86.4459378 -10.8730962,44.8915447 32.297413,19.2796996 C75.4679222,-6.3321454 145.879715,-6.52081461 189.281083,19.2796996 Z" id="Shape" fill="#F2CD80"></path>
                            <g id="Group-12" transform="translate(27.750000, 19.888889)" fill="#FFFFFF">
                                <path d="M131.436331,38.9583506 C131.860166,39.098163 132.142857,39.4673801 132.142857,39.8811297 C132.142857,40.2948793 131.860166,40.6640965 131.436331,40.8039088 C130.350809,41.3076295 129.069397,41.3076295 127.983874,40.8039088 L79.1472996,14.9660932 L80.4027386,32.614244 C80.4027386,33.3063284 79.3983874,33.940739 78.0801765,33.940739 C77.4448122,33.9598763 76.8156913,33.8203531 76.2597901,33.5370232 C75.8645448,33.3855672 75.5805894,33.059451 75.5065267,32.6719177 L74,11.7363662 C74,11.2173029 74.5649475,10.6982397 75.4437548,10.5252186 C76.3125861,10.2188269 77.2741171,10.2188269 78.1429485,10.5252186 L131.436331,38.9583506 Z" id="Shape"></path>
                                <path d="M135.164006,12.8288233 C166.311326,29.9041602 166.311326,57.6292716 135.537774,74.7046085 C104.764222,91.7799453 54.5547423,91.7799453 23.4074224,74.7046085 C-7.73989748,57.6292716 -7.73989748,29.9041602 23.0336546,12.8288233 C53.8072066,-4.24651353 104.20357,-4.30600948 135.164006,12.8288233 Z M79.6594821,84.8784154 C97.9213896,85.2624008 115.981089,81.1654087 132.111569,72.979226 C146.563925,64.9472731 153.727809,54.4164905 153.665514,43.9452037 C153.60322,33.473917 146.314747,22.9431344 131.737801,14.9111815 C98.7433288,-1.13272611 59.7035105,-1.13272611 26.7090383,14.9111815 C12.2566819,22.9431344 5.09279832,33.4144211 5.15509296,43.9452037 C5.2173876,54.4759864 12.5058604,65.0067691 27.0828062,72.979226 C43.2631123,81.1527975 61.3594111,85.2483643 79.6594821,84.8784154 Z" id="Shape"></path>
                                <path d="M110.268921,43.4453637 C110.709713,43.6231064 110.994006,44.0048441 111,44.4270274 C111,45.1199665 109.737226,45.6974157 108.341529,45.6974157 L35.6988205,44.1960477 L87.27315,69.8347941 C87.7218982,69.9747792 88.0212062,70.3444524 88.0212062,70.7587129 C88.0212062,71.1729735 87.7218982,71.5426467 87.27315,71.6826317 C86.1264329,72.1964212 84.76447,72.1964212 83.6177529,71.6826317 L27.1917147,43.3876187 C26.4606352,42.9834043 26.1947882,42.405955 26.6600205,41.9439956 C27.3146613,41.3943984 28.2126735,41.1202625 29.1191058,41.1933116 L108.341529,42.8679144 C109.03333,42.9007796 109.70084,43.1007665 110.268921,43.4453637 Z" id="Shape"></path>
                            </g>
                        </g>
                    </g>
                </g>
                <g id="3" transform="translate(60.000000, 121.000000)">
                    <g id="Group-13-Copy-2">
                        <g id="Group-5" fill-rule="nonzero">
                            <path d="M61.3884592,21.7039252 C75.479553,30.0049755 75.5394514,43.473162 61.5531798,51.7742123 C47.5669082,60.0752626 24.7905494,60.0752626 10.6395572,51.7742123 C-3.51143497,43.473162 -3.52640956,30.0049755 10.4748366,21.7039252 C24.4760829,13.4028749 47.3123401,13.3723001 61.3884592,21.7039252 Z" id="Shape" fill="url(#linearGradient-3)" opacity="0.1"></path>
                            <path d="M59.1873048,13.5809016 C72.81444,21.385176 72.81444,34.0314087 59.3538587,41.8356831 C45.8932774,49.6399575 23.8476009,49.6399575 10.235607,41.8356831 C-3.37638695,34.0314087 -3.39152821,21.385176 10.0690531,13.5809016 C23.5296344,5.77662716 45.5753109,5.7916643 59.1873048,13.5809016 Z" id="Shape" fill="#D99E53"></path>
                            <path d="M61.3884592,6.24705352 C75.479553,14.5458636 75.5394514,28.0104156 61.5531798,36.3092257 C47.5669082,44.6080359 24.7905494,44.6080359 10.6395572,36.3092257 C-3.51143497,28.0104156 -3.52640956,14.5458636 10.4748366,6.24705352 C24.4760829,-2.05175661 47.3123401,-2.11288965 61.3884592,6.24705352 Z" id="Shape" fill="#F2CD80"></path>
                            <g id="Group-12" transform="translate(9.000000, 6.444444)" fill="#FFFFFF">
                                <path d="M42.6279994,12.6233762 C42.7654593,12.6686785 42.8571429,12.7883131 42.8571429,12.9223772 C42.8571429,13.0564413 42.7654593,13.1760759 42.6279994,13.2213783 C42.2759379,13.384595 41.860345,13.384595 41.5082836,13.2213783 L25.6693945,4.84934862 L26.0765639,10.5677439 C26.0765639,10.7919947 25.7508284,10.9975579 25.3233005,10.9975579 C25.1172364,11.0037588 24.9131972,10.9585502 24.7329049,10.8667449 C24.6047172,10.8176698 24.5126236,10.7120009 24.4886033,10.5864314 L24,3.80284492 C24,3.63465682 24.1832262,3.46646872 24.4682448,3.41040602 C24.7500279,3.31112827 25.0618758,3.31112827 25.343659,3.41040602 L42.6279994,12.6233762 Z" id="Shape"></path>
                                <path d="M43.836975,4.15682544 C53.9388084,9.68961615 53.9388084,18.6731718 43.958197,24.2059625 C33.9775855,29.7387532 17.6934299,29.7387532 7.59159646,24.2059625 C-2.51023702,18.6731718 -2.51023702,9.68961615 7.47037446,4.15682544 C17.4509859,-1.37596528 33.7957525,-1.3952433 43.836975,4.15682544 Z M25.8355077,27.5025033 C31.7582885,27.6269232 37.6154882,26.2994062 42.8469953,23.6469 C47.534246,21.0443678 49.8576677,17.6321589 49.8374641,14.239228 C49.8172604,10.8462971 47.4534314,7.43408823 42.7257733,4.83155601 C32.0248634,-0.36702857 19.3633007,-0.36702857 8.66239081,4.83155601 C3.97514007,7.43408823 1.65171837,10.8270191 1.67192204,14.239228 C1.69212571,17.6514369 4.05595474,21.0636458 8.78361281,23.6469 C14.0312797,26.2953199 19.9003495,27.622375 25.8355077,27.5025033 Z" id="Shape"></path>
                                <path d="M35.7628932,14.0772687 C35.9058527,14.1348613 35.998056,14.2585528 36,14.3953497 C36,14.6198774 35.5904518,14.8069839 35.1377933,14.8069839 L11.5779959,14.3205071 L28.3048054,22.6280339 C28.4503454,22.6733921 28.5474182,22.7931745 28.5474182,22.9274042 C28.5474182,23.0616339 28.4503454,23.1814162 28.3048054,23.2267745 C27.9328971,23.3932538 27.4911795,23.3932538 27.1192712,23.2267745 L8.81893448,14.058558 C8.58182765,13.9275835 8.49560698,13.740477 8.64649315,13.5907919 C8.85880908,13.4127101 9.15005628,13.323884 9.44403433,13.3475535 L35.1377933,13.8901622 C35.3621612,13.9008113 35.5786508,13.9656115 35.7628932,14.0772687 Z" id="Shape"></path>
                            </g>
                        </g>
                    </g>
                </g>
            </g>
        </g>
    </g>
</svg>