<svg id="图层_1" xmlns="http://www.w3.org/2000/svg" viewBox="0 0 130 30"><style>.st0{fill:#333}</style><path class="st0" d="M59.5 8.6L59.5 21 62.5 21 62.5 8.6zM41.7 9.2c-1.2-.6-2.5-.9-3.8-.9-1.9 0-7 .6-7 6.9 0 4 3.2 5.9 6.6 5.9 1.3 0 2.5-.2 3.7-.7l.2-1.7c-.9.9-2.1 1.4-3.3 1.4-2.1 0-4.2-1.6-4.2-5.1s1.9-5.5 4.1-5.5c1.2 0 2.4.6 3.1 1.6L41.7 9.2zM50.2 8.4c-5.3 0-7 3.9-7 6.4 0 5.1 3.9 6.4 6.7 6.4 5.2 0 7.1-3.7 7.1-6.5C57 10.4 53.9 8.4 50.2 8.4zM49.9 20.1c-1.5 0-3.7-.9-3.7-5.4 0-2.5 1.3-5.4 3.9-5.4s3.9 2.3 3.9 5.1S52.9 20.1 49.9 20.1zM80.2 8.6v12.4c.1.9-.5 1.8-1.4 2.1.1.3.3.9.3.9 1.4-.2 4-.9 4-4.4s.1-10.9.1-10.9H80.2z"/><path d="M107.3,8.6v12.4c0.1,0.9-0.5,1.8-1.4,2.1c0.1,0.3,0.3,0.9,0.3,0.9c1.4-0.2,4-0.9,4-4.4s0.1-10.9,0.1-10.9H107.3	z" fill="#333"/><path class="st0" d="M93.1 8.6L92.8 20.9 94.4 20.9 94.4 12.3 102.2 20.9 103.7 20.9 104 8.6 102.3 8.6 102.5 17.1 94.7 8.6zM66 8.6L65.8 20.9 67.4 20.9 67.4 12.3 75.2 20.9 76.7 20.9 76.9 8.6 75.3 8.6 75.5 17.1 67.7 8.6zM118.5 8.6h-1.4L112 20.9h1.7l1.3-3.6h4.1l1.3 3.6h3.1L118.5 8.6zM115.5 16.2l1.7-4.2 1.6 4.2H115.5zM86.6 8.6L86.6 21 89.5 21 89.5 8.6z"/><path d="M21.1,13.9L21.1,13.9c0-1.3-0.9-2.4-2.2-2.7l-0.6-4h0.9c1.5,0,2.8-1.2,2.8-2.7c0,0,0,0,0,0H0	c0,1.5,1.2,2.8,2.8,2.8h0.9l-0.6,4c-1.3,0.3-2.2,1.4-2.2,2.7h1.8l-2,13.4l0,0c1.5,0.2,2.9-0.8,3.1-2.3l1.6-11h11.1l1.6,11	c0.2,1.5,1.6,2.5,3.1,2.3l-2-13.4L21.1,13.9z M6.5,7.1h3.2v4H5.9L6.5,7.1z M12.4,11.1v-4h3.2l0.6,4H12.4z" fill="#ff3c00"/></svg>