<?xml version="1.0" encoding="UTF-8"?>
<svg width="50px" height="50px" viewBox="0 0 50 50" version="1.1" xmlns="http://www.w3.org/2000/svg" xmlns:xlink="http://www.w3.org/1999/xlink">
    <!-- Generator: Sketch 50.2 (55047) - http://www.bohemiancoding.com/sketch -->
    <title>cross chain</title>
    <desc>Created with Sketch.</desc>
    <defs></defs>
    <g id="v2" stroke="none" stroke-width="1" fill="none" fill-rule="evenodd">
        <g id="organize" transform="translate(-138.000000, -2410.000000)" fill="#FFFFFF" fill-rule="nonzero">
            <g id="technologies" transform="translate(138.000000, 2242.000000)">
                <g id="cross-chain" transform="translate(0.000000, 168.000000)">
                    <path d="M1.8958544,29.6006067 C4.42366026,32.1284125 8.51870576,32.1284125 11.0465116,29.6006067 C13.0182002,27.6289181 13.4226491,24.7472194 12.3609707,22.3205258 L19.9443883,14.7371082 C19.2871587,14.3326593 18.6804853,13.8776542 18.124368,13.3215369 C17.5682508,12.7654196 17.1132457,12.1587462 16.7087968,11.5015167 L9.12537917,19.0849343 C6.79979778,18.0232558 3.86754297,18.4277048 1.8958544,20.3993933 C-0.631951466,22.9271992 -0.631951466,27.0728008 1.8958544,29.6006067 Z M4.67644085,23.1799798 C5.6875632,22.1688574 7.30535895,22.1688574 8.31648129,23.1799798 C9.32760364,24.1911021 9.32760364,25.8088979 8.31648129,26.8200202 C7.30535895,27.8311426 5.6875632,27.8311426 4.67644085,26.8200202 C3.6653185,25.8088979 3.6653185,24.1911021 4.67644085,23.1799798 Z M20.3993933,48.1041456 C22.9271992,50.6319515 27.0222447,50.6319515 29.5500506,48.1041456 C32.0778564,45.5763397 32.0778564,41.4812942 29.5500506,38.9534884 C27.578362,36.9817998 24.6966633,36.5773509 22.2699697,37.6390293 L14.6865521,30.0556117 C14.2821031,30.7128413 13.8270981,31.3195147 13.2709808,31.875632 C12.7148635,32.4317492 12.1081901,32.8867543 11.4509606,33.2912032 L19.0343782,40.8746208 C18.0232558,43.2002022 18.4277048,46.132457 20.3993933,48.1041456 Z M23.1799798,41.6835187 C24.1911021,40.6723964 25.8088979,40.6723964 26.8200202,41.6835187 C27.8311426,42.6946411 27.8311426,44.3124368 26.8200202,45.3235592 C25.8088979,46.3346815 24.1911021,46.3346815 23.1799798,45.3235592 C22.1688574,44.3124368 22.1688574,42.6946411 23.1799798,41.6835187 Z M48.1041456,20.3993933 C45.5763397,17.8715875 41.4812942,17.8715875 38.9534884,20.3993933 C36.9817998,22.3710819 36.5773509,25.2527806 37.6390293,27.6794742 L30.0556117,35.2628918 C30.7128413,35.6673407 31.3195147,36.1223458 31.875632,36.6784631 C32.4317492,37.2345804 32.8867543,37.8412538 33.2912032,38.4984833 L40.8746208,30.9150657 C43.2507583,31.9767442 46.1830131,31.5722952 48.1547017,29.6006067 C50.6319515,27.0728008 50.6319515,22.9271992 48.1041456,20.3993933 Z M45.3235592,26.8200202 C44.3124368,27.8311426 42.6946411,27.8311426 41.6835187,26.8200202 C40.6723964,25.8088979 40.6723964,24.1911021 41.6835187,23.1799798 C42.6946411,22.1688574 44.3124368,22.1688574 45.3235592,23.1799798 C46.3346815,24.1911021 46.3346815,25.8088979 45.3235592,26.8200202 Z M36.6784631,18.1749242 C37.2345804,17.6188069 37.8412538,17.1638018 38.4984833,16.7593529 L30.9150657,9.17593529 C31.9767442,6.79979778 31.5722952,3.86754297 29.6006067,1.8958544 C27.0728008,-0.631951466 22.9777553,-0.631951466 20.4499494,1.8958544 C17.9221436,4.42366026 17.9221436,8.51870576 20.4499494,11.0465116 C22.421638,13.0182002 25.3033367,13.4226491 27.7300303,12.3609707 L35.3134479,19.9443883 C35.6673407,19.3377149 36.1223458,18.7310415 36.6784631,18.1749242 Z M26.8200202,8.31648129 C25.8088979,9.32760364 24.1911021,9.32760364 23.1799798,8.31648129 C22.1688574,7.30535895 22.1688574,5.6875632 23.1799798,4.67644085 C24.1911021,3.6653185 25.8088979,3.6653185 26.8200202,4.67644085 C27.8311426,5.6875632 27.8311426,7.30535895 26.8200202,8.31648129 Z" id="Shape"></path>
                </g>
            </g>
        </g>
    </g>
</svg>