<svg xmlns="http://www.w3.org/2000/svg" xmlns:xlink="http://www.w3.org/1999/xlink" viewBox="0 0 1440 536.26"><defs><linearGradient id="a" x1="414.21" y1="1094.73" x2="414.21" y2="1093.84" gradientTransform="matrix(1440, 0, 0, -2528.9, -595746, 2768122.88)" gradientUnits="userSpaceOnUse"><stop offset="0" stop-color="#737bf4"/><stop offset="1" stop-color="#9572f5"/></linearGradient><linearGradient id="b" x1="414.18" y1="1095.3" x2="414.18" y2="1094.3" gradientTransform="matrix(1293, 0, 0, -1079.91, -534444, 1182287.41)" gradientUnits="userSpaceOnUse"><stop offset="0" stop-color="#c7deff"/><stop offset="1" stop-color="#f8fafd"/></linearGradient><linearGradient id="c" x1="414.35" y1="1095.28" x2="414.35" y2="1094.41" gradientTransform="matrix(2721.65, 0, 0, -1079.27, -1126932.54, 1181402.64)" gradientUnits="userSpaceOnUse"><stop offset="0" stop-color="#73cef0"/><stop offset="1" stop-color="#0046c0"/></linearGradient><mask id="d" x="-585" y="-724.15" width="2721.65" height="1229.09" maskUnits="userSpaceOnUse"><path d="M-585-724.15H1550L1691.59-500.7q805.59,1115.07,153,756.33C1192-103.1,755.25,40,432.23,255.63s-560.82,30.15-796.86-82.84Q-457.24,128.45-585-92.91Z" style="fill:#fff"/></mask></defs><title>Artboard 1</title><polygon points="0 63.67 1440 -408.44 1440 2120.45 0 2120.45 0 63.67" style="fill:url(#a)"/><path d="M1133.17,252.21C1516.38,791.82,1737,459.9,1737,102.85s-289.45-646.5-646.5-646.5S444-254.2,444,102.85,750-287.4,1133.17,252.21Z" style="opacity:0.13984374701976776;isolation:isolate;fill:url(#b)"/><path d="M-585-724.15H1550L1691.59-500.7q805.59,1115.07,153,756.33C1192-103.1,755.25,40,432.23,255.63s-560.82,30.15-796.86-82.84Q-457.24,128.45-585-92.91Z" style="fill:url(#c)"/><g style="mask:url(#d)"><path d="M-119.54,106.65Q-109.25,250,256.92,86.31T816.81,69.37q-281.41,371.25-479,425.12T-119.54,324.63Z" style="fill:#30334a;opacity:0.18331068754196167;isolation:isolate"/></g></svg>