<?xml version="1.0" encoding="UTF-8"?>
<svg width="140px" height="155px" viewBox="0 0 140 155" version="1.1" xmlns="http://www.w3.org/2000/svg" xmlns:xlink="http://www.w3.org/1999/xlink">
    <!-- Generator: Sketch 50.2 (55047) - http://www.bohemiancoding.com/sketch -->
    <title>data</title>
    <desc>Created with Sketch.</desc>
    <defs>
        <linearGradient x1="50%" y1="100%" x2="50%" y2="2.01183165%" id="linearGradient-1">
            <stop stop-color="#E0BC86" offset="0%"></stop>
            <stop stop-color="#BC7BB4" offset="100%"></stop>
        </linearGradient>
    </defs>
    <g id="v2" stroke="none" stroke-width="1" fill="none" fill-rule="evenodd">
        <g id="organize" transform="translate(-838.000000, -3278.000000)">
            <g id="data" transform="translate(838.000000, 3278.000000)">
                <g id="noun_1376378_cc">
                    <path d="M26.125,49.0869565 C25.6136364,48.5652174 24.9318182,48.0434783 24.0795455,47.6956522 C23.2272727,47.3478261 22.5454545,47 21.5227273,46.6521739 C21.0113636,46.4782609 20.5,46.3043478 19.9886364,46.1304348 C19.6477273,45.9565217 19.1363636,45.7826087 18.9659091,45.6086957 C18.625,45.4347826 18.4545455,45.2608696 18.2840909,44.9130435 C18.1136364,44.7391304 18.1136364,44.3913043 18.1136364,44.0434783 C18.1136364,43.5217391 18.2840909,43 18.7954545,42.6521739 C19.3068182,42.3043478 19.9886364,42.1304348 20.8409091,42.1304348 C21.8636364,42.1304348 22.7159091,42.3043478 23.7386364,42.4782609 C24.5909091,42.6521739 26.125,43.173913 26.8068182,43.5217391 L26.9772727,39.5217391 C26.4659091,39.3478261 25.9545455,39.173913 25.1022727,38.826087 C24.25,38.4782609 23.3977273,38.4782609 22.375,38.3043478 L22.375,36.2173913 C22.375,35.5217391 21.8636364,35 21.1818182,35 L19.6477273,35 C18.9659091,35 18.4545455,35.5217391 18.4545455,36.2173913 L18.4545455,38.4782609 C17.6022727,38.6521739 16.75,39 16.0681818,39.3478261 C15.3863636,39.6956522 14.875,40.2173913 14.5340909,40.7391304 C14.1931818,41.2608696 13.8522727,41.7826087 13.6818182,42.4782609 C13.5113636,43.173913 13.5113636,43.6956522 13.5113636,44.3913043 C13.5113636,45.2608696 13.6818182,46.1304348 14.0227273,46.6521739 C14.3636364,47.3478261 14.7045455,47.8695652 15.2159091,48.2173913 C15.7272727,48.7391304 16.4090909,49.0869565 16.9204545,49.2608696 C17.6022727,49.6086957 18.2840909,49.7826087 18.9659091,50.1304348 C19.6477273,50.3043478 20.3295455,50.6521739 20.8409091,50.826087 C21.3522727,51 21.8636364,51.3478261 22.2045455,51.5217391 C22.5454545,51.6956522 22.8863636,52.0434783 23.0568182,52.2173913 C23.2272727,52.5652174 23.3977273,52.9130435 23.3977273,53.2608696 C23.3977273,53.9565217 23.2272727,54.3043478 22.7159091,54.6521739 C22.0340909,55.173913 21.6931818,55.3478261 20.5,55.3478261 C19.3068182,55.3478261 17.9431818,55.173913 16.9204545,55 C15.8977273,54.6521739 14.3636364,53.9565217 13.6818182,53.6086957 L13,57.6086957 C13.5113636,57.7826087 14.1931818,58.1304348 15.0454545,58.4782609 C15.8977273,58.826087 17.2613636,59 18.625,59.173913 L18.625,61.7826087 C18.625,62.4782609 19.1363636,63 19.8181818,63 L21.3522727,63 C22.0340909,63 22.5454545,62.4782609 22.5454545,61.7826087 L22.5454545,59.173913 C23.5681818,59 24.4204545,58.6521739 25.1022727,58.3043478 C25.7840909,57.9565217 26.2954545,57.4347826 26.8068182,56.9130435 C27.3181818,56.3913043 27.4886364,55.8695652 27.6590909,55.173913 C27.8295455,54.4782609 28,53.9565217 28,53.2608696 C28,52.3913043 27.8295455,51.5217391 27.4886364,50.826087 C27.1477273,50.1304348 26.6363636,49.6086957 26.125,49.0869565 Z" id="Shape" fill="#E2CBBA" fill-rule="nonzero"></path>
                    <path d="M20.9973906,91 C15.9796151,91 12,94.9876161 12,100.01548 C12,101.402477 12.3460535,102.616099 12.692107,103.656347 L20.4783104,118.739938 C20.6513371,119.086687 21.3434441,119.086687 21.5164708,118.739938 L29.3026742,103.656347 C29.8217544,102.616099 29.9947812,101.229102 29.9947812,100.01548 C30.1678079,94.9876161 26.0151661,91 20.9973906,91 Z M20.9973906,103.829721 C18.9210697,103.829721 17.1908023,102.095975 17.1908023,100.01548 C17.1908023,97.9349845 18.9210697,96.2012384 20.9973906,96.2012384 C23.0737115,96.2012384 24.8039789,97.9349845 24.8039789,100.01548 C24.8039789,102.095975 23.0737115,103.829721 20.9973906,103.829721 Z" id="Shape" fill="#E2CBBA" fill-rule="nonzero"></path>
                    <path d="M115.5,51 C119.189189,51 122,48.0135135 122,44.5 C122,40.9864865 119.013514,38 115.5,38 C111.986486,38 109,40.9864865 109,44.5 C109,48.0135135 111.810811,51 115.5,51 Z" id="Shape" fill="#E2CBBA" fill-rule="nonzero"></path>
                    <path d="M127.5,54 C130,54 132,52 132,49.5 C132,47 130,45 127.5,45 C125,45 123,47 123,49.5 C123,52 125,54 127.5,54 Z" id="Shape" fill="#E2CBBA" fill-rule="nonzero"></path>
                    <path d="M57,129.04029 L57,134.363436 C57,138.312867 60.038961,141.403727 63.9220779,141.403727 L63.9220779,147.757159 C63.9220779,147.928874 64.2597403,148.100588 64.4285714,147.928874 L70.8441558,141.403727 L76.0779221,141.403727 C79.961039,141.403727 83,138.312867 83,134.363436 L83,129.04029 C83,125.090859 79.961039,122 76.0779221,122 L63.9220779,122 C60.038961,122 57,125.090859 57,129.04029 Z M75.9090909,129.898862 C76.9220779,129.898862 77.9350649,130.757434 77.9350649,131.959435 C77.9350649,132.989721 77.0909091,134.020008 75.9090909,134.020008 C74.8961039,134.020008 73.8831169,133.161436 73.8831169,131.959435 C73.8831169,130.757434 74.7272727,129.898862 75.9090909,129.898862 Z M70,129.898862 C71.012987,129.898862 72.025974,130.757434 72.025974,131.959435 C72.025974,132.989721 71.1818182,134.020008 70,134.020008 C68.8181818,134.020008 67.974026,133.161436 67.974026,131.959435 C67.974026,130.757434 68.8181818,129.898862 70,129.898862 Z M66.1168831,131.78772 C66.1168831,132.818007 65.2727273,133.848293 64.0909091,133.848293 C62.9090909,133.848293 62.0649351,132.989721 62.0649351,131.78772 C62.0649351,130.757434 62.9090909,129.727148 64.0909091,129.727148 C65.2727273,129.727148 66.1168831,130.757434 66.1168831,131.78772 Z" id="Shape" fill="#E2CBBA" fill-rule="nonzero"></path>
                    <polygon id="Shape" fill="#E2CBBA" fill-rule="nonzero" points="122 94 122 100 128 100"></polygon>
                    <path d="M129.737754,88.154102 C126.47685,86.2638581 123.04432,85.4046563 119.440164,85.4046563 C112.74673,85.4046563 106.39655,88.6696231 102.44914,94.5121951 L94.8975742,90.2161863 C96.7854657,86.4356984 97.9868512,82.1396896 97.9868512,77.6718404 C97.9868512,73.2039911 96.9570922,68.9079823 94.8975742,65.1274945 L102.44914,60.8314856 C106.39655,66.6740576 112.74673,69.9390244 119.440164,69.9390244 C120.984802,69.9390244 122.529441,69.767184 123.902453,69.4235033 C124.588959,69.251663 125.275465,69.0798226 125.961971,68.9079823 C127.163356,68.3924612 128.536368,67.8769401 129.737754,67.1895787 C132.655404,65.4711752 134.886549,63.2372506 136.602814,60.6596452 C140.72185,54.3015521 141.236729,46.0532151 137.28932,39.0077605 C133.513537,32.4778271 126.648477,28.6973392 119.440164,28.6973392 C116.007634,28.6973392 112.403477,29.556541 109.142574,31.4467849 C99.7031162,36.9456763 96.2705862,48.6308204 100.904502,58.2538803 L93.3529357,62.5498891 C88.7190202,55.3325942 80.6525747,50.5210643 71.5563702,50.0055432 L71.5563702,41.2416851 C82.3688397,40.3824834 90.7785382,31.4467849 90.7785382,20.6208426 C90.7785382,9.27937916 81.5107072,0 70.1833582,0 C58.8560092,0 49.5881783,9.27937916 49.5881783,20.6208426 C49.5881783,31.4467849 57.9978767,40.3824834 68.6387197,41.0698448 L68.6387197,49.8337029 C59.5425152,50.3492239 51.4760698,55.1607539 46.8421543,62.3780488 L39.1189618,57.9101996 C43.7528773,48.2871397 40.1487208,36.6019956 30.8808898,31.2749446 C27.6199863,29.3847007 24.1874563,28.5254989 20.5832998,28.5254989 C13.5466133,28.5254989 6.50992683,32.1341463 2.73414384,38.8359202 C-2.92953065,48.6308204 0.502999344,61.3470067 10.2857098,67.0177384 C13.5466133,68.9079823 16.9791433,69.767184 20.5832998,69.767184 C27.2767333,69.767184 33.7985403,66.5022173 37.7459498,60.4878049 L45.4691423,64.9556541 C43.5812508,68.7361419 42.3798653,73.0321508 42.3798653,77.5 C42.3798653,81.9678492 43.4096243,86.2638581 45.4691423,90.0443459 L37.7459498,94.5121951 C33.7985403,88.6696231 27.2767333,85.232816 20.5832998,85.232816 C17.1507698,85.232816 13.5466133,86.0920177 10.2857098,87.9822616 C0.502999344,93.6529933 -2.92953065,106.197339 2.73414384,116.16408 C6.50992683,122.694013 13.3749868,126.474501 20.5832998,126.474501 C24.0158298,126.474501 27.6199863,125.615299 30.8808898,123.725055 C40.3203473,118.398004 43.7528773,106.71286 39.1189618,97.0898004 L46.8421543,92.6219512 C51.4760698,99.8392461 59.5425152,104.650776 68.6387197,105.166297 L68.6387197,113.930155 C57.9978767,114.617517 49.5881783,123.553215 49.5881783,134.379157 C49.5881783,145.720621 58.8560092,155 70.1833582,155 C81.5107072,155 90.7785382,145.720621 90.7785382,134.379157 C90.7785382,123.553215 82.3688397,114.617517 71.7279967,113.930155 L71.7279967,105.166297 C80.8242012,104.650776 88.8906467,99.8392461 93.5245622,92.6219512 L101.076128,96.9179601 C96.4422127,106.54102 99.8747427,118.226164 109.3142,123.725055 C112.575104,125.615299 116.007634,126.474501 119.61179,126.474501 C126.648477,126.474501 133.685163,122.865854 137.460946,116.16408 C142.781368,106.36918 139.520464,93.8248337 129.737754,88.154102 Z M101.762634,44.3348115 C102.96402,39.695122 106.053297,35.7427938 110.172333,33.3370288 C112.918357,31.7904656 116.007634,30.9312639 119.268537,30.9312639 C125.790344,30.9312639 131.797272,34.368071 135.058175,40.0388027 C137.460946,44.1629712 138.147452,49.1463415 136.946067,53.786031 C136.431187,55.5044346 135.744681,57.2228381 134.886549,58.597561 C133.513537,57.5665188 131.797272,56.8791574 129.90938,56.8791574 C128.193115,56.8791574 126.648477,57.3946785 125.447091,58.2538803 C125.790344,59.4567627 125.961971,60.8314856 125.961971,62.0343681 L125.961971,65.8148559 C125.275465,65.9866962 124.588959,66.3303769 123.902453,66.5022173 L123.902453,62.0343681 C123.902453,56.0199557 118.925284,51.0365854 112.918357,51.0365854 C108.627694,51.0365854 105.023538,53.4423503 103.135646,57.0509978 C101.247755,53.0986696 100.732875,48.6308204 101.762634,44.3348115 Z M20.5832998,67.1895787 C17.4940228,67.1895787 14.2331193,66.3303769 11.4870953,64.7838137 C7.36805933,62.3780488 4.27878234,58.4257206 3.07739684,53.786031 C1.87601134,49.1463415 2.39089084,44.1629712 4.96528834,40.0388027 C8.22619183,34.368071 14.2331193,30.9312639 20.7549263,30.9312639 C23.8442033,30.9312639 27.1051068,31.7904656 29.8511308,33.3370288 C33.9701668,35.7427938 37.0594438,39.695122 38.2608293,44.3348115 C39.4622148,48.9745011 38.9473353,53.9578714 36.3729378,58.0820399 C33.1120343,63.7527716 27.1051068,67.1895787 20.5832998,67.1895787 Z M38.0892028,110.665188 C36.8878173,115.304878 33.7985403,119.257206 29.6795043,121.662971 C26.9334803,123.209534 23.8442033,124.068736 20.5832998,124.068736 C14.0614928,124.068736 8.05456533,120.631929 4.79366184,114.961197 C2.39089084,110.837029 1.70438484,105.853659 2.90577034,101.213969 C4.10715584,96.5742794 7.19643283,92.6219512 11.3154688,90.2161863 C14.0614928,88.6696231 17.1507698,87.8104213 20.4116733,87.8104213 C26.9334803,87.8104213 32.9404078,91.2472284 36.2013113,96.9179601 C38.7757088,101.042129 39.4622148,106.025499 38.0892028,110.665188 Z M51.9909493,20.6208426 C51.9909493,10.654102 60.0573947,2.40576497 70.1833582,2.40576497 C80.1376952,2.40576497 88.3757672,10.4822616 88.3757672,20.6208426 C88.3757672,30.7594235 80.1376952,38.8359202 70.1833582,38.8359202 C60.2290212,38.8359202 51.9909493,30.5875831 51.9909493,20.6208426 Z M70.1833582,58.9412417 C75.6754062,58.9412417 80.1376952,63.4090909 80.1376952,68.9079823 C80.1376952,74.4068736 75.6754062,78.8747228 70.1833582,78.8747228 C64.6913102,78.8747228 60.2290212,74.4068736 60.2290212,68.9079823 C60.2290212,63.4090909 64.6913102,58.9412417 70.1833582,58.9412417 Z M88.3757672,134.379157 C88.3757672,144.345898 80.3093217,152.594235 70.1833582,152.594235 C60.2290212,152.594235 51.9909493,144.517738 51.9909493,134.379157 C51.9909493,124.412417 60.0573947,116.16408 70.1833582,116.16408 C80.1376952,116.16408 88.3757672,124.412417 88.3757672,134.379157 Z M70.1833582,101.90133 C63.6615512,101.90133 57.8262502,99.3237251 53.5355878,95.1995565 C55.2518527,87.6385809 62.1169127,81.9678492 70.1833582,81.9678492 C78.2498037,81.9678492 85.1148637,87.6385809 86.8311287,95.1995565 C82.5404662,99.3237251 76.7051652,101.90133 70.1833582,101.90133 Z M135.058175,114.961197 C131.797272,120.631929 125.790344,124.068736 119.268537,124.068736 C116.17926,124.068736 112.918357,123.209534 110.172333,121.662971 C106.053297,119.257206 102.96402,115.304878 101.762634,110.665188 C100.561249,106.025499 101.076128,101.042129 103.650526,96.9179601 C106.911429,91.2472284 112.918357,87.8104213 119.440164,87.8104213 C122.529441,87.8104213 125.790344,88.6696231 128.536368,90.2161863 C132.655404,92.6219512 135.744681,96.5742794 136.946067,101.213969 C138.147452,105.853659 137.460946,110.837029 135.058175,114.961197 Z" id="Shape" fill="url(#linearGradient-1)" fill-rule="nonzero"></path>
                    <path d="M119.672727,100.342657 L119.672727,93 L110.345455,93 C110.172727,93 110,93.1748252 110,93.3496503 L110,117.65035 C110,117.825175 110.172727,118 110.345455,118 L128.654545,118 C128.827273,118 129,117.825175 129,117.65035 L129,101.391608 L120.709091,101.391608 C120.018182,101.391608 119.672727,101.041958 119.672727,100.342657 Z M126.581818,115.377622 L112.590909,115.377622 L112.590909,113.27972 L126.581818,113.27972 L126.581818,115.377622 Z M126.581818,110.657343 L112.590909,110.657343 L112.590909,108.559441 L126.581818,108.559441 L126.581818,110.657343 Z M126.581818,105.762238 L112.590909,105.762238 L112.590909,103.664336 L126.581818,103.664336 L126.581818,105.762238 Z" id="Shape" fill="#E2CBBA" fill-rule="nonzero"></path>
                    <path d="M70.5081433,32.8726937 L80.3322476,23.0276753 L80.8403909,22.5184502 C83.7198697,19.6328413 83.7198697,15.0498155 80.8403909,12.1642066 C77.9609121,9.27859779 73.3876221,9.27859779 70.5081433,12.1642066 L70,12.6734317 L69.4918567,12.1642066 C66.6123779,9.27859779 62.0390879,9.27859779 59.1596091,12.1642066 C56.2801303,15.0498155 56.2801303,19.6328413 59.1596091,22.5184502 L59.6677524,23.0276753 L69.4918567,32.8726937 C69.8306189,33.0424354 70.1693811,33.0424354 70.5081433,32.8726937 Z" id="Shape" fill="#E2CBBA" fill-rule="nonzero"></path>
                </g>
            </g>
        </g>
    </g>
</svg>