<?xml version="1.0" encoding="UTF-8"?>
<svg width="42px" height="42px" viewBox="0 0 42 42" version="1.1" xmlns="http://www.w3.org/2000/svg" xmlns:xlink="http://www.w3.org/1999/xlink">
    <!-- Generator: Sketch 50.2 (55047) - http://www.bohemiancoding.com/sketch -->
    <title>decentralized</title>
    <desc>Created with Sketch.</desc>
    <defs></defs>
    <g id="v2" stroke="none" stroke-width="1" fill="none" fill-rule="evenodd">
        <g id="organize" transform="translate(-982.000000, -2417.000000)" fill="#FFFFFF" fill-rule="nonzero">
            <g id="technologies" transform="translate(138.000000, 2242.000000)">
                <g id="decentralized" transform="translate(844.000000, 175.000000)">
                    <path d="M39.7707977,9.33011743 C40.9036331,9.33011743 41.8217101,8.41204036 41.8217101,7.27920503 C41.8217101,6.1463697 40.9036331,5.22829263 39.7707977,5.22829263 C38.6877446,5.22829263 37.810188,6.06995976 37.7343569,7.13391036 L30.1136226,8.44503556 C29.7240476,7.6763052 29.0010475,7.10901924 28.1275429,6.9475164 L28.0175589,3.55016815 C28.6861459,3.27289266 29.1579194,2.61472518 29.1579194,1.84541595 C29.1579194,0.825458956 28.3313027,0 27.3125034,0 C26.2937042,0 25.4670875,0.826037819 25.4670875,1.84541595 C25.4670875,2.70850102 26.0621589,3.42744914 26.8627267,3.62947241 L26.971553,6.9758807 C26.307018,7.13159491 25.7362589,7.52174872 25.3461051,8.05661834 L19.3091405,4.18749655 C19.3097194,4.16434203 19.3160869,4.14350295 19.3160869,4.12034842 C19.3160869,2.98751309 18.3980098,2.06943602 17.2651745,2.06943602 C16.1323392,2.06943602 15.2142621,2.98751309 15.2142621,4.12034842 C15.2142621,5.25318375 16.1323392,6.17126082 17.2651745,6.17126082 C17.9505485,6.17126082 18.5525663,5.83262583 18.9253542,5.31627984 L24.863912,9.12230553 C24.8239705,9.3115938 24.8008159,9.50782844 24.8008159,9.70869397 C24.8008159,10.1787309 24.9270081,10.6146149 25.130768,11.0041899 L14.753487,21.4295165 C14.2487182,20.9484812 13.5697117,20.6492089 12.8171895,20.6492089 C12.2464303,20.6492089 11.7173494,20.8217101 11.2739401,21.1134572 L6.44158994,16.3123656 C6.80164287,15.9094768 7.02682066,15.3832901 7.02682066,14.8003749 C7.02682066,13.5419262 6.0062848,12.5219692 4.74783615,12.5219692 C3.48938751,12.5219692 2.46885165,13.5419262 2.46885165,14.8003749 C2.46885165,16.0588235 3.48938751,17.0799383 4.74783615,17.0799383 C4.99443189,17.0799383 5.2271349,17.0307349 5.44883952,16.958377 L10.4589007,21.9360218 C10.1729423,22.3765367 10.0033354,22.8992502 10.0033354,23.463063 C10.0033354,23.6025691 10.0247533,23.7368653 10.0444346,23.8711616 L3.4123987,26.3220685 C3.08707757,25.7964607 2.50995093,25.4421964 1.84599482,25.4421964 C0.826616682,25.4421964 0,26.2688131 0,27.2876123 C0,28.3064116 0.826616682,29.1330283 1.84599482,29.1330283 C2.80690777,29.1330283 3.58721539,28.3961354 3.67462374,27.4577981 L10.4716357,24.957109 C10.8722091,25.5909642 11.7208225,26.0569491 12.2996858,26.2149788 L12.2996858,30.3671647 C11.7208225,30.6108661 11.0018744,31.2950824 11.0018744,32.1107007 C11.0018744,33.1306577 11.8128618,33.9566955 12.8328188,33.9566955 C13.8521969,33.9566955 14.7019681,33.1300788 14.7019681,32.1107007 C14.7019681,31.2950824 14.0368543,30.6108661 13.4579911,30.3671647 L13.4579911,26.2149788 C14.0368543,26.0222173 15.1036992,25.3767848 15.451596,24.5218038 L24.8361266,26.4505761 C24.8291802,26.5200397 24.8077623,26.5871878 24.8077623,26.6589669 C24.8077623,27.7918022 25.7217873,28.7098793 26.8546226,28.7098793 C27.0184409,28.7098793 27.1741551,28.685567 27.3263962,28.6496775 L29.2621148,32.4765423 C28.727824,32.8470147 28.376454,33.4623463 28.376454,34.1616131 C28.376454,34.462622 28.444181,34.746265 28.5605326,35.0038591 L25.6245383,37.9392745 C25.3750482,37.81424 25.0977728,37.7366724 24.7996582,37.7366724 C23.7802801,37.7366724 22.9536634,38.5627102 22.9536634,39.5820883 C22.9536634,40.6014665 23.7808589,41.4275043 24.7996582,41.4275043 C25.8196152,41.4275043 26.645653,40.6008876 26.645653,39.5820883 C26.645653,39.2839738 26.5680853,39.0066983 26.442472,38.7572082 L29.3176856,35.8819946 C29.6383759,36.0886488 30.0169524,36.2113678 30.4262087,36.2113678 C30.9929158,36.2113678 31.5052098,35.9821379 31.8762611,35.6110866 L37.2608468,39.2179834 C37.0976074,39.4935222 36.997464,39.8107393 36.997464,40.1540052 C36.997464,41.1739622 37.8240807,42 38.8434588,42 C39.862837,42 40.6894537,41.1733833 40.6894537,40.1540052 C40.6894537,39.134627 39.8622581,38.3085892 38.8434588,38.3085892 C38.6078615,38.3085892 38.3838414,38.3566349 38.1771873,38.4376757 L32.4308121,34.5882353 C32.4603341,34.449887 32.4771211,34.3074866 32.4771211,34.1604554 C32.4771211,33.02762 31.559044,32.109543 30.4262087,32.109543 C30.4088428,32.109543 30.3926347,32.1141739 30.3758476,32.1147527 L28.3307239,28.071972 C28.6820938,27.703815 28.9009041,27.2077292 28.9009041,26.658388 C28.9009041,25.5255527 27.9828271,24.6074756 26.8499917,24.6074756 C26.2120845,24.6074756 25.6500083,24.9044324 25.2737472,25.3611555 L15.6223607,23.3820222 C15.61252,23.035862 15.5442141,22.7053311 15.4197585,22.4014279 L25.8699763,11.9020067 C26.3504328,12.2840565 26.9507139,12.5219692 27.6129335,12.5219692 C28.2039528,12.5219692 28.7509786,12.3378907 29.2042285,12.0264623 L34.5413474,17.3045372 C34.4192072,17.5511329 34.343955,17.8249352 34.343955,18.1189977 C34.343955,19.1383759 35.1705717,19.9644137 36.189371,19.9644137 C37.2081702,19.9644137 38.0347869,19.137797 38.0347869,18.1189977 C38.0347869,17.1001985 37.2081702,16.2735818 36.189371,16.2735818 C35.8877832,16.2735818 35.6064557,16.352886 35.3552291,16.4813937 L29.9984288,11.1847952 C30.2652847,10.7546998 30.4262087,10.2522465 30.4262087,9.70927284 C30.4262087,9.66122719 30.4140526,9.61607586 30.412316,9.56860907 L37.9832681,8.26616682 C38.3329015,8.8977066 38.9974365,9.33011743 39.7707977,9.33011743 Z" id="Shape"></path>
                </g>
            </g>
        </g>
    </g>
</svg>