<?xml version="1.0" encoding="UTF-8"?>
<svg width="420px" height="242px" viewBox="0 0 420 242" version="1.1" xmlns="http://www.w3.org/2000/svg" xmlns:xlink="http://www.w3.org/1999/xlink">
    <!-- Generator: Sketch 50.2 (55047) - http://www.bohemiancoding.com/sketch -->
    <title>data - logo</title>
    <desc>Created with Sketch.</desc>
    <defs></defs>
    <g id="data---logo" stroke="none" stroke-width="1" fill="none" fill-rule="evenodd">
        <text id="Digital-Asset-Trade" font-family="Titillium-Regular, Titillium" font-size="30" font-weight="normal" letter-spacing="-0.9375" fill="#000000">
            <tspan x="31" y="221">Digital Asset Trade Association</tspan>
        </text>
        <path d="M205.236621,177.252654 C205.236621,169.655654 205.067621,163.523654 205.291621,157.406654 C205.463621,152.733654 201.527621,152.127654 198.865621,150.277654 C195.982621,148.274654 192.184621,146.344654 195.059621,142.278654 C197.674621,138.578654 201.057621,141.109654 203.333621,143.209654 C207.971621,147.487654 211.994621,146.058654 216.414621,142.957654 C218.900621,141.213654 221.982621,138.511654 224.690621,142.517654 C227.427621,146.566654 224.011621,148.673654 221.115621,149.746654 C214.225621,152.296654 212.937621,157.230654 213.655621,163.751654 C214.086621,167.652654 213.735621,171.640654 213.735621,175.392654 C215.562621,176.955654 216.714621,175.510654 217.867621,174.846654 C234.762621,165.120654 251.597621,155.289654 268.537621,145.643654 C271.345621,144.044654 272.919621,142.519654 272.883621,138.909654 C272.684621,118.169654 272.786621,97.4266542 272.786621,75.0836542 C265.254621,79.4676542 258.504621,83.2896542 251.876621,87.3116542 C249.541621,88.7286542 250.530621,91.3566542 250.514621,93.4586542 C250.430621,104.085654 250.520621,114.713654 250.456621,125.340654 C250.436621,128.700654 251.153621,133.112654 245.985621,132.983654 C241.403621,132.868654 242.011621,128.820654 242.006621,125.647654 C241.988621,115.266654 241.907621,104.884654 242.045621,94.5056542 C242.096621,90.6476542 242.189621,87.2106542 237.588621,85.6216542 C234.632621,84.6006542 233.185621,82.0436542 234.788621,79.1106542 C236.535621,75.9156542 239.439621,76.6606542 241.722621,78.5006542 C244.772621,80.9566542 247.350621,80.2166542 250.310621,78.3906542 C255.891621,74.9466542 261.623621,71.7456542 268.318621,67.8476542 C251.651621,58.1626542 235.622621,49.5226542 220.355621,39.6996542 C212.476621,34.6296542 206.595621,34.6256542 198.701621,39.7196542 C183.456621,49.5586542 167.415621,58.1646542 150.684621,67.8736542 C157.602621,71.8386542 163.636621,75.0186542 169.355621,78.6886542 C172.417621,80.6536542 174.495621,79.0666542 176.776621,77.7556542 C185.760621,72.5916542 194.679621,67.3146542 203.665621,62.1516542 C208.382621,59.4416542 217.760621,62.1746542 220.356621,66.7876542 C221.386621,68.6186542 221.061621,70.1516542 219.760621,71.4916542 C218.176621,73.1236542 215.888621,73.3566542 214.354621,72.0436542 C209.722621,68.0826542 205.964621,70.3696542 201.805621,72.9086542 C194.012621,77.6676542 185.858621,81.8476542 178.189621,86.7876542 C173.781621,89.6266542 170.218621,89.3616542 166.044621,86.6316542 C161.093621,83.3936542 155.815621,80.6616542 150.751621,77.5906542 C147.827621,75.8176542 146.303621,75.9506542 146.340621,79.8946542 C146.420621,88.7916542 146.369621,97.6896542 146.320621,106.587654 C146.308621,108.759654 146.999621,110.221654 149.069621,111.314654 C155.108621,114.505654 161.028621,117.922654 167.881621,121.744654 C167.881621,117.302654 167.798621,113.924654 167.906621,110.551654 C167.998621,107.672654 169.470621,105.848654 172.511621,105.931654 C175.295621,106.007654 176.377621,108.031654 176.442621,110.417654 C176.611621,116.590654 176.884621,122.790654 176.497621,128.940654 C176.226621,133.238654 173.132621,134.273654 169.569621,132.345654 C159.801621,127.062654 150.173621,121.522654 140.440621,116.175654 C138.367621,115.037654 138.026621,113.409654 138.034621,111.295654 C138.087621,97.4556542 138.143621,83.6136542 138.000621,69.7736542 C137.964621,66.2946542 139.494621,64.4926542 142.372621,62.8476542 C163.581621,50.7276542 184.732621,38.5046542 205.819621,26.1736542 C208.545621,24.5786542 210.624621,24.6336542 213.296621,26.1906542 C234.616621,38.6046542 255.987621,50.9356542 277.405621,63.1796542 C280.146621,64.7466542 281.021621,66.7206542 281.007621,69.7616542 C280.899621,94.4766542 280.861621,119.190654 280.970621,143.905654 C280.984621,147.004654 280.095621,148.785654 277.360621,150.347654 C255.938621,162.583654 234.564621,174.904654 213.293621,187.400654 C210.202621,189.216654 208.135621,188.696654 205.290621,187.029654 C184.635621,174.927654 163.862621,163.024654 143.138621,151.040654 C140.417621,149.467654 136.548621,148.001654 138.641621,143.993654 C141.019621,139.438654 144.606621,142.144654 147.506621,143.814654 C166.292621,154.628654 185.027621,165.532654 205.236621,177.252654" id="Fill-1" fill="#020202" transform="translate(209.503893, 106.771173) rotate(30.000000) translate(-209.503893, -106.771173) "></path>
    </g>
</svg>