<?xml version="1.0" encoding="UTF-8"?>
<svg width="95px" height="33px" viewBox="0 0 95 33" version="1.1" xmlns="http://www.w3.org/2000/svg" xmlns:xlink="http://www.w3.org/1999/xlink">
    <!-- Generator: Sketch 49.1 (51147) - http://www.bohemiancoding.com/sketch -->
    <title>dislike-bttn-on</title>
    <desc>Created with Sketch.</desc>
    <defs></defs>
    <g id="Page-1" stroke="none" stroke-width="1" fill="none" fill-rule="evenodd" opacity="0.641530797">
        <g id="menlo-home-copy-30" transform="translate(-611.000000, -1687.000000)">
            <g id="townhall-example" transform="translate(276.000000, 1131.000000)">
                <g id="blockchain-expert" transform="translate(144.000000, 337.000000)">
                    <g id="Group-13" transform="translate(86.000000, 219.000000)">
                        <g id="dislike-bttn-on" transform="translate(105.098039, 0.784314)">
                            <g id="Group-18">
                                <rect id="Rectangle-2-Copy-10" stroke="#494343" stroke-width="0.784313725" x="0.392156863" y="0.392156863" width="94.1176471" height="30.5882353" rx="3.92156863"></rect>
                                <text id="Downvote" font-family="OpenSans-Semibold, Open Sans" font-size="9.41176471" font-weight="500" fill="#494343">
                                    <tspan x="32.1568627" y="18.627451">Downvote</tspan>
                                </text>
                                <path d="M14.9172912,16.2211441 C14.8972078,16.7022231 14.8945739,17.2673581 14.9232174,17.833822 C14.9515317,18.4006181 15.0111233,18.9687432 15.1023216,19.5166019 C15.1938492,20.0647927 15.3166541,20.5940461 15.4157541,20.9648225 C15.514854,21.3352666 15.5886028,21.5478982 15.6633393,21.7601976 C15.9968551,21.7110266 16.3313586,21.6628522 16.6543388,21.6346121 C16.9766606,21.6067042 17.2884469,21.5987305 17.6301935,21.6133489 C17.9719402,21.6276351 18.3439766,21.6645134 18.7044897,21.7319575 C19.0653321,21.7994016 19.4133342,21.8977437 19.7317052,21.9741582 C20.0507346,22.0499082 20.3391451,22.104395 20.6795748,22.1502437 C21.0196753,22.1960924 21.4121243,22.2336352 21.8177427,22.2190168 C22.2230319,22.2050628 22.640832,22.1392799 22.9025744,22.0871187 C23.1643168,22.0349575 23.269343,21.9980792 23.3779908,21.877145 C23.4866386,21.7555463 23.5992372,21.5512206 23.6591581,21.3548686 C23.7194082,21.1578521 23.7269807,20.9704705 23.6914232,20.8222929 C23.6565242,20.6741152 23.5775076,20.565806 23.4991495,20.457829 C23.6667305,20.4226119 23.8339823,20.3883915 23.9821383,20.3212796 C24.1299652,20.2545 24.2590256,20.1548289 24.3574671,20.0332302 C24.4555793,19.9116315 24.5240604,19.7684374 24.5622517,19.5920196 C24.6011015,19.4152696 24.6096616,19.2062926 24.584969,19.0481478 C24.5602763,18.8903353 24.5023308,18.7830228 24.4338498,18.6860096 C24.3650395,18.5886642 24.2860229,18.5019504 24.2060186,18.4145721 C24.3554917,18.31623 24.5049647,18.2175556 24.6340251,18.1182168 C24.7627562,18.0192102 24.8704163,17.9192069 24.9487744,17.7859799 C25.0264741,17.6530851 25.0748717,17.4882956 25.0913335,17.3421114 C25.1081245,17.1962594 25.0923212,17.0696771 25.055776,16.9533942 C25.0189016,16.8364468 24.9616146,16.7294665 24.8621854,16.6098613 C24.7634147,16.490256 24.6234895,16.3586902 24.5336082,16.2819434 C24.4430684,16.2045322 24.4029016,16.1819401 24.3624056,16.159348 C24.4917952,16.0390783 24.6211849,15.9191407 24.7301619,15.7978743 C24.8391389,15.6772723 24.9267156,15.5553413 24.9747841,15.3998545 C25.0231817,15.2450321 25.0307541,15.056986 25.0162678,14.8991735 C25.0021106,14.741361 24.9658947,14.6141142 24.9082784,14.5074662 C24.850333,14.3998214 24.7709871,14.3131076 24.6712287,14.2253971 C24.5708118,14.137022 24.4499823,14.0483148 24.3380422,13.99117 C24.2267605,13.9340253 24.1237097,13.9081108 23.9070726,13.878874 C23.6901063,13.8486404 23.3598828,13.8134233 22.9654584,13.8071108 C22.5716925,13.8014628 22.1143841,13.8240549 21.8131334,13.8320286 C21.5115535,13.8400023 21.3666898,13.834022 21.221826,13.8280417 C21.3327785,13.6439825 21.4447186,13.4605877 21.6093365,13.23666 C21.7746128,13.0137291 21.9928961,12.7509297 22.1696957,12.4854724 C22.3468245,12.2206796 22.4821404,11.9545579 22.5772895,11.6651795 C22.6721094,11.3761334 22.7270918,11.064163 22.7481629,10.8036893 C22.7695632,10.5425511 22.7573815,10.3325773 22.7152393,10.100676 C22.6724386,9.86811016 22.600336,9.61428117 22.5048577,9.41128443 C22.4093793,9.20828768 22.2908544,9.05678766 22.1716711,8.93618567 C22.0521585,8.81591591 21.9316583,8.72720866 21.7884407,8.67936655 C21.6448939,8.6311922 21.4792884,8.62421522 21.3232306,8.6285343 C21.1675021,8.63218891 21.0216507,8.64680733 20.8952242,8.69398497 C20.7687977,8.74083037 20.6614668,8.82023499 20.5857426,8.90063632 C20.5093599,8.98136988 20.4649131,9.06310016 20.449439,9.17772189 C20.4346234,9.29267586 20.4491098,9.4398568 20.4303434,9.63786999 C20.4119062,9.83588318 20.3602162,10.0847286 20.2891012,10.29138 C20.2186448,10.4973668 20.1284342,10.6611596 19.9960814,10.8545215 C19.8633994,11.0485479 19.688246,11.2711466 19.4182727,11.5316203 C19.1479702,11.7927585 18.7825186,12.0914395 18.4595383,12.3708507 C18.1368873,12.6505942 17.8560492,12.9107357 17.6502769,13.1223706 C17.4445046,13.333341 17.3131395,13.4951404 17.1695928,13.6984693 C17.0267044,13.9024628 16.8713052,14.1469891 16.7182106,14.3393543 C16.565116,14.5317195 16.4139968,14.6719234 16.2236985,14.7579728 C16.0327418,14.8443544 15.8032645,14.8765814 15.5948583,14.8988412 L15.0117818,14.9480123 C14.9742489,15.3440387 14.9370453,15.7400651 14.9172912,16.2211441 Z" id="Shape-Copy-2" fill="#494343" transform="translate(20.000000, 15.424837) rotate(-180.000000) translate(-20.000000, -15.424837) "></path>
                            </g>
                        </g>
                    </g>
                </g>
            </g>
        </g>
    </g>
</svg>