<?xml version="1.0" encoding="utf-8"?>
<!-- Generator: Adobe Illustrator 22.1.0, SVG Export Plug-In . SVG Version: 6.00 Build 0)  -->
<svg version="1.1" id="Layer_1" xmlns="http://www.w3.org/2000/svg" xmlns:xlink="http://www.w3.org/1999/xlink" x="0px" y="0px"
	 viewBox="0 0 119 74" style="enable-background:new 0 0 119 74;" xml:space="preserve">
<style type="text/css">
	.st0{fill:url(#Shape_2_);}
	.st1{fill:url(#Shape_3_);}
</style>
<g id="v2">
	<g id="organize-copy" transform="translate(-767.000000, -4366.000000)">
		<g id="use-cases" transform="translate(103.000000, 4044.000000)">
			<g id="ecological-ico" transform="translate(664.000000, 322.000000)">
				
					<linearGradient id="Shape_2_" gradientUnits="userSpaceOnUse" x1="-241.9715" y1="426.6656" x2="-242.9475" y2="426.6656" gradientTransform="matrix(81.2284 0 0 -52.3822 19773.584 22394.6055)">
					<stop  offset="0" style="stop-color:#AD9D6C"/>
					<stop  offset="1" style="stop-color:#FF8484"/>
				</linearGradient>
				<path id="Shape" class="st0" d="M59.9,57.4c-2.2,2.9-8,8.7-20.2,9.1c-1.3,0-2.3,1.1-2.3,2.4c0,1.3,1.1,2.3,2.3,2.3
					c0,0,0,0,0.1,0c14.6-0.4,21.6-7.8,24.1-11.4l24.1-16.1L66.8,67.9C99.9,76.7,118.6,19,118.6,19C59.9,15.9,58.3,45.8,59.9,57.4z"
					/>
				
					<linearGradient id="Shape_3_" gradientUnits="userSpaceOnUse" x1="-241.0991" y1="428.6266" x2="-242.0751" y2="428.6266" gradientTransform="matrix(63.0618 0 0 -73.4594 15267.2129 31523.3672)">
					<stop  offset="0" style="stop-color:#AD9D6C"/>
					<stop  offset="1" style="stop-color:#FF8484"/>
				</linearGradient>
				<path id="Shape_1_" class="st1" d="M61.5,68.9C49.9,65,46,57.8,44.8,54.4C49.6,44.1,57.7,14.5,0,0c0,0,1.1,60.7,35.3,61.9
					L22,32.6l17.9,21.9c1,3.7,5.1,13.9,20.1,18.9c0.2,0.1,0.5,0.1,0.7,0.1c1,0,1.9-0.6,2.2-1.6C63.3,70.6,62.7,69.3,61.5,68.9z"/>
			</g>
		</g>
	</g>
</g>
</svg>
