<?xml version="1.0" encoding="UTF-8"?>
<svg width="45px" height="45px" viewBox="0 0 45 45" version="1.1" xmlns="http://www.w3.org/2000/svg" xmlns:xlink="http://www.w3.org/1999/xlink">
    <!-- Generator: Sketch 49.1 (51147) - http://www.bohemiancoding.com/sketch -->
    <title>Group 4</title>
    <desc>Created with Sketch.</desc>
    <defs></defs>
    <g id="Page-1" stroke="none" stroke-width="1" fill="none" fill-rule="evenodd">
        <g id="menlo-home-copy-30" transform="translate(-449.000000, -1678.000000)">
            <g id="townhall-example" transform="translate(276.000000, 1131.000000)">
                <g id="blockchain-expert" transform="translate(144.000000, 337.000000)">
                    <g id="Group-3" transform="translate(29.000000, 210.000000)">
                        <g id="Group-4">
                            <circle id="Oval-4" fill="#60C787" cx="22.5" cy="22.5" r="22.5"></circle>
                            <path d="M14.18,21.87 C15.47,22.3999999 16.115,23.2300001 16.115,24.36 C16.115,25.2199999 15.7725001,25.905 15.0875,26.415 C14.4024999,26.925 13.5099999,27.18 12.41,27.18 C11.3100001,27.18 10.415,26.925 9.725,26.415 C9.035,25.905 8.69,25.2199999 8.69,24.36 C8.69,23.22 9.33999992,22.3900001 10.64,21.87 C9.63999992,21.2899999 9.14,20.5150001 9.14,19.545 C9.14,18.7249999 9.4475,18.0825 10.0625,17.6175 C10.6775,17.1525 11.4600001,16.92 12.41,16.92 C13.3599999,16.92 14.1425,17.1525 14.7575,17.6175 C15.3725,18.0825 15.68,18.7249999 15.68,19.545 C15.68,20.5249999 15.1800001,21.3 14.18,21.87 Z M12.41,18.555 C12.0099999,18.555 11.6799999,18.6499999 11.42,18.84 C11.1600001,19.0300001 11.03,19.2949999 11.03,19.635 C11.03,19.9249999 11.1425,20.1700001 11.3675,20.37 C11.5925,20.5699999 11.9400001,20.7799999 12.41,21 C12.8799999,20.79 13.2275,20.5825001 13.4525,20.3775 C13.6775,20.1724999 13.79,19.92 13.79,19.62 C13.79,19.29 13.6599999,19.0300001 13.4,18.84 C13.1400001,18.6499999 12.8100001,18.555 12.41,18.555 Z M12.41,25.53 C12.9600001,25.53 13.3800001,25.4149999 13.67,25.185 C13.9599999,24.9550001 14.105,24.6550001 14.105,24.285 C14.105,23.9149999 13.9625,23.6125001 13.6775,23.3775 C13.3925,23.1424999 12.9699999,22.9249999 12.41,22.725 C11.8500001,22.9249999 11.4275,23.1424999 11.1425,23.3775 C10.8575,23.6125001 10.715,23.9149999 10.715,24.285 C10.715,24.6550001 10.8600001,24.9550001 11.15,25.185 C11.4399999,25.4149999 11.8599999,25.53 12.41,25.53 Z M21.395,20.28 C22.265,20.28 23.03,20.5999999 23.69,21.24 C24.35,21.8800001 24.68,22.68 24.68,23.64 C24.68,24.6499999 24.32,25.4925 23.6,26.1675 C22.88,26.8425 22.025,27.18 21.035,27.18 C20.045,27.18 19.1925001,26.8425 18.4775,26.1675 C17.7624999,25.4925 17.405,24.645 17.405,23.625 C17.405,23.085 17.51,22.6000001 17.72,22.17 C17.93,21.7399999 18.275,21.1900001 18.755,20.52 L21.23,17.1 L23.615,17.1 L21.335,20.28 L21.395,20.28 Z M21.035,25.32 C21.4950001,25.32 21.8825,25.1599999 22.1975,24.84 C22.5125,24.5200001 22.67,24.12 22.67,23.64 C22.67,23.16 22.5125,22.7625 22.1975,22.4475 C21.8825,22.1325 21.4950001,21.975 21.035,21.975 C20.5749999,21.975 20.1875,22.1350001 19.8725,22.455 C19.5575,22.7749999 19.4,23.1700001 19.4,23.64 C19.4,24.1099999 19.5575,24.5074999 19.8725,24.8325 C20.1875,25.1575001 20.5749999,25.32 21.035,25.32 Z M28.43,16.92 C29.1399999,16.92 29.7425,17.1574999 30.2375,17.6325 C30.7325,18.1075001 30.98,18.69 30.98,19.38 C30.98,20.0800001 30.7325,20.6674999 30.2375,21.1425 C29.7425,21.6175001 29.1399999,21.855 28.43,21.855 C27.7200001,21.855 27.1175,21.6175001 26.6225,21.1425 C26.1275,20.6674999 25.88,20.0800001 25.88,19.38 C25.88,18.69 26.1275,18.1075001 26.6225,17.6325 C27.1175,17.1574999 27.7200001,16.92 28.43,16.92 Z M35.15,17.1 L29.45,27 L27.83,27 L33.515,17.1 L35.15,17.1 Z M28.445,18.315 C28.145,18.315 27.9024999,18.4150001 27.7175,18.615 C27.5325001,18.8149999 27.44,19.0699999 27.44,19.38 C27.44,19.6999999 27.5325001,19.9600001 27.7175,20.16 C27.9024999,20.3599999 28.145,20.46 28.445,20.46 C28.7250001,20.46 28.9599999,20.3599999 29.15,20.16 C29.3400001,19.9600001 29.435,19.6999999 29.435,19.38 C29.435,19.0699999 29.3400001,18.8149999 29.15,18.615 C28.9599999,18.4150001 28.7250001,18.315 28.445,18.315 Z M34.535,22.23 C35.2449999,22.23 35.8500001,22.4674999 36.35,22.9425 C36.8499999,23.4175001 37.1,24 37.1,24.69 C37.1,25.3900001 36.8499999,25.9774999 36.35,26.4525 C35.8500001,26.9275001 35.2449999,27.165 34.535,27.165 C33.8250001,27.165 33.2225,26.9275001 32.7275,26.4525 C32.2325,25.9774999 31.985,25.3900001 31.985,24.69 C31.985,24 32.2325,23.4175001 32.7275,22.9425 C33.2225,22.4674999 33.8250001,22.23 34.535,22.23 Z M34.55,23.625 C34.2399999,23.625 33.995,23.7225 33.815,23.9175 C33.635,24.1125 33.545,24.3700001 33.545,24.69 C33.545,25.0099999 33.635,25.2675 33.815,25.4625 C33.995,25.6575 34.2399999,25.755 34.55,25.755 C34.8300001,25.755 35.0625001,25.6549999 35.2475,25.455 C35.4324999,25.2550001 35.525,25.0000001 35.525,24.69 C35.525,24.3799999 35.4324999,24.1249999 35.2475,23.925 C35.0625001,23.7250001 34.8300001,23.625 34.55,23.625 Z" id="86%" fill="#FFFFFF"></path>
                        </g>
                    </g>
                </g>
            </g>
        </g>
    </g>
</svg>