<?xml version="1.0" encoding="UTF-8"?>
<svg width="1556px" height="499px" viewBox="0 0 1556 499" version="1.1" xmlns="http://www.w3.org/2000/svg" xmlns:xlink="http://www.w3.org/1999/xlink">
    <!-- Generator: Sketch 51 (57462) - http://www.bohemiancoding.com/sketch -->
    <title>Artboard</title>
    <desc>Created with Sketch.</desc>
    <defs></defs>
    <g id="Artboard" stroke="none" stroke-width="1" fill="none" fill-rule="evenodd">
        <g id="Forbes_logo" transform="translate(83.000000, 68.000000)" fill="#000000" fill-rule="nonzero">
            <path d="M345.59933,362.90571 C321.35151,359.37466 300.14353,349.111 283.94814,333.06945 C270.43913,319.68878 261.68041,304.97341 255.22389,284.81035 C245.14366,253.3308 245.14012,212.85792 255.21489,182.0204 C264.97855,152.13515 286.96219,126.1214 313.86767,112.61521 C351.12782,93.911113 403.57019,95.086033 438.07917,115.39805 C469.13616,133.67822 487.94904,166.15957 493.18277,210.53711 C494.78081,224.08714 493.74397,252.70641 491.22701,264.5204 C480.92549,312.87319 450.92304,346.65038 406.9672,359.38129 C402.23061,360.75314 394.88555,362.35816 390.64484,362.94798 C381.67113,364.19611 354.28405,364.17041 345.59932,362.90568 L345.59933,362.90571 Z M360.13664,344.96113 C366.75579,347.96389 378.87023,347.79658 385.71874,344.6078 C404.61032,335.81159 414.7383,310.50057 418.04004,263.83301 C422.64123,198.79892 411.97682,144.51913 390.84796,125.43047 C381.33431,116.83546 366.53837,114.02193 355.86195,118.77768 C340.28607,125.71587 330.28254,146.2551 325.54693,181.0204 C322.1747,205.77679 322.5242,256.30062 326.22485,279.0204 C332.06253,314.86029 343.71046,337.50943 360.13664,344.96113 Z M775.07918,362.8929 C765.15869,361.88714 734.8426,356.84201 724.25279,354.43449 L716.92641,352.7689 L717.49772,313.64465 C718.87322,219.44908 719.04623,168.02785 718.15592,118.0204 C717.28377,69.032543 717.02943,63.852963 715.14032,56.606573 C712.74664,47.424773 709.29175,41.020023 705.13644,38.061173 C703.52218,36.911723 699.13641,35.282743 695.3903,34.441233 C682.93856,31.644133 683.61494,32.092653 683.28251,26.412203 C683.09102,23.140083 683.44556,20.978433 684.28251,20.315143 C685.40454,19.425943 787.53251,-0.05459797 790.78538,0.00011503223 C791.72009,0.01583503 791.85249,13.074323 791.37362,58.020403 C791.03375,89.920403 790.99009,116.0204 791.27662,116.0204 C791.56312,116.0204 795.29491,114.40451 799.56948,112.42954 C812.45434,106.47637 824.33028,103.89325 841.5792,103.29206 C853.06341,102.89179 858.38301,103.14245 864.27507,104.36151 C902.79793,112.33181 931.30575,143.8631 941.26827,189.5204 C943.86717,201.4309 944.83405,231.03145 943.10851,245.85808 C941.63781,258.49504 937.4419,275.52173 933.07552,286.57122 C916.59942,328.26539 881.24917,355.46661 834.35399,362.53523 C823.55186,364.16346 789.63054,364.36814 775.0792,362.8929 L775.07918,362.8929 Z M795.90529,345.29647 C804.9316,346.24906 815.06747,345.91608 819.79694,344.51158 C827.12738,342.33467 836.50254,335.67335 842.14783,328.63062 C853.79299,314.10283 862.15811,291.61497 866.75535,262.47848 C868.95702,248.52467 869.2541,209.3107 867.24368,198.0204 C861.07174,163.35948 849.18742,142.1823 831.09707,133.60924 C822.08889,129.34024 809.38217,128.81132 797.57918,132.21405 L789.57918,134.5204 L788.67285,166.0204 C787.53019,205.73412 789.38682,341.48123 791.10089,343.54656 C791.72267,344.29576 793.88465,345.08322 795.90529,345.29647 Z M1062.5792,362.39795 C1012.9686,353.44955 977.48898,318.26849 965.89588,266.52799 C964.40478,259.87317 963.74538,252.42702 963.37148,238.0204 C962.77988,215.22832 964.63368,201.08199 970.51538,183.50481 C981.80898,149.7544 1002.0495,125.83856 1031.4507,111.50459 C1062.4837,96.375083 1104.9119,95.384153 1132.3758,109.14743 C1163.2973,124.64349 1181.4923,155.5845 1186.1081,200.5204 C1186.7295,206.5704 1187.0897,213.7704 1186.9086,216.5204 L1186.5792,221.5204 L1112.5792,221.77659 L1038.5792,222.03277 L1038.8613,230.77659 C1039.5147,251.0305 1043.8691,268.94509 1051.9245,284.5204 C1055.5859,291.59982 1058.4998,295.45947 1065.5792,302.60704 C1081.5718,318.75359 1097.4814,325.00529 1122.5792,325.00529 C1140.7767,325.00529 1153.8631,321.37382 1167.549,312.5262 C1171.3823,310.04801 1175.2664,308.0204 1176.1803,308.0204 C1178.2694,308.0204 1183.0792,314.21237 1183.0792,316.90176 C1183.0792,321.30839 1168.7317,335.51845 1154.7376,344.97189 C1143.2763,352.71433 1125.0998,359.7248 1109.3384,362.48182 C1098.2998,364.41272 1073.5027,364.36824 1062.5792,362.39792 L1062.5792,362.39795 Z M1036.7254,202.25701 C1037.2705,203.13901 1082.1037,202.55028 1102.9795,201.38699 L1113.3799,200.80744 L1112.7745,185.16392 C1111.5482,153.47364 1105.3595,132.06411 1094.5435,122.09422 C1090.5137,118.37972 1085.0993,116.03838 1080.5107,116.02598 C1079.373,116.02291 1076.0195,116.73986 1073.0585,117.6192 C1068.756,118.89689 1066.3488,120.55387 1061.0732,125.8692 C1051.2655,135.75083 1044.138,151.79811 1039.6865,174.0204 C1037.8396,183.23997 1035.973,201.03963 1036.7254,202.25701 Z M1262.5792,363.36768 C1244.7629,361.458 1216.4089,355.25034 1206.9682,351.19252 L1202.3571,349.2106 L1201.7283,326.3655 C1201.3825,313.80069 1200.9836,297.00092 1200.8419,289.03267 L1200.5842,274.54495 L1203.3478,273.22041 C1204.8677,272.49191 1207.9354,271.81139 1210.1647,271.70813 L1214.2181,271.5204 L1217.6715,280.02007 C1231.1444,313.1803 1246.9454,331.05974 1267.5837,336.49765 C1275.4567,338.57208 1290.218,338.59032 1296.0464,336.53285 C1312.3728,330.76947 1321.3256,318.40764 1321.4035,301.52044 C1321.4955,281.52079 1310.5025,271.91134 1268.9717,255.68854 C1243.2417,245.63787 1234.2662,240.46464 1223.5792,229.5256 C1212.0507,217.72518 1206.5174,204.29279 1205.4786,185.58514 C1204.2233,162.97876 1211.2988,143.92128 1226.9767,127.68119 C1242.7541,111.33806 1263.2364,102.48039 1291.1381,99.934233 C1315.7086,97.692063 1353.4238,102.90325 1373.1842,111.27071 L1376.7893,112.79725 L1377.4322,133.15885 C1377.7858,144.35772 1378.1515,159.37009 1378.2449,166.51967 L1378.4147,179.51889 L1373.5733,181.31646 C1365.9187,184.15857 1365.416,183.80238 1361.1579,172.52044 C1349.2224,140.89666 1335.3551,125.93322 1313.7475,121.36241 C1300.5789,118.57677 1289.5789,121.57152 1281.5837,130.11905 C1275.3462,136.78744 1272.9126,142.70923 1272.3229,152.65335 C1271.6841,163.42764 1273.6096,169.25134 1280.1926,176.4541 C1288.3063,185.33185 1301.5993,192.99521 1328.0792,204.0606 C1360.5124,217.61376 1375.9879,229.11997 1384.4008,245.93655 C1389.8646,256.85798 1391.4115,265.58115 1390.8619,282.37168 C1390.4494,294.97095 1390.0462,297.56083 1387.1798,306.02044 C1377.8344,333.60112 1356.7372,351.75881 1324.1458,360.27165 C1313.1065,363.15511 1311.5307,363.30431 1289.5792,363.54465 C1276.9292,363.68315 1264.7792,363.60355 1262.5792,363.36772 L1262.5792,363.36768 Z M1.32918,357.35812 C0.497755,357.02263 0.07918,354.53044 0.07918,349.91563 C0.07918,341.62997 -0.448925,342.00095 15.57918,339.02717 C27.872326,336.74636 32.270423,334.41398 37.698957,327.29669 C48.22424,313.49712 50.4992,286.92668 50.52278,177.5204 C50.54493,74.774933 48.56558,53.160953 37.680048,37.281193 C32.850465,30.235823 24.711543,26.410213 11.07918,24.777763 L0.57918,23.520403 L0.28959,15.323143 L0,7.125883 L3.28959,6.539693 C5.098864,6.217293 68.66673,6.081063 144.55152,6.236953 L282.52387,6.520403 L283.17078,10.520403 C283.52658,12.720403 284.11055,35.286333 284.46849,60.666913 L285.11929,106.81341 L278.00547,108.97417 C267.29721,112.22671 267.362,112.26633 262.54488,99.520403 C250.71258,68.212553 237.14468,50.172463 218.57918,41.062893 C205.77463,34.780063 199.85421,34.020403 163.69329,34.020403 L132.22309,34.020403 L131.6806,39.270403 C130.66328,49.115443 129.05695,112.44601 129.06808,142.2704 L129.07918,172.0204 L138.32918,171.9674 C143.41668,171.9382 153.4486,171.56385 160.62234,171.13541 C171.40641,170.49134 174.61062,169.91888 179.12234,167.83024 C190.20761,162.69845 197.74915,151.40386 202.36941,133.01427 L204.75468,123.5204 L212.91693,123.22996 L221.07918,122.93952 L221.07918,183.0204 L221.07918,243.10128 L212.9138,242.81084 L204.74842,242.5204 L202.4307,233.0204 C198.07593,215.17083 189.69522,202.39218 179.33922,197.81123 C174.55659,195.69565 162.72242,194.49325 139.82918,193.79688 L129.07918,193.46988 L129.07918,216.04122 C129.07918,240.63789 130.43136,273.91272 132.16474,291.97151 C134.58116,317.14649 141.01443,331.05791 152.56796,336.0918 C154.77413,337.05304 161.75418,338.61438 168.07918,339.56144 C174.40418,340.50851 180.36668,341.69004 181.32918,342.18707 C183.77013,343.44757 183.91418,356.486 181.49739,357.41341 C179.60602,358.1392 3.130678,358.08504 1.32918,357.35811 Z M494.27983,357.16925 C493.36773,356.5881 493.0697,354.28182 493.27983,349.43088 L493.57918,342.5204 L497.07918,341.77509 C499.00418,341.36517 503.13892,340.55153 506.2675,339.967 C515.94996,338.15796 521.51442,332.90225 524.64546,322.60878 C527.19629,314.22274 528.32076,287.39443 528.37946,233.5204 C528.45126,167.63052 527.07863,152.07042 520.41632,143.24983 C516.80551,138.46928 514.20263,137.10977 505.44116,135.42817 C501.11707,134.59824 496.56668,133.7084 495.32918,133.45075 C493.32521,133.03352 493.07918,132.38062 493.07918,127.47991 C493.07918,122.71454 493.38056,121.85359 495.32918,121.05229 C498.32213,119.82155 597.38718,100.0204 600.55162,100.0204 L603.02036,100.0204 L602.53625,114.7704 C602.26998,122.8829 601.8443,134.6954 601.59029,141.0204 L601.12845,152.5204 L604.71732,146.04838 C616.20617,125.3299 629.09047,112.46875 646.22324,104.61703 C655.62826,100.30684 661.90339,99.020403 673.52307,99.020403 C687.3033,99.020403 701.07918,103.51673 701.07918,108.01448 C701.07918,111.03877 676.80054,175.1901 675.4615,175.70393 C674.80828,175.9546 670.06753,174.1413 664.9265,171.6744 C654.2049,166.52966 644.1461,164.01396 634.38177,164.03518 C622.22232,164.06158 608.63946,168.54043 603.2766,174.29184 C600.98267,176.75196 600.97187,176.89988 600.40194,213.64082 C599.83753,250.02575 601.0501,294.40767 603.09627,312.25782 C604.83942,327.46458 608.87992,334.95132 617.22497,338.43723 C620.00897,339.60017 637.62308,342.0135 643.37124,342.01956 C643.80688,342.02002 644.03188,345.5079 643.87124,349.7704 L643.57918,357.5204 L569.57918,357.75877 C528.87918,357.88987 494.99447,357.62459 494.27983,357.16925 Z" id="path2995"></path>
        </g>
    </g>
</svg>