
<svg width="156px" height="184px" viewBox="0 0 156 184" version="1.1" xmlns="http://www.w3.org/2000/svg" xmlns:xlink="http://www.w3.org/1999/xlink">
    <!-- Generator: Sketch 51.2 (57519) - http://www.bohemiancoding.com/sketch -->
    <desc>Created with Sketch.</desc>
    <defs>
        <filter x="-7.1%" y="-3.1%" width="114.2%" height="112.6%" filterUnits="objectBoundingBox" id="filter-1">
            <feOffset dx="0" dy="6" in="SourceAlpha" result="shadowOffsetOuter1"></feOffset>
            <feGaussianBlur stdDeviation="2.5" in="shadowOffsetOuter1" result="shadowBlurOuter1"></feGaussianBlur>
            <feColorMatrix values="0 0 0 0 0   0 0 0 0 0   0 0 0 0 0  0 0 0 0.5 0" type="matrix" in="shadowBlurOuter1" result="shadowMatrixOuter1"></feColorMatrix>
            <feMerge>
                <feMergeNode in="shadowMatrixOuter1"></feMergeNode>
                <feMergeNode in="SourceGraphic"></feMergeNode>
            </feMerge>
        </filter>
    </defs>
    <g id="Page-1" stroke="none" stroke-width="1" fill="none" fill-rule="evenodd">
        <g id="Forbes-Bdge-Copy-3" filter="url(#filter-1)" transform="translate(4.000000, 0.000000)">
            <g id="medal" fill-rule="nonzero">
                <polygon id="Shape" fill="#E95454" points="38.1229704 75.1054444 0.200875805 146.582711 34.6375037 143.399909 51.3047665 173.718002 89.2268611 102.240735"></polygon>
                <g id="Group" transform="translate(31.217186, 75.021258)" fill="#ED6362">
                    <path d="M11.2490451,77.8836071 C12.313144,75.5969864 11.2001834,72.8649905 8.97426233,71.6809446 L6.79177385,70.5186243 C4.60928537,69.274833 3.77863677,66.5102487 4.96760437,64.2725106 C6.17285921,61.9967526 9.00683678,61.1277281 11.2816196,62.3334996 L17.4490497,65.6086358 C19.3546553,66.6188768 21.7434487,65.8856373 22.7261114,63.968352 L22.8781255,63.6750562 C24.0073733,61.8663989 23.3395969,59.4765815 21.4611367,58.4826347 L3.01313708,48.6898146 C0.76549969,47.4949059 -0.336602701,44.7737728 0.711208932,42.4817207 C1.86760208,40.0430206 4.78844487,39.0816622 7.1392347,40.330885 L24.2516817,49.4176226 C26.1572873,50.4278636 28.5460807,49.6946242 29.5558888,47.7882016 L29.6536121,47.5383571 L29.6807575,47.4840431 C30.7720017,45.4852867 30.0065021,42.9759784 27.9923149,41.9059919 L18.3937089,36.8113356 C16.1460715,35.6164269 15.0439691,32.8952939 16.108068,30.5760847 C17.253603,28.1645416 20.1853039,27.1760262 22.5360937,28.425249 L33.1390788,34.0576142 C35.1206915,35.1113064 37.4877685,34.2314191 38.5138639,32.2326627 C38.5301511,32.2055057 38.5301511,32.2055057 38.5410092,32.1783487 C38.5572965,32.1511916 38.5572965,32.1511916 38.5681546,32.1240346 C39.6485407,30.1524352 39.0513424,27.697441 37.0643006,26.6491801 L25.6252379,20.5768713 C23.4047459,19.3982568 22.3026435,16.6771237 23.3504551,14.3850716 C24.5068482,11.9463715 27.427691,10.9850131 29.7784809,12.2342359 L57.998817,27.2194775 L20.0767224,98.6967445 L9.62575143,79.6922644 C10.2989568,79.2360266 10.885297,78.6711606 11.2490451,77.8836071 Z" id="Shape"></path>
                    <polygon id="Shape" points="77.8420891 0.0841867506 115.764184 71.5614537 81.3275558 68.3786514 64.660293 98.6967445 26.7381984 27.2194775"></polygon>
                </g>
                <path d="M104.716014,152.904865 C103.651916,150.618244 104.764876,147.886248 106.990797,146.702202 L109.173286,145.539882 C111.355774,144.296091 112.186423,141.531506 110.997455,139.293768 C109.7922,137.01801 106.958223,136.148986 104.68344,137.354757 L98.5160098,140.629893 C96.6104042,141.640134 94.2216108,140.906895 93.2389481,138.98961 L93.086934,138.696314 C91.9576862,136.887657 92.6254625,134.497839 94.5039228,133.503892 L112.957351,123.705641 C115.204989,122.510732 116.307091,119.789599 115.25928,117.497547 C114.102886,115.058847 111.182044,114.097488 108.831254,115.346711 L91.7188069,124.433449 C89.8132013,125.44369 87.4244079,124.71045 86.4145998,122.804028 L86.3168764,122.554183 L86.2897311,122.499869 C85.1984868,120.501113 85.9639865,117.991805 87.9781736,116.921818 L97.5767797,111.827162 C99.8244171,110.632253 100.926519,107.91112 99.8624206,105.591911 C98.7168856,103.180368 95.7851847,102.191852 93.4343948,103.441075 L82.8205516,109.084303 C80.8389389,110.137995 78.4718619,109.258108 77.4457666,107.259352 C77.4294793,107.232195 77.4294793,107.232195 77.4186212,107.205038 C77.402334,107.177881 77.402334,107.177881 77.3914758,107.150724 C76.3110897,105.179124 76.9082881,102.72413 78.8953298,101.675869 L90.3343926,95.6035603 C92.5548846,94.4249458 93.656987,91.7038128 92.6091753,89.4117606 C91.4527822,86.9730605 88.5319394,86.0117021 86.1811496,87.2609249 L57.9608134,102.246167 L95.882908,173.723433 L106.333879,154.718953 C105.666103,154.257284 105.079762,153.692418 104.716014,152.904865 Z" id="Shape" fill="#E95454"></path>
                <ellipse id="Oval" fill="#FFCC5B" cx="73.5911227" cy="63.3899075" rx="63.3627439" ry="63.3899075"></ellipse>
                <path d="M82.1853497,56.1172586 L42.031905,56.1172586 C38.9101864,56.1172586 36.3476626,53.5536362 36.3476626,50.4305793 L36.3910952,50.0395183 L36.3910952,49.9526158 C36.3476626,46.6557541 39.0350551,43.961778 42.3359332,43.961778 L70.1653759,43.961778 C73.8517184,43.961778 77.1091639,41.2297822 77.3263269,37.536428 C77.5000573,33.6747003 74.4217713,30.4158583 70.5562693,30.4158583 L41.0763876,30.4158583 C37.8243712,30.4158583 35.3921453,27.6838625 35.4355779,24.4250205 C35.4355779,24.3815693 35.4355779,24.3815693 35.4355779,24.338118 C35.4355779,24.2946668 35.4355779,24.2946668 35.4355779,24.2512156 C35.3921453,20.997805 37.8189422,18.2603778 41.0763876,18.2603778 L71.9243965,18.2603778 C75.5673063,18.2603778 78.8247518,15.5283819 79.0419148,11.8784789 C79.2156453,7.9733 76.1373593,4.75790926 72.2718573,4.75790926 L49.6814728,4.75790926 C26.6459041,14.2574336 10.4129674,36.917248 10.4129674,63.3899075 C10.4129674,89.8625671 26.6459041,112.51695 49.6869019,122.005612 L78.3687094,122.005612 C82.0116193,122.005612 85.2690648,119.273616 85.4862278,115.623713 C85.6599583,111.718534 82.5816723,108.508574 78.7161703,108.508574 L46.0874246,108.503143 C42.2382099,108.503143 39.1382076,105.282321 39.3445125,101.382573 C39.5345301,97.7326704 42.8136919,94.9898117 46.4674599,94.9898117 L59.1172066,94.9898117 C62.7546874,94.8866151 65.6918174,91.9047747 65.6918174,88.2385775 C65.6918174,84.5072034 62.656964,81.4656176 58.9217599,81.4656176 L39.7462641,81.4656176 C36.6245455,81.4656176 34.0620217,78.9074267 34.1054543,75.7789384 L34.1054543,75.3009749 C33.8882913,72.2213692 36.3639498,69.6142957 39.4422358,69.6142957 L81.7944563,69.6142957 C85.4807988,69.6142957 88.7382443,66.8822998 88.9554073,63.2323968 C89.1291377,59.3326493 86.0454227,56.1172586 82.1853497,56.1172586 Z" id="Shape" fill="#FDBC4B"></path>
                <path d="M73.5911227,108.633497 C48.6499484,108.633497 28.3614921,88.3309113 28.3614921,63.3844761 C28.3614921,38.4380409 48.6499484,18.1408869 73.5911227,18.1408869 C98.532297,18.1408869 118.820753,38.4434723 118.820753,63.3899075 C118.820753,88.3363427 98.532297,108.633497 73.5911227,108.633497 Z" id="Shape" fill="#FFDB70"></path>
                <path d="M118.820753,63.3899075 C118.820753,39.3179283 99.9167114,19.6290914 76.186221,18.2712406 L71.9732581,18.2712406 C69.1935713,18.2712406 66.7124837,20.3568994 66.5441823,23.1377779 C66.4138845,26.1141869 68.7592452,28.5691812 71.7072334,28.5691812 L96.594117,28.5746126 C99.531247,28.5746126 101.892895,31.0296069 101.735452,34.0060159 C101.588867,36.7923257 99.0914918,38.883416 96.3009469,38.883416 L86.6534791,38.883416 C83.8792214,38.964887 81.6370131,41.2352136 81.6370131,44.0323863 C81.6370131,46.8784416 83.9552285,49.1976508 86.8000642,49.1976508 L101.425994,49.1976508 C103.809359,49.1976508 105.758397,51.152956 105.725823,53.5319106 L105.725823,53.8903832 C105.888695,56.2421808 104.004805,58.224643 101.654016,58.224643 L69.3564436,58.224643 C66.5441823,58.224643 64.0630947,60.3103019 63.8947933,63.0911804 C63.7644955,66.0675893 66.1098562,68.5225836 69.0578444,68.5225836 L99.677832,68.5225836 C102.061196,68.5225836 104.010235,70.4778888 104.010235,72.8568434 L103.97766,73.1555706 L103.97766,73.2207474 C104.010235,75.7354872 101.958044,77.7885576 99.4443818,77.7885576 L78.2166953,77.7885576 C75.4044341,77.7885576 72.9233464,79.8742164 72.7550451,82.6876833 C72.6247472,85.6315039 74.970108,88.1190866 77.9180962,88.1190866 L100.399899,88.1190866 C102.880987,88.1190866 104.732302,90.2047455 104.699727,92.6868968 C104.699727,92.7194852 104.699727,92.7194852 104.699727,92.7520736 C104.699727,92.784662 104.699727,92.784662 104.699727,92.8172504 C104.732302,95.2994017 102.880987,97.3850606 100.399899,97.3850606 L76.8757136,97.3850606 C74.0960268,97.3850606 71.6149391,99.4707194 71.4466378,102.251598 C71.31634,105.233438 73.6617007,107.683001 76.6096889,107.683001 L82.8151225,107.683001 C103.353316,103.403055 118.820753,85.1698346 118.820753,63.3899075 Z" id="Shape" fill="#FFFFFF" opacity="0.2"></path>
            </g>
            <g id="848e598aaede4c2736c0d96db6037448" transform="translate(22.000000, 36.000000)" fill="#000000" fill-rule="nonzero">
                <path d="M26.0882905,26.9259889 C24.257893,26.6640007 22.6569641,25.9024828 21.4344211,24.7122712 C20.4146651,23.719485 19.7534948,22.62767 19.2661108,21.1316607 C18.5051835,18.7960182 18.5049163,15.7931106 19.2654314,13.5051038 C20.0024618,11.2877512 21.661943,9.3576467 23.6929596,8.3555475 C26.5056202,6.96778673 30.4643425,7.05496056 33.0693253,8.56202185 C35.4137273,9.91832912 36.833857,12.3283008 37.2289361,15.6209168 C37.3495675,16.6262687 37.2712995,18.7496912 37.0813015,19.6262367 C36.3036696,23.2137986 34.0388717,25.7199158 30.7207729,26.6644927 C30.3632215,26.7662778 29.8087642,26.8853632 29.4886454,26.9291252 C28.811246,27.0217309 26.7438748,27.019824 26.0882898,26.9259867 L26.0882905,26.9259889 Z M27.1856699,25.5945809 C27.6853303,25.8173724 28.5998142,25.8049587 29.1167884,25.5683654 C30.5428589,24.9157258 31.3073907,23.0377607 31.5566295,19.5752354 C31.90396,14.7499953 31.0989346,10.7226764 29.5039783,9.30638277 C28.7858205,8.66867127 27.6689179,8.45991987 26.8629859,8.81277536 C25.6872079,9.32755818 24.9320705,10.8514777 24.574593,13.4309082 C24.3200332,15.2677222 24.3464159,19.0163656 24.6257672,20.7020722 C25.0664368,23.3612325 25.9457052,25.041698 27.1856699,25.5945809 Z M58.5084781,26.9250385 C57.7596091,26.8504156 55.4711354,26.4760894 54.6717414,26.2974621 L54.1186942,26.1738827 L54.1618208,23.2710375 C54.2656533,16.2821453 54.2787133,12.4669188 54.2115064,8.75658855 C54.1456703,5.12190753 54.1264709,4.73760574 53.9838675,4.19995585 C53.8031755,3.51870714 53.5423759,3.04350319 53.2287036,2.82396968 C53.1068478,2.73868561 52.7757788,2.61782254 52.4929958,2.55538624 C51.5530501,2.34785387 51.604108,2.38113206 51.5790138,1.95966794 C51.5645588,1.7168912 51.591322,1.55650639 51.6545009,1.50729322 C51.7391997,1.44131853 59.4485438,-0.00405092644 59.6940935,8.53488041e-06 C59.7646521,0.00117488877 59.7746466,0.970056592 59.7384981,4.30485574 C59.7128423,6.6716938 59.7095465,8.60819745 59.7311758,8.60819745 C59.7528029,8.60819745 60.0345049,8.4883056 60.3571798,8.34177161 C61.3298205,7.90007289 62.2263007,7.70841688 63.5283716,7.66381125 C64.3952813,7.634113 64.7968425,7.65271086 65.241617,7.74315969 C68.1495959,8.33452048 70.3015685,10.6740019 71.0536102,14.0615704 C71.2497936,14.9452765 71.3227806,17.1415056 71.1925246,18.2415756 C71.0815057,19.1791818 70.7647687,20.4424864 70.4351633,21.2623094 C69.1914303,24.3558313 66.5229425,26.3740408 62.9829615,26.898501 C62.16754,27.0193084 59.606918,27.0344947 58.5084796,26.9250385 L58.5084781,26.9250385 Z M60.0805807,25.6194617 C60.7619506,25.6901396 61.5270781,25.665434 61.884092,25.5612263 C62.4374457,25.3997093 63.1451493,24.905469 63.5712958,24.3829298 C64.4503552,23.3050324 65.0818138,21.6365332 65.4288461,19.4747353 C65.5950438,18.4394247 65.6174695,15.5299226 65.4657087,14.6922326 C64.9998069,12.1205465 64.1026941,10.549294 62.737106,9.91321111 C62.0571047,9.59647031 61.0979113,9.5572268 60.2069378,9.80969422 L59.603041,9.98081513 L59.5346248,12.317975 C59.4483687,15.2645563 59.5885203,25.3363878 59.7179105,25.4896261 C59.7648468,25.5452134 59.9280484,25.6036395 60.0805807,25.6194617 Z M80.2110203,26.8883154 C76.4660601,26.2243839 73.7878065,23.6141058 72.912677,19.7751909 C72.8001182,19.2814329 72.750342,18.7289617 72.7221174,17.6600546 C72.6774592,15.9689837 72.8173972,14.9193889 73.2613897,13.6152404 C74.1139108,11.1111101 75.6418089,9.33666123 77.8612202,8.27314444 C80.2038113,7.15060234 83.406593,7.07707974 85.4797631,8.09825365 C87.8139374,9.24799236 89.1874251,11.5436776 89.5358585,14.8777215 C89.5827662,15.3266045 89.6099566,15.8608125 89.5962859,16.0648503 L89.5714205,16.435828 L83.9853752,16.4548362 L78.3993299,16.4738436 L78.4206248,17.1225961 C78.4699481,18.6253461 78.7986491,19.954529 79.4067279,21.1101477 C79.6831164,21.6354092 79.9030782,21.921778 80.4374816,22.4520959 C81.6447165,23.6500981 82.8456861,24.1139464 84.7402462,24.1139464 C86.1139226,24.1139464 87.101777,23.8445075 88.1348859,23.1880535 C88.4242506,23.0041828 88.71745,22.8537431 88.7864377,22.8537431 C88.9441378,22.8537431 89.3072156,23.3131598 89.3072156,23.5127005 C89.3072156,23.8396529 88.2241645,24.8939761 87.1677905,25.5953793 C86.3026102,26.1698339 84.930519,26.6899796 83.7407366,26.8945382 C82.9074647,27.0378024 81.0356036,27.0345022 80.2110203,26.8883132 L80.2110203,26.8883154 Z M78.259392,15.0065702 C78.30054,15.0720107 81.6848681,15.0283295 83.2607217,14.9420186 L84.0458177,14.8990186 L84.0001178,13.738339 C83.907548,11.3870612 83.440381,9.79856934 82.6239125,9.05884787 C82.3197146,8.78324849 81.9109973,8.60953148 81.5646172,8.60861146 C81.4787355,8.60838368 81.2255895,8.66157818 81.0020722,8.72682129 C80.677289,8.82162021 80.4955765,8.94456075 80.0973367,9.33893459 C79.3569819,10.0721076 78.8189476,11.2627443 78.4829168,12.9115394 C78.3434997,13.5955904 78.2025955,14.916246 78.259392,15.0065702 Z M95.3084399,26.9602651 C93.9635391,26.8185753 91.8231779,26.3579945 91.1105269,26.0569224 L90.7624483,25.9098727 L90.714982,24.2148679 C90.6888786,23.2826149 90.6587668,22.0361468 90.6480703,21.4449381 L90.6286173,20.3700137 L90.8372334,20.2717387 C90.9519662,20.2176873 91.183538,20.1671957 91.3518214,20.1595343 L91.6578008,20.1456056 L91.918488,20.7762432 C92.9355181,23.2365848 94.1282897,24.5631597 95.6862151,24.9666284 C96.280525,25.1205419 97.3948127,25.1218952 97.8347817,24.9692401 C99.0672143,24.5416229 99.7430352,23.6244301 99.7489156,22.371475 C99.7558604,20.88759 98.9260308,20.1746116 95.7909912,18.970952 C93.8487081,18.225237 93.1711737,17.8414063 92.3644431,17.0297782 C91.4941901,16.1542396 91.0764973,15.157616 90.9980813,13.7695916 C90.9033224,12.0922988 91.4374313,10.6783186 92.6209105,9.47337618 C93.8119006,8.26078865 95.35805,7.60358895 97.4642684,7.41467543 C99.3190241,7.24831639 102.166035,7.63496328 103.65769,8.25579158 L103.929829,8.36905406 L103.97836,9.87979418 C104.005052,10.7107005 104.032657,11.8245516 104.039708,12.3550186 L104.052526,13.3195029 L103.687062,13.4528746 C103.109239,13.6637465 103.071292,13.6373188 102.74986,12.800249 C101.848884,10.4539053 100.802081,9.34368458 99.1709864,9.00455082 C98.176927,8.79786873 97.3465689,9.02006585 96.7430345,9.65425455 C96.2721837,10.1490194 96.0884783,10.5883899 96.0439635,11.3261993 C95.9957424,12.1256037 96.1410928,12.5576963 96.6380244,13.0921091 C97.250504,13.7507986 98.253954,14.3193859 100.252845,15.1403886 C102.701133,16.1459727 103.869334,16.9996823 104.504399,18.2473977 C104.916845,19.0577192 105.033616,19.7049396 104.992129,20.9507222 C104.96099,21.885532 104.930554,22.0776896 104.714178,22.705355 C104.00872,24.7517187 102.416154,26.0989386 99.9559239,26.7305534 C99.1225992,26.9444933 99.0036466,26.9555633 97.3465916,26.9733954 C96.3916798,26.9836715 95.4745115,26.9777656 95.3084399,26.960268 L95.3084399,26.9602651 Z M0.100335941,26.5143824 C0.0375740805,26.4894906 0.00597706843,26.3045812 0.00597706843,25.9621828 C0.00597706843,25.3474237 -0.0338880455,25.3749488 1.17602709,25.1543075 C2.10400101,24.9850816 2.43600059,24.8120293 2.84578486,24.2839581 C3.64030793,23.2600914 3.81203806,21.288683 3.81381805,13.1712238 C3.81549009,5.54796732 3.6660747,3.94430617 2.84435748,2.76609864 C2.47978627,2.24336353 1.86540267,1.95952029 0.836335147,1.83839977 L0.0437206175,1.74510925 L0.0218603087,1.13690903 L0,0.528708812 L0.248321603,0.485216122 C0.384898447,0.461295477 5.18345218,0.451187817 10.9117748,0.462754161 L21.3269071,0.48378489 L21.3757404,0.780567092 C21.4025988,0.943797303 21.446681,2.6180889 21.4737008,4.50121501 L21.5228278,7.92507976 L20.9858262,8.08539853 C20.1774907,8.32672253 20.1823815,8.32966216 19.8187511,7.38397109 C18.9255651,5.06106792 17.9013637,3.72257351 16.499908,3.04668395 C15.5333297,2.58052592 15.0864144,2.52416253 12.3567314,2.52416253 L9.98113736,2.52416253 L9.94018637,2.91368917 C9.86339183,3.64414733 9.74213464,8.34299361 9.74297481,10.5558306 L9.74381272,12.7631483 L10.4420684,12.7592159 C10.826109,12.7570494 11.5833895,12.7292743 12.1249143,12.697486 C12.9389725,12.6496988 13.180849,12.6072248 13.5214256,12.452257 C14.3582205,12.0715011 14.9275095,11.2334927 15.2762795,9.86906699 L15.4563366,9.16466408 L16.0724812,9.14311472 L16.6886257,9.12156536 L16.6886257,13.5792993 L16.6886257,18.0370333 L16.0722449,18.0154839 L15.4558641,17.9939346 L15.2809061,17.2890769 C14.9521772,15.9647182 14.3195417,15.0165992 13.5377973,14.6767131 C13.1767704,14.5197465 12.2834433,14.4305338 10.555299,14.3788662 L9.74381272,14.3546043 L9.74381272,16.0292972 C9.74381272,17.8542607 9.84588487,20.3231051 9.97673269,21.6629869 C10.1591412,23.5308584 10.6447701,24.5630239 11.5169126,24.9365161 C11.6834499,25.0078359 12.2103537,25.1236803 12.6878095,25.193948 C13.1652654,25.2642164 13.6153573,25.3518806 13.6880136,25.388758 C13.8722738,25.4822815 13.8831477,26.449675 13.7007113,26.5184847 C13.5579372,26.5723351 0.236325797,26.5683167 0.100335941,26.5143817 L0.100335941,26.5143824 Z M37.31175,26.5003691 C37.2428982,26.4572504 37.2204008,26.2861347 37.2362629,25.9262165 L37.25886,25.4134896 L37.5230648,25.358191 C37.6683775,25.3277767 37.980497,25.2674082 38.2166644,25.2240387 C38.9475652,25.089816 39.3676102,24.6998657 39.6039633,23.936136 C39.7965181,23.3139292 39.881401,21.3233879 39.8858321,17.3261746 C39.8912521,12.4374387 39.7876362,11.2829485 39.2847178,10.6285 C39.0121482,10.2738045 38.8156644,10.1729349 38.1542864,10.0481676 C37.8278734,9.98659051 37.4843777,9.92056834 37.3909624,9.90145186 C37.2396885,9.87049525 37.2211164,9.82205298 37.2211164,9.4584421 C37.2211164,9.10487285 37.2438667,9.04099419 37.3909624,8.9815413 C37.6168915,8.89022586 45.0950246,7.42106864 45.333899,7.42106864 L45.5202571,7.42106864 L45.483713,8.51545301 C45.4636131,9.11736441 45.4314797,9.99379935 45.4123052,10.4630862 L45.3774423,11.316335 L45.6483556,10.83614 C46.5156156,9.29892092 47.488214,8.34468082 48.7815171,7.76211813 C49.4914748,7.44232121 49.9651661,7.34687331 50.842302,7.34687331 C51.8825316,7.34687331 52.9224328,7.68048077 52.9224328,8.01419381 C52.9224328,8.23858267 51.0897087,12.9983259 50.9886285,13.0364498 C50.9393188,13.0550484 50.5814534,12.9205096 50.1933719,12.7374766 C49.3840295,12.3557598 48.6247198,12.1691061 47.8876389,12.1706805 C46.9697573,12.1726392 45.9444266,12.50495 45.5395999,12.931679 C45.3664378,13.114209 45.3656225,13.125184 45.3226001,15.8511982 C45.2799945,18.5507982 45.3715279,21.8437391 45.5259873,23.1681409 C45.6575726,24.2964148 45.9625782,24.8518976 46.5925218,25.1105366 C46.8026779,25.1968216 48.132316,25.3758799 48.5662279,25.3763295 C48.5991131,25.3763637 48.6160977,25.6351488 48.6039714,25.9514074 L48.5819247,26.5264229 L42.9958794,26.5441089 C39.9235545,26.5538359 37.3656961,26.5341533 37.31175,26.5003691 Z" id="path2995"></path>
            </g>
            <g id="Group-2" transform="translate(27.000000, 74.000000)" fill="#000000">
                <path d="M9.17014925,8.79841568 L7.37138921,8.79841568 L7.37138921,11.3333333 L5.69607348,11.3333333 L5.69607348,8.79841568 L3.47407577,8.79841568 L3.47407577,11.3333333 L1.79876005,11.3333333 L1.79876005,8.79841568 L0,8.79841568 L0,7.35668126 L1.79876005,7.35668126 L1.79876005,4.94850949 L0,4.94850949 L0,3.50677507 L1.79876005,3.50677507 L1.79876005,0.829268293 L3.47407577,0.829268293 L3.47407577,3.50677507 L5.69607348,3.50677507 L5.69607348,0.829268293 L7.37138921,0.829268293 L7.37138921,3.50677507 L9.17014925,3.50677507 L9.17014925,4.94850949 L7.37138921,4.94850949 L7.37138921,7.35668126 L9.17014925,7.35668126 L9.17014925,8.79841568 Z M5.73134328,7.18699187 L5.73134328,4.69918699 L3.43880597,4.69918699 L3.43880597,7.18699187 L5.73134328,7.18699187 Z M14.5881156,11.3333333 L14.5881156,9.45533383 L9.45671642,9.45533383 L9.45671642,8.10253757 L12.4629907,0.829268293 L14.5881156,0.829268293 L11.4090669,7.91155457 L14.5881156,7.91155457 L14.5881156,4.82399606 L16.5231886,4.82399606 L16.5231886,7.91155457 L17.7671642,7.91155457 L17.7671642,9.45533383 L16.5231886,9.45533383 L16.5231886,11.3333333 L14.5881156,11.3333333 Z M22.9253731,0.276422764 L27.5245992,0.276422764 C29.9303483,0.276422764 31.2216694,1.07905762 31.2216694,3.0777758 C31.2216694,4.38402469 30.7617468,5.02928016 29.7888336,5.50141831 C30.8325041,5.8633909 31.5223881,6.52438431 31.5223881,8.00375052 C31.5223881,10.2070619 30.0187949,11.0569106 27.6661139,11.0569106 L22.9253731,11.0569106 L22.9253731,0.276422764 Z M27.2623091,6.35772358 L24.6447761,6.35772358 L24.6447761,9.67479675 L27.2974438,9.67479675 C28.50959,9.67479675 29.2298507,9.31531099 29.2298507,7.97540951 C29.2298507,6.70086908 28.2109453,6.35772358 27.2623091,6.35772358 Z M27.1537009,1.93495935 L24.6447761,1.93495935 L24.6447761,4.97560976 L27.2238806,4.97560976 C28.4169357,4.97560976 28.9432836,4.44814999 28.9432836,3.40874399 C28.9432836,2.3848515 28.346756,1.93495935 27.1537009,1.93495935 Z M32.9552239,11.0569106 L32.9552239,0 L34.961194,0 L34.961194,11.0569106 L32.9552239,11.0569106 Z M39.9761194,3.04065041 C42.8732749,3.04065041 43.8447761,4.56574152 43.8447761,7.13933277 C43.8447761,9.77646949 42.9600161,11.3333333 39.9761194,11.3333333 C37.009571,11.3333333 36.1074627,9.77646949 36.1074627,7.13933277 C36.1074627,4.56574152 37.0789639,3.04065041 39.9761194,3.04065041 Z M40.119403,9.67479675 C41.7703342,9.67479675 42.1253731,8.80463751 42.1253731,7.00216481 C42.1253731,5.19969212 41.6815744,4.42276423 40.119403,4.42276423 C38.5572315,4.42276423 38.1134328,5.19969212 38.1134328,7.00216481 C38.1134328,8.80463751 38.4684718,9.67479675 40.119403,9.67479675 Z M48.6613395,3.04065041 C49.5920841,3.04065041 51.2955224,3.34249136 51.2955224,3.34249136 L51.2252775,4.70871881 C51.2252775,4.70871881 49.8379412,4.58162789 49.1706149,4.58162789 C47.3442481,4.58162789 46.9227789,5.24885525 46.9227789,7.07578731 C46.9227789,9.10924213 47.2915645,9.79235585 49.1881761,9.79235585 C49.8555024,9.79235585 51.2428387,9.66526493 51.2428387,9.66526493 L51.2955224,11.0473787 C51.2955224,11.0473787 49.5218393,11.3333333 48.6262171,11.3333333 C45.9217894,11.3333333 44.9910448,10.1259695 44.9910448,7.07578731 C44.9910448,4.23212784 46.0447179,3.04065041 48.6613395,3.04065041 Z M54.380052,11.0569106 L52.441791,11.0569106 L52.441791,0 L54.380052,0 L54.380052,6.38739608 L55.4825491,6.29369345 L57.5808499,3.24835791 L59.7502796,3.24835791 L57.1896413,6.90276055 L59.8925373,11.0569106 L57.7053254,11.0569106 L55.5358957,7.76170135 L54.380052,7.87102108 L54.380052,11.0569106 Z M63.8493992,3.04065041 C64.7801438,3.04065041 66.4835821,3.34249136 66.4835821,3.34249136 L66.4133372,4.70871881 C66.4133372,4.70871881 65.0260009,4.58162789 64.3586746,4.58162789 C62.5323078,4.58162789 62.1108386,5.24885525 62.1108386,7.07578731 C62.1108386,9.10924213 62.4796242,9.79235585 64.3762358,9.79235585 C65.0435621,9.79235585 66.4308984,9.66526493 66.4308984,9.66526493 L66.4835821,11.0473787 C66.4835821,11.0473787 64.709899,11.3333333 63.8142768,11.3333333 C61.1098491,11.3333333 60.1791045,10.1259695 60.1791045,7.07578731 C60.1791045,4.23212784 61.2327776,3.04065041 63.8493992,3.04065041 Z M69.5681117,11.0569106 L67.6298507,11.0569106 L67.6298507,0 L69.5681117,0 L69.5681117,3.65440265 C69.5681117,3.65440265 70.8839953,3.07656975 72.0042746,3.07656975 C74.4760019,3.07656975 75.080597,4.31032107 75.080597,6.87152634 L75.080597,11.0569106 L73.1423361,11.0569106 L73.1423361,6.91837766 C73.1423361,5.35666713 72.9289495,4.59142897 71.5597193,4.59142897 C70.5816977,4.59142897 69.5681117,4.93500528 69.5681117,4.93500528 L69.5681117,11.0569106 Z M83.2008567,5.66190076 L83.2008567,9.28399215 C83.2355532,9.76058312 83.4610802,9.95121951 83.9641791,10.014765 L83.9121344,11.3333333 C82.853892,11.3333333 82.2467037,11.2062424 81.604819,10.7455378 C81.604819,10.7455378 80.21696,11.3333333 78.8117529,11.3333333 C77.0942775,11.3333333 76.2268657,10.4595832 76.2268657,8.80740118 C76.2268657,7.12344641 77.2330634,6.55153724 79.0893247,6.40855995 L81.3272472,6.23380992 L81.3272472,5.66190076 C81.3272472,4.78815064 80.9108895,4.51808242 80.0608259,4.51808242 C78.8984941,4.51808242 76.7993575,4.67694608 76.7993575,4.67694608 L76.7299645,3.45369592 C76.7299645,3.45369592 78.6209223,3.04065041 80.21696,3.04065041 C82.3334449,3.04065041 83.2008567,3.85085506 83.2008567,5.66190076 Z M81.0985075,7.46341463 L79.1219685,7.63996853 C78.3381686,7.70416994 77.9462687,8.05727773 77.9462687,8.77954367 C77.9462687,9.5018096 78.2700121,9.95121951 78.9856555,9.95121951 C79.9568858,9.95121951 81.0985075,9.59811172 81.0985075,9.59811172 L81.0985075,7.46341463 Z M85.1104478,11.3333333 L85.1104478,3.31707317 L87.1164179,3.31707317 L87.1164179,11.3333333 L85.1104478,11.3333333 Z M85.1104478,1.93495935 L85.1104478,0 L87.1164179,0 L87.1164179,1.93495935 L85.1104478,1.93495935 Z M90.4875147,11.0569106 L88.5492537,11.0569106 L88.5492537,3.21321178 L90.4697325,3.21321178 L90.4697325,3.6995211 C90.4697325,3.6995211 91.7678339,3.04065041 92.9236776,3.04065041 C95.3954048,3.04065041 96,4.27995482 96,6.85268802 L96,11.0569106 L94.0795212,11.0569106 L94.0795212,6.89975021 C94.0795212,5.33101045 93.8483525,4.56232797 92.4969045,4.56232797 C91.4655363,4.56232797 90.4875147,4.97020031 90.4875147,4.97020031 L90.4875147,11.0569106 Z" id="#4-Blockchain"></path>
                <path d="M12.6997412,21.6695558 L12.7317174,22.6330805 C12.2307578,22.7378115 11.3354258,22.8634886 10.6532681,22.8634886 C8.42559678,22.8634886 7.91397849,21.6171903 7.91397849,19.1664861 C7.91397849,16.5796316 8.46823164,15.4590105 10.6532681,15.4590105 C11.4100368,15.4590105 12.2840514,15.6161069 12.7423761,15.7208378 L12.6997412,16.6634164 C12.2200991,16.5796316 11.3354258,16.4958469 10.8131488,16.4958469 C9.47015079,16.4958469 9.13973065,17.1347057 9.13973065,19.1664861 C9.13973065,21.135428 9.40619851,21.8266522 10.8451249,21.8266522 C11.3887194,21.8266522 12.2414165,21.7428675 12.6997412,21.6695558 Z M15.5637055,17.396533 C17.3437108,17.396533 17.9405988,18.4019502 17.9405988,20.0985915 C17.9405988,21.8371253 17.3970044,22.8634886 15.5637055,22.8634886 C13.7410654,22.8634886 13.1868122,21.8371253 13.1868122,20.0985915 C13.1868122,18.4019502 13.7837002,17.396533 15.5637055,17.396533 Z M15.5637055,21.8999639 C16.5549659,21.8999639 16.7681402,21.3134706 16.7681402,20.0985915 C16.7681402,18.8837125 16.5016724,18.3600578 15.5637055,18.3600578 C14.6257386,18.3600578 14.3592708,18.8837125 14.3592708,20.0985915 C14.3592708,21.3134706 14.5724451,21.8999639 15.5637055,21.8999639 Z M19.9305485,22.7482846 L18.7687486,22.7482846 L18.7687486,17.5117371 L19.9198898,17.5117371 L19.9198898,17.836403 C19.9198898,17.836403 20.6766585,17.396533 21.3055227,17.396533 C21.9557042,17.396533 22.3607354,17.5536295 22.6591794,17.9097147 C22.6591794,17.9097147 23.6291224,17.396533 24.4924783,17.396533 C25.9420634,17.396533 26.3364358,18.161069 26.3364358,19.9414951 L26.3364358,22.7482846 L25.1852947,22.7482846 L25.1852947,19.9729144 C25.1852947,18.9256049 25.0573901,18.4124233 24.279304,18.4124233 C23.6930747,18.4124233 23.0642105,18.6951968 23.0642105,18.6951968 C23.1068454,18.7999278 23.1494802,19.5225713 23.1494802,20.035753 L23.1494802,22.7482846 L21.9983391,22.7482846 L21.9983391,20.0566992 C21.9983391,18.8941856 21.8810932,18.4124233 21.0816897,18.4124233 C20.4848017,18.4124233 19.9305485,18.6847237 19.9305485,18.6847237 L19.9305485,22.7482846 Z M27.3777599,25 L27.3777599,17.5117371 L28.5289011,17.5117371 L28.5289011,17.836403 C28.5289011,17.836403 29.2643524,17.396533 29.9038753,17.396533 C31.2895081,17.396533 31.9396897,18.1715421 31.9396897,20.0776454 C31.9396897,22.2351029 31.1935797,22.8634886 29.5521377,22.8634886 C29.1151304,22.8634886 28.6035121,22.7797039 28.5395598,22.7692308 L28.5395598,25 L27.3777599,25 Z M29.7013597,18.4124233 C29.1364478,18.4124233 28.5395598,18.7056699 28.5395598,18.7056699 L28.5395598,21.7952329 C28.5928534,21.805706 29.1044717,21.8790177 29.4775267,21.8790177 C30.4687871,21.8790177 30.7565724,21.365836 30.7565724,20.0776454 C30.7565724,18.8522932 30.3622,18.4124233 29.7013597,18.4124233 Z M36.7222226,19.1245937 L36.7222226,21.5124594 C36.74354,21.8266522 36.8821033,21.9523294 37.191206,21.9942217 L37.1592298,22.8634886 C36.5090483,22.8634886 36.1359933,22.7797039 35.7416208,22.4759841 C35.7416208,22.4759841 34.8889237,22.8634886 34.0255678,22.8634886 C32.9703551,22.8634886 32.4374194,22.2874684 32.4374194,21.1982665 C32.4374194,20.0881185 33.0556248,19.711087 34.1961072,19.6168292 L35.5710814,19.5016251 L35.5710814,19.1245937 C35.5710814,18.5485735 35.3152723,18.3705309 34.7929952,18.3705309 C34.0788614,18.3705309 32.7891569,18.4752618 32.7891569,18.4752618 L32.7465221,17.6688335 C32.7465221,17.6688335 33.908322,17.396533 34.8889237,17.396533 C36.1892868,17.396533 36.7222226,17.9306609 36.7222226,19.1245937 Z M35.5710814,20.3080534 L34.3346705,20.4232575 C33.8443697,20.4651499 33.5992192,20.695558 33.5992192,21.1668472 C33.5992192,21.6381365 33.8017348,21.9313832 34.2494008,21.9313832 C34.8569475,21.9313832 35.5710814,21.7009751 35.5710814,21.7009751 L35.5710814,20.3080534 Z M39.021275,22.7482846 L37.8594751,22.7482846 L37.8594751,17.5117371 L39.0106162,17.5117371 L39.0106162,17.836403 C39.0106162,17.836403 39.7887024,17.396533 40.4815188,17.396533 C41.9630801,17.396533 42.3254764,18.2239075 42.3254764,19.9414951 L42.3254764,22.7482846 L41.1743353,22.7482846 L41.1743353,19.9729144 C41.1743353,18.9256049 41.035772,18.4124233 40.2257097,18.4124233 C39.6075042,18.4124233 39.021275,18.6847237 39.021275,18.6847237 L39.021275,22.7482846 Z M42.8125474,17.5117371 L43.9530298,17.5117371 L45.0828535,21.7742867 L45.3706388,21.7742867 L46.5004625,17.5117371 L47.6516037,17.5117371 L45.626448,25 L44.4859655,25 L45.1254884,22.7482846 L44.208839,22.7482846 L42.8125474,17.5117371 Z M53.1130644,18.4857349 L51.6421618,18.4857349 L51.6421618,20.7898158 C51.6421618,21.5752979 51.6741379,21.8475984 52.2283911,21.8475984 C52.5268351,21.8475984 53.1024057,21.8161791 53.1024057,21.8161791 L53.1556992,22.7273384 C53.1556992,22.7273384 52.4415654,22.8634886 52.0685104,22.8634886 C50.8640756,22.8634886 50.4910206,22.4236186 50.4910206,20.915493 L50.4910206,18.4857349 L49.8088629,18.4857349 L49.8088629,17.5117371 L50.4910206,17.5117371 L50.4910206,15.9931383 L51.6421618,15.9931383 L51.6421618,17.5117371 L53.1130644,17.5117371 L53.1130644,18.4857349 Z M55.8597828,17.396533 C57.6397881,17.396533 58.2366761,18.4019502 58.2366761,20.0985915 C58.2366761,21.8371253 57.6930816,22.8634886 55.8597828,22.8634886 C54.0371426,22.8634886 53.4828895,21.8371253 53.4828895,20.0985915 C53.4828895,18.4019502 54.0797775,17.396533 55.8597828,17.396533 Z M55.8597828,21.8999639 C56.8510432,21.8999639 57.0642175,21.3134706 57.0642175,20.0985915 C57.0642175,18.8837125 56.7977496,18.3600578 55.8597828,18.3600578 C54.9218159,18.3600578 54.6553481,18.8837125 54.6553481,20.0985915 C54.6553481,21.3134706 54.8685223,21.8999639 55.8597828,21.8999639 Z M60.6390857,15.5742145 L61.8861553,15.5742145 L62.9307093,21.7428675 L63.1545423,21.7428675 L64.5401752,15.5951607 L65.9258081,15.5951607 L67.3114409,21.7428675 L67.5459326,21.7428675 L68.5904866,15.5742145 L69.8375562,15.5742145 L68.3986298,22.7482846 L66.4907199,22.7482846 L65.2329916,16.9985554 L63.985922,22.7482846 L62.0673535,22.7482846 L60.6390857,15.5742145 Z M74.2576928,19.1245937 L74.2576928,21.5124594 C74.2790102,21.8266522 74.4175735,21.9523294 74.7266762,21.9942217 L74.6947001,22.8634886 C74.0445185,22.8634886 73.6714635,22.7797039 73.2770911,22.4759841 C73.2770911,22.4759841 72.4243939,22.8634886 71.5610381,22.8634886 C70.5058253,22.8634886 69.9728896,22.2874684 69.9728896,21.1982665 C69.9728896,20.0881185 70.591095,19.711087 71.7315775,19.6168292 L73.1065516,19.5016251 L73.1065516,19.1245937 C73.1065516,18.5485735 72.8507425,18.3705309 72.3284655,18.3705309 C71.6143316,18.3705309 70.3246272,18.4752618 70.3246272,18.4752618 L70.2819923,17.6688335 C70.2819923,17.6688335 71.4437922,17.396533 72.4243939,17.396533 C73.7247571,17.396533 74.2576928,17.9306609 74.2576928,19.1245937 Z M73.1065516,20.3080534 L71.8701408,20.4232575 C71.3798399,20.4651499 71.1346895,20.695558 71.1346895,21.1668472 C71.1346895,21.6381365 71.3372051,21.9313832 71.7848711,21.9313832 C72.3924178,21.9313832 73.1065516,21.7009751 73.1065516,21.7009751 L73.1065516,20.3080534 Z M78.2621395,18.4857349 L76.7912369,18.4857349 L76.7912369,20.7898158 C76.7912369,21.5752979 76.8232131,21.8475984 77.3774662,21.8475984 C77.6759102,21.8475984 78.2514808,21.8161791 78.2514808,21.8161791 L78.3047744,22.7273384 C78.3047744,22.7273384 77.5906405,22.8634886 77.2175855,22.8634886 C76.0131508,22.8634886 75.6400958,22.4236186 75.6400958,20.915493 L75.6400958,18.4857349 L74.957938,18.4857349 L74.957938,17.5117371 L75.6400958,17.5117371 L75.6400958,15.9931383 L76.7912369,15.9931383 L76.7912369,17.5117371 L78.2621395,17.5117371 L78.2621395,18.4857349 Z M80.8809533,17.396533 C81.4458652,17.396533 82.4797605,17.5955218 82.4797605,17.5955218 L82.4371256,18.496208 C82.4371256,18.496208 81.5950872,18.4124233 81.190056,18.4124233 C80.0815498,18.4124233 79.8257406,18.8522932 79.8257406,20.0566992 C79.8257406,21.3972553 80.0495736,21.8475984 81.2007148,21.8475984 C81.6057459,21.8475984 82.4477843,21.7638137 82.4477843,21.7638137 L82.4797605,22.6749729 C82.4797605,22.6749729 81.4032303,22.8634886 80.8596359,22.8634886 C79.2181939,22.8634886 78.653282,22.0675334 78.653282,20.0566992 C78.653282,18.1820152 79.2928049,17.396533 80.8809533,17.396533 Z M84.437734,22.7482846 L83.2759342,22.7482846 L83.2759342,15.3333333 L84.437734,15.3333333 L84.437734,17.7840376 C84.437734,17.7840376 85.2264789,17.396533 85.8979779,17.396533 C87.3795392,17.396533 87.7419355,18.2239075 87.7419355,19.9414951 L87.7419355,22.7482846 L86.5801356,22.7482846 L86.5801356,19.9729144 C86.5801356,18.9256049 86.452231,18.4124233 85.63151,18.4124233 C85.0452807,18.4124233 84.437734,18.6428313 84.437734,18.6428313 L84.437734,22.7482846 Z" id="Company-to-Watch"></path>
            </g>
            <path d="M64.4561621,111.824561 L58,111.824561 L58,110.114035 L60.1269132,108.023392 C61.4241794,106.736842 62.148235,105.991228 62.148235,105.055556 C62.148235,104.076023 61.6806158,103.783626 60.51911,103.783626 C59.4933646,103.783626 58.1659294,104.002924 58.1659294,104.002924 L58.060338,102.438596 C58.060338,102.438596 59.5386181,102 61.0470671,102 C63.3248253,102 64.2902327,102.964912 64.2902327,104.763158 C64.2902327,106.254386 63.7019375,107.102339 62.057728,108.549708 L60.3230116,110.070175 L64.4561621,110.070175 L64.4561621,111.824561 Z M69.2333746,102 C71.7072311,102 73.0950043,103.403509 73.0950043,107.05848 C73.0950043,110.71345 71.7072311,112 69.2333746,112 C66.7595181,112 65.371745,110.71345 65.371745,107.05848 C65.371745,103.403509 66.7595181,102 69.2333746,102 Z M69.2484591,103.754386 C68.0416998,103.754386 67.5137427,104.54386 67.5137427,107.05848 C67.5137427,109.426901 68.0416998,110.245614 69.2484591,110.245614 C70.4552184,110.245614 70.9530066,109.426901 70.9530066,107.05848 C70.9530066,104.54386 70.4552184,103.754386 69.2484591,103.754386 Z M74.1161786,104.295322 L77.4045976,102.175439 L79.3052434,102.175439 L79.3052434,111.824561 L77.2235837,111.824561 L77.2235837,104.45614 L75.0665015,105.80117 L74.1161786,104.295322 Z M85.1836238,102 C87.3256215,102 88.8491551,102.950292 88.8491551,104.646199 C88.8491551,105.80117 88.6228877,106.181287 87.7630718,106.853801 C88.5625498,107.497076 89,107.994152 89,109.207602 C89,111.239766 87.280368,112 85.1836238,112 C83.0868796,112 81.4125011,111.400585 81.4125011,109.368421 C81.4125011,108.038012 81.8650358,107.497076 82.6645139,106.853801 C81.8046979,106.181287 81.5784305,105.654971 81.5784305,104.631579 C81.5784305,102.964912 83.0114571,102 85.1836238,102 Z M85.1836238,110.187135 C86.2093692,110.187135 86.7674954,109.792398 86.7674954,108.900585 C86.7674954,108.432749 86.4658055,108.023392 85.8775104,107.804094 L84.5500752,107.804094 C83.9316111,108.038012 83.6450058,108.432749 83.6450058,108.900585 C83.6450058,109.792398 84.1578784,110.187135 85.1836238,110.187135 Z M85.2137928,103.812865 C84.3087234,103.812865 83.8109352,104.222222 83.8109352,104.953216 C83.8109352,105.421053 84.0673715,105.77193 84.5500752,106.093567 L85.8775104,106.093567 C86.3602141,105.77193 86.6166505,105.421053 86.6166505,104.953216 C86.6166505,104.222222 86.1339467,103.812865 85.2137928,103.812865 Z" id="2018" fill="#000000"></path>
        </g>
    </g>
</svg>