<?xml version="1.0" encoding="UTF-8"?>
<svg width="32px" height="34px" viewBox="0 0 32 34" version="1.1" xmlns="http://www.w3.org/2000/svg" xmlns:xlink="http://www.w3.org/1999/xlink">
    <!-- Generator: Sketch 49.1 (51147) - http://www.bohemiancoding.com/sketch -->
    <title>fullfeatured-ico</title>
    <desc>Created with Sketch.</desc>
    <defs></defs>
    <g id="Page-1" stroke="none" stroke-width="1" fill="none" fill-rule="evenodd">
        <g id="menlo-home-copy-30" transform="translate(-544.000000, -885.000000)" fill="#8C74F4" fill-rule="nonzero">
            <g id="3-points" transform="translate(140.000000, 885.000000)">
                <g id="fully-featured" transform="translate(402.000000, 0.000000)">
                    <path d="M22.1815588,19.1093249 C22.6689754,18.334881 22.9641582,17.4551206 23.0424883,16.5434174 L27.6341121,16.222679 C27.7835228,16.632938 28.0130572,17.0093745 28.3093509,17.3300706 C28.9010234,17.9748117 29.7271864,18.3544329 30.6017867,18.3834432 L30.7199535,18.3834432 C31.5538717,18.3848313 32.3564414,18.0657373 32.9617463,17.492128 C34.2789086,16.2430127 34.3525002,14.1689305 33.1271798,12.829604 C32.533527,12.1861636 31.7067505,11.8075031 30.8317721,11.778316 C29.9567936,11.7491289 29.1066208,12.0718506 28.4714083,12.6742991 C27.9405745,13.1737451 27.5903092,13.8350936 27.475431,14.5548392 L22.9378263,14.8553204 C22.5506772,13.0449933 21.3097758,11.5347685 19.608899,10.8038876 L20.6724001,6.61740708 C21.4951346,6.61556897 22.2865792,6.30188667 22.8871834,5.73959665 C24.222457,4.49306839 24.3038145,2.40338555 23.0694979,1.05681557 C22.4773424,0.413010989 21.6520304,0.0331529751 20.7778644,0.00206869914 C19.9036984,-0.0290155768 19.0534903,0.291262983 18.4171025,0.891382062 C17.0933547,2.14158205 17.0196506,4.22334862 18.251669,5.56403456 C18.4848027,5.81618785 18.7559202,6.03034788 19.0552032,6.19875903 L17.9748211,10.3818634 C16.1349012,10.1973196 14.3208899,10.9234284 13.1164779,12.3265511 L9.93610319,10.2603204 C9.98336991,10.132025 10.0238842,10.0003535 10.0576462,9.86530571 C10.6187142,7.67117678 9.30620643,5.43494075 7.11698121,4.85503382 C6.07038885,4.58202436 4.95808251,4.73884132 4.0277637,5.29056284 C2.43010949,6.2322761 1.65880634,8.12556341 2.14356619,9.91562785 C2.62832605,11.7056923 4.24959449,12.9510573 6.10412301,12.9578994 C6.83014175,12.9570801 7.54260148,12.7611829 8.16697754,12.3906988 C8.48899679,12.1987579 8.78320907,11.9636153 9.04141178,11.6918267 L12.2150341,13.751305 C11.4733924,15.4543324 11.5991152,17.4105802 12.5526535,19.0046629 L9.22710245,21.756261 C7.95557119,20.7934095 6.17474914,20.8890145 5.01361234,21.982466 C3.68176057,23.23728 3.61239507,25.3318167 4.85830742,26.6719994 C5.44997988,27.3167405 6.27614285,27.6963617 7.15074315,27.725372 L7.26890994,27.725372 C8.10282822,27.7267601 8.9053979,27.4076661 9.51070275,26.8340568 C10.5252298,25.8741006 10.8326357,24.3829123 10.280475,23.0999862 L13.6161547,20.3146261 C14.9890383,21.5519645 16.8824222,22.0354085 18.6804457,21.6077084 L20.2301187,25.5105887 C19.3647571,26.0711132 18.7435758,26.9383547 18.4913788,27.9380722 C17.9303107,30.1322011 19.2428185,32.3684372 21.4320438,32.9483441 C22.4856789,33.2191798 23.603822,33.0585741 24.5386292,32.5021261 C25.4734365,31.9456781 26.1476875,31.0393537 26.4119299,29.9840458 C26.9657042,27.7891259 25.6474721,25.5579239 23.4577602,24.9839024 C22.913235,24.8425002 22.3452284,24.8160546 21.7899203,24.90625 L20.2368711,20.9966173 C21.0279051,20.5336729 21.6951312,19.8861392 22.1815588,19.1093249 Z M29.6294428,13.9032337 C29.9229925,13.6250983 30.3121886,13.4703868 30.7165773,13.4710809 L30.7739726,13.4710809 C31.198124,13.4860192 31.598433,13.6709644 31.8847404,13.9842624 C32.489122,14.6432866 32.453051,15.6652991 31.8037117,16.2800743 C31.4963011,16.5723638 31.0844687,16.7290894 30.6605117,16.7151267 C30.2365548,16.7011641 29.8359269,16.5176808 29.5484141,16.205798 C28.9395547,15.5458749 28.9757008,14.5187252 29.6294428,13.9032337 Z M19.5582561,2.12031668 C19.850959,1.84298467 20.2387923,1.68833463 20.6420144,1.68816385 L20.7061621,1.68816385 C21.1303135,1.70310215 21.5306224,1.88804733 21.8169299,2.20134533 C22.4213115,2.86036953 22.3852405,3.88238203 21.7359012,4.49715725 C21.4276066,4.78859782 21.0152557,4.94413524 20.591285,4.92890276 C20.1673143,4.91367028 19.7671885,4.72894208 19.4806036,4.4161286 C18.8753306,3.75800948 18.9098975,2.73603355 19.5582561,2.12031668 Z M7.30604807,10.9423116 C6.76257276,11.2661552 6.1119468,11.3585805 5.49978428,11.1989023 C4.20835104,10.8539516 3.43667865,9.53216119 3.77117295,8.2379802 C3.92928329,7.61389428 4.33046538,7.07898483 4.88531697,6.75245484 C5.42879228,6.42861128 6.07941824,6.33618591 6.69158076,6.4958641 C7.98134889,6.84084849 8.75255363,8.1603316 8.42019209,9.45341004 C8.26324145,10.0789138 7.86187431,10.6152862 7.30604807,10.9423116 Z M22.4313972,26.5403279 C22.6330732,26.5408628 22.8338684,26.5669549 23.0289835,26.6179803 C24.3187517,26.9629647 25.0899564,28.2824478 24.7575949,29.5755263 C24.6014528,30.1986193 24.202752,30.7334618 23.6502032,31.0610516 C23.1067279,31.3848952 22.4561019,31.4773206 21.8439394,31.3176424 C20.552805,30.9741505 19.7798201,29.6541997 20.1119519,28.3600964 C20.2680878,27.7333408 20.6695496,27.1956253 21.2260959,26.8678187 C21.5922117,26.651959 22.0097629,26.5388237 22.4347734,26.5403279 L22.4313972,26.5403279 Z M8.35266821,25.5949936 C8.0443736,25.8864341 7.63202267,26.0419715 7.20805199,26.0267391 C6.78408131,26.0115066 6.3839555,25.8267784 6.09737062,25.5139649 C5.49298898,24.8549407 5.52906001,23.8329282 6.17839927,23.218153 C6.47194894,22.9400176 6.86114503,22.7853061 7.26553374,22.7860001 L7.32292904,22.7860001 C7.74657892,22.8000627 8.14681272,22.9837566 8.43369686,23.2958054 C9.0380785,23.9548296 9.00200747,24.9768421 8.35266821,25.5916174 L8.35266821,25.5949936 Z M16.4150195,19.946621 C14.7425611,19.4991237 13.5431664,18.0329211 13.436029,16.3049476 C13.3288916,14.5769741 14.337982,12.9738414 15.9423523,12.3231749 C17.5444202,11.6851371 19.3752616,12.1640568 20.4596999,13.5048428 C21.5641286,14.8531968 21.6824238,16.7567977 20.7534288,18.2315144 C19.8360796,19.6881718 18.0804398,20.3822302 16.4150195,19.946621 Z" id="fullfeatured-ico"></path>
                </g>
            </g>
        </g>
    </g>
</svg>