<?xml version="1.0" encoding="utf-8"?>
<!-- Generator: Adobe Illustrator 22.1.0, SVG Export Plug-In . SVG Version: 6.00 Build 0)  -->
<svg version="1.1" id="Layer_1" xmlns="http://www.w3.org/2000/svg" xmlns:xlink="http://www.w3.org/1999/xlink" x="0px" y="0px"
	 viewBox="0 0 97 97" style="enable-background:new 0 0 97 97;" xml:space="preserve">
<style type="text/css">
	.st0{fill:url(#global-ico_1_);}
</style>
<title>global-ico</title>
<desc>Created with Sketch.</desc>
<g id="v2">
	<g id="organize-copy" transform="translate(-269.000000, -4561.000000)">
		<g id="use-cases" transform="translate(103.000000, 4044.000000)">
			
				<linearGradient id="global-ico_1_" gradientUnits="userSpaceOnUse" x1="-87.8505" y1="958.4227" x2="-87.8505" y2="957.4227" gradientTransform="matrix(97 0 0 -97 8736 93484)">
				<stop  offset="0" style="stop-color:#52BF87"/>
				<stop  offset="1" style="stop-color:#729DDF"/>
			</linearGradient>
			<path id="global-ico" class="st0" d="M214.5,614c26.8,0,48.5-21.7,48.5-48.5c0-26.8-21.7-48.5-48.5-48.5h0
				c-26.8,0-48.5,21.7-48.5,48.5C166,592.3,187.7,614,214.5,614z M245.4,596.2c-4.3,4.3-9.6,7.7-15.4,9.8c0.8-1.1,1.7-2.2,2.4-3.4
				c2.9-4.5,5.1-10.1,6.7-16.3c0.2-0.8,0.4-1.5,0.5-2.3H254C251.9,588.5,248.9,592.6,245.4,596.2z M257,565.4
				c0,4.4-0.6,8.6-1.8,12.6h-14.9c0.6-4,0.8-8.3,0.8-12.6c0-5-0.4-9.8-1.1-14.4h14.6C256.2,555.5,257,560.3,257,565.4z M245.3,534.7
				c3.1,3,5.7,6.5,7.7,10.3h-13.8c-1.2-5-2.9-9.6-5-13.6c-1.3-2.4-2.7-4.5-4.2-6.4C235.8,527.1,241,530.5,245.3,534.7z M217,523
				c1.6,0.5,3.1,1.3,4.7,2.6c1.9,1.5,3.7,3.6,5.4,6.3c2.4,3.8,4.4,8.6,5.9,14.1h-16L217,523L217,523z M217,551h16.8
				c0.8,4.5,1.2,9.3,1.2,14.4c0,4.4-0.3,8.6-0.9,12.6H217V551z M217,584h16c-1.1,4.8-2.7,9.1-4.6,12.7c-2,3.8-4.4,6.8-6.8,8.8
				c-1.5,1.2-3.1,2-4.6,2.5V584z M212,608c-1.5-0.5-3.1-1.3-4.6-2.5c-1.8-1.5-3.6-3.5-5.2-6.1c-2.4-3.8-4.5-8.8-5.9-14.5
				c-0.1-0.3-0.1-0.6-0.2-0.9h16V608z M212,578h-17.1c-0.6-4-0.9-8.2-0.9-12.6c0-5,0.4-9.9,1.2-14.4H212L212,578L212,578z
				 M207.3,525.6c1.6-1.3,3.1-2.1,4.7-2.6v23h-16c1.1-4.2,2.6-8.1,4.3-11.3C202.3,530.7,204.8,527.6,207.3,525.6z M184.7,534.7
				c4.3-4.2,9.5-7.6,15.3-9.7c-0.8,1-1.7,2.1-2.4,3.3c-2.8,4.5-5.1,9.9-6.7,16.1c0,0.2-0.1,0.4-0.1,0.6H177
				C179,541.2,181.6,537.7,184.7,534.7z M172,565.4c0-5,0.8-9.9,2.4-14.4H189c-0.7,4.6-1.1,9.4-1.1,14.4c0,4.4,0.3,8.6,0.9,12.6
				h-14.9C172.6,574,172,569.8,172,565.4z M190.3,584c1.3,5.8,3.1,11,5.4,15.5c1.3,2.4,2.7,4.6,4.2,6.5c-5.8-2.2-11.1-5.6-15.4-9.8
				c-3.5-3.5-6.5-7.6-8.6-12.2H190.3z"/>
		</g>
	</g>
</g>
</svg>
