<?xml version="1.0" encoding="utf-8"?>
<!-- Generator: Adobe Illustrator 22.1.0, SVG Export Plug-In . SVG Version: 6.00 Build 0)  -->
<svg version="1.1" id="Layer_1" xmlns="http://www.w3.org/2000/svg" xmlns:xlink="http://www.w3.org/1999/xlink" x="0px" y="0px"
	 viewBox="0 0 72 72" style="enable-background:new 0 0 72 72;" xml:space="preserve">
<style type="text/css">
	.st0{fill:url(#path-2_4_);}
	.st1{filter:url(#Adobe_OpacityMaskFilter);}
	.st2{fill:#FFFFFF;}
	.st3{opacity:0.2969;mask:url(#mask-3_1_);fill:#FFFFFF;enable-background:new    ;}
	.st4{filter:url(#Adobe_OpacityMaskFilter_1_);}
	.st5{opacity:0.2969;mask:url(#mask-3_2_);fill:#FFFFFF;enable-background:new    ;}
</style>
<title>Group</title>
<desc>Created with Sketch.</desc>
<g id="Symbols">
	<g id="Oval-3_1_">
		<g id="Group">
			<g id="Oval-3">
				<g id="Mask">
					
						<linearGradient id="path-2_4_" gradientUnits="userSpaceOnUse" x1="-264.515" y1="427.9355" x2="-265.0419" y2="427.0428" gradientTransform="matrix(72 0 0 -72 19099 30817)">
						<stop  offset="0" style="stop-color:#6477E0"/>
						<stop  offset="1" style="stop-color:#5123EA"/>
					</linearGradient>
					<circle id="path-2_1_" class="st0" cx="36" cy="36" r="36"/>
				</g>
				<defs>
					<filter id="Adobe_OpacityMaskFilter" filterUnits="userSpaceOnUse" x="-15" y="30" width="87" height="83.3">
						<feColorMatrix  type="matrix" values="1 0 0 0 0  0 1 0 0 0  0 0 1 0 0  0 0 0 1 0"/>
					</filter>
				</defs>
				<mask maskUnits="userSpaceOnUse" x="-15" y="30" width="87" height="83.3" id="mask-3_1_">
					<g class="st1">
						<circle id="path-2_2_" class="st2" cx="36" cy="36" r="36"/>
					</g>
				</mask>
				<path class="st3" d="M27,113.3c23.2,0,42-18.8,42-42s17,19.5-29.9-23.1S-15,48.1-15,71.3S3.8,113.3,27,113.3z"/>
				<defs>
					<filter id="Adobe_OpacityMaskFilter_1_" filterUnits="userSpaceOnUse" x="-11.1" y="19.3" width="87.1" height="74.6">
						<feColorMatrix  type="matrix" values="1 0 0 0 0  0 1 0 0 0  0 0 1 0 0  0 0 0 1 0"/>
					</filter>
				</defs>
				<mask maskUnits="userSpaceOnUse" x="-11.1" y="19.3" width="87.1" height="74.6" id="mask-3_2_">
					<g class="st4">
						<circle id="path-2_3_" class="st2" cx="36" cy="36" r="36"/>
					</g>
				</mask>
				<path id="Oval-3-Copy" class="st5" d="M49,91.1c21.7-8.3,32.5-32.6,24.2-54.3S96,48.9,37,25.9s-50.6,19.4-42.3,41
					S27.4,99.4,49,91.1z"/>
			</g>
			<polygon id="Star" class="st2" points="36.5,45.2 26.2,50.7 28.2,39.2 19.9,31.1 31.4,29.4 36.5,19 41.6,29.4 53.1,31.1 
				44.8,39.2 46.8,50.7 			"/>
		</g>
	</g>
</g>
</svg>
