<?xml version="1.0" encoding="utf-8"?>
<!-- Generator: Adobe Illustrator 21.0.0, SVG Export Plug-In . SVG Version: 6.00 Build 0)  -->
<svg version="1.1" id="Слой_1" xmlns="http://www.w3.org/2000/svg" xmlns:xlink="http://www.w3.org/1999/xlink" x="0px" y="0px"
	 viewBox="0 0 800 250" style="enable-background:new 0 0 800 250;" xml:space="preserve">
<style type="text/css">
	.st0{fill:#FFFFFF;}
</style>
<g>
	<rect class="st0" width="800" height="250"/>
</g>
<g id="ICOmarks">
	<g id="IC">
		<path d="M92,187.4H68.4V84.8H92V187.4z"/>
		<path d="M150.2,187.2c-6.6,0-13-1.2-19.4-3.7c-6.2-2.5-12-6.2-16.9-11.2c-4.8-4.8-8.5-10.5-11.1-16.7c-2.5-6.2-3.9-12.8-3.9-19.6
			c0-7,1.4-13.6,3.9-19.8s6.2-11.6,11.1-16.5c5-5,10.7-8.7,17.1-11.2c6.4-2.5,12.8-3.7,19.4-3.7c6.6,0,13,1.2,19.2,3.7
			c6.2,2.5,12,6.2,16.9,11.2l-16.7,16.7c-2.7-2.7-5.8-4.7-9.3-6c-3.5-1.4-7-1.9-10.5-1.9s-7,0.6-10.5,1.9c-3.5,1.4-6.4,3.3-9.1,6
			c-2.5,2.7-4.7,5.8-6,9.1c-1.4,3.3-2.1,7-2.1,10.7s0.8,7.2,2.1,10.5c1.4,3.3,3.5,6.4,6,8.9c2.7,2.7,5.8,4.7,9.1,6
			c3.5,1.4,6.8,1.9,10.5,1.9c3.5,0,7-0.6,10.5-1.9c3.5-1.4,6.6-3.3,9.3-6l16.7,16.7c-5,5-10.7,8.7-16.9,11.2
			C163.4,186,156.8,187.2,150.2,187.2z"/>
	</g>
	<g id="marks">
		<path d="M412.7,92.6c10.1,0,18,2.9,24.4,8.9c6.2,6,9.3,14.9,9.3,27.1v46.5h-8.3v-47.3c-0.4-8.9-2.7-15.7-7-20.6
			c-4.3-4.7-11.1-7-20.2-7c-5.2,0-10.1,1.2-14.5,3.5c-4.5,2.3-8.7,6.2-12.8,11.8c1.2,3.7,1.7,8.1,1.7,13.4v46.1h-8.1v-46.5
			c0-18.6-9.1-27.9-27.3-27.9c-10.7,0-19,4.5-25.4,13.2v61.3h-8.3V95.7h6.8l1.6,8.1c7.6-7.4,16.5-10.9,26.4-10.9
			c13.4,0,23.3,5.4,29.7,16.1c4.7-5.4,9.3-9.5,14-12.2C399.3,93.9,405.4,92.6,412.7,92.6z"/>
		<path d="M459.4,152.3c-0.4-4.8,0.6-9.3,2.5-13.2c1.9-3.9,4.7-6.8,7.9-9.1c3.3-2.3,7.2-3.9,11.4-5s8.7-1.6,13.4-1.4
			c6.8,0.2,12.8,1.6,17.8,4.3c5,2.7,9.3,5.6,12.4,9.3v-3.3c0-11.2-2.3-19.6-6.8-25c-4.5-5.4-11.4-7.9-20.9-7.9
			c-5.6,0-11.1,1.2-16.1,3.3c-5.2,2.1-9.3,5.2-12.6,9.1l-4.5-7c4.1-4.3,8.9-7.6,14.9-9.9c5.8-2.3,12-3.5,18.2-3.5
			c11.8,0,20.7,3.3,26.9,9.7c6,6.4,9.1,16.5,9.1,30.2v42.7h-6.8l-1.6-8.1c-3.1,2.7-7.4,5.2-13.2,7.4c-5.8,2.1-11.4,3.3-16.9,3.5
			c-10.5,0.2-19-1.7-25.2-6.2C463.5,167.6,459.8,161,459.4,152.3z M525,160.2v-12.8c-1.9-3.9-5.8-7.6-11.4-10.9
			c-5.6-3.3-11.8-5.2-18.4-5.6c-3.5-0.2-6.8,0-10.1,0.8c-3.3,0.6-6.2,1.7-8.9,3.3c-2.7,1.6-4.8,3.9-6.4,6.8
			c-1.6,2.9-2.1,6.4-1.9,10.3c0.4,6,2.9,10.7,7.9,13.8c5,3.1,11.2,4.7,19,4.8c5.6,0,11.1-0.8,16.3-2.7
			C516.3,166.2,520.9,163.5,525,160.2z"/>
		<path d="M588,93.1l-1.7,8.1c-0.8,0-1.9-0.2-3.5-0.2c-12.4,0-21.5,4.3-27.7,12.8v61.3h-8.3V95.7h6.6l1.7,8.1
			c7.6-7.4,17.3-10.9,28.7-10.9C584.7,92.9,586.1,92.9,588,93.1z"/>
		<path d="M608.7,55.3v119.8h-8.3V55.3H608.7z M663,95.7l-39,39.6l40.5,39.7h-11.6l-39.7-39.7l38.4-39.6H663z"/>
		<path d="M734.4,100.9l-4.1,7c-2.5-2.1-6-4.1-10.9-5.8c-4.8-1.7-9.7-2.7-14.5-2.7c-5.6,0-10.1,1.2-13.4,3.5s-5.2,5.6-5.4,9.7
			c-0.4,4.8,1.7,8.5,5.8,10.9c3.7,2.1,8.7,3.7,15.1,5c8.3,1.7,14.9,3.5,19.4,5.4c5,2.1,8.3,5.2,10.3,9.7c1.7,4.3,2.1,9.1,1.2,14.5
			c-1.4,6.8-5.6,11.8-12.4,14.9c-5,2.3-11.2,3.5-18.6,3.5c-6.2,0-12.4-1.2-18.6-3.5c-6.2-2.3-11.1-5-14.7-8.1l4.1-7l0.8,0.8
			c2.5,2.5,6.6,4.8,12,7c5.6,2.1,11.1,3.1,16.5,3.1c6.4,0.2,11.6-0.8,15.5-2.9c4.1-2.1,6.6-5.2,7.4-9.3c1.4-7-1-11.8-7.4-14.7
			c-4.3-1.9-9.9-3.5-16.9-4.8c-8.5-1.7-14.5-3.9-18.2-5.8c-7.4-4.3-10.7-10.3-10.1-18c0.6-7.2,3.7-12.8,9.7-16.7
			c4.5-3.1,10.5-4.5,17.6-4.5C716.3,91.6,726,94.7,734.4,100.9z"/>
	</g>
	<path id="logo" d="M238.8,83.8c-28.3,0-51.4,23.1-51.4,51.4s23.1,51.4,51.4,51.4s51.4-23.1,51.4-51.4S267.1,83.8,238.8,83.8z
		 M263,142l4.5,26.2c0,0.2,0,0.6,0,1c0,0.8-0.2,1.4-0.6,1.9c-0.4,0.6-1,0.8-1.6,0.8s-1.4-0.2-2.1-0.6l-23.5-12.2l-23.5,12.4
		c-0.8,0.4-1.6,0.6-2.1,0.6c-0.8,0-1.4-0.2-1.7-0.8c-0.4-0.6-0.6-1.2-0.6-1.9c0-0.2,0-0.6,0.2-1l4.5-26.4l-19-18.6
		c-1-1-1.4-1.7-1.4-2.5c0-1.4,1-2.1,2.9-2.3l26.4-3.9l11.8-23.8c0.6-1.4,1.6-2.1,2.5-2.1c1,0,1.9,0.8,2.5,2.1l11.8,23.8l26.4,3.9
		c1.9,0.4,2.9,1.2,2.9,2.3c0,0.8-0.4,1.6-1.4,2.5L263,142z"/>
</g>
</svg>
