<svg class="icon-global" width="18px" height="18px" viewBox="0 0 18 18" version="1.1" xmlns="http://www.w3.org/2000/svg" xmlns:xlink="http://www.w3.org/1999/xlink">
    <!-- Generator: Sketch 48.2 (47327) - http://www.bohemiancoding.com/sketch -->
    <title>global</title>
    <desc></desc>
    <defs></defs>
    <g id="Enigma_404" stroke="none" stroke-width="1" fill="none" fill-rule="evenodd" transform="translate(-1216.000000, -37.000000)">
        <g id="Group-5" transform="translate(1166.000000, 34.000000)" fill="#C5F9FF" fill-rule="nonzero">
            <g id="noun_1213085_cc" transform="translate(50.000000, 3.000000)">
                <path d="M9,0 C4.03578947,0 0,4.03578947 0,9 C0,13.9642105 4.03578947,18 9,18 C9,18 9,18 9,18 C9,18 9,18 9,18 C9,18 9,18 9,18 C13.9642105,18 18,13.9642105 18,9 C18,4.03578947 13.9642105,0 9,0 Z M1.02315789,9.49263158 L4.26315789,9.49263158 C4.30105263,10.6484211 4.43368421,11.7473684 4.68,12.7515789 L1.95157895,12.7515789 C1.42105263,11.7663158 1.09894737,10.6673684 1.02315789,9.49263158 Z M9.49263158,4.24421053 L9.49263158,1.08 C10.4968421,1.38315789 11.3873684,2.57684211 11.9936842,4.24421053 L9.49263158,4.24421053 Z M12.2968421,5.24842105 C12.5431579,6.23368421 12.7136842,7.33263158 12.7326316,8.50736842 L9.49263158,8.50736842 L9.49263158,5.24842105 L12.2968421,5.24842105 Z M8.50736842,1.08 L8.50736842,4.24421053 L6.00631579,4.24421053 C6.59368421,2.55789474 7.50315789,1.38315789 8.50736842,1.08 Z M8.50736842,5.24842105 L8.50736842,8.50736842 L5.26736842,8.50736842 C5.30526316,7.35157895 5.45684211,6.23368421 5.70315789,5.24842105 L8.50736842,5.24842105 Z M4.26315789,8.50736842 L1.02315789,8.50736842 C1.09894737,7.33263158 1.42105263,6.23368421 1.93263158,5.24842105 L4.66105263,5.24842105 C4.43368421,6.25263158 4.28210526,7.33263158 4.26315789,8.50736842 Z M5.26736842,9.49263158 L8.50736842,9.49263158 L8.50736842,12.7515789 L5.70315789,12.7515789 C5.45684211,11.7663158 5.28631579,10.6673684 5.26736842,9.49263158 Z M8.50736842,13.7557895 L8.50736842,16.92 C7.50315789,16.6168421 6.61263158,15.4231579 6.00631579,13.7557895 L8.50736842,13.7557895 Z M9.49263158,16.92 L9.49263158,13.7557895 L11.9936842,13.7557895 C11.4063158,15.4421053 10.4968421,16.6168421 9.49263158,16.92 Z M9.49263158,12.7515789 L9.49263158,9.49263158 L12.7326316,9.49263158 C12.6947368,10.6484211 12.5431579,11.7663158 12.2968421,12.7515789 L9.49263158,12.7515789 Z M13.7368421,9.49263158 L16.9768421,9.49263158 C16.9010526,10.6673684 16.5789474,11.7663158 16.0673684,12.7515789 L13.3389474,12.7515789 C13.5663158,11.7473684 13.7178947,10.6673684 13.7368421,9.49263158 Z M13.7368421,8.50736842 C13.6989474,7.35157895 13.5663158,6.25263158 13.32,5.24842105 L16.0484211,5.24842105 C16.5789474,6.23368421 16.9010526,7.33263158 16.9578947,8.50736842 L13.7368421,8.50736842 Z M15.4231579,4.24421053 L13.0547368,4.24421053 C12.6947368,3.10736842 12.2021053,2.16 11.6147368,1.44 C13.1494737,1.97052632 14.4757895,2.95578947 15.4231579,4.24421053 Z M6.38526316,1.44 C5.79789474,2.16 5.30526316,3.12631579 4.94526316,4.24421053 L2.57684211,4.24421053 C3.52421053,2.95578947 4.85052632,1.97052632 6.38526316,1.44 Z M2.57684211,13.7557895 L4.94526316,13.7557895 C5.30526316,14.8926316 5.79789474,15.84 6.38526316,16.56 C4.85052632,16.0294737 3.52421053,15.0442105 2.57684211,13.7557895 Z M11.6147368,16.56 C12.2021053,15.84 12.6947368,14.8736842 13.0547368,13.7557895 L15.4231579,13.7557895 C14.4757895,15.0442105 13.1494737,16.0294737 11.6147368,16.56 Z" id="Shape"></path>
            </g>
        </g>
    </g>
</svg>