<?xml version="1.0" encoding="UTF-8"?>
<svg width="28px" height="28px" viewBox="0 0 28 28" version="1.1" xmlns="http://www.w3.org/2000/svg" xmlns:xlink="http://www.w3.org/1999/xlink">
    <!-- Generator: Sketch 49.3 (51167) - http://www.bohemiancoding.com/sketch -->
    <title>M1mark-outline</title>
    <desc>Created with Sketch.</desc>
    <defs></defs>
    <g id="Page-1" stroke="none" stroke-width="1" fill="none" fill-rule="evenodd">
        <g id="menlo-home-copy-40" transform="translate(-721.000000, -5245.000000)" fill="#FFFFFF" fill-rule="nonzero">
            <g id="Group-15" transform="translate(-9.000000, 4746.000000)">
                <g id="token-sale-evolved">
                    <g id="points" transform="translate(139.000000, 489.000000)">
                        <g id="automated-investment" transform="translate(588.000000, 8.000000)">
                            <g id="M1mark-outline" transform="translate(3.000000, 2.000000)">
                                <g id="Group" transform="translate(8.000000, 8.000000)">
                                    <path d="M8.2186476,5.26800774 L10.729033,2.47155429 L10.729033,11.2032191 C10.729033,11.6325501 11.0259043,11.9168369 11.36965,11.9168369 C11.7133957,11.9168369 11.9633926,11.586136 11.9633926,11.255435 L11.9633926,0.760031954 C11.9633926,0.475745193 11.8331859,0.191458431 11.5779807,0.0986301009 C11.3644417,0.00580177064 11.0675704,0.0986301009 10.8956976,0.290088532 L7.31761716,4.27590496 C7.062412,4.51377756 7.062412,4.98952275 7.31761716,5.27380951 C7.53636443,5.55229451 7.96344244,5.55229451 8.2186476,5.26800774 Z" id="Shape"></path>
                                    <path d="M8.17698145,9.16099584 C8.4321866,8.92312325 8.4321866,8.44737806 8.17698145,8.16309129 L1.10415291,0.290088532 C0.93228005,0.0522159358 0.677074897,0.00580177064 0.421869744,0.0986301009 C0.208330738,0.243674367 0.0364578791,0.475745193 0.0364578791,0.760031954 L0.0364578791,11.1974173 C0.0364578791,11.6267484 0.33332918,11.9110351 0.677074897,11.9110351 C1.02082061,11.9110351 1.31769191,11.5803342 1.31769191,11.2496333 L1.31769191,2.47155429 L7.27595101,9.16099584 C7.49469828,9.44528261 7.92177629,9.44528261 8.17698145,9.16099584 Z" id="Shape"></path>
                                </g>
                                <path d="M28,14 C28,6.2608 21.7392,0 14,0 C6.2608,0 0,6.2608 0,14 C0,21.7392 6.3112,28 14,28 C21.7392,28 28,21.7392 28,14 Z M1.5288,14.0504 C1.5288,7.196 7.1008,1.5792 14,1.5792 C20.8992,1.5792 26.5216,7.2016 26.5216,14.0504 C26.5216,20.8992 20.8544,26.5216 14,26.5216 C7.1456,26.5216 1.5288,20.8992 1.5288,14.0504 Z" id="Shape"></path>
                            </g>
                        </g>
                    </g>
                </g>
            </g>
        </g>
    </g>
</svg>