<?xml version="1.0" encoding="UTF-8"?>
<svg width="24px" height="24px" viewBox="0 0 24 24" version="1.1" xmlns="http://www.w3.org/2000/svg" xmlns:xlink="http://www.w3.org/1999/xlink">
    <!-- Generator: Sketch 49.3 (51167) - http://www.bohemiancoding.com/sketch -->
    <title>Page 1</title>
    <desc>Created with Sketch.</desc>
    <defs></defs>
    <g id="Page-1" stroke="none" stroke-width="1" fill="none" fill-rule="evenodd">
        <g id="menlo-home-copy-40" transform="translate(-599.000000, -8633.000000)" fill="#A2ADBF">
            <g id="Group-22" transform="translate(0.000000, 7823.000000)">
                <g id="team" transform="translate(143.000000, 0.000000)">
                    <g id="scott-card" transform="translate(391.000000, 220.000000)">
                        <path d="M85,609 L82,609 L82,603.396 C82,600.028 78,600.283 78,603.396 L78,609 L75,609 L75,598 L78,598 L78,599.765 C79.396,597.179 85,596.988 85,602.241 L85,609 Z M71.5,596.732 C70.534,596.732 69.75,595.942 69.75,594.968 C69.75,593.994 70.534,593.204 71.5,593.204 C72.466,593.204 73.25,593.994 73.25,594.968 C73.25,595.942 72.467,596.732 71.5,596.732 Z M70,609 L73,609 L73,598 L70,598 L70,609 Z M70,590 C67.239,590 65,592.239 65,595 L65,609 C65,611.761 67.239,614 70,614 L84,614 C86.762,614 89,611.761 89,609 L89,595 C89,592.239 86.762,590 84,590 L70,590 Z" id="Page-1"></path>
                    </g>
                </g>
            </g>
        </g>
    </g>
</svg>