<?xml version="1.0" encoding="UTF-8"?>
<svg width="29px" height="28px" viewBox="0 0 29 28" version="1.1" xmlns="http://www.w3.org/2000/svg" xmlns:xlink="http://www.w3.org/1999/xlink">
    <!-- Generator: Sketch 49.3 (51167) - http://www.bohemiancoding.com/sketch -->
    <title>github copy</title>
    <desc>Created with Sketch.</desc>
    <defs></defs>
    <g id="Page-1" stroke="none" stroke-width="1" fill="none" fill-rule="evenodd">
        <g id="menlo-home-copy-40" transform="translate(-1211.000000, -12944.000000)" fill="#2C2C30" fill-rule="nonzero">
            <g id="Group-22" transform="translate(0.000000, 7823.000000)">
                <g id="footer" transform="translate(0.000000, 5032.000000)">
                    <g id="Group-5" transform="translate(393.000000, 81.000000)">
                        <g id="github-copy" transform="translate(818.448276, 8.000000)">
                            <path d="M13.8362069,0.3465 C6.19170259,0.3465 0,6.615 0,14.3465 C0,20.5333333 3.96407328,25.7798333 9.46050647,27.629 C10.1523168,27.7608333 10.4059806,27.328 10.4059806,26.9558333 C10.4059806,26.6233333 10.3944504,25.7425 10.3886853,24.5758333 C6.53991379,25.4205 5.72818966,22.6975 5.72818966,22.6975 C5.09864224,21.0816667 4.18891164,20.65 4.18891164,20.65 C2.9355819,19.782 4.28576509,19.7995 4.28576509,19.7995 C5.67515086,19.8975 6.40501078,21.2415 6.40501078,21.2415 C7.63873922,23.3823333 9.64383621,22.764 10.434806,22.4058333 C10.5593319,21.5005 10.9156142,20.8833333 11.3110991,20.5333333 C8.23830819,20.1833333 5.0087069,18.9793333 5.0087069,13.615 C5.0087069,12.0866667 5.54485991,10.8383333 6.43268319,9.85833333 C6.27702586,9.50483333 5.81005388,8.0815 6.55375,6.153 C6.55375,6.153 7.71253233,5.77733333 10.3587069,7.588 C11.4656034,7.2765 12.641681,7.1225 13.8177586,7.1155 C14.9938362,7.1225 16.1699138,7.2765 17.2768103,7.588 C19.9056897,5.77733333 21.064472,6.153 21.064472,6.153 C21.8081681,8.0815 21.3411961,9.50483333 21.2028341,9.85833333 C22.0848922,10.8383333 22.6210453,12.0866667 22.6210453,13.615 C22.6210453,18.9933333 19.3868319,20.1775 16.3082759,20.5216667 C16.7925431,20.9416667 17.2422198,21.8003333 17.2422198,23.1116667 C17.2422198,24.9853333 17.2249246,26.4903333 17.2249246,26.9453333 C17.2249246,27.3128333 17.4670582,27.7503333 18.1761638,27.6103333 C23.7117996,25.774 27.6724138,20.524 27.6724138,14.3465 C27.6724138,6.615 21.4772522,0.3465 13.8362069,0.3465" id="Shape"></path>
                        </g>
                    </g>
                </g>
            </g>
        </g>
    </g>
</svg>