<?xml version="1.0" encoding="UTF-8"?>
<svg width="31px" height="26px" viewBox="0 0 31 26" version="1.1" xmlns="http://www.w3.org/2000/svg" xmlns:xlink="http://www.w3.org/1999/xlink">
    <!-- Generator: Sketch 49.3 (51167) - http://www.bohemiancoding.com/sketch -->
    <title>telegram copy</title>
    <desc>Created with Sketch.</desc>
    <defs></defs>
    <g id="Page-1" stroke="none" stroke-width="1" fill="none" fill-rule="evenodd">
        <g id="menlo-home-copy-40" transform="translate(-1270.000000, -12945.000000)" fill="#2C2C30" fill-rule="nonzero">
            <g id="Group-22" transform="translate(0.000000, 7823.000000)">
                <g id="footer" transform="translate(0.000000, 5032.000000)">
                    <g id="Group-5" transform="translate(393.000000, 81.000000)">
                        <g id="telegram-copy" transform="translate(877.000000, 9.000000)">
                            <path d="M11.8191259,24 C10.8922544,24 11.0493293,23.6586706 10.729987,22.8047175 L8,14.0888533 L29,2" id="Shape"></path>
                            <path d="M12,24 C12.6821552,24 12.9824518,23.6863442 13.3655462,23.3116999 L17,19.7556899 L12.4634207,17" id="Shape"></path>
                            <path d="M12.1435908,17.1587587 L23.6304848,25.6454425 C24.9419805,26.3690331 25.8891001,25.9956086 26.2147129,24.4282598 L30.8921657,2.39363451 C31.3728322,0.472243098 30.1634134,-0.396065596 28.9100628,0.171177732 L1.44747071,10.7627348 C-0.426094662,11.5147522 -0.417049863,12.5613743 1.1063526,13.0278318 L8.15483476,15.224446 L24.4664826,4.93524642 C25.2352904,4.47008104 25.9433689,4.71946137 25.3632097,5.23501966" id="Shape"></path>
                        </g>
                    </g>
                </g>
            </g>
        </g>
    </g>
</svg>