<?xml version="1.0" encoding="UTF-8"?>
<svg width="29px" height="22px" viewBox="0 0 29 22" version="1.1" xmlns="http://www.w3.org/2000/svg" xmlns:xlink="http://www.w3.org/1999/xlink">
    <!-- Generator: Sketch 49.3 (51167) - http://www.bohemiancoding.com/sketch -->
    <title>twitter copy</title>
    <desc>Created with Sketch.</desc>
    <defs></defs>
    <g id="Page-1" stroke="none" stroke-width="1" fill-rule="evenodd">
        <g id="menlo-home-copy-40" transform="translate(-1086.000000, -12948.000000)" fill-rule="nonzero">
            <g id="Group-22" transform="translate(0.000000, 7823.000000)">
                <g id="footer" transform="translate(0.000000, 5032.000000)">
                    <g id="Group-5" transform="translate(393.000000, 81.000000)">
                        <g id="twitter-copy" transform="translate(693.000000, 11.733333)">
                            <path d="M28.28224,2.87728 C27.2373297,3.31296 26.1215779,3.60976 24.9467917,3.74528 C26.144011,3.06096 27.064949,1.9824 27.5006234,0.69552 C26.3777876,1.31712 25.1333407,1.7696 23.8086069,2.0216 C22.750709,0.94752 21.2429683,0.27552 19.5687503,0.27552 C16.3608166,0.27552 13.7597572,2.74288 13.7597572,5.78256 C13.7597572,6.21936 13.8128883,6.63936 13.9097048,7.04144 C9.08068414,6.82528 4.80068414,4.6256 1.93633103,1.30032 C1.43217655,2.10896 1.14999172,3.04864 1.14999172,4.07232 C1.14999172,5.98752 2.17719172,7.67088 3.73334069,8.65984 C2.78052414,8.63072 1.88438069,8.38208 1.10276414,7.96992 L1.10276414,8.03824 C1.10276414,10.70944 3.10167172,12.93712 5.76176552,13.44448 C5.27414069,13.5688 4.75936,13.636 4.23159172,13.636 C3.86085517,13.636 3.50546759,13.6024 3.15008,13.53968 C3.89509517,15.72704 6.03686621,17.32192 8.58597517,17.36672 C6.60241655,18.844 4.08872828,19.72432 1.3814069,19.72432 C0.920937931,19.72432 0.461649655,19.69856 0,19.64928 C2.58452966,21.21056 5.62952828,22.12336 8.92247172,22.12336 C19.6124359,22.12336 25.4509462,13.72784 25.4509462,6.45904 C25.4509462,6.22496 25.4509462,5.98864 25.4332359,5.75344 C26.5678786,4.98176 27.5584772,4.00624 28.3377324,2.89968 L28.28224,2.87728 Z" id="Shape"></path>
                        </g>
                    </g>
                </g>
            </g>
        </g>
    </g>
</svg>