<?xml version="1.0" encoding="utf-8"?>
<!-- Generator: Adobe Illustrator 22.1.0, SVG Export Plug-In . SVG Version: 6.00 Build 0)  -->
<svg version="1.1" id="Layer_1" xmlns="http://www.w3.org/2000/svg" xmlns:xlink="http://www.w3.org/1999/xlink" x="0px" y="0px"
	 viewBox="0 0 140.5 118.8" style="enable-background:new 0 0 140.5 118.8;" xml:space="preserve">
<path d="M46.8,22.2v91.9c0,1.3-0.3,2.4-1,3.3c-0.7,0.9-1.6,1.4-2.9,1.4c-0.9,0-1.8-0.2-2.6-0.6L3.9,99.9c-1.1-0.5-2-1.4-2.8-2.6
	C0.4,96.1,0,94.9,0,93.7V4.3c0-1,0.3-1.9,0.8-2.7s1.3-1.1,2.3-1.1c0.7,0,1.9,0.4,3.4,1.2l40.1,20.1C46.7,21.9,46.8,22.1,46.8,22.2z
	 M51.8,30.1L93.7,98L51.8,77.1V30.1z M140.5,31.5v82.6c0,1.3-0.4,2.4-1.1,3.2c-0.7,0.8-1.7,1.2-3,1.2s-2.5-0.3-3.7-1l-34.6-17.2
	L140.5,31.5z M140.2,22.1c0,0.2-6.7,11.1-20.1,32.9S98.9,89.5,96.6,93.2L66,43.5L91.4,2.2C92.3,0.7,93.6,0,95.5,0
	c0.7,0,1.4,0.2,2,0.5l42.4,21.2C140.1,21.7,140.2,21.9,140.2,22.1z"/>
</svg>
