<?xml version="1.0" encoding="UTF-8"?>
<svg width="29px" height="28px" viewBox="0 0 29 28" version="1.1" xmlns="http://www.w3.org/2000/svg" xmlns:xlink="http://www.w3.org/1999/xlink">
    <!-- Generator: Sketch 49.3 (51167) - http://www.bohemiancoding.com/sketch -->
    <title>facebook copy</title>
    <desc>Created with Sketch.</desc>
    <defs></defs>
    <g id="Page-1" stroke="none" stroke-width="1" fill="none" fill-rule="evenodd">
        <g id="menlo-home-copy-40" transform="translate(-1148.000000, -12944.000000)" fill="#2C2C30" fill-rule="nonzero">
            <g id="Group-22" transform="translate(0.000000, 7823.000000)">
                <g id="footer" transform="translate(0.000000, 5032.000000)">
                    <g id="Group-5" transform="translate(393.000000, 81.000000)">
                        <g id="facebook-copy" transform="translate(755.724138, 8.000000)">
                            <path d="M26.145819,0 L1.52659483,0 C0.683739224,0 0,0.691833333 0,1.54466667 L0,26.4553333 C0,27.3093333 0.683739224,28 1.52659483,28 L14.779375,28 L14.779375,17.157 L11.1715841,17.157 L11.1715841,12.9325 L14.779375,12.9325 L14.779375,9.81166667 C14.779375,6.19616667 16.9631897,4.22916667 20.1512823,4.22916667 C21.6790302,4.22916667 22.9923168,4.34233333 23.3751185,4.39366667 L23.3751185,8.17366667 L21.1601724,8.17366667 C19.4306466,8.17366667 19.0939655,9.01483333 19.0939655,10.2398333 L19.0939655,12.936 L23.2263793,12.936 L22.6902263,17.171 L19.0939655,17.171 L19.0939655,28 L26.1446659,28 C26.9898276,28 27.6724138,27.3093333 27.6724138,26.4553333 L27.6724138,1.54466667 C27.6724138,0.691833333 26.9898276,0 26.145819,0" id="Shape"></path>
                        </g>
                    </g>
                </g>
            </g>
        </g>
    </g>
</svg>