<?xml version="1.0" encoding="UTF-8"?>
<svg width="187px" height="28px" viewBox="0 0 187 28" version="1.1" xmlns="http://www.w3.org/2000/svg" xmlns:xlink="http://www.w3.org/1999/xlink">
    <!-- Generator: Sketch 50.2 (55047) - http://www.bohemiancoding.com/sketch -->
    <title>invictus-logo</title>
    <desc>Created with Sketch.</desc>
    <defs></defs>
    <g id="Page-1" stroke="none" stroke-width="1" fill="none" fill-rule="evenodd">
        <g id="invictus-logo" fill="#000000" fill-rule="nonzero">
            <polygon id="Shape" points="0 28 0 1 6 1 6 28"></polygon>
            <polygon id="Shape" points="13 3.1659842 13 1 18.5310493 1 19 1.61345958 19 11"></polygon>
            <polygon id="Shape" points="19 11 19 28 13 28 13 18.7704018"></polygon>
            <polygon id="Shape" points="72 28 72 1 78 1 78 28"></polygon>
            <polygon id="Shape" points="57.1146156 28 51.8852334 28 41 1 47.5376337 1 54.5766406 19.8806467 61.6156475 1 68 1"></polygon>
            <path d="M105.832213,24.2767705 C105.07324,24.8552168 104.248943,25.3492745 103.374972,25.7495637 C102.444053,26.173581 101.462953,26.4866336 100.45339,26.681791 C99.2810873,26.9039113 98.0883366,27.0102709 96.893642,26.9992197 C94.9944853,27.0153471 93.1116514,26.6602623 91.3589243,25.9554238 C88.0221485,24.6309571 85.3838463,22.061347 84.0450924,18.8320185 C83.3430258,17.162331 82.9881035,15.3760298 83.0004763,13.5745319 L83.0004763,13.5001528 C82.9701667,9.94864533 84.3874448,6.52751314 86.9475296,3.97245911 C88.2134474,2.72436451 89.7276352,1.73516976 91.3994933,1.06406226 C93.2135804,0.339135443 95.1617708,-0.0225262149 97.1255088,0.00108596981 C98.2876034,-0.00766849355 99.4478311,0.0924131297 100.589836,0.299919939 C101.564223,0.478398197 102.516931,0.753158259 103.432863,1.11984656 C104.26566,1.45790536 105.05734,1.88321333 105.793619,2.38809734 C106.510232,2.88045147 107.183221,3.42924408 107.805663,4.02882907 L104.014505,8.24266622 C103.044973,7.38255081 101.957609,6.65462393 100.782805,6.07923127 C99.6304708,5.5453051 98.3649308,5.27731471 97.0864592,5.29649418 C96.0003003,5.28674668 94.9247569,5.50304798 93.9333141,5.93061957 C92.9836532,6.34046227 92.1335313,6.93731076 91.4376313,7.68277347 C90.732624,8.44129662 90.1811939,9.32028455 89.8118289,10.2743272 C89.4200451,11.2817281 89.2233652,12.3498385 89.2315541,13.4256274 L89.2315541,13.5000064 C89.2245762,14.5817482 89.4211804,15.6557475 89.8118289,16.6699013 C90.1764107,17.6275252 90.7211787,18.5121306 91.4187903,19.2793177 C92.8525376,20.8428258 94.9212,21.7279878 97.0863072,21.7043971 C98.4456165,21.7454743 99.7945294,21.4635845 101.014064,20.883592 C102.174936,20.274687 103.248414,19.5224504 104.207322,18.6459244 L108,22.3377904 C107.328592,23.0353028 106.603975,23.6834381 105.832213,24.2767705 Z" id="Shape"></path>
            <polygon id="Shape" points="125.92055 6.47735878 125.92055 28 120.07945 28 120.07945 6.47735878 112 6.47735878 112 1 134 1 134 6.47735878"></polygon>
            <path d="M160.185866,21.2651715 C159.699954,22.6698564 158.907699,23.947168 157.867262,25.0033346 C156.833351,26.0198236 155.582504,26.7852324 154.210101,27.2411963 C152.665801,27.7524588 151.048047,28.0027413 149.422503,27.9818854 C146.352751,28.1543835 143.341101,27.0894102 141.052938,25.0222579 C139.017646,23.0476829 138,20.1001245 138,16.1795828 L138,1 L143.805245,1 L143.805245,16.0276007 C143.673796,17.7985769 144.212326,19.5541045 145.312841,20.942135 C146.403283,22.0783715 147.93066,22.6811454 149.497697,22.5936736 C151.053895,22.6823927 152.574541,22.1030457 153.682406,20.9993518 C154.781349,19.6623237 155.321885,17.9481348 155.19015,16.2178764 L155.19015,1 L160.996727,1 L160.996727,15.9896052 C161.033569,17.7822333 160.759161,19.5675688 160.185866,21.2651715 Z" id="Shape"></path>
            <path d="M186.281479,22.3311596 C185.820972,23.3204845 185.137161,24.1925307 184.282478,24.8804321 C183.374313,25.5956715 182.334582,26.1306208 181.220614,26.4557839 C179.941271,26.8304863 178.61227,27.0136631 177.277925,26.9992066 C175.24516,26.9981186 173.227939,26.6494329 171.31566,25.9686027 C169.348605,25.2706938 167.541691,24.1935421 166,22.79979 L169.455015,18.7121202 C170.596523,19.6411354 171.853478,20.4224177 173.195389,21.0370155 C174.514502,21.620606 175.946022,21.9149493 177.391382,21.8997783 C178.37874,21.9558196 179.361382,21.7280434 180.220368,21.2440197 C180.861441,20.8595383 181.245227,20.1657443 181.226428,19.4252982 L181.226428,19.3505058 C181.233393,19.0074842 181.161733,18.6673466 181.016807,18.3555313 C180.829725,18.0202149 180.553327,17.7418197 180.217535,17.5504824 C179.701002,17.2426971 179.152295,16.9909456 178.580973,16.7996138 C177.882038,16.5495205 176.974476,16.2868638 175.858288,16.0116434 C174.619583,15.7188733 173.398954,15.3559923 172.202449,14.924798 C171.204797,14.5752421 170.267764,14.0757008 169.424452,13.4438201 C168.666168,12.8618967 168.059251,12.1098816 167.654006,11.250106 C167.203587,10.2216924 166.988799,9.10771388 167.024995,7.98780276 L167.024995,7.91242145 C167.007309,6.79509549 167.238963,5.68762813 167.703504,4.66866913 C168.151422,3.71292312 168.801242,2.86288484 169.609324,2.17563817 C170.468207,1.45290296 171.463265,0.904919591 172.537305,0.563184675 C173.749383,0.176281391 175.017057,-0.0136144044 176.290799,0.000916605176 C178.118463,-0.0185781895 179.935867,0.273029143 181.663262,0.862943195 C183.291347,1.4362687 184.811686,2.27267476 186.162207,3.3380122 L183.124942,7.6873081 C182.029858,6.93900546 180.859396,6.30446366 179.632207,5.79379418 C178.549907,5.34291868 177.388211,5.10717597 176.21357,5.10005049 C175.309675,5.03561146 174.409376,5.26621803 173.651158,5.75639798 C173.114616,6.13052517 172.795807,6.73893137 172.796424,7.38754958 L172.796424,7.46234198 C172.786976,7.84550036 172.871907,8.22519195 173.043913,8.56876893 C173.25596,8.92773227 173.56635,9.2202638 173.939349,9.41268634 C174.500074,9.71602097 175.09408,9.95505369 175.709794,10.1251281 C176.458227,10.3500942 177.403657,10.6125056 178.546085,10.9123623 C179.77158,11.2230945 180.973671,11.6177401 182.143631,12.0934344 C183.109014,12.4792182 184.007898,13.0106638 184.80817,13.6687862 C185.512469,14.2556631 186.072534,14.9928938 186.446074,15.8248097 C186.835393,16.7637818 187.023228,17.7722996 186.997708,18.7866182 L186.997708,18.8614106 C187.020224,20.0559307 186.775672,21.2406531 186.281479,22.3311596 Z" id="Shape"></path>
            <polygon id="Shape" points="31.8840774 28 37 28 37 1 31.0759981 1 31.0759981 17.6251704 18.460991 1 13 1 13 3.15492958"></polygon>
        </g>
    </g>
</svg>