<?xml version="1.0" encoding="UTF-8"?>
<svg width="39px" height="24px" viewBox="0 0 39 24" version="1.1" xmlns="http://www.w3.org/2000/svg" xmlns:xlink="http://www.w3.org/1999/xlink">
    <!-- Generator: Sketch 49.1 (51147) - http://www.bohemiancoding.com/sketch -->
    <title>jav-ico</title>
    <desc>Created with Sketch.</desc>
    <defs></defs>
    <g id="Page-1" stroke="none" stroke-width="1" fill="none" fill-rule="evenodd">
        <g id="menlo-home-copy-30" transform="translate(-140.000000, -890.000000)" fill="#8C74F4" fill-rule="nonzero">
            <g id="3-points" transform="translate(140.000000, 885.000000)">
                <g id="java" transform="translate(0.000000, 4.000000)">
                    <g id="jav-ico" transform="translate(0.000000, 1.000000)">
                        <path d="M16.1677464,24 C16.0516561,24 15.9334703,23.982031 15.8169608,23.9448096 C15.2021431,23.7471509 14.8605776,23.0780207 15.0542012,22.4503902 L21.7191275,0.83414608 C21.9127511,0.206515598 22.5678023,-0.142595835 23.1830392,0.0554906766 C23.7978569,0.253149356 24.1394224,0.922279604 23.9457988,1.54991009 L17.2808725,23.1661542 C17.1237105,23.6744194 16.6639593,24 16.1677464,24 Z" id="Shape"></path>
                        <path d="M27.3204669,20 C26.9100086,20 26.5075897,19.8086623 26.2704261,19.4583671 C25.9010582,18.9129495 26.0712265,18.1888098 26.6505132,17.8410378 L35.4532587,12.5563322 L26.5692254,7.15514196 C25.9921719,6.80442624 25.8264701,6.07944555 26.1989643,5.53613056 C26.5714586,4.99281556 27.3419054,4.83638121 27.9185123,5.18751745 L38.4309797,11.5786175 C38.7869485,11.7951866 39.0013337,12.1669284 38.9999938,12.5655837 C38.9986538,12.9646595 38.7820355,13.3355603 38.4247268,13.5500268 L27.9881875,19.8162317 C27.7809484,19.9402858 27.5491444,20 27.3204669,20 Z" id="Shape"></path>
                        <path d="M11.6795785,20 C11.4504622,20 11.2191128,19.9407056 11.0118808,19.8162294 L0.575253412,13.5499468 C0.217957026,13.3354777 0.00134609239,12.9645723 6.23094336e-06,12.5654916 C-0.0013336305,12.1668313 0.213490822,11.7946644 0.569000726,11.5785132 L11.0815536,5.18733384 C11.6581407,4.83661378 12.428561,4.99262954 12.8010425,5.53595127 C13.173524,6.079273 13.0078278,6.80426268 12.4307941,7.15498274 L3.5470661,12.55624 L12.3495092,17.841011 C12.928776,18.1887874 13.0989384,18.912936 12.7295832,19.4583604 C12.4924277,19.8086599 12.0904693,20 11.6795785,20 Z" id="Shape"></path>
                    </g>
                </g>
            </g>
        </g>
    </g>
</svg>