<?xml version="1.0" encoding="utf-8"?>
<!-- Generator: Adobe Illustrator 16.0.0, SVG Export Plug-In . SVG Version: 6.00 Build 0)  -->
<!DOCTYPE svg PUBLIC "-//W3C//DTD SVG 1.1//EN" "http://www.w3.org/Graphics/SVG/1.1/DTD/svg11.dtd">
<svg version="1.1" id="Layer_1" xmlns="http://www.w3.org/2000/svg" xmlns:xlink="http://www.w3.org/1999/xlink" x="0px" y="0px"
	 width="84.91px" height="84.91px" viewBox="0 0 84.91 84.91" enable-background="new 0 0 84.91 84.91" xml:space="preserve">
<g>
	<path fill="#FFFFFF" d="M50.247,40.342l8.83-8.83v27.531c0,1.35,1.038,2.25,2.251,2.25c1.211,0,2.077-1.039,2.077-2.078v-33.07
		c0-0.901-0.45-1.801-1.351-2.078c-0.762-0.312-1.801,0-2.389,0.587l-12.57,12.571c-0.9,0.762-0.9,2.25,0,3.153
		C47.856,41.243,49.346,41.243,50.247,40.342z"/>
	<path fill="#FFFFFF" d="M50.074,52.602c0.899-0.762,0.899-2.252,0-3.152L25.279,24.655c-0.589-0.761-1.489-0.899-2.39-0.587
		c-0.761,0.451-1.35,1.212-1.35,2.078v32.898c0,1.35,1.039,2.25,2.251,2.25c1.212,0,2.25-1.039,2.25-2.078V31.581L46.957,52.67
		C47.684,53.502,49.173,53.502,50.074,52.602z"/>
	<path fill="#FFFFFF" d="M84.91,42.455C84.91,18.976,65.934,0,42.454,0C18.976,0,0,18.976,0,42.455
		C0,65.936,19.116,84.91,42.454,84.91C65.934,84.875,84.91,65.9,84.91,42.455z M4.641,42.594c0-20.778,16.898-37.815,37.813-37.815
		c20.917,0,37.954,17.038,37.954,37.815c0,20.777-17.176,37.812-37.954,37.812C21.677,80.406,4.641,63.371,4.641,42.594z"/>
</g>
</svg>
