<?xml version="1.0" encoding="UTF-8"?>
<svg width="242px" height="40px" viewBox="0 0 242 40" version="1.1" xmlns="http://www.w3.org/2000/svg" xmlns:xlink="http://www.w3.org/1999/xlink">
    <!-- Generator: Sketch 49.3 (51167) - http://www.bohemiancoding.com/sketch -->
    <title>logo-omegaone</title>
    <desc>Created with Sketch.</desc>
    <defs>
        <linearGradient x1="51.2998768%" y1="48.6626511%" x2="50.3254775%" y2="49.9680404%" id="linearGradient-1">
            <stop stop-color="#00FFFF" stop-opacity="0.75" offset="0%"></stop>
            <stop stop-color="#0080FF" stop-opacity="0.75" offset="100%"></stop>
        </linearGradient>
        <linearGradient x1="66.110964%" y1="48.6626511%" x2="54.0340411%" y2="49.9680404%" id="linearGradient-2">
            <stop stop-color="#00FFFF" stop-opacity="0.75" offset="0%"></stop>
            <stop stop-color="#0080FF" stop-opacity="0.75" offset="100%"></stop>
        </linearGradient>
        <linearGradient x1="48.5929326%" y1="49.7815739%" x2="49.6081623%" y2="49.9447897%" id="linearGradient-3">
            <stop stop-color="#FF00FF" stop-opacity="0.75" offset="0%"></stop>
            <stop stop-color="#8000FF" stop-opacity="0.75" offset="100%"></stop>
        </linearGradient>
        <linearGradient x1="32.7835357%" y1="49.7815739%" x2="45.2055886%" y2="49.9447897%" id="linearGradient-4">
            <stop stop-color="#FF00FF" stop-opacity="0.75" offset="0%"></stop>
            <stop stop-color="#8000FF" stop-opacity="0.75" offset="100%"></stop>
        </linearGradient>
        <linearGradient x1="-0.0162244982%" y1="50.0005745%" x2="36.3686371%" y2="50.0005745%" id="linearGradient-5">
            <stop stop-color="#0080FF" offset="0%"></stop>
            <stop stop-color="#8000FF" offset="100%"></stop>
        </linearGradient>
        <linearGradient x1="51.3752664%" y1="99.7875623%" x2="50.3645782%" y2="63.4345084%" id="linearGradient-6">
            <stop stop-color="#00BFFF" stop-opacity="0.75" offset="0%"></stop>
            <stop stop-color="#346AFF" stop-opacity="0.75" offset="100%"></stop>
        </linearGradient>
        <linearGradient x1="99.5095892%" y1="55.9304151%" x2="63.1248141%" y2="51.6002433%" id="linearGradient-7">
            <stop stop-color="#00BFFF" stop-opacity="0.75" offset="0%"></stop>
            <stop stop-color="#346AFF" stop-opacity="0.75" offset="100%"></stop>
        </linearGradient>
        <linearGradient x1="51.3855884%" y1="-0.0986129102%" x2="50.3749002%" y2="35.8992314%" id="linearGradient-8">
            <stop stop-color="#3A00E8" stop-opacity="0.75" offset="0%"></stop>
            <stop stop-color="#C830FF" stop-opacity="0.75" offset="100%"></stop>
        </linearGradient>
        <linearGradient x1="99.8811839%" y1="43.8800174%" x2="63.4964088%" y2="48.2774681%" id="linearGradient-9">
            <stop stop-color="#3A00E8" stop-opacity="0.75" offset="0%"></stop>
            <stop stop-color="#C830FF" stop-opacity="0.75" offset="100%"></stop>
        </linearGradient>
    </defs>
    <g id="Page-1" stroke="none" stroke-width="1" fill="none" fill-rule="evenodd">
        <g id="menlo-home-copy-40" transform="translate(-251.000000, -11237.000000)" fill-rule="nonzero">
            <g id="Group-22" transform="translate(0.000000, 7823.000000)">
                <g id="Group-14" transform="translate(251.000000, 3332.000000)">
                    <g id="logo-omegaone" transform="translate(0.000000, 82.000000)">
                        <g id="Omega-One-(RGB-Horizontal-White-Text)" transform="translate(20.500000, 20.500000) rotate(0.000000) translate(-20.500000, -20.500000) ">
                            <g id="Group" transform="translate(0.466484, 27.614896)" fill="url(#linearGradient-2)">
                                <polygon id="Shape" points="19.5247977 5.82078703 9.76239884 0.169208925 0 5.82078703 9.76239884 11.4723651"></polygon>
                            </g>
                            <g id="Group" transform="translate(19.592358, 27.614896)" fill="url(#linearGradient-4)">
                                <polygon id="Shape" points="0.271984301 5.82078703 10.0974172 11.4723651 19.9228501 5.82078703 10.0974172 0.169208925"></polygon>
                            </g>
                            <g id="Group" fill="url(#linearGradient-5)">
                                <polygon id="Shape" points="19.9272696 0 0.305009228 11.1524474 10.0991945 16.7286712 19.8933797 11.1524474 29.687565 16.7286712 39.4817501 11.1524474"></polygon>
                            </g>
                            <g id="Group" transform="translate(0.466484, 11.045958)" fill="url(#linearGradient-7)">
                                <polygon id="Shape" points="0 22.4601159 9.76239884 28.0417221 9.76239884 5.71529734 0 0.133691166"></polygon>
                            </g>
                            <g id="Group" transform="translate(29.388536, 11.045958)" fill="url(#linearGradient-9)">
                                <polygon id="Shape" points="0.273671025 28.0417221 10.1600368 22.4601159 10.1600368 0.133691166 0.273671025 5.71529734"></polygon>
                            </g>
                        </g>
                        <path d="M64.0444444,20.5 C64.0444444,23.9970588 66.8555556,26.7705882 70.4,26.7705882 C73.9444444,26.7705882 76.7555556,23.9970588 76.7555556,20.5 C76.7555556,17.0029412 73.9444444,14.2294118 70.4,14.2294118 C66.8555556,14.2294118 64.0444444,17.0029412 64.0444444,20.5 Z M61.3555556,20.5 C61.3555556,15.6764706 65.2666667,11.8176471 70.4,11.8176471 C75.5333333,11.8176471 79.4444444,15.6764706 79.4444444,20.5 C79.4444444,25.3235294 75.5333333,29.1823529 70.4,29.1823529 C65.2666667,29.1823529 61.3555556,25.3235294 61.3555556,20.5 Z M95.3333333,20.2588235 L88.7333333,12.0588235 L86.4111111,12.0588235 L86.4111111,28.9411765 L89.1,28.9411765 L89.1,16.6411765 L95.3333333,24.3588235 L101.566667,16.6411765 L101.566667,28.9411765 L104.255556,28.9411765 L104.255556,12.0588235 L101.933333,12.0588235 L95.3333333,20.2588235 Z M114.888889,26.5294118 L114.888889,21.3441176 L122.344444,21.3441176 L122.344444,18.9323529 L114.888889,18.9323529 L114.888889,14.4705882 L124.3,14.4705882 L124.3,12.0588235 L112.2,12.0588235 L112.2,28.9411765 L124.544444,28.9411765 L124.544444,26.5294118 L114.888889,26.5294118 Z M140.677778,20.0176471 L140.677778,22.4294118 L143.977778,22.4294118 L143.977778,25.0823529 C143.977778,25.0823529 142.511111,26.7705882 139.333333,26.7705882 C135.788889,26.7705882 132.977778,23.9970588 132.977778,20.5 C132.977778,17.0029412 135.788889,14.2294118 139.333333,14.2294118 C142.877778,14.2294118 144.588889,16.7617647 144.588889,16.7617647 L146.3,15.0735294 C146.3,15.0735294 143.977778,11.8176471 139.333333,11.8176471 C134.2,11.8176471 130.288889,15.6764706 130.288889,20.5 C130.288889,25.3235294 134.2,29.1823529 139.333333,29.1823529 C144.222222,29.1823529 146.666667,26.0470588 146.666667,26.0470588 L146.666667,20.0176471 L140.677778,20.0176471 Z M152.166667,28.9411765 L159.255556,12.0588235 L161.944444,12.0588235 L169.033333,28.9411765 L166.222222,28.9411765 L164.388889,24.4794118 L156.811111,24.4794118 L154.977778,28.9411765 L152.166667,28.9411765 Z M160.6,15.0735294 L157.788889,22.0676471 L163.411111,22.0676471 L160.6,15.0735294 Z M184.677778,20.5 C184.677778,23.9970588 187.488889,26.7705882 191.033333,26.7705882 C194.577778,26.7705882 197.388889,23.9970588 197.388889,20.5 C197.388889,17.0029412 194.577778,14.2294118 191.033333,14.2294118 C187.488889,14.2294118 184.677778,17.0029412 184.677778,20.5 Z M181.988889,20.5 C181.988889,15.6764706 185.9,11.8176471 191.033333,11.8176471 C196.166667,11.8176471 200.077778,15.6764706 200.077778,20.5 C200.077778,25.3235294 196.166667,29.1823529 191.033333,29.1823529 C185.9,29.1823529 181.988889,25.3235294 181.988889,20.5 Z M218.9,12.0588235 L218.9,24.2382353 L209.366667,12.0588235 L207.044444,12.0588235 L207.044444,28.9411765 L209.733333,28.9411765 L209.733333,16.7617647 L219.266667,28.9411765 L221.588889,28.9411765 L221.588889,12.0588235 L218.9,12.0588235 Z M232.222222,26.5294118 L232.222222,21.3441176 L239.677778,21.3441176 L239.677778,18.9323529 L232.222222,18.9323529 L232.222222,14.4705882 L241.633333,14.4705882 L241.633333,12.0588235 L229.533333,12.0588235 L229.533333,28.9411765 L241.877778,28.9411765 L241.877778,26.5294118 L232.222222,26.5294118 Z" id="OMEGA-ONE" fill="#1B1B1B"></path>
                    </g>
                </g>
            </g>
        </g>
    </g>
</svg>