<?xml version="1.0" encoding="UTF-8"?>
<svg width="148px" height="148px" viewBox="0 0 148 148" version="1.1" xmlns="http://www.w3.org/2000/svg" xmlns:xlink="http://www.w3.org/1999/xlink">
    <!-- Generator: Sketch 50.2 (55047) - http://www.bohemiancoding.com/sketch -->
    <title>m1</title>
    <desc>Created with Sketch.</desc>
    <defs>
        <linearGradient x1="50%" y1="100%" x2="50%" y2="2.01183165%" id="linearGradient-1">
            <stop stop-color="#E0BC86" offset="0%"></stop>
            <stop stop-color="#BC7BB4" offset="100%"></stop>
        </linearGradient>
    </defs>
    <g id="v2" stroke="none" stroke-width="1" fill="none" fill-rule="evenodd">
        <g id="organize" transform="translate(-525.000000, -3281.000000)" fill="url(#linearGradient-1)">
            <g id="m1" transform="translate(525.000000, 3281.000000)">
                <g id="M1mark-outline">
                    <g id="Group" transform="translate(41.000000, 41.000000)" fill-rule="nonzero">
                        <path d="M43.8327872,26.7790394 L57.2215092,12.5637343 L57.2215092,56.9496971 C57.2215092,59.1321299 58.8048228,60.5772542 60.6381333,60.5772542 C62.4714438,60.5772542 63.8047605,58.8961912 63.8047605,57.2151282 L63.8047605,3.86349577 C63.8047605,2.4183714 63.1103248,0.973247025 61.7492306,0.50136968 C60.6103559,0.0294923341 59.0270423,0.50136968 58.1103871,1.47461671 L39.0272915,21.7358502 C37.6661973,22.9450359 37.6661973,25.3634073 39.0272915,26.8085317 C40.1939436,28.2241637 42.471693,28.2241637 43.8327872,26.7790394 Z" id="Shape"></path>
                        <path d="M43.6105677,46.5683955 C44.9716619,45.3592098 44.9716619,42.9408385 43.6105677,41.4957141 L5.88881551,1.47461671 C4.97216027,0.265431007 3.61106612,0.0294923341 2.24997197,0.50136968 C1.11109727,1.23867803 0.194442022,2.4183714 0.194442022,3.86349577 L0.194442022,56.9202048 C0.194442022,59.1026375 1.77775563,60.5477619 3.61106612,60.5477619 C5.44437661,60.5477619 7.02769021,58.8666989 7.02769021,57.1856358 L7.02769021,12.5637343 L38.805072,46.5683955 C39.9717242,48.0135199 42.2494736,48.0135199 43.6105677,46.5683955 Z" id="Shape"></path>
                    </g>
                    <path d="M148,74 C148,33.0928 114.9072,0 74,0 C33.0928,0 0,33.0928 0,74 C0,114.9072 33.3592,148 74,148 C114.9072,148 148,114.9072 148,74 Z M8.0808,74.2664 C8.0808,38.036 37.5328,8.3472 74,8.3472 C110.4672,8.3472 140.1856,38.0656 140.1856,74.2664 C140.1856,110.4672 110.2304,140.1856 74,140.1856 C37.7696,140.1856 8.0808,110.4672 8.0808,74.2664 Z" id="Shape" fill-rule="nonzero"></path>
                </g>
            </g>
        </g>
    </g>
</svg>