<?xml version="1.0" encoding="UTF-8"?>
<svg width="355px" height="361px" viewBox="0 0 355 361" version="1.1" xmlns="http://www.w3.org/2000/svg" xmlns:xlink="http://www.w3.org/1999/xlink">
    <!-- Generator: Sketch 49.3 (51167) - http://www.bohemiancoding.com/sketch -->
    <title>townhall-light</title>
    <desc>Created with Sketch.</desc>
    <defs>
        <polygon id="path-1" points="0.555547642 0.539590109 116.217306 0.539590109 116.217306 90.9208599 0.555547642 90.9208599"></polygon>
        <polygon id="path-3" points="0.0812350828 0.0239288321 275.951674 0.0239288321 275.951674 171.484567 0.0812350828 171.484567"></polygon>
    </defs>
    <g id="Page-1" stroke="none" stroke-width="1" fill="none" fill-rule="evenodd">
        <g id="menlo-home-copy-40" transform="translate(-313.000000, -3285.000000)">
            <g id="townhall-light" transform="translate(313.000000, 3285.000000)">
                <g opacity="0.812216938">
                    <g id="Group-6">
                        <g id="Page-1">
                            <g id="Group-3" transform="translate(238.270997, 270.052075)">
                                <g id="Fill-1-Clipped" transform="translate(0.000000, -0.000000)">
                                    <mask id="mask-2" fill="white">
                                        <use xlink:href="#path-1"></use>
                                    </mask>
                                    <g id="path-1"></g>
                                    <path d="M96.548105,0.539590109 C58.3313876,17.3607303 28.2507192,44.9117359 0.555547642,72.9779861 C1.86673483,72.494684 3.17234843,71.9961048 4.46820824,71.4836378 L116.217306,90.9212766 C116.217306,90.9212766 90.0952805,52.9042773 96.548105,0.539590109" id="Fill-1" fill="#FFFFFF" fill-rule="nonzero" opacity="0.407325634" mask="url(#mask-2)"></path>
                                </g>
                            </g>
                            <path d="M334.819102,270.591664 C335.660716,263.768492 337.027638,256.71339 339.105194,249.455524 C344.113065,238.296519 347.990891,226.520887 350.602118,214.275842 C335.258023,213.992526 319.939009,213.831427 304.653436,213.831427 C204.500194,213.831427 150.639802,281.239589 97.3688162,334.92086 C121.420253,347.09091 148.569213,353.968246 177.245336,353.968246 C198.905702,353.968246 219.649214,350.100439 238.826545,343.030061 C266.521716,314.96381 296.602386,287.412804 334.819102,270.591664" id="Fill-4" fill="#FFFFFF" fill-rule="nonzero" opacity="0.267153533"></path>
                            <path d="M304.653436,213.831983 C319.939009,213.831983 335.258023,213.991693 350.602118,214.276397 C353.145069,202.354943 354.488304,189.99046 354.488304,177.307942 C354.488304,156.684269 350.939321,136.898041 344.439121,118.507558 C310.907005,116.835443 277.544885,115.985498 244.35694,115.985498 C129.004516,115.985498 90.2875694,227.57693 19.4597735,257.706938 C36.5902042,290.935355 63.9913689,318.033612 97.3688162,334.921414 C150.639802,281.238757 204.500194,213.831983 304.653436,213.831983" id="Fill-6" fill="#FFFFFF" fill-rule="nonzero" opacity="0.393625453"></path>
                            <path d="M244.356382,115.985359 C277.544327,115.985359 310.907841,116.835304 344.439957,118.507419 C331.644386,82.3069695 307.372792,51.5256161 275.951674,30.5116899 C259.339589,30.0978277 242.76791,29.8797862 226.242213,29.8797862 C110.211205,29.8797862 71.7130213,142.77808 0.0812350828,172.109526 C0.0324661652,173.837193 0.000418019293,175.569026 0.000418019293,177.307803 C0.000418019293,206.273996 7.03010916,233.598626 19.4592162,257.706797 C90.2884053,227.57818 129.005352,115.985359 244.356382,115.985359" id="Fill-8" fill="#FFFFFF" fill-rule="nonzero" opacity="0.538666214"></path>
                            <g id="Group-12" opacity="0.750226449" transform="translate(0.000000, 0.624959)">
                                <g id="Fill-10-Clipped" transform="translate(0.000000, -0.000000)">
                                    <mask id="mask-4" fill="white">
                                        <use xlink:href="#path-3"></use>
                                    </mask>
                                    <g id="path-3"></g>
                                    <path d="M226.242213,29.2548263 C242.76791,29.2548263 259.339589,29.472868 275.951674,29.8867302 C247.7507,11.0268322 213.801959,0.0233733129 177.244779,0.0233733129 C81.0097705,0.0233733129 2.83598222,76.2379154 0.0812350828,171.484567 C71.7130213,142.15312 110.211205,29.2548263 226.242213,29.2548263" id="Fill-10" fill="#FFFFFF" fill-rule="nonzero" mask="url(#mask-4)"></path>
                                </g>
                            </g>
                        </g>
                    </g>
                    <g id="Group-7" transform="translate(100.000000, 108.000000)"></g>
                </g>
                <g id="Group-18" transform="translate(100.000000, 108.000000)" fill="#FFFFFF">
                    <g>
                        <path d="M110.221548,63.2346243 L144.261697,29.2663499 L144.261697,135.332023 C144.261697,140.545552 148.288384,144 152.949402,144 C157.610421,144 161,139.9832 161,135.966401 L161,8.47456375 C161,5.02150111 159.235809,1.56843849 155.774052,0.440964373 C152.878612,-0.686509747 148.853314,0.440964373 146.521416,2.76655287 L98.0026841,51.18284 C94.5423153,54.0735509 94.5423153,59.8522018 98.0026841,63.3052646 C100.968913,66.6876869 106.761179,66.6876869 110.221548,63.2346243" id="Fill-4" fill-rule="nonzero"></path>
                        <path d="M108.751791,110.602549 C112.160925,107.713837 112.160925,101.935027 108.751791,98.482697 L14.2628439,2.86852582 C11.968208,-0.0215715822 8.55770632,-0.585189044 5.14857211,0.542045879 C2.29463586,2.30352356 0,5.12299566 0,8.57532571 L0,135.333862 C0,140.54767 3.96569963,144 8.55770632,144 C13.149713,144 17.1154126,139.984052 17.1154126,135.968105 L17.1154126,29.3613161 L96.7138417,110.602549 C99.6375196,114.05488 105.342657,114.05488 108.751791,110.602549" id="Fill-6" fill-rule="nonzero"></path>
                    </g>
                </g>
            </g>
        </g>
    </g>
</svg>