<?xml version="1.0" encoding="UTF-8"?>
<svg width="114px" height="19px" viewBox="0 0 114 19" version="1.1" xmlns="http://www.w3.org/2000/svg" xmlns:xlink="http://www.w3.org/1999/xlink">
    <!-- Generator: Sketch 49.3 (51167) - http://www.bohemiancoding.com/sketch -->
    <title>MenloOne-outline Copy</title>
    <desc>Created with Sketch.</desc>
    <defs></defs>
    <g id="Page-1" stroke="none" stroke-width="1" fill="none" fill-rule="evenodd">
        <g id="menlo-home-copy-40" transform="translate(-53.000000, -35.000000)" fill="#FFFFFF" fill-rule="nonzero">
            <g id="nav" transform="translate(53.000000, 35.000000)">
                <g id="MenloOne-outline-Copy">
                    <g id="Layer_1">
                        <g id="Group">
                            <polygon id="Shape" points="15.9795708 1.93937824 15.9795708 18.6554404 12.6427468 18.6554404 12.6427468 9.87409326 8.54266094 15.0720207 7.45648069 15.0720207 3.35639485 9.87409326 3.35639485 18.6554404 0.00978540773 18.6554404 0.00978540773 1.93937824 1.09596567 1.93937824 7.99467811 10.8487047 14.8933906 1.93937824"></polygon>
                            <path d="M30.0901288,13.634715 L21.4887554,13.634715 C21.7040343,14.4124352 22.1150215,15.0129534 22.7119313,15.4362694 C23.3186266,15.8595855 24.0623176,16.0663212 24.9527897,16.0663212 C26.1563948,16.0663212 27.2915021,15.6528497 28.367897,14.8259067 L29.7574249,17.1098446 C28.3091845,18.3404145 26.6750215,18.9507772 24.864721,18.9507772 C22.9369957,18.9507772 21.3419742,18.3305699 20.0698712,17.1 C18.7977682,15.8595855 18.1617167,14.3336788 18.1617167,12.5124352 C18.1617167,10.7010363 18.7781974,9.17512953 20.0013734,7.93471503 C21.2245494,6.69430052 22.751073,6.07409326 24.5613734,6.07409326 C26.2542489,6.07409326 27.6437768,6.6253886 28.7103863,7.71813472 C29.7769957,8.81088083 30.3151931,10.1694301 30.3151931,11.7937824 C30.3054077,12.384456 30.2369099,13.0046632 30.0901288,13.634715 Z M22.5749356,9.4507772 C22.0465236,9.89378238 21.6844635,10.5041451 21.4887554,11.2621762 L27.0762232,11.2621762 C27.0566524,10.5041451 26.7924464,9.89378238 26.2836052,9.4507772 C25.7747639,8.99792746 25.1582833,8.77150259 24.4341631,8.77150259 C23.7198283,8.78134715 23.0935622,9.00777202 22.5749356,9.4507772 Z" id="Shape"></path>
                            <path d="M42.3708155,7.43264249 C43.1927897,8.32849741 43.6037768,9.52953368 43.6037768,11.0259067 L43.6037768,18.665285 L40.2865236,18.665285 L40.2865236,11.4787565 C40.2865236,10.7699482 40.0712446,10.1891192 39.6504721,9.74611399 C39.2296996,9.30310881 38.6817167,9.0865285 38.0065236,9.0865285 C37.3313305,9.0865285 36.7735622,9.30310881 36.3430043,9.74611399 C35.9026609,10.1891192 35.687382,10.7601036 35.687382,11.4787565 L35.687382,18.665285 L32.3505579,18.665285 L32.3505579,6.35958549 L35.423176,6.35958549 L35.423176,7.47202073 C36.3430043,6.54663212 37.536824,6.08393782 39.0046352,6.08393782 C40.4235193,6.07409326 41.5390558,6.52694301 42.3708155,7.43264249 Z" id="Shape"></path>
                            <polygon id="Shape" points="49.6022318 18.6554404 46.2654077 18.6554404 46.2654077 0 49.6022318 0"></polygon>
                            <path d="M62.88103,7.92487047 C64.1629185,9.16528497 64.8087554,10.6813472 64.8087554,12.4927461 C64.8087554,14.3041451 64.1629185,15.8300518 62.88103,17.0704663 C61.5991416,18.3108808 60.0432618,18.9310881 58.2133906,18.9310881 C56.3835193,18.9310881 54.8374249,18.3108808 53.5751073,17.0803109 C52.3127897,15.8497409 51.6865236,14.3139896 51.6865236,12.4927461 C51.6865236,10.6911917 52.3225751,9.16528497 53.5946781,7.92487047 C54.8667811,6.69430052 56.4128755,6.07409326 58.2427468,6.07409326 C60.0432618,6.07409326 61.5991416,6.69430052 62.88103,7.92487047 Z M55.9627468,10.0906736 C55.3658369,10.7305699 55.0722747,11.5378238 55.0722747,12.5222798 C55.0722747,13.4968912 55.3658369,14.2943005 55.9627468,14.9145078 C56.5498712,15.534715 57.313133,15.8497409 58.2329614,15.8497409 C59.1430043,15.8497409 59.8964807,15.534715 60.4933906,14.9046632 C61.1000858,14.2746114 61.3936481,13.4772021 61.3936481,12.5222798 C61.3936481,11.557513 61.1000858,10.7502591 60.4933906,10.1005181 C59.8866953,9.46062176 59.1332189,9.12590674 58.2329614,9.12590674 C57.313133,9.12590674 56.5498712,9.4507772 55.9627468,10.0906736 Z" id="Shape"></path>
                            <path d="M86.6791416,4.43005181 C88.3133047,6.05440415 89.1254936,8.0626943 89.1254936,10.4450777 C89.1254936,12.8176166 88.3133047,14.8160622 86.6791416,16.4502591 C85.0449785,18.084456 83.0683262,18.9015544 80.7491845,18.9015544 C78.4104721,18.9015544 76.4338197,18.084456 74.8192275,16.4502591 C73.2046352,14.8160622 72.4022318,12.8176166 72.4022318,10.4450777 C72.4022318,8.0626943 73.2046352,6.05440415 74.8192275,4.43005181 C76.4338197,2.80569948 78.4104721,1.9984456 80.7491845,1.9984456 C83.0683262,1.9984456 85.0449785,2.80569948 86.6791416,4.43005181 Z M75.7488412,5.26683938 C74.4180258,6.64507772 73.7428326,8.36787565 73.7428326,10.4253886 C73.7428326,12.4829016 74.4082403,14.2056995 75.7488412,15.5937824 C77.0796567,16.9917098 78.7529614,17.680829 80.7687554,17.680829 C82.7649785,17.680829 84.4284979,16.9818653 85.7593133,15.5937824 C87.0901288,14.1958549 87.7653219,12.473057 87.7653219,10.4253886 C87.7653219,8.38756477 87.0901288,6.66476684 85.7495279,5.27668394 C84.408927,3.87875648 82.7454077,3.18963731 80.7687554,3.18963731 C78.7627468,3.18963731 77.0894421,3.87875648 75.7488412,5.26683938 Z" id="Shape"></path>
                            <path d="M99.4001717,7.68860104 C100.173219,8.55492228 100.564635,9.67720207 100.564635,11.0751295 L100.564635,18.665285 L99.3316738,18.665285 L99.3316738,11.153886 C99.3316738,10.0906736 99.0283262,9.23419689 98.4314163,8.5746114 C97.824721,7.90518135 97.0125322,7.58031088 95.9948498,7.58031088 C94.9575966,7.58031088 94.1062661,7.91502591 93.431073,8.59430052 C92.7656652,9.27357513 92.4329614,10.1300518 92.4329614,11.153886 L92.4329614,18.665285 L91.2,18.665285 L91.2,6.64507772 L92.3840343,6.64507772 L92.3840343,8.25958549 C93.2549356,7.01917098 94.5270386,6.39896373 96.1905579,6.39896373 C97.560515,6.39896373 98.6271245,6.82227979 99.4001717,7.68860104 Z" id="Shape"></path>
                            <path d="M113.814077,12.9357513 L103.852532,12.9357513 C103.92103,14.3435233 104.4103,15.4953368 105.320343,16.3911917 C106.230386,17.2870466 107.375279,17.7398964 108.745236,17.7398964 C110.330472,17.7398964 111.651502,17.1098446 112.727897,15.8497409 L113.520515,16.6766839 C112.248412,18.1632124 110.653391,18.911399 108.725665,18.911399 C106.993648,18.911399 105.535622,18.3108808 104.341803,17.1098446 C103.147983,15.9088083 102.551073,14.4222798 102.551073,12.6699482 C102.551073,10.9373057 103.138197,9.4507772 104.302661,8.23005181 C105.467124,7.00932642 106.895794,6.39896373 108.578884,6.39896373 C110.076052,6.39896373 111.348155,6.89119171 112.375622,7.87564767 C113.40309,8.86010363 113.921717,10.1497409 113.921717,11.7445596 C113.911931,12.2761658 113.882575,12.6699482 113.814077,12.9357513 Z M105.427983,8.74196891 C104.566867,9.5492228 104.058026,10.573057 103.891674,11.8134715 L112.620258,11.8134715 C112.669185,10.5139896 112.287554,9.48031088 111.48515,8.70259067 C110.672961,7.92487047 109.684635,7.53108808 108.520172,7.53108808 C107.316567,7.54093264 106.289099,7.93471503 105.427983,8.74196891 Z" id="Shape"></path>
                        </g>
                    </g>
                </g>
            </g>
        </g>
    </g>
</svg>