<?xml version="1.0" encoding="UTF-8"?>
<svg width="85px" height="85px" viewBox="0 0 85 85" version="1.1" xmlns="http://www.w3.org/2000/svg" xmlns:xlink="http://www.w3.org/1999/xlink">
    <!-- Generator: Sketch 49.3 (51167) - http://www.bohemiancoding.com/sketch -->
    <title>M1mark-outline</title>
    <desc>Created with Sketch.</desc>
    <defs></defs>
    <g id="Page-1" stroke="none" stroke-width="1" fill="none" fill-rule="evenodd">
        <g id="menlo-home-copy-40" transform="translate(-678.000000, -98.000000)" fill="#FFFFFF" fill-rule="nonzero">
            <g id="M1mark-outline" transform="translate(678.000000, 98.000000)">
                <g id="Group" transform="translate(24.000000, 24.000000)">
                    <path d="M25.3408301,15.3650226 L33.081185,7.20870002 L33.081185,32.6760557 C33.081185,33.9282712 33.9965382,34.757441 35.0564208,34.757441 C36.1163035,34.757441 36.8871272,33.7928966 36.8871272,32.8283522 L36.8871272,2.21675987 C36.8871272,1.38759015 36.4856565,0.558420424 35.6987739,0.287671128 C35.040362,0.016921831 34.1250088,0.287671128 33.5950675,0.846091552 L22.5626529,12.4713895 C21.7757703,13.1651846 21.7757703,14.5527747 22.5626529,15.3819444 C23.2371237,16.1941923 24.5539475,16.1941923 25.3408301,15.3650226 Z" id="Shape"></path>
                    <path d="M25.2123595,26.7195712 C25.999242,26.0257761 25.999242,24.638186 25.2123595,23.8090163 L3.40447147,0.846091552 C2.87453016,0.152296479 2.0876476,0.016921831 1.30076504,0.287671128 C0.642353107,0.710716904 0.112411794,1.38759015 0.112411794,2.21675987 L0.112411794,32.6591339 C0.112411794,33.9113494 1.02776497,34.7405191 2.0876476,34.7405191 C3.14753023,34.7405191 4.0628834,33.7759748 4.0628834,32.8114304 L4.0628834,7.20870002 L22.4341823,26.7195712 C23.108653,27.5487409 24.4254769,27.5487409 25.2123595,26.7195712 Z" id="Shape"></path>
                </g>
                <path d="M85,42.5 C85,19.006 65.994,0 42.5,0 C19.006,0 0,19.006 0,42.5 C0,65.994 19.159,85 42.5,85 C65.994,85 85,65.994 85,42.5 Z M4.641,42.653 C4.641,21.845 21.556,4.794 42.5,4.794 C63.444,4.794 80.512,21.862 80.512,42.653 C80.512,63.444 63.308,80.512 42.5,80.512 C21.692,80.512 4.641,63.444 4.641,42.653 Z" id="Shape"></path>
            </g>
        </g>
    </g>
</svg>