<?xml version="1.0" encoding="UTF-8"?>
<svg width="710px" height="138px" viewBox="0 0 710 138" version="1.1" xmlns="http://www.w3.org/2000/svg" xmlns:xlink="http://www.w3.org/1999/xlink">
    <!-- Generator: Sketch 50.2 (55047) - http://www.bohemiancoding.com/sketch -->
    <title>Group 3</title>
    <desc>Created with Sketch.</desc>
    <defs></defs>
    <g id="v2" stroke="none" stroke-width="1" fill="none" fill-rule="evenodd">
        <g id="organize" transform="translate(-365.000000, -6230.000000)">
            <g id="menlo-expo" transform="translate(141.000000, 6230.000000)">
                <g id="Group-3" transform="translate(224.000000, 0.000000)">
                    <path d="M89.096,11.544 L95.608,11.544 L95.608,111 L75.628,111 L75.628,58.756 L51.06,89.688 L44.548,89.688 L19.98,58.756 L19.98,111 L0,111 L0,11.544 L6.512,11.544 L47.804,64.528 L89.096,11.544 Z M178.704,70.152 C178.704,73.704 178.26,77.3546674 177.372,81.104 L125.868,81.104 C127.150667,85.7413326 129.592667,89.318 133.194,91.834 C136.795333,94.35 141.26,95.608 146.588,95.608 C153.790667,95.608 160.598667,93.1413326 167.012,88.208 L175.3,101.824 C166.617333,109.125333 156.849333,112.776 145.996,112.776 C134.452,112.776 124.881333,109.100667 117.284,101.75 C109.686667,94.3993326 105.888,85.2973326 105.888,74.444 C105.888,63.6893326 109.563333,54.612 116.914,47.212 C124.264667,39.812 133.366667,36.112 144.22,36.112 C154.382667,36.112 162.670667,39.368 169.084,45.88 C175.497333,52.392 178.704,60.4826674 178.704,70.152 Z M143.48,52.244 C139.237333,52.244 135.537333,53.576 132.38,56.24 C129.222667,58.904 127.052,62.5053326 125.868,67.044 L159.316,67.044 C159.217333,62.5053326 157.638667,58.904 154.58,56.24 C151.521333,53.576 147.821333,52.244 143.48,52.244 Z M228.056,36.112 C236.541333,36.112 243.250667,38.8006674 248.184,44.178 C253.117333,49.5553326 255.584,56.684 255.584,65.564 L255.584,111 L235.752,111 L235.752,68.228 C235.752,63.9853326 234.494,60.5566674 231.978,57.942 C229.462,55.3273326 226.181333,54.02 222.136,54.02 C218.090667,54.02 214.760667,55.3273326 212.146,57.942 C209.531333,60.5566674 208.224,63.9853326 208.224,68.228 L208.224,111 L188.244,111 L188.244,37.74 L206.596,37.74 L206.596,44.4 C212.121333,38.8746674 219.274667,36.112 228.056,36.112 Z M288.804,0 L288.804,111 L268.824,111 L268.824,0 L288.804,0 Z M337.712,36.112 C348.565333,36.112 357.84,39.7873326 365.536,47.138 C373.232,54.4886674 377.08,63.5413326 377.08,74.296 C377.08,85.0506674 373.232,94.128 365.536,101.528 C357.84,108.928 348.516,112.628 337.564,112.628 C326.612,112.628 317.362,108.952667 309.814,101.602 C302.266,94.2513326 298.492,85.1493326 298.492,74.296 C298.492,63.5413326 302.290667,54.4886674 309.888,47.138 C317.485333,39.7873326 326.76,36.112 337.712,36.112 Z M337.712,54.316 C332.186667,54.316 327.648,56.2153326 324.096,60.014 C320.544,63.8126674 318.768,68.6226674 318.768,74.444 C318.768,80.2653326 320.544,85.026 324.096,88.726 C327.648,92.426 332.186667,94.276 337.712,94.276 C343.138667,94.276 347.652667,92.4013326 351.254,88.652 C354.855333,84.9026674 356.656,80.1666674 356.656,74.444 C356.656,68.7213326 354.855333,63.936 351.254,60.088 C347.652667,56.24 343.138667,54.316 337.712,54.316 Z" id="Menlo" fill="#30334A"></path>
                    <path d="M472.962,13.32 L472.962,20.276 L419.534,20.276 L419.534,54.76 L461.122,54.76 L461.122,61.716 L419.534,61.716 L419.534,104.044 L474.738,104.044 L474.738,111 L411.838,111 L411.838,13.32 L472.962,13.32 Z M541.85,111 L532.97,111 L510.03,79.328 L487.386,111 L478.506,111 L505.738,73.556 L480.726,39.516 L489.606,39.516 L510.178,68.08 L530.75,39.516 L539.63,39.516 L514.47,73.556 L541.85,111 Z M589.722,38.036 C599.786,38.036 608.222,41.6126674 615.03,48.766 C621.838,55.9193326 625.242,64.7253326 625.242,75.184 C625.242,85.6426674 621.838,94.4733326 615.03,101.676 C608.222,108.878667 599.786,112.48 589.722,112.48 C583.703333,112.48 578.079333,111.123333 572.85,108.41 C567.620667,105.696667 563.624667,101.972 560.862,97.236 L560.862,137.64 L553.462,137.64 L553.462,39.516 L560.566,39.516 L560.566,53.872 C563.23,49.0373326 567.201333,45.1893326 572.48,42.328 C577.758667,39.4666674 583.506,38.036 589.722,38.036 Z M588.982,105.524 C597.27,105.524 604.102667,102.638 609.48,96.866 C614.857333,91.094 617.546,83.916 617.546,75.332 C617.546,66.6493326 614.857333,59.422 609.48,53.65 C604.102667,47.878 597.27,44.992 588.982,44.992 C581.187333,44.992 574.552,47.5573326 569.076,52.688 C563.6,57.8186674 560.862,65.3173326 560.862,75.184 C560.862,85.1493326 563.6,92.6973326 569.076,97.828 C574.552,102.958667 581.187333,105.524 588.982,105.524 Z M672.818,38.036 C683.079333,38.036 691.811333,41.6126674 699.014,48.766 C706.216667,55.9193326 709.818,64.7253326 709.818,75.184 C709.818,85.6426674 706.216667,94.4733326 699.014,101.676 C691.811333,108.878667 683.03,112.48 672.67,112.48 C662.408667,112.48 653.701333,108.878667 646.548,101.676 C639.394667,94.4733326 635.818,85.6426674 635.818,75.184 C635.818,64.7253326 639.394667,55.9193326 646.548,48.766 C653.701333,41.6126674 662.458,38.036 672.818,38.036 Z M672.818,44.992 C664.431333,44.992 657.450667,47.9026674 651.876,53.724 C646.301333,59.5453326 643.514,66.748 643.514,75.332 C643.514,83.916 646.301333,91.094 651.876,96.866 C657.450667,102.638 664.382,105.524 672.67,105.524 C680.958,105.524 687.938667,102.613333 693.612,96.792 C699.285333,90.9706674 702.122,83.8173326 702.122,75.332 C702.122,66.748 699.31,59.5453326 693.686,53.724 C688.062,47.9026674 681.106,44.992 672.818,44.992 Z" id="Expo" fill="#BC7BB4"></path>
                </g>
            </g>
        </g>
    </g>
</svg>