<?xml version="1.0" encoding="UTF-8"?>
<svg width="92px" height="92px" viewBox="0 0 92 92" version="1.1" xmlns="http://www.w3.org/2000/svg" xmlns:xlink="http://www.w3.org/1999/xlink">
    <!-- Generator: Sketch 49.3 (51167) - http://www.bohemiancoding.com/sketch -->
    <title>M1mark-fill</title>
    <desc>Created with Sketch.</desc>
    <defs></defs>
    <g id="Page-1" stroke="none" stroke-width="1" fill="none" fill-rule="evenodd">
        <g id="menlo-home-copy-40" transform="translate(-138.000000, -12932.000000)" fill-rule="nonzero">
            <g id="Group-22" transform="translate(0.000000, 7823.000000)">
                <g id="footer" transform="translate(0.000000, 5032.000000)">
                    <g id="M1mark-fill" transform="translate(138.000000, 77.000000)">
                        <path d="M92,46 C92,20.5712 71.4288,0 46,0 C20.5712,0 0,20.5712 0,46 C0,71.4288 20.7368,92 46,92 C71.4288,92 92,71.4288 92,46 Z" id="Shape" fill="#1C69EE"></path>
                        <g id="Group" transform="translate(25.000000, 27.000000)" fill="#FFFFFF">
                            <path d="M29.6032761,16.247846 L38.5841119,7.5196277 L38.5841119,34.7726746 C38.5841119,36.1126915 39.6461609,37 40.8759019,37 C42.1056429,37 43,35.9678248 43,34.9356496 L43,2.17766834 C43,1.29035984 42.534189,0.403051336 41.6211995,0.113317948 C40.8572695,-0.176415441 39.7952204,0.113317948 39.1803499,0.710893062 L26.3798641,13.1513204 C25.4668746,13.8937622 25.4668746,15.3786459 26.3798641,16.2659544 C27.1624266,17.1351545 28.6902866,17.1351545 29.6032761,16.247846 Z" id="Shape"></path>
                            <path d="M29.2035951,28.4184826 C30.1191268,27.6761994 30.1191268,26.1916331 29.2035951,25.3045142 L3.83028598,0.736752273 C3.21370336,-0.00553088092 2.29817159,-0.150366618 1.38263982,0.139304856 C0.616582622,0.591916535 0,1.31609522 0,2.20321411 L0,34.7731505 C0,36.1128811 1.06500635,37 2.29817159,37 C3.53133683,37 4.59634318,35.9680454 4.59634318,34.9360907 L4.59634318,7.54403193 L25.9712074,28.4184826 C26.7559489,29.3056015 28.2880633,29.3056015 29.2035951,28.4184826 Z" id="Shape"></path>
                        </g>
                    </g>
                </g>
            </g>
        </g>
    </g>
</svg>