<?xml version="1.0" encoding="utf-8"?>
<!-- Generator: Adobe Illustrator 22.1.0, SVG Export Plug-In . SVG Version: 6.00 Build 0)  -->
<svg version="1.1" id="Layer_1" xmlns="http://www.w3.org/2000/svg" xmlns:xlink="http://www.w3.org/1999/xlink" x="0px" y="0px"
	 viewBox="0 0 90 99" style="enable-background:new 0 0 90 99;" xml:space="preserve">
<style type="text/css">
	.st0{fill:url(#Shape_1_);}
</style>
<g id="v2">
	<g id="organize-copy" transform="translate(-262.000000, -4353.000000)">
		<g id="use-cases" transform="translate(103.000000, 4044.000000)">
			<g id="music-ico" transform="translate(159.000000, 309.000000)">
				
					<linearGradient id="Shape_1_" gradientUnits="userSpaceOnUse" x1="-256.6111" y1="442.4748" x2="-256.6111" y2="441.4748" gradientTransform="matrix(90 0 0 -99 23140 43808)">
					<stop  offset="0" style="stop-color:#A870D1"/>
					<stop  offset="1" style="stop-color:#E99292"/>
				</linearGradient>
				<path id="Shape" class="st0" d="M26.3,20.8V34v10.1v29.4c-3.9-3.2-9.1-4.6-14.3-3.2C3.4,72.6-1.7,81.4,0.5,90
					c2.3,8.6,11,13.7,19.6,11.5c7.4-2,12.2-8.8,11.9-16.1l0,0V42.5l52.1-14.6v27.9c-3.9-3.2-9.1-4.6-14.3-3.2
					c-8.6,2.3-13.7,11.1-11.4,19.7c2.3,8.6,11,13.7,19.6,11.5C85.2,81.9,90,75.4,90,68.3l0,0v-42V12.5V3L26.3,20.8z"/>
			</g>
		</g>
	</g>
</g>
</svg>
