<?xml version="1.0" encoding="UTF-8"?>
<svg width="231px" height="205px" viewBox="0 0 231 205" version="1.1" xmlns="http://www.w3.org/2000/svg" xmlns:xlink="http://www.w3.org/1999/xlink">
    <!-- Generator: Sketch 51.1 (57501) - http://www.bohemiancoding.com/sketch -->
    <title>Group 2</title>
    <desc>Created with Sketch.</desc>
    <defs>
        <linearGradient x1="14.9472464%" y1="28.161673%" x2="85.053111%" y2="71.8731297%" id="linearGradient-1">
            <stop stop-color="#9DCFF2" stop-opacity="0" offset="0%"></stop>
            <stop stop-color="#9DCFF2" offset="50%"></stop>
            <stop stop-color="#9DCFF2" stop-opacity="0" offset="100%"></stop>
        </linearGradient>
        <linearGradient x1="43.1700378%" y1="63.9402254%" x2="56.8243839%" y2="36.0690283%" id="linearGradient-2">
            <stop stop-color="#9DCFF2" stop-opacity="0" offset="9%"></stop>
            <stop stop-color="#9DCFF2" offset="50%"></stop>
            <stop stop-color="#9DCFF2" stop-opacity="0" offset="100%"></stop>
        </linearGradient>
        <linearGradient x1="-3.34175606%" y1="16.7135314%" x2="103.349284%" y2="83.2612669%" id="linearGradient-3">
            <stop stop-color="#9DCFF2" stop-opacity="0" offset="0%"></stop>
            <stop stop-color="#9DCFF2" offset="50%"></stop>
            <stop stop-color="#9DCFF2" stop-opacity="0" offset="100%"></stop>
        </linearGradient>
        <linearGradient x1="0.006114674%" y1="50.008631%" x2="100.006378%" y2="50.008631%" id="linearGradient-4">
            <stop stop-color="#9DCFF2" stop-opacity="0" offset="0%"></stop>
            <stop stop-color="#9DCFF2" offset="50%"></stop>
            <stop stop-color="#9DCFF2" stop-opacity="0" offset="89%"></stop>
        </linearGradient>
        <linearGradient x1="-0.0313530155%" y1="50.0010037%" x2="99.9654326%" y2="50.0010037%" id="linearGradient-5">
            <stop stop-color="#9DCFF2" stop-opacity="0" offset="0%"></stop>
            <stop stop-color="#9DCFF2" offset="50%"></stop>
        </linearGradient>
        <linearGradient x1="50.1628664%" y1="100%" x2="50.1628664%" y2="-6.86017606e-14%" id="linearGradient-6">
            <stop stop-color="#9DCFF2" stop-opacity="0" offset="9%"></stop>
            <stop stop-color="#9DCFF2" offset="50%"></stop>
            <stop stop-color="#9DCFF2" stop-opacity="0" offset="100%"></stop>
        </linearGradient>
        <linearGradient x1="0%" y1="50%" x2="99.9926025%" y2="50%" id="linearGradient-7">
            <stop stop-color="#9DCFF2" stop-opacity="0" offset="9%"></stop>
            <stop stop-color="#9DCFF2" offset="50%"></stop>
            <stop stop-color="#9DCFF2" stop-opacity="0" offset="100%"></stop>
        </linearGradient>
        <linearGradient x1="0%" y1="50.1557632%" x2="100%" y2="50.1557632%" id="linearGradient-8">
            <stop stop-color="#9DCFF2" stop-opacity="0" offset="9%"></stop>
            <stop stop-color="#9DCFF2" offset="50%"></stop>
            <stop stop-color="#9DCFF2" stop-opacity="0" offset="100%"></stop>
        </linearGradient>
    </defs>
    <g id="Page-1" stroke="none" stroke-width="1" fill="none" fill-rule="evenodd">
        <g id="Static" transform="translate(-631.000000, -499.000000)" fill-rule="nonzero">
            <g id="Group-2" transform="translate(631.000000, 499.000000)">
                <g id="Group-36" transform="translate(133.000000, 0.000000)">
                    <g id="Group-11-Copy">
                        <path d="M93.242053,52.7560185 C95.262351,53.9324074 96.8907947,56.7842593 96.8843709,59.1240741 L96.7655298,102.15787 C96.7655298,104.497685 95.1178146,105.440741 93.0975166,104.264352 L3.6455298,52.1564815 C1.62523179,50.9800926 0,48.1314815 0,45.7916667 L0.12205298,2.75787037 C0.12205298,0.414814815 1.76976821,-0.528240741 3.79006623,0.648148148 L93.242053,52.7560185 Z" id="Shape" fill="#F0F0F5"></path>
                        <path d="M43.1168212,34.3194444 C43.3286608,34.7110137 43.4391358,35.1501908 43.4380132,35.5962963 C43.4709119,36.0342337 43.3152541,36.4652478 43.0108278,36.7791667 C42.7249669,37.0384259 42.2785099,37.1194444 41.668245,37.025463 L41.668245,36.7273148 C41.9651623,36.798397 42.2776183,36.7144089 42.5001325,36.5037037 C42.7076253,36.2809165 42.8165854,35.982681 42.802053,35.6773148 C42.8042135,35.6133841 42.7944064,35.5496156 42.7731457,35.4893519 C42.7670136,35.4636122 42.7496617,35.4420575 42.72595,35.4307248 C42.7022383,35.4193922 42.6747164,35.4195001 42.6510927,35.4310185 C42.5063609,35.4517966 42.3592387,35.4158458 42.2399669,35.3305556 C42.0196334,35.188313 41.8410751,34.9891293 41.7228477,34.7537037 C41.5850401,34.5153157 41.5098607,34.245365 41.5044371,33.9694444 C41.4802661,33.7507121 41.5794827,33.5367338 41.7613907,33.4152778 C41.9667683,33.3205488 42.2070367,33.3466561 42.3877152,33.4833333 C42.7025147,33.6888693 42.9548494,33.9782373 43.1168212,34.3194444 Z" id="Shape" fill="#5D6285"></path>
                        <path d="M39.9241722,32.0541667 C40.2430366,32.2567773 40.4981537,32.5467809 40.659702,32.8902778 C40.8734019,33.2799353 40.9840198,33.7185644 40.980894,34.1638889 C41.0159398,34.602122 40.8599672,35.0340077 40.5537086,35.3467593 C40.2710596,35.6060185 39.8246026,35.6902778 39.2111258,35.5962963 L39.2111258,35.2981481 C39.5070117,35.3668887 39.8174254,35.2831262 40.0398013,35.074537 C40.2535482,34.8531288 40.3694047,34.5538749 40.3609934,34.2449074 C40.3636468,34.1817147 40.3526886,34.1186928 40.3288742,34.0601852 C40.3235182,34.0357657 40.3084103,34.0146594 40.2871192,34.0018519 C40.2613245,33.9915628 40.2326159,33.9915628 40.2068212,34.0018519 C40.0626345,34.0225567 39.9161548,33.9853173 39.7989073,33.8981481 C39.5769927,33.7577994 39.3979898,33.5581197 39.2817881,33.3212963 C39.1433807,33.084169 39.0671094,32.8153818 39.0601656,32.5402778 C39.0359946,32.3215455 39.1352112,32.1075671 39.3171192,31.9861111 C39.5168691,31.8969531 39.7486914,31.9229422 39.9241722,32.0541667 Z" id="Shape" fill="#5D6285"></path>
                        <path d="M27.5357947,14.4796296 L27.5357947,66.0722222 L3.6455298,52.1564815 C1.62523179,50.9800926 0,48.1282407 0,45.7884259 L0.12205298,2.75462963 C0.12205298,0.414814815 1.76976821,-0.528240741 3.79006623,0.648148148 L27.5357947,14.4796296 Z" id="Shape" fill="#6B67F5"></path>
                        <path d="M11.6303642,26.4638889 L13.9943377,39.0606481 L12.4140728,38.1402778 L11.9001656,35.4342593 L8.19039735,33.2726852 L7.66364238,35.3726852 L6.10264901,34.462037 L8.51801325,24.6490741 L11.6303642,26.4638889 Z M8.50516556,31.85 L11.5950331,33.6486111 L10.425894,27.287037 L9.71927152,26.875463 L8.50516556,31.85 Z" id="Shape" fill="#FFFFFF"></path>
                        <polygon id="Shape" fill="#FFFFFF" points="18.9085762 34.0796296 18.9021523 37.0027778 21.4395695 38.4805556 21.4331457 40.0847222 18.8957285 38.6069444 18.8893046 41.5657407 17.5081788 40.762037 17.5146026 37.8 15.0060927 36.3384259 15.0093046 34.7375 17.5210265 36.1990741 17.5274503 33.2759259"></polygon>
                        <polygon id="Shape" fill="#5D6285" points="41.7260596 42.4310185 41.7260596 43.0986111 40.6083113 42.4472222 40.5954636 46.387963 39.9466556 46.0087963 39.9562914 42.0680556 38.8256954 41.4101852 38.8256954 40.7425926"></polygon>
                        <path d="M42.8181126,42.9138889 L42.8181126,44.4888889 C43.0953474,44.4948326 43.3672337,44.5670237 43.611457,44.699537 C44.417649,45.1694444 44.6135762,45.8175926 44.6103642,46.9162037 L44.6103642,48.7212963 L43.9679801,48.3518519 L43.9679801,46.5694444 C43.9679801,45.8986111 43.9005298,45.5291667 43.4540728,45.2731481 C43.2556094,45.157641 43.0379118,45.079665 42.8116887,45.0430556 L42.8116887,47.6777778 L42.1693046,47.3083333 L42.1853642,42.5476852 L42.8181126,42.9138889 Z" id="Shape" fill="#5D6285"></path>
                        <polygon id="Shape" fill="#5D6285" points="45.349106 44.4435185 45.9818543 44.8097222 45.9786424 45.5842593 45.349106 45.2148148"></polygon>
                        <polygon id="Shape" fill="#5D6285" points="45.3362583 49.1490741 45.345894 45.7884259 45.9786424 46.1546296 45.9690066 49.5152778"></polygon>
                        <path d="M47.6777483,47.0782407 C48.0555367,47.3168478 48.4191097,47.5776363 48.7665894,47.8592593 L48.7665894,48.4685185 C48.7344702,48.4425926 48.0824503,47.9597222 47.7355629,47.7555556 C47.3886755,47.5513889 47.2312914,47.5578704 47.2280795,47.8333333 C47.2280795,48.0537037 47.3501325,48.1865741 47.9186424,48.6337963 C48.6124172,49.1782407 48.862947,49.525 48.862947,50.1990741 C48.862947,50.9865741 48.4293377,51.0157407 47.7098675,50.5976852 C47.3392355,50.3595664 46.981156,50.1021184 46.6370861,49.8263889 L46.6627815,49.2268519 C46.6981126,49.2527778 47.3565563,49.7388889 47.6552649,49.9138889 C48.0696026,50.1537037 48.2334106,50.150463 48.2334106,49.8523148 C48.2334106,49.6157407 48.137053,49.4861111 47.5621192,49.0453704 C46.9197351,48.5527778 46.598543,48.199537 46.598543,47.4865741 C46.598543,46.7736111 47.1028146,46.7444444 47.6777483,47.0782407 Z" id="Shape" fill="#5D6285"></path>
                        <polygon id="Shape" fill="#5D6285" points="50.7419205 47.5837963 51.3746689 47.9532407 51.371457 48.724537 50.7387086 48.3550926"></polygon>
                        <polygon id="Shape" fill="#5D6285" points="50.7290728 52.2893519 50.7387086 48.9287037 51.371457 49.2981481 51.3618212 52.6587963"></polygon>
                        <path d="M53.0705629,50.2314815 C53.4488505,50.4705105 53.8124616,50.7324085 54.159404,51.0157407 L54.159404,51.6217593 C54.1240728,51.5958333 53.4752649,51.112963 53.1283775,50.912037 C52.7814901,50.7111111 52.624106,50.7111111 52.620894,50.9865741 C52.620894,51.2101852 52.742947,51.3398148 53.311457,51.787037 C54.0052318,52.3314815 54.2557616,52.6782407 54.2525497,53.3523148 C54.2525497,54.1398148 53.8221523,54.1689815 53.1026821,53.7509259 C52.7309298,53.5144884 52.3727613,53.2569765 52.0299007,52.9796296 L52.0523841,52.3800926 C52.0877152,52.4060185 52.7493709,52.8953704 53.0448675,53.0671296 C53.4624172,53.3069444 53.6262252,53.3037037 53.6262252,53.0055556 C53.6262252,52.7722222 53.5298675,52.6393519 52.9549338,52.1986111 C52.3125497,51.7060185 51.9913576,51.3560185 51.9913576,50.6398148 C51.9913576,49.9236111 52.4956291,49.8847222 53.0705629,50.2314815 Z" id="Shape" fill="#5D6285"></path>
                        <path d="M58.2706623,55.8898148 C58.2716035,56.0752368 58.3660107,56.2474272 58.5211921,56.3467593 L58.5211921,56.8912037 C58.2086888,56.731821 57.9429399,56.4927354 57.7503311,56.1976852 C57.4208331,56.1688742 57.1016925,56.0670722 56.8156623,55.899537 C56.2540595,55.5852003 55.9197651,54.9747989 55.9548675,54.3277778 C55.9548675,53.6148148 56.2921192,53.5694444 56.9184437,53.8708333 L57.6636093,54.2337963 L57.6636093,53.9907407 C57.6905743,53.681482 57.5222195,53.3884319 57.2428477,53.2583333 C56.8574172,53.0314815 56.1893377,52.7074074 56.1540066,52.6912037 L56.1122517,52.1759259 C56.5178971,52.3041443 56.9096132,52.473529 57.2813907,52.6814815 C57.9208991,52.9892082 58.3129228,53.6561241 58.2738742,54.3699074 L58.2706623,55.8898148 Z M57.6282781,55.6435185 L57.6282781,54.7490741 L56.9537748,54.425 C56.6871854,54.2953704 56.5554967,54.3666667 56.5522848,54.6680556 C56.531766,54.9495477 56.667891,55.2192462 56.905596,55.3680556 C57.1309847,55.4929705 57.3734246,55.5836092 57.6250662,55.637037 L57.6282781,55.6435185 Z" id="Shape" fill="#5D6285"></path>
                        <path d="M60.4965232,54.5384259 C61.3027152,55.0083333 61.4986424,55.6564815 61.4954305,56.7550926 L61.4954305,58.5569444 L60.869106,58.1939815 L60.869106,56.4115741 C60.869106,55.7407407 60.7984437,55.3680556 60.3551987,55.1152778 C60.1590036,54.9983093 59.9396775,54.9263888 59.7128146,54.9046296 L59.7128146,57.4972222 L59.0704305,57.1310185 L59.0704305,53.7671296 L59.7128146,54.1333333 L59.7128146,54.3407407 C59.9870526,54.3330829 60.2581201,54.4014578 60.4965232,54.5384259 Z" id="Shape" fill="#5D6285"></path>
                        <polygon id="Shape" fill="#5D6285" points="63.5157285 55.024537 64.1484768 55.3939815 64.1452649 56.1652778 63.5125166 55.7990741"></polygon>
                        <polygon id="Shape" fill="#5D6285" points="63.5028808 59.7300926 63.5125166 56.3694444 64.142053 56.7356481 64.1356291 60.099537"></polygon>
                        <path d="M66.3357947,57.9412037 C67.1419868,58.4078704 67.3379139,59.0560185 67.334702,60.1578704 L67.334702,61.9597222 L66.6923179,61.5935185 L66.6923179,59.8143519 C66.6923179,59.1402778 66.6216556,58.7675926 66.1816225,58.5180556 C65.9854228,58.4016318 65.7659778,58.3307793 65.5392384,58.3106481 L65.5392384,60.9032407 L64.8968543,60.5337963 L64.8968543,57.1731481 L65.5199669,57.5361111 L65.5199669,57.7467593 C65.8048774,57.7299916 66.0884361,57.797575 66.3357947,57.9412037 Z" id="Shape" fill="#5D6285"></path>
                        <path d="M69.1590728,59.5842593 C69.4606902,59.7841655 69.751266,60.0005369 70.0295033,60.2324074 L70.0038079,60.7962963 C69.9781126,60.7800926 69.5445033,60.4722222 69.3228808,60.3490741 C68.7222517,59.9958333 68.5809272,60.1967593 68.5777152,60.9712963 C68.5777152,61.8300926 68.6997682,62.1930556 69.3228808,62.5560185 C69.5445033,62.6856481 69.9652649,62.8800926 70.0038079,62.8962963 L70.0198675,63.4958333 C69.7180088,63.3816416 69.4230728,63.2496232 69.1365894,63.100463 C68.2436755,62.5787037 67.938543,61.8884259 67.941755,60.5986111 C67.9449669,59.3800926 68.2950662,59.0819444 69.1590728,59.5842593 Z" id="Shape" fill="#5D6285"></path>
                        <path d="M72.2489404,61.3828704 L72.2489404,62.1152778 C71.932307,62.0037784 71.6032981,61.9319442 71.2693046,61.9013889 L71.2693046,64.2476852 L70.6269205,63.8814815 L70.6269205,60.5175926 L71.2693046,60.8837963 L71.2693046,61.2888889 C71.5986009,61.2407577 71.934535,61.2729856 72.2489404,61.3828704 Z" id="Shape" fill="#5D6285"></path>
                        <path d="M75.0400993,64.5523148 L74.9951325,65.0513889 L73.1996689,64.0046296 C73.1586091,64.4959106 73.4111454,64.9647468 73.842053,65.1972222 C74.2981457,65.4662037 74.8762914,65.7416667 74.9084106,65.7578704 L74.9084106,66.3087963 C74.5045027,66.166622 74.1133682,65.9898995 73.7392715,65.7805556 C72.8688411,65.275 72.5348013,64.5425926 72.5380132,63.3564815 C72.5412252,62.1703704 73.0005298,61.8365741 73.800298,62.3032407 C74.6139402,62.7437724 75.0983364,63.6224962 75.0400993,64.5523148 Z M73.196457,63.4375 L74.4201987,64.150463 C74.4201987,63.4796296 74.246755,63.1555556 73.8227815,62.9092593 C73.3988079,62.662963 73.2028808,62.7958333 73.1803974,63.4375 L73.196457,63.4375 Z" id="Shape" fill="#5D6285"></path>
                        <path d="M77.3880132,63.0518519 L78.0303974,63.4212963 L78.0303974,68.1819444 L77.3880132,67.8157407 L77.3880132,67.6407407 C77.1163158,67.637492 76.8495064,67.5674101 76.6107285,67.4365741 C75.8687748,67.0023148 75.5154636,66.3476852 75.5186755,65.0513889 C75.5186755,63.8328704 75.904106,63.5087963 76.7295695,63.9916667 C76.958614,64.1369304 77.1795045,64.2948886 77.3912252,64.4648148 L77.3880132,63.0518519 Z M77.3880132,67.0638889 L77.3880132,65.0740741 C77.1922602,64.9226549 76.9885416,64.7820178 76.7777483,64.6527778 C76.347351,64.4 76.1610596,64.6527778 76.1578477,65.4208333 C76.1578477,66.2828704 76.3569868,66.6361111 76.710298,66.8435185 C76.9176201,66.9632233 77.1472878,67.0382592 77.3848013,67.0638889 L77.3880132,67.0638889 Z" id="Shape" fill="#5D6285"></path>
                        <polygon id="Shape" fill="#5D6285" points="78.7851987 63.9203704 79.417947 64.2898148 79.417947 65.0611111 78.7819868 64.6916667"></polygon>
                        <polygon id="Shape" fill="#5D6285" points="78.772351 68.6259259 78.7819868 65.262037 79.4147351 65.6314815 79.4050993 68.9953704"></polygon>
                        <path d="M81.5313907,66.7916667 C82.3183113,67.2518519 82.6555629,67.8967593 82.6491391,69.1541667 C82.6491391,70.5476852 82.2701325,70.7356481 81.2294702,70.1263889 C80.9082781,69.9481481 80.2080795,69.4523148 80.1695364,69.4263889 L80.1695364,64.6722222 L80.8119205,65.0384259 L80.8119205,66.5648148 C81.0647617,66.5891673 81.3097962,66.6664277 81.5313907,66.7916667 Z M81.2326821,69.4782407 C81.8750662,69.8541667 82.003543,69.6013889 82.006755,68.7814815 C82.006755,68.0199074 81.8397351,67.6277778 81.4543046,67.4009259 C81.2534677,67.2871375 81.0369697,67.20413 80.8119205,67.1546296 L80.8119205,69.199537 C80.8279801,69.199537 81.1331126,69.4134259 81.2455298,69.4782407 L81.2326821,69.4782407 Z" id="Shape" fill="#5D6285"></path>
                        <polygon id="Shape" fill="#5D6285" points="83.9563907 66.8791667 83.943543 71.6365741 83.3107947 71.2703704 83.3268543 66.5097222"></polygon>
                        <polygon id="Shape" fill="#5D6285" points="87.1201325 70.1199074 86.005596 74.2875 85.3824834 73.924537 85.7357947 72.6833333 85.237947 72.3916667 84.4863576 68.587037 85.1062583 68.95 85.7165232 72.0449074 85.8706954 72.1356481 86.4938079 69.7569444"></polygon>
                        <polygon id="Shape" fill="#5D6285" points="39.1115563 48.8865741 39.7443046 49.2560185 39.7410927 50.0305556 39.1115563 49.6611111"></polygon>
                        <polygon id="Shape" fill="#5D6285" points="39.0987086 53.5953704 39.1083444 50.2314815 39.7410927 50.6009259 39.731457 53.9615741"></polygon>
                        <path d="M41.9316225,51.8032407 C42.7378146,52.2731481 42.9369536,52.9212963 42.9337417,54.0231481 L42.9337417,55.825 L42.2913576,55.4587963 L42.2913576,53.6796296 C42.2913576,53.0055556 42.2174834,52.6296296 41.7774503,52.3833333 C41.5815681,52.266712 41.3618295,52.1968733 41.1350662,52.1791667 L41.1350662,54.7717593 L40.4926821,54.4023148 L40.4926821,51.0416667 L41.1350662,51.4046296 L41.1350662,51.6152778 C41.4130163,51.5988567 41.6897187,51.66415 41.9316225,51.8032407 Z" id="Shape" fill="#5D6285"></path>
                        <path d="M45.0985762,53.6472222 C45.9047682,54.1171296 46.1006954,54.762037 46.0974834,55.8671296 L46.0974834,57.6689815 L45.4711589,57.3027778 L45.4711589,55.5236111 C45.4711589,54.849537 45.3972848,54.4768519 44.9572517,54.2273148 C44.7612307,54.1110078 44.5415659,54.0411925 44.3148675,54.0231481 L44.3148675,56.6319444 L43.6724834,56.2625 L43.6724834,52.9018519 L44.2988079,53.2648148 L44.2988079,53.4722222 C44.5764104,53.4534134 44.8536352,53.5140738 45.0985762,53.6472222 Z" id="Shape" fill="#5D6285"></path>
                        <path d="M47.9925166,55.3356481 C48.9560927,55.899537 49.2772848,56.7324074 49.2772848,57.8212963 C49.2772848,58.9101852 48.9753642,59.425463 47.9925166,58.8421296 C47.0096689,58.2587963 46.7077483,57.4324074 46.7077483,56.3143519 C46.7077483,55.1962963 47.0225166,54.7685185 47.9925166,55.3356481 Z M47.9925166,58.2263889 C48.5321192,58.550463 48.6349007,58.2263889 48.6509603,57.4486111 C48.6670199,56.6708333 48.5096358,56.249537 48.0085762,55.9513889 C47.5075166,55.6532407 47.3661921,55.9060185 47.3661921,56.6837963 C47.3661921,57.4615741 47.4786093,57.912037 48.0085762,58.2263889 L47.9925166,58.2263889 Z" id="Shape" fill="#5D6285"></path>
                        <polygon id="Shape" fill="#5D6285" points="52.219404 57.8699074 51.4549669 60.7930556 50.3307947 60.1384259 49.592053 56.3402778 50.2504967 56.7259259 50.802947 59.7851852 50.9860265 59.8921296 51.5738079 57.4939815"></polygon>
                        <path d="M54.8082119,61.95 C54.8086299,62.1363805 54.904632,62.3092633 55.0619536,62.4069444 L55.0426821,62.9578704 C54.7309831,62.7943708 54.4656913,62.5534657 54.2718212,62.2578704 C53.9420933,62.232554 53.6224312,62.1316939 53.3371523,61.962963 C52.7773558,61.6471788 52.4446178,61.0373438 52.4795695,60.3912037 C52.4795695,59.6814815 52.8168212,59.6328704 53.4431457,59.9310185 L54.1915232,60.2939815 L54.1915232,60.0509259 C54.2156816,59.7439445 54.0477786,59.4542672 53.7707616,59.325 C53.3821192,59.0949074 52.7140397,58.7708333 52.6819205,58.7546296 L52.6594371,58.2231481 C53.0641734,58.3510439 53.4548561,58.5204471 53.8253642,58.7287037 C54.4649004,59.0368178 54.8577766,59.7030279 54.8210596,60.4171296 L54.8082119,61.95 Z M54.1818874,61.7069444 L54.1818874,60.8125 L53.5073841,60.4884259 C53.2407947,60.3587963 53.109106,60.4300926 53.105894,60.7347222 C53.0848691,61.0145722 53.2214233,61.282616 53.4592053,61.4282407 C53.6841502,61.5548532 53.9266848,61.6466198 54.1786755,61.700463 L54.1818874,61.7069444 Z" id="Shape" fill="#5D6285"></path>
                        <path d="M56.3724172,59.3055556 L56.3724172,60.2777778 L57.1721854,60.7444444 L57.1721854,61.3699074 L56.3659934,60.9259259 L56.3659934,62.4037037 C56.3659934,62.9092593 56.382053,63.0972222 56.6871854,63.2722222 C56.8509934,63.3662037 57.1464901,63.5185185 57.1625497,63.525 L57.191457,64.1277778 C56.9876738,64.0566279 56.7891135,63.9710765 56.5972517,63.8717593 C55.9548675,63.4893519 55.7396689,63.0875 55.7428808,62.1217593 L55.7428808,60.562963 L55.370298,60.3458333 L55.370298,59.7203704 L55.7396689,59.9375 L55.7396689,58.9652778 L56.3724172,59.3055556 Z" id="Shape" fill="#5D6285"></path>
                        <polygon id="Shape" fill="#5D6285" points="57.6893046 59.7106481 58.322053 60.0768519 58.3188411 60.8513889 57.6860927 60.4851852"></polygon>
                        <polygon id="Shape" fill="#5D6285" points="57.676457 64.4162037 57.6860927 61.0555556 58.3156291 61.4217593 58.3059934 64.7856481"></polygon>
                        <polygon id="Shape" fill="#5D6285" points="61.4376159 63.2398148 60.6731788 66.162963 59.5490066 65.5083333 58.8102649 61.7101852 59.4719205 62.0958333 60.0211589 65.1550926 60.2074503 65.2652778 60.7920199 62.8638889"></polygon>
                        <path d="M64.2159272,66.325 L64.1709603,66.8273148 L62.3754967,65.787037 C62.3387426,66.2808397 62.5979394,66.7490288 63.0339404,66.9763889 C63.493245,67.2453704 64.0713907,67.5273148 64.1035099,67.5402778 L64.1035099,68.0912037 C63.7002112,67.9474875 63.3092019,67.7708215 62.9343709,67.562963 C62.0639404,67.0574074 61.7299007,66.325 61.7331126,65.1388889 C61.7363245,63.9527778 62.1956291,63.6189815 62.9953974,64.0824074 C63.7999618,64.5267406 64.276082,65.4015602 64.2159272,66.325 Z M62.3722848,65.2134259 L63.5960265,65.9263889 C63.5960265,65.2523148 63.4225828,64.9282407 62.9986093,64.6819444 C62.5746358,64.4356481 62.3787086,64.5717593 62.3722848,65.2134259 Z" id="Shape" fill="#5D6285"></path>
                        <path d="M67.4792384,66.6847222 C68.2340397,67.125463 68.5841391,67.8287037 68.5809272,69.050463 C68.5809272,70.4342593 68.1698013,70.6027778 67.2768874,70.0842593 C67.0862702,69.9665724 66.9018694,69.8389297 66.7244371,69.7018519 L66.7244371,71.1342593 L66.082053,70.7648148 L66.082053,65.9587963 L66.7051656,66.3217593 L66.7051656,66.5324074 C66.9725612,66.5019899 67.242765,66.555158 67.4792384,66.6847222 Z M67.2383444,69.4263889 C67.777947,69.750463 67.9353311,69.5041667 67.9353311,68.6777778 C67.9353311,67.8513889 67.7265563,67.4819444 67.3668212,67.2712963 C67.1704677,67.1595128 66.9498301,67.098293 66.7244371,67.0930556 L66.7244371,69.0763889 C66.8884747,69.2020014 67.0589416,69.3188292 67.2351325,69.4263889 L67.2383444,69.4263889 Z" id="Shape" fill="#5D6285"></path>
                        <path d="M70.8292715,68.6356481 L70.8292715,69.3680556 C70.5177963,69.257839 70.1942568,69.1860217 69.8656954,69.1541667 L69.8656954,71.500463 L69.2233113,71.1342593 L69.2233113,67.7736111 L69.8496358,68.1365741 L69.8496358,68.5416667 C70.1789441,68.4940399 70.51476,68.5262564 70.8292715,68.6356481 Z" id="Shape" fill="#5D6285"></path>
                        <g id="Group" transform="translate(73.552980, 69.351852)" fill="#5D6285">
                            <path d="M0.802980132,4.6537037 L0.802980132,1.41296296 L1.42930464,1.77916667 L1.42930464,5.01990741 C1.42930464,5.90787037 1.21731788,6.08287037 0.420761589,6.08611111 L0.173443709,5.39583333 C0.700198675,5.3212963 0.802980132,5.25972222 0.802980132,4.6537037 Z" id="Shape"></path>
                            <polygon id="Shape" points="0.815827815 0.074537037 1.44215232 0.4375 1.4389404 1.21527778 0.815827815 0.849074074"></polygon>
                        </g>
                        <path d="M72.4416556,69.575463 C73.4052318,70.1393519 73.7264238,70.975463 73.7264238,72.0643519 C73.7264238,73.1532407 73.4277152,73.6847222 72.4416556,73.0851852 C71.455596,72.4856481 71.1568874,71.6722222 71.1568874,70.5541667 C71.1568874,69.4361111 71.4716556,69.0277778 72.4416556,69.575463 Z M72.4416556,72.4662037 C72.9812583,72.7902778 73.1000993,72.4662037 73.1000993,71.6916667 C73.1000993,70.9171296 72.9587748,70.4925926 72.4577152,70.1944444 C71.9566556,69.8962963 71.8153311,70.1490741 71.7992715,70.9268519 C71.7832119,71.7046296 71.9116887,72.1518519 72.4416556,72.4662037 Z" id="Shape" fill="#5D6285"></path>
                        <path d="M78.0946358,74.4106481 L78.0528808,74.912963 L76.2542053,73.8662037 C76.2193056,74.3612965 76.4793283,74.8299711 76.9158609,75.0587963 C77.3719536,75.324537 77.9500993,75.6032407 77.9822185,75.6194444 L77.9822185,76.1703704 C77.5771587,76.0285005 77.1849319,75.8517701 76.8098675,75.6421296 C75.9394371,75.1365741 75.6053974,74.4009259 75.6086093,73.2180556 C75.6118212,72.0351852 76.0711258,71.6981481 76.874106,72.1648148 C77.680364,72.6090569 78.156892,73.4858912 78.0946358,74.4106481 Z M76.2509934,73.2990741 L77.4747351,74.012037 C77.4747351,73.337963 77.3045033,73.0138889 76.8805298,72.7675926 C76.4565563,72.5212963 76.2574172,72.6541667 76.2381457,73.2990741 L76.2509934,73.2990741 Z" id="Shape" fill="#5D6285"></path>
                        <path d="M79.7937417,73.8597222 C80.094489,74.0593991 80.384008,74.275782 80.6609603,74.5078704 L80.6384768,75.0717593 C80.6127815,75.0555556 80.1791722,74.7476852 79.9575497,74.6212963 C79.3569205,74.2712963 79.215596,74.4722222 79.2123841,75.2435185 C79.2123841,76.1055556 79.3312252,76.4652778 79.9575497,76.8314815 C80.1791722,76.9578704 80.6159934,77.1555556 80.6384768,77.1717593 L80.6384768,77.7648148 C80.3364354,77.6549263 80.0423652,77.523898 79.7584106,77.3726852 C78.8654967,76.8541667 78.5603642,76.1638889 78.5635762,74.8740741 C78.5796358,73.6555556 78.9297351,73.3574074 79.7937417,73.8597222 Z" id="Shape" fill="#5D6285"></path>
                        <path d="M82.0324503,74.2615741 L82.0324503,75.2337963 L82.8322185,75.6972222 L82.8322185,76.3226852 L82.0324503,75.8592593 L82.0324503,77.337037 C82.0324503,77.8393519 82.0324503,78.0273148 82.3536424,78.2023148 C82.5174503,78.2962963 82.812947,78.4518519 82.8290066,78.4583333 L82.8579139,79.0611111 C82.65368,78.9898537 82.4550507,78.9031892 82.2637086,78.8018519 C81.6213245,78.4226852 81.4093377,78.0208333 81.4093377,77.0518519 L81.4093377,75.4930556 L81.036755,75.2759259 L81.036755,74.650463 L81.4061258,74.8675926 L81.4061258,73.8953704 L82.0324503,74.2615741 Z" id="Shape" fill="#5D6285"></path>
                        <polygon id="Shape" fill="#5D6285" points="83.381457 79.3916667 83.3846689 78.4486111 84.0623841 78.8439815 84.0591722 79.787037"></polygon>
                        <polygon id="Shape" fill="#5D6285" points="84.0077815 78.1310185 83.4521192 77.8069444 83.4007285 74.7898148 84.0720199 75.1819444"></polygon>
                        <path d="M40.3834768,60.8092593 C40.6440942,61.0631046 40.7863938,61.4161615 40.7753311,61.7814815 C40.7753311,62.4296296 40.4316556,62.4847222 39.8984768,62.1736111 L38.8256954,61.5481481 L38.8256954,58.3657407 L39.8663576,58.9717593 C40.3760769,59.2079926 40.7032838,59.7215482 40.7046689,60.2875 C40.7110927,60.6666667 40.6083113,60.7962963 40.3834768,60.8092593 Z M39.8759934,61.7069444 C40.1522185,61.8689815 40.3192384,61.8625 40.3192384,61.4833333 C40.3144573,61.176736 40.1411678,60.8982339 39.8695695,60.7606481 L39.2753642,60.4106481 L39.2753642,61.3569444 L39.8792053,61.7069444 L39.8759934,61.7069444 Z M39.2817881,59.0657407 L39.2817881,59.9763889 L39.8727815,60.3199074 C40.1425828,60.4787037 40.2646358,60.387963 40.2646358,60.0768519 C40.2719374,59.7899407 40.1124766,59.5251662 39.8567219,59.399537 L39.285,59.075463 L39.2817881,59.0657407 Z" id="Shape" fill="#6B67F5"></path>
                        <polygon id="Shape" fill="#6B67F5" points="41.7169948 59.9212963 41.7069308 63.2106481 41.2506954 62.9546296 41.2607594 59.6652778"></polygon>
                        <path d="M43.0397351,61.6194444 C43.7078146,62.0083333 43.932649,62.5916667 43.9294371,63.3402778 C43.9262252,64.0888889 43.7206623,64.4453704 43.0333113,64.0467593 C42.3459603,63.6481481 42.1403974,63.074537 42.1436093,62.3 C42.1468212,61.525463 42.3748675,61.2305556 43.0397351,61.6194444 Z M43.0397351,63.6189815 C43.4123179,63.8361111 43.489404,63.6189815 43.4926159,63.0842593 C43.4958278,62.549537 43.3930464,62.2546296 43.042947,62.0472222 C42.6928477,61.8398148 42.5900662,62.0180556 42.5868543,62.5560185 C42.5836424,63.0939815 42.6639404,63.4018519 43.0397351,63.6189815 Z" id="Shape" fill="#6B67F5"></path>
                        <path d="M45.1178477,62.8282407 C45.3264248,62.9631808 45.5269788,63.110347 45.7184768,63.2689815 L45.7024172,63.6578704 C45.7024172,63.6578704 45.3812252,63.4375 45.2334768,63.3337963 C44.8159272,63.0907407 44.7195695,63.2333333 44.7195695,63.7680556 C44.7195695,64.3611111 44.7998675,64.6106481 45.2334768,64.8634259 C45.3844371,64.9509259 45.6863576,65.0902778 45.7024172,65.1 L45.7024172,65.5083333 C45.4941864,65.4315765 45.2913678,65.3406261 45.0953642,65.2361111 C44.4754636,64.8763889 44.2666887,64.4 44.2666887,63.5087963 C44.2795364,62.6888889 44.5204305,62.4814815 45.1178477,62.8282407 Z" id="Shape" fill="#6B67F5"></path>
                        <polygon id="Shape" fill="#6B67F5" points="46.5792715 62.7634259 46.5728477 64.6625 46.8233775 64.7824074 47.2987417 64.150463 47.7869536 64.4356481 47.205596 65.1875 47.812649 66.7787037 47.3212252 66.4902778 46.8330132 65.2231481 46.5728477 65.1064815 46.5696358 66.0527778 46.1328146 65.8 46.1424503 62.5106481"></polygon>
                        <path d="M48.8436755,64.999537 C49.0522526,65.1344771 49.2528066,65.2816433 49.4443046,65.4402778 L49.428245,65.8291667 C49.428245,65.8291667 49.107053,65.6055556 48.9593046,65.5050926 C48.541755,65.262037 48.4453974,65.4013889 48.4453974,65.9361111 C48.4453974,66.5324074 48.5256954,66.7819444 48.9593046,67.0347222 C49.1102649,67.1222222 49.4121854,67.2615741 49.428245,67.2680556 L49.428245,67.6796296 C49.2208192,67.6008779 49.0181238,67.5099827 48.8211921,67.4074074 C48.2077152,67.0476852 47.9957285,66.5712963 47.9957285,65.6800926 C48.0053642,64.8601852 48.2462583,64.6527778 48.8436755,64.999537 Z" id="Shape" fill="#6B67F5"></path>
                        <path d="M50.3050993,64.9347222 L50.3050993,66.0236111 C50.4971172,66.0271026 50.6854893,66.077119 50.8543377,66.1694444 C51.41,66.4935185 51.5449007,66.9407407 51.5449007,67.7023148 L51.5449007,68.9467593 L51.1016556,68.7037037 L51.1016556,67.4722222 C51.1016556,67.0055556 51.0566887,66.749537 50.7451325,66.5712963 C50.6077022,66.4901428 50.4561638,66.4362435 50.2986755,66.4125 L50.2986755,68.2337963 L49.8618543,67.9777778 L49.8618543,64.6884259 L50.3050993,64.9347222 Z" id="Shape" fill="#6B67F5"></path>
                        <path d="M53.5298675,69.5592593 C53.5283706,69.6910619 53.5954002,69.8140274 53.7065232,69.8833333 L53.7065232,70.2592593 C53.4897071,70.1485536 53.3057626,69.9819654 53.1733444,69.7763889 C52.9465374,69.75891 52.7267489,69.6890554 52.5309603,69.5722222 C52.143389,69.3564142 51.9124795,68.9357884 51.936755,68.4898148 C51.936755,67.9972222 52.1680132,67.9615741 52.5984106,68.1657407 L53.1155298,68.4185185 L53.1155298,68.2532407 C53.1324615,68.0379148 53.0144902,67.8347878 52.8200331,67.7444444 C52.5534437,67.5888889 52.0941391,67.3652778 52.0684437,67.3555556 L52.0684437,66.9861111 C52.3482459,67.0735053 52.6183979,67.1897031 52.8746358,67.3328704 C53.3163563,67.5475858 53.5872893,68.008728 53.5619868,68.5027778 L53.5298675,69.5592593 Z M53.0994702,69.3907407 L53.0994702,68.7717593 L52.6337417,68.5546296 C52.4506623,68.4638889 52.3575166,68.5125 52.3575166,68.7231481 C52.3429653,68.9158245 52.4358092,69.1006803 52.5984106,69.2027778 C52.7553382,69.2900017 52.9241831,69.3533407 53.0994702,69.3907407 Z" id="Shape" fill="#6B67F5"></path>
                        <polygon id="Shape" fill="#6B67F5" points="54.0855298 67.1773148 54.5417653 67.4300926 54.5417653 67.9648148 54.0855298 67.7087963"></polygon>
                        <polygon id="Shape" fill="#6B67F5" points="54.079106 70.4277778 54.0858153 68.1041667 54.5386961 68.3569444 54.5319868 70.6805556"></polygon>
                        <path d="M56.0351656,69.1898148 C56.5908278,69.5138889 56.7289404,69.9611111 56.7257285,70.7226852 L56.7257285,71.9671296 L56.2921192,71.7143519 L56.2921192,70.4828704 C56.2921192,70.0194444 56.2407285,69.7601852 55.9388079,69.5819444 C55.7993502,69.5030793 55.6450887,69.454509 55.4859272,69.4393519 L55.4859272,71.2444444 L55.049106,70.9884259 L55.049106,68.6680556 L55.4827152,68.9175926 L55.4827152,69.0634259 C55.6750948,69.0508855 55.8669611,69.0947804 56.0351656,69.1898148 Z" id="Shape" fill="#6B67F5"></path>
                        <path d="M59.1218212,70.1782407 C60.0083113,70.6935185 60.2170861,71.3675926 60.2138742,72.3560185 C60.2106623,73.3444444 60.017947,73.8888889 59.1121854,73.3606481 L58.1486093,72.8064815 L58.1486093,69.6240741 L59.1218212,70.1782407 Z M59.1218212,72.9069444 C59.6742715,73.2310185 59.7642053,72.7837963 59.7642053,72.087037 C59.7642053,71.3902778 59.6839073,70.949537 59.1218212,70.6287037 L58.6175497,70.3240741 L58.6175497,72.5925926 L59.1218212,72.8875 L59.1218212,72.9069444 Z" id="Shape" fill="#6B67F5"></path>
                        <path d="M62.3112583,73.8888889 L62.2791391,74.2356481 L61.0264901,73.5259259 C61.0013929,73.8677138 61.1808698,74.1916305 61.4825828,74.3490741 C61.8037748,74.5337963 62.1988411,74.7282407 62.2181126,74.737963 L62.2181126,75.1171296 C61.9395608,75.019698 61.6698352,74.8982624 61.4119205,74.7541667 C60.8080795,74.4009259 60.5768212,73.8953704 60.5800331,73.0787037 C60.583245,72.262037 60.9012252,72.025463 61.4536755,72.349537 C62.0111733,72.6514776 62.3453956,73.251403 62.3112583,73.8888889 Z M61.0264901,73.1208333 L61.8712252,73.6134259 C61.9262728,73.2684912 61.7621013,72.9255552 61.4600993,72.7546296 C61.1646026,72.5828704 61.029702,72.6768519 61.0264901,73.1208333 Z" id="Shape" fill="#6B67F5"></path>
                        <polygon id="Shape" fill="#6B67F5" points="64.3187086 74.0671296 63.7919536 76.0861111 63.0146689 75.6324074 62.5039735 73.0074074 62.9600662 73.2763889 63.3422848 75.3893519 63.4675497 75.4638889 63.8754636 73.8078704"></polygon>
                        <path d="M65.2822848,74.5824074 C65.5422272,74.7479507 65.7931221,74.927533 66.0338742,75.1203704 L66.0338742,75.5384259 C66.0113907,75.5222222 65.5617219,75.1916667 65.3208278,75.0490741 C65.0799338,74.9064815 64.9739404,74.912963 64.9707285,75.1009259 C64.9675166,75.2888889 65.0574503,75.3439815 65.4493046,75.6518519 C65.9278808,76.0310185 66.0916887,76.2708333 66.0916887,76.7375 C66.0916887,77.2787037 65.7897682,77.3013889 65.2951325,77.012963 C65.0404857,76.8495398 64.7949384,76.6721114 64.5596026,76.4814815 L64.5756623,76.0666667 C64.6013576,76.0861111 65.0574503,76.4231481 65.2630132,76.5430556 C65.5488742,76.7115741 65.6612914,76.7050926 65.6612914,76.5009259 C65.6612914,76.2967593 65.5938411,76.2481481 65.1987748,75.9402778 C64.8037086,75.6324074 64.5339073,75.3601852 64.5339073,74.8675926 C64.5339073,74.375 64.8807947,74.3490741 65.2822848,74.5824074 Z" id="Shape" fill="#6B67F5"></path>
                    </g>
                </g>
                <g id="Group" opacity="0.1" transform="translate(0.000000, 129.000000)" fill="#5D6285">
                    <polygon id="Shape" points="0.210571429 9.48131148 16.5502857 18.8318033 32.8868571 9.48131148 16.5502857 0.133934426"></polygon>
                </g>
                <g id="Group" opacity="0.1" transform="translate(196.000000, 129.000000)" fill="#5D6285">
                    <polygon id="Shape" points="0.298571429 9.48131148 16.6382857 18.8318033 32.9748571 9.48131148 16.6382857 0.133934426"></polygon>
                </g>
                <g id="Group" opacity="0.1" transform="translate(97.000000, 184.000000)" fill="#5D6285">
                    <polygon id="Shape" points="0.0817142857 10.5033871 16.4214286 20.6680645 32.7611429 10.5033871 16.4214286 0.335322581"></polygon>
                </g>
                <polygon id="Shape" fill="#7177A1" points="97 56 97 75.3311861 113 85 113 65.6655931"></polygon>
                <polygon id="Shape" fill="#5D6285" points="130.928366 56 114 65.6655931 114 85 131 75.3730564"></polygon>
                <polygon id="Shape" fill="#8A91C4" points="97 55.5015825 113.5 65 130 55.5015825 113.5 46"></polygon>
                <g id="Group" opacity="0.4" transform="translate(108.000000, 52.000000)" fill="#5D6285">
                    <ellipse id="Oval" transform="translate(6.458158, 4.603774) rotate(-27.700000) translate(-6.458158, -4.603774) " cx="6.45815769" cy="4.6037739" rx="6.55815789" ry="1.2672"></ellipse>
                </g>
                <ellipse id="Oval" fill="#5D6285" transform="translate(113.000000, 56.000000) rotate(-27.700000) translate(-113.000000, -56.000000) " cx="113" cy="56" rx="3" ry="1"></ellipse>
                <path d="M113.461182,23.6683929 C120.364614,19.7887688 125.977291,22.9063239 125.999935,30.6246346 C126.019345,37.4549145 121.658602,45.5983464 115.877707,50.0731402 L113.548527,54 L111.206407,52.6994442 C105.415806,54.7274295 101.019479,51.5059559 101.000069,44.675676 C100.977424,36.9542163 106.557751,27.5480171 113.461182,23.6683929 Z" id="Shape" fill="#F2F2F0"></path>
                <path d="M118,31 L118.443627,30.1327801 C118.464581,30.0912702 118.483438,30.046854 118.5,30 C118.494532,30.0424662 118.49044,30.0854073 118.487745,30.1286307 C118.462967,30.344668 118.391256,30.5371348 118.286765,30.6680498 L118.095588,30.8838174 L118,31 Z" id="Shape" fill="#5D6285"></path>
                <path d="M118.749395,30.0293862 C118.842384,29.9837682 118.929904,29.9906109 118.976399,30.0544761 C119.020475,30.1569787 119.002118,30.2709484 118.927169,30.360117 C118.908688,30.3858726 118.887646,30.410288 118.864264,30.4331059 L118.369231,30.9098144 L117.472154,31.7742764 L117.36002,31.8928833 C117.326954,31.9227873 117.289242,31.9488688 117.247885,31.970434 C117.154895,32.016052 117.064641,32.0092093 117.020881,31.9476249 C116.970168,31.8138642 117.01346,31.667684 117.133015,31.5689952 L117.384634,31.3249386 L117.721038,31.0033314 L118.639995,30.1183414 C118.669924,30.0835687 118.706955,30.053458 118.749395,30.0293862 Z" id="Shape" fill="#5D6285"></path>
                <g id="Group" transform="translate(110.000000, 27.000000)" fill="#5D6285">
                    <path d="M4.45153846,7.35107143 L4.53115385,7.2225 C4.35981727,7.87507039 3.90487379,8.43251492 3.27461538,8.76214286 C2.67230769,9.08357143 2.18076923,9.03214286 2.03884615,8.6625 L2.21538462,8.63035714 C2.25142848,8.6262659 2.2858705,8.61413485 2.31576923,8.595 C2.46781458,8.50470334 2.57587442,8.36284153 2.61692308,8.19964286 C2.67230769,7.99392857 2.58230769,7.84928571 2.41615385,7.87821429 L2.11153846,7.93607143 C2.3488589,7.42856117 2.75372718,7.00421142 3.26769231,6.72428571 C3.71076923,6.48642857 4.095,6.45107143 4.32346154,6.59571429 L4.00153846,7.11321429 C3.87692308,7.30928571 3.87692308,7.52464286 4.00153846,7.59214286 C4.07543881,7.62275959 4.16135282,7.61416818 4.22653846,7.56964286 C4.32206929,7.51775084 4.40001906,7.4420282 4.45153846,7.35107143 Z M3.27115385,8.08392857 C3.57345119,7.94075871 3.80243592,7.69230672 3.90807692,7.39285714 C3.90807692,7.25785714 3.65538462,7.18714286 3.27115385,7.39285714 C2.97092583,7.53377124 2.7422293,7.77844812 2.63423077,8.07428571 C2.63423077,8.20928571 2.88692308,8.28 3.27115385,8.07428571 L3.27115385,8.08392857 Z" id="Shape"></path>
                    <path d="M4.52769231,0.601071429 C6.98538462,-0.716785714 8.99307692,0.347142857 9,2.97 C9,3.14035714 9,3.32035714 8.96884615,3.51642857 C8.91,3.42642857 8.79923077,3.41678571 8.68153846,3.48107143 C8.62771908,3.51084805 8.57973042,3.54888784 8.53961538,3.59357143 L7.37653846,4.84071429 C7.24799995,4.56235504 7.15954545,4.2694742 7.11346154,3.96964286 C5.77730769,4.59321429 4.39269231,4.63821429 3.70384615,4.29107143 C3.45115385,4.89857143 2.90423077,5.57678571 1.80346154,6.15535714 L1.755,6.18428571 C1.64577501,6.75161584 1.61899779,7.32998724 1.67538462,7.90392857 C1.6819814,7.94441245 1.6819814,7.98558755 1.67538462,8.02607143 L0.512307692,8.235 C0.476815019,8.24103901 0.442800407,8.25301953 0.411923077,8.27035714 C0.306849828,8.33288348 0.221931899,8.42062062 0.166153846,8.52428571 C0.118373581,8.27168944 0.0940533788,8.01574826 0.0934615385,7.75928571 C0.0726923077,5.14285714 2.07692308,1.92857143 4.52769231,0.601071429 Z" id="Shape"></path>
                </g>
                <g id="Group" transform="translate(107.000000, 30.000000)" fill="#5D6285">
                    <path d="M9.02222222,2.24528302 L9.15288889,2.09132075 C8.9716991,2.70044828 8.57084668,3.2147495 8.03288889,3.52830189 C7.45111111,3.87471698 6.98133333,3.78490566 6.89733333,3.34226415 L6.96888889,3.38396226 C7.0363732,3.41441044 7.1144341,3.40587462 7.17422222,3.36150943 C7.2579647,3.30701043 7.32741367,3.23210404 7.37644444,3.14339623 C7.48533333,2.9445283 7.48533333,2.72641509 7.37644444,2.66226415 L7.09022222,2.49226415 C7.3089835,2.07950777 7.63134256,1.73497023 8.02355556,1.49471698 C8.47466667,1.22528302 8.85422222,1.21886792 9.044,1.43056604 L8.75777778,1.77377358 C8.62178134,1.91255595 8.57253509,2.1181237 8.63022222,2.30622642 C8.68,2.39283019 8.78266667,2.40245283 8.88844444,2.33830189 C8.93676404,2.31341353 8.98173467,2.28214438 9.02222222,2.24528302 Z M8.036,2.86754717 C8.30424238,2.72572663 8.50842796,2.48185159 8.60533333,2.18754717 C8.60533333,2.05283019 8.37822222,1.98226415 8.03288889,2.18754717 C7.76784747,2.32644907 7.56501768,2.56543989 7.46666667,2.85471698 C7.46666667,2.99264151 7.69688889,3.05679245 8.04222222,2.85471698 L8.036,2.86754717 Z" id="Shape"></path>
                    <path d="M6.88488889,2.51792453 C6.94297783,2.47530965 7.01834961,2.46681032 7.084,2.4954717 L7.37022222,2.6654717 C7.48222222,2.72962264 7.48222222,2.94773585 7.37022222,3.14660377 C7.32119145,3.23531158 7.25174248,3.31021798 7.168,3.36471698 C7.10821188,3.40908217 7.03015098,3.41761799 6.96266667,3.38716981 L6.89111111,3.3454717 L6.89111111,3.36792453 L6.81955556,3.49622642 C6.7732517,3.58699251 6.70319314,3.66255639 6.61733333,3.71433962 C6.55874673,3.75877161 6.48153019,3.767345 6.41511111,3.73679245 C6.30311111,3.66943396 6.30311111,3.4545283 6.41511111,3.25886792 L6.70133333,2.74886792 C6.74090421,2.65604266 6.80438763,2.57616997 6.88488889,2.51792453 Z" id="Shape"></path>
                    <path d="M9.70355556,5.73509434 C9.73227865,5.71680629 9.76385616,5.70378376 9.79688889,5.69660377 L11.2684444,5.42716981 C12.768,5.1545283 13.776,6.2290566 13.7791111,8.1054717 L13.7791111,8.60264151 C13.7695503,8.81043179 13.6628565,9.00054225 13.4928889,9.11264151 L0.323555556,16.9518868 C0.168,17.0449057 0.0373333333,16.9711321 0.0373333333,16.7818868 L0.0373333333,16.284717 C0.0373333333,14.4083019 1.03288889,12.1373585 2.52622222,10.6330189 L3.99466667,9.14792453 C4.02450434,9.12027535 4.0567942,9.09557575 4.09111111,9.07415094 C4.15121969,9.02628229 4.23322138,9.01997307 4.29955556,9.05811321 C5.02444444,9.56169811 5.94844444,9.52641509 6.89733333,8.96188679 C7.84622222,8.39735849 8.764,7.33245283 9.48888889,5.96924528 C9.53730117,5.87167081 9.61179006,5.79042091 9.70355556,5.73509434 Z" id="Shape"></path>
                    <path d="M10.8048889,0.0930188679 C10.8654896,0.327315635 10.894797,0.569042318 10.892,0.811509434 C10.892,1.7545283 10.5466667,2.68150943 10.0737778,2.99584906 C9.55733333,5.35018868 8.30977778,7.44471698 6.90044444,8.28188679 C5.49111111,9.1190566 4.23422222,8.51924528 3.70844444,6.78716981 C3.23555556,7.03415094 2.88088889,6.52735849 2.87777778,5.58113208 C2.87853338,5.40309035 2.88996258,5.22526701 2.912,5.04867925 C2.94856212,5.10146484 3.0128207,5.12567172 3.07377778,5.10962264 L3.45644444,5.02943396 C3.45644444,5.1 3.45644444,5.17056604 3.45644444,5.24113208 C3.45644444,5.88264151 3.67422222,6.12962264 3.74577778,6.08792453 C3.79221787,6.02560483 3.8491178,5.97237297 3.91377778,5.93075472 C3.94440335,5.91238936 3.9782282,5.90040165 4.01333333,5.8954717 C4.09483458,5.87752941 4.17520563,5.93038986 4.19377778,6.01415094 C4.59822222,7.68849057 5.68711111,8.32679245 6.90355556,7.61792453 C8.12,6.9090566 9.20266667,4.96207547 9.59777778,2.80660377 C9.62569971,2.68641457 9.6836147,2.57584012 9.76577778,2.48584906 C9.79833282,2.45229937 9.83492777,2.42319391 9.87466667,2.39924528 C9.91994315,2.36935948 9.97356374,2.35582086 10.0271111,2.36075472 C10.136,2.29660377 10.3382222,1.8154717 10.3382222,1.17716981 C10.3389062,1.05149477 10.3295412,0.925975445 10.3102222,0.801886792 L10.5528889,0.63509434 C10.6855233,0.533894581 10.776548,0.385114079 10.808,0.218113208 C10.8042121,0.176536114 10.8031727,0.134741467 10.8048889,0.0930188679 Z" id="Shape"></path>
                    <path d="M3.16088889,4.39433962 C3.18864037,4.37703836 3.21921152,4.36508296 3.25111111,4.3590566 L4.29644444,4.15056604 L4.69777778,4.07037736 L4.97155556,4.01264151 C5.12088889,3.98377358 5.20177778,4.12811321 5.152,4.33339623 C5.11510688,4.49625276 5.01798643,4.63781717 4.88133333,4.72792453 C4.85446139,4.74701926 4.82350609,4.75912488 4.79111111,4.76320755 L4.63244444,4.79528302 L3.45644444,5.02943396 L3.07377778,5.10962264 C3.0128207,5.12567172 2.94856212,5.10146484 2.912,5.04867925 C2.86938064,4.96916319 2.86146623,4.87474342 2.89022222,4.78886792 C2.90215644,4.74021371 2.91883393,4.69292897 2.94,4.64773585 C2.99013139,4.54428808 3.06645269,4.45673488 3.16088889,4.39433962 Z" id="Shape"></path>
                </g>
                <path d="M35.4903909,121.999995 C35.2684859,122.000245 35.0741381,121.849463 35.0167232,121.632507 C34.9593083,121.415551 35.0531725,121.186631 35.2454904,121.074579 L100.264944,83.0664594 C100.499386,82.9295596 100.799084,83.0109444 100.934339,83.2482374 C101.069594,83.4855304 100.989187,83.7888736 100.754746,83.9257734 L35.7352914,121.933893 C35.6609219,121.977588 35.5763808,122.000406 35.4903909,121.999995 Z" id="Shape" fill="url(#linearGradient-1)"></path>
                <path d="M91.5061889,177.999946 C91.4202036,178.000348 91.3356668,177.978109 91.2613012,177.935524 L26.2452417,140.902264 C26.0108123,140.768841 25.9304096,140.473201 26.0656574,140.241934 C26.2009051,140.010666 26.5005877,139.931348 26.7350172,140.064772 L91.7510767,177.101253 C91.9454476,177.208586 92.0410999,177.432435 91.9832736,177.644647 C91.9254473,177.856859 91.7289148,178.003223 91.5061889,177.999946 Z" id="Shape" fill="url(#linearGradient-2)"></path>
                <path d="M198.5193,120.999983 C198.433251,121.000701 198.348608,120.978433 198.274346,120.935538 L133.237448,83.8797784 C133.013834,83.7459406 132.935011,83.4631552 133.057815,83.2353304 C133.192396,83.0133152 133.480302,82.9352033 133.711026,83.0581072 L198.754456,120.097756 C198.946816,120.207 199.040701,120.430184 198.983273,120.641704 C198.925846,120.853224 198.731456,121.000227 198.509502,120.999983 L198.5193,120.999983 Z" id="Shape" fill="url(#linearGradient-3)"></path>
                <path d="M133.493821,177.999425 C133.271091,178.002787 133.074554,177.852588 133.016727,177.634814 C132.958899,177.417041 133.054553,177.187326 133.248928,177.07718 L198.269532,139.063502 C198.422351,138.976702 198.609304,138.979029 198.759968,139.069607 C198.910632,139.160186 199.002118,139.325254 198.999963,139.502633 C198.997808,139.680011 198.90234,139.842752 198.749521,139.929552 L133.738713,177.943231 C133.663682,177.984248 133.578989,178.003682 133.493821,177.999425 Z" id="Shape" fill="url(#linearGradient-4)"></path>
                <path d="M161.48433,101.999995 C161.265168,102.000237 161.073222,101.854402 161.016517,101.644564 C160.959811,101.434726 161.052515,101.213316 161.242456,101.10494 L189.274029,85.064279 C189.505573,84.9318705 189.801567,85.0105853 189.935151,85.2400934 C190.068734,85.4696015 189.989321,85.7629928 189.757777,85.8954014 L161.726204,101.936062 C161.652754,101.978323 161.569258,102.000393 161.48433,101.999995 Z" id="Shape" fill="url(#linearGradient-5)"></path>
                <ellipse id="Oval" fill="#9ED0F2" cx="163" cy="100.5" rx="2" ry="1.5"></ellipse>
                <path d="M113.488599,182 C113.218753,182 113,181.781167 113,181.511224 L113.026059,155.488776 C113.026059,155.218833 113.244812,155 113.514658,155 C113.783231,155.001791 114.000006,155.2201 114,155.488776 L113.973941,181.511224 C113.973947,181.7799 113.757172,181.998209 113.488599,182 Z" id="Shape" fill="url(#linearGradient-6)"></path>
                <path d="M152.477142,134 C152.213624,134 152,133.814483 152,133.585635 C152,133.356788 152.213624,133.171271 152.477142,133.171271 L194.522858,133 C194.786376,133 195,133.185517 195,133.414365 C195,133.643212 194.786376,133.828729 194.522858,133.828729 L152.496227,134 L152.477142,134 Z" id="Shape" fill="url(#linearGradient-7)"></path>
                <path d="M74.5204385,135 L33.4795615,134.934579 C33.214707,134.934579 33,134.725367 33,134.46729 C33,134.209213 33.214707,134 33.4795615,134 L74.5204385,134.065421 C74.785293,134.065421 75,134.274633 75,134.53271 C75,134.790787 74.785293,135 74.5204385,135 Z" id="Shape" fill="url(#linearGradient-8)"></path>
                <g id="Group" opacity="0.1" transform="translate(76.000000, 118.000000)" fill="#5D6285">
                    <polygon id="Shape" points="0.074439834 22.4067857 38.9449793 44.6946429 77.8155187 22.4067857 38.9449793 0.118928571"></polygon>
                </g>
                <polygon id="Shape" fill="#9694FF" points="76 88 76 133.333333 115 156 115 110.666667"></polygon>
                <polygon id="Shape" fill="#6B67F5" points="152.835088 88 114 110.666667 114 156 153 133.428132"></polygon>
                <polygon id="Shape" fill="#B9B8FF" points="76 89 115 111 154 89 115 67"></polygon>
                <path d="M125.840867,90.4284329 C125.900653,90.4503004 125.94967,90.4966926 125.976933,90.5572151 C126.004197,90.6177376 126.007428,90.6873307 125.985904,90.7504018 C125.959778,90.8199935 125.907077,90.8745886 125.840867,90.900654 C125.597352,91.0331153 125.3086,91.0331153 125.065085,90.900654 L114.156926,84.2072782 L114.433509,88.7649269 C114.433509,88.9545308 114.210893,89.1012055 113.907327,89.1012055 C113.765998,89.1065751 113.625991,89.0706891 113.502571,88.99746 C113.415812,88.9596349 113.353414,88.8772471 113.337296,88.7792366 L113,83.3665816 C113,83.2342166 113.1248,83.1018516 113.337296,83.0589224 C113.529408,82.9803592 113.742199,82.9803592 113.934311,83.0589224 L125.840867,90.4284329 Z" id="Shape" fill="#9694FF"></path>
                <path d="M126.862594,82.7831576 C133.699135,86.4940345 133.699135,92.5059655 126.942243,96.2168424 C120.185352,99.9277192 109.021214,99.9277192 102.151486,96.2168424 C95.2817577,92.5059655 95.3116261,86.4940345 102.068518,82.7831576 C108.82541,79.0722808 119.996185,79.0722808 126.862594,82.7831576 Z M114.553502,98.4185258 C118.595369,98.508121 122.594359,97.6271758 126.168984,95.8597287 C129.36822,94.117635 130.967838,91.8227915 130.954563,89.5496854 C130.941288,87.2765792 129.325077,84.9817357 126.099291,83.2427474 C118.795057,79.7677563 110.155968,79.7677563 102.851733,83.2427474 C99.6524977,84.9817357 98.0528799,87.2610525 98.0661547,89.5496854 C98.0794296,91.8383182 99.6923222,94.117635 102.921426,95.8597287 C106.508578,97.6257097 110.517833,98.5064 114.570096,98.4185258 L114.553502,98.4185258 Z" id="Shape" fill="#9694FF"></path>
                <path d="M119.842054,90.5189099 C119.93488,90.5602352 119.996894,90.6588585 120,90.7701001 C120,90.9638755 119.748576,91.0966475 119.458472,91.0966475 L104.84688,90.7126852 L115.274521,97.4266423 C115.390597,97.4738619 115.450954,97.616246 115.409904,97.7460128 C115.387524,97.8172247 115.337945,97.8737326 115.274521,97.9003154 C115.040679,98.0332282 114.763763,98.0332282 114.52992,97.9003154 L103.157827,90.5691479 C102.999881,90.4650834 102.961201,90.3179576 103.038562,90.2103047 C103.171812,90.0619075 103.356724,89.9858598 103.544633,90.0021756 L119.484259,90.4327875 C119.608128,90.4275954 119.731176,90.4572136 119.842054,90.5189099 Z" id="Shape" fill="#9694FF"></path>
                <path d="M125.840983,89.4284329 C125.900527,89.4495226 125.949513,89.4952301 125.976823,89.5551811 C126.004133,89.6151321 126.00745,89.6842419 125.986021,89.7468244 C125.961072,89.8180343 125.908123,89.8741921 125.840983,89.900654 C125.597466,90.0331153 125.308711,90.0331153 125.065194,89.900654 L114.156936,83.2072782 L114.433522,87.7613495 C114.433522,87.9545308 114.210904,88.1012055 113.907335,88.1012055 C113.766177,88.1048164 113.626601,88.069041 113.502576,87.99746 C113.415312,87.9584158 113.352952,87.8747293 113.337299,87.7756592 L113,82.3665816 C113,82.2342166 113.124801,82.1018516 113.337299,82.0589224 C113.529413,81.9803592 113.742205,81.9803592 113.934319,82.0589224 L125.840983,89.4284329 Z" id="Shape" fill="#FFFFFF"></path>
                <path d="M126.862594,81.7827028 C133.699135,85.5084974 133.699135,91.5070267 126.942243,95.2172972 C120.185352,98.9275676 109.021214,98.9275676 102.151486,95.2172972 C95.2817577,91.5070267 95.3116261,85.4929733 102.068518,81.7827028 C108.82541,78.0724324 119.996185,78.0724324 126.862594,81.7827028 Z M114.553502,97.4186208 C118.595199,97.5066791 122.593785,96.625967 126.168984,94.8602418 C129.36822,93.1184329 130.967838,90.8239644 130.954563,88.5512297 C130.941288,86.278495 129.325077,83.9840265 126.099291,82.2453223 C118.795833,78.7678701 110.155192,78.7678701 102.851733,82.2453223 C99.6524977,83.9840265 98.0528799,86.2629708 98.0661547,88.5512297 C98.0794296,90.8394885 99.6923222,93.1184329 102.921426,94.8602418 C106.509145,96.6245138 110.518001,97.5049725 114.570096,97.4186208 L114.553502,97.4186208 Z" id="Shape" fill="#FFFFFF"></path>
                <path d="M119.842174,88.5088846 C119.93493,88.55027 119.996896,88.649037 120,88.7604406 C120,88.9544982 119.748767,89.0874635 119.458882,89.0874635 L104.858364,88.7029421 L115.278103,95.4230828 C115.394522,95.4719121 115.45462,95.6155961 115.413382,95.746512 C115.390604,95.8167326 115.34104,95.8720318 115.278103,95.8974457 C115.045231,96.0341848 114.766937,96.0341848 114.534066,95.8974457 L103.157708,88.5699767 C102.999882,88.4657607 102.96123,88.3184207 103.038533,88.2106109 C103.171682,88.0619977 103.356453,87.9858393 103.54422,88.0021788 L119.471766,88.4298241 C119.599281,88.4200855 119.726885,88.4473215 119.842174,88.5088846 Z" id="Shape" fill="#FFFFFF"></path>
                <polygon id="Shape" fill="#D9ABFF" points="0 114 0 133.334407 16 143 16 123.665593"></polygon>
                <polygon id="Shape" fill="#CB8CFF" points="33.9283525 114 17 123.665593 17 143 34 133.373056"></polygon>
                <polygon id="Shape" fill="#E7C9FF" points="0 114.501583 16.501587 124 33 114.501583 16.501587 105"></polygon>
                <path d="M17.4627912,82.668933 C24.3667899,78.789378 29.9772994,81.9037286 29.9999355,89.6250509 C30.0193378,96.4552091 25.6602791,104.598496 19.8783823,109.07321 L17.5436342,113 L15.199185,111.699467 C9.41082071,113.727417 5.01942479,110.506 5.00002245,103.675842 C4.98708756,95.9545198 10.5652598,86.5484881 17.4627912,82.668933 Z" id="Shape" fill="#F2F2F0"></path>
                <path d="M20.7361873,90.0462262 C20.874799,89.9392675 20.986232,90.0248344 20.986232,90.2316211 C20.986232,91.4509493 21.4455531,93.7969083 21.9266173,94.1534371 C22.0244609,94.2283081 22.0244609,94.4636171 21.9266173,94.6882301 C21.383042,95.939646 19.4805283,97.7294202 19.2821233,97.9326415 L19.2522266,97.9540333 C19.1625367,98.0217737 19.0810004,98.0146431 19.0347965,97.9326415 C18.9831524,97.7960119 18.9893277,97.6339975 19.0511037,97.5048071 L20.4942963,93.4902936 L20.4942963,90.5988457 C20.5042052,90.3749945 20.5938054,90.1702958 20.7361873,90.0462262 Z" id="Shape" fill="#CB8CFF"></path>
                <g id="Group" transform="translate(19.000000, 91.000000)" fill="#CB8CFF">
                    <path d="M1.30971429,1.12 L1.34114286,1.1 L1.34114286,1.53333333 C1.34163485,1.39471863 1.33111366,1.25634906 1.30971429,1.12 Z" id="Shape"></path>
                    <polygon id="Shape" points="1.31771429 1.12 1.27771429 1.14333333 1.34914286 1.05 1.34914286 1.1"></polygon>
                    <path d="M1.33257143,0.26 L1.33257143,1.05 L1.27542857,1.14333333 L0.470857143,2.49666667 L0.374857143,2.65666667 C0.348275721,2.70287129 0.3166046,2.74229926 0.281142857,2.77333333 C0.203428571,2.83666667 0.130285714,2.82666667 0.0937142857,2.73666667 C0.0507838194,2.54121375 0.0870361866,2.32716268 0.187428571,2.18333333 L0.397714286,1.83 L0.56,1.55333333 L1.33257143,0.26 Z" id="Shape"></path>
                </g>
                <path d="M14.2426509,94.040627 C14.3783115,93.9463812 14.4922664,94.0211279 14.4922664,94.2128695 L14.4922664,96.8452539 L15.9465478,98.5026811 C16.0102307,98.6109902 16.0175761,98.7530196 15.9655402,98.869915 C15.924018,99.0032275 15.8479529,99.1171151 15.7484833,99.1949007 L15.718638,99.2143999 C15.5070075,99.324895 13.6267519,100.290103 13.0732567,99.9131192 C12.9755811,99.8448722 12.9755811,99.6271317 13.0732567,99.4256406 C13.5507819,98.4506834 13.9930354,95.6688055 13.9903222,94.5508546 C14.000981,94.3420513 14.0948923,94.1521555 14.2426509,94.040627 Z" id="Shape" fill="#CB8CFF"></path>
                <g id="Group" transform="translate(11.000000, 86.000000)" fill="#CB8CFF">
                    <path d="M7.09022222,6.11076923 C7.14873392,6.07100194 7.22351325,6.06291283 7.28933333,6.08923077 L7.57866667,6.24923077 C7.69066667,6.31384615 7.69066667,6.52 7.57866667,6.71076923 C7.53144975,6.79718562 7.46160314,6.86945294 7.37644444,6.92 C7.31785784,6.96262254 7.2406413,6.97084678 7.17422222,6.94153846 L7.10266667,6.90153846 L7.10266667,6.92307692 L7.03111111,7.04307692 C6.98303423,7.12968713 6.9134378,7.20275456 6.82888889,7.25538462 C6.76927561,7.29579414 6.69275202,7.30278023 6.62666667,7.27384615 C6.51466667,7.21230769 6.51466667,7.00615385 6.62666667,6.81538462 L6.90977778,6.32615385 C6.95162568,6.24110832 7.01350824,6.16724318 7.09022222,6.11076923 Z" id="Shape"></path>
                    <path d="M9.22444444,5.84615385 L9.35511111,5.69846154 C9.18129647,6.28866815 8.78177245,6.78865569 8.24133333,7.09230769 C7.65955556,7.42461538 7.18977778,7.34153846 7.10577778,6.91384615 L7.17733333,6.95384615 C7.24375241,6.98315448 7.32096895,6.97493023 7.37955556,6.93230769 C7.46471425,6.88176063 7.53456086,6.80949331 7.58177778,6.72307692 C7.69377778,6.53230769 7.69377778,6.32615385 7.58177778,6.26153846 L7.29244444,6.10153846 C7.51137676,5.70491015 7.83363302,5.37344657 8.22577778,5.14153846 C8.31360919,5.08966601 8.40634397,5.04638444 8.50266667,5.01230769 C8.65019466,4.95201686 8.81051341,4.92876184 8.96933333,4.94461538 C9.07474806,4.95865773 9.17229762,5.00743853 9.24622222,5.08307692 L8.96,5.40923077 C8.82335481,5.54199632 8.77401131,5.73958192 8.83244444,5.92 C8.88222222,6.00307692 8.98177778,6.01230769 9.08755556,5.95384615 C9.13914775,5.92606136 9.18546625,5.88962198 9.22444444,5.84615385 Z M8.23822222,6.44307692 C8.50805678,6.30818479 8.71360132,6.07396419 8.81066667,5.79076923 C8.81066667,5.66153846 8.58044444,5.59692308 8.23511111,5.79076923 C7.9674821,5.92758461 7.76354328,6.16124538 7.66577778,6.44307692 C7.66577778,6.57538462 7.89288889,6.64 8.23822222,6.44307692 Z" id="Shape"></path>
                    <path d="M9.90888889,9.19692308 C9.93761198,9.17937979 9.96918949,9.16688758 10.0022222,9.16 L11.4768889,8.90461538 C12.9733333,8.64 13.9844444,9.67384615 13.9875556,11.4707692 L13.9875556,11.9507692 C13.9779948,12.1500975 13.871301,12.3324659 13.7013333,12.44 L0.535111111,19.96 C0.376444444,20.0492308 0.248888889,19.9753846 0.248888889,19.7969231 L0.248888889,19.3169231 C0.248888889,17.52 1.24444444,15.3415385 2.73777778,13.8953846 L4.20933333,12.4738462 C4.23729141,12.4455676 4.26863416,12.4207689 4.30266667,12.4 C4.36756153,12.3606095 4.44932736,12.3606095 4.51422222,12.4 C5.236,12.8830769 6.16,12.8492308 7.112,12.3046154 C8.064,11.76 8.97866667,10.7415385 9.70044444,9.43384615 C9.74803765,9.338371 9.81985797,9.25673826 9.90888889,9.19692308 Z" id="Shape"></path>
                    <path d="M7.00933333,7.04 L7.08088889,6.92 C6.92578002,7.54337723 6.51707939,8.07564197 5.95155556,8.39076923 C5.41022222,8.69846154 4.96533333,8.64923077 4.83777778,8.29846154 L4.99955556,8.26769231 C5.03140717,8.2601579 5.06185616,8.24769677 5.08977778,8.23076923 C5.22577667,8.14505844 5.32281682,8.01047453 5.36044444,7.85538462 C5.41022222,7.65538462 5.32933333,7.51692308 5.17688889,7.54769231 L4.90311111,7.6 C5.11758783,7.11395989 5.48251672,6.7077917 5.94533333,6.44 C6.34044444,6.21230769 6.68577778,6.18153846 6.87866667,6.32 L6.59244444,6.81230769 C6.48044444,7.00307692 6.48044444,7.20923077 6.59244444,7.27076923 C6.6585298,7.29970331 6.73505339,7.29271722 6.79466667,7.25230769 C6.88377915,7.20134254 6.95780191,7.12813322 7.00933333,7.04 Z M5.94844444,7.74153846 C6.2254819,7.60633993 6.43615724,7.36694733 6.53333333,7.07692308 C6.53333333,6.94769231 6.30311111,6.88307692 5.95777778,7.07692308 C5.68912089,7.2124461 5.48476713,7.44658229 5.38844444,7.72923077 C5.38844444,7.86153846 5.61555556,7.92615385 5.96088889,7.72923077 L5.94844444,7.74153846 Z" id="Shape"></path>
                    <path d="M10.2262222,5.93538462 C10.3413333,5.87076923 10.5373333,5.41230769 10.5373333,4.8 L10.5373333,5.66769231 L8.88533333,9.13230769 C8.81461924,9.24380198 8.80755046,9.383624 8.86666667,9.50153846 C8.91955556,9.57230769 9.01288889,9.57846154 9.11555556,9.52307692 C8.63652094,10.3836526 7.94785049,11.1123478 7.112,11.6430769 C6.37466667,12.0646154 5.67777778,12.1076923 5.10533333,11.8123077 C5.21939034,11.7386613 5.30661061,11.630834 5.35422222,11.5046154 C5.41388932,11.3939404 5.40546666,11.2594687 5.33244444,11.1569231 L3.66488889,9.58769231 L3.66488889,8.72 C3.66488889,9.33538462 3.88577778,9.57230769 3.95422222,9.53230769 C4.00069225,9.47339841 4.05762097,9.42335119 4.12222222,9.38461538 C4.15209206,9.36489423 4.18616169,9.35225851 4.22177778,9.34769231 C4.2610141,9.33856052 4.3023167,9.34550363 4.33629894,9.36694373 C4.37028117,9.38838384 4.39405672,9.42249987 4.40222222,9.46153846 C4.80977778,11.0707692 5.89866667,11.6830769 7.11511111,11 C8.33155556,10.3169231 9.41111111,8.45538462 9.80622222,6.38461538 C9.83297967,6.26821978 9.89227042,6.16160307 9.97733333,6.07692308 C10.0086169,6.0437385 10.0441818,6.01477167 10.0831111,5.99076923 C10.1234883,5.95746164 10.1737115,5.93802507 10.2262222,5.93538462 Z" id="Shape"></path>
                    <path d="M3.65555556,7.84 L4.09422222,7.75384615 L4.90311111,7.6 L5.17688889,7.54769231 C5.32933333,7.51692308 5.41022222,7.65538462 5.36044444,7.85538462 C5.32281682,8.01047453 5.22577667,8.14505844 5.08977778,8.23076923 C5.06185616,8.24769677 5.03140717,8.2601579 4.99955556,8.26769231 L4.83777778,8.29846154 L3.66488889,8.52307692 L3.65555556,7.84 Z" id="Shape"></path>
                    <path d="M7.07466667,0.581538462 C9.28355556,-0.68 11.088,0.335384615 11.0942222,2.84615385 C11.0942222,2.66769231 10.9666667,2.59384615 10.808,2.68615385 C10.6388992,2.79306728 10.5323246,2.97408623 10.5217778,3.17230769 L10.5217778,3.62461538 L9.47333333,4.81846154 C9.30953105,4.86580209 9.14338818,4.90482741 8.97555556,4.93538462 C8.81673563,4.91953107 8.65641688,4.94278609 8.50888889,5.00307692 C7.57881679,5.12323616 6.6345651,4.93840667 5.82088889,4.47692308 C5.50977778,5.82153846 4.65733333,7.05538462 4.09111111,7.75384615 L3.65244444,7.84 L3.65244444,7.09846154 C3.65244444,6.91692308 3.52177778,6.84615385 3.36622222,6.93538462 C3.19625458,7.04291875 3.08956078,7.22528715 3.08,7.42461538 C3.07377778,4.92307692 4.86577778,1.84615385 7.07466667,0.581538462 Z" id="Shape"></path>
                </g>
                <path d="M14,96 C14,96.11 14,96.22 14,96.325 L14,96 Z" id="Shape" fill="#CB8CFF"></path>
                <g id="Group" opacity="0.4" transform="translate(12.000000, 111.000000)" fill="#CB8CFF">
                    <ellipse id="Oval" transform="translate(6.476216, 4.498487) rotate(-27.700000) translate(-6.476216, -4.498487) " cx="6.47621597" cy="4.49848681" rx="6.39" ry="1.2672"></ellipse>
                </g>
                <ellipse id="Oval" fill="#CB8CFF" transform="translate(17.000000, 115.000000) rotate(-27.700000) translate(-17.000000, -115.000000) " cx="17" cy="115" rx="3" ry="1"></ellipse>
                <polygon id="Shape" fill="#96D4FF" points="198 114 198 133.334407 214 143 214 123.665593"></polygon>
                <polygon id="Shape" fill="#66C0FF" points="230.928352 114 214 123.665593 214 143 231 133.373056"></polygon>
                <polygon id="Shape" fill="#BAE3FF" points="198 114.501583 214.501587 124 231 114.501583 214.501587 105"></polygon>
                <g id="Group" opacity="0.4" transform="translate(208.000000, 110.000000)" fill="#66C0FF">
                    <ellipse id="Oval" transform="translate(6.413214, 4.518154) rotate(-27.700000) translate(-6.413214, -4.518154) " cx="6.41321416" cy="4.51815374" rx="6.55815789" ry="1.2672"></ellipse>
                </g>
                <ellipse id="Oval" fill="#66C0FF" transform="translate(213.000000, 113.000000) rotate(-27.700000) translate(-213.000000, -113.000000) " cx="213" cy="113" rx="3" ry="1"></ellipse>
                <path d="M215.464415,80.668933 C222.366054,76.789378 227.977273,79.9037286 227.999912,87.6250509 C228.022551,94.4552091 223.662941,102.598496 217.880312,107.07321 L215.551737,111 L213.200522,109.699467 C207.411425,111.727417 203.019473,108.506 203.000069,101.675842 C202.97743,93.9545198 208.553074,84.5484881 215.464415,80.668933 Z" id="Shape" fill="#F2F2F0"></path>
                <g id="Group" transform="translate(207.000000, 84.000000)" fill="#66C0FF">
                    <path d="M11.0380435,5.07716667 L11.0751941,5.05666667 L11.0751941,5.50083333 C11.0757757,5.35875327 11.0633389,5.21692445 11.0380435,5.07716667 Z" id="Shape"></path>
                    <path d="M11.3673913,3.2 C11.5336957,3.10333333 11.6673913,3.18 11.6706522,3.37333333 C11.6706522,4.51333333 12.2184783,6.70666667 12.7956522,7.04 C12.9097826,7.11 12.9097826,7.33333333 12.7956522,7.54 C12.1434783,8.71 9.86086957,10.3833333 9.62282609,10.5733333 L9.58695652,10.5966667 C9.47934783,10.6566667 9.37826087,10.6533333 9.32608696,10.5733333 C9.25938505,10.448717 9.25938505,10.2979496 9.32608696,10.1733333 L11.0869565,6.43 L11.0869565,5.05666667 L11.0869565,3.72333333 C11.0945829,3.51347496 11.1984962,3.31955703 11.3673913,3.2 Z" id="Shape"></path>
                    <path d="M8.97391304,6.37666667 C9.13695652,6.28 9.27391304,6.37666667 9.27391304,6.55333333 C9.26389204,6.76927225 9.15206236,6.96683802 8.97391304,7.08333333 L8.37391304,7.43666667 C8.2076087,7.53666667 8.07391304,7.45666667 8.07391304,7.26333333 C8.08393405,7.04739442 8.19576373,6.84982864 8.37391304,6.73333333 L8.97391304,6.37666667 Z" id="Shape"></path>
                    <path d="M10.4347826,10.2533333 C10.4656623,10.2367442 10.4985577,10.2244145 10.5326087,10.2166667 L12.0782609,9.93666667 C13.6467391,9.65 14.6869565,10.77 14.7097826,12.7166667 L14.7097826,13.2366667 C14.6961433,13.4515005 14.5851915,13.6475154 14.4097826,13.7666667 L0.606521739,21.9133333 C0.440217391,22.01 0.306521739,21.93 0.306521739,21.7366667 L0.306521739,21.2166667 C0.306521739,19.27 1.35,16.91 2.91521739,15.3433333 L4.4576087,13.8033333 C4.48691258,13.7726982 4.51976407,13.745833 4.55543478,13.7233333 C4.62345347,13.6806602 4.70915523,13.6806602 4.77717391,13.7233333 C5.53695652,14.2466667 6.50217391,14.21 7.5,13.62 C8.49782609,13.03 9.45652174,11.93 10.2130435,10.5133333 C10.2633637,10.4082828 10.3398365,10.3186147 10.4347826,10.2533333 Z" id="Shape"></path>
                    <path d="M6.57065217,7.79333333 C6.73695652,7.69666667 6.87391304,7.79333333 6.87391304,7.97 C6.86389204,8.18593892 6.75206236,8.38350469 6.57391304,8.5 L5.97391304,8.85333333 C5.8076087,8.95333333 5.67391304,8.87333333 5.67391304,8.68 C5.68320389,8.46468804 5.79374665,8.26724976 5.97065217,8.15 L6.57065217,7.79333333 Z" id="Shape"></path>
                    <path d="M10.7608696,6.72 C10.8782609,6.65333333 11.0869565,6.15333333 11.0869565,5.49 L11.0869565,6.43 L9.35217391,10.1833333 C9.285472,10.3079496 9.285472,10.458717 9.35217391,10.5833333 C9.40434783,10.6633333 9.50543478,10.6666667 9.61304348,10.6066667 C9.11094975,11.538957 8.38912901,12.3283768 7.51304348,12.9033333 C6.74021739,13.36 6.00978261,13.4066667 5.40978261,13.0866667 C5.53012897,13.0077863 5.62178618,12.8906688 5.67065217,12.7533333 C5.73339147,12.6338805 5.72584809,12.4886564 5.65108696,12.3766667 L3.9,10.6766667 L3.9,9.74 C3.9,10.4066667 4.12826087,10.6633333 4.20652174,10.6166667 C4.25448449,10.5521394 4.3142963,10.4977919 4.3826087,10.4566667 C4.41273318,10.4353443 4.4473783,10.4216353 4.48369565,10.4166667 C4.52482068,10.4067739 4.56811144,10.4142956 4.60372947,10.4375224 C4.6393475,10.4607492 4.66426752,10.4977082 4.67282609,10.54 C5.09673913,12.2833333 6.24130435,12.9466667 7.51630435,12.2066667 C8.79130435,11.4666667 9.92282609,9.45 10.3369565,7.20666667 C10.3662716,7.08106865 10.4282375,6.96589978 10.5163043,6.87333333 C10.5482291,6.83737202 10.5856771,6.8069731 10.6271739,6.78333333 C10.6647559,6.74936559 10.7112224,6.72735383 10.7608696,6.72 Z" id="Shape"></path>
                    <path d="M3.87065218,9.24333333 C3.88919112,9.22594846 3.90614322,9.20698636 3.92131212,9.18666667 C3.88755014,9.37034793 3.87059519,9.55665401 3.87065204,9.74333333 L3.87065218,9.24333333 Z" id="Shape"></path>
                    <path d="M3.5673913,7.80333333 C3.73369565,7.70666667 3.8673913,7.80333333 3.8673913,7.98 L3.8673913,10.6666667 L5.61847826,12.3666667 C5.69323939,12.4786564 5.70078278,12.6238805 5.63804348,12.7433333 C5.59050376,12.8814256 5.49853378,12.9989428 5.37717391,13.0766667 L5.34130435,13.1 C5.08695652,13.2133333 2.82717391,14.2033333 2.16195652,13.8133333 C2.04456522,13.7466667 2.04456522,13.5233333 2.16195652,13.3166667 C2.7326087,12.3166667 3.26413043,9.46666667 3.26086957,8.31666667 L3.26086957,8.28 C3.29100395,8.083355 3.40274294,7.90959162 3.5673913,7.80333333 Z" id="Shape"></path>
                    <path d="M7.45434783,0.92 C9.76956522,-0.446666667 11.6608696,0.653333333 11.6706522,3.37333333 C11.6706522,3.18 11.5336957,3.10333333 11.3673913,3.2 C11.189242,3.31649531 11.0774123,3.51406108 11.0673913,3.73 L11.0673913,5.06333333 L11.0315217,5.08333333 C9.075,6.12 7.04021739,5.77333333 6.14021739,5.14666667 C5.73586957,7 4.36630435,8.66666667 3.91304348,9.18666667 C3.89839764,9.20698636 3.8820301,9.22594846 3.86413043,9.24333333 L3.86413043,7.98 C3.86413043,7.78666667 3.73043478,7.70666667 3.56413043,7.80333333 C3.39798876,7.91464236 3.28824557,8.09510894 3.26413043,8.29666667 C3.27717391,5.58333333 5.14891304,2.28 7.45434783,0.92 Z" id="Shape"></path>
                </g>
                <path d="M122.995917,113.434903 C124.275236,112.476927 124.991764,112.991396 125,116.088852 C125,119.076319 124.277981,120.609082 123.012389,121.552866 C121.746796,122.49665 121.00556,122.070883 121.000069,119.069223 C120.991833,115.989507 121.719343,114.385783 122.995917,113.434903 Z M123.017879,120.39265 C123.739898,119.853345 124.080318,118.930849 124.077573,116.777176 C124.077573,114.467389 123.742644,114.034525 122.995917,114.591571 C122.24919,115.148616 121.917006,116.064016 121.919751,118.384448 C121.919751,120.541668 122.287624,120.935503 123.017879,120.39265 Z" id="Shape" fill="#FFFFFF"></path>
                <polygon id="Shape" fill="#FFFFFF" points="130.977806 109 129.110336 114.182527 131 116.887051 129.852251 117.604368 128.485732 115.483307 127.103361 119.323869 126.019023 120 127.899176 115.009672 126 112.112949 127.157261 111.388768 128.523779 113.647114 129.896639 109.676131"></polygon>
                <path d="M135.209334,111.434946 C135.69801,111.531468 135.997255,111.731406 136,112.748333 C136,114.389205 135.09952,115.602622 133.993137,116.405822 C132.886754,117.209022 132.002745,117.374488 132,115.774983 C132,114.664981 132.293754,114.0238 132.765957,113.206812 C132.266301,113.093054 132.079616,112.796594 132.079616,111.917555 C132.079616,110.600721 132.820865,109.352831 133.973919,108.518606 C135.126973,107.684382 135.895676,107.829164 135.912148,109.152893 C135.912148,110.100876 135.733699,110.583485 135.209334,111.434946 Z M133.990391,115.24756 C134.641043,114.778739 135.047358,114.1479 135.044612,113.268861 C135.044612,112.6656 134.770075,112.544947 134.369252,112.658705 L133.600549,113.213706 C133.212874,113.605038 132.977062,114.185939 132.952642,114.809764 C132.952642,115.664672 133.356211,115.709486 133.990391,115.24756 Z M133.990391,109.666527 C133.389156,110.104323 133.037749,110.70069 133.037749,111.424604 C133.037749,111.945133 133.23267,112.114046 133.603294,112.114046 L134.371997,111.559045 C134.748113,111.031622 134.964997,110.549013 134.962251,110.028484 C134.962251,109.311465 134.608099,109.221837 133.990391,109.683763 L133.990391,109.666527 Z" id="Shape" fill="#FFFFFF"></path>
                <path d="M138.81761,105.538789 C140.342767,104.599028 140.86478,104.917876 140.871069,106.267105 C140.837887,107.064868 140.558127,107.82845 140.075472,108.438625 C140.625786,108.415131 140.996855,108.478901 141,109.562983 C141,111.103521 140.415094,112.248016 138.984277,113.127364 C138.356983,113.499801 137.691035,113.792668 137,114 L137.062893,112.993113 C137.675169,112.748538 138.270021,112.456895 138.842767,112.120477 C139.58805,111.650596 139.946541,111.056532 139.943396,110.247666 C139.943396,109.492501 139.5,109.415306 138.902516,109.771073 L137.68239,110.522882 L137.68239,109.475719 L138.902516,108.72391 C139.435072,108.324977 139.771138,107.691426 139.81761,106.998776 C139.81761,106.327518 139.503145,106.213404 138.757862,106.663147 C138.191702,107.02825 137.649561,107.434187 137.13522,107.878125 L137.04717,106.981995 C137.58651,106.433795 138.180152,105.949877 138.81761,105.538789 Z" id="Shape" fill="#FFFFFF"></path>
                <polygon id="Shape" fill="#FFFFFF" points="144.980645 101 145 108.377186 143.954839 109 143.93871 103.03164 142.483871 105.019983 142 104.380516 144.019355 101.572856"></polygon>
                <path d="M122.995897,124.434903 C124.277974,123.476927 124.994509,123.991396 125,127.088852 C125,130.072771 124.277974,131.609082 123.01237,132.552866 C121.746765,133.49665 121.005522,133.070883 121.000031,130.069223 C120.99454,126.989507 121.719312,125.385783 122.995897,124.434903 Z M123.01786,131.39265 C123.739886,130.853345 124.083054,129.930849 124.077564,127.777176 C124.077564,125.467389 123.742632,125.030977 122.998643,125.588023 C122.254654,126.145068 121.916977,127.064016 121.922467,129.384448 C121.922467,131.53812 122.287598,131.939051 123.020606,131.39265 L123.01786,131.39265 Z" id="Shape" fill="#FFFFFF"></path>
                <polygon id="Shape" fill="#FFFFFF" points="130.980977 120 129.110336 125.182527 131 127.887051 129.852251 128.6078 128.485732 126.483307 127.103361 130.323869 126.022194 131 127.899176 126.009672 126 123.112949 127.157261 122.388768 128.523779 124.650546 129.896639 120.676131"></polygon>
                <polygon id="Shape" fill="#FFFFFF" points="135.996711 118 136 119.457237 133.684211 126.75 132.684211 127 134.924342 120.055921 134.921053 119.723684 132.003289 121.411184 132 120.305921"></polygon>
                <path d="M138.856567,115.450267 C140.229654,114.636952 140.861402,114.927894 140.864625,116.303257 C140.864625,117.410821 140.474617,118.286954 139.517325,119.913585 L138.19581,122.227898 L141,120.574817 L141,121.629482 L137,124 L137,122.951947 L138.531023,120.178078 C139.327156,118.739898 139.784851,117.863765 139.781628,117.103348 C139.781628,116.270195 139.414182,116.223909 138.611604,116.69669 C138.08211,117.030011 137.573954,117.397747 137.09025,117.797642 L137.019339,116.861998 C137.586561,116.33253 138.201761,115.859809 138.856567,115.450267 Z" id="Shape" fill="#FFFFFF"></path>
                <polygon id="Shape" fill="#FFFFFF" points="144.455192 112 142.938834 118.219922 144.466572 117.150496 144.460882 114.9047 145.391181 114.256145 145.396871 116.498491 145.997155 116.081069 146 117.202242 145.399716 117.619664 145.40256 118.989219 144.472262 119.637775 144.469417 118.271669 142.002845 120 142 119.016818 143.433855 112.714101"></polygon>
                <path d="M122.994513,135.434988 C124.27572,134.477021 124.99177,134.991485 125,138.085363 C125,141.076348 124.27572,142.609095 123.013717,143.55287 C121.751715,144.496645 121.00823,144.070882 121,141.069252 C121,137.989566 121.727023,136.371667 122.994513,135.434988 Z M123.021948,142.40331 C123.743484,141.86401 124.08642,140.941523 124.080933,138.784324 C124.080933,136.478107 123.746228,136.045248 123.002743,136.59874 C122.259259,137.152232 121.921811,138.071171 121.927298,140.395128 C121.927298,142.548779 122.294925,142.946158 123.024691,142.40331 L123.021948,142.40331 Z" id="Shape" fill="#FFFFFF"></path>
                <polygon id="Shape" fill="#FFFFFF" points="130.97782 131 129.111534 136.180911 131 138.888022 129.852978 139.605115 128.484157 137.481285 127.10583 141.320649 126.02218 142 127.897972 137.004367 126 134.111978 127.156527 133.388022 128.525349 135.649095 129.89417 131.679351"></polygon>
                <path d="M135.209334,131.434838 C135.69801,131.534768 135.997255,131.734628 136,132.751155 C136,134.394828 135.096774,135.604323 133.990391,136.407208 C132.884008,137.210092 132.002745,137.372047 132,135.776616 C132,134.667051 132.291009,134.022676 132.763212,133.206008 C132.266301,133.092295 132.079616,132.799397 132.07687,131.920704 C132.07687,130.604387 132.820865,129.356987 133.973919,128.519644 C135.126973,127.682302 135.895676,127.830473 135.909403,129.157128 C135.912148,130.090955 135.728209,130.587158 135.209334,131.434838 Z M133.987646,135.259738 C134.638298,134.787656 135.044612,134.157064 135.044612,133.278371 C135.044612,132.678792 134.770075,132.558187 134.366507,132.668455 L133.600549,133.226683 C133.211596,133.615055 132.975372,134.195488 132.952642,134.818668 C132.952642,135.673241 133.356211,135.718037 133.987646,135.259738 Z M133.987646,129.680898 C133.38641,130.118521 133.032258,130.714654 133.035003,131.438284 C133.035003,131.958608 133.229925,132.127455 133.600549,132.127455 L134.366507,131.572672 C134.745367,131.042011 134.962251,130.563037 134.959506,130.042713 C134.959506,129.325975 134.602608,129.232937 133.987646,129.680898 Z" id="Shape" fill="#FFFFFF"></path>
                <path d="M139.141626,128.716936 C140.356913,127.886843 140.994302,128.192666 140.999968,129.815885 C141.005633,131.439104 140.269095,132.800188 139.045309,133.637003 C137.62889,134.608246 137.005666,133.57651 137,131.187051 C137,128.414473 137.849851,126.754286 139.209614,125.809929 C139.713704,125.481155 140.242992,125.20996 140.790338,125 L140.708185,126.038457 C140.195146,126.290964 139.695631,126.580527 139.212447,126.905518 C138.362595,127.476837 137.954666,128.565704 137.949001,129.869656 C138.3161,129.443101 138.715303,129.057255 139.141626,128.716936 Z M139.042476,132.544775 C139.678789,132.130148 140.066792,131.328832 140.048134,130.467861 C140.048134,129.620965 139.682698,129.459651 139.062306,129.879739 C138.655845,130.188587 138.282074,130.554153 137.949001,130.968606 C137.949001,132.272558 138.232285,133.092569 139.045309,132.544775 L139.042476,132.544775 Z" id="Shape" fill="#FFFFFF"></path>
                <path d="M144.141626,125.716936 C145.356913,124.886843 145.994302,125.192666 145.999968,126.815885 C146.005633,128.439104 145.269095,129.800188 144.045309,130.637003 C142.62889,131.608246 142.005666,130.57651 142,128.187051 C142,125.414473 142.849851,123.754286 144.209614,122.809929 C144.713964,122.481787 145.243201,122.210617 145.790338,122 L145.708185,123.038457 C145.195146,123.290964 144.695631,123.580527 144.212447,123.905518 C143.376759,124.476837 142.954666,125.565704 142.949001,126.869656 C143.3161,126.443101 143.715303,126.057255 144.141626,125.716936 Z M144.042476,129.531332 C144.67832,129.116139 145.066143,128.315194 145.048134,127.454419 C145.048134,126.607522 144.679865,126.446208 144.059473,126.866296 C143.653012,127.175144 143.279241,127.54071 142.946168,127.955163 C142.946168,129.259115 143.229452,130.079126 144.042476,129.531332 Z" id="Shape" fill="#FFFFFF"></path>
                <polygon id="Shape" fill="#9694FF" points="97 170 97 189.33226 113 199 113 179.66774"></polygon>
                <polygon id="Shape" fill="#6B67F5" points="130.928366 170 114 179.66774 114 199 131 189.374125"></polygon>
                <polygon id="Shape" fill="#B9B8FF" points="97 170.498417 113.5 180 130 170.498417 113.5 161"></polygon>
                <g id="Group" opacity="0.4" transform="translate(109.000000, 166.000000)" fill="#6B67F5">
                    <ellipse id="Oval" transform="translate(6.437189, 4.488068) rotate(-27.700000) translate(-6.437189, -4.488068) " cx="6.43718934" cy="4.48806799" rx="6.55815789" ry="1.2672"></ellipse>
                </g>
                <ellipse id="Oval" fill="#6B67F5" transform="translate(114.000000, 169.000000) rotate(-27.700000) translate(-114.000000, -169.000000) " cx="114" cy="169" rx="3" ry="1"></ellipse>
                <path d="M115.457947,136.668933 C122.364614,132.789378 127.977291,135.903729 127.999935,143.625051 C128.019345,150.455209 123.658602,158.595347 117.874472,163.07321 L115.545292,167 L113.203172,165.699467 C107.412571,167.727417 103.019479,164.506 103.000069,157.675842 C102.977424,149.95452 108.557751,140.548488 115.457947,136.668933 Z" id="Shape" fill="#F2F2F0"></path>
                <path d="M116.744505,147.033553 C116.884615,146.948758 117,147.033553 117,147.188523 C116.991557,147.377942 116.897342,147.551245 116.747253,147.653433 L116.255495,147.963374 C116.115385,148.048169 116.002747,147.980918 116,147.811328 C116.008443,147.621908 116.102658,147.448605 116.252747,147.346417 L116.744505,147.033553 Z" id="Shape" fill="#6B67F5"></path>
                <g id="Group" transform="translate(108.000000, 140.000000)" fill="#6B67F5">
                    <path d="M9.71911111,10.0533333 C9.7478342,10.0343281 9.77941171,10.0207949 9.81244444,10.0133333 L11.2871111,9.73666667 C12.7835556,9.45 13.7915556,10.5666667 13.7977778,12.5166667 L13.7977778,13.0366667 C13.7872309,13.2514066 13.6806564,13.4475105 13.5115556,13.5633333 L0.342222222,21.71 C0.183555556,21.81 0.056,21.73 0.0528888889,21.5366667 L0.0528888889,21.0166667 C0.0528888889,19.07 1.04844444,16.71 2.54177778,15.1433333 L4.01333333,13.6033333 C4.04063661,13.5719326 4.07208069,13.5449805 4.10666667,13.5233333 C4.17156153,13.4806602 4.25332736,13.4806602 4.31822222,13.5233333 C5.04,14.0433333 5.964,14.0066667 6.91288889,13.42 C7.86177778,12.8333333 8.77955556,11.73 9.50444444,10.3133333 C9.55331577,10.207877 9.62738223,10.1181692 9.71911111,10.0533333 Z" id="Shape"></path>
                    <path d="M2.98044444,9.04333333 C2.98412862,9.07140869 2.98932245,9.09923275 2.996,9.12666667 C3.024,9.27 3.14222222,9.31333333 3.276,9.23 L3.49688889,9.10333333 C3.47571373,9.24777295 3.46531046,9.39379028 3.46577778,9.54 C3.46577778,10.2233333 3.68355556,10.4666667 3.75511111,10.42 C3.80158114,10.3561816 3.85850986,10.3019638 3.92311111,10.26 C3.95360723,10.2399763 3.9874016,10.2263982 4.02266667,10.22 C4.10416792,10.2013541 4.18453897,10.2562875 4.20311111,10.3433333 C4.61066667,12.0866667 5.69955556,12.75 6.91288889,12.01 C8.12622222,11.27 9.212,9.25333333 9.60711111,7.01 C9.63386856,6.88390477 9.6931593,6.76840332 9.77822222,6.67666667 C9.80803211,6.63997066 9.84388801,6.60946301 9.884,6.58666667 C9.92899194,6.5546713 9.98256638,6.53944241 10.0364444,6.54333333 C10.1422222,6.48 10.3475556,5.98333333 10.3475556,5.31333333 C10.3489091,5.18366861 10.3384897,5.05417018 10.3164444,4.92666667 L10.5591111,4.75333333 C10.6926667,4.64908449 10.7839415,4.49404447 10.8142222,4.32 C10.8142222,4.28333333 10.8142222,4.25 10.8142222,4.21666667 C10.8775215,4.45850253 10.9079089,4.7088617 10.9044444,4.96 C10.9044444,5.94333333 10.556,6.90666667 10.0831111,7.23333333 C9.56977778,9.67666667 8.31911111,11.8533333 6.90977778,12.7266667 C5.50044444,13.6 4.24355556,12.97 3.71777778,11.17 C3.24488889,11.4266667 2.89022222,10.9 2.88711111,9.92 C2.88891459,9.62504525 2.92020423,9.33114617 2.98044444,9.04333333 Z" id="Shape"></path>
                    <path d="M6.88488889,0.72 C9.09377778,-0.646666667 10.8982222,0.453333333 10.9044444,3.17333333 C10.9039458,3.51529233 10.8758411,3.85656428 10.8204444,4.19333333 C10.8204444,4.22666667 10.8204444,4.26 10.8204444,4.29666667 C10.7901637,4.47071113 10.6988889,4.62575115 10.5653333,4.73 L10.3226667,4.90333333 L9.80311111,5.27666667 L9.78133333,5.29333333 C9.66933333,5.36 9.56355556,5.34333333 9.52,5.24333333 C9.37363173,4.91790615 9.2739889,4.57065463 9.22444444,4.21333333 C8.02355556,4.86 6.78222222,4.90333333 6.16311111,4.54666667 C5.936,5.17333333 5.44133333,5.88 4.452,6.48 L4.40844444,6.50666667 C4.31522426,7.06414294 4.29012453,7.63224837 4.33377778,8.19666667 C4.34397176,8.23231709 4.34921311,8.2693809 4.34933333,8.30666667 C4.33977255,8.52260558 4.23307875,8.72017136 4.06311111,8.83666667 C4.04722838,8.84986016 4.02933484,8.86000986 4.01022222,8.86666667 C4.01022222,8.86666667 3.77066667,8.97333333 3.51244444,9.11333333 L3.29155556,9.24 C3.15777778,9.32333333 3.03955556,9.28 3.01155556,9.13666667 C3.00487801,9.10923275 2.99968418,9.08140869 2.996,9.05333333 C2.93603251,8.75426215 2.90578984,8.44922833 2.90577778,8.14333333 C2.88088889,5.41333333 4.66666667,2.08666667 6.88488889,0.72 Z" id="Shape"></path>
                </g>
                <path d="M113.75,148.033165 C113.888587,147.94935 114,148.033165 114,148.186343 C113.992258,148.373029 113.900139,148.544218 113.752717,148.645879 L113.252717,148.963797 C113.11413,149.047612 113,148.981138 113,148.813509 C113.008351,148.626279 113.101542,148.45498 113.25,148.353973 L113.75,148.033165 Z" id="Shape" fill="#6B67F5"></path>
            </g>
        </g>
    </g>
</svg>