<?xml version="1.0" encoding="UTF-8"?>
<svg width="167px" height="168px" viewBox="0 0 167 168" version="1.1" xmlns="http://www.w3.org/2000/svg" xmlns:xlink="http://www.w3.org/1999/xlink">
    <!-- Generator: Sketch 50.2 (55047) - http://www.bohemiancoding.com/sketch -->
    <title>Group</title>
    <desc>Created with Sketch.</desc>
    <defs></defs>
    <g id="Symbols" stroke="none" stroke-width="1" fill="none" fill-rule="evenodd">
        <g id="piechart" fill="#F2CD80" fill-rule="nonzero">
            <g id="Group">
                <path d="M79.1914,0.765434023 C35.0729128,3.00260552 0,39.4829844 0,84.1726839 C0,130.304245 37.3843093,167.701614 83.5,167.701614 C105.193688,167.701614 124.967459,159.476559 139.813953,145.908772 L81.315407,87.3900943 C80.1961186,86.5946287 79.7137605,85.5481885 79.6162791,84.1726839 L79.6162791,0.765434023 C79.4764651,0.771261609 79.3319907,0.757663908 79.1914,0.765434023 Z M87.3837209,0.765434023 L87.3837209,77.252503 L153.710295,38.9482645 C139.501508,16.920552 115.224951,2.03800402 87.3837209,0.765434023 Z M157.594016,45.625707 L89.7504605,84.8405253 L145.275436,140.384803 C158.786901,125.543884 167,105.827606 167,84.1726839 C167,70.2729972 163.598443,57.155528 157.594016,45.625707 Z" id="Shape"></path>
            </g>
        </g>
    </g>
</svg>