<?xml version="1.0" encoding="utf-8"?>
<!-- Generator: Adobe Illustrator 22.1.0, SVG Export Plug-In . SVG Version: 6.00 Build 0)  -->
<svg version="1.1" id="Layer_1" xmlns="http://www.w3.org/2000/svg" xmlns:xlink="http://www.w3.org/1999/xlink" x="0px" y="0px"
	 viewBox="0 0 197 154" style="enable-background:new 0 0 197 154;" xml:space="preserve">
<style type="text/css">
	.st0{fill:none;stroke:#BD7DB3;stroke-width:5;}
	.st1{fill:url(#Shape_4_);}
	.st2{fill:url(#Shape_5_);}
	.st3{fill:url(#Shape_6_);}
	.st4{fill:url(#Shape_7_);}
	.st5{opacity:0.5;fill:url(#Shape-Copy_1_);enable-background:new    ;}
	.st6{opacity:0.2;fill:url(#Shape-Copy-2_1_);enable-background:new    ;}
</style>
<title>presentation-ico</title>
<desc>Created with Sketch.</desc>
<g id="v2">
	<g id="organize-copy" transform="translate(-873.000000, -5807.000000)">
		<g id="foundational-documents" transform="translate(0.000000, 4861.000000)">
			<g id="presentation" transform="translate(790.000000, 948.000000)">
				<g id="presentation-ico" transform="translate(85.000000, 0.000000)">
					<polygon id="Path" class="st0" points="192.5,149.5 0.5,149.5 0.5,0.5 192.5,0.5 					"/>
					<g id="M1mark-outline" transform="translate(21.000000, 38.000000)">
						<g id="Group" transform="translate(21.000000, 21.000000)">
							
								<linearGradient id="Shape_4_" gradientUnits="userSpaceOnUse" x1="-234.9387" y1="401.616" x2="-234.9387" y2="402.5959" gradientTransform="matrix(13.3022 0 0 -30.6242 3151.4604 12329.9385)">
								<stop  offset="0" style="stop-color:#E0BC86"/>
								<stop  offset="1" style="stop-color:#BC7BB4"/>
							</linearGradient>
							<path id="Shape" class="st1" d="M22.6,13.6l6.9-7.2v22.6c0,1.1,0.8,1.8,1.8,1.8c0.9,0,1.6-0.9,1.6-1.7V2
								c0-0.7-0.4-1.5-1.1-1.7c-0.6-0.2-1.4,0-1.9,0.5L20.1,11c-0.7,0.6-0.7,1.8,0,2.6C20.7,14.3,21.9,14.3,22.6,13.6z"/>
							
								<linearGradient id="Shape_5_" gradientUnits="userSpaceOnUse" x1="-241.4657" y1="401.6183" x2="-241.4657" y2="402.5981" gradientTransform="matrix(22.9128 0 0 -30.6307 5544.2124 12332.6201)">
								<stop  offset="0" style="stop-color:#E0BC86"/>
								<stop  offset="1" style="stop-color:#BC7BB4"/>
							</linearGradient>
							<path id="Shape_1_" class="st2" d="M22.5,23.7c0.7-0.6,0.7-1.8,0-2.6L3,0.7C2.6,0.1,1.9,0,1.2,0.3C0.6,0.6,0.1,1.2,0.1,2v27
								c0,1.1,0.8,1.8,1.8,1.8s1.8-0.9,1.8-1.7V6.4L20,23.7C20.6,24.4,21.8,24.4,22.5,23.7z"/>
						</g>
						
							<linearGradient id="Shape_6_" gradientUnits="userSpaceOnUse" x1="-226.7763" y1="428.8158" x2="-226.7763" y2="429.7957" gradientTransform="matrix(76 0 0 -76 17273 32666)">
							<stop  offset="0" style="stop-color:#E0BC86"/>
							<stop  offset="1" style="stop-color:#BC7BB4"/>
						</linearGradient>
						<path id="Shape_2_" class="st3" d="M76,38C76,17,59,0,38,0S0,17,0,38s17.1,38,38,38C59,76,76,59,76,38z M4.1,38.1
							C4.1,19.5,19.3,4.3,38,4.3s34,15.3,34,33.9S56.6,72,38,72S4.1,56.7,4.1,38.1z"/>
					</g>
					
						<linearGradient id="Shape_7_" gradientUnits="userSpaceOnUse" x1="-184.0385" y1="477.6774" x2="-184.0385" y2="478.6573" gradientTransform="matrix(7.960204e-16 13 31 -1.898203e-15 -14684 2453)">
						<stop  offset="0" style="stop-color:#E0BC86"/>
						<stop  offset="1" style="stop-color:#BC7BB4"/>
					</linearGradient>
					<path id="Shape_3_" class="st4" d="M141.4,56.9l7.3,6.7h-22.8c-1.1,0-1.9,0.8-1.9,1.7c0,0.9,0.9,1.6,1.7,1.6h27.4
						c0.7,0,1.5-0.3,1.7-1c0.2-0.6,0-1.4-0.5-1.8L144,54.5c-0.6-0.7-1.9-0.7-2.6,0C140.6,55.1,140.6,56.3,141.4,56.9z"/>
					
						<linearGradient id="Shape-Copy_1_" gradientUnits="userSpaceOnUse" x1="-102.5005" y1="477.6774" x2="-102.5005" y2="478.6573" gradientTransform="matrix(1.836980e-16 3 31 -1.898203e-15 -14684 384.0032)">
						<stop  offset="0" style="stop-color:#E0BC86"/>
						<stop  offset="1" style="stop-color:#BC7BB4"/>
					</linearGradient>
					<path id="Shape-Copy" class="st5" d="M153.2,75h-27.3c-1.1,0-1.9,0.7-1.9,1.6s0.9,1.4,1.7,1.4h27.4c0.7,0,1.5-0.3,1.7-0.9
						c0.2-0.5,0-1.2-0.5-1.7C154.1,75.1,153.7,75,153.2,75z"/>
					
						<linearGradient id="Shape-Copy-2_1_" gradientUnits="userSpaceOnUse" x1="-102.5005" y1="477.6774" x2="-102.5005" y2="478.6573" gradientTransform="matrix(1.836980e-16 3 31 -1.898203e-15 -14684 394.0032)">
						<stop  offset="0" style="stop-color:#E0BC86"/>
						<stop  offset="1" style="stop-color:#BC7BB4"/>
					</linearGradient>
					<path id="Shape-Copy-2" class="st6" d="M153.2,85h-27.3c-1.1,0-1.9,0.7-1.9,1.6s0.9,1.4,1.7,1.4h27.4c0.7,0,1.5-0.3,1.7-0.9
						c0.2-0.5,0-1.2-0.5-1.7C154.1,85.1,153.7,85,153.2,85z"/>
				</g>
			</g>
		</g>
	</g>
</g>
</svg>
