<?xml version="1.0" encoding="UTF-8"?>
<svg width="51px" height="41px" viewBox="0 0 51 41" version="1.1" xmlns="http://www.w3.org/2000/svg" xmlns:xlink="http://www.w3.org/1999/xlink">
    <!-- Generator: Sketch 50.2 (55047) - http://www.bohemiancoding.com/sketch -->
    <title>proof</title>
    <desc>Created with Sketch.</desc>
    <defs></defs>
    <g id="v2" stroke="none" stroke-width="1" fill="none" fill-rule="evenodd">
        <g id="organize" transform="translate(-555.000000, -2416.000000)" fill="#FFFFFF" fill-rule="nonzero">
            <g id="technologies" transform="translate(138.000000, 2242.000000)">
                <g id="proof" transform="translate(417.000000, 174.000000)">
                    <path d="M47.0635731,0 L3.94431555,0 C2.98190255,0 2.05104408,0.347099768 1.32529002,0.993967517 C0.489095128,1.74338747 0,2.8162413 0,3.93642691 L0,27.2709977 C0,29.4403712 1.76705336,31.2153132 3.94431555,31.2153132 L27.9020882,31.2153132 C27.9336427,31.2153132 27.9651972,31.2153132 27.9888631,31.2232019 C28.0046404,31.2310905 28.0204176,31.2310905 28.0361949,31.2389791 C28.0677494,31.2389791 28.0914153,31.2468677 28.1150812,31.262645 C28.1308585,31.262645 28.1466357,31.2705336 28.162413,31.2863109 C28.1860789,31.2941995 28.2097448,31.3020882 28.225522,31.3178654 C28.2491879,31.3257541 28.2570766,31.3415313 28.2807425,31.3573086 C28.2886311,31.3651972 28.3044084,31.3730858 28.3201856,31.3888631 L38.8436195,41.0682135 L38.8593968,31.8700696 C38.8593968,31.5071926 39.1512761,31.2153132 39.5141531,31.2153132 L47.0635731,31.2074246 C49.2408353,31.2074246 51,29.4403712 51,27.2709977 L51,3.93642691 C51,1.75916473 49.2408353,0 47.0635731,0 Z M44.5155452,19.7452436 L42.2436195,18.5461717 C42.1410673,18.4909513 42.0385151,18.4672854 41.9359629,18.4672854 C41.8247332,18.4672854 41.722181,18.4909513 41.6275174,18.5461717 L39.347703,19.7452436 L39.7815777,17.2051044 C39.8218097,16.9921114 39.7500232,16.7712297 39.5930394,16.6213457 L37.7549884,14.8306265 L40.2951276,14.4598608 C40.5160093,14.4283063 40.6974478,14.2941995 40.7921114,14.0969838 L41.9359629,11.7935035 L43.0711369,14.0969838 C43.1658005,14.2941995 43.3551276,14.4283063 43.5689095,14.4598608 L46.1161485,14.8306265 L44.2702088,16.6213457 C44.1124362,16.7712297 44.0414385,16.9921114 44.0808817,17.2051044 L44.5155452,19.7452436 Z M31.1758701,19.7452436 L27.6259861,17.8756381 C27.4366589,17.7730858 27.2,17.7730858 27.0106729,17.8756381 L23.4607889,19.7452436 L24.1392111,15.7851508 C24.1786543,15.5721578 24.1076566,15.3512761 23.949884,15.2013921 L21.0784223,12.4009281 L25.0464037,11.825058 C25.2593968,11.7935035 25.4487239,11.6593968 25.5433875,11.462181 L27.3183295,7.8649652 L29.0932715,11.462181 C29.1958237,11.6593968 29.3772622,11.7935035 29.5981439,11.825058 L33.5661253,12.4009281 L30.6867749,15.2013921 C30.536891,15.3512761 30.4658933,15.5721578 30.4974478,15.7851508 L31.1758701,19.7452436 Z M15.2881671,19.7452436 L13.0162413,18.5461717 C12.9215777,18.4988399 12.8111369,18.4672854 12.7085847,18.4672854 C12.5981439,18.4672854 12.4955916,18.4988399 12.4009281,18.5461717 L10.1211137,19.7452436 L10.5549884,17.2051044 C10.5944316,16.9921114 10.5234339,16.7791183 10.3656613,16.6213457 L8.52761021,14.8306265 L11.0677494,14.4598608 C11.2886311,14.4283063 11.4700696,14.2941995 11.5647332,14.0969838 L12.7085847,11.7935035 L13.8445476,14.0969838 C13.9392111,14.2941995 14.1285383,14.4283063 14.3415313,14.4598608 L16.8816705,14.8306265 L15.0436195,16.6213457 C14.8858469,16.7712297 14.8148492,16.9921114 14.8542923,17.2051044 L15.2881671,19.7452436 Z" id="Shape"></path>
                </g>
            </g>
        </g>
    </g>
</svg>