<?xml version="1.0" encoding="UTF-8"?>
<svg width="353px" height="353px" viewBox="0 0 353 353" version="1.1" xmlns="http://www.w3.org/2000/svg" xmlns:xlink="http://www.w3.org/1999/xlink">
    <!-- Generator: Sketch 50.2 (55047) - http://www.bohemiancoding.com/sketch -->
    <title>Oval Copy 2</title>
    <desc>Created with Sketch.</desc>
    <defs></defs>
    <g id="v2" stroke="none" stroke-width="1" fill="none" fill-rule="evenodd">
        <g id="organize" transform="translate(-934.000000, -11020.000000)">
            <g id="Oval-Copy-2" transform="translate(934.000000, 11020.000000)">
                <circle fill="#FFFFFF" fill-rule="evenodd" cx="176.5" cy="176.5" r="176.5"></circle>
                <g id="icomarks-logo-light" transform="translate(91.000000, 139.000000)" fill="#000000" fill-rule="evenodd" stroke-width="1">
                    <g id="ICOmarks">
                        <g fill-rule="nonzero">
                            <g id="IC" transform="translate(0.000000, 6.759398)">
                                <polygon id="Shape" points="5.68703428 24.1007519 0.0947839046 24.1007519 0.0947839046 0.186466165 5.68703428 0.186466165"></polygon>
                                <path d="M19.4780924,24.0541353 C17.914158,24.0541353 16.3976155,23.7744361 14.881073,23.1917293 C13.4119225,22.6090226 12.0375559,21.7466165 10.8764531,20.581203 C9.7390462,19.462406 8.86229508,18.1338346 8.2461997,16.6887218 C7.6538003,15.243609 7.32205663,13.7052632 7.32205663,12.1203008 C7.32205663,10.4887218 7.6538003,8.95037594 8.2461997,7.50526316 C8.83859911,6.06015038 9.71535022,4.80150376 10.8764531,3.6593985 C12.0612519,2.49398496 13.4119225,1.63157895 14.928465,1.04887218 C16.4450075,0.466165414 17.9615499,0.186466165 19.5254844,0.186466165 C21.0894188,0.186466165 22.6059613,0.466165414 24.0751118,1.04887218 C25.5442623,1.63157895 26.9186289,2.49398496 28.0797317,3.6593985 L24.1225037,7.5518797 C23.4827124,6.92255639 22.7481371,6.45639098 21.9187779,6.15338346 C21.0894188,5.82706767 20.2600596,5.71052632 19.4307004,5.71052632 C18.6013413,5.71052632 17.7719821,5.85037594 16.942623,6.15338346 C16.1132638,6.47969925 15.4260805,6.92255639 14.7862891,7.5518797 C14.1938897,8.18120301 13.6725782,8.9037594 13.3645306,9.67293233 C13.0327869,10.4421053 12.8669151,11.3045113 12.8669151,12.1669173 C12.8669151,13.0293233 13.0564829,13.8451128 13.3645306,14.6142857 C13.6962742,15.3834586 14.1938897,16.106015 14.7862891,16.6887218 C15.4260805,17.3180451 16.1606557,17.7842105 16.942623,18.087218 C17.7719821,18.4135338 18.5539493,18.5300752 19.4307004,18.5300752 C20.2600596,18.5300752 21.0894188,18.3902256 21.9187779,18.087218 C22.7481371,17.7609023 23.4827124,17.3180451 24.1225037,16.6887218 L28.0797317,20.581203 C26.8949329,21.7466165 25.5442623,22.6090226 24.0751118,23.1917293 C22.6059613,23.7744361 21.0420268,24.0541353 19.4780924,24.0541353 Z" id="Shape"></path>
                            </g>
                            <g id="marks" transform="translate(58.766021, 0.000000)">
                                <path d="M22.9140089,8.76390977 C25.3073025,8.76390977 27.1792846,9.43984962 28.6958271,10.8383459 C30.1649776,12.2368421 30.8995529,14.3112782 30.8995529,17.1548872 L30.8995529,27.9932331 L28.9327869,27.9932331 L28.9327869,16.9684211 C28.838003,14.893985 28.2929955,13.3090226 27.2740686,12.1669173 C26.2551416,11.0714286 24.6438152,10.5353383 22.4874814,10.5353383 C21.2552906,10.5353383 20.0941878,10.8150376 19.0515648,11.3511278 C17.9852459,11.887218 16.9900149,12.7962406 16.0184799,14.1015038 C16.3028316,14.9639098 16.4213115,15.9894737 16.4213115,17.224812 L16.4213115,27.9699248 L14.5019374,27.9699248 L14.5019374,17.1315789 C14.5019374,12.7962406 12.3456036,10.6285714 8.03293592,10.6285714 C5.49746647,10.6285714 3.53070045,11.6774436 2.01415797,13.7052632 L2.01415797,27.9932331 L0.0473919523,27.9932331 L0.0473919523,9.48646617 L1.65871833,9.48646617 L2.03785395,11.3744361 C3.83874814,9.64962406 5.94769001,8.83383459 8.29359165,8.83383459 C11.4688525,8.83383459 13.8147541,10.0924812 15.3312966,12.5864662 C16.4450075,11.3278195 17.5350224,10.3721805 18.6487332,9.74285714 C19.7387481,9.06691729 21.1842027,8.76390977 22.9140089,8.76390977 Z" id="Shape"></path>
                                <path d="M33.9800298,22.6789474 C33.8852459,21.5601504 34.1222057,20.5112782 34.5724292,19.6022556 C35.0226528,18.6932331 35.6861401,18.0172932 36.4444113,17.481203 C37.2263785,16.9451128 38.1505216,16.5721805 39.1457526,16.3157895 C40.1409836,16.0593985 41.2073025,15.9428571 42.3210134,15.9894737 C43.9323398,16.0360902 45.3540984,16.362406 46.5388972,16.9917293 C47.723696,17.6210526 48.742623,18.2969925 49.4771982,19.1593985 L49.4771982,18.3902256 C49.4771982,15.7796992 48.9321908,13.8218045 47.8658718,12.5631579 C46.7995529,11.3045113 45.1645306,10.7218045 42.9134128,10.7218045 C41.5864382,10.7218045 40.2831595,11.0015038 39.0983607,11.4909774 C37.8661699,11.9804511 36.8946349,12.7030075 36.1126677,13.6120301 L35.0463487,11.9804511 C36.0178838,10.9781955 37.1552906,10.2090226 38.5770492,9.67293233 C39.9514158,9.13684211 41.4205663,8.85714286 42.8897168,8.85714286 C45.685842,8.85714286 47.7947839,9.62631579 49.2639344,11.1180451 C50.685693,12.6097744 51.4202683,14.9639098 51.4202683,18.1571429 L51.4202683,28.1097744 L49.8089419,28.1097744 L49.4298063,26.2218045 C48.695231,26.8511278 47.676304,27.4338346 46.3019374,27.9466165 C44.9275708,28.4360902 43.6005961,28.7157895 42.2973174,28.762406 C39.8092399,28.8090226 37.795082,28.3661654 36.3259314,27.3172932 C34.9515648,26.2451128 34.0748137,24.7067669 33.9800298,22.6789474 Z M49.5245902,24.5203008 L49.5245902,21.5368421 C49.0743666,20.6278195 48.1502235,19.7654135 46.8232489,18.9962406 C45.4962742,18.2270677 44.0271237,17.7842105 42.4631893,17.6909774 C41.6338301,17.6443609 40.8518629,17.6909774 40.0698957,17.8774436 C39.2879285,18.0172932 38.6007452,18.2736842 37.9609538,18.6466165 C37.3211624,19.0195489 36.8235469,19.5556391 36.4444113,20.2315789 C36.0652757,20.9075188 35.9467958,21.7233083 35.9941878,22.6323308 C36.0889717,24.0308271 36.6813711,25.1263158 37.8661699,25.8488722 C39.0509687,26.5714286 40.5201192,26.9443609 42.3684054,26.9676692 C43.69538,26.9676692 44.9986587,26.781203 46.2308495,26.3383459 C47.4630402,25.918797 48.5530551,25.2894737 49.5245902,24.5203008 Z" id="Shape"></path>
                                <path d="M64.4530551,8.88045113 L64.0502235,10.7684211 C63.8606557,10.7684211 63.6,10.7218045 63.2208644,10.7218045 C60.2825633,10.7218045 58.1262295,11.7240602 56.657079,13.7052632 L56.657079,27.9932331 L54.690313,27.9932331 L54.690313,9.48646617 L56.2542474,9.48646617 L56.657079,11.3744361 C58.4579732,9.64962406 60.7564829,8.83383459 63.4578241,8.83383459 C63.6710879,8.83383459 64.0028316,8.83383459 64.4530551,8.88045113 Z" id="Shape"></path>
                                <path d="M69.3581222,0.069924812 L69.3581222,27.9932331 L67.3913562,27.9932331 L67.3913562,0.069924812 L69.3581222,0.069924812 Z M82.2250373,9.48646617 L72.9836066,18.7165414 L82.5804769,27.9699248 L79.8317437,27.9699248 L70.4244411,18.7165414 L79.523696,9.48646617 L82.2250373,9.48646617 Z" id="Shape"></path>
                                <path d="M99.1439642,10.6984962 L98.1724292,12.3300752 C97.5800298,11.8406015 96.7506706,11.3744361 95.5895678,10.9781955 C94.452161,10.5819549 93.2910581,10.3488722 92.1536513,10.3488722 C90.8266766,10.3488722 89.7603577,10.6285714 88.9783905,11.1646617 C88.1964232,11.7007519 87.7461997,12.4699248 87.6988077,13.4255639 C87.6040238,14.5443609 88.1016393,15.4067669 89.0731744,15.9661654 C89.9499255,16.4556391 91.1347243,16.8285714 92.6512668,17.1315789 C94.6180328,17.5278195 96.1819672,17.9473684 97.2482861,18.3902256 C98.4330849,18.8796992 99.2150522,19.6022556 99.6889717,20.6511278 C100.091803,21.6533835 100.186587,22.7721805 99.9733234,24.0308271 C99.6415797,25.6157895 98.6463487,26.781203 97.0350224,27.5037594 C95.8502235,28.0398496 94.381073,28.3195489 92.6275708,28.3195489 C91.1584203,28.3195489 89.6892697,28.0398496 88.2201192,27.5037594 C86.7509687,26.9676692 85.5898659,26.3383459 84.7368107,25.6157895 L85.7083458,23.9842105 L85.8979136,24.1706767 C86.490313,24.7533835 87.461848,25.2894737 88.7414307,25.8022556 C90.0684054,26.2917293 91.3716841,26.524812 92.6512668,26.524812 C94.1678092,26.5714286 95.4,26.3383459 96.3241431,25.8488722 C97.2956781,25.3593985 97.8880775,24.6368421 98.0776453,23.681203 C98.409389,22.0496241 97.8406855,20.9308271 96.3241431,20.2548872 C95.3052161,19.8120301 93.9782414,19.4390977 92.3195231,19.1360902 C90.3053651,18.7398496 88.8836066,18.2270677 88.0068554,17.7842105 C86.2533532,16.7819549 85.471386,15.3834586 85.6135618,13.5887218 C85.7557377,11.9105263 86.490313,10.6052632 87.9120715,9.6962406 C88.9783905,8.97368421 90.400149,8.64736842 92.0825633,8.64736842 C94.8549925,8.53082707 97.1535022,9.25338346 99.1439642,10.6984962 Z" id="Shape"></path>
                            </g>
                            <path d="M40.4727273,6.71278195 C33.766766,6.71278195 28.2929955,12.0969925 28.2929955,18.6932331 C28.2929955,25.2894737 33.766766,30.6736842 40.4727273,30.6736842 C47.1786885,30.6736842 52.652459,25.2894737 52.652459,18.6932331 C52.652459,12.0969925 47.1786885,6.71278195 40.4727273,6.71278195 Z M46.2071535,20.2781955 L47.2734724,26.3849624 C47.2734724,26.4315789 47.2734724,26.524812 47.2734724,26.6180451 C47.2734724,26.8045113 47.2260805,26.9443609 47.1312966,27.0609023 C47.0365127,27.2007519 46.8943368,27.2473684 46.752161,27.2473684 C46.6099851,27.2473684 46.4204173,27.2007519 46.2545455,27.1075188 L40.6859911,24.2639098 L35.1174367,27.1541353 C34.9278689,27.2473684 34.738301,27.293985 34.6198212,27.293985 C34.4302534,27.293985 34.2880775,27.2473684 34.2169896,27.1075188 C34.1222057,26.9676692 34.0748137,26.8278195 34.0748137,26.6646617 C34.0748137,26.6180451 34.0748137,26.524812 34.1222057,26.4315789 L35.1885246,20.2781955 L30.6862891,15.9428571 C30.4493294,15.7097744 30.3545455,15.5466165 30.3545455,15.3601504 C30.3545455,15.0338346 30.5915052,14.8706767 31.0417288,14.8240602 L37.2974665,13.9150376 L40.0935917,8.36766917 C40.2357675,8.04135338 40.4727273,7.87819549 40.6859911,7.87819549 C40.9229508,7.87819549 41.1362146,8.06466165 41.2783905,8.36766917 L44.0745156,13.9150376 L50.3302534,14.8240602 C50.7804769,14.9172932 51.0174367,15.1037594 51.0174367,15.3601504 C51.0174367,15.5466165 50.9226528,15.7330827 50.685693,15.9428571 L46.2071535,20.2781955 Z" id="logo"></path>
                        </g>
                    </g>
                </g>
            </g>
        </g>
    </g>
</svg>
