<?xml version="1.0" encoding="UTF-8"?>
<svg width="26px" height="26px" viewBox="0 0 26 26" version="1.1" xmlns="http://www.w3.org/2000/svg" xmlns:xlink="http://www.w3.org/1999/xlink">
    <!-- Generator: Sketch 49.1 (51147) - http://www.bohemiancoding.com/sketch -->
    <title>ship-ico</title>
    <desc>Created with Sketch.</desc>
    <defs></defs>
    <g id="Page-1" stroke="none" stroke-width="1" fill="none" fill-rule="evenodd">
        <g id="menlo-home-copy-30" transform="translate(-927.000000, -889.000000)" fill="#8C74F4" fill-rule="nonzero">
            <g id="3-points" transform="translate(140.000000, 885.000000)">
                <g id="ship-faster" transform="translate(785.000000, 4.000000)">
                    <g id="ship-ico" transform="translate(2.000000, 0.000000)">
                        <path d="M13,2.31111111 C18.9028667,2.31111111 23.6877333,7.09655556 23.6877333,13 C23.6877333,18.9031556 18.9028667,23.6888889 13,23.6888889 C7.09742222,23.6888889 2.31226667,18.9031556 2.31226667,13 C2.31226667,7.09655556 7.09742222,2.31111111 13,2.31111111 Z M0,13 C0,20.1797556 5.82024444,26 13,26 C20.1797556,26 26,20.1797556 26,13 C26,5.82024444 20.1797556,0 13,0 C5.82024444,0 0,5.82024444 0,13 Z" id="Shape"></path>
                        <path d="M20.8462825,17.4225133 C20.5294118,17.9747127 19.8277083,18.1637825 19.2791349,17.8453947 C19.2777011,17.8445287 19.2765541,17.8433741 19.2751203,17.8425081 L12.5738083,13.9479587 C12.2058942,13.7340644 12.0051617,13.3466878 12.0048749,12.9483422 L12,12.9483422 L12,5.1546248 C12,4.51698326 12.5135885,4 13.147043,4 C13.7804975,4 14.294086,4.51698326 14.294086,5.1546248 L14.294086,12.2812577 L20.426178,15.8450072 C20.9747513,16.164261 21.1628663,16.870314 20.8462825,17.4225133 Z" id="Shape"></path>
                    </g>
                </g>
            </g>
        </g>
    </g>
</svg>