<?xml version="1.0" encoding="UTF-8"?>
<svg width="469px" height="635px" viewBox="0 0 469 635" version="1.1" xmlns="http://www.w3.org/2000/svg" xmlns:xlink="http://www.w3.org/1999/xlink">
    <!-- Generator: Sketch 50.2 (55047) - http://www.bohemiancoding.com/sketch -->
    <title>menlotoken</title>
    <desc>Created with Sketch.</desc>
    <defs>
        <linearGradient x1="0%" y1="50%" x2="100%" y2="50%" id="linearGradient-1">
            <stop stop-color="#BEADF6" stop-opacity="0" offset="0%"></stop>
            <stop stop-color="#B8B8B8" offset="100%"></stop>
        </linearGradient>
    </defs>
    <g id="v2" stroke="none" stroke-width="1" fill="none" fill-rule="evenodd">
        <g id="organize" transform="translate(-786.000000, -8870.000000)">
            <g id="met" transform="translate(129.000000, 8869.000000)">
                <g id="menlotoken" transform="translate(657.000000, 0.000000)">
                    <g id="Group-7">
                        <g id="Group" opacity="0.4" transform="translate(71.000000, 287.554054)" fill="url(#linearGradient-1)" fill-rule="nonzero">
                            <polygon id="Shape" points="397.22807 84.3725676 344.77193 199.008446 146.912281 229.762703 1.43859649 145.810946 53.8245614 31.14 251.754386 0.420810811"></polygon>
                        </g>
                        <g id="Group" transform="translate(71.000000, 182.351351)" fill-rule="nonzero">
                            <polygon id="Shape" fill="#A86523" points="397.22807 84.582973 397.122807 113.724122 344.701754 228.395068 344.77193 199.218851"></polygon>
                            <polygon id="Shape" fill="#E88C31" points="344.77193 199.218851 344.701754 228.395068 146.807018 259.114257 146.912281 229.938041"></polygon>
                            <polygon id="Shape" fill="#995C20" points="146.912281 229.938041 146.807018 259.114257 1.33333333 175.1625 1.43859649 146.021351"></polygon>
                            <polygon id="Shape" fill="#B86F27" points="397.22807 84.582973 344.77193 199.218851 146.912281 229.938041 1.43859649 146.021351 53.8245614 31.3504054 251.754386 0.631216216"></polygon>
                        </g>
                        <g id="Group" transform="translate(71.000000, 136.763514)" fill-rule="nonzero">
                            <polygon id="Shape" fill="#A86523" points="397.22807 84.8635135 397.122807 114.004662 344.701754 228.675608 344.77193 199.499392"></polygon>
                            <polygon id="Shape" fill="#E88C31" points="344.77193 199.499392 344.701754 228.675608 146.807018 259.394797 146.912281 230.253649"></polygon>
                            <polygon id="Shape" fill="#995C20" points="146.912281 230.253649 146.807018 259.394797 1.33333333 175.443041 1.43859649 146.301892"></polygon>
                            <polygon id="Shape" fill="#B86F27" points="397.22807 84.8635135 344.77193 199.499392 146.912281 230.253649 1.43859649 146.301892 53.8245614 31.6309459 251.754386 0.911756757"></polygon>
                        </g>
                        <g id="Group" transform="translate(71.000000, 91.175676)" fill-rule="nonzero">
                            <polygon id="Shape" fill="#A86523" points="397.22807 85.1440541 397.122807 114.285203 344.701754 228.956149 344.77193 199.779932"></polygon>
                            <polygon id="Shape" fill="#E88C31" points="344.77193 199.779932 344.701754 228.956149 146.807018 259.675338 146.912281 230.534189"></polygon>
                            <polygon id="Shape" fill="#995C20" points="146.912281 230.534189 146.807018 259.675338 1.33333333 175.758649 1.43859649 146.582432"></polygon>
                            <polygon id="Shape" fill="#B86F27" points="397.22807 85.1440541 344.77193 199.779932 146.912281 230.534189 1.43859649 146.582432 53.8245614 31.9114865 251.754386 1.1922973"></polygon>
                        </g>
                        <g id="Group" transform="translate(71.000000, 45.587838)" fill-rule="nonzero">
                            <polygon id="Shape" fill="#A86523" points="397.22807 85.4245946 397.122807 114.600811 344.701754 229.236689 344.77193 200.060473"></polygon>
                            <polygon id="Shape" fill="#E88C31" points="344.77193 200.060473 344.701754 229.236689 146.807018 259.955878 146.912281 230.81473"></polygon>
                            <polygon id="Shape" fill="#995C20" points="146.912281 230.81473 146.807018 259.955878 1.33333333 176.039189 1.43859649 146.862973"></polygon>
                            <polygon id="Shape" fill="#B86F27" points="397.22807 85.4245946 344.77193 200.060473 146.912281 230.81473 1.43859649 146.862973 53.8245614 32.192027 251.754386 1.47283784"></polygon>
                        </g>
                        <g id="Group" transform="translate(71.000000, 0.000000)" fill-rule="nonzero">
                            <polygon id="Shape" fill="#A86523" points="397.22807 85.7051351 397.122807 114.881351 344.701754 229.51723 344.77193 200.341014"></polygon>
                            <polygon id="Shape" fill="#E88C31" points="344.77193 200.341014 344.701754 229.51723 146.807018 260.271486 146.912281 231.09527"></polygon>
                            <polygon id="Shape" fill="#995C20" points="146.912281 231.09527 146.807018 260.271486 1.33333333 176.31973 1.43859649 147.143514"></polygon>
                            <polygon id="Shape" fill="#E89C51" points="397.22807 85.7051351 344.77193 200.341014 146.912281 231.09527 1.43859649 147.143514 53.8245614 32.4725676 251.754386 1.75337838"></polygon>
                        </g>
                        <g id="Group" opacity="0.2" transform="translate(134.157895, 35.067568)" fill="#995C20" fill-rule="nonzero">
                            <path d="M132.596491,165.168243 C60.4210526,165.168243 1.71929825,128.59277 1.71929825,83.6712162 C1.71929825,38.7496622 60.4210526,2.17418919 132.596491,2.17418919 C204.77193,2.17418919 263.438596,38.5743243 263.438596,83.6712162 C263.438596,128.768108 204.736842,165.168243 132.596491,165.168243 Z M132.596491,5.68094595 C62.4210526,5.68094595 5.22807018,40.7485135 5.22807018,83.6712162 C5.22807018,126.593919 62.3508772,161.661486 132.596491,161.661486 C202.842105,161.661486 259.929825,126.593919 259.929825,83.6712162 C259.929825,40.7485135 202.807018,5.68094595 132.596491,5.68094595 Z" id="Shape"></path>
                        </g>
                        <path d="M325.561404,117.441284 C325.846717,117.536888 326.081693,117.742952 326.213624,118.013256 C326.345556,118.283561 326.363402,118.595481 326.263158,118.879054 C326.146423,119.206254 325.888792,119.463737 325.561404,119.580405 C324.380511,120.174423 322.98791,120.174423 321.807018,119.580405 L269,89.1066892 L270.333333,109.831622 C270.333333,110.708311 269.280702,111.374595 267.807018,111.374595 C267.122865,111.402848 266.443836,111.245307 265.842105,110.918716 C265.414928,110.742424 265.109561,110.357619 265.035088,109.901757 L263.421053,85.3544595 C263.421053,84.7232432 264.052632,84.1270946 265.035088,83.9166892 C265.974388,83.5673762 267.008068,83.5673762 267.947368,83.9166892 L325.561404,117.441284 Z" id="Shape" fill="#FFFFFF" fill-rule="nonzero"></path>
                        <path d="M327.385965,83.1802703 C360.964912,102.64277 360.964912,134.203581 327.77193,153.701149 C294.578947,173.198716 239.77193,173.163649 205.982456,153.701149 C172.192982,134.238649 172.403509,102.64277 205.596491,83.1802703 C238.789474,63.7177703 293.666667,63.7177703 327.385965,83.1802703 Z M266.929825,165.238378 C286.797002,165.731862 306.456875,161.106535 324.017544,151.8075 C339.736842,142.689932 347.596491,130.766959 347.526316,118.703716 C347.45614,106.640473 339.561404,94.6824324 323.631579,85.5999324 C287.747297,67.3657011 245.305334,67.3657011 209.421053,85.5999324 C193.701754,94.7525676 185.842105,106.640473 185.912281,118.703716 C185.982456,130.766959 193.912281,142.689932 209.736842,151.8075 C227.375047,161.068056 247.081202,165.690067 267,165.238378 L266.929825,165.238378 Z" id="Shape" fill="#FFFFFF" fill-rule="nonzero"></path>
                        <path d="M292.052632,119.22973 C292.515281,119.436376 292.825789,119.881631 292.859649,120.386959 C292.859649,121.263649 291.596491,121.859797 290.087719,121.859797 L216.192982,120.106419 L268.824561,150.615203 C269.109875,150.710806 269.34485,150.916871 269.476782,151.187175 C269.608714,151.45748 269.626559,151.7694 269.526316,152.052973 C269.397934,152.372651 269.144423,152.626016 268.824561,152.754324 C267.643669,153.348342 266.251067,153.348342 265.070175,152.754324 L207.491228,119.51027 C206.684211,119.054392 206.508772,118.388108 206.894737,117.827027 C207.571555,117.156374 208.505563,116.811117 209.45614,116.880203 L290.157895,118.843986 C290.811762,118.812844 291.463056,118.945439 292.052632,119.22973 Z" id="Shape" fill="#FFFFFF" fill-rule="nonzero"></path>
                        <g id="Group-3" transform="translate(215.000000, 439.000000)" fill-rule="nonzero">
                            <g id="Group">
                                <polygon id="Shape" fill="#494D72" points="197.894737 41.4846154 197.842105 55.8673077 171.684211 112.307692 171.736842 97.925"></polygon>
                                <polygon id="Shape" fill="#4A4D69" points="171.736842 97.925 171.684211 112.307692 73 127.417308 73.0526316 113.086538"></polygon>
                                <polygon id="Shape" fill="#595C77" points="73.0526316 113.086538 73 127.417308 0.473684211 86.0865385 0.473684211 71.7557692"></polygon>
                                <polygon id="Shape" fill="#30334A" points="197.894737 41.4846154 171.736842 97.925 73.0526316 113.086538 0.473684211 71.7557692 26.6315789 15.3153846 125.315789 0.153846154"></polygon>
                            </g>
                            <g id="Group" opacity="0.2" transform="translate(30.315789, 15.576923)" fill="#919191">
                                <path d="M67.1052632,84.2692308 C30.2631579,84.2692308 0.0526315789,65.4730769 0.0526315789,42.4192308 C0.0526315789,19.3653846 30.1052632,0.517307692 67.1052632,0.517307692 C104.105263,0.517307692 134.105263,19.3134615 134.105263,42.4192308 C134.105263,65.525 104.052632,84.2692308 67.1052632,84.2692308 Z M67.1052632,5.70961538 C33.0526316,5.70961538 5.31578947,22.1692308 5.31578947,42.4192308 C5.31578947,62.6692308 32.8421053,79.0769231 67.1052632,79.0769231 C101.368421,79.0769231 128.842105,62.6173077 128.842105,42.4192308 C128.842105,22.2211538 101.263158,5.50192308 67.1052632,5.50192308 L67.1052632,5.70961538 Z" id="Shape"></path>
                            </g>
                            <path d="M126.736842,57.1134615 C126.88399,57.1608527 127.005773,57.2644021 127.074997,57.400987 C127.144221,57.5375719 127.155121,57.6958165 127.105263,57.8403846 C127.034622,57.9924423 126.899965,58.1063082 126.736842,58.1519231 C126.145328,58.4657876 125.433619,58.4657876 124.842105,58.1519231 L98.5263158,43.1461538 L99.2105263,53.5307692 C99.2105263,53.9461538 98.6842105,54.3096154 97.9473684,54.3096154 C97.6186334,54.3868626 97.2761034,54.3868626 96.9473684,54.3096154 C96.7377595,54.2449363 96.5908957,54.0586533 96.5789474,53.8423077 L95.7368421,41.6923077 C95.7368421,41.3807692 96.0526316,41.1211538 96.5789474,41.0173077 C97.0397207,40.8630076 97.5392267,40.8630076 98,41.0173077 L126.736842,57.1134615 Z" id="Shape" fill="#FFFFFF"></path>
                            <path d="M127.631579,40.2384615 C144.421053,49.8442308 144.421053,65.3692308 127.631579,74.975 C108.544581,84.5310686 85.9817348,84.5310686 66.8947368,74.975 C50.0526316,65.3692308 50.1578947,49.8442308 66.8947368,40.2384615 C85.9817348,30.6823929 108.544581,30.6823929 127.631579,40.2384615 Z M97.4736842,80.6346154 C107.396223,80.8454618 117.205277,78.5201177 125.947368,73.8846154 C133.005797,71.4932557 137.745621,64.9433568 137.745621,57.5807692 C137.745621,50.2181816 133.005797,43.6682828 125.947368,41.2769231 C108.056253,32.2964262 86.8911156,32.2964262 69,41.2769231 C62.3865123,44.2171766 57.8982645,50.4518776 57.2631579,57.5807692 C57.9515474,64.690205 62.4226871,70.9011409 69,73.8846154 C77.794028,78.4679652 87.6366299,80.7390211 97.5789474,80.4788462 L97.4736842,80.6346154 Z" id="Shape" fill="#FFFFFF"></path>
                            <path d="M110,57.9961538 C110.226081,58.0983744 110.37031,58.3219684 110.368421,58.5673077 C110.368421,58.9826923 109.736842,59.2942308 109,59.2942308 L72.1578947,58.4634615 L98.4736842,73.4692308 C98.6074088,73.5159699 98.716344,73.613988 98.7757954,73.7410654 C98.8352468,73.8681427 98.8401789,74.0135161 98.7894737,74.1442308 C98.7432364,74.3051581 98.6278167,74.4380017 98.4736842,74.5076923 C97.8821706,74.8215568 97.170461,74.8215568 96.5789474,74.5076923 L67.8947368,58.3076923 C67.4736842,58.0480769 67.3684211,57.7365385 67.5789474,57.4769231 C67.9079591,57.1426101 68.3713979,56.97116 68.8421053,57.0096154 L109.052632,57.9442308 C109.369234,57.91272 109.688884,57.9302393 110,57.9961538 Z" id="Shape" fill="#FFFFFF"></path>
                        </g>
                        <g id="Group-3-Copy" transform="translate(69.000000, 571.000000)" fill-rule="nonzero">
                            <g id="Group">
                                <polygon id="Shape" fill="#606AC5" points="99.9468368 21.0664062 99.9202552 28.3701172 86.7091972 57.03125 86.7357788 49.7275391"></polygon>
                                <polygon id="Shape" fill="#6B67F5" points="86.7357788 49.7275391 86.7091972 57.03125 36.8686869 64.7041016 36.8952685 57.4267578"></polygon>
                                <polygon id="Shape" fill="#5C64AD" points="36.8952685 57.4267578 36.8686869 64.7041016 0.23923445 43.7158203 0.23923445 36.4384766"></polygon>
                                <polygon id="Shape" fill="#98A2FE" points="99.9468368 21.0664062 86.7357788 49.7275391 36.8952685 57.4267578 0.23923445 36.4384766 13.4502924 7.77734375 63.2908028 0.078125"></polygon>
                            </g>
                            <g id="Group-Copy">
                                <polygon id="Shape" fill="#606AC5" points="99.9468368 21.0664062 99.9202552 28.3701172 86.7091972 57.03125 86.7357788 49.7275391"></polygon>
                                <polygon id="Shape" fill="#6B67F5" points="86.7357788 49.7275391 86.7091972 57.03125 36.8686869 64.7041016 36.8952685 57.4267578"></polygon>
                                <polygon id="Shape" fill="#5C64AD" points="36.8952685 57.4267578 36.8686869 64.7041016 0.23923445 43.7158203 0.23923445 36.4384766"></polygon>
                                <polygon id="Shape" fill="#98A2FE" points="99.9468368 21.0664062 86.7357788 49.7275391 36.8952685 57.4267578 0.23923445 36.4384766 13.4502924 7.77734375 63.2908028 0.078125"></polygon>
                            </g>
                            <g id="Group" opacity="0.2" transform="translate(15.311005, 7.910156)" fill="#7A759E">
                                <path d="M33.891547,42.7929688 C15.2844232,42.7929688 0.0265816055,33.2480469 0.0265816055,21.5410156 C0.0265816055,9.83398438 15.2046784,0.262695313 33.891547,0.262695313 C52.5784157,0.262695313 67.7299309,9.80761719 67.7299309,21.5410156 C67.7299309,33.2744141 52.5518341,42.7929688 33.891547,42.7929688 Z M33.891547,2.89941406 C16.6932483,2.89941406 2.68474216,11.2578125 2.68474216,21.5410156 C2.68474216,31.8242188 16.5869219,40.15625 33.891547,40.15625 C51.1961722,40.15625 65.0717703,31.7978516 65.0717703,21.5410156 C65.0717703,11.2841797 51.143009,2.79394531 33.891547,2.79394531 L33.891547,2.89941406 Z" id="Shape"></path>
                            </g>
                            <path d="M64.0085061,29.0029297 C64.0828231,29.0269955 64.1443297,29.0795792 64.1792915,29.1489387 C64.2142532,29.2182983 64.2197583,29.2986568 64.1945774,29.3720703 C64.1588998,29.4492871 64.0908916,29.5071096 64.0085061,29.5302734 C63.7097619,29.6896578 63.3503126,29.6896578 63.0515683,29.5302734 L49.7607656,21.9101563 L50.1063264,27.1835938 C50.1063264,27.3945313 49.8405104,27.5791016 49.4683679,27.5791016 C49.3023401,27.6183286 49.1293452,27.6183286 48.9633174,27.5791016 C48.8574543,27.5462567 48.7832806,27.4516599 48.7772461,27.3417969 L48.3519405,21.171875 C48.3519405,21.0136719 48.5114301,20.8818359 48.7772461,20.8291016 C49.00996,20.750746 49.2622357,20.750746 49.4949495,20.8291016 L64.0085061,29.0029297 Z" id="Shape" fill="#FFFFFF"></path>
                            <path d="M64.4603934,20.4335938 C72.9399256,25.3115234 72.9399256,33.1953125 64.4603934,38.0732422 C54.8204954,42.9259333 43.4251186,42.9259333 33.7852206,38.0732422 C25.2791069,33.1953125 25.3322701,25.3115234 33.7852206,20.4335938 C43.4251186,15.5809026 54.8204954,15.5809026 64.4603934,20.4335938 Z M49.2291334,40.9472656 C54.2405168,41.0543361 59.1945843,39.8734973 63.609782,37.5195313 C67.1746449,36.3051689 69.5684954,32.9790484 69.5684954,29.2402344 C69.5684954,25.5014204 67.1746449,22.1752998 63.609782,20.9609375 C54.5738651,16.400529 43.8844018,16.400529 34.8484848,20.9609375 C31.5083395,22.454035 29.2415477,25.6200941 28.9207868,29.2402344 C29.2684583,32.8504947 31.5266096,36.0044856 34.8484848,37.5195313 C39.2899131,39.8470136 44.2609242,41.0002842 49.2822967,40.8681641 L49.2291334,40.9472656 Z" id="Shape" fill="#FFFFFF"></path>
                            <path d="M55.5555556,29.4511719 C55.6697379,29.5030808 55.7425806,29.6166246 55.7416268,29.7412109 C55.7416268,29.9521484 55.4226475,30.1103516 55.0505051,30.1103516 L36.4433812,29.6884766 L49.7341839,37.3085937 C49.8017216,37.3323285 49.8567394,37.3821033 49.8867653,37.4466347 C49.9167913,37.5111662 49.9192823,37.5849886 49.8936736,37.6513672 C49.8703214,37.7330881 49.8120286,37.8005477 49.7341839,37.8359375 C49.4354397,37.9953218 49.0759904,37.9953218 48.7772461,37.8359375 L34.2902711,29.609375 C34.0776183,29.4775391 34.0244551,29.3193359 34.1307815,29.1875 C34.2969491,29.0177317 34.531009,28.9306672 34.76874,28.9501953 L55.0770867,29.4248047 C55.2369869,29.4088031 55.3984262,29.4176996 55.5555556,29.4511719 Z" id="Shape" fill="#FFFFFF"></path>
                        </g>
                        <g id="Group-3-Copy-2" transform="translate(0.000000, 404.000000)" fill-rule="nonzero">
                            <g id="Group">
                                <polygon id="Shape" fill="#606AC5" points="169.909623 35.6508413 169.864434 48.0109675 147.405635 96.5144231 147.450824 84.1542969"></polygon>
                                <polygon id="Shape" fill="#6B67F5" points="147.450824 84.1542969 147.405635 96.5144231 62.6767677 109.499249 62.7219564 97.183744"></polygon>
                                <polygon id="Shape" fill="#5C64AD" points="62.7219564 97.183744 62.6767677 109.499249 0.406698565 73.980619 0.406698565 61.6651142"></polygon>
                                <polygon id="Shape" fill="#98A2FE" points="169.909623 35.6508413 147.450824 84.1542969 62.7219564 97.183744 0.406698565 61.6651142 22.8654971 13.1616587 107.594365 0.132211538"></polygon>
                            </g>
                            <g id="Group-Copy">
                                <polygon id="Shape" fill="#AD7B3C" points="169.909623 35.6508413 169.864434 48.0109675 147.405635 96.5144231 147.450824 84.1542969"></polygon>
                                <polygon id="Shape" fill="#D5984A" points="147.450824 84.1542969 147.405635 96.5144231 62.6767677 109.499249 62.7219564 97.183744"></polygon>
                                <polygon id="Shape" fill="#AD7B3C" points="62.7219564 97.183744 62.6767677 109.499249 0.406698565 73.980619 0.406698565 61.6651142"></polygon>
                                <polygon id="Shape" fill="#F2CD80" points="169.909623 35.6508413 147.450824 84.1542969 62.7219564 97.183744 0.406698565 61.6651142 22.8654971 13.1616587 107.594365 0.132211538"></polygon>
                            </g>
                            <g id="Group" opacity="0.2" transform="translate(26.028708, 13.386418)" fill="#7A759E">
                                <path d="M57.61563,72.4188702 C25.9835194,72.4188702 0.0451887294,56.2659255 0.0451887294,36.4540264 C0.0451887294,16.6421274 25.8479532,0.444561298 57.61563,0.444561298 C89.3833068,0.444561298 115.140883,16.597506 115.140883,36.4540264 C115.140883,56.3105469 89.338118,72.4188702 57.61563,72.4188702 Z M57.61563,4.90670072 C28.3785221,4.90670072 4.56406167,19.0516827 4.56406167,36.4540264 C4.56406167,53.8563702 28.1977671,67.9567308 57.61563,67.9567308 C87.0334928,67.9567308 110.62201,53.8117488 110.62201,36.4540264 C110.62201,19.0963041 86.9431154,4.72821514 57.61563,4.72821514 L57.61563,4.90670072 Z" id="Shape"></path>
                            </g>
                            <path d="M108.81446,49.081881 C108.940799,49.1226078 109.04536,49.2115955 109.104795,49.3289732 C109.164231,49.4463509 109.173589,49.5823423 109.130781,49.7065805 C109.07013,49.8372551 108.954516,49.9351086 108.81446,49.9743089 C108.306595,50.2440362 107.695531,50.2440362 107.187666,49.9743089 L84.5933014,37.078726 L85.1807549,46.0030048 C85.1807549,46.359976 84.7288676,46.6723257 84.0962254,46.6723257 C83.8139782,46.73871 83.5198868,46.73871 83.2376396,46.6723257 C83.0576723,46.6167422 82.9315771,46.4566552 82.9213184,46.2707332 L82.1982988,35.8293269 C82.1982988,35.5615986 82.4694312,35.3384916 82.9213184,35.2492488 C83.3169319,35.1166471 83.7458007,35.1166471 84.1414141,35.2492488 L108.81446,49.081881 Z" id="Shape" fill="#FFFFFF"></path>
                            <path d="M109.582669,34.5799279 C123.997873,42.8348858 123.997873,56.1766827 109.582669,64.4316406 C93.1948422,72.6438871 73.8227016,72.6438871 57.4348751,64.4316406 C42.9744817,56.1766827 43.0648591,42.8348858 57.4348751,34.5799279 C73.8227016,26.3676814 93.1948422,26.3676814 109.582669,34.5799279 Z M83.6895268,69.2953726 C92.2088786,69.4765687 100.630793,67.4782262 108.136629,63.4945913 C114.196896,61.4395166 118.266442,55.8106973 118.266442,49.4834736 C118.266442,43.1562498 114.196896,37.5274305 108.136629,35.4723558 C92.7755706,27.7547413 74.6034831,27.7547413 59.2424242,35.4723558 C53.5641772,37.9991362 49.7106311,43.3570823 49.1653376,49.4834736 C49.7563791,55.5931449 53.5952364,60.9306679 59.2424242,63.4945913 C66.7928523,67.4334076 75.2435711,69.3850963 83.7799043,69.1615084 L83.6895268,69.2953726 Z" id="Shape" fill="#FFFFFF"></path>
                            <path d="M94.4444444,49.8404447 C94.6385544,49.9282905 94.7623871,50.1204416 94.7607656,50.33128 C94.7607656,50.6882512 94.2185008,50.9559796 93.5858586,50.9559796 L61.953748,50.2420373 L84.5481127,63.1376202 C84.6629267,63.1777866 84.756457,63.262021 84.8075011,63.371228 C84.8585452,63.4804351 84.8627799,63.6053654 84.8192451,63.7176983 C84.7795464,63.8559952 84.6804487,63.9701577 84.5481127,64.0300481 C84.0402475,64.2997754 83.4291837,64.2997754 82.9213184,64.0300481 L58.2934609,50.1081731 C57.9319511,49.8850661 57.8415736,49.6173377 58.0223285,49.3942308 C58.3048134,49.1069305 58.7027154,48.9595906 59.1068581,48.9926382 L93.6310473,49.7958233 C93.9028777,49.7687438 94.1773246,49.7837994 94.4444444,49.8404447 Z" id="Shape" fill="#FFFFFF"></path>
                        </g>
                    </g>
                </g>
            </g>
        </g>
    </g>
</svg>