<?xml version="1.0" encoding="UTF-8"?>
<svg width="570px" height="107px" viewBox="0 0 570 107" version="1.1" xmlns="http://www.w3.org/2000/svg" xmlns:xlink="http://www.w3.org/1999/xlink">
    <!-- Generator: Sketch 49.3 (51167) - http://www.bohemiancoding.com/sketch -->
    <title>Page 1</title>
    <desc>Created with Sketch.</desc>
    <defs>
        <polygon id="path-1" points="0 107 569.975351 107 569.975351 0.0830857143 0 0.0830857143"></polygon>
    </defs>
    <g id="v2" stroke="none" stroke-width="1" fill="none" fill-rule="evenodd">
        <g id="menlo-landing-v3" transform="translate(-430.000000, -7174.000000)">
            <g id="Group-29" transform="translate(-1449.000000, 0.000000)">
                <g id="townhall" transform="translate(1449.000000, 6240.000000)">
                    <g id="Group-25" transform="translate(173.000000, 836.000000)">
                        <g id="Page-1" transform="translate(257.000000, 98.000000)">
                            <polygon id="Fill-1" fill="#FFFFFF" points="0 13 0 30.193069 29.496315 30.193069 29.496315 106 48.3622749 106 48.3622749 30.193069 78 30.193069 78 13"></polygon>
                            <g id="Group-15">
                                <path d="M99.3377514,56.9777943 C95.9762919,60.5788229 94.2940216,65.1395086 94.2940216,70.6598514 C94.2940216,76.1771086 95.9762919,80.6915086 99.3377514,84.1999657 C102.702292,87.7053371 106.997319,89.4611086 112.228995,89.4611086 C117.365157,89.4611086 121.635535,87.6837371 125.046292,84.1289943 C128.453968,80.5742514 130.160886,76.0845371 130.160886,70.6598514 C130.160886,65.23208 128.453968,60.69608 125.046292,57.0487657 C121.635535,53.4014514 117.365157,51.5777943 112.228995,51.5777943 C106.997319,51.5777943 102.702292,53.3767657 99.3377514,56.9777943 M138.566076,44.7707086 C145.852832,51.7413371 149.49467,60.3227086 149.49467,70.5179086 C149.49467,80.7131086 145.852832,89.3191657 138.566076,96.33608 C131.2824,103.349909 122.455103,106.858366 112.087265,106.858366 C101.719427,106.858366 92.9660757,103.374594 85.8179676,96.4070514 C78.6729405,89.4364229 75.1019676,80.8087657 75.1019676,70.5179086 C75.1019676,60.3227086 78.6975892,51.7413371 85.8888324,44.7707086 C93.0800757,37.8031657 101.858076,34.3193943 112.228995,34.3193943 C122.5044,34.3193943 131.2824,37.8031657 138.566076,44.7707086" id="Fill-2" fill="#FFFFFF"></path>
                                <polygon id="Fill-4" fill="#FFFFFF" points="270.407076 35.8613257 238.18513 106.999383 232.019886 106.999383 211.986697 66.5888686 192.092157 106.999383 185.926914 106.999383 153.704968 35.8613257 173.599508 35.8613257 190.129508 75.42944 208.902535 34.3184686 215.209508 34.3184686 234.401562 74.58704 250.512535 35.8613257"></polygon>
                                <path d="M338.226908,41.9648686 C342.900908,47.0624686 345.233286,53.8201829 345.233286,62.2410971 L345.233286,105.314583 L326.460259,105.314583 L326.460259,64.7652114 C326.460259,60.74144 325.267881,57.4921829 322.886205,55.0143543 C320.50453,52.53344 317.3988,51.2960686 313.572097,51.2960686 C309.742314,51.2960686 306.587286,52.53344 304.116259,55.0143543 C301.63907,57.4921829 300.403557,60.74144 300.403557,64.7652114 L300.403557,105.314583 L281.4888,105.314583 L281.4888,35.8613257 L298.859935,35.8613257 L298.859935,42.1746971 C304.091611,36.93824 310.860746,34.3184686 319.173503,34.3184686 C327.208962,34.3184686 333.555989,36.8672686 338.226908,41.9648686" id="Fill-6" fill="#FFFFFF"></path>
                                <polygon id="Fill-8" fill="#FFFFFF" points="439.246622 105.315509 431.962946 105.315509 431.962946 58.5916229 375.080027 58.5916229 375.080027 105.315509 367.796351 105.315509 367.796351 12.7101371 375.080027 12.7101371 375.080027 51.9974514 431.962946 51.9974514 431.962946 12.7101371 439.246622 12.7101371"></polygon>
                                <path d="M496.625595,94.6509714 C501.157865,90.7228571 503.422459,85.8597714 503.422459,80.0586286 L503.422459,76.2693714 L480.585486,76.2693714 C475.073432,76.2693714 470.873919,77.2784 467.974622,79.2872 C465.081486,81.2990857 463.633378,84.1749714 463.633378,87.9148571 C463.633378,92.0312 465.266351,95.1662857 468.535378,97.3170286 C471.804405,99.4708571 475.729703,100.544686 480.305108,100.544686 C486.658297,100.544686 492.096405,98.5790857 496.625595,94.6509714 M503.628892,43.0177143 C508.253595,47.6 510.564405,54.1941714 510.564405,62.8002286 L510.564405,105.3152 L503.841486,105.3152 L503.841486,94.7929143 C498.424946,102.7448 490.346351,106.7192 479.605703,106.7192 C473.067649,106.7192 467.555595,105.105371 463.072622,101.877714 C458.589649,98.6500571 456.349703,94.1356571 456.349703,88.3376 C456.349703,82.8203429 458.497216,78.4232 462.792243,75.1492571 C467.08727,71.8753143 472.78727,70.2368 479.883,70.2368 L503.422459,70.2368 L503.422459,62.5194286 C503.422459,56.0672 501.740189,51.1547429 498.375649,47.7882286 C495.01727,44.4217143 490.485,42.7369143 484.788081,42.7369143 C476.940568,42.7369143 470.079,46.5261714 464.194135,54.1016 L459.289054,50.1734857 C465.827108,40.8206857 474.469541,36.1427429 485.207108,36.1427429 C492.866676,36.1427429 499.00727,38.4323429 503.628892,43.0177143" id="Fill-10" fill="#FFFFFF"></path>
                                <mask id="mask-2" fill="white">
                                    <use xlink:href="#path-1"></use>
                                </mask>
                                <g id="Clip-13"></g>
                                <polygon id="Fill-12" fill="#FFFFFF" mask="url(#mask-2)" points="532.709676 105.3152 539.712973 105.3152 539.712973 0.08 532.709676 0.08"></polygon>
                                <polygon id="Fill-14" fill="#FFFFFF" mask="url(#mask-2)" points="562.972054 105.3152 569.975351 105.3152 569.975351 0.08 562.972054 0.08"></polygon>
                            </g>
                        </g>
                    </g>
                </g>
            </g>
        </g>
    </g>
</svg>