<?xml version="1.0" encoding="UTF-8"?>
<svg width="185px" height="35px" viewBox="0 0 185 35" version="1.1" xmlns="http://www.w3.org/2000/svg" xmlns:xlink="http://www.w3.org/1999/xlink">
    <!-- Generator: Sketch 49.1 (51147) - http://www.bohemiancoding.com/sketch -->
    <title>Page 1</title>
    <desc>Created with Sketch.</desc>
    <defs>
        <polygon id="path-1" points="0 35 184.992 35 184.992 0.351 0 0.351"></polygon>
    </defs>
    <g id="Page-1" stroke="none" stroke-width="1" fill="none" fill-rule="evenodd">
        <g id="Artboard-2-Copy" transform="translate(-111.000000, -258.000000)">
            <g id="Page-1" transform="translate(111.000000, 257.000000)">
                <polygon id="Fill-1" fill="#FFFFFF" points="0 5.0926 0 10.6406 9.595 10.6406 9.595 35.1026 15.732 35.1026 15.732 10.6406 25.373 10.6406 25.373 5.0926"></polygon>
                <g id="Group-15" transform="translate(0.000000, 0.649400)">
                    <path d="M32.2412,18.7891 C31.1502,19.9561 30.6042,21.4341 30.6042,23.2231 C30.6042,25.0111 31.1502,26.4741 32.2412,27.6111 C33.3332,28.7471 34.7272,29.3161 36.4252,29.3161 C38.0922,29.3161 39.4782,28.7401 40.5852,27.5881 C41.6912,26.4361 42.2452,24.9811 42.2452,23.2231 C42.2452,21.4641 41.6912,19.9941 40.5852,18.8121 C39.4782,17.6301 38.0922,17.0391 36.4252,17.0391 C34.7272,17.0391 33.3332,17.6221 32.2412,18.7891 M44.9732,14.8331 C47.3382,17.0921 48.5202,19.8731 48.5202,23.1771 C48.5202,26.4811 47.3382,29.2701 44.9732,31.5441 C42.6092,33.8171 39.7442,34.9541 36.3792,34.9541 C33.0142,34.9541 30.1732,33.8251 27.8532,31.5671 C25.5342,29.3081 24.3752,26.5121 24.3752,23.1771 C24.3752,19.8731 25.5422,17.0921 27.8762,14.8331 C30.2102,12.5751 33.0592,11.4461 36.4252,11.4461 C39.7602,11.4461 42.6092,12.5751 44.9732,14.8331" id="Fill-2" fill="#FFFFFF"></path>
                    <polygon id="Fill-4" fill="#FFFFFF" points="87.7637 11.9458 77.3057 34.9998 75.3047 34.9998 68.8027 21.9038 62.3457 34.9998 60.3447 34.9998 49.8867 11.9458 56.3437 11.9458 61.7087 24.7688 67.8017 11.4458 69.8487 11.4458 76.0777 24.4958 81.3067 11.9458"></polygon>
                    <path d="M109.7754,13.9238 C111.2924,15.5758 112.0494,17.7658 112.0494,20.4948 L112.0494,34.4538 L105.9564,34.4538 L105.9564,21.3128 C105.9564,20.0088 105.5694,18.9558 104.7964,18.1528 C104.0234,17.3488 103.0154,16.9478 101.7734,16.9478 C100.5304,16.9478 99.5064,17.3488 98.7044,18.1528 C97.9004,18.9558 97.4994,20.0088 97.4994,21.3128 L97.4994,34.4538 L91.3604,34.4538 L91.3604,11.9458 L96.9984,11.9458 L96.9984,13.9918 C98.6964,12.2948 100.8934,11.4458 103.5914,11.4458 C106.1994,11.4458 108.2594,12.2718 109.7754,13.9238" id="Fill-6" fill="#FFFFFF"></path>
                    <polygon id="Fill-8" fill="#FFFFFF" points="142.5625 34.4541 140.1985 34.4541 140.1985 19.3121 121.7365 19.3121 121.7365 34.4541 119.3725 34.4541 119.3725 4.4431 121.7365 4.4431 121.7365 17.1751 140.1985 17.1751 140.1985 4.4431 142.5625 4.4431"></polygon>
                    <path d="M161.1855,30.998 C162.6565,29.725 163.3915,28.149 163.3915,26.269 L163.3915,25.041 L155.9795,25.041 C154.1905,25.041 152.8275,25.368 151.8865,26.019 C150.9475,26.671 150.4775,27.603 150.4775,28.815 C150.4775,30.149 151.0075,31.165 152.0685,31.862 C153.1295,32.56 154.4035,32.908 155.8885,32.908 C157.9505,32.908 159.7155,32.271 161.1855,30.998 M163.4585,14.265 C164.9595,15.75 165.7095,17.887 165.7095,20.676 L165.7095,34.454 L163.5275,34.454 L163.5275,31.044 C161.7695,33.621 159.1475,34.909 155.6615,34.909 C153.5395,34.909 151.7505,34.386 150.2955,33.34 C148.8405,32.294 148.1135,30.831 148.1135,28.952 C148.1135,27.164 148.8105,25.739 150.2045,24.678 C151.5985,23.617 153.4485,23.086 155.7515,23.086 L163.3915,23.086 L163.3915,20.585 C163.3915,18.494 162.8455,16.902 161.7535,15.811 C160.6635,14.72 159.1925,14.174 157.3435,14.174 C154.7965,14.174 152.5695,15.402 150.6595,17.857 L149.0675,16.584 C151.1895,13.553 153.9945,12.037 157.4795,12.037 C159.9655,12.037 161.9585,12.779 163.4585,14.265" id="Fill-10" fill="#FFFFFF"></path>
                    <mask id="mask-2" fill="white">
                        <use xlink:href="#path-1"></use>
                    </mask>
                    <g id="Clip-13"></g>
                    <polygon id="Fill-12" fill="#FFFFFF" mask="url(#mask-2)" points="172.897 34.454 175.17 34.454 175.17 0.35 172.897 0.35"></polygon>
                    <polygon id="Fill-14" fill="#FFFFFF" mask="url(#mask-2)" points="182.719 34.454 184.992 34.454 184.992 0.35 182.719 0.35"></polygon>
                </g>
            </g>
        </g>
    </g>
</svg>