<?xml version="1.0" encoding="UTF-8"?>
<svg width="263px" height="171px" viewBox="0 0 263 171" version="1.1" xmlns="http://www.w3.org/2000/svg" xmlns:xlink="http://www.w3.org/1999/xlink">
    <!-- Generator: Sketch 49.3 (51167) - http://www.bohemiancoding.com/sketch -->
    <title>TownHall_vote_svg</title>
    <desc>Created with Sketch.</desc>
    <defs>
        <linearGradient x1="-57.4793048%" y1="57.579705%" x2="115.392759%" y2="42.7072962%" id="linearGradient-1">
            <stop stop-color="#0F1563" offset="0%"></stop>
            <stop stop-color="#9A9DBE" stop-opacity="0.42" offset="60%"></stop>
            <stop stop-color="#FFFFFF" stop-opacity="0" offset="100%"></stop>
        </linearGradient>
        <linearGradient x1="12.2441682%" y1="51.6251649%" x2="389.581022%" y2="42.1730683%" id="linearGradient-2">
            <stop stop-color="#0F1563" offset="0%"></stop>
            <stop stop-color="#9A9DBE" stop-opacity="0.42" offset="60%"></stop>
            <stop stop-color="#FFFFFF" stop-opacity="0" offset="100%"></stop>
        </linearGradient>
        <linearGradient x1="-171.658615%" y1="63.0555556%" x2="2585.50725%" y2="-68.8888889%" id="linearGradient-3">
            <stop stop-color="#0F1563" offset="0%"></stop>
            <stop stop-color="#9A9DBE" stop-opacity="0.42" offset="60%"></stop>
            <stop stop-color="#FFFFFF" stop-opacity="0" offset="100%"></stop>
        </linearGradient>
        <linearGradient x1="-150.082434%" y1="60.7727841%" x2="2337.95443%" y2="-49.481225%" id="linearGradient-4">
            <stop stop-color="#0F1563" offset="0%"></stop>
            <stop stop-color="#9A9DBE" stop-opacity="0.42" offset="60%"></stop>
            <stop stop-color="#FFFFFF" stop-opacity="0" offset="100%"></stop>
        </linearGradient>
        <linearGradient x1="-443.870968%" y1="76.0445682%" x2="2317.74194%" y2="-56.2674095%" id="linearGradient-5">
            <stop stop-color="#0F1563" offset="0%"></stop>
            <stop stop-color="#9A9DBE" stop-opacity="0.42" offset="60%"></stop>
            <stop stop-color="#FFFFFF" stop-opacity="0" offset="100%"></stop>
        </linearGradient>
        <linearGradient x1="-394.933626%" y1="71.4500145%" x2="2093.10324%" y2="-38.8039947%" id="linearGradient-6">
            <stop stop-color="#0F1563" offset="0%"></stop>
            <stop stop-color="#9A9DBE" stop-opacity="0.42" offset="60%"></stop>
            <stop stop-color="#FFFFFF" stop-opacity="0" offset="100%"></stop>
        </linearGradient>
        <linearGradient x1="-987.258065%" y1="101.949861%" x2="1774.35484%" y2="-30.362117%" id="linearGradient-7">
            <stop stop-color="#0F1563" offset="0%"></stop>
            <stop stop-color="#9A9DBE" stop-opacity="0.42" offset="60%"></stop>
            <stop stop-color="#FFFFFF" stop-opacity="0" offset="100%"></stop>
        </linearGradient>
        <linearGradient x1="-884.490698%" y1="93.0365889%" x2="1603.54616%" y2="-17.2174202%" id="linearGradient-8">
            <stop stop-color="#0F1563" offset="0%"></stop>
            <stop stop-color="#9A9DBE" stop-opacity="0.42" offset="60%"></stop>
            <stop stop-color="#FFFFFF" stop-opacity="0" offset="100%"></stop>
        </linearGradient>
        <linearGradient x1="-1258.87097%" y1="115%" x2="1502.58065%" y2="-16.9444444%" id="linearGradient-9">
            <stop stop-color="#0F1563" offset="0%"></stop>
            <stop stop-color="#9A9DBE" stop-opacity="0.42" offset="60%"></stop>
            <stop stop-color="#FFFFFF" stop-opacity="0" offset="100%"></stop>
        </linearGradient>
        <linearGradient x1="-1128.61533%" y1="104.41016%" x2="1359.27622%" y2="-5.84384878%" id="linearGradient-10">
            <stop stop-color="#0F1563" offset="0%"></stop>
            <stop stop-color="#9A9DBE" stop-opacity="0.42" offset="60%"></stop>
            <stop stop-color="#FFFFFF" stop-opacity="0" offset="100%"></stop>
        </linearGradient>
        <linearGradient x1="-93.7643813%" y1="56.6106646%" x2="416.7046%" y2="33.1773387%" id="linearGradient-11">
            <stop stop-color="#0F1563" offset="0%"></stop>
            <stop stop-color="#9A9DBE" stop-opacity="0.42" offset="60%"></stop>
            <stop stop-color="#FFFFFF" stop-opacity="0" offset="100%"></stop>
        </linearGradient>
        <linearGradient x1="22.0149502%" y1="-43.5816071%" x2="139.369191%" y2="425.192177%" id="linearGradient-12">
            <stop stop-color="#0F1563" offset="0%"></stop>
            <stop stop-color="#9A9DBE" stop-opacity="0.42" offset="60%"></stop>
            <stop stop-color="#FFFFFF" stop-opacity="0" offset="100%"></stop>
        </linearGradient>
        <linearGradient x1="-103.484045%" y1="-174.26816%" x2="96.7239099%" y2="95.777262%" id="linearGradient-13">
            <stop stop-color="#0F1563" offset="0%"></stop>
            <stop stop-color="#9A9DBE" stop-opacity="0.42" offset="60%"></stop>
            <stop stop-color="#FFFFFF" stop-opacity="0" offset="100%"></stop>
        </linearGradient>
        <linearGradient x1="-234.354839%" y1="-578.611111%" x2="1021.93548%" y2="2198.33333%" id="linearGradient-14">
            <stop stop-color="#0F1563" offset="0%"></stop>
            <stop stop-color="#9A9DBE" stop-opacity="0.42" offset="60%"></stop>
            <stop stop-color="#FFFFFF" stop-opacity="0" offset="100%"></stop>
        </linearGradient>
        <linearGradient x1="-206.318287%" y1="-475.409871%" x2="925.519064%" y2="1845.03082%" id="linearGradient-15">
            <stop stop-color="#0F1563" offset="0%"></stop>
            <stop stop-color="#9A9DBE" stop-opacity="0.42" offset="60%"></stop>
            <stop stop-color="#FFFFFF" stop-opacity="0" offset="100%"></stop>
        </linearGradient>
        <linearGradient x1="-414.653784%" y1="-978.611111%" x2="839.613527%" y2="1798.61111%" id="linearGradient-16">
            <stop stop-color="#0F1563" offset="0%"></stop>
            <stop stop-color="#9A9DBE" stop-opacity="0.42" offset="60%"></stop>
            <stop stop-color="#FFFFFF" stop-opacity="0" offset="100%"></stop>
        </linearGradient>
        <linearGradient x1="-369.358665%" y1="-811.769947%" x2="762.478685%" y2="1514.30199%" id="linearGradient-17">
            <stop stop-color="#0F1563" offset="0%"></stop>
            <stop stop-color="#9A9DBE" stop-opacity="0.42" offset="60%"></stop>
            <stop stop-color="#FFFFFF" stop-opacity="0" offset="100%"></stop>
        </linearGradient>
        <linearGradient x1="-777.419355%" y1="-1778.61111%" x2="478.870968%" y2="998.611111%" id="linearGradient-18">
            <stop stop-color="#0F1563" offset="0%"></stop>
            <stop stop-color="#9A9DBE" stop-opacity="0.42" offset="60%"></stop>
            <stop stop-color="#FFFFFF" stop-opacity="0" offset="100%"></stop>
        </linearGradient>
        <linearGradient x1="-695.439422%" y1="-1479.30164%" x2="436.397929%" y2="841.371169%" id="linearGradient-19">
            <stop stop-color="#0F1563" offset="0%"></stop>
            <stop stop-color="#9A9DBE" stop-opacity="0.42" offset="60%"></stop>
            <stop stop-color="#FFFFFF" stop-opacity="0" offset="100%"></stop>
        </linearGradient>
        <linearGradient x1="-958.387097%" y1="-2184.67967%" x2="297.903226%" y2="600%" id="linearGradient-20">
            <stop stop-color="#0F1563" offset="0%"></stop>
            <stop stop-color="#9A9DBE" stop-opacity="0.42" offset="60%"></stop>
            <stop stop-color="#FFFFFF" stop-opacity="0" offset="100%"></stop>
        </linearGradient>
        <linearGradient x1="-858.4798%" y1="-1812.3848%" x2="273.35755%" y2="508.055891%" id="linearGradient-21">
            <stop stop-color="#0F1563" offset="0%"></stop>
            <stop stop-color="#9A9DBE" stop-opacity="0.42" offset="60%"></stop>
            <stop stop-color="#FFFFFF" stop-opacity="0" offset="100%"></stop>
        </linearGradient>
        <linearGradient x1="-70.5008594%" y1="-205.941252%" x2="161.706264%" y2="287.293258%" id="linearGradient-22">
            <stop stop-color="#0F1563" offset="0%"></stop>
            <stop stop-color="#9A9DBE" stop-opacity="0.42" offset="60%"></stop>
            <stop stop-color="#FFFFFF" stop-opacity="0" offset="100%"></stop>
        </linearGradient>
        <linearGradient x1="0%" y1="50%" x2="100%" y2="50%" id="linearGradient-23">
            <stop stop-color="#0F1563" offset="0%"></stop>
            <stop stop-color="#9A9DBE" stop-opacity="0.42" offset="60%"></stop>
            <stop stop-color="#FFFFFF" stop-opacity="0" offset="100%"></stop>
        </linearGradient>
        <linearGradient x1="0%" y1="50.007148%" x2="100%" y2="50.007148%" id="linearGradient-24">
            <stop stop-color="#0F1563" offset="0%"></stop>
            <stop stop-color="#9A9DBE" stop-opacity="0.42" offset="60%"></stop>
            <stop stop-color="#FFFFFF" stop-opacity="0" offset="100%"></stop>
        </linearGradient>
        <linearGradient x1="61.1875782%" y1="67.716781%" x2="38.8124218%" y2="32.283219%" id="linearGradient-25">
            <stop stop-color="#D99E53" offset="0%"></stop>
            <stop stop-color="#E3B881" stop-opacity="0.73" offset="28%"></stop>
            <stop stop-color="#FDF9F4" stop-opacity="0.07" offset="94%"></stop>
            <stop stop-color="#FFFFFF" stop-opacity="0" offset="100%"></stop>
        </linearGradient>
        <linearGradient x1="20.1958384%" y1="76.4171625%" x2="80.1407589%" y2="23.2853116%" id="linearGradient-26">
            <stop stop-color="#D99E53" offset="0%"></stop>
            <stop stop-color="#E3B881" stop-opacity="0.73" offset="28%"></stop>
            <stop stop-color="#FDF9F4" stop-opacity="0.07" offset="94%"></stop>
            <stop stop-color="#FFFFFF" stop-opacity="0" offset="100%"></stop>
        </linearGradient>
    </defs>
    <g id="v2" stroke="none" stroke-width="1" fill="none" fill-rule="evenodd">
        <g id="menlo-landing-v3" transform="translate(-589.000000, -7481.000000)" fill-rule="nonzero">
            <g id="Group-29" transform="translate(-1449.000000, 0.000000)">
                <g id="townhall" transform="translate(1449.000000, 6240.000000)">
                    <g id="Group-25" transform="translate(173.000000, 836.000000)">
                        <g id="townhall-scene" transform="translate(0.000000, 386.000000)">
                            <g id="TownHall_vote_svg" transform="translate(416.000000, 19.000000)">
                                <g id="Group" opacity="0.1" transform="translate(0.000000, 77.000000)">
                                    <path d="M162.95,76.81 C162.850038,76.6395142 162.631328,76.581489 162.46,76.68 L141.27,88.81 C132.163229,94.0229258 120.976771,94.0229258 111.87,88.81 L64.56,61.51 L63.97,61.99 L111.51,89.42 C120.828122,94.7732145 132.284151,94.7922382 141.62,89.47 L162.81,77.34 C162.905128,77.2943833 162.975459,77.2093343 163.002403,77.1073328 C163.029347,77.0053313 163.010191,76.8966446 162.95,76.81 Z" id="Shape" fill="url(#linearGradient-1)"></path>
                                    <path d="M45.38,50.39 L4.31,26.69 C2.08755882,25.4024441 0.719307413,23.0284713 0.719307413,20.46 C0.719307413,17.8915287 2.08755882,15.5175559 4.31,14.23 L26.76,1.23 C26.9115396,1.12219708 26.9560256,0.916712023 26.8626422,0.755885165 C26.7692589,0.595058306 26.5687461,0.531830542 26.4,0.61 L3.95,13.61 C1.50776599,15.0243544 0.00409825812,17.6327836 0.00409825812,20.455 C0.00409825812,23.2772164 1.50776599,25.8856456 3.95,27.3 L44.72,50.83 L45.38,50.39 Z" id="Shape" fill="url(#linearGradient-2)"></path>
                                    <polygon id="Shape" fill="url(#linearGradient-3)" points="16.51 38.26 22.72 38.26 22.7 34.66"></polygon>
                                    <path d="M22.72,38.61 L16.52,38.61 C16.3646285,38.6020941 16.2319133,38.4952781 16.1909795,38.3451874 C16.1500457,38.1950967 16.2101553,38.0356921 16.34,37.95 L22.52,34.36 C22.631111,34.295848 22.7679672,34.2956786 22.8792366,34.3595555 C22.9905061,34.4234324 23.0593704,34.5417006 23.06,34.67 L23.06,38.26 C23.06,38.4588225 22.8988225,38.62 22.7,38.62 L22.72,38.61 Z M17.84,37.9 L22.36,37.9 L22.36,35.28 L17.84,37.9 Z" id="Shape" fill="url(#linearGradient-4)"></path>
                                    <polygon id="Shape" fill="url(#linearGradient-5)" points="33.65 48.05 39.85 48.05 39.83 44.46"></polygon>
                                    <path d="M39.85,48.41 L33.65,48.41 C33.4946285,48.4020941 33.3619133,48.2952781 33.3209795,48.1451874 C33.2800457,47.9950967 33.3401553,47.8356921 33.47,47.75 L39.65,44.16 C39.761111,44.095848 39.8979672,44.0956786 40.0092366,44.1595555 C40.1205061,44.2234324 40.1893704,44.3417006 40.19,44.47 L40.19,48.06 C40.19,48.2588225 40.0288225,48.42 39.83,48.42 L39.85,48.41 Z M35,47.69 L39.52,47.69 L39.52,45.07 L35,47.69 Z" id="Shape" fill="url(#linearGradient-6)"></path>
                                    <polygon id="Shape" fill="url(#linearGradient-7)" points="67.91 67.64 74.11 67.64 74.09 64.05"></polygon>
                                    <path d="M74.11,68 L67.91,68 C67.7546285,67.9920941 67.6219133,67.8852781 67.5809795,67.7351874 C67.5400457,67.5850967 67.6001553,67.4256921 67.73,67.34 L73.91,63.75 C74.021111,63.685848 74.1579672,63.6856786 74.2692366,63.7495555 C74.3805061,63.8134324 74.4493704,63.9317006 74.45,64.06 L74.45,67.65 C74.45,67.7454779 74.4120715,67.8370453 74.3445584,67.9045584 C74.2770453,67.9720715 74.1854779,68.01 74.09,68.01 L74.11,68 Z M69.23,67.29 L73.75,67.29 L73.75,64.67 L69.23,67.29 Z" id="Shape" fill="url(#linearGradient-8)"></path>
                                    <polygon id="Shape" fill="url(#linearGradient-9)" points="85.04 77.43 91.24 77.44 91.22 73.84"></polygon>
                                    <path d="M91.24,77.79 L85,77.79 C84.8446285,77.7820941 84.7119133,77.6752781 84.6709795,77.5251874 C84.6300457,77.3750967 84.6901553,77.2156921 84.82,77.13 L91,73.53 C91.111111,73.465848 91.2479672,73.4656786 91.3592366,73.5295555 C91.4705061,73.5934324 91.5393704,73.7117006 91.54,73.84 L91.54,77.43 C91.54,77.5254779 91.5020715,77.6170453 91.4345584,77.6845584 C91.3670453,77.7520715 91.2754779,77.79 91.18,77.79 L91.24,77.79 Z M86.36,77.08 L90.88,77.08 L90.88,74.46 L86.36,77.08 Z" id="Shape" fill="url(#linearGradient-10)"></path>
                                    <path d="M70.06,58.09 L57.82,65.2 C55.553201,66.5135178 52.756799,66.5135178 50.49,65.2 L39.22,58.7 C38.3834032,58.2154034 37.8683354,57.3218134 37.8683354,56.355 C37.8683354,55.3881866 38.3834032,54.4945966 39.22,54.01 L51.46,46.9 C53.726799,45.5864822 56.523201,45.5864822 58.79,46.9 L70.07,53.41 C70.9007118,53.8976467 71.4101335,54.789606 71.4080752,55.7528698 C71.406017,56.7161337 70.8927882,57.6059078 70.06,58.09 Z" id="Shape" fill="url(#linearGradient-11)"></path>
                                </g>
                                <g id="Group" opacity="0.1" transform="translate(136.000000, 30.000000)">
                                    <path d="M67.11,21.53 L38,4.7 C28.7838418,-0.588309824 17.4731808,-0.671755344 8.18,4.48 L0.97,8.48 C0.837770835,8.53044006 0.747361867,8.65367479 0.738944557,8.79494722 C0.730527247,8.93621966 0.805663354,9.06931791 0.930967617,9.13510236 C1.05627188,9.20088681 1.20849515,9.18715172 1.32,9.1 L8.53,5.1 C17.603805,0.0661883326 28.649738,0.145846503 37.65,5.31 L66.44,22 C66.66,21.82 66.89,21.67 67.11,21.53 Z" id="Shape" fill="url(#linearGradient-12)"></path>
                                    <path d="M120.48,52.34 L86.27,32.59 C86.0405724,32.7530183 85.792059,32.8873499 85.53,32.99 L120.12,52.99 C122.347314,54.2762562 123.719337,56.6529613 123.719337,59.225 C123.719337,61.7970387 122.347314,64.1737438 120.12,65.46 L114.06,68.96 C113.90846,69.0678029 113.863974,69.273288 113.957358,69.4341148 C114.050741,69.5949417 114.251254,69.6581695 114.42,69.58 L120.48,66.08 C122.927108,64.6669464 124.434548,62.0557844 124.434548,59.23 C124.434548,56.4042156 122.927108,53.7930536 120.48,52.38 L120.48,52.34 Z" id="Shape" fill="url(#linearGradient-13)"></path>
                                    <polygon id="Shape" fill="url(#linearGradient-14)" points="38.34 9.21 44.54 9.22 44.53 5.62"></polygon>
                                    <path d="M44.55,9.57 L38.35,9.57 C38.1946285,9.56209412 38.0619133,9.45527811 38.0209795,9.30518741 C37.9800457,9.15509671 38.0401553,8.99569212 38.17,8.91 L44.35,5.32 C44.461111,5.25584797 44.5979672,5.25567864 44.7092366,5.31955553 C44.8205061,5.38343242 44.8893704,5.50170057 44.89,5.63 L44.89,9.22 C44.89,9.41882251 44.7288225,9.58 44.53,9.58 L44.55,9.57 Z M39.67,8.86 L44.19,8.86 L44.19,6.24 L39.67,8.86 Z" id="Shape" fill="url(#linearGradient-15)"></path>
                                    <polygon id="Shape" fill="url(#linearGradient-16)" points="55.47 19.01 61.68 19.01 61.66 15.41"></polygon>
                                    <path d="M61.68,19.37 L55.48,19.37 C55.3246285,19.3620941 55.1919133,19.2552781 55.1509795,19.1051874 C55.1100457,18.9550967 55.1701553,18.7956921 55.3,18.71 L61.48,15.12 C61.591111,15.055848 61.7279672,15.0556786 61.8392366,15.1195555 C61.9505061,15.1834324 62.0193704,15.3017006 62.02,15.43 L62,19 C62,19.0954779 61.9620715,19.1870453 61.8945584,19.2545584 C61.8270453,19.3220715 61.7354779,19.36 61.64,19.36 L61.68,19.37 Z M56.8,18.66 L61.32,18.66 L61.32,16 L56.8,18.66 Z" id="Shape" fill="url(#linearGradient-17)"></path>
                                    <polygon id="Shape" fill="url(#linearGradient-18)" points="89.74 38.6 95.94 38.6 95.92 35"></polygon>
                                    <path d="M95.94,39 L89.74,39 C89.5846285,38.9920941 89.4519133,38.8852781 89.4109795,38.7351874 C89.3700457,38.5850967 89.4301553,38.4256921 89.56,38.34 L95.74,34.75 C95.851111,34.685848 95.9879672,34.6856786 96.0992366,34.7495555 C96.2105061,34.8134324 96.2793704,34.9317006 96.28,35.06 L96.28,38.65 C96.28,38.7454779 96.2420715,38.8370453 96.1745584,38.9045584 C96.1070453,38.9720715 96.0154779,39.01 95.92,39.01 L95.94,39 Z M91.06,38.29 L95.58,38.29 L95.58,35.62 L91.06,38.29 Z" id="Shape" fill="url(#linearGradient-19)"></path>
                                    <polygon id="Shape" fill="url(#linearGradient-20)" points="106.87 48.39 113.07 48.39 113.05 44.8"></polygon>
                                    <path d="M113.07,48.75 L106.87,48.75 C106.714629,48.7420941 106.581913,48.6352781 106.540979,48.4851874 C106.500046,48.3350967 106.560155,48.1756921 106.69,48.09 L112.87,44.5 C112.981111,44.435848 113.117967,44.4356786 113.229237,44.4995555 C113.340506,44.5634324 113.40937,44.6817006 113.41,44.81 L113.41,48.4 C113.41,48.5988225 113.248823,48.76 113.05,48.76 L113.07,48.75 Z M108.19,48 L112.71,48 L112.71,45.42 L108.19,48 Z" id="Shape" fill="url(#linearGradient-21)"></path>
                                    <path d="M91.6,29.39 L79.36,36.5 C77.093201,37.8135178 74.296799,37.8135178 72.03,36.5 L60.76,30 C59.9234032,29.5154034 59.4083354,28.6218134 59.4083354,27.655 C59.4083354,26.6881866 59.9234032,25.7945966 60.76,25.31 L73,18.2 C75.266799,16.8864822 78.063201,16.8864822 80.33,18.2 L91.6,24.7 C92.4365968,25.1845966 92.9516646,26.0781866 92.9516646,27.045 C92.9516646,28.0118134 92.4365968,28.9054034 91.6,29.39 Z" id="Shape" fill="url(#linearGradient-22)"></path>
                                </g>
                                <path d="M250.24,85.34 C250.078274,85.3386483 249.937299,85.2296105 249.895337,85.0734169 C249.853375,84.9172233 249.920725,84.7522178 250.06,84.67 L256.12,81.17 C258.347314,79.8837438 259.719337,77.5070387 259.719337,74.935 C259.719337,72.3629613 258.347314,69.9862562 256.12,68.7 L173.61,21.07 C164.609738,15.9058465 153.563805,15.8261883 144.49,20.86 L137.28,24.86 C137.113581,24.923482 136.925757,24.8557226 136.838196,24.7006152 C136.750635,24.5455077 136.789664,24.349686 136.93,24.24 L144.14,20.24 C153.433181,15.0882447 164.743842,15.1716902 173.96,20.46 L256.47,68.1 C258.917108,69.5130536 260.424548,72.1242156 260.424548,74.95 C260.424548,77.7757844 258.917108,80.3869464 256.47,81.8 L250.41,85.3 C250.357624,85.327484 250.299136,85.3412457 250.24,85.34 Z" id="Shape" fill="#6B67F5"></path>
                                <g id="Group" opacity="0.1" transform="translate(13.000000, 21.000000)" fill="url(#linearGradient-23)">
                                    <polygon id="Shape" points="156.3 38.61 138.67 48.85 138.74 60.19 119.17 60.18 66.75 90.65 0.52 52.42 90.08 0.37"></polygon>
                                </g>
                                <g id="Group" transform="translate(13.000000, 0.000000)">
                                    <polygon id="Shape" fill="#98A2FE" points="156.3 38.24 156.28 46.95 138.65 57.19 138.67 48.48"></polygon>
                                    <polygon id="Shape" fill="#C9CEFE" points="138.74 59.81 138.71 68.53 119.15 68.52 119.17 59.81"></polygon>
                                    <polygon id="Shape" fill="#98A2FE" points="119.17 59.81 119.15 68.52 66.72 98.99 66.75 90.28"></polygon>
                                    <polygon id="Shape" fill="#D5D9FE" points="66.75 90.28 66.72 98.99 0.49 60.76 0.52 52.04"></polygon>
                                    <polygon id="Shape" fill="#E7E9FE" points="156.3 38.24 138.67 48.48 138.74 59.81 119.17 59.81 66.75 90.28 0.52 52.04 90.08 0"></polygon>
                                </g>
                                <path d="M111.22,45.72 C111.362432,45.7751964 111.456303,45.9122472 111.456303,46.065 C111.456303,46.2177528 111.362432,46.3548036 111.22,46.41 C110.84273,46.6007054 110.39727,46.6007054 110.02,46.41 L93,36.6 L93.44,43.28 C93.44,43.55 93.09,43.78 92.62,43.79 C92.4012823,43.8002396 92.1837958,43.7519093 91.99,43.65 C91.8568888,43.5885246 91.7631452,43.464783 91.74,43.32 L91.22,35.39 C91.22,35.19 91.41,35 91.73,34.93 C92.0448587,34.8451798 92.3800332,34.8808366 92.67,35.03 L111.22,45.72 Z" id="Shape" fill="#98A2FE"></path>
                                <path d="M111.73,34.69 C122.6,40.96 122.65,51.13 111.86,57.41 C101.07,63.69 83.51,63.68 72.64,57.41 C61.77,51.14 61.72,41 72.51,34.69 C83.3,28.38 100.87,28.42 111.73,34.69 Z M92.27,61.13 C98.93,61.13 105.58,59.66 110.66,56.72 C115.74,53.78 118.24,49.92 118.22,46.06 C118.2,42.2 115.64,38.34 110.53,35.4 C105.42,32.46 98.76,31 92.1,31 C85.44,31 78.78,32.47 73.72,35.42 C68.66,38.37 66.13,42.22 66.15,46.08 C66.17,49.94 68.73,53.8 73.83,56.74 C78.93,59.68 85.6,61.15 92.27,61.15 L92.27,61.13 Z" id="Shape" fill="#98A2FE"></path>
                                <path d="M100.37,46.31 C100.517425,46.375147 100.614565,46.5189139 100.62,46.68 C100.62,46.95 100.21,47.16 99.74,47.15 L75.88,46.58 L92.88,56.39 C93.0224317,56.4451964 93.1163026,56.5822472 93.1163026,56.735 C93.1163026,56.8877528 93.0224317,57.0248036 92.88,57.08 C92.5031184,57.2723266 92.0568816,57.2723266 91.68,57.08 L73.14,46.38 C72.89,46.24 72.82,46.02 72.96,45.83 C73.1724906,45.6161906 73.4700914,45.5096421 73.77,45.54 L99.77,46.16 C99.979564,46.1576346 100.186204,46.2092946 100.37,46.31 Z" id="Shape" fill="#98A2FE"></path>
                                <g id="Group" opacity="0.1" transform="translate(141.000000, 93.000000)" fill="url(#linearGradient-24)">
                                    <polygon id="Shape" points="121.58 19.01 33.67 70.09 0.99 51.23 88.9 0.14"></polygon>
                                </g>
                                <g id="Group" transform="translate(141.000000, 71.000000)">
                                    <polygon id="Shape" fill="#D99E53" points="121.58 19.64 121.55 28.35 33.65 79.43 33.67 70.72"></polygon>
                                    <polygon id="Shape" fill="#E6BE7E" points="33.67 70.72 33.65 79.43 0.97 60.56 0.99 51.85"></polygon>
                                    <polygon id="Shape" fill="#F2D79D" points="121.58 19.64 33.67 70.72 0.99 51.85 88.9 0.77"></polygon>
                                </g>
                                <path d="M185.3,120.25 C188.37,122.02 189.24,123.61 186.08,125.44 C182.92,127.27 180.18,126.77 177.08,125 C173.98,123.23 173.34,121.65 176.4,119.87 C179.46,118.09 182.31,118.52 185.3,120.25 Z M179.13,123.83 C181.27,125.07 182.68,125.45 184.38,124.46 C186.08,123.47 185.38,122.66 183.27,121.46 C181.16,120.26 179.75,119.96 178.13,120.9 C176.51,121.84 176.98,122.64 179.13,123.9 L179.13,123.83 Z" id="Shape" fill="#676D94"></path>
                                <polygon id="Shape" fill="#676D94" points="195.1 109.27 202.39 115.73 199.22 117.57 191.45 114.75 196.35 119.24 193.18 121.08 182 116.88 183.96 115.74 192.93 119.23 193.29 119.02 187.71 113.78 189.76 112.58 198.84 115.8 199.2 115.59 193.12 110.42"></polygon>
                                <polygon id="Shape" fill="#676D94" points="171.41 121.2 167.87 123.26 178.69 129.5 176.63 130.7 165.81 124.45 162.23 126.53 160.4 125.48 169.58 120.14"></polygon>
                                <path d="M236.21,96.31 C235.273406,96.906319 234.198736,97.2507646 233.09,97.31 C232.502323,98.1756803 231.726251,98.8970508 230.82,99.42 C229.063793,100.46806 226.864236,100.425387 225.15,99.31 C223.15,98.18 223.59,97.18 225.39,95.94 L227.55,94.45 L226.89,94.07 C226.086429,93.5153054 225.023571,93.5153054 224.22,94.07 C222.99,94.78 221.06,96.07 220.96,96.18 L219.46,95.4 C220.439605,94.4842435 221.512077,93.6731867 222.66,92.98 C224.524579,91.7004734 226.977053,91.6728288 228.87,92.91 L233.08,95.34 C233.597197,95.622809 234.222803,95.622809 234.74,95.34 L236.21,96.31 Z M227.09,98.14 C227.82364,98.6435962 228.77755,98.693802 229.56,98.27 C230.257505,97.8459742 230.887787,97.3201772 231.43,96.71 L229,95.3 L227,96.66 C226.23,97.19 226.21,97.66 227,98.15 L227.09,98.14 Z" id="Shape" fill="#676D94"></path>
                                <polygon id="Shape" fill="#676D94" points="239.88 93.95 237.87 95.11 224.79 87.56 226.8 86.39"></polygon>
                                <polygon id="Shape" fill="#676D94" points="225.82 102.11 223.77 103.31 218.3 100.15 212.87 103.31 218.34 106.46 216.3 107.65 203.65 100.34 205.69 99.16 211.08 102.27 216.51 99.12 211.12 96.01 213.17 94.81"></polygon>
                                <path d="M213.73,109.14 L211.73,110.29 L206.84,107.46 C204.99,106.39 203.84,106.01 202.46,106.82 C201.81981,107.183536 201.272243,107.690035 200.86,108.3 L208.03,112.44 L206.03,113.6 L196.79,108.27 L198.79,107.12 L199.37,107.45 C199.760386,106.65445 200.371335,105.98796 201.13,105.53 C203.68,104.05 205.76,104.53 208.79,106.28 L213.73,109.14 Z" id="Shape" fill="#676D94"></path>
                                <polygon id="Shape" fill="#676D94" points="244.51 91.25 242.52 92.41 229.44 84.86 231.44 83.7"></polygon>
                                <g id="Group" opacity="0.8" transform="translate(174.000000, 45.000000)" fill="url(#linearGradient-25)">
                                    <polygon id="Shape" points="0.67 96.72 0.67 51.48 88.58 0.54 88.58 45.64"></polygon>
                                </g>
                                <g id="Group" opacity="0.4" transform="translate(141.000000, 77.000000)" fill="url(#linearGradient-26)">
                                    <polygon id="Shape" points="33.67 64.72 0.99 45.85 0.99 0.86 33.67 19.48"></polygon>
                                </g>
                                <path d="M126.62,156.16 C121.322972,156.174002 116.115433,154.794521 111.52,152.16 L4,90.06 C1.55776599,88.6456456 0.0540982581,86.0372164 0.0540982581,83.215 C0.0540982581,80.3927836 1.55776599,77.7843544 4,76.37 L26.45,63.37 C26.5612756,63.2908403 26.7077605,63.2814563 26.8282272,63.3457703 C26.9486939,63.4100843 27.0223999,63.5370225 27.0185378,63.6735275 C27.0146757,63.8100325 26.9339104,63.9326001 26.81,63.99 L4.3,77 C2.07755882,78.2875559 0.709307413,80.6615287 0.709307413,83.23 C0.709307413,85.7984713 2.07755882,88.1724441 4.3,89.46 L111.86,151.53 C120.96623,156.744957 132.15377,156.744957 141.26,151.53 L162.45,139.4 C162.621328,139.301489 162.840038,139.359514 162.94,139.53 C163.038511,139.701328 162.980486,139.920038 162.81,140.02 L141.62,152.15 C137.054756,154.770684 131.883971,156.153008 126.62,156.16 Z" id="Shape" fill="#6B67F5"></path>
                                <polygon id="Shape" fill="#FFFFFF" points="16.51 101.01 22.72 101.01 22.7 97.42"></polygon>
                                <path d="M22.72,101.37 L16.52,101.37 C16.3646285,101.362094 16.2319133,101.255278 16.1909795,101.105187 C16.1500457,100.955097 16.2101553,100.795692 16.34,100.71 L22.52,97.12 C22.631111,97.055848 22.7679672,97.0556786 22.8792366,97.1195555 C22.9905061,97.1834324 23.0593704,97.3017006 23.06,97.43 L23.06,101.02 C23.06,101.218823 22.8988225,101.38 22.7,101.38 L22.72,101.37 Z M17.84,100.66 L22.36,100.66 L22.36,98 L17.84,100.66 Z" id="Shape" fill="#6B67F5"></path>
                                <polygon id="Shape" fill="#FFFFFF" points="33.65 110.8 39.85 110.8 39.83 107.21"></polygon>
                                <path d="M39.85,111.16 L33.65,111.16 C33.4946285,111.152094 33.3619133,111.045278 33.3209795,110.895187 C33.2800457,110.745097 33.3401553,110.585692 33.47,110.5 L39.65,106.91 C39.761111,106.845848 39.8979672,106.845679 40.0092366,106.909556 C40.1205061,106.973432 40.1893704,107.091701 40.19,107.22 L40.19,110.81 C40.19,111.008823 40.0288225,111.17 39.83,111.17 L39.85,111.16 Z M35,110.45 L39.52,110.45 L39.52,107.83 L35,110.45 Z" id="Shape" fill="#6B67F5"></path>
                                <polygon id="Shape" fill="#FFFFFF" points="67.91 130.39 74.11 130.39 74.09 126.8"></polygon>
                                <path d="M74.11,130.75 L67.91,130.75 C67.7546285,130.742094 67.6219133,130.635278 67.5809795,130.485187 C67.5400457,130.335097 67.6001553,130.175692 67.73,130.09 L73.91,126.5 C74.021111,126.435848 74.1579672,126.435679 74.2692366,126.499556 C74.3805061,126.563432 74.4493704,126.681701 74.45,126.81 L74.45,130.4 C74.45,130.598823 74.2888225,130.76 74.09,130.76 L74.11,130.75 Z M69.23,130 L73.75,130 L73.75,127.38 L69.23,130 Z" id="Shape" fill="#6B67F5"></path>
                                <polygon id="Shape" fill="#FFFFFF" points="85.04 140.19 91.24 140.19 91.22 136.59"></polygon>
                                <path d="M91.24,140.54 L85,140.54 C84.8446285,140.532094 84.7119133,140.425278 84.6709795,140.275187 C84.6300457,140.125097 84.6901553,139.965692 84.82,139.88 L91,136.29 C91.111111,136.225848 91.2479672,136.225679 91.3592366,136.289556 C91.4705061,136.353432 91.5393704,136.471701 91.54,136.6 L91.54,140.19 C91.54,140.285478 91.5020715,140.377045 91.4345584,140.444558 C91.3670453,140.512072 91.2754779,140.55 91.18,140.55 L91.24,140.54 Z M86.36,139.83 L90.88,139.83 L90.88,137.21 L86.36,139.83 Z" id="Shape" fill="#6B67F5"></path>
                                <polygon id="Shape" fill="#FFFFFF" points="174.34 24.96 180.54 24.97 180.53 21.37"></polygon>
                                <path d="M180.55,25.32 L174.35,25.32 C174.194629,25.3120941 174.061913,25.2052781 174.020979,25.0551874 C173.980046,24.9050967 174.040155,24.7456921 174.17,24.66 L180.35,21.07 C180.461111,21.005848 180.597967,21.0056786 180.709237,21.0695555 C180.820506,21.1334324 180.88937,21.2517006 180.89,21.38 L180.89,24.97 C180.89,25.1688225 180.728823,25.33 180.53,25.33 L180.55,25.32 Z M175.67,24.61 L180.19,24.61 L180.19,22 L175.67,24.61 Z" id="Shape" fill="#6B67F5"></path>
                                <polygon id="Shape" fill="#FFFFFF" points="191.47 34.76 197.68 34.76 197.66 31.17"></polygon>
                                <path d="M197.68,35.12 L191.48,35.12 C191.324629,35.1120941 191.191913,35.0052781 191.150979,34.8551874 C191.110046,34.7050967 191.170155,34.5456921 191.3,34.46 L197.48,30.87 C197.591111,30.805848 197.727967,30.8056786 197.839237,30.8695555 C197.950506,30.9334324 198.01937,31.0517006 198.02,31.18 L198.02,34.77 C198.02,34.9688225 197.858823,35.13 197.66,35.13 L197.68,35.12 Z M192.8,34.41 L197.32,34.41 L197.32,31.78 L192.8,34.41 Z" id="Shape" fill="#6B67F5"></path>
                                <polygon id="Shape" fill="#FFFFFF" points="225.74 54.35 231.94 54.35 231.92 50.76"></polygon>
                                <path d="M231.94,54.71 L225.74,54.71 C225.584629,54.7020941 225.451913,54.5952781 225.410979,54.4451874 C225.370046,54.2950967 225.430155,54.1356921 225.56,54.05 L231.74,50.46 C231.851111,50.395848 231.987967,50.3956786 232.099237,50.4595555 C232.210506,50.5234324 232.27937,50.6417006 232.28,50.77 L232.28,54.36 C232.28,54.4554779 232.242072,54.5470453 232.174558,54.6145584 C232.107045,54.6820715 232.015478,54.72 231.92,54.72 L231.94,54.71 Z M227.06,54 L231.58,54 L231.58,51.37 L227.06,54 Z" id="Shape" fill="#6B67F5"></path>
                                <polygon id="Shape" fill="#FFFFFF" points="242.87 64.14 249.07 64.14 249.05 60.55"></polygon>
                                <path d="M249.07,64.5 L242.87,64.5 C242.714629,64.4920941 242.581913,64.3852781 242.540979,64.2351874 C242.500046,64.0850967 242.560155,63.9256921 242.69,63.84 L248.87,60.25 C248.981111,60.185848 249.117967,60.1856786 249.229237,60.2495555 C249.340506,60.3134324 249.40937,60.4317006 249.41,60.56 L249.41,64.15 C249.41,64.3488225 249.248823,64.51 249.05,64.51 L249.07,64.5 Z M244.19,63.79 L248.71,63.79 L248.71,61.17 L244.19,63.79 Z" id="Shape" fill="#6B67F5"></path>
                                <path d="M70.06,120.84 L57.82,128 C55.553201,129.313518 52.756799,129.313518 50.49,128 L39.21,121.49 C38.3734032,121.005403 37.8583354,120.111813 37.8583354,119.145 C37.8583354,118.178187 38.3734032,117.284597 39.21,116.8 L51.45,109.69 C53.716799,108.376482 56.513201,108.376482 58.78,109.69 L70.06,116.2 C70.8726779,116.690622 71.369393,117.570708 71.369393,118.52 C71.369393,119.469292 70.8726779,120.349378 70.06,120.84 Z" id="Shape" fill="#6B67F5"></path>
                                <path d="M227.6,45.14 L215.36,52.25 C213.093201,53.5635178 210.296799,53.5635178 208.03,52.25 L196.75,45.74 C195.913403,45.2554034 195.398335,44.3618134 195.398335,43.395 C195.398335,42.4281866 195.913403,41.5345966 196.75,41.05 L209,34 C211.266799,32.6864822 214.063201,32.6864822 216.33,34 L227.61,40.51 C228.416932,41.0034676 228.908193,41.8819533 228.90615,42.8278103 C228.904107,43.7736672 228.409056,44.6500227 227.6,45.14 Z" id="Shape" fill="#F5C484"></path>
                                <path d="M55.93,123.58 C56.0145063,123.612914 56.0701564,123.69431 56.0701564,123.785 C56.0701564,123.87569 56.0145063,123.957086 55.93,123.99 L54.51,124.81 C54.2870512,124.923957 54.0229488,124.923957 53.8,124.81 L47.38,121.11 C47.2954937,121.077086 47.2398436,120.99569 47.2398436,120.905 C47.2398436,120.81431 47.2954937,120.732914 47.38,120.7 L48.8,119.88 C49.0233352,119.767659 49.2866648,119.767659 49.51,119.88 L55.93,123.58 Z" id="Shape" fill="#FFFFFF"></path>
                                <path d="M60.26,114 C60.67,114.24 60.9,114.58 60.76,115 C61.0374936,115.041489 61.3051599,115.13297 61.55,115.27 C61.98,115.52 62.2,115.89 62.06,116.27 C62.3374936,116.311489 62.6051599,116.40297 62.85,116.54 C63.28,116.79 63.5,117.16 63.36,117.54 C63.6335564,117.5789 63.8978148,117.666986 64.14,117.8 C64.82,118.19 64.91,118.88 64.14,119.31 L57,123.36 L50.08,119.36 C50.08,119.25 50.26,117.06 50.27,116.3 C50.2417824,115.810453 49.9959871,115.359217 49.6,115.07 C49.43,114.93 49.2,114.81 49.12,114.64 C49.0504277,114.482407 49.0955718,114.297727 49.23,114.19 C49.5597401,113.928323 49.9532269,113.759192 50.37,113.7 C51.3028142,113.567045 52.2532914,113.750099 53.07,114.22 C53.3314765,114.364142 53.5651378,114.55378 53.76,114.78 L54.55,115.78 C54.71,115.69 57.78,113.89 57.86,113.86 C58.6427875,113.558583 59.5175678,113.609612 60.26,114 Z" id="Shape" fill="#FFFFFF"></path>
                                <path d="M210.5,45.86 C210.584506,45.8929136 210.640156,45.9743103 210.640156,46.065 C210.640156,46.1556897 210.584506,46.2370864 210.5,46.27 L209.08,47.09 C208.856665,47.2023409 208.593335,47.2023409 208.37,47.09 L202,43.4 C201.8,43.29 201.8,43.1 202,42.99 L203.42,42.17 C203.643335,42.0576591 203.906665,42.0576591 204.13,42.17 L210.5,45.86 Z" id="Shape" fill="#FFFFFF"></path>
                                <path d="M220.65,39.62 C221.25,39.97 221.46,40.54 220.89,41 C220.83,41 217.74,42.83 217.58,42.92 L219.28,43.38 C219.629508,43.4686696 219.965756,43.6031688 220.28,43.78 C221,44.19 221.47,44.78 221.19,45.34 C220.993268,45.6532672 220.692239,45.8870072 220.34,46 C220.091405,46.0791668 219.827857,46.099703 219.57,46.06 C219.30984,46.0012134 219.057934,45.9105272 218.82,45.79 C218.140456,45.5285825 217.418083,45.3963171 216.69,45.4 C215.37,45.4 211.6,45.52 211.4,45.52 L204.48,41.52 L211.65,37.36 C212.468112,36.9497284 213.431888,36.9497284 214.25,37.36 C214.441424,37.4618967 214.598103,37.618576 214.7,37.81 C215.283047,37.7267725 215.87752,37.8281826 216.4,38.1 C216.595468,38.2044445 216.755555,38.3645321 216.86,38.56 C217.443037,38.4774487 218.037305,38.5788237 218.56,38.85 C218.755468,38.9544445 218.915555,39.1145321 219.02,39.31 C219.582425,39.2389994 220.152904,39.3474956 220.65,39.62 Z" id="Shape" fill="#FFFFFF"></path>
                            </g>
                        </g>
                    </g>
                </g>
            </g>
        </g>
    </g>
</svg>