<?xml version="1.0" encoding="UTF-8"?>
<svg width="281px" height="203px" viewBox="0 0 281 203" version="1.1" xmlns="http://www.w3.org/2000/svg" xmlns:xlink="http://www.w3.org/1999/xlink">
    <!-- Generator: Sketch 49.3 (51167) - http://www.bohemiancoding.com/sketch -->
    <title>TownHall_comment_svg</title>
    <desc>Created with Sketch.</desc>
    <defs>
        <linearGradient x1="0%" y1="50%" x2="100%" y2="50%" id="linearGradient-1">
            <stop stop-color="#0F1563" offset="0%"></stop>
            <stop stop-color="#9A9DBE" stop-opacity="0.42" offset="60%"></stop>
            <stop stop-color="#FFFFFF" stop-opacity="0" offset="100%"></stop>
        </linearGradient>
        <linearGradient x1="-0.0128386186%" y1="50%" x2="100%" y2="50%" id="linearGradient-2">
            <stop stop-color="#0F1563" offset="0%"></stop>
            <stop stop-color="#9A9DBE" stop-opacity="0.42" offset="60%"></stop>
            <stop stop-color="#FFFFFF" stop-opacity="0" offset="100%"></stop>
        </linearGradient>
        <linearGradient x1="17.2539198%" y1="-25.6886735%" x2="94.8326516%" y2="153.661384%" id="linearGradient-3">
            <stop stop-color="#0F1563" offset="0%"></stop>
            <stop stop-color="#9A9DBE" stop-opacity="0.42" offset="60%"></stop>
            <stop stop-color="#FFFFFF" stop-opacity="0" offset="100%"></stop>
        </linearGradient>
        <linearGradient x1="-125.894097%" y1="-185.403529%" x2="70.8389916%" y2="86.0512512%" id="linearGradient-4">
            <stop stop-color="#0F1563" offset="0%"></stop>
            <stop stop-color="#9A9DBE" stop-opacity="0.42" offset="60%"></stop>
            <stop stop-color="#FFFFFF" stop-opacity="0" offset="100%"></stop>
        </linearGradient>
        <linearGradient x1="-130.16129%" y1="-367.5%" x2="674.193548%" y2="1497.77778%" id="linearGradient-5">
            <stop stop-color="#0F1563" offset="0%"></stop>
            <stop stop-color="#9A9DBE" stop-opacity="0.42" offset="60%"></stop>
            <stop stop-color="#FFFFFF" stop-opacity="0" offset="100%"></stop>
        </linearGradient>
        <linearGradient x1="-112.155929%" y1="-299.003456%" x2="612.516412%" y2="1259.64006%" id="linearGradient-6">
            <stop stop-color="#0F1563" offset="0%"></stop>
            <stop stop-color="#9A9DBE" stop-opacity="0.42" offset="60%"></stop>
            <stop stop-color="#FFFFFF" stop-opacity="0" offset="100%"></stop>
        </linearGradient>
        <linearGradient x1="-304.032258%" y1="-772.980501%" x2="500.322581%" y2="1097.49304%" id="linearGradient-7">
            <stop stop-color="#0F1563" offset="0%"></stop>
            <stop stop-color="#9A9DBE" stop-opacity="0.42" offset="60%"></stop>
            <stop stop-color="#FFFFFF" stop-opacity="0" offset="100%"></stop>
        </linearGradient>
        <linearGradient x1="-268.947879%" y1="-636.032554%" x2="455.724462%" y2="922.610965%" id="linearGradient-8">
            <stop stop-color="#0F1563" offset="0%"></stop>
            <stop stop-color="#9A9DBE" stop-opacity="0.42" offset="60%"></stop>
            <stop stop-color="#FFFFFF" stop-opacity="0" offset="100%"></stop>
        </linearGradient>
        <linearGradient x1="-476.972625%" y1="-1173.61111%" x2="325.925926%" y2="691.388889%" id="linearGradient-9">
            <stop stop-color="#0F1563" offset="0%"></stop>
            <stop stop-color="#9A9DBE" stop-opacity="0.42" offset="60%"></stop>
            <stop stop-color="#FFFFFF" stop-opacity="0" offset="100%"></stop>
        </linearGradient>
        <linearGradient x1="-425.449205%" y1="-973.293765%" x2="299.077824%" y2="585.11764%" id="linearGradient-10">
            <stop stop-color="#0F1563" offset="0%"></stop>
            <stop stop-color="#9A9DBE" stop-opacity="0.42" offset="60%"></stop>
            <stop stop-color="#FFFFFF" stop-opacity="0" offset="100%"></stop>
        </linearGradient>
        <linearGradient x1="-704.830918%" y1="-1657.93872%" x2="98.2286634%" y2="212.534819%" id="linearGradient-11">
            <stop stop-color="#0F1563" offset="0%"></stop>
            <stop stop-color="#9A9DBE" stop-opacity="0.42" offset="60%"></stop>
            <stop stop-color="#FFFFFF" stop-opacity="0" offset="100%"></stop>
        </linearGradient>
        <linearGradient x1="-630.800608%" y1="-1373.22568%" x2="93.871733%" y2="185.417843%" id="linearGradient-12">
            <stop stop-color="#0F1563" offset="0%"></stop>
            <stop stop-color="#9A9DBE" stop-opacity="0.42" offset="60%"></stop>
            <stop stop-color="#FFFFFF" stop-opacity="0" offset="100%"></stop>
        </linearGradient>
        <linearGradient x1="15.1214767%" y1="-21.3832037%" x2="84.8385922%" y2="121.285459%" id="linearGradient-13">
            <stop stop-color="#262836" offset="0%"></stop>
            <stop stop-color="#2F3050" offset="1%"></stop>
            <stop stop-color="#414182" offset="3%"></stop>
            <stop stop-color="#504FAB" offset="5%"></stop>
            <stop stop-color="#5C59CB" offset="7%"></stop>
            <stop stop-color="#6461E2" offset="9%"></stop>
            <stop stop-color="#6965F0" offset="10%"></stop>
            <stop stop-color="#6B67F5" offset="12%"></stop>
        </linearGradient>
        <linearGradient x1="0%" y1="49.992852%" x2="100%" y2="49.992852%" id="linearGradient-14">
            <stop stop-color="#0F1563" offset="0%"></stop>
            <stop stop-color="#9A9DBE" stop-opacity="0.42" offset="60%"></stop>
            <stop stop-color="#FFFFFF" stop-opacity="0" offset="100%"></stop>
        </linearGradient>
        <linearGradient x1="61.1945392%" y1="67.7063839%" x2="38.8054608%" y2="32.283219%" id="linearGradient-15">
            <stop stop-color="#D99E53" offset="0%"></stop>
            <stop stop-color="#E3B881" stop-opacity="0.73" offset="28%"></stop>
            <stop stop-color="#FDF9F4" stop-opacity="0.07" offset="94%"></stop>
            <stop stop-color="#FFFFFF" stop-opacity="0" offset="100%"></stop>
        </linearGradient>
        <linearGradient x1="20.1958384%" y1="76.4208549%" x2="80.1407589%" y2="23.2816659%" id="linearGradient-16">
            <stop stop-color="#D99E53" offset="0%"></stop>
            <stop stop-color="#E3B881" stop-opacity="0.73" offset="28%"></stop>
            <stop stop-color="#FDF9F4" stop-opacity="0.07" offset="94%"></stop>
            <stop stop-color="#FFFFFF" stop-opacity="0" offset="100%"></stop>
        </linearGradient>
        <linearGradient x1="-0.016635424%" y1="49.9690298%" x2="100.104191%" y2="49.9690298%" id="linearGradient-17">
            <stop stop-color="#6B67F5" offset="0%"></stop>
            <stop stop-color="#6965F0" offset="27%"></stop>
            <stop stop-color="#635FE2" offset="58%"></stop>
            <stop stop-color="#5956CB" offset="91%"></stop>
            <stop stop-color="#5653C4" offset="100%"></stop>
        </linearGradient>
        <linearGradient x1="34.6987221%" y1="120.950733%" x2="65.147273%" y2="-20.8794637%" id="linearGradient-18">
            <stop stop-color="#6B67F5" offset="58%"></stop>
            <stop stop-color="#6B67F3" offset="75%"></stop>
            <stop stop-color="#6B66EC" offset="82%"></stop>
            <stop stop-color="#6B64E0" offset="87%"></stop>
            <stop stop-color="#6B61CE" offset="91%"></stop>
            <stop stop-color="#6C5DB8" offset="95%"></stop>
            <stop stop-color="#6C599C" offset="98%"></stop>
            <stop stop-color="#6C5582" offset="100%"></stop>
        </linearGradient>
        <linearGradient x1="22.4450034%" y1="44.2909528%" x2="1226.61703%" y2="278.358804%" id="linearGradient-19">
            <stop stop-color="#0F1563" offset="0%"></stop>
            <stop stop-color="#9A9DBE" stop-opacity="0.42" offset="60%"></stop>
            <stop stop-color="#FFFFFF" stop-opacity="0" offset="100%"></stop>
        </linearGradient>
        <linearGradient x1="-345.347127%" y1="-27.7235002%" x2="237.508562%" y2="86.769261%" id="linearGradient-20">
            <stop stop-color="#0F1563" offset="0%"></stop>
            <stop stop-color="#9A9DBE" stop-opacity="0.42" offset="60%"></stop>
            <stop stop-color="#FFFFFF" stop-opacity="0" offset="100%"></stop>
        </linearGradient>
        <linearGradient x1="2.3711172%" y1="40.9251319%" x2="167.644788%" y2="76.642146%" id="linearGradient-21">
            <stop stop-color="#0F1563" offset="0%"></stop>
            <stop stop-color="#9A9DBE" stop-opacity="0.42" offset="60%"></stop>
            <stop stop-color="#FFFFFF" stop-opacity="0" offset="100%"></stop>
        </linearGradient>
        <linearGradient x1="-95.8064516%" y1="20.8333333%" x2="3374.19355%" y2="713.611111%" id="linearGradient-22">
            <stop stop-color="#0F1563" offset="0%"></stop>
            <stop stop-color="#9A9DBE" stop-opacity="0.42" offset="60%"></stop>
            <stop stop-color="#FFFFFF" stop-opacity="0" offset="100%"></stop>
        </linearGradient>
        <linearGradient x1="-81.3497257%" y1="25.9557286%" x2="3044.89867%" y2="604.847305%" id="linearGradient-23">
            <stop stop-color="#0F1563" offset="0%"></stop>
            <stop stop-color="#9A9DBE" stop-opacity="0.42" offset="60%"></stop>
            <stop stop-color="#FFFFFF" stop-opacity="0" offset="100%"></stop>
        </linearGradient>
        <linearGradient x1="-386.612903%" y1="-37.3259053%" x2="3083.54839%" y2="657.103064%" id="linearGradient-24">
            <stop stop-color="#0F1563" offset="0%"></stop>
            <stop stop-color="#9A9DBE" stop-opacity="0.42" offset="60%"></stop>
            <stop stop-color="#FFFFFF" stop-opacity="0" offset="100%"></stop>
        </linearGradient>
        <linearGradient x1="-343.347767%" y1="-23.0202628%" x2="2783.04594%" y2="555.6392%" id="linearGradient-25">
            <stop stop-color="#0F1563" offset="0%"></stop>
            <stop stop-color="#9A9DBE" stop-opacity="0.42" offset="60%"></stop>
            <stop stop-color="#FFFFFF" stop-opacity="0" offset="100%"></stop>
        </linearGradient>
        <linearGradient x1="-677.258065%" y1="-95.5431755%" x2="2792.90323%" y2="599.164345%" id="linearGradient-26">
            <stop stop-color="#0F1563" offset="0%"></stop>
            <stop stop-color="#9A9DBE" stop-opacity="0.42" offset="60%"></stop>
            <stop stop-color="#FFFFFF" stop-opacity="0" offset="100%"></stop>
        </linearGradient>
        <linearGradient x1="-605.200496%" y1="-71.5320269%" x2="2521.19321%" y2="507.35955%" id="linearGradient-27">
            <stop stop-color="#0F1563" offset="0%"></stop>
            <stop stop-color="#9A9DBE" stop-opacity="0.42" offset="60%"></stop>
            <stop stop-color="#FFFFFF" stop-opacity="0" offset="100%"></stop>
        </linearGradient>
        <linearGradient x1="-967.903226%" y1="-153.760446%" x2="2502.09677%" y2="540.668524%" id="linearGradient-28">
            <stop stop-color="#0F1563" offset="0%"></stop>
            <stop stop-color="#9A9DBE" stop-opacity="0.42" offset="60%"></stop>
            <stop stop-color="#FFFFFF" stop-opacity="0" offset="100%"></stop>
        </linearGradient>
        <linearGradient x1="-867.053225%" y1="-120.043791%" x2="2259.19517%" y2="458.615672%" id="linearGradient-29">
            <stop stop-color="#0F1563" offset="0%"></stop>
            <stop stop-color="#9A9DBE" stop-opacity="0.42" offset="60%"></stop>
            <stop stop-color="#FFFFFF" stop-opacity="0" offset="100%"></stop>
        </linearGradient>
        <linearGradient x1="-1258.70968%" y1="-211.977716%" x2="2211.45161%" y2="482.729805%" id="linearGradient-30">
            <stop stop-color="#0F1563" offset="0%"></stop>
            <stop stop-color="#9A9DBE" stop-opacity="0.42" offset="60%"></stop>
            <stop stop-color="#FFFFFF" stop-opacity="0" offset="100%"></stop>
        </linearGradient>
        <linearGradient x1="-1129.19658%" y1="-168.323441%" x2="1997.19713%" y2="410.568135%" id="linearGradient-31">
            <stop stop-color="#0F1563" offset="0%"></stop>
            <stop stop-color="#9A9DBE" stop-opacity="0.42" offset="60%"></stop>
            <stop stop-color="#FFFFFF" stop-opacity="0" offset="100%"></stop>
        </linearGradient>
        <linearGradient x1="-1651.76471%" y1="-372.777778%" x2="1160.52288%" y2="320%" id="linearGradient-32">
            <stop stop-color="#0F1563" offset="0%"></stop>
            <stop stop-color="#9A9DBE" stop-opacity="0.42" offset="60%"></stop>
            <stop stop-color="#FFFFFF" stop-opacity="0" offset="100%"></stop>
        </linearGradient>
        <linearGradient x1="-1512.18458%" y1="-306.526672%" x2="1069.21712%" y2="274.825117%" id="linearGradient-33">
            <stop stop-color="#0F1563" offset="0%"></stop>
            <stop stop-color="#9A9DBE" stop-opacity="0.42" offset="60%"></stop>
            <stop stop-color="#FFFFFF" stop-opacity="0" offset="100%"></stop>
        </linearGradient>
        <linearGradient x1="-1851.24183%" y1="-421.944444%" x2="961.176471%" y2="270.833333%" id="linearGradient-34">
            <stop stop-color="#0F1563" offset="0%"></stop>
            <stop stop-color="#9A9DBE" stop-opacity="0.42" offset="60%"></stop>
            <stop stop-color="#FFFFFF" stop-opacity="0" offset="100%"></stop>
        </linearGradient>
        <linearGradient x1="-1695.28484%" y1="-346.852999%" x2="886.236851%" y2="234.26569%" id="linearGradient-35">
            <stop stop-color="#0F1563" offset="0%"></stop>
            <stop stop-color="#9A9DBE" stop-opacity="0.42" offset="60%"></stop>
            <stop stop-color="#FFFFFF" stop-opacity="0" offset="100%"></stop>
        </linearGradient>
    </defs>
    <g id="v2" stroke="none" stroke-width="1" fill="none" fill-rule="evenodd">
        <g id="menlo-landing-v3" transform="translate(-173.000000, -7471.000000)" fill-rule="nonzero">
            <g id="Group-29" transform="translate(-1449.000000, 0.000000)">
                <g id="townhall" transform="translate(1449.000000, 6240.000000)">
                    <g id="Group-25" transform="translate(173.000000, 836.000000)">
                        <g id="townhall-scene" transform="translate(0.000000, 386.000000)">
                            <g id="TownHall_comment_svg" transform="translate(0.000000, 9.000000)">
                                <g id="Group" opacity="0.1" transform="translate(68.000000, 21.000000)" fill="url(#linearGradient-1)">
                                    <polygon id="Shape" points="155.78 38.61 138.15 48.85 138.22 60.19 118.65 60.18 66.22 90.65 0 52.42 89.56 0.37"></polygon>
                                </g>
                                <g id="Group" opacity="0.1" transform="translate(0.000000, 86.000000)" fill="url(#linearGradient-2)">
                                    <polygon id="Shape" points="77.92 20.1 51.7 35.33 51.73 41 41.95 41 33.14 46.12 0.03 27 44.8 0.98"></polygon>
                                </g>
                                <g id="Group">
                                    <polygon id="Shape" fill="#262836" points="223.78 38.24 223.76 46.95 206.13 57.19 206.15 48.48"></polygon>
                                    <polygon id="Shape" fill="#4A4D69" points="206.22 59.81 206.19 68.53 186.63 68.52 186.65 59.81"></polygon>
                                    <polygon id="Shape" fill="#262836" points="186.65 59.81 186.63 68.52 134.2 98.99 134.22 90.28"></polygon>
                                    <polygon id="Shape" fill="#4A4D69" points="134.22 90.28 134.2 98.99 67.97 60.76 68 52.04"></polygon>
                                    <polygon id="Shape" fill="#30334A" points="223.78 38.24 206.15 48.48 206.22 59.81 186.65 59.81 134.22 90.28 68 52.04 157.56 0"></polygon>
                                    <polygon id="Shape" fill="#918FFF" points="77.92 84.73 51.7 99.96 51.73 105.63 41.95 105.63 33.14 110.75 0.03 91.63 44.8 65.61"></polygon>
                                </g>
                                <g id="Group" transform="translate(0.000000, 84.000000)">
                                    <polygon id="Shape" fill="#3A36CF" points="77.92 0.73 77.89 9.44 51.68 24.67 51.7 15.96"></polygon>
                                    <polygon id="Shape" fill="#6B67F5" points="51.73 21.63 51.71 30.34 41.93 30.34 41.95 21.63"></polygon>
                                    <polygon id="Shape" fill="#3A36CF" points="41.95 21.63 41.93 30.34 33.11 35.46 33.14 26.75"></polygon>
                                    <polygon id="Shape" fill="#6B67F5" points="33.14 26.75 33.11 35.46 0 16.34 0.03 7.63"></polygon>
                                </g>
                                <g id="Group" opacity="0.1" transform="translate(212.000000, 62.000000)">
                                    <path d="M64.63,37.9 C64.571026,37.9156924 64.508974,37.9156924 64.45,37.9 L0.85,1.13 C0.698460381,1.02219708 0.653974447,0.816712023 0.747357784,0.655885165 C0.840741121,0.495058306 1.04125385,0.431830542 1.21,0.51 L64.82,37.23 C64.9498447,37.3156921 65.0099543,37.4750967 64.9690205,37.6251874 C64.9280867,37.7752781 64.7953715,37.8820941 64.64,37.89 L64.63,37.9 Z" id="Shape" fill="url(#linearGradient-3)"></path>
                                    <path d="M43.41,61.93 C43.2482735,61.9286483 43.1072995,61.8196105 43.065337,61.6634169 C43.0233746,61.5072233 43.090725,61.3422178 43.23,61.26 L64.44,49.06 C66.4435981,47.9047217 67.6781468,45.7678064 67.6781468,43.455 C67.6781468,41.1421936 66.4435981,39.0052783 64.44,37.85 C64.2884604,37.7421971 64.2439744,37.536712 64.3373578,37.3758852 C64.4307411,37.2150583 64.6312539,37.1518305 64.8,37.23 C67.0282839,38.5107556 68.4020432,40.884867 68.4020432,43.455 C68.4020432,46.025133 67.0282839,48.3992444 64.8,49.68 L43.59,61.88 C43.5354451,61.9122155 43.4733544,61.9294629 43.41,61.93 Z" id="Shape" fill="url(#linearGradient-4)"></path>
                                    <polygon id="Shape" fill="url(#linearGradient-5)" points="14.01 12.03 20.21 12.03 20.19 8.43"></polygon>
                                    <path d="M20.21,12.38 L14,12.38 C13.8446285,12.3720941 13.7119133,12.2652781 13.6709795,12.1151874 C13.6300457,11.9650967 13.6901553,11.8056921 13.82,11.72 L20,8.13 C20.111111,8.06584797 20.2479672,8.06567864 20.3592366,8.12955553 C20.4705061,8.19343242 20.5393704,8.31170057 20.54,8.44 L20.54,12.03 C20.54,12.2288225 20.3788225,12.39 20.18,12.39 L20.21,12.38 Z M15.33,11.67 L19.85,11.67 L19.85,9.05 L15.33,11.67 Z" id="Shape" fill="url(#linearGradient-6)"></path>
                                    <polygon id="Shape" fill="url(#linearGradient-7)" points="31.14 21.82 37.34 21.82 37.32 18.23"></polygon>
                                    <path d="M37.34,22.18 L31.14,22.18 C30.9846285,22.1720941 30.8519133,22.0652781 30.8109795,21.9151874 C30.7700457,21.7650967 30.8301553,21.6056921 30.96,21.52 L37.14,17.93 C37.251111,17.865848 37.3879672,17.8656786 37.4992366,17.9295555 C37.6105061,17.9934324 37.6793704,18.1117006 37.68,18.24 L37.68,21.83 C37.68,22.0288225 37.5188225,22.19 37.32,22.19 L37.34,22.18 Z M32.46,21.47 L37,21.47 L37,18.85 L32.46,21.47 Z" id="Shape" fill="url(#linearGradient-8)"></path>
                                    <polygon id="Shape" fill="url(#linearGradient-9)" points="48.27 31.62 54.48 31.62 54.45 28.02"></polygon>
                                    <path d="M54.47,32 L48.27,32 C48.1146285,31.9920941 47.9819133,31.8852781 47.9409795,31.7351874 C47.9000457,31.5850967 47.9601553,31.4256921 48.09,31.34 L54.27,27.75 C54.381111,27.685848 54.5179672,27.6856786 54.6292366,27.7495555 C54.7405061,27.8134324 54.8093704,27.9317006 54.81,28.06 L54.81,31.65 C54.81,31.7454779 54.7720715,31.8370453 54.7045584,31.9045584 C54.6370453,31.9720715 54.5454779,32.01 54.45,32.01 L54.47,32 Z M49.59,31.29 L54.11,31.29 L54.11,28.64 L49.59,31.29 Z" id="Shape" fill="url(#linearGradient-10)"></path>
                                    <polygon id="Shape" fill="url(#linearGradient-11)" points="56.47 57.9 50.26 57.9 50.29 54.31"></polygon>
                                    <path d="M50.26,58.26 C50.0611775,58.26 49.9,58.0988225 49.9,57.9 L49.9,54.31 C49.9006296,54.1817006 49.9694939,54.0634324 50.0807634,53.9995555 C50.1920328,53.9356786 50.328889,53.935848 50.44,54 L56.62,57.59 C56.7498447,57.6756921 56.8099543,57.8350967 56.7690205,57.9851874 C56.7280867,58.1352781 56.5953715,58.2420941 56.44,58.25 L50.26,58.26 Z M50.63,54.93 L50.63,57.55 L55.15,57.55 L50.63,54.93 Z" id="Shape" fill="url(#linearGradient-12)"></path>
                                </g>
                                <path d="M276.63,85.65 C276.570968,85.665242 276.509032,85.665242 276.45,85.65 L212.85,48.88 C212.69846,48.7721971 212.653974,48.566712 212.747358,48.4058852 C212.840741,48.2450583 213.041254,48.1818305 213.21,48.26 L276.81,85 C276.949275,85.0822178 277.016625,85.2472233 276.974663,85.4034169 C276.932701,85.5596105 276.791726,85.6686483 276.63,85.67 L276.63,85.65 Z" id="Shape" fill="url(#linearGradient-13)"></path>
                                <path d="M255.41,109.68 C255.248274,109.678648 255.107299,109.569611 255.065337,109.413417 C255.023375,109.257223 255.090725,109.092218 255.23,109.01 L276.44,96.81 C278.443598,95.6547217 279.678147,93.5178064 279.678147,91.205 C279.678147,88.8921936 278.443598,86.7552783 276.44,85.6 C276.28846,85.4921971 276.243974,85.286712 276.337358,85.1258852 C276.430741,84.9650583 276.631254,84.9018305 276.8,84.98 C279.023392,86.2620757 280.393358,88.6334479 280.393358,91.2 C280.393358,93.7665521 279.023392,96.1379243 276.8,97.42 L255.59,109.62 C255.536445,109.655736 255.474286,109.676456 255.41,109.68 Z" id="Shape" fill="#6B67F5"></path>
                                <polygon id="Shape" fill="#FFFFFF" points="226.01 59.78 232.21 59.78 232.19 56.19"></polygon>
                                <path d="M232.21,60.14 L226,60.14 C225.844629,60.1320941 225.711913,60.0252781 225.670979,59.8751874 C225.630046,59.7250967 225.690155,59.5656921 225.82,59.48 L232,55.88 C232.111111,55.815848 232.247967,55.8156786 232.359237,55.8795555 C232.470506,55.9434324 232.53937,56.0617006 232.54,56.19 L232.54,59.78 C232.54,59.9788225 232.378823,60.14 232.18,60.14 L232.21,60.14 Z M227.33,59.43 L231.85,59.43 L231.85,56.8 L227.33,59.43 Z" id="Shape" fill="#6B67F5"></path>
                                <polygon id="Shape" fill="#FFFFFF" points="243.14 69.57 249.34 69.58 249.32 65.98"></polygon>
                                <path d="M249.34,69.93 L243.14,69.93 C242.984629,69.9220941 242.851913,69.8152781 242.810979,69.6651874 C242.770046,69.5150967 242.830155,69.3556921 242.96,69.27 L249.14,65.68 C249.251111,65.615848 249.387967,65.6156786 249.499237,65.6795555 C249.610506,65.7434324 249.67937,65.8617006 249.68,65.99 L249.68,69.58 C249.68,69.7788225 249.518823,69.94 249.32,69.94 L249.34,69.93 Z M244.46,69.22 L249,69.22 L249,66.6 L244.46,69.22 Z" id="Shape" fill="#6B67F5"></path>
                                <polygon id="Shape" fill="#FFFFFF" points="260.27 79.37 266.48 79.37 266.45 75.78"></polygon>
                                <path d="M266.47,79.73 L260.27,79.73 C260.114629,79.7220941 259.981913,79.6152781 259.940979,79.4651874 C259.900046,79.3150967 259.960155,79.1556921 260.09,79.07 L266.27,75.48 C266.381111,75.415848 266.517967,75.4156786 266.629237,75.4795555 C266.740506,75.5434324 266.80937,75.6617006 266.81,75.79 L266.81,79.38 C266.81,79.4754779 266.772072,79.5670453 266.704558,79.6345584 C266.637045,79.7020715 266.545478,79.74 266.45,79.74 L266.47,79.73 Z M261.59,79 L266.11,79 L266.11,76.39 L261.59,79 Z" id="Shape" fill="#6B67F5"></path>
                                <polygon id="Shape" fill="#FFFFFF" points="268.47 105.65 262.26 105.65 262.29 102.06"></polygon>
                                <path d="M262.26,106 C262.061177,106 261.9,105.838823 261.9,105.64 L261.9,102.05 C261.90063,101.921701 261.969494,101.803432 262.080763,101.739556 C262.192033,101.675679 262.328889,101.675848 262.44,101.74 L268.62,105.33 C268.749845,105.415692 268.809954,105.575097 268.769021,105.725187 C268.728087,105.875278 268.595371,105.982094 268.44,105.99 L262.26,106 Z M262.63,102.67 L262.63,105.29 L267.15,105.29 L262.63,102.67 Z" id="Shape" fill="#6B67F5"></path>
                                <path d="M165.7,45.72 C165.842432,45.7751964 165.936303,45.9122472 165.936303,46.065 C165.936303,46.2177528 165.842432,46.3548036 165.7,46.41 C165.32273,46.6007054 164.87727,46.6007054 164.5,46.41 L147.5,36.59 L147.94,43.27 C147.94,43.54 147.59,43.77 147.12,43.78 C146.901282,43.7902396 146.683796,43.7419093 146.49,43.64 C146.356889,43.5785246 146.263145,43.454783 146.24,43.31 L145.72,35.38 C145.72,35.18 145.91,34.99 146.23,34.92 C146.544859,34.8351798 146.880033,34.8708366 147.17,35.02 L165.7,45.72 Z" id="Shape" fill="#DCDCDC"></path>
                                <path d="M166.21,34.69 C177.08,40.96 177.13,51.13 166.34,57.41 C155.55,63.69 137.99,63.68 127.12,57.41 C116.25,51.14 116.2,41 127,34.69 C137.8,28.38 155.35,28.42 166.21,34.69 Z M146.75,61.13 C153.41,61.13 160.06,59.66 165.14,56.72 C170.22,53.78 172.72,49.92 172.7,46.06 C172.68,42.2 170.12,38.34 165.01,35.4 C159.9,32.46 153.24,31 146.58,31 C139.92,31 133.26,32.47 128.2,35.42 C123.14,38.37 120.61,42.22 120.63,46.08 C120.65,49.94 123.21,53.8 128.31,56.74 C133.41,59.68 140.08,61.15 146.75,61.15 L146.75,61.13 Z" id="Shape" fill="#DCDCDC"></path>
                                <path d="M154.85,46.31 C154.997425,46.375147 155.094565,46.5189139 155.1,46.68 C155.1,46.95 154.69,47.16 154.22,47.15 L130.36,46.58 L147.36,56.39 C147.502432,56.4451964 147.596303,56.5822472 147.596303,56.735 C147.596303,56.8877528 147.502432,57.0248036 147.36,57.08 C146.983118,57.2723266 146.536882,57.2723266 146.16,57.08 L127.62,46.38 C127.37,46.24 127.3,46.02 127.44,45.83 C127.652491,45.6161906 127.950091,45.5096421 128.25,45.54 L154.25,46.16 C154.459564,46.1576346 154.666204,46.2092946 154.85,46.31 Z" id="Shape" fill="#DCDCDC"></path>
                                <g id="Group" opacity="0.1" transform="translate(146.000000, 116.000000)" fill="url(#linearGradient-14)">
                                    <polygon id="Shape" points="121.27 19 33.37 70.08 0.69 51.21 88.59 0.13"></polygon>
                                </g>
                                <g id="Group" transform="translate(146.000000, 94.000000)">
                                    <polygon id="Shape" fill="#D99E53" points="121.27 19.62 121.25 28.33 33.34 79.42 33.37 70.71"></polygon>
                                    <polygon id="Shape" fill="#E6BE7E" points="33.37 70.71 33.34 79.42 0.66 60.55 0.69 51.84"></polygon>
                                    <polygon id="Shape" fill="#F2D79D" points="121.27 19.62 33.37 70.71 0.69 51.84 88.59 0.75"></polygon>
                                </g>
                                <path d="M190,143.23 C193.07,145 193.94,146.59 190.78,148.42 C187.62,150.25 184.88,149.75 181.78,147.98 C178.68,146.21 178.04,144.63 181.1,142.85 C184.16,141.07 187,141.51 190,143.23 Z M183.83,146.81 C185.97,148.05 187.38,148.43 189.08,147.44 C190.78,146.45 190.08,145.64 187.97,144.44 C185.86,143.24 184.45,142.94 182.83,143.88 C181.21,144.82 181.68,145.62 183.83,146.88 L183.83,146.81 Z" id="Shape" fill="#676D94"></path>
                                <polygon id="Shape" fill="#676D94" points="199.79 132.25 207.09 138.71 203.91 140.56 196.15 137.73 201.05 142.22 197.88 144.07 186.7 139.87 188.66 138.72 197.63 142.22 197.99 142.01 192.4 136.76 194.46 135.57 203.53 138.79 203.9 138.58 197.81 133.41"></polygon>
                                <polygon id="Shape" fill="#676D94" points="176.1 144.18 172.56 146.24 183.38 152.49 181.33 153.68 170.51 147.44 166.93 149.52 165.1 148.46 174.28 143.13"></polygon>
                                <path d="M240.9,119.3 C239.963406,119.896319 238.888736,120.240765 237.78,120.3 C237.192323,121.16568 236.416251,121.887051 235.51,122.41 C233.753793,123.45806 231.554236,123.415387 229.84,122.3 C227.84,121.17 228.28,120.17 230.08,118.93 L232.24,117.44 L231.58,117.06 C230.776429,116.505305 229.713571,116.505305 228.91,117.06 C227.68,117.77 225.75,119.06 225.65,119.17 L224.15,118.39 C225.129605,117.474244 226.202077,116.663187 227.35,115.97 C229.214579,114.690473 231.667053,114.662829 233.56,115.9 L237.77,118.33 C238.287197,118.612809 238.912803,118.612809 239.43,118.33 L240.9,119.3 Z M231.78,121.13 C232.51364,121.633596 233.46755,121.683802 234.25,121.26 C234.947505,120.835974 235.577787,120.310177 236.12,119.7 L233.67,118.28 L231.74,119.64 C230.97,120.17 230.95,120.64 231.74,121.13 L231.78,121.13 Z" id="Shape" fill="#676D94"></path>
                                <polygon id="Shape" fill="#676D94" points="244.57 116.93 242.57 118.09 229.49 110.54 231.5 109.38"></polygon>
                                <polygon id="Shape" fill="#676D94" points="230.52 125.1 228.46 126.29 223 123.14 217.57 126.29 223.03 129.45 221 130.63 208.35 123.33 210.38 122.15 215.77 125.26 221.2 122.1 215.81 118.99 217.87 117.8"></polygon>
                                <path d="M218.43,132.13 L216.43,133.28 L211.54,130.45 C209.69,129.38 208.54,129 207.16,129.81 C206.51981,130.173536 205.972243,130.680035 205.56,131.29 L212.73,135.43 L210.73,136.59 L201.49,131.26 L203.49,130.11 L204.07,130.44 C204.460386,129.64445 205.071335,128.97796 205.83,128.52 C208.38,127.04 210.46,127.52 213.49,129.27 L218.43,132.13 Z" id="Shape" fill="#676D94"></path>
                                <polygon id="Shape" fill="#676D94" points="249.21 114.24 247.21 115.4 234.13 107.85 236.13 106.69"></polygon>
                                <g id="Group" opacity="0.8" transform="translate(179.000000, 68.000000)" fill="url(#linearGradient-15)">
                                    <polygon id="Shape" points="0.37 96.71 0.37 51.46 88.27 0.53 88.27 45.62"></polygon>
                                </g>
                                <g id="Group" opacity="0.4" transform="translate(146.000000, 100.000000)" fill="url(#linearGradient-16)">
                                    <polygon id="Shape" points="33.37 64.71 0.69 45.84 0.69 0.84 33.37 19.46"></polygon>
                                </g>
                                <path d="M48.42,89.41 C48.4923515,89.4351787 48.5408392,89.5033925 48.5408392,89.58 C48.5408392,89.6566075 48.4923515,89.7248213 48.42,89.75 C48.2315592,89.8461633 48.0084408,89.8461633 47.82,89.75 L39.38,84.88 L39.6,88.2 C39.6,88.33 39.43,88.45 39.19,88.45 C39.0822968,88.4544673 38.9753332,88.4303142 38.88,88.38 C38.8166683,88.3489818 38.7720446,88.2894835 38.76,88.22 L38.5,84.28 C38.5,84.18 38.6,84.09 38.75,84.05 C38.9073902,84.0070974 39.0751585,84.0249451 39.22,84.1 L48.42,89.41 Z" id="Shape" fill="#E6E6FF"></path>
                                <path d="M48.67,83.93 C54.06,87.04 54.09,92.09 48.73,95.2 C43.37,98.31 34.66,98.31 29.27,95.2 C23.88,92.09 23.85,87 29.21,83.93 C34.57,80.86 43.28,80.82 48.67,83.93 Z M39,97.05 C42.1773102,97.1123879 45.317469,96.3583366 48.12,94.86 C50.63,93.4 51.88,91.48 51.87,89.57 C51.86,87.66 50.59,85.74 48.06,84.28 C45.2466437,82.7817079 42.0968459,82.0278218 38.91,82.09 C35.7325926,82.0267157 32.5922105,82.7808206 29.79,84.28 C27.27,85.74 26.02,87.66 26.04,89.57 C26.06,91.48 27.32,93.4 29.85,94.86 C32.6636727,96.3574568 35.8132502,97.1112901 39,97.05 Z" id="Shape" fill="#E6E6FF"></path>
                                <path d="M43,89.7 C43.0702051,89.7331966 43.1163589,89.8024274 43.12,89.88 C43.12,90.01 42.91,90.12 42.68,90.11 L30.84,89.83 L39.27,94.7 C39.3423515,94.7251787 39.3908392,94.7933925 39.3908392,94.87 C39.3908392,94.9466075 39.3423515,95.0148213 39.27,95.04 C39.0819632,95.1378292 38.8580368,95.1378292 38.67,95.04 L29.47,89.73 C29.35,89.66 29.31,89.55 29.38,89.46 C29.4849591,89.3538753 29.6311406,89.2990572 29.78,89.31 L42.7,89.62 C42.8052871,89.619883 42.9087512,89.6474734 43,89.7 Z" id="Shape" fill="#E6E6FF"></path>
                                <path d="M6.27,119.62 C6.10827351,119.618648 5.96729949,119.509611 5.92533703,119.353417 C5.88337457,119.197223 5.95072501,119.032218 6.09,118.95 L23.3,109 C23.4687461,108.921831 23.6692589,108.985058 23.7626422,109.145885 C23.8560256,109.306712 23.8115396,109.512197 23.66,109.62 L6.44,119.57 C6.38838437,119.600571 6.32994749,119.617758 6.27,119.62 Z" id="Shape" fill="url(#linearGradient-17)"></path>
                                <path d="M132.79,184.41 C132.634629,184.402094 132.501913,184.295278 132.460979,184.145187 C132.420046,183.995097 132.480155,183.835692 132.61,183.75 L168.86,162.67 C168.971276,162.59084 169.11776,162.581456 169.238227,162.64577 C169.358694,162.710084 169.4324,162.837022 169.428538,162.973527 C169.424676,163.110032 169.34391,163.2326 169.22,163.29 L133,184.36 C132.937017,184.398377 132.86352,184.415876 132.79,184.41 Z" id="Shape" fill="url(#linearGradient-18)"></path>
                                <path d="M116.61,188.73 C110.867619,188.734621 105.225209,187.227449 100.25,184.36 L6.09,130 C4.14047468,128.853918 2.94332646,126.761449 2.94332646,124.5 C2.94332646,122.238551 4.14047468,120.146082 6.09,119 C6.25874615,118.921831 6.45925888,118.985058 6.55264222,119.145885 C6.64602555,119.306712 6.60153962,119.512197 6.45,119.62 C4.69556898,120.630196 3.61428309,122.500519 3.61428309,124.525 C3.61428309,126.549481 4.69556898,128.419804 6.45,129.43 L100.61,183.8 C110.515783,189.49775 122.704217,189.49775 132.61,183.8 C132.778746,183.721831 132.979259,183.785058 133.072642,183.945885 C133.166026,184.106712 133.12154,184.312197 132.97,184.42 C127.988991,187.266492 122.346937,188.752876 116.61,188.73 Z" id="Shape" fill="#6B67F5"></path>
                                <g id="Group" opacity="0.1" transform="translate(2.000000, 124.000000)">
                                    <path d="M4.27,9.87 C4.11462854,9.86209412 3.98191332,9.75527811 3.94097949,9.60518741 C3.90004567,9.45509671 3.96015526,9.29569212 4.09,9.21 L18.35,1 C18.5187461,0.921830542 18.7192589,0.985058306 18.8126422,1.14588516 C18.9060256,1.30671202 18.8615396,1.51219708 18.71,1.62 L4.44,9.82 C4.38856037,9.85097303 4.33001744,9.86819153 4.27,9.87 Z" id="Shape" fill="url(#linearGradient-19)"></path>
                                    <path d="M130.79,74.66 C130.634629,74.6520941 130.501913,74.5452781 130.460979,74.3951874 C130.420046,74.2450967 130.480155,74.0856921 130.61,74 L166.85,52.92 C167.018746,52.8418305 167.219259,52.9050583 167.312642,53.0658852 C167.406026,53.226712 167.36154,53.4321971 167.21,53.54 L131,74.61 C130.936763,74.6477558 130.863467,74.6652072 130.79,74.66 Z" id="Shape" fill="url(#linearGradient-20)"></path>
                                    <path d="M114.61,79 C108.867619,79.0046206 103.225209,77.4974488 98.25,74.63 L4.09,20.24 C2.14047468,19.0939179 0.94332646,17.0014494 0.94332646,14.74 C0.94332646,12.4785506 2.14047468,10.3860821 4.09,9.24 C4.20127563,9.16084025 4.34776045,9.15145625 4.46822719,9.21577029 C4.58869393,9.28008433 4.66239994,9.40702245 4.6585378,9.54352745 C4.65467567,9.68003246 4.57391039,9.80260012 4.45,9.86 C2.69556898,10.8701957 1.61428309,12.7405189 1.61428309,14.765 C1.61428309,16.7894811 2.69556898,18.6598043 4.45,19.67 L98.61,74 C108.515783,79.6977501 120.704217,79.6977501 130.61,74 C130.778746,73.9218305 130.979259,73.9850583 131.072642,74.1458852 C131.166026,74.306712 131.12154,74.5121971 130.97,74.62 C125.99576,77.4909431 120.35329,79.0015799 114.61,79 Z" id="Shape" fill="url(#linearGradient-21)"></path>
                                    <polygon id="Shape" fill="url(#linearGradient-22)" points="11.47 27.66 17.67 27.67 17.65 24.07"></polygon>
                                    <path d="M17.67,28 L11.47,28 C11.3146285,27.9920941 11.1819133,27.8852781 11.1409795,27.7351874 C11.1000457,27.5850967 11.1601553,27.4256921 11.29,27.34 L17.47,23.75 C17.581111,23.685848 17.7179672,23.6856786 17.8292366,23.7495555 C17.9405061,23.8134324 18.0093704,23.9317006 18.01,24.06 L18.01,27.65 C18.01,27.8488225 17.8488225,28.01 17.65,28.01 L17.67,28 Z M12.79,27.29 L17.31,27.29 L17.31,24.67 L12.79,27.29 Z" id="Shape" fill="url(#linearGradient-23)"></path>
                                    <polygon id="Shape" fill="url(#linearGradient-24)" points="28.6 37.46 34.8 37.46 34.78 33.87"></polygon>
                                    <path d="M34.8,37.82 L28.6,37.82 C28.4446285,37.8120941 28.3119133,37.7052781 28.2709795,37.5551874 C28.2300457,37.4050967 28.2901553,37.2456921 28.42,37.16 L34.6,33.57 C34.711111,33.505848 34.8479672,33.5056786 34.9592366,33.5695555 C35.0705061,33.6334324 35.1393704,33.7517006 35.14,33.88 L35.14,37.47 C35.14,37.6688225 34.9788225,37.83 34.78,37.83 L34.8,37.82 Z M29.92,37.11 L34.44,37.11 L34.44,34.49 L29.92,37.11 Z" id="Shape" fill="url(#linearGradient-25)"></path>
                                    <polygon id="Shape" fill="url(#linearGradient-26)" points="45.73 47.25 51.93 47.25 51.91 43.66"></polygon>
                                    <path d="M51.93,47.61 L45.73,47.61 C45.5746285,47.6020941 45.4419133,47.4952781 45.4009795,47.3451874 C45.3600457,47.1950967 45.4201553,47.0356921 45.55,46.95 L51.73,43.36 C51.841111,43.295848 51.9779672,43.2956786 52.0892366,43.3595555 C52.2005061,43.4234324 52.2693704,43.5417006 52.27,43.67 L52.27,47.26 C52.27,47.4588225 52.1088225,47.62 51.91,47.62 L51.93,47.61 Z M47.05,46.9 L51.57,46.9 L51.57,44.28 L47.05,46.9 Z" id="Shape" fill="url(#linearGradient-27)"></path>
                                    <polygon id="Shape" fill="url(#linearGradient-28)" points="62.86 57.05 69.06 57.05 69.04 53.46"></polygon>
                                    <path d="M69.06,57.41 L62.86,57.41 C62.7046285,57.4020941 62.5719133,57.2952781 62.5309795,57.1451874 C62.4900457,56.9950967 62.5501553,56.8356921 62.68,56.75 L68.86,53.16 C68.971111,53.095848 69.1079672,53.0956786 69.2192366,53.1595555 C69.3305061,53.2234324 69.3993704,53.3417006 69.4,53.47 L69.4,57.06 C69.4,57.2588225 69.2388225,57.42 69.04,57.42 L69.06,57.41 Z M64.18,56.7 L68.7,56.7 L68.7,54.08 L64.18,56.7 Z" id="Shape" fill="url(#linearGradient-29)"></path>
                                    <polygon id="Shape" fill="url(#linearGradient-30)" points="79.99 66.84 86.19 66.84 86.17 63.25"></polygon>
                                    <path d="M86.19,67.2 L80,67.2 C79.8446285,67.1920941 79.7119133,67.0852781 79.6709795,66.9351874 C79.6300457,66.7850967 79.6901553,66.6256921 79.82,66.54 L86,62.94 C86.111111,62.875848 86.2479672,62.8756786 86.3592366,62.9395555 C86.4705061,63.0034324 86.5393704,63.1217006 86.54,63.25 L86.54,66.84 C86.54,67.0388225 86.3788225,67.2 86.18,67.2 L86.19,67.2 Z M81.31,66.49 L85.83,66.49 L85.83,63.87 L81.31,66.49 Z" id="Shape" fill="url(#linearGradient-31)"></path>
                                    <polygon id="Shape" fill="url(#linearGradient-32)" points="134.28 74.62 135.74 71.48 128.09 71.02"></polygon>
                                    <path d="M134.28,75 C134.221026,75.0156924 134.158974,75.0156924 134.1,75 L127.92,71.41 C127.787515,71.3221211 127.728361,71.1577443 127.774467,71.0055959 C127.820572,70.8534476 127.96102,70.7495563 128.12,70.75 L135.76,71.21 C135.877716,71.2187882 135.983644,71.284728 136.043495,71.3864737 C136.103345,71.4882194 136.109512,71.6128423 136.06,71.72 L134.6,74.85 C134.556633,74.9414413 134.47678,75.0104054 134.38,75.04 L134.28,75 Z M129.57,71.5 L134.12,74.14 L135.19,71.83 L129.57,71.5 Z" id="Shape" fill="url(#linearGradient-33)"></path>
                                    <polygon id="Shape" fill="url(#linearGradient-34)" points="150.85 65.05 152.31 61.91 144.66 61.45"></polygon>
                                    <path d="M150.85,65.4 C150.790968,65.415242 150.729032,65.415242 150.67,65.4 L144.49,61.81 C144.357515,61.7221211 144.298361,61.5577443 144.344467,61.4055959 C144.390572,61.2534476 144.53102,61.1495563 144.69,61.15 L152.33,61.61 C152.447716,61.6187882 152.553644,61.684728 152.613495,61.7864737 C152.673345,61.8882194 152.679512,62.0128423 152.63,62.12 L151.17,65.25 C151.126633,65.3414413 151.04678,65.4104054 150.95,65.44 L150.85,65.4 Z M146.14,61.9 L150.69,64.54 L151.76,62.23 L146.14,61.9 Z" id="Shape" fill="url(#linearGradient-35)"></path>
                                </g>
                                <polygon id="Shape" fill="#FFFFFF" points="13.47 137.42 19.67 137.42 19.65 133.82"></polygon>
                                <path d="M19.67,137.77 L13.47,137.77 C13.3146285,137.762094 13.1819133,137.655278 13.1409795,137.505187 C13.1000457,137.355097 13.1601553,137.195692 13.29,137.11 L19.47,133.52 C19.5804261,133.46081 19.7136838,133.463289 19.8218319,133.526546 C19.9299799,133.589802 19.9974618,133.704737 20,133.83 L20,137.42 C20,137.618823 19.8388225,137.78 19.64,137.78 L19.67,137.77 Z M14.79,137.06 L19.31,137.06 L19.31,134.44 L14.79,137.06 Z" id="Shape" fill="#6B67F5"></path>
                                <polygon id="Shape" fill="#FFFFFF" points="30.6 147.21 36.8 147.21 36.78 143.62"></polygon>
                                <path d="M36.8,147.57 L30.6,147.57 C30.4446285,147.562094 30.3119133,147.455278 30.2709795,147.305187 C30.2300457,147.155097 30.2901553,146.995692 30.42,146.91 L36.6,143.32 C36.711111,143.255848 36.8479672,143.255679 36.9592366,143.319556 C37.0705061,143.383432 37.1393704,143.501701 37.14,143.63 L37.14,147.22 C37.14,147.418823 36.9788225,147.58 36.78,147.58 L36.8,147.57 Z M31.92,146.86 L36.44,146.86 L36.44,144.24 L31.92,146.86 Z" id="Shape" fill="#6B67F5"></path>
                                <polygon id="Shape" fill="#FFFFFF" points="47.73 157.01 53.93 157.01 53.91 153.41"></polygon>
                                <path d="M53.93,157.36 L47.73,157.36 C47.5746285,157.352094 47.4419133,157.245278 47.4009795,157.095187 C47.3600457,156.945097 47.4201553,156.785692 47.55,156.7 L53.73,153.11 C53.8404261,153.05081 53.9736838,153.053289 54.0818319,153.116546 C54.1899799,153.179802 54.2574618,153.294737 54.26,153.42 L54.26,157.01 C54.26,157.105478 54.2220715,157.197045 54.1545584,157.264558 C54.0870453,157.332072 53.9954779,157.37 53.9,157.37 L53.93,157.36 Z M49.05,156.65 L53.57,156.65 L53.57,154 L49.05,156.65 Z" id="Shape" fill="#6B67F5"></path>
                                <polygon id="Shape" fill="#FFFFFF" points="64.86 166.8 71.06 166.8 71.04 163.21"></polygon>
                                <path d="M71.06,167.16 L64.86,167.16 C64.7046285,167.152094 64.5719133,167.045278 64.5309795,166.895187 C64.4900457,166.745097 64.5501553,166.585692 64.68,166.5 L70.86,162.91 C70.971111,162.845848 71.1079672,162.845679 71.2192366,162.909556 C71.3305061,162.973432 71.3993704,163.091701 71.4,163.22 L71.4,166.81 C71.4,166.905478 71.3620715,166.997045 71.2945584,167.064558 C71.2270453,167.132072 71.1354779,167.17 71.04,167.17 L71.06,167.16 Z M66.18,166.45 L70.7,166.45 L70.7,163.83 L66.18,166.45 Z" id="Shape" fill="#6B67F5"></path>
                                <polygon id="Shape" fill="#FFFFFF" points="81.99 176.59 88.19 176.6 88.17 173"></polygon>
                                <path d="M88.19,177 L82,177 C81.8446285,176.992094 81.7119133,176.885278 81.6709795,176.735187 C81.6300457,176.585097 81.6901553,176.425692 81.82,176.34 L88,172.69 C88.1104261,172.63081 88.2436838,172.633289 88.3518319,172.696546 C88.4599799,172.759802 88.5274618,172.874737 88.53,173 L88.53,176.59 C88.53,176.685478 88.4920715,176.777045 88.4245584,176.844558 C88.3570453,176.912072 88.2654779,176.95 88.17,176.95 L88.19,177 Z M83.31,176.29 L87.83,176.29 L87.83,173.67 L83.31,176.29 Z" id="Shape" fill="#6B67F5"></path>
                                <polygon id="Shape" fill="#FFFFFF" points="136.28 184.37 137.74 181.23 130.09 180.78"></polygon>
                                <path d="M136.28,184.72 C136.220968,184.735242 136.159032,184.735242 136.1,184.72 L129.92,181.13 C129.77961,181.045642 129.713857,180.877151 129.76,180.72 C129.795142,180.554668 129.952807,180.445178 130.12,180.47 L137.76,180.93 C137.877716,180.938788 137.983644,181.004728 138.043495,181.106474 C138.103345,181.208219 138.109512,181.332842 138.06,181.44 L136.6,184.57 C136.556633,184.661441 136.47678,184.730405 136.38,184.76 L136.28,184.72 Z M131.57,181.22 L136.12,183.86 L137.19,181.55 L131.57,181.22 Z" id="Shape" fill="#6B67F5"></path>
                                <polygon id="Shape" fill="#FFFFFF" points="152.85 174.8 154.31 171.66 146.66 171.21"></polygon>
                                <path d="M152.85,175.15 C152.790968,175.165242 152.729032,175.165242 152.67,175.15 L146.49,171.56 C146.34961,171.475642 146.283857,171.307151 146.33,171.15 C146.360416,170.981579 146.521563,170.869671 146.69,170.9 L154.33,171.36 C154.447716,171.368788 154.553644,171.434728 154.613495,171.536474 C154.673345,171.638219 154.679512,171.762842 154.63,171.87 L153.17,175 C153.126633,175.091441 153.04678,175.160405 152.95,175.19 L152.85,175.15 Z M148.14,171.65 L152.69,174.29 L153.76,171.98 L148.14,171.65 Z" id="Shape" fill="#6B67F5"></path>
                            </g>
                        </g>
                    </g>
                </g>
            </g>
        </g>
    </g>
</svg>