<?xml version="1.0" encoding="UTF-8"?>
<svg width="226px" height="208px" viewBox="0 0 226 208" version="1.1" xmlns="http://www.w3.org/2000/svg" xmlns:xlink="http://www.w3.org/1999/xlink">
    <!-- Generator: Sketch 49.3 (51167) - http://www.bohemiancoding.com/sketch -->
    <title>11</title>
    <desc>Created with Sketch.</desc>
    <defs></defs>
    <g id="Page-2" stroke="none" stroke-width="1" fill="none" fill-rule="evenodd">
        <g id="menlo-home-copy-30" transform="translate(-206.000000, -3167.000000)">
            <g id="how-it-works" transform="translate(198.000000, 3016.000000)">
                <g id="1" transform="translate(10.000000, 151.000000)">
                    <path d="M78.7577551,193.74 L73.8577551,193.74 L73.8577551,207 L71.6977551,207 L71.6977551,193.74 L66.8177551,193.74 L66.8177551,191.8 L78.7577551,191.8 L78.7577551,193.74 Z M85.2977551,196.8 C88.2377551,196.8 90.6377551,198.96 90.6377551,202.04 C90.6377551,205.12 88.2377551,207.28 85.2977551,207.28 C82.3177551,207.28 79.9177551,205.12 79.9177551,202.04 C79.9177551,198.96 82.3177551,196.8 85.2977551,196.8 Z M85.2977551,205.44 C87.0977551,205.44 88.6177551,204.1 88.6177551,202.04 C88.6177551,199.98 87.0977551,198.64 85.2977551,198.64 C83.4577551,198.64 81.9577551,199.98 81.9577551,202.04 C81.9577551,204.1 83.4577551,205.44 85.2977551,205.44 Z M107.557755,197.08 L103.857755,207.04 L102.077755,207.04 L99.5977551,200.36 L97.0977551,207.04 L95.3177551,207.04 L91.6177551,197.08 L93.8377551,197.08 L96.2977551,203.88 L98.7777551,197.08 L100.397755,197.08 L102.877755,203.92 L105.337755,197.08 L107.557755,197.08 Z M114.917755,196.8 C117.297755,196.8 118.897755,198.52 118.897755,201 L118.897755,207 L116.797755,207 L116.797755,201.42 C116.797755,199.8 115.857755,198.72 114.437755,198.72 C112.657755,198.72 111.477755,199.92 111.477755,202.42 L111.477755,207 L109.397755,207 L109.397755,197.08 L111.477755,197.08 L111.477755,198.3 C112.277755,197.34 113.437755,196.8 114.917755,196.8 Z M127.317755,196.8 C129.697755,196.8 131.297755,198.52 131.297755,201 L131.297755,207 L129.197755,207 L129.197755,201.42 C129.197755,199.8 128.257755,198.72 126.837755,198.72 C125.057755,198.72 123.877755,199.92 123.877755,202.42 L123.877755,207 L121.797755,207 L121.797755,191 L123.877755,191 L123.877755,198.3 C124.677755,197.34 125.837755,196.8 127.317755,196.8 Z M143.577755,205.1 L143.737755,206.76 C143.197755,207.02 142.797755,207.1 142.317755,207.1 C141.317755,207.1 140.617755,206.66 140.337755,205.72 C139.597755,206.62 138.457755,207.28 136.817755,207.28 C134.757755,207.28 133.337755,206.08 133.337755,204.26 C133.337755,202.42 134.737755,201.3 137.357755,201.1 L140.217755,200.88 L140.217755,200.7 C140.217755,199.42 139.417755,198.58 138.057755,198.58 C136.897755,198.58 136.077755,199.22 135.857755,200.34 L133.937755,199.92 C134.317755,198 135.897755,196.8 138.137755,196.8 C140.517755,196.8 142.197755,198.14 142.197755,200.54 L142.197755,204.4 C142.197755,204.86 142.417755,205.18 142.737755,205.18 C142.937755,205.18 143.137755,205.14 143.577755,205.1 Z M137.217755,205.6 C138.897755,205.6 140.217755,204.44 140.217755,202.92 L140.217755,202.32 L137.517755,202.6 C136.037755,202.74 135.437755,203.34 135.437755,204.18 C135.437755,205.1 136.177755,205.6 137.217755,205.6 Z M147.597755,207 L145.517755,207 L145.517755,191 L147.597755,191 L147.597755,207 Z M152.837755,207 L150.757755,207 L150.757755,191 L152.837755,191 L152.837755,207 Z" id="Townhall" fill="#1C69EE"></path>
                    <g id="townhall-1">
                        <path d="M102.254742,17 L29.1788791,17 C24.667488,17 21,20.6696031 21,25.1788791 L21,67.9577795 C21,72.4681129 24.6706606,76.137716 29.1788791,76.137716 L33.0081681,76.137716 L33.0081681,88.6672427 C33.0081681,89.4244288 33.4650178,90.1054733 34.1640402,90.3952345 C34.3956376,90.4925265 34.6378102,90.538 34.8789254,90.538 C35.3664432,90.538 35.8455009,90.349761 36.2029435,89.9902033 L50.0554308,76.1387736 L102.254742,76.1387736 C106.765075,76.1387736 110.434678,72.4681129 110.434678,67.958837 L110.434678,25.1799366 C110.434678,20.6696031 106.764018,17 102.254742,17 Z M106.693164,67.9598945 C106.693164,70.4059441 104.700791,72.3972589 102.254742,72.3972589 L49.2823819,72.3972589 C49.1586518,72.3972589 49.0349216,72.4099492 48.912249,72.4332147 C48.8551428,72.4448475 48.8054392,72.4638829 48.7525631,72.4808032 C48.6891118,72.4998386 48.6256604,72.5135864 48.5632666,72.5400245 C48.4966427,72.5675201 48.4353064,72.6055909 48.3729125,72.6404891 C48.3295541,72.6648121 48.2830231,72.6838475 48.2407222,72.7113431 C48.1360275,72.7800821 48.0408505,72.8615113 47.9520186,72.9503432 L36.7507402,84.1505641 L36.7507402,74.2690738 C36.7507402,73.2337592 35.9121249,72.3962014 34.8778678,72.3962014 C34.8768103,72.3962014 34.8768103,72.3962014 34.8768103,72.3962014 L29.1778215,72.3962014 C26.7307145,72.3962014 24.7393996,70.403829 24.7393996,67.958837 L24.7393996,25.1799366 C24.7393996,22.733887 26.7307145,20.7415146 29.1778215,20.7415146 L102.252627,20.7415146 C104.698676,20.7415146 106.691049,22.7349445 106.691049,25.1799366 L106.693164,67.9598945 Z" id="Shape" fill="#777AF4" fill-rule="nonzero"></path>
                        <path d="M167.771449,81 L113.117087,81 C109.742961,81 107,83.7445426 107,87.1170871 L107,119.111968 C107,122.485303 109.745333,125.229846 113.117087,125.229846 L115.981061,125.229846 L115.981061,134.600837 C115.981061,135.167146 116.322744,135.676508 116.845552,135.893224 C117.018767,135.96599 117.199891,136 117.380224,136 C117.744845,136 118.103138,135.859214 118.370474,135.590296 L128.730924,125.230636 L167.771449,125.230636 C171.144784,125.230636 173.889327,122.485303 173.889327,119.112758 L173.889327,87.117878 C173.889327,83.7445426 171.143993,81 167.771449,81 Z M171.091001,119.113549 C171.091001,120.942981 169.60088,122.43231 167.771449,122.43231 L128.152751,122.43231 C128.060212,122.43231 127.967672,122.441802 127.875924,122.459202 C127.833213,122.467902 127.79604,122.482139 127.756493,122.494794 C127.709037,122.509031 127.661581,122.519313 127.614916,122.539087 C127.565087,122.559651 127.519213,122.588124 127.472547,122.614225 C127.440119,122.632417 127.405318,122.646654 127.373681,122.667218 C127.295378,122.718629 127.224194,122.779531 127.157755,122.845969 L118.780178,131.222756 L118.780178,123.832264 C118.780178,123.05794 118.152967,122.431519 117.379433,122.431519 C117.378642,122.431519 117.378642,122.431519 117.378642,122.431519 L113.116296,122.431519 C111.286074,122.431519 109.796744,120.941399 109.796744,119.112758 L109.796744,87.117878 C109.796744,85.2884466 111.286074,83.7983261 113.116296,83.7983261 L167.769867,83.7983261 C169.599298,83.7983261 171.089419,85.2892375 171.089419,87.117878 L171.091001,119.113549 Z" id="Shape-Copy" fill="#777AF4" fill-rule="nonzero" transform="translate(140.444663, 108.500000) scale(-1, 1) translate(-140.444663, -108.500000) "></path>
                        <g id="M1mark-fill" transform="translate(156.000000, 53.000000)" fill-rule="nonzero">
                            <path d="M56,28 C56,12.5216 43.4784,0 28,0 C12.5216,0 0,12.5216 0,28 C0,43.4784 12.6224,56 28,56 C43.4784,56 56,43.4784 56,28 Z" id="Shape" fill="#1C69EE"></path>
                            <g id="Group" transform="translate(15.000000, 16.000000)" fill="#FFFFFF">
                                <path d="M17.8996553,10.1000124 L23.3299281,4.67436316 L23.3299281,21.6154464 C23.3299281,22.4484298 23.9720973,23 24.7156616,23 C25.4592259,23 26,22.3583776 26,21.7167552 L26,1.35368573 C26,0.802115576 25.7183468,0.250545425 25.1663067,0.0704408863 C24.7043955,-0.109663653 24.0622263,0.0704408863 23.6904441,0.441906498 L15.9506155,8.17514514 C15.3985753,8.63666302 15.3985753,9.55969878 15.9506155,10.1112689 C16.4237928,10.6515825 17.3476151,10.6515825 17.8996553,10.1000124 Z" id="Shape"></path>
                                <path d="M17.6579877,17.6655432 C18.2115651,17.204124 18.2115651,16.2812854 17.6579877,15.7298332 L2.31598687,0.457981143 C1.94316947,-0.00343811517 1.38959212,-0.0934711411 0.836014774,0.0865949107 C0.372817399,0.367948117 0,0.818113246 0,1.36956553 L0,21.6157422 C0,22.4485477 0.643957326,23 1.38959212,23 C2.13522692,23 2.77918425,22.3585147 2.77918425,21.7170294 L2.77918425,4.68953336 L15.7035207,17.6655432 C16.1780156,18.2169955 17.1044104,18.2169955 17.6579877,17.6655432 Z" id="Shape"></path>
                            </g>
                        </g>
                        <g id="M1mark-fill-Copy" transform="translate(4.000000, 0.000000)" fill-rule="nonzero">
                            <path d="M34,17 C34,7.6024 26.3976,0 17,0 C7.6024,0 0,7.6024 0,17 C0,26.3976 7.6636,34 17,34 C26.3976,34 34,26.3976 34,17 Z" id="Shape" fill="#1C69EE"></path>
                            <g id="Group" transform="translate(9.000000, 10.000000)" fill="#FFFFFF">
                                <path d="M11.0151725,6.14783363 L14.3568788,2.84526453 L14.3568788,13.1572282 C14.3568788,13.6642616 14.7520599,14 15.2096379,14 C15.667216,14 16,13.6094472 16,13.2188944 L16,0.823982616 C16,0.488244264 15.826675,0.152505911 15.4869579,0.0428770613 C15.2027049,-0.0667517885 14.8075239,0.0428770613 14.5787349,0.268986564 L9.81576339,4.9761753 C9.47604635,5.25709923 9.47604635,5.81894708 9.81576339,6.15468544 C10.1069494,6.48357199 10.6754555,6.48357199 11.0151725,6.14783363 Z" id="Shape"></path>
                                <path d="M10.866454,10.7529393 C11.207117,10.4720755 11.207117,9.91034766 10.866454,9.57468105 L1.42522269,0.27877113 C1.1957966,-0.00209276576 0.855133615,-0.0568954772 0.51447063,0.0527099457 C0.229426092,0.223968419 0,0.497981976 0,0.833648583 L0,13.1574083 C0,13.6643334 0.396281431,14 0.855133615,14 C1.3139858,14 1.71026723,13.6095307 1.71026723,13.2190614 L1.71026723,2.85449857 L9.66370508,10.7529393 C9.95570192,11.088606 10.525791,11.088606 10.866454,10.7529393 Z" id="Shape"></path>
                            </g>
                        </g>
                        <path d="M3.31440247,47 C-1.10480082,81.2579741 -1.10480082,105.744318 3.31440247,120.459031 C7.73360576,135.173744 23.4626163,153.542869 50.5014341,175.566406" id="Path-2" stroke="#1C69EE" stroke-width="4"></path>
                        <path id="Path-2-decoration-1" d="M50.5014341,175.566406 L44.0222696,166.419799 L40.2330687,171.07189 L50.5014341,175.566406 Z" stroke="#1C69EE" stroke-width="4"></path>
                        <path d="M174.314402,88 C169.895199,99.1915368 169.895199,112.144662 174.314402,126.859375 C178.733606,141.574088 194.462616,157.609244 221.501434,174.964844" id="Path-2-Copy" stroke="#1C69EE" stroke-width="4" transform="translate(196.250717, 131.482422) scale(-1, 1) translate(-196.250717, -131.482422) "></path>
                        <path id="Path-2-Copy-decoration-1" d="M221.501434,174.964844 L214.033179,166.606305 L210.792136,171.655626 L221.501434,174.964844 Z" stroke="#1C69EE" stroke-width="4"></path>
                    </g>
                </g>
            </g>
        </g>
    </g>
</svg>