<?xml version="1.0" encoding="UTF-8"?>
<svg width="248px" height="208px" viewBox="0 0 248 208" version="1.1" xmlns="http://www.w3.org/2000/svg" xmlns:xlink="http://www.w3.org/1999/xlink">
    <!-- Generator: Sketch 49.3 (51167) - http://www.bohemiancoding.com/sketch -->
    <title>22</title>
    <desc>Created with Sketch.</desc>
    <defs></defs>
    <g id="Page-2" stroke="none" stroke-width="1" fill="none" fill-rule="evenodd">
        <g id="menlo-home-copy-30" transform="translate(-589.000000, -3167.000000)">
            <g id="how-it-works" transform="translate(198.000000, 3016.000000)">
                <g id="2" transform="translate(391.000000, 151.000000)">
                    <g id="townhall-2">
                        <path d="M21.047732,23.0983872 C20.9852013,24.5617265 20.9770006,26.280746 21.0661836,28.0038078 C21.1543416,29.7278802 21.3398834,31.455995 21.6238342,33.1224636 C21.90881,34.7899428 22.2911697,36.3998181 22.5997226,37.5276404 C22.9082756,38.6544521 23.1378964,39.3012319 23.3705925,39.9470011 C24.4090116,39.7974333 25.450506,39.6508972 26.4561222,39.5649968 C27.4596881,39.4801069 28.4304511,39.4558527 29.4944976,39.5003188 C30.558544,39.5437743 31.716899,39.6559502 32.8393757,39.8611007 C33.9628776,40.0662511 35.0464008,40.3653868 36.0376656,40.5978233 C37.0309807,40.8282386 37.928962,40.9939759 38.9889081,41.1334378 C40.0478291,41.2728997 41.2697399,41.3870968 42.5326543,41.3426307 C43.7945437,41.3001857 45.0953866,41.1000882 45.9103355,40.9414251 C46.7252843,40.7827619 47.052289,40.670586 47.3905696,40.30273 C47.7288503,39.9328528 48.0794321,39.3113378 48.265999,38.7140771 C48.453591,38.1147952 48.4771681,37.5448205 48.3664581,37.0940958 C48.2577982,36.6433711 48.0117759,36.3139177 47.7678038,35.9854748 C48.2895761,35.8783519 48.8103233,35.7742608 49.2716151,35.5701209 C49.7318818,35.3669916 50.1337183,35.0638136 50.440221,34.6939364 C50.7456987,34.3240592 50.9589181,33.8884934 51.0778288,33.3518683 C51.1987898,32.8142326 51.2254422,32.1785693 51.1485603,31.6975268 C51.0716783,31.2174949 50.8912619,30.8910733 50.6780426,30.59598 C50.4637982,30.2998761 50.2177759,30.0361112 49.9686783,29.7703251 C50.4340705,29.4711895 50.8994627,29.1710432 51.3012991,28.8688758 C51.7021104,28.5677189 52.0373158,28.2635303 52.2812879,27.8582823 C52.5232098,27.454045 52.6738985,26.9527906 52.7251532,26.5081295 C52.7774329,26.064479 52.7282284,25.6794429 52.6144431,25.3257352 C52.4996327,24.9700063 52.3212665,24.6445952 52.0116885,24.2807815 C51.7041606,23.9169679 51.2684961,23.5167729 50.9886458,23.2833258 C50.7067452,23.0478575 50.5816839,22.9791372 50.4555974,22.9104168 C50.858459,22.544582 51.2613205,22.1797578 51.6006262,21.8108912 C51.939932,21.4440457 52.2126067,21.0731579 52.3622703,20.6002002 C52.5129589,20.1292637 52.5365361,19.5572678 52.491432,19.0772359 C52.447353,18.597204 52.3345928,18.2101467 52.1552015,17.8857462 C51.9747851,17.5583139 51.7277377,17.2945491 51.4171346,17.0277524 C51.1044813,16.7589345 50.7282722,16.4891061 50.3797406,16.315284 C50.0332592,16.1414619 49.7124051,16.0626356 49.0378939,15.9737034 C48.3623577,15.8817394 47.3341895,15.7746165 46.1061282,15.7554152 C44.8801171,15.7382352 43.456263,15.8069555 42.518303,15.8312097 C41.5793179,15.855464 41.128277,15.8372733 40.6772361,15.8190826 C41.0226925,15.2592139 41.3712241,14.7013663 41.8837705,14.0202263 C42.3983671,13.3421181 43.0780037,12.5427387 43.6284786,11.7352745 C44.1799786,10.9298315 44.6012918,10.1203462 44.8975437,9.24011931 C45.1927704,8.36090301 45.3639609,7.41195577 45.4295669,6.61965051 C45.4961979,5.82532406 45.4582695,5.186629 45.3270576,4.48123478 C45.1937955,3.77381937 44.9693002,3.00172598 44.6720232,2.38425338 C44.3747463,1.76678079 44.0057128,1.30595018 43.6346292,0.939104756 C43.2625205,0.57326993 42.8873365,0.30344148 42.4414211,0.157916024 C41.9944805,0.0113799747 41.4788588,-0.00984248764 40.9929648,0.00329522713 C40.5080958,0.014411755 40.0539797,0.0588778666 39.660344,0.202382136 C39.2667083,0.344875811 38.932528,0.586407644 38.6967566,0.830971258 C38.4589351,1.07654546 38.3205475,1.32515145 38.2723682,1.67380619 C38.226239,2.02347152 38.2713431,2.47116442 38.2129128,3.07347811 C38.1555076,3.6757918 37.994568,4.43272629 37.7731479,5.06131542 C37.553778,5.68788335 37.2729026,6.18610592 36.8608152,6.7742713 C36.4477028,7.36445787 35.9023534,8.04155548 35.0617772,8.83386074 C34.2201759,9.62818719 33.0823228,10.5367107 32.0767066,11.3866198 C31.0721156,12.2375395 30.1977113,13.0288341 29.5570282,13.6725822 C28.9163452,14.314309 28.5073331,14.806468 28.0603926,15.4249512 C27.6155023,16.0454556 27.1316584,16.7892523 26.6549902,17.3743859 C26.178322,17.9595195 25.7078043,18.38599 25.1153006,18.6477337 C24.5207468,18.910488 23.806257,19.0085155 23.1573732,19.0762253 L21.3419336,19.2257931 C21.225073,20.4304205 21.1092375,21.6350479 21.047732,23.0983872 Z" id="Shape" fill="#C5C7FF"></path>
                        <g id="Group-17" transform="translate(0.000000, 32.000000)">
                            <g id="M1mark-fill" transform="translate(0.000000, 31.000000)" fill-rule="nonzero">
                                <path d="M42,21 C42,9.3912 32.6088,0 21,0 C9.3912,0 0,9.3912 0,21 C0,32.6088 9.4668,42 21,42 C32.6088,42 42,32.6088 42,21 Z" id="Shape" fill="#1C69EE"></path>
                                <g id="Group" transform="translate(11.000000, 13.000000)" fill="#FFFFFF">
                                    <path d="M13.7689656,7.46522656 L17.9460985,3.45496408 L17.9460985,15.9766343 C17.9460985,16.5923177 18.4400748,17 19.0120474,17 C19.58402,17 20,16.5257573 20,16.0515147 L20,1.00055032 C20,0.592868034 19.7833437,0.185185749 19.3586974,0.0520650029 C19.0033812,-0.0810557432 18.5094049,0.0520650029 18.2234186,0.326626542 L12.2697042,6.04249858 C11.8450579,6.38362049 11.8450579,7.06586432 12.2697042,7.4735466 C12.6336868,7.87290884 13.3443193,7.87290884 13.7689656,7.46522656 Z" id="Shape"></path>
                                    <path d="M13.5830675,13.0571406 C14.0088962,12.7160916 14.0088962,12.0339936 13.5830675,11.6263984 L1.78152836,0.338507801 C1.49474575,-0.00254121556 1.06891702,-0.0690873651 0.643088287,0.064004934 C0.286782615,0.271961651 0,0.604692399 0,1.01228757 L0,15.976853 C0,16.5924048 0.495351789,17 1.06891702,17 C1.64248225,17 2.13783404,16.5258587 2.13783404,16.0517174 L2.13783404,3.46617683 L12.0796313,13.0571406 C12.4446274,13.4647358 13.1572387,13.4647358 13.5830675,13.0571406 Z" id="Shape"></path>
                                </g>
                            </g>
                            <g id="M1mark-fill-Copy-2" transform="translate(212.000000, 32.000000)" fill-rule="nonzero">
                                <path d="M30,15 C30,6.708 23.292,0 15,0 C6.708,0 0,6.708 0,15 C0,23.292 6.762,30 15,30 C23.292,30 30,23.292 30,15 Z" id="Shape" fill="#1C69EE"></path>
                                <g id="Group" transform="translate(8.000000, 9.000000)" fill="#FFFFFF">
                                    <path d="M9.63827594,5.26957169 L12.562269,2.43879817 L12.562269,11.2776242 C12.562269,11.7122243 12.9080524,12 13.3084332,12 C13.708814,12 14,11.6652405 14,11.330481 L14,0.706270814 C14,0.418495083 13.8483406,0.130719352 13.5510882,0.0367517668 C13.3023668,-0.0572158187 12.9565834,0.0367517668 12.756393,0.230559912 L8.58879296,4.26529312 C8.29154056,4.50608505 8.29154056,4.98766893 8.58879296,5.27544466 C8.84358074,5.55734742 9.34102354,5.55734742 9.63827594,5.26957169 Z" id="Shape"></path>
                                    <path d="M9.50814723,9.21680516 C9.80622734,8.97606467 9.80622734,8.49458371 9.50814723,8.20686947 L1.24706985,0.238946683 C1.04632202,-0.00179379922 0.748241913,-0.0487675519 0.450161801,0.0451799534 C0.20074783,0.19197293 0,0.426841694 0,0.714555929 L0,11.2777786 C0,11.7122858 0.346746252,12 0.748241913,12 C1.14973757,12 1.49648383,11.665312 1.49648383,11.330624 L1.49648383,2.44671306 L8.45574194,9.21680516 C8.71123918,9.50451939 9.21006712,9.50451939 9.50814723,9.21680516 Z" id="Shape"></path>
                                </g>
                            </g>
                            <g id="Group-17-Copy" transform="translate(68.000000, 0.000000)" fill="#777AF4" fill-rule="nonzero">
                                <path d="M115.384238,0 L11.6142604,0 C5.20794608,0 0,5.18968046 0,11.5668555 L0,72.0662659 C0,78.4449366 5.21245122,83.634617 11.6142604,83.634617 L17.0519688,83.634617 L17.0519688,101.35431 C17.0519688,102.425149 17.7007095,103.388306 18.6933428,103.798096 C19.0222183,103.93569 19.3661109,104 19.7085018,104 C20.4007922,104 21.0810689,103.733786 21.5886485,103.225287 L41.2596074,83.6361126 L115.384238,83.6361126 C121.78905,83.6361126 127,78.4449366 127,72.0677615 L127,11.5683511 C127,5.18968046 121.787549,0 115.384238,0 Z M121.686934,72.0692571 C121.686934,75.5285455 118.857704,78.3447324 115.384238,78.3447324 L40.1618541,78.3447324 C39.9861535,78.3447324 39.8104529,78.3626794 39.636254,78.3955823 C39.5551614,78.4120337 39.4845808,78.4389542 39.4094951,78.4628836 C39.3193922,78.4898041 39.2292893,78.5092467 39.1406882,78.5466364 C39.0460802,78.5855216 38.9589807,78.6393627 38.8703796,78.688717 C38.8088093,78.7231154 38.7427338,78.750036 38.6826652,78.7889212 C38.5339955,78.8861342 38.3988412,79.0012943 38.2726972,79.1269234 L22.3665366,94.9666657 L22.3665366,80.9919181 C22.3665366,79.5277402 21.175677,78.3432368 19.7070001,78.3432368 C19.7054984,78.3432368 19.7054984,78.3432368 19.7054984,78.3432368 L11.6127587,78.3432368 C8.13779118,78.3432368 5.31006267,75.5255544 5.31006267,72.0677615 L5.31006267,11.5683511 C5.31006267,8.10906267 8.13779118,5.29138025 11.6127587,5.29138025 L115.381234,5.29138025 C118.8547,5.29138025 121.68393,8.11055826 121.68393,11.5683511 L121.686934,72.0692571 Z" id="Shape"></path>
                            </g>
                            <path d="M198.314402,67 C193.895199,78.1915368 193.895199,91.1446618 198.314402,105.859375 C202.733606,120.574088 218.462616,136.609244 245.501434,153.964844" id="Path-2-Copy-2" stroke="#1C69EE" stroke-width="4" transform="translate(220.250717, 110.482422) scale(-1, 1) translate(-220.250717, -110.482422) "></path>
                            <path id="Path-2-Copy-2-decoration-1" d="M245.501434,153.964844 L238.033179,145.606305 L234.792136,150.655626 L245.501434,153.964844 Z" stroke="#1C69EE" stroke-width="4"></path>
                            <path d="M16.8125,83.7109375 C12.3932967,92.4141931 12.3932967,104.123177 16.8125,118.837891 C21.2317033,133.552604 37.7946813,145.261588 66.5014341,153.964844" id="Path-2-Copy-3" stroke="#1C69EE" stroke-width="4"></path>
                            <path id="Path-2-Copy-3-decoration-1" d="M66.5014341,153.964844 L57.0364048,147.96041 L55.2955838,153.702321 L66.5014341,153.964844 Z" stroke="#1C69EE" stroke-width="4"></path>
                        </g>
                    </g>
                    <path d="M99.7577551,193.74 L94.8577551,193.74 L94.8577551,207 L92.6977551,207 L92.6977551,193.74 L87.8177551,193.74 L87.8177551,191.8 L99.7577551,191.8 L99.7577551,193.74 Z M106.297755,196.8 C109.237755,196.8 111.637755,198.96 111.637755,202.04 C111.637755,205.12 109.237755,207.28 106.297755,207.28 C103.317755,207.28 100.917755,205.12 100.917755,202.04 C100.917755,198.96 103.317755,196.8 106.297755,196.8 Z M106.297755,205.44 C108.097755,205.44 109.617755,204.1 109.617755,202.04 C109.617755,199.98 108.097755,198.64 106.297755,198.64 C104.457755,198.64 102.957755,199.98 102.957755,202.04 C102.957755,204.1 104.457755,205.44 106.297755,205.44 Z M128.557755,197.08 L124.857755,207.04 L123.077755,207.04 L120.597755,200.36 L118.097755,207.04 L116.317755,207.04 L112.617755,197.08 L114.837755,197.08 L117.297755,203.88 L119.777755,197.08 L121.397755,197.08 L123.877755,203.92 L126.337755,197.08 L128.557755,197.08 Z M135.917755,196.8 C138.297755,196.8 139.897755,198.52 139.897755,201 L139.897755,207 L137.797755,207 L137.797755,201.42 C137.797755,199.8 136.857755,198.72 135.437755,198.72 C133.657755,198.72 132.477755,199.92 132.477755,202.42 L132.477755,207 L130.397755,207 L130.397755,197.08 L132.477755,197.08 L132.477755,198.3 C133.277755,197.34 134.437755,196.8 135.917755,196.8 Z M148.317755,196.8 C150.697755,196.8 152.297755,198.52 152.297755,201 L152.297755,207 L150.197755,207 L150.197755,201.42 C150.197755,199.8 149.257755,198.72 147.837755,198.72 C146.057755,198.72 144.877755,199.92 144.877755,202.42 L144.877755,207 L142.797755,207 L142.797755,191 L144.877755,191 L144.877755,198.3 C145.677755,197.34 146.837755,196.8 148.317755,196.8 Z M164.577755,205.1 L164.737755,206.76 C164.197755,207.02 163.797755,207.1 163.317755,207.1 C162.317755,207.1 161.617755,206.66 161.337755,205.72 C160.597755,206.62 159.457755,207.28 157.817755,207.28 C155.757755,207.28 154.337755,206.08 154.337755,204.26 C154.337755,202.42 155.737755,201.3 158.357755,201.1 L161.217755,200.88 L161.217755,200.7 C161.217755,199.42 160.417755,198.58 159.057755,198.58 C157.897755,198.58 157.077755,199.22 156.857755,200.34 L154.937755,199.92 C155.317755,198 156.897755,196.8 159.137755,196.8 C161.517755,196.8 163.197755,198.14 163.197755,200.54 L163.197755,204.4 C163.197755,204.86 163.417755,205.18 163.737755,205.18 C163.937755,205.18 164.137755,205.14 164.577755,205.1 Z M158.217755,205.6 C159.897755,205.6 161.217755,204.44 161.217755,202.92 L161.217755,202.32 L158.517755,202.6 C157.037755,202.74 156.437755,203.34 156.437755,204.18 C156.437755,205.1 157.177755,205.6 158.217755,205.6 Z M168.597755,207 L166.517755,207 L166.517755,191 L168.597755,191 L168.597755,207 Z M173.837755,207 L171.757755,207 L171.757755,191 L173.837755,191 L173.837755,207 Z" id="Townhall" fill="#1C69EE"></path>
                </g>
            </g>
        </g>
    </g>
</svg>