<?xml version="1.0" encoding="UTF-8"?>
<svg width="169px" height="213px" viewBox="0 0 169 213" version="1.1" xmlns="http://www.w3.org/2000/svg" xmlns:xlink="http://www.w3.org/1999/xlink">
    <!-- Generator: Sketch 49.3 (51167) - http://www.bohemiancoding.com/sketch -->
    <title>3</title>
    <desc>Created with Sketch.</desc>
    <defs>
        <polygon id="path-1" points="0.0006 0 73.446 0 73.446 102.315929 0.0006 102.315929"></polygon>
    </defs>
    <g id="Page-2" stroke="none" stroke-width="1" fill="none" fill-rule="evenodd">
        <g id="menlo-home-copy-30" transform="translate(-1023.000000, -3162.000000)">
            <g id="how-it-works" transform="translate(198.000000, 3016.000000)">
                <g id="3" transform="translate(818.000000, 146.000000)">
                    <path d="M55.7577551,198.74 L50.8577551,198.74 L50.8577551,212 L48.6977551,212 L48.6977551,198.74 L43.8177551,198.74 L43.8177551,196.8 L55.7577551,196.8 L55.7577551,198.74 Z M62.2977551,201.8 C65.2377551,201.8 67.6377551,203.96 67.6377551,207.04 C67.6377551,210.12 65.2377551,212.28 62.2977551,212.28 C59.3177551,212.28 56.9177551,210.12 56.9177551,207.04 C56.9177551,203.96 59.3177551,201.8 62.2977551,201.8 Z M62.2977551,210.44 C64.0977551,210.44 65.6177551,209.1 65.6177551,207.04 C65.6177551,204.98 64.0977551,203.64 62.2977551,203.64 C60.4577551,203.64 58.9577551,204.98 58.9577551,207.04 C58.9577551,209.1 60.4577551,210.44 62.2977551,210.44 Z M84.5577551,202.08 L80.8577551,212.04 L79.0777551,212.04 L76.5977551,205.36 L74.0977551,212.04 L72.3177551,212.04 L68.6177551,202.08 L70.8377551,202.08 L73.2977551,208.88 L75.7777551,202.08 L77.3977551,202.08 L79.8777551,208.92 L82.3377551,202.08 L84.5577551,202.08 Z M91.9177551,201.8 C94.2977551,201.8 95.8977551,203.52 95.8977551,206 L95.8977551,212 L93.7977551,212 L93.7977551,206.42 C93.7977551,204.8 92.8577551,203.72 91.4377551,203.72 C89.6577551,203.72 88.4777551,204.92 88.4777551,207.42 L88.4777551,212 L86.3977551,212 L86.3977551,202.08 L88.4777551,202.08 L88.4777551,203.3 C89.2777551,202.34 90.4377551,201.8 91.9177551,201.8 Z M104.317755,201.8 C106.697755,201.8 108.297755,203.52 108.297755,206 L108.297755,212 L106.197755,212 L106.197755,206.42 C106.197755,204.8 105.257755,203.72 103.837755,203.72 C102.057755,203.72 100.877755,204.92 100.877755,207.42 L100.877755,212 L98.7977551,212 L98.7977551,196 L100.877755,196 L100.877755,203.3 C101.677755,202.34 102.837755,201.8 104.317755,201.8 Z M120.577755,210.1 L120.737755,211.76 C120.197755,212.02 119.797755,212.1 119.317755,212.1 C118.317755,212.1 117.617755,211.66 117.337755,210.72 C116.597755,211.62 115.457755,212.28 113.817755,212.28 C111.757755,212.28 110.337755,211.08 110.337755,209.26 C110.337755,207.42 111.737755,206.3 114.357755,206.1 L117.217755,205.88 L117.217755,205.7 C117.217755,204.42 116.417755,203.58 115.057755,203.58 C113.897755,203.58 113.077755,204.22 112.857755,205.34 L110.937755,204.92 C111.317755,203 112.897755,201.8 115.137755,201.8 C117.517755,201.8 119.197755,203.14 119.197755,205.54 L119.197755,209.4 C119.197755,209.86 119.417755,210.18 119.737755,210.18 C119.937755,210.18 120.137755,210.14 120.577755,210.1 Z M114.217755,210.6 C115.897755,210.6 117.217755,209.44 117.217755,207.92 L117.217755,207.32 L114.517755,207.6 C113.037755,207.74 112.437755,208.34 112.437755,209.18 C112.437755,210.1 113.177755,210.6 114.217755,210.6 Z M124.597755,212 L122.517755,212 L122.517755,196 L124.597755,196 L124.597755,212 Z M129.837755,212 L127.757755,212 L127.757755,196 L129.837755,196 L129.837755,212 Z" id="Townhall" fill="#1C69EE"></path>
                    <g id="townhall-3">
                        <g id="Page-1" transform="translate(43.000000, 43.000000)">
                            <mask id="mask-2" fill="white">
                                <use xlink:href="#path-1"></use>
                            </mask>
                            <g id="Clip-2"></g>
                            <path d="M48.2836,59.9079 C45.0566,62.7309 41.1276,64.3449 36.7226,64.3449 C32.3386,64.3449 28.4296,62.6009 25.2486,59.5429 C25.0656,60.2509 24.9726,60.9839 24.9726,61.7409 C24.9726,67.3439 30.2336,71.8859 36.7226,71.8859 C43.2136,71.8859 48.4736,67.3439 48.4736,61.7409 C48.4736,61.1149 48.4106,60.5039 48.2836,59.9079 M23.7656,59.2109 C17.6556,58.2829 13.2146,56.6809 13.1546,54.4379 C13.1586,45.4599 9.9996,43.6409 9.4106,27.8189 C8.8006,11.4599 19.0126,-0.0001 34.4506,-0.0001 C43.0606,-0.0001 54.0546,1.8179 56.6996,7.8349 C68.0816,13.9749 63.5366,22.6069 63.0526,34.0999 C62.5636,45.5939 60.3136,47.4119 59.5646,55.0789 C59.3526,57.2619 54.9646,58.7259 48.9586,59.4979 C64.2106,62.4669 73.4466,70.4809 73.4466,80.2869 C73.4466,92.6779 59.1396,102.3349 36.4296,102.3159 C12.8976,102.3349 0.0006,92.9829 0.0006,80.2869 C0.0006,70.3609 8.2036,61.9569 23.7656,59.2109 M55.5416,39.4309 C55.8026,32.6879 55.1046,26.5409 53.6336,22.5249 C52.1806,18.5569 50.2806,17.1899 48.1946,18.2849 C41.6036,24.6629 36.0456,28.5119 32.3426,28.7389 C20.5316,29.0929 18.0616,31.1419 18.4906,39.3839 C19.8166,53.0079 27.0896,62.6119 36.7226,62.6119 C46.8976,62.6119 54.4606,52.9259 55.5416,39.4309 M37.0326,57.1019 C33.1696,57.1019 28.4486,52.9889 29.9616,52.9889 C30.8516,52.9889 31.6306,53.1759 33.0426,52.6419 C34.0406,52.2659 35.4336,51.2899 37.0326,51.3089 C38.6936,51.2899 39.9646,52.2559 40.9816,52.6419 C42.3756,53.1719 43.2956,52.9889 44.1036,52.9889 C45.5006,52.9889 40.9636,57.1019 37.0326,57.1019" id="Fill-1" fill="#C5C7FF" mask="url(#mask-2)"></path>
                        </g>
                        <g id="M1mark-fill" transform="translate(117.000000, 33.000000)" fill-rule="nonzero">
                            <path d="M56,28 C56,12.5216 43.4784,0 28,0 C12.5216,0 0,12.5216 0,28 C0,43.4784 12.6224,56 28,56 C43.4784,56 56,43.4784 56,28 Z" id="Shape" fill="#1C69EE"></path>
                            <g id="Group" transform="translate(15.000000, 16.000000)" fill="#FFFFFF">
                                <path d="M17.8996553,10.1000124 L23.3299281,4.67436316 L23.3299281,21.6154464 C23.3299281,22.4484298 23.9720973,23 24.7156616,23 C25.4592259,23 26,22.3583776 26,21.7167552 L26,1.35368573 C26,0.802115576 25.7183468,0.250545425 25.1663067,0.0704408863 C24.7043955,-0.109663653 24.0622263,0.0704408863 23.6904441,0.441906498 L15.9506155,8.17514514 C15.3985753,8.63666302 15.3985753,9.55969878 15.9506155,10.1112689 C16.4237928,10.6515825 17.3476151,10.6515825 17.8996553,10.1000124 Z" id="Shape"></path>
                                <path d="M17.6579877,17.6655432 C18.2115651,17.204124 18.2115651,16.2812854 17.6579877,15.7298332 L2.31598687,0.457981143 C1.94316947,-0.00343811517 1.38959212,-0.0934711411 0.836014774,0.0865949107 C0.372817399,0.367948117 0,0.818113246 0,1.36956553 L0,21.6157422 C0,22.4485477 0.643957326,23 1.38959212,23 C2.13522692,23 2.77918425,22.3585147 2.77918425,21.7170294 L2.77918425,4.68953336 L15.7035207,17.6655432 C16.1780156,18.2169955 17.1044104,18.2169955 17.6579877,17.6655432 Z" id="Shape"></path>
                            </g>
                        </g>
                        <g id="M1mark-fill-Copy-3" transform="translate(7.000000, 37.000000)" fill-rule="nonzero">
                            <path d="M27,13.5 C27,6.0372 20.9628,0 13.5,0 C6.0372,0 0,6.0372 0,13.5 C0,20.9628 6.0858,27 13.5,27 C20.9628,27 27,20.9628 27,13.5 Z" id="Shape" fill="#1C69EE"></path>
                            <g id="Group" transform="translate(7.000000, 8.000000)" fill="#FFFFFF">
                                <path d="M8.94982766,4.83044071 L11.6649641,2.23556499 L11.6649641,10.3378222 C11.6649641,10.7362056 11.9860486,11 12.3578308,11 C12.729613,11 13,10.6931371 13,10.3862742 L13,0.647414913 C13,0.383620493 12.8591734,0.119826073 12.5831533,0.0336891196 C12.3521977,-0.0524478339 12.0311132,0.0336891196 11.8452221,0.211346586 L7.97530775,3.90985202 C7.69928766,4.13057797 7.69928766,4.57202985 7.97530775,4.83582427 C8.2118964,5.09423513 8.67380757,5.09423513 8.94982766,4.83044071 Z" id="Shape"></path>
                                <path d="M8.82899386,8.44873806 C9.10578253,8.22805928 9.10578253,7.78670173 8.82899386,7.52296368 L1.15799344,0.219034459 C0.971584737,-0.00164431595 0.694796062,-0.0447035892 0.418007387,0.0414149573 C0.1864087,0.175975186 0,0.391271552 0,0.655009601 L0,10.3379637 C0,10.736262 0.321978663,11 0.694796062,11 C1.06761346,11 1.38959212,10.6932027 1.38959212,10.3864054 L1.38959212,2.2428203 L7.85176037,8.44873806 C8.08900781,8.71247611 8.55220518,8.71247611 8.82899386,8.44873806 Z" id="Shape"></path>
                            </g>
                        </g>
                        <g id="M1mark-fill-Copy-4" transform="translate(21.000000, 78.000000)" fill-rule="nonzero">
                            <path d="M18,9 C18,4.0248 13.9752,0 9,0 C4.0248,0 0,4.0248 0,9 C0,13.9752 4.0572,18 9,18 C13.9752,18 18,13.9752 18,9 Z" id="Shape" fill="#1C69EE"></path>
                            <g id="Group" transform="translate(5.000000, 5.000000)" fill="#FFFFFF">
                                <path d="M6.19603453,3.07391682 L8.07574435,1.42263227 L8.07574435,6.57861411 C8.07574435,6.83213082 8.29803368,7 8.55542133,7 C8.81280898,7 9,6.80472361 9,6.60944722 L9,0.411991308 C9,0.244122132 8.90250468,0.0762529555 8.71141385,0.0214385306 C8.55152152,-0.0333758943 8.32923218,0.0214385306 8.20053836,0.134493282 L5.5213669,2.48808765 C5.33027607,2.62854961 5.33027607,2.90947354 5.5213669,3.07734272 C5.68515905,3.24178599 6.0049437,3.24178599 6.19603453,3.07391682 Z" id="Shape"></path>
                                <path d="M6.11238036,5.37646967 C6.30400329,5.23603773 6.30400329,4.95517383 6.11238036,4.78734053 L0.801687764,0.139385565 C0.672635587,-0.00104638288 0.481012658,-0.0284477386 0.289389729,0.0263549728 C0.129052177,0.111984209 0,0.248990988 0,0.416824292 L0,6.57870416 C0,6.8321667 0.222908305,7 0.481012658,7 C0.739117011,7 0.962025316,6.80476534 0.962025316,6.60953068 L0.962025316,1.42724928 L5.43583411,5.37646967 C5.60008233,5.54430298 5.92075744,5.54430298 6.11238036,5.37646967 Z" id="Shape"></path>
                            </g>
                        </g>
                        <g id="M1mark-fill-Copy-5" transform="translate(127.000000, 0.000000)" fill-rule="nonzero">
                            <path d="M18,9 C18,4.0248 13.9752,0 9,0 C4.0248,0 0,4.0248 0,9 C0,13.9752 4.0572,18 9,18 C13.9752,18 18,13.9752 18,9 Z" id="Shape" fill="#1C69EE"></path>
                            <g id="Group" transform="translate(5.000000, 5.000000)" fill="#FFFFFF">
                                <path d="M6.19603453,3.07391682 L8.07574435,1.42263227 L8.07574435,6.57861411 C8.07574435,6.83213082 8.29803368,7 8.55542133,7 C8.81280898,7 9,6.80472361 9,6.60944722 L9,0.411991308 C9,0.244122132 8.90250468,0.0762529555 8.71141385,0.0214385306 C8.55152152,-0.0333758943 8.32923218,0.0214385306 8.20053836,0.134493282 L5.5213669,2.48808765 C5.33027607,2.62854961 5.33027607,2.90947354 5.5213669,3.07734272 C5.68515905,3.24178599 6.0049437,3.24178599 6.19603453,3.07391682 Z" id="Shape"></path>
                                <path d="M6.11238036,5.37646967 C6.30400329,5.23603773 6.30400329,4.95517383 6.11238036,4.78734053 L0.801687764,0.139385565 C0.672635587,-0.00104638288 0.481012658,-0.0284477386 0.289389729,0.0263549728 C0.129052177,0.111984209 0,0.248990988 0,0.416824292 L0,6.57870416 C0,6.8321667 0.222908305,7 0.481012658,7 C0.739117011,7 0.962025316,6.80476534 0.962025316,6.60953068 L0.962025316,1.42724928 L5.43583411,5.37646967 C5.60008233,5.54430298 5.92075744,5.54430298 6.11238036,5.37646967 Z" id="Shape"></path>
                            </g>
                        </g>
                        <g id="M1mark-fill-Copy-6" transform="translate(150.000000, 103.000000)" fill-rule="nonzero">
                            <path d="M26,13 C26,5.8136 20.1864,0 13,0 C5.8136,0 0,5.8136 0,13 C0,20.1864 5.8604,26 13,26 C20.1864,26 26,20.1864 26,13 Z" id="Shape" fill="#1C69EE"></path>
                            <g id="Group" transform="translate(7.000000, 7.000000)" fill="#FFFFFF">
                                <path d="M8.94982766,4.39130974 L11.6649641,2.03233181 L11.6649641,9.39802016 C11.6649641,9.76018689 11.9860486,10 12.3578308,10 C12.729613,10 13,9.72103373 13,9.44206746 L13,0.588559011 C13,0.348745903 12.8591734,0.108932794 12.5831533,0.0306264723 C12.3521977,-0.047679849 12.0311132,0.0306264723 11.8452221,0.19213326 L7.97530775,3.55441093 C7.69928766,3.75507088 7.69928766,4.15639077 7.97530775,4.39620388 C8.2118964,4.63112285 8.67380757,4.63112285 8.94982766,4.39130974 Z" id="Shape"></path>
                                <path d="M8.82899386,7.68067096 C9.10578253,7.48005389 9.10578253,7.07881976 8.82899386,6.8390579 L1.15799344,0.199122236 C0.971584737,-0.00149483268 0.694796062,-0.0406396265 0.418007387,0.0376499612 C0.1864087,0.159977442 0,0.355701411 0,0.595463274 L0,9.39814879 C0,9.76023814 0.321978663,10 0.694796062,10 C1.06761346,10 1.38959212,9.72109334 1.38959212,9.44218669 L1.38959212,2.03892755 L7.85176037,7.68067096 C8.08900781,7.92043283 8.55220518,7.92043283 8.82899386,7.68067096 Z" id="Shape"></path>
                            </g>
                        </g>
                        <path d="M111.001914,121.169642 C101.281941,130.396016 99.2818147,141.358303 105.001536,154.056503 C110.721258,166.754703 122.532942,175.099245 140.436589,179.090129" id="Path-2-Copy-4" stroke="#1C69EE" stroke-width="4" transform="translate(121.129885, 150.129885) rotate(-135.000000) translate(-121.129885, -150.129885) "></path>
                        <path id="Path-2-Copy-4-decoration-1" d="M140.436589,179.090129 L130.548011,173.812247 L129.242596,179.668516 L140.436589,179.090129 Z" stroke="#1C69EE" stroke-width="4"></path>
                        <path d="M24.0019143,121.169642 C14.2819407,130.396016 12.2818147,141.358303 18.0015364,154.056503 C23.7212581,166.754703 35.5329423,175.099245 53.4365889,179.090129" id="Path-2-Copy-5" stroke="#1C69EE" stroke-width="4" transform="translate(34.129885, 150.129885) scale(-1, 1) rotate(-135.000000) translate(-34.129885, -150.129885) "></path>
                        <path id="Path-2-Copy-5-decoration-1" d="M53.4365889,179.090129 L43.5480115,173.812247 L42.2425964,179.668516 L53.4365889,179.090129 Z" stroke="#1C69EE" stroke-width="4"></path>
                        <path d="M80,187.037211 L80,159" id="Path-3" stroke="#1C69EE" stroke-width="4"></path>
                        <path id="Path-3-decoration-1" d="M80,159 L77,169.8 L83,169.8 L80,159 Z" stroke="#1C69EE" stroke-width="4"></path>
                    </g>
                </g>
            </g>
        </g>
    </g>
</svg>