<?xml version="1.0" encoding="UTF-8"?>
<svg width="260px" height="222px" viewBox="0 0 260 222" version="1.1" xmlns="http://www.w3.org/2000/svg" xmlns:xlink="http://www.w3.org/1999/xlink">
    <!-- Generator: Sketch 49.3 (51167) - http://www.bohemiancoding.com/sketch -->
    <title>Townhall_valued_comment_svg</title>
    <desc>Created with Sketch.</desc>
    <defs>
        <linearGradient x1="32.3226866%" y1="102.938506%" x2="67.6810724%" y2="-2.85656994%" id="linearGradient-1">
            <stop stop-color="#0F1563" offset="0%"></stop>
            <stop stop-color="#9A9DBE" stop-opacity="0.42" offset="60%"></stop>
            <stop stop-color="#FFFFFF" stop-opacity="0" offset="100%"></stop>
        </linearGradient>
        <linearGradient x1="32.3122705%" y1="102.866365%" x2="67.6740075%" y2="-2.85747989%" id="linearGradient-2">
            <stop stop-color="#0F1563" offset="0%"></stop>
            <stop stop-color="#9A9DBE" stop-opacity="0.42" offset="60%"></stop>
            <stop stop-color="#FFFFFF" stop-opacity="0" offset="100%"></stop>
        </linearGradient>
        <linearGradient x1="32.4139078%" y1="102.830443%" x2="67.7289941%" y2="-2.83941578%" id="linearGradient-3">
            <stop stop-color="#0F1563" offset="0%"></stop>
            <stop stop-color="#9A9DBE" stop-opacity="0.42" offset="60%"></stop>
            <stop stop-color="#FFFFFF" stop-opacity="0" offset="100%"></stop>
        </linearGradient>
        <linearGradient x1="32.3220034%" y1="102.942443%" x2="67.6904651%" y2="-2.9639934%" id="linearGradient-4">
            <stop stop-color="#0F1563" offset="0%"></stop>
            <stop stop-color="#9A9DBE" stop-opacity="0.42" offset="60%"></stop>
            <stop stop-color="#FFFFFF" stop-opacity="0" offset="100%"></stop>
        </linearGradient>
    </defs>
    <g id="v2" stroke="none" stroke-width="1" fill="none" fill-rule="evenodd">
        <g id="menlo-landing-v3" transform="translate(-972.000000, -7462.000000)" fill-rule="nonzero">
            <g id="Group-29" transform="translate(-1449.000000, 0.000000)">
                <g id="townhall" transform="translate(1449.000000, 6240.000000)">
                    <g id="Group-25" transform="translate(173.000000, 836.000000)">
                        <g id="townhall-scene" transform="translate(0.000000, 386.000000)">
                            <g id="Townhall_valued_comment_svg" transform="translate(798.000000, 0.000000)">
                                <path d="M186.13,135.35 C205.76,146.68 205.85,165.05 186.36,176.35 C166.87,187.65 135.16,187.68 115.53,176.35 C95.9,165.02 95.8,146.65 115.3,135.35 C134.8,124.05 166.51,124 186.13,135.35 Z" id="Shape" fill="url(#linearGradient-1)" opacity="0.1"></path>
                                <path d="M186.13,121.1 C205.76,132.43 205.85,150.8 186.36,162.1 C166.87,173.4 135.16,173.43 115.53,162.1 C95.9,150.77 95.8,132.4 115.3,121.1 C134.8,109.8 166.51,109.78 186.13,121.1 Z" id="Shape" fill="#4A4D69"></path>
                                <polygon id="Shape" fill="#4A4D69" points="101.21 145.48 99.29 138.01 102.62 139.76"></polygon>
                                <polygon id="Shape" fill="#4A4D69" points="202.68 137.14 200.44 145.68 199.81 140.03"></polygon>
                                <path d="M187.78,111.06 C208.32,122.92 208.42,142.15 188.02,154.01 C167.62,165.87 134.42,165.87 113.88,154.01 C93.34,142.15 93.23,122.93 113.64,111.06 C134.05,99.19 167.24,99.2 187.78,111.06 Z" id="Shape" fill="#30334A"></path>
                                <path d="M169.87,132.21 C170.012432,132.265196 170.106303,132.402247 170.106303,132.555 C170.106303,132.707753 170.012432,132.844804 169.87,132.9 C169.49273,133.090705 169.04727,133.090705 168.67,132.9 L151.67,123.08 L152.11,129.76 C152.11,130.03 151.76,130.26 151.29,130.27 C151.071282,130.28024 150.853796,130.231909 150.66,130.13 C150.526889,130.068525 150.433145,129.944783 150.41,129.8 L149.89,121.87 C149.89,121.67 150.08,121.48 150.4,121.41 C150.714859,121.32518 151.050033,121.360837 151.34,121.51 L169.87,132.21 Z" id="Shape" fill="#E7E9FE"></path>
                                <path d="M170.37,121.18 C181.24,127.45 181.29,137.62 170.5,143.9 C159.71,150.18 142.15,150.17 131.28,143.9 C120.41,137.63 120.36,127.46 131.15,121.18 C141.94,114.9 159.51,114.91 170.37,121.18 Z M150.91,147.62 C157.57,147.62 164.22,146.15 169.3,143.21 C174.38,140.27 176.88,136.41 176.86,132.55 C176.84,128.69 174.28,124.83 169.17,121.89 C164.06,118.95 157.4,117.47 150.74,117.47 C144.08,117.47 137.42,118.94 132.36,121.89 C127.3,124.84 124.77,128.69 124.79,132.55 C124.81,136.41 127.37,140.27 132.47,143.21 C137.57,146.15 144.24,147.62 150.91,147.62 Z" id="Shape" fill="#E7E9FE"></path>
                                <path d="M159,132.79 C159.147425,132.855147 159.244565,132.998914 159.25,133.16 C159.25,133.43 158.84,133.64 158.37,133.63 L134.51,133.06 L151.51,142.87 C151.652432,142.925196 151.746303,143.062247 151.746303,143.215 C151.746303,143.367753 151.652432,143.504804 151.51,143.56 C151.133118,143.752327 150.686882,143.752327 150.31,143.56 L131.77,132.86 C131.52,132.72 131.45,132.5 131.59,132.31 C131.802491,132.096191 132.100091,131.989642 132.4,132.02 L158.4,132.64 C158.609564,132.637635 158.816204,132.689295 159,132.79 Z" id="Shape" fill="#E7E9FE"></path>
                                <path d="M63.12,131.51 C77.4,139.75 77.47,153.12 63.29,161.36 C49.11,169.6 26.04,169.6 11.76,161.36 C-2.52,153.12 -2.59,139.76 11.59,131.51 C25.77,123.26 48.84,123.27 63.12,131.51 Z" id="Shape" fill="url(#linearGradient-2)" opacity="0.1"></path>
                                <path d="M62,125 C75.64,132.87 75.71,145.64 62.16,153.51 C48.61,161.38 26.57,161.39 12.93,153.51 C-0.71,145.63 -0.81,132.83 12.74,125 C26.29,117.17 48.33,117.08 62,125 Z" id="Shape" fill="#6B67F5"></path>
                                <polygon id="Shape" fill="#98A2FE" points="2.95 141.89 1.62 136.71 3.93 137.92"></polygon>
                                <polygon id="Shape" fill="#98A2FE" points="73.47 136.1 71.92 142.03 71.47 138.1"></polygon>
                                <path d="M63.12,118 C77.4,126.24 77.47,139.61 63.29,147.85 C49.11,156.09 26.04,156.09 11.76,147.85 C-2.52,139.61 -2.6,126.22 11.59,118 C25.78,109.78 48.84,109.73 63.12,118 Z" id="Shape" fill="#98A2FE"></path>
                                <path d="M50.67,132.67 C50.7766667,132.701111 50.85,132.798889 50.85,132.91 C50.85,133.021111 50.7766667,133.118889 50.67,133.15 C50.409052,133.281891 50.100948,133.281891 49.84,133.15 L38,126.33 L38.3,130.97 C38.3,131.16 38.06,131.32 37.73,131.32 C37.5770471,131.326423 37.425152,131.291901 37.29,131.22 C37.1992395,131.175616 37.1358015,131.089788 37.12,130.99 L36.76,125.48 C36.76,125.34 36.89,125.21 37.11,125.16 C37.3278575,125.102013 37.5594843,125.126957 37.76,125.23 L50.67,132.67 Z" id="Shape" fill="#FFFFFF"></path>
                                <path d="M51,125 C58.55,129.36 58.59,136.43 51.09,140.79 C43.59,145.15 31.39,145.15 23.83,140.79 C16.27,136.43 16.24,129.36 23.74,125 C31.24,120.64 43.47,120.65 51,125 Z M37.49,143.38 C41.9426223,143.468087 46.3432325,142.410976 50.27,140.31 C53.79,138.31 55.54,135.58 55.52,132.9 C55.5,130.22 53.73,127.54 50.18,125.49 C46.2414498,123.391587 41.8318668,122.334802 37.37,122.42 C32.9173777,122.331913 28.5167675,123.389024 24.59,125.49 C21.07,127.49 19.32,130.22 19.33,132.9 C19.34,135.58 21.12,138.27 24.67,140.31 C28.6090246,142.407161 33.0182777,143.463867 37.48,143.38 L37.49,143.38 Z" id="Shape" fill="#FFFFFF"></path>
                                <path d="M43.13,133.08 C43.2322207,133.12645 43.2984435,133.227732 43.3,133.34 C43.3,133.53 43.01,133.68 42.69,133.67 L26.11,133.27 L37.92,140.09 C38.0266667,140.121111 38.1,140.218889 38.1,140.33 C38.1,140.441111 38.0266667,140.538889 37.92,140.57 C37.659052,140.701891 37.350948,140.701891 37.09,140.57 L24.2,133.13 C24.03,133.03 23.98,132.88 24.07,132.75 C24.221495,132.602999 24.4298683,132.529886 24.64,132.55 L42.73,132.98 C42.8695197,132.98 43.0068944,133.014344 43.13,133.08 Z" id="Shape" fill="#FFFFFF"></path>
                                <path d="M253.63,103.45 C263.04,108.88 263.08,117.69 253.74,123.12 C244.4,128.55 229.19,128.55 219.74,123.12 C210.29,117.69 210.28,108.88 219.63,103.45 C228.98,98.02 244.23,98 253.63,103.45 Z" id="Shape" fill="url(#linearGradient-3)" opacity="0.1"></path>
                                <path d="M252.88,98.07 C261.88,103.26 261.88,111.67 252.99,116.86 C244.1,122.05 229.54,122.05 220.55,116.86 C211.56,111.67 211.55,103.26 220.44,98.07 C229.33,92.88 243.89,92.89 252.88,98.07 Z" id="Shape" fill="#D99E53"></path>
                                <polygon id="Shape" fill="#D99E53" points="213.99 109.24 213.11 105.82 214.63 106.62"></polygon>
                                <polygon id="Shape" fill="#D99E53" points="260.46 105.42 259.44 109.33 259.14 106.74"></polygon>
                                <path d="M253.63,93.47 C263.04,98.9 263.08,107.71 253.74,113.14 C244.4,118.57 229.19,118.57 219.74,113.14 C210.29,107.71 210.28,98.9 219.63,93.47 C228.98,88.04 244.23,88 253.63,93.47 Z" id="Shape" fill="#F2CD80"></path>
                                <path d="M245.43,103.16 C245.49752,103.184242 245.542554,103.24826 245.542554,103.32 C245.542554,103.39174 245.49752,103.455758 245.43,103.48 C245.257069,103.56734 245.052931,103.56734 244.88,103.48 L237.1,99 L237.3,102.06 C237.3,102.18 237.14,102.29 236.93,102.29 C236.828782,102.293318 236.728559,102.269126 236.64,102.22 C236.577035,102.193739 236.531799,102.137194 236.52,102.07 L236.28,98.44 C236.28,98.35 236.37,98.26 236.51,98.23 C236.648411,98.176875 236.801589,98.176875 236.94,98.23 L245.43,103.16 Z" id="Shape" fill="#FFFFFF"></path>
                                <path d="M245.66,98.11 C250.66,100.98 250.66,105.64 245.72,108.51 C240.78,111.38 232.72,111.38 227.72,108.51 C222.72,105.64 222.72,100.98 227.66,98.11 C232.6,95.24 240.69,95.23 245.66,98.11 Z M236.75,110.22 C239.681538,110.28454 242.580615,109.595923 245.17,108.22 C247.49,106.87 248.64,105.1 248.63,103.34 C248.62,101.58 247.45,99.81 245.11,98.46 C239.813481,95.7633613 233.546519,95.7633613 228.25,98.46 C225.93,99.81 224.78,101.57 224.79,103.34 C224.8,105.11 225.97,106.88 228.31,108.22 C230.907383,109.593803 233.812336,110.282181 236.75,110.22 Z" id="Shape" fill="#FFFFFF"></path>
                                <path d="M240.46,103.43 C240.526323,103.460781 240.569098,103.526888 240.57,103.6 C240.57,103.72 240.38,103.82 240.17,103.82 L229.24,103.56 L237,108 C237.06752,108.024242 237.112554,108.08826 237.112554,108.16 C237.112554,108.23174 237.06752,108.295758 237,108.32 C236.827462,108.408976 236.622538,108.408976 236.45,108.32 L227.96,103.42 C227.85,103.35 227.81,103.25 227.88,103.17 C227.978499,103.074823 228.113616,103.02735 228.25,103.04 L240.17,103.33 C240.27409,103.335691 240.374525,103.370324 240.46,103.43 Z" id="Shape" fill="#FFFFFF"></path>
                                <path d="M144.5,206.13 C150.42,209.55 150.44,215.13 144.57,218.5 C138.7,221.87 129.14,221.92 123.22,218.5 C117.3,215.08 117.27,209.5 123.15,206.13 C129.03,202.76 138.58,202.72 144.5,206.13 Z" id="Shape" fill="url(#linearGradient-4)" opacity="0.1"></path>
                                <path d="M144,201.9 C149.65,205.16 149.68,210.45 144.07,213.71 C138.46,216.97 129.33,216.97 123.68,213.71 C118.03,210.45 118,205.16 123.61,201.9 C129.22,198.64 138.37,198.64 144,201.9 Z" id="Shape" fill="#4A4D69"></path>
                                <polygon id="Shape" fill="#6B67F5" points="119.57 208.92 119.02 206.77 119.98 207.27"></polygon>
                                <polygon id="Shape" fill="#6B67F5" points="148.79 206.52 148.14 208.98 147.96 207.35"></polygon>
                                <path d="M144.5,199 C150.42,202.42 150.44,208 144.57,211.37 C138.7,214.74 129.14,214.79 123.22,211.37 C117.3,207.95 117.27,202.37 123.15,199 C129.03,195.63 138.58,195.6 144.5,199 Z" id="Shape" fill="#30334A"></path>
                                <path d="M139.34,205.1 C139.379103,205.117919 139.404174,205.156987 139.404174,205.2 C139.404174,205.243013 139.379103,205.282081 139.34,205.3 C139.230277,205.356926 139.099723,205.356926 138.99,205.3 L134.09,202.47 L134.22,204.39 C134.22,204.47 134.12,204.53 133.98,204.54 C133.921026,204.555692 133.858974,204.555692 133.8,204.54 C133.764054,204.522378 133.738231,204.489178 133.73,204.45 L133.58,202.17 C133.58,202.11 133.64,202.06 133.73,202.04 C133.816966,202.006948 133.913034,202.006948 134,202.04 L139.34,205.1 Z" id="Shape" fill="#E7E9FE"></path>
                                <path d="M139.49,201.92 C142.62,203.73 142.63,206.66 139.49,208.46 C135.943349,210.266044 131.746651,210.266044 128.2,208.46 C125.07,206.65 125.05,203.73 128.2,201.92 C131.747041,200.115583 135.942959,200.115583 139.49,201.92 Z M133.89,209.53 C135.732912,209.565895 137.554244,209.128637 139.18,208.26 C140.410549,207.708842 141.245195,206.533446 141.36,205.19 C141.229201,203.843632 140.38527,202.671293 139.15,202.12 C135.820095,200.42438 131.879905,200.42438 128.55,202.12 C127.319451,202.671158 126.484805,203.846554 126.37,205.19 C126.500799,206.536368 127.34473,207.708707 128.58,208.26 C130.21297,209.128611 132.04073,209.565759 133.89,209.53 Z" id="Shape" fill="#E7E9FE"></path>
                                <path d="M136.22,205.27 C136.262955,205.289687 136.290359,205.332749 136.29,205.38 C136.29,205.46 136.17,205.52 136.04,205.52 L129.17,205.36 L134.06,208.18 C134.099103,208.197919 134.124174,208.236987 134.124174,208.28 C134.124174,208.323013 134.099103,208.362081 134.06,208.38 C133.950277,208.436926 133.819723,208.436926 133.71,208.38 L128.37,205.3 C128.3,205.3 128.28,205.2 128.32,205.14 C128.38191,205.082017 128.465471,205.052952 128.55,205.06 L136.04,205.24 C136.101597,205.233908 136.163708,205.244259 136.22,205.27 Z" id="Shape" fill="#E7E9FE"></path>
                                <g id="Group" transform="translate(117.000000, 0.000000)">
                                    <polygon id="Shape" fill="#D5D9FE" points="8.62 112.97 1.09 108.59 0.87 32.49 8.4 36.87"></polygon>
                                    <polygon id="Shape" fill="#E7E9FE" points="8.4 36.87 0.87 32.49 57.15 0 64.68 4.38"></polygon>
                                    <polygon id="Shape" fill="#98A2FE" points="64.68 4.38 64.9 80.48 46.14 91.3 36.36 108.25 26.52 102.63 8.62 112.97 8.4 36.87"></polygon>
                                </g>
                                <path d="M163.4,56.14 C168.89,56.79 172.58,61.6 172.6,69.5 L134.69,91.4 C134.69,83.49 138.31,74.46 143.79,67.47 C144.136711,68.0223317 144.542426,68.5353441 145,69 C147.36,71.3 150.41,71.56 153.58,69.73 C156.75,67.9 159.8,64.12 162.13,59.11 C162.62,58.14 163,57.14 163.4,56.14 Z" id="Shape" fill="#FFFFFF"></path>
                                <path d="M153.23,42.67 C158.4,39.67 162.6,42.08 162.62,48.02 C162.64,53.96 158.47,64 153.3,67 C148.13,70 143.92,64.81 143.9,58.87 C143.88,52.93 148.06,45.65 153.23,42.67 Z" id="Shape" fill="#FFFFFF"></path>
                                <path d="M95,17.71 C101.24,14.11 106.32,17 106.34,24.17 C106.36,31.34 101.34,40.08 95.08,43.68 C88.82,47.28 83.76,44.39 83.74,37.22 C83.72,30.05 88.74,21.32 95,17.71 Z" id="Shape" fill="#98A2FE"></path>
                                <path d="M127.89,4.59 C129.59,3.59 130.97,4.4 130.98,6.35 C130.867892,8.51270925 129.726407,10.4907866 127.91,11.67 C126.21,12.67 124.83,11.86 124.82,9.91 C124.933717,7.74776678 126.07481,5.77036766 127.89,4.59 Z" id="Shape" fill="#98A2FE"></path>
                                <path d="M192.92,52.61 C194.62,51.61 196,52.42 196.01,54.37 C195.897892,56.5327092 194.756407,58.5107866 192.94,59.69 C191.24,60.69 189.86,59.88 189.85,57.93 C189.963717,55.7677668 191.10481,53.7903677 192.92,52.61 Z" id="Shape" fill="#98A2FE"></path>
                                <path d="M202.66,10.44 C205.41,8.85 207.66,10.13 207.66,13.29 C207.465294,16.7888734 205.606244,19.9827202 202.66,21.88 C199.91,23.47 197.66,22.19 197.66,19.04 C197.851572,15.537527 199.710997,12.3393157 202.66,10.44 Z" id="Shape" fill="#98A2FE"></path>
                            </g>
                        </g>
                    </g>
                </g>
            </g>
        </g>
    </g>
</svg>