<?xml version="1.0" encoding="UTF-8"?>
<svg width="92px" height="31px" viewBox="0 0 92 31" version="1.1" xmlns="http://www.w3.org/2000/svg" xmlns:xlink="http://www.w3.org/1999/xlink">
    <!-- Generator: Sketch 49.1 (51147) - http://www.bohemiancoding.com/sketch -->
    <title>like-bttn-on</title>
    <desc>Created with Sketch.</desc>
    <defs></defs>
    <g id="Page-1" stroke="none" stroke-width="1" fill="none" fill-rule="evenodd">
        <g id="menlo-home-copy-30" transform="translate(-506.000000, -1687.000000)">
            <g id="townhall-example" transform="translate(276.000000, 1131.000000)">
                <g id="blockchain-expert" transform="translate(144.000000, 337.000000)">
                    <g id="Group-13" transform="translate(86.000000, 219.000000)">
                        <g id="like-bttn-on">
                            <rect id="Rectangle-2-Copy-8" fill="#1C69EE" x="0" y="0" width="92" height="31" rx="3.92156863"></rect>
                            <text id="Upvoted" font-family="OpenSans-Semibold, Open Sans" font-size="9.41176471" font-weight="500" fill="#FFFFFF">
                                <tspan x="36" y="19">Upvoted</tspan>
                            </text>
                            <g id="Group" transform="translate(18.000000, 9.000000)" fill="#FFFFFF">
                                <path d="M0.0153303836,7.59369311 C-0.00475299556,8.07477213 -0.00738688135,8.63990709 0.0212566266,9.206371 C0.0495708989,9.77316714 0.109162565,10.3412922 0.20036086,10.8891509 C0.291888392,11.4373418 0.414693316,11.9665951 0.513793269,12.3373715 C0.612893222,12.7078156 0.686642024,12.9204473 0.761378534,13.1327466 C1.09489432,13.0835756 1.42939782,13.0354012 1.75237806,13.0071611 C2.07469984,12.9792532 2.38648607,12.9712795 2.72823275,12.9858979 C3.06997943,13.0001841 3.4420158,13.0370624 3.80252891,13.1045065 C4.16337127,13.1719506 4.51137343,13.2702927 4.82974437,13.3467072 C5.14877379,13.4224572 5.43718428,13.4769441 5.77761402,13.5227928 C6.11771452,13.5686414 6.51016351,13.6061842 6.91578192,13.5915658 C7.32107109,13.5776118 7.73887123,13.5118289 8.00061363,13.4596677 C8.26235603,13.4075065 8.36738222,13.3706283 8.47603001,13.249694 C8.5846778,13.1280953 8.69727642,12.9237696 8.75719732,12.7274176 C8.81744746,12.5304011 8.82501988,12.3430195 8.78946242,12.1948419 C8.75456343,12.0466642 8.67554686,11.938355 8.59718876,11.830378 C8.76476974,11.7951609 8.93202149,11.7609405 9.08017756,11.6938286 C9.2280044,11.627049 9.35706481,11.527378 9.45550629,11.4057793 C9.55361854,11.2841805 9.62209957,11.1409864 9.66029091,10.9645687 C9.69914073,10.7878186 9.70770085,10.5788416 9.68300817,10.4206969 C9.6583155,10.2628843 9.60037001,10.1555718 9.53188898,10.0585586 C9.46307871,9.96121323 9.38406214,9.8744994 9.30405786,9.78712109 C9.45353088,9.68877897 9.60300389,9.59010461 9.7320643,9.49076578 C9.86079547,9.39175919 9.96845555,9.29175588 10.0468136,9.15852889 C10.1245133,9.02563413 10.1729109,8.86084463 10.1893727,8.71466039 C10.2061637,8.5688084 10.1903604,8.44222614 10.1538153,8.32594322 C10.1169409,8.20899584 10.0596538,8.10201556 9.96022465,7.98241027 C9.86145394,7.86280499 9.72152875,7.73123918 9.6316474,7.65449246 C9.54110758,7.57708126 9.50094082,7.55448915 9.46044483,7.53189704 C9.58983446,7.41162729 9.7192241,7.29168977 9.82820113,7.1704233 C9.93717815,7.04982131 10.0247549,6.92789037 10.0728233,6.7724035 C10.1212209,6.6175811 10.1287933,6.42953502 10.114307,6.2717225 C10.1001498,6.11390997 10.0639339,5.98666324 10.0063177,5.8800152 C9.94837217,5.77237044 9.86902636,5.68565661 9.76926793,5.59794607 C9.66885104,5.50957106 9.54802153,5.42086381 9.43608138,5.36371906 C9.32479971,5.30657431 9.22174893,5.28065983 9.00511182,5.25142299 C8.78814548,5.22118943 8.45792205,5.18597232 8.06349765,5.17965982 C7.66973172,5.17401179 7.2124233,5.1966039 6.91117262,5.20457759 C6.60959269,5.21255127 6.46472898,5.20657101 6.31986526,5.20059074 C6.4308177,5.0165315 6.54275784,4.83313674 6.7073757,4.60920907 C6.87265204,4.38627811 7.09093532,4.12347873 7.26773491,3.85802145 C7.44486372,3.59322864 7.58017961,3.32710689 7.67532873,3.03772855 C7.77014862,2.74868245 7.82513099,2.436712 7.84620207,2.17623828 C7.86760239,1.91510008 7.85542067,1.70512636 7.8132785,1.47322501 C7.77047786,1.24065918 7.69837523,0.986830191 7.60289687,0.783833447 C7.50741851,0.580836704 7.38889365,0.429336679 7.26971032,0.308734686 C7.15019775,0.188464929 7.02969748,0.0997576781 6.88647994,0.051915565 C6.74293316,0.00374121511 6.57732759,-0.0032357597 6.42126986,0.00108331995 C6.26554136,0.0047379258 6.11968994,0.0193563492 5.99326342,0.0665339885 C5.8668369,0.113379391 5.75950606,0.192784009 5.68378184,0.273185338 C5.60739915,0.353918904 5.56295233,0.43564918 5.54747825,0.550270909 C5.53266264,0.665224875 5.54714901,0.81240582 5.52838258,1.01041901 C5.50994538,1.2084322 5.45825537,1.45727764 5.38714045,1.66392898 C5.31668401,1.86991586 5.22647342,2.03370865 5.09412066,2.22707052 C4.96143866,2.42109687 4.78628526,2.64369559 4.51631196,2.90416932 C4.24600943,3.16530752 3.88055778,3.46398849 3.55757754,3.74339972 C3.23492653,4.02314318 2.95408845,4.28328467 2.74831613,4.49491958 C2.5425438,4.70589 2.41117875,4.86768937 2.26763197,5.07101835 C2.12474367,5.27501181 1.9693444,5.51953816 1.81624979,5.71190333 C1.66315518,5.90426849 1.51203598,6.04447246 1.32173774,6.13052182 C1.13078102,6.21690341 0.901303716,6.24913039 0.692897503,6.27139026 L0.109821036,6.32056132 C0.0722881638,6.7165877 0.035084527,7.11261408 0.0153303836,7.59369311 Z" id="Shape"></path>
                            </g>
                        </g>
                    </g>
                </g>
            </g>
        </g>
    </g>
</svg>