<?xml version="1.0" encoding="UTF-8"?>
<svg width="204px" height="28px" viewBox="0 0 204 28" version="1.1" xmlns="http://www.w3.org/2000/svg" xmlns:xlink="http://www.w3.org/1999/xlink">
    <!-- Generator: Sketch 49.3 (51167) - http://www.bohemiancoding.com/sketch -->
    <title>venturebeat-seeklogo.com</title>
    <desc>Created with Sketch.</desc>
    <defs></defs>
    <g id="v2" stroke="none" stroke-width="1" fill="none" fill-rule="evenodd">
        <g id="menlo-landing-v3" transform="translate(-470.000000, -9454.000000)" fill="#2C2B29" fill-rule="nonzero">
            <g id="Group-29" transform="translate(-1449.000000, 0.000000)">
                <g id="Group-16" transform="translate(1919.000000, 9440.000000)">
                    <g id="venturebeat-seeklogo.com" transform="translate(0.000000, 14.933333)">
                        <path d="M143.970055,0.176406891 C144.997189,0.352813782 146.024324,0.352813782 146.88027,0.705627564 C150.81762,1.76406891 152.871889,6.70346185 150.81762,10.4080066 C150.304052,11.290041 149.619296,11.8192617 148.76335,12.3484824 C148.420972,12.5248893 148.078594,12.7012961 147.565026,13.0541099 C147.736215,13.2305168 147.907405,13.2305168 148.078594,13.2305168 C150.81762,14.1125513 152.015944,16.229434 152.187133,18.8755373 C152.529511,22.7564889 150.132863,25.5789992 146.366702,25.931813 C145.168379,26.1082199 143.970055,26.1082199 142.94292,26.1082199 L131.13087,26.1082199 L131.13087,20.8160131 L133.356329,20.8160131 L133.356329,5.29220673 L131.13087,5.29220673 L131.13087,0 C135.581788,0.176406891 139.690327,0.176406891 143.970055,0.176406891 Z M140.203894,15.7002133 L140.203894,20.8160131 C140.203894,20.99242 140.375083,21.1688269 140.546272,21.1688269 L143.456487,21.1688269 C144.141244,21.1688269 144.826,20.8160131 145.168379,20.1103856 C146.024324,18.5227235 145.168379,16.4058409 143.456487,16.0530271 C142.429353,15.7002133 141.402218,15.7002133 140.203894,15.7002133 Z M140.203894,10.7608203 C141.231029,10.7608203 142.086974,10.7608203 143.114109,10.5844135 C144.312433,10.4080066 144.997189,9.34956522 144.997189,8.11471698 C144.997189,6.87986874 144.312433,5.8214274 143.285298,5.64502051 C142.258163,5.46861362 141.231029,5.46861362 140.203894,5.46861362 L140.203894,10.7608203 Z M24.3088558,0.176406891 L24.3088558,5.46861362 L23.2817211,5.46861362 C22.7681537,5.29220673 22.5969646,5.64502051 22.5969646,5.99783429 C21.0562625,11.4664479 19.3443712,16.7586546 17.6324799,22.2272683 C17.2901017,23.4621165 16.9477234,24.6969647 16.4341561,25.931813 C16.4341561,26.1082199 16.0917778,26.2846267 15.9205887,26.2846267 L8.04588891,26.2846267 L7.87469978,25.7554061 C5.82043027,19.2283511 3.76616076,12.5248893 1.88308038,5.99783429 C1.71189126,5.46861362 1.54070213,5.46861362 1.02713475,5.46861362 L0,5.46861362 L0,0.176406891 L10.956104,0.176406891 L10.956104,5.46861362 L8.73064541,5.46861362 C9.92896929,10.4080066 11.1272932,15.3473995 12.325617,20.1103856 L12.4968062,20.1103856 L16.4341561,5.46861362 L14.2086974,5.46861362 L14.2086974,0.176406891 L24.3088558,0.176406891 Z M202.859114,12.5248893 L200.291277,12.5248893 C200.120088,12.5248893 199.948899,12.7012961 199.948899,12.877703 L199.948899,19.5811649 C199.948899,20.99242 200.804844,21.6980476 202.345547,21.3452338 L202.687925,21.3452338 L202.687925,25.5789992 C202.687925,25.931813 202.687925,26.1082199 202.345547,26.1082199 C200.462466,26.4610336 198.579386,26.6374405 196.525116,26.2846267 C194.299658,25.7554061 193.272523,24.5205578 193.272523,22.2272683 L193.272523,12.3484824 L192.587766,12.3484824 C191.560632,12.3484824 191.731821,12.5248893 191.731821,11.4664479 L191.731821,7.05627564 L193.78609,7.05627564 L193.78609,3.52813782 C193.78609,2.29328958 193.614901,2.46969647 194.813225,2.29328958 C196.525116,1.9404758 198.065818,1.58766202 199.948899,1.05844135 L199.948899,7.05627564 L203.030303,7.05627564 C202.859114,8.99675144 202.859114,10.7608203 202.859114,12.5248893 Z M41.5989575,7.23268253 L48.9600899,7.23268253 L49.1312791,9.87878589 C49.6448464,9.34956522 49.9872247,8.82034454 50.3296029,8.46753076 C52.3838725,6.70346185 54.7805202,6.35064807 57.3483571,7.23268253 C59.2314375,7.93831009 60.0873831,9.52597211 60.0873831,11.6428548 L60.0873831,20.99242 L61.6280852,20.99242 L61.6280852,26.2846267 L53.4110072,26.2846267 L53.4110072,14.4653651 C53.4110072,13.4069237 53.068629,12.877703 52.3838725,12.7012961 C51.5279268,12.5248893 50.8431703,12.7012961 50.3296029,13.4069237 L49.9872247,13.9361444 L49.8160356,14.4653651 L49.8160356,20.99242 L51.0143594,20.99242 L51.0143594,26.2846267 L41.5989575,26.2846267 L41.5989575,20.99242 L42.9684705,20.99242 L42.9684705,12.5248893 L41.5989575,12.5248893 L41.5989575,7.23268253 Z M86.4505085,12.3484824 L85.2521846,12.3484824 L85.2521846,7.05627564 L93.2980735,7.05627564 L93.2980735,20.99242 L94.8387756,20.99242 L94.8387756,26.2846267 L87.3064541,26.2846267 L87.3064541,24.3441509 C86.9640758,24.6969647 86.7928867,25.0497785 86.4505085,25.2261854 C84.5674281,26.9902543 81.3148347,27.3430681 79.0893761,26.2846267 C77.3774848,25.4025923 76.5215392,23.9913372 76.5215392,22.0508614 L76.35035,13.2305168 L76.35035,12.5248893 L74.8096479,12.5248893 L74.8096479,7.23268253 L83.0267259,7.23268253 L83.0267259,18.5227235 C83.0267259,19.0519442 83.0267259,19.5811649 83.1979151,19.9339787 C83.3691042,20.6396062 84.0538607,20.99242 84.7386172,20.99242 C85.4233737,20.99242 85.9369411,20.6396062 86.2793193,19.9339787 C86.4505085,19.7575718 86.4505085,19.404758 86.4505085,19.0519442 L86.4505085,12.3484824 Z M182.658797,14.4653651 L182.658797,12.7012961 C182.658797,11.6428548 181.974041,10.9372272 181.118095,10.9372272 C180.262149,10.9372272 179.406204,11.6428548 179.406204,12.5248893 L179.406204,13.2305168 L173.243395,13.2305168 C173.072206,10.7608203 174.27053,8.64393765 176.495989,7.58549631 C179.748582,6.17424118 183.172364,6.17424118 186.424958,7.7619032 C188.479227,8.82034454 189.506362,10.4080066 189.506362,12.7012961 L189.506362,20.6396062 L191.047064,20.6396062 L191.047064,25.931813 L183.343554,25.931813 C183.343554,25.2261854 183.172364,24.6969647 183.172364,23.8149303 C183.001175,23.9913372 182.829986,24.1677441 182.829986,24.3441509 C180.775717,26.8138474 177.009556,26.8138474 174.955286,25.7554061 C173.414584,24.8733716 172.729828,23.2857096 172.558639,21.5216407 C172.38745,17.6406891 174.27053,15.1709926 178.20788,14.4653651 L182.316419,14.1125513 C182.14523,14.4653651 182.316419,14.4653651 182.658797,14.4653651 Z M182.658797,17.817096 L181.118095,17.817096 C179.577393,17.9935029 178.892636,19.2283511 179.063825,20.6396062 C179.235015,21.8744545 180.262149,22.580082 181.460473,22.0508614 C182.14523,21.8744545 182.487608,21.3452338 182.658797,20.6396062 L182.658797,17.817096 Z M40.4006337,17.9935029 L28.9309622,17.9935029 C28.9309622,19.0519442 28.9309622,20.1103856 29.4445296,20.99242 C29.7869079,21.6980476 30.6428535,22.0508614 31.32761,22.0508614 C32.0123665,22.0508614 32.8683121,21.6980476 33.2106904,20.8160131 C33.3818795,20.4631993 33.3818795,20.1103856 33.5530686,19.5811649 L39.8870663,19.5811649 C39.7158772,21.6980476 38.8599315,23.4621165 37.1480403,24.6969647 C35.9497164,25.5789992 34.5802034,26.1082199 33.2106904,26.2846267 C31.32761,26.6374405 29.2733405,26.4610336 27.3902601,25.931813 C24.8224232,25.0497785 23.110532,23.2857096 22.4257755,20.8160131 C21.5698298,17.9935029 21.5698298,15.1709926 22.4257755,12.3484824 C23.4529102,8.99675144 25.849558,7.05627564 29.2733405,6.52705496 C30.8140426,6.35064807 32.3547447,6.35064807 33.8954469,6.87986874 C37.3192294,7.93831009 39.2023098,10.2315997 39.8870663,13.9361444 C40.2294445,15.3473995 40.2294445,16.5822477 40.4006337,17.9935029 Z M29.1021514,14.2889582 L33.5530686,14.2889582 C33.5530686,13.2305168 33.5530686,12.3484824 32.5259339,11.8192617 C31.6699882,11.290041 30.8140426,11.290041 30.1292861,11.8192617 C29.1021514,12.3484824 29.1021514,13.2305168 29.1021514,14.2889582 Z M129.590168,17.9935029 L118.120497,17.9935029 C118.120497,19.0519442 118.120497,20.1103856 118.634064,20.99242 C119.147631,21.8744545 119.832388,22.0508614 120.688334,22.0508614 C121.544279,22.0508614 122.229036,21.5216407 122.571414,20.8160131 L122.913792,19.7575718 L129.24779,19.7575718 C128.905412,23.6385234 126.166386,26.2846267 122.400225,26.6374405 C120.517144,26.8138474 118.805253,26.8138474 117.093362,26.1082199 C114.525525,25.2261854 112.813634,23.4621165 111.957688,20.8160131 C111.101743,17.9935029 111.101743,15.3473995 111.957688,12.5248893 C112.984823,8.99675144 115.55266,7.23268253 118.976442,6.70346185 C120.517144,6.52705496 122.229036,6.52705496 123.769738,7.05627564 C127.022331,8.11471698 128.734222,10.4080066 129.418979,13.5833306 C129.590168,15.1709926 129.590168,16.5822477 129.590168,17.9935029 Z M118.462875,14.2889582 L122.913792,14.2889582 C122.913792,12.3484824 122.057847,11.290041 120.517144,11.4664479 C119.147631,11.6428548 118.291686,12.7012961 118.462875,14.2889582 Z M171.702693,17.9935029 L160.233022,17.9935029 C160.233022,19.2283511 160.233022,20.2867925 160.917778,21.1688269 C161.431345,21.8744545 162.116102,22.0508614 162.972048,22.0508614 C163.827993,22.0508614 164.341561,21.5216407 164.683939,20.8160131 L165.026317,19.7575718 L171.360315,19.7575718 C171.189126,21.8744545 170.33318,23.6385234 168.621289,24.8733716 C166.567019,26.4610336 164.341561,26.8138474 161.944913,26.6374405 C160.917778,26.6374405 160.061832,26.4610336 159.034698,26.1082199 C156.466861,25.4025923 154.926159,23.6385234 154.070213,21.1688269 C153.214267,18.1699098 153.043078,15.1709926 154.241402,12.1720755 C155.439726,8.99675144 157.836374,7.23268253 161.088967,6.87986874 C162.629669,6.70346185 164.341561,6.87986874 165.882263,7.23268253 C169.134856,8.29112387 170.846747,10.7608203 171.531504,14.1125513 C171.531504,15.3473995 171.702693,16.5822477 171.702693,17.9935029 Z M165.026317,14.4653651 C165.026317,13.4069237 164.855128,12.3484824 163.999182,11.8192617 C163.143237,11.290041 162.287291,11.290041 161.431345,11.9956686 C160.746589,12.5248893 160.5754,13.4069237 160.5754,14.4653651 L165.026317,14.4653651 Z M62.4840309,7.05627564 L64.5383004,7.05627564 L64.5383004,3.35173093 C64.5383004,2.64610336 64.7094895,2.46969647 65.394246,2.29328958 L70.7011089,1.05844135 L70.7011089,7.05627564 L73.611324,7.05627564 L73.611324,12.3484824 L70.7011089,12.3484824 L70.7011089,19.7575718 C70.872298,20.99242 71.7282437,21.5216407 72.7553784,21.3452338 C72.9265675,21.3452338 73.0977567,21.3452338 73.4401349,21.1688269 L73.4401349,24.5205578 C73.4401349,26.1082199 73.4401349,26.1082199 71.8994328,26.2846267 C70.3587306,26.4610336 68.8180285,26.6374405 67.1061373,26.2846267 C64.8806786,25.7554061 63.8535439,24.3441509 63.8535439,22.0508614 L63.8535439,12.3484824 L62.3128417,12.3484824 C62.4840309,10.7608203 62.4840309,8.99675144 62.4840309,7.05627564 Z M96.2082886,26.2846267 L96.2082886,20.99242 L97.7489908,20.99242 L97.7489908,12.5248893 L96.2082886,12.5248893 L96.2082886,7.23268253 L103.398232,7.23268253 C103.398232,8.11471698 103.569421,9.17315833 103.569421,10.2315997 C103.74061,10.0551928 103.74061,9.87878589 103.74061,9.702379 C104.254178,8.11471698 105.452501,7.23268253 106.993204,7.05627564 L109.389851,7.05627564 C109.56104,7.05627564 109.73223,7.23268253 109.73223,7.40908942 L109.73223,13.2305168 C108.876284,13.2305168 107.849149,13.0541099 106.993204,13.2305168 C105.110123,13.5833306 104.254178,14.6417719 104.082988,16.5822477 L104.082988,20.8160131 L106.137258,20.8160131 L106.137258,26.1082199 C103.055854,26.2846267 99.6320711,26.2846267 96.2082886,26.2846267 Z" id="Shape"></path>
                    </g>
                </g>
            </g>
        </g>
    </g>
</svg>